<svg width="316" height="127" viewBox="0 0 316 127" fill="none" xmlns="http://www.w3.org/2000/svg">
<g filter="url(#filter0_d_701_24)">
<path d="M66 10.0005H216C243.614 10.0005 266 32.3863 266 60.0005V60.0005C266 87.6147 243.614 110 216 110H66" stroke="#B22C7D"/>
</g>
<g filter="url(#filter1_d_701_24)">
<path d="M66 110H57C29.3858 110 7 87.6142 7 60V60C7 32.3858 29.3858 10 57 10H66" stroke="#B22C7D"/>
</g>
<g filter="url(#filter2_d_701_24)">
<path d="M175.495 74.1441C173.671 74.1441 172.039 73.8321 170.599 73.2081C169.183 72.5601 168.055 71.6601 167.215 70.5081C166.375 69.3561 165.895 68.0241 165.775 66.5121H168.331C168.427 67.5201 168.763 68.4201 169.339 69.2121C169.939 69.9801 170.707 70.5801 171.643 71.0121C172.603 71.4201 173.671 71.6241 174.847 71.6241C176.119 71.6241 177.247 71.3601 178.231 70.8321C179.215 70.3041 179.971 69.5601 180.499 68.6001C181.051 67.6161 181.327 66.5241 181.327 65.3241C181.327 64.1721 181.063 63.1401 180.535 62.2281C180.031 61.3161 179.311 60.6081 178.375 60.1041C177.439 59.5761 176.347 59.3121 175.099 59.3121C173.707 59.3121 172.459 59.6121 171.355 60.2121C170.275 60.8121 169.495 61.6161 169.015 62.6241L166.675 62.5881L168.655 48.4401H184.279V52.0041H170.527L169.375 59.8161C170.143 59.0001 171.103 58.3761 172.255 57.9441C173.407 57.5121 174.691 57.2961 176.107 57.2961C177.883 57.2961 179.479 57.6321 180.895 58.3041C182.311 58.9521 183.415 59.8881 184.207 61.1121C185.023 62.3121 185.431 63.7281 185.431 65.3601C185.431 67.0881 185.011 68.6121 184.171 69.9321C183.331 71.2521 182.155 72.2841 180.643 73.0281C179.155 73.7721 177.439 74.1441 175.495 74.1441ZM199.692 74.1801C197.58 74.1801 195.684 73.6161 194.004 72.4881C192.348 71.3601 191.04 69.8001 190.08 67.8081C189.144 65.8161 188.676 63.5601 188.676 61.0401C188.676 58.5201 189.144 56.2641 190.08 54.2721C191.04 52.2801 192.348 50.7201 194.004 49.5921C195.684 48.4641 197.58 47.9001 199.692 47.9001C201.804 47.9001 203.7 48.4641 205.38 49.5921C207.06 50.7201 208.368 52.2801 209.304 54.2721C210.264 56.2641 210.744 58.5201 210.744 61.0401C210.744 63.5601 210.264 65.8161 209.304 67.8081C208.368 69.8001 207.06 71.3601 205.38 72.4881C203.7 73.6161 201.804 74.1801 199.692 74.1801ZM199.692 71.8401C201.036 71.8401 202.224 71.3961 203.256 70.5081C204.312 69.5961 205.128 68.3241 205.704 66.6921C206.304 65.0361 206.604 63.1521 206.604 61.0401C206.604 58.9281 206.304 57.0441 205.704 55.3881C205.128 53.7321 204.312 52.4601 203.256 51.5721C202.224 50.6601 201.036 50.2041 199.692 50.2041C198.348 50.2041 197.148 50.6601 196.092 51.5721C195.06 52.4601 194.256 53.7321 193.68 55.3881C193.104 57.0441 192.816 58.9281 192.816 61.0401C192.816 63.1521 193.104 65.0361 193.68 66.6921C194.256 68.3241 195.06 69.5961 196.092 70.5081C197.148 71.3961 198.348 71.8401 199.692 71.8401ZM219.915 60.2481C218.811 60.2481 217.791 59.9841 216.855 59.4561C215.943 58.9281 215.223 58.2081 214.695 57.2961C214.167 56.3601 213.903 55.3401 213.903 54.2361C213.903 53.1321 214.167 52.1241 214.695 51.2121C215.223 50.3001 215.943 49.5801 216.855 49.0521C217.791 48.5241 218.811 48.2601 219.915 48.2601C221.019 48.2601 222.027 48.5241 222.939 49.0521C223.851 49.5801 224.571 50.3001 225.099 51.2121C225.627 52.1241 225.891 53.1321 225.891 54.2361C225.891 55.3401 225.627 56.3601 225.099 57.2961C224.571 58.2081 223.851 58.9281 222.939 59.4561C222.027 59.9841 221.019 60.2481 219.915 60.2481ZM219.915 58.3761C220.563 58.3761 221.139 58.1961 221.643 57.8361C222.171 57.4761 222.579 56.9841 222.867 56.3601C223.155 55.7361 223.299 55.0281 223.299 54.2361C223.299 53.4441 223.155 52.7361 222.867 52.1121C222.579 51.4881 222.171 51.0081 221.643 50.6721C221.139 50.3121 220.563 50.1321 219.915 50.1321C219.267 50.1321 218.679 50.3121 218.151 50.6721C217.623 51.0081 217.215 51.4881 216.927 52.1121C216.639 52.7361 216.495 53.4441 216.495 54.2361C216.495 55.0521 216.639 55.7721 216.927 56.3961C217.215 56.9961 217.623 57.4761 218.151 57.8361C218.679 58.1961 219.267 58.3761 219.915 58.3761ZM217.971 73.6401L233.091 48.4401H235.215L220.095 73.6401H217.971ZM233.307 73.8201C232.203 73.8201 231.183 73.5561 230.247 73.0281C229.335 72.5001 228.615 71.7801 228.087 70.8681C227.559 69.9321 227.295 68.9121 227.295 67.8081C227.295 66.7041 227.559 65.6961 228.087 64.7841C228.615 63.8481 229.335 63.1161 230.247 62.5881C231.183 62.0601 232.203 61.7961 233.307 61.7961C234.411 61.7961 235.419 62.0601 236.331 62.5881C237.243 63.1161 237.963 63.8481 238.491 64.7841C239.019 65.6961 239.283 66.7041 239.283 67.8081C239.283 68.9121 239.019 69.9321 238.491 70.8681C237.963 71.7801 237.243 72.5001 236.331 73.0281C235.419 73.5561 234.411 73.8201 233.307 73.8201ZM233.307 71.9481C233.955 71.9481 234.531 71.7681 235.035 71.4081C235.563 71.0481 235.971 70.5561 236.259 69.9321C236.547 69.3081 236.691 68.6001 236.691 67.8081C236.691 67.0161 236.547 66.3081 236.259 65.6841C235.971 65.0601 235.563 64.5681 235.035 64.2081C234.531 63.8481 233.955 63.6681 233.307 63.6681C232.659 63.6681 232.071 63.8481 231.543 64.2081C231.015 64.5681 230.607 65.0601 230.319 65.6841C230.031 66.2841 229.887 66.9921 229.887 67.8081C229.887 68.6001 230.031 69.3081 230.319 69.9321C230.607 70.5561 231.015 71.0481 231.543 71.4081C232.071 71.7681 232.659 71.9481 233.307 71.9481Z" fill="#33C1C8"/>
</g>
<path d="M258.944 11.0665L257.516 13.289L257.29 13.1344C257.441 12.8214 257.569 12.5298 257.672 12.2595C257.779 11.9922 257.833 11.7386 257.833 11.4988C257.836 11.2547 257.771 11.0234 257.636 10.805C257.509 10.5852 257.289 10.3679 256.975 10.153L256.517 9.83944L254.663 12.5462C254.424 12.8942 254.231 13.1814 254.082 13.4077C253.937 13.637 253.832 13.8083 253.767 13.9216C253.707 14.0379 253.663 14.1435 253.636 14.2385C253.608 14.3335 253.605 14.4259 253.626 14.5158C253.65 14.6085 253.701 14.7002 253.778 14.7907C253.859 14.8842 253.973 14.981 254.119 15.0811L254.325 15.2224L254.122 15.5189L251.157 13.4875L251.361 13.191L251.567 13.3324C251.713 13.4325 251.842 13.502 251.954 13.541C252.066 13.58 252.168 13.5928 252.259 13.5795C252.355 13.5692 252.442 13.5342 252.521 13.4745C252.604 13.4178 252.688 13.3402 252.775 13.2416C252.857 13.1401 252.977 12.9791 253.134 12.7586C253.296 12.5411 253.496 12.2583 253.735 11.9103L255.589 9.20353L255.132 8.88998C254.814 8.67213 254.529 8.54354 254.279 8.50423C254.031 8.46062 253.793 8.48432 253.567 8.57533C253.343 8.66205 253.124 8.80228 252.909 8.99602C252.699 9.19269 252.475 9.4181 252.238 9.67222L252.012 9.51766L253.569 7.38353L258.944 11.0665Z" fill="#33C1C8"/>
<path d="M262.233 17.8305C262.543 18.1621 262.779 18.4733 262.94 18.7642C263.109 19.0549 263.214 19.3268 263.253 19.5801C263.295 19.8296 263.281 20.0602 263.208 20.2719C263.136 20.4836 263.019 20.6742 262.857 20.8438C262.631 21.0813 262.386 21.229 262.122 21.2868C261.858 21.3446 261.572 21.3238 261.264 21.2243C260.959 21.121 260.631 20.9446 260.279 20.6951C259.926 20.4456 259.549 20.1286 259.145 19.744L257.036 17.7329L257.29 17.4672L257.363 17.5373C257.492 17.6595 257.604 17.7526 257.702 17.8166C257.799 17.8806 257.885 17.9228 257.959 17.9431C258.037 17.967 258.107 17.9728 258.169 17.9602C258.235 17.9439 258.297 17.9167 258.355 17.8784C258.417 17.8365 258.511 17.7569 258.637 17.6397C258.766 17.5187 258.925 17.3602 259.112 17.1642L261.096 15.0836C261.279 14.8913 261.414 14.7426 261.5 14.6374C261.589 14.5358 261.654 14.4496 261.692 14.3787C261.728 14.3115 261.752 14.2483 261.765 14.1891C261.779 14.1298 261.77 14.0637 261.738 13.9908C261.711 13.9214 261.657 13.838 261.578 13.7404C261.502 13.6464 261.389 13.5275 261.238 13.3838L261.48 13.1293C261.815 13.4198 262.143 13.7104 262.463 14.0012C262.783 14.292 263.107 14.5937 263.435 14.9064C264.226 15.6613 264.739 16.3048 264.972 16.8371C265.21 17.373 265.152 17.8256 264.8 18.195C264.513 18.4966 264.164 18.6246 263.754 18.5791C263.344 18.5335 262.837 18.284 262.233 17.8305ZM261.194 16.6451C261.537 16.9721 261.836 17.2284 262.091 17.4139C262.345 17.5994 262.573 17.723 262.774 17.7845C262.978 17.8423 263.162 17.8379 263.326 17.7714C263.494 17.7085 263.66 17.5903 263.826 17.4169C263.959 17.2775 264.06 17.1406 264.131 17.0063C264.201 16.872 264.218 16.7224 264.181 16.5575C264.151 16.3924 264.058 16.2031 263.902 15.9894C263.75 15.772 263.517 15.5142 263.204 15.2158C263.152 15.1655 263.095 15.1116 263.035 15.0541C262.978 15.0002 262.918 14.95 262.854 14.9036L261.194 16.6451ZM260.024 17.872C259.822 18.083 259.659 18.2582 259.533 18.3975C259.415 18.5366 259.331 18.6399 259.281 18.7074C259.235 18.7711 259.203 18.8345 259.186 18.8976C259.173 18.9642 259.176 19.0359 259.197 19.1128C259.221 19.1933 259.267 19.2806 259.336 19.3747C259.404 19.4689 259.501 19.5753 259.625 19.6939C260.53 20.5565 261.322 20.6317 262.001 19.9193C262.177 19.7346 262.298 19.5475 262.363 19.3581C262.436 19.1685 262.446 18.9656 262.393 18.7495C262.344 18.5297 262.227 18.293 262.045 18.0394C261.865 17.7822 261.614 17.4989 261.29 17.1898C261.237 17.1395 261.184 17.0892 261.131 17.0389C261.078 16.9886 261.022 16.9383 260.962 16.8882L260.024 17.872Z" fill="#33C1C8"/>
<path d="M265.657 21.7878C266.438 21.1976 267.289 20.9664 268.208 21.0944C269.131 21.2192 269.882 21.664 270.459 22.4286C271.04 23.1974 271.265 24.0429 271.133 24.9653C271 25.8876 270.546 26.6424 269.769 27.2295C268.908 27.8795 268.03 28.1253 267.134 27.967C266.242 27.8056 265.511 27.3488 264.943 26.5967C264.375 25.8445 264.139 25.0141 264.236 24.1054C264.34 23.1977 264.814 22.4252 265.657 21.7878ZM266.408 22.8461C265.502 23.5306 264.978 24.1585 264.835 24.7298C264.696 25.298 264.828 25.8481 265.23 26.38C265.641 26.9244 266.136 27.2034 266.714 27.2169C267.299 27.2315 268.045 26.8966 268.951 26.2121C269.849 25.5339 270.38 24.907 270.546 24.3314C270.712 23.7558 270.587 23.1938 270.173 22.6452C269.761 22.1009 269.255 21.8277 268.653 21.8256C268.058 21.8246 267.31 22.1648 266.408 22.8461Z" fill="#33C1C8"/>
<path d="M275.719 31.995C275.662 31.8543 275.607 31.7333 275.553 31.6321C275.441 31.4204 275.32 31.2253 275.189 31.0468C275.062 30.8728 274.917 30.7341 274.757 30.6309C274.598 30.5322 274.417 30.4807 274.215 30.4762C274.019 30.474 273.792 30.5412 273.534 30.678C273.263 30.822 273.079 30.9814 272.983 31.1561C272.892 31.3284 272.855 31.5192 272.871 31.7285C272.895 31.94 272.96 32.1679 273.066 32.4123C273.175 32.6613 273.298 32.9262 273.435 33.2072L275.719 31.995ZM268.282 30.1133C268.35 30.2304 268.417 30.3395 268.482 30.4404C268.547 30.5414 268.62 30.6328 268.698 30.7148C268.777 30.7967 268.87 30.8714 268.976 30.9387C269.085 31.0106 269.215 31.0774 269.366 31.139C269.519 31.2052 269.699 31.266 269.905 31.3216C270.111 31.3772 270.356 31.433 270.639 31.489C271.152 31.5885 271.558 31.6765 271.859 31.7531C272.161 31.8343 272.373 31.9223 272.494 32.0173C272.375 31.7149 272.303 31.4347 272.278 31.1767C272.253 30.9187 272.265 30.6854 272.313 30.4769C272.364 30.273 272.45 30.095 272.57 29.943C272.694 29.7885 272.846 29.6637 273.025 29.5684C273.278 29.4342 273.529 29.378 273.776 29.4C274.026 29.4265 274.271 29.5208 274.51 29.6827C274.756 29.8469 274.997 30.0787 275.233 30.3782C275.468 30.6777 275.698 31.0391 275.923 31.4623C276.013 31.6326 276.117 31.8339 276.235 32.0664C276.355 32.3035 276.486 32.5729 276.628 32.8747L277.059 33.7869L276.749 33.9517L276.69 33.8412C276.58 33.6342 276.481 33.4805 276.392 33.3801C276.311 33.2819 276.215 33.2295 276.105 33.2228C276 33.2137 275.872 33.2436 275.72 33.3126C275.568 33.3815 275.37 33.4806 275.126 33.61L272.51 34.998C272.276 35.1225 272.084 35.2273 271.934 35.3125C271.792 35.3998 271.691 35.4652 271.631 35.5086C271.515 35.5999 271.452 35.7156 271.444 35.8556C271.443 35.9978 271.511 36.1977 271.647 36.4553L271.754 36.6554L271.429 36.8275L269.818 33.7911L270.142 33.619L270.3 33.9157C270.434 34.1688 270.564 34.3299 270.689 34.3991C270.746 34.428 270.802 34.4453 270.858 34.4509C270.914 34.4565 270.987 34.4443 271.077 34.4141C271.167 34.384 271.283 34.3346 271.423 34.266C271.564 34.1973 271.747 34.1032 271.972 33.9835L273.083 33.3939L272.962 33.1662C272.884 33.019 272.799 32.9255 272.707 32.8858C272.667 32.8658 272.587 32.8433 272.468 32.8182C272.353 32.7907 272.217 32.7625 272.061 32.7337C271.908 32.7025 271.742 32.6727 271.562 32.6445C271.389 32.6184 271.224 32.5967 271.068 32.5795C269.979 32.4615 269.274 32.3224 268.954 32.1625L267.958 30.2854L268.282 30.1133Z" fill="#33C1C8"/>
<path d="M277.958 45.4372C278.046 45.8826 278.081 46.2715 278.064 46.6038C278.053 46.9399 277.997 47.2257 277.897 47.4613C277.801 47.6955 277.666 47.8833 277.493 48.0245C277.319 48.1658 277.119 48.2655 276.892 48.3237C276.574 48.4052 276.288 48.4005 276.033 48.3098C275.779 48.2191 275.547 48.0499 275.339 47.8023C275.135 47.5534 274.95 47.2299 274.783 46.8317C274.617 46.4335 274.464 45.9645 274.326 45.4246L273.602 42.6018L273.958 42.5106L273.983 42.609C274.027 42.7805 274.074 42.9192 274.122 43.0251C274.171 43.1309 274.221 43.2121 274.273 43.2686C274.327 43.3302 274.383 43.3722 274.443 43.3945C274.507 43.4156 274.574 43.4253 274.644 43.4237C274.718 43.4207 274.84 43.4029 275.009 43.3703C275.183 43.3365 275.402 43.2859 275.664 43.2187L278.449 42.5049C278.706 42.4389 278.899 42.3841 279.028 42.3404C279.158 42.3017 279.258 42.2626 279.328 42.223C279.394 42.1847 279.448 42.144 279.491 42.1008C279.533 42.0576 279.561 41.9968 279.573 41.9184C279.586 41.8451 279.585 41.7459 279.569 41.6209C279.555 41.501 279.521 41.3401 279.47 41.1383L279.81 41.0511C279.94 41.4747 280.064 41.8946 280.182 42.3108C280.299 42.727 280.414 43.1545 280.526 43.5935C280.798 44.653 280.892 45.4704 280.808 46.0456C280.726 46.6259 280.437 46.9795 279.943 47.1062C279.539 47.2096 279.176 47.1335 278.852 46.8777C278.528 46.6219 278.23 46.1417 277.958 45.4372ZM277.705 43.8811C277.822 44.3403 277.94 44.716 278.058 45.0084C278.176 45.3008 278.304 45.5261 278.441 45.6845C278.584 45.8415 278.742 45.9353 278.917 45.9659C279.092 46.0015 279.296 45.9895 279.528 45.93C279.715 45.8822 279.874 45.82 280.005 45.7434C280.136 45.6669 280.229 45.5488 280.285 45.3893C280.347 45.2336 280.369 45.0238 280.35 44.7599C280.335 44.4947 280.275 44.1527 280.167 43.7339C280.149 43.6633 280.13 43.5876 280.109 43.5069C280.09 43.4312 280.065 43.3568 280.036 43.2837L277.705 43.8811ZM276.063 44.3021C275.78 44.3745 275.549 44.4365 275.368 44.4881C275.194 44.5434 275.068 44.5865 274.99 44.6173C274.917 44.6468 274.857 44.6837 274.809 44.7282C274.762 44.7778 274.727 44.8405 274.704 44.9164C274.682 44.9974 274.675 45.096 274.683 45.2122C274.691 45.3283 274.717 45.4697 274.759 45.6362C275.07 46.847 275.702 47.3303 276.655 47.0859C276.902 47.0225 277.104 46.9278 277.26 46.8018C277.422 46.6796 277.538 46.5128 277.607 46.3014C277.682 46.0888 277.709 45.8265 277.688 45.5146C277.672 45.2014 277.609 44.8279 277.498 44.394C277.479 44.3234 277.461 44.2527 277.443 44.1821C277.425 44.1115 277.404 44.0389 277.379 43.9646L276.063 44.3021Z" fill="#33C1C8"/>
<path d="M279.509 53.2444C279.539 53.5453 279.561 53.8232 279.574 54.078C279.585 54.2965 279.586 54.5285 279.578 54.774C279.575 55.0245 279.554 55.2733 279.514 55.5204C279.474 55.7675 279.416 56.0025 279.338 56.2255C279.261 56.4536 279.154 56.6572 279.017 56.8362C278.885 57.0149 278.72 57.1588 278.522 57.2679C278.33 57.3819 278.099 57.4457 277.828 57.4594C277.5 57.4759 277.221 57.4144 276.99 57.2748C276.758 57.1352 276.565 56.9233 276.41 56.6391C276.26 56.3547 276.143 56.0007 276.059 55.5773C275.975 55.1539 275.919 54.664 275.891 54.1074L275.744 51.197L276.111 51.1785L276.116 51.2799C276.125 51.4568 276.143 51.6019 276.169 51.7153C276.196 51.8287 276.229 51.9183 276.269 51.9841C276.309 52.0551 276.356 52.1074 276.41 52.1412C276.469 52.1748 276.533 52.1976 276.601 52.2098C276.675 52.2217 276.798 52.2286 276.97 52.2303C277.147 52.2318 277.371 52.2257 277.642 52.2121L279.998 52.0932C280.373 52.0743 280.669 52.0542 280.887 52.0328C281.11 52.0163 281.261 52.0009 281.338 51.9865C281.493 51.9526 281.609 51.8686 281.685 51.7343C281.767 51.5998 281.8 51.3739 281.784 51.0566L281.776 50.8928L282.135 50.8747L282.306 54.2688L281.947 54.2869L281.936 54.0684C281.919 53.7355 281.861 53.5064 281.76 53.3811C281.66 53.2558 281.521 53.1872 281.343 53.1753C281.16 53.1688 280.731 53.1827 280.055 53.2168L279.509 53.2444ZM277.815 53.3298C277.524 53.3445 277.285 53.3643 277.099 53.3894C276.917 53.4142 276.785 53.4339 276.703 53.4485C276.625 53.4628 276.559 53.487 276.503 53.5211C276.448 53.5604 276.401 53.6149 276.363 53.6846C276.325 53.7596 276.298 53.8548 276.283 53.9703C276.268 54.0857 276.265 54.2293 276.274 54.401C276.337 55.6494 276.86 56.2488 277.843 56.1992C278.098 56.1864 278.314 56.1337 278.492 56.0413C278.675 55.9538 278.822 55.8134 278.932 55.6202C279.048 55.4266 279.126 55.1749 279.168 54.8651C279.215 54.5551 279.227 54.1764 279.204 53.729C279.201 53.6562 279.197 53.5782 279.193 53.495C279.189 53.4169 279.182 53.339 279.173 53.2613L277.815 53.3298ZM282.869 60.3184L278.414 60.5431C277.732 60.5775 277.304 60.6096 277.128 60.6393C276.952 60.669 276.821 60.7513 276.734 60.886C276.647 61.0208 276.612 61.2546 276.628 61.5875L276.637 61.7514L276.278 61.7695L276.104 58.3286L276.463 58.3105L276.476 58.5757C276.495 58.9451 276.559 59.1817 276.669 59.2857C276.784 59.3946 276.914 59.4532 277.061 59.4615C277.213 59.4747 277.645 59.4633 278.358 59.4274L280.293 59.3298C281.042 59.292 281.498 59.2325 281.66 59.1513C281.823 59.0752 281.923 58.9764 281.958 58.8546C281.994 58.7381 282.005 58.5342 281.99 58.2429L281.979 58.0322L282.338 58.0141C282.479 58.9353 282.653 59.6462 282.861 60.1467L282.869 60.3184Z" fill="#33C1C8"/>
<path d="M281.456 70.4447L278.831 70.148L278.87 69.8773C279.217 69.8744 279.535 69.8594 279.823 69.8322C280.11 69.8102 280.362 69.7462 280.577 69.6402C280.797 69.5349 280.975 69.3736 281.112 69.1564C281.252 68.945 281.35 68.6512 281.404 68.2748L281.593 66.9523L278.345 66.4875C277.927 66.4277 277.584 66.3812 277.315 66.348C277.045 66.32 276.845 66.3019 276.715 66.2937C276.584 66.2907 276.47 66.2981 276.372 66.3157C276.275 66.3334 276.191 66.3713 276.119 66.4295C276.047 66.4928 275.988 66.579 275.94 66.688C275.892 66.8021 275.856 66.9468 275.831 67.1221L275.795 67.3696L275.44 67.3187L275.932 63.8772L276.288 63.9281L276.267 64.0751C276.243 64.2452 276.236 64.3863 276.246 64.4982C276.261 64.6109 276.293 64.7048 276.34 64.78C276.392 64.8559 276.457 64.9152 276.535 64.9579C276.618 65.0065 276.717 65.0471 276.834 65.0795C276.95 65.112 277.147 65.1533 277.423 65.2034C277.706 65.2543 278.066 65.3111 278.504 65.3738L279.494 65.5155C279.912 65.5753 280.255 65.6192 280.525 65.6472C280.799 65.6812 280.996 65.6963 281.118 65.6927C281.234 65.6934 281.335 65.6843 281.422 65.6651C281.508 65.6512 281.582 65.6143 281.643 65.5547C281.704 65.4951 281.754 65.4048 281.792 65.284C281.836 65.164 281.872 64.9983 281.903 64.7869L282.258 64.8378L281.456 70.4447Z" fill="#33C1C8"/>
<path d="M277.838 72.2645C278.775 72.5475 279.463 73.0979 279.902 73.9158C280.345 74.7352 280.428 75.6037 280.152 76.5211C279.873 77.4435 279.322 78.1233 278.5 78.5604C277.677 78.9975 276.799 79.0753 275.867 78.7939C274.834 78.4823 274.118 77.9179 273.717 77.1005C273.322 76.2847 273.26 75.4255 273.532 74.5231C273.805 73.6206 274.337 72.9405 275.128 72.4829C275.922 72.0318 276.825 71.959 277.838 72.2645ZM277.425 73.4948C276.338 73.1667 275.522 73.1134 274.976 73.335C274.436 73.558 274.069 73.9887 273.877 74.6269C273.679 75.2801 273.746 75.8442 274.076 76.3192C274.409 76.8006 275.119 77.2054 276.206 77.5336C277.283 77.8587 278.103 77.9184 278.666 77.7129C279.228 77.5073 279.609 77.0754 279.807 76.4172C280.005 75.7641 279.927 75.1937 279.573 74.7062C279.223 74.2252 278.507 73.8214 277.425 73.4948Z" fill="#33C1C8"/>
<path d="M268.561 86.9661C268.496 86.9336 268.423 86.8918 268.344 86.8407C268.258 86.7919 268.142 86.7141 267.998 86.6072C267.846 86.5027 267.654 86.3632 267.42 86.189C267.187 86.0147 266.889 85.7904 266.525 85.5162L266.668 85.2295C267.066 85.3406 267.401 85.4343 267.671 85.5107C267.934 85.5894 268.154 85.6554 268.332 85.7087C268.502 85.7643 268.637 85.8083 268.737 85.8407C268.835 85.8778 268.917 85.9126 268.982 85.9451L271.746 80.3919C271.681 80.3594 271.605 80.313 271.519 80.2526C271.43 80.1968 271.313 80.1155 271.169 80.0086C271.017 79.9041 270.831 79.7705 270.609 79.6078C270.383 79.4429 270.105 79.2349 269.776 78.9839L269.919 78.6972C270.36 78.8175 270.72 78.9182 270.999 78.9992C271.277 79.0849 271.504 79.1544 271.681 79.2076C271.851 79.2632 271.983 79.3084 272.076 79.3432C272.162 79.3803 272.238 79.4151 272.303 79.4476C272.35 79.4708 272.398 79.5092 272.447 79.5626C272.496 79.6161 272.509 79.6662 272.486 79.7128L272.036 80.615C271.967 80.9529 271.984 81.2696 272.087 81.5653C272.195 81.8632 272.37 82.1424 272.613 82.4029C272.86 82.6656 273.162 82.912 273.519 83.1419C273.878 83.3789 274.274 83.6053 274.708 83.8211C275.086 84.0091 275.389 84.1483 275.617 84.2388C275.85 84.3315 276.037 84.3778 276.176 84.3775C276.321 84.3796 276.434 84.334 276.515 84.2407C276.601 84.1497 276.687 84.0179 276.773 83.8454L276.811 83.7685L277.133 83.9286L274.386 89.4468L274.064 89.2867L274.089 89.2377C274.202 89.0092 274.273 88.8205 274.301 88.6713C274.331 88.5292 274.319 88.4069 274.265 88.3045C274.211 88.2021 274.116 88.108 273.978 88.022C273.843 87.9431 273.666 87.8491 273.447 87.74L270.418 86.2325C270.227 86.1374 270.065 86.0713 269.932 86.0343C269.799 85.9972 269.684 85.9893 269.586 86.0104C269.489 86.0316 269.402 86.0818 269.328 86.1611C269.254 86.2404 269.182 86.35 269.112 86.4899L268.886 86.9445C268.86 86.9958 268.811 87.018 268.739 87.0112C268.667 87.0043 268.607 86.9893 268.561 86.9661ZM275.648 86.1044C275.718 85.9646 275.766 85.8457 275.791 85.7478C275.821 85.6523 275.835 85.5719 275.832 85.5067C275.828 85.4461 275.809 85.3961 275.776 85.3565C275.744 85.317 275.702 85.2844 275.65 85.2589C275.287 85.1478 274.83 84.9552 274.28 84.6814C273.799 84.4423 273.384 84.2125 273.035 83.9918C272.685 83.7712 272.393 83.5504 272.16 83.3295C271.927 83.1087 271.747 82.8854 271.621 82.6597C271.492 82.4386 271.408 82.2047 271.368 81.9579L270.393 83.9162C270.31 84.084 270.251 84.2262 270.216 84.3427C270.181 84.4592 270.181 84.5641 270.216 84.6572C270.249 84.7549 270.323 84.8468 270.437 84.9328C270.549 85.0234 270.71 85.121 270.92 85.2254L273.948 86.7329C274.162 86.8396 274.342 86.9232 274.486 86.9835C274.633 87.0508 274.762 87.0796 274.871 87.0701C274.983 87.0676 275.082 87.0208 275.168 86.9298C275.258 86.8412 275.352 86.6989 275.45 86.5031L275.648 86.1044Z" fill="#33C1C8"/>
<path d="M264.505 94.4526L264.334 94.6859C263.643 94.1223 263.542 93.5062 264.031 92.8378C264.24 92.552 264.482 92.3803 264.756 92.3229C265.027 92.2696 265.331 92.327 265.666 92.4948C265.675 91.8561 265.731 91.307 265.835 90.8474C265.936 90.392 266.086 90.0276 266.286 89.7544C266.542 89.4055 266.862 89.1787 267.249 89.0741C267.635 88.9695 267.994 89.0386 268.326 89.2815C268.759 89.5982 268.984 90.0852 269 90.7423C269.013 91.4037 268.901 92.2186 268.663 93.1871L268.346 94.4551L268.598 94.6396C268.955 94.901 269.231 95.067 269.424 95.1376C269.618 95.2082 269.848 95.1929 270.116 95.0918C270.384 94.9907 270.633 94.7825 270.863 94.4672C271.325 93.8366 271.371 93.3319 271.003 92.9529C270.623 92.572 270.538 92.2386 270.747 91.9528C270.935 91.6963 271.151 91.6573 271.394 91.8356C271.634 92.0109 271.766 92.3687 271.79 92.9091C271.818 93.4526 271.57 94.0837 271.044 94.8025C270.653 95.3364 270.266 95.689 269.883 95.8602C269.5 96.0315 269.167 96.085 268.885 96.0206C268.6 95.9605 268.237 95.769 267.795 95.4461L265.708 93.9194C265.22 93.5627 264.889 93.3589 264.713 93.3078C264.537 93.2568 264.388 93.3154 264.265 93.4835C264.062 93.761 264.142 94.084 264.505 94.4526ZM268.049 94.2383L268.275 93.3481C268.627 91.9406 268.468 90.9924 267.8 90.5035C267.535 90.3098 267.27 90.2224 267.005 90.2412C266.743 90.263 266.531 90.3854 266.368 90.6082C266.224 90.8057 266.121 91.0825 266.061 91.4385C266.001 91.7944 265.983 92.2296 266.006 92.7439L268.049 94.2383Z" fill="#33C1C8"/>
<path d="M257.466 107.002C257.425 106.935 257.337 106.812 257.204 106.632C257.069 106.459 256.884 106.227 256.647 105.937L255.377 104.381C255.14 104.091 254.949 103.86 254.803 103.69C254.657 103.527 254.555 103.419 254.497 103.365C254.382 103.257 254.242 103.213 254.077 103.233C253.924 103.251 253.726 103.359 253.484 103.556L253.357 103.66L253.13 103.382L255.762 101.233L255.99 101.511L255.82 101.65C255.562 101.86 255.412 102.043 255.37 102.198C255.329 102.353 255.356 102.506 255.452 102.656C255.552 102.803 255.817 103.141 256.249 103.67L256.822 104.372L259.521 102.169L258.948 101.467C258.517 100.938 258.239 100.61 258.115 100.483C257.987 100.359 257.843 100.302 257.683 100.311C257.522 100.321 257.313 100.431 257.055 100.642L256.886 100.78L256.658 100.502L259.291 98.3531L259.518 98.6316L259.391 98.7353C259.149 98.9329 259.004 99.1051 258.956 99.252C258.903 99.4095 258.918 99.5554 259 99.6896C259.042 99.7567 259.13 99.8767 259.264 100.049C259.397 100.23 259.583 100.465 259.82 100.755L261.089 102.311C261.326 102.601 261.518 102.828 261.664 102.991C261.81 103.161 261.912 103.273 261.969 103.327C262.084 103.435 262.224 103.479 262.389 103.459C262.542 103.441 262.74 103.333 262.982 103.136L263.11 103.032L263.337 103.31L260.704 105.459L260.477 105.181L260.646 105.042C260.904 104.832 261.054 104.649 261.096 104.494C261.137 104.339 261.11 104.186 261.015 104.036C260.911 103.885 260.646 103.547 260.218 103.022L259.862 102.586L257.162 104.789L257.518 105.225C257.946 105.75 258.224 106.078 258.351 106.209C258.479 106.333 258.624 106.39 258.784 106.381C258.944 106.371 259.153 106.261 259.411 106.05L259.581 105.912L259.808 106.19L257.175 108.339L256.948 108.06L257.075 107.957C257.317 107.759 257.462 107.587 257.51 107.44C257.563 107.282 257.549 107.137 257.466 107.002Z" fill="#33C1C8"/>
<path d="M246.338 108.677L246.086 108.819C245.69 108.021 245.852 107.418 246.573 107.011C246.882 106.837 247.173 106.78 247.446 106.841C247.715 106.905 247.968 107.082 248.204 107.374C248.476 106.796 248.754 106.319 249.038 105.943C249.318 105.57 249.606 105.3 249.9 105.134C250.277 104.921 250.663 104.847 251.058 104.912C251.453 104.976 251.751 105.187 251.954 105.545C252.217 106.013 252.221 106.549 251.964 107.154C251.703 107.762 251.264 108.458 250.648 109.242L249.835 110.266L249.989 110.538C250.206 110.923 250.389 111.188 250.536 111.332C250.683 111.477 250.899 111.558 251.185 111.576C251.47 111.595 251.783 111.508 252.123 111.316C252.804 110.932 253.054 110.492 252.876 109.995C252.687 109.491 252.747 109.152 253.056 108.978C253.332 108.822 253.545 108.875 253.693 109.139C253.839 109.397 253.812 109.778 253.611 110.28C253.412 110.786 252.925 111.258 252.149 111.696C251.573 112.021 251.075 112.182 250.655 112.18C250.235 112.178 249.91 112.089 249.68 111.914C249.445 111.741 249.193 111.417 248.925 110.941L247.654 108.688C247.357 108.162 247.139 107.84 247 107.721C246.861 107.602 246.701 107.593 246.52 107.696C246.22 107.865 246.16 108.192 246.338 108.677ZM249.655 109.946L250.228 109.228C251.129 108.091 251.377 107.162 250.97 106.441C250.809 106.155 250.603 105.966 250.354 105.874C250.107 105.786 249.863 105.81 249.623 105.945C249.41 106.066 249.202 106.275 249 106.575C248.798 106.874 248.602 107.263 248.411 107.741L249.655 109.946Z" fill="#33C1C8"/>
<defs>
<filter id="filter0_d_701_24" x="60" y="3.50049" width="212.5" height="113" filterUnits="userSpaceOnUse" color-interpolation-filters="sRGB">
<feFlood flood-opacity="0" result="BackgroundImageFix"/>
<feColorMatrix in="SourceAlpha" type="matrix" values="0 0 0 0 0 0 0 0 0 0 0 0 0 0 0 0 0 0 127 0" result="hardAlpha"/>
<feOffset/>
<feGaussianBlur stdDeviation="3"/>
<feColorMatrix type="matrix" values="0 0 0 0 0.683333 0 0 0 0 0.185069 0 0 0 0 0.480914 0 0 0 1 0"/>
<feBlend mode="normal" in2="BackgroundImageFix" result="effect1_dropShadow_701_24"/>
<feBlend mode="normal" in="SourceGraphic" in2="effect1_dropShadow_701_24" result="shape"/>
</filter>
<filter id="filter1_d_701_24" x="0.5" y="3.5" width="71.5" height="113" filterUnits="userSpaceOnUse" color-interpolation-filters="sRGB">
<feFlood flood-opacity="0" result="BackgroundImageFix"/>
<feColorMatrix in="SourceAlpha" type="matrix" values="0 0 0 0 0 0 0 0 0 0 0 0 0 0 0 0 0 0 127 0" result="hardAlpha"/>
<feOffset/>
<feGaussianBlur stdDeviation="3"/>
<feColorMatrix type="matrix" values="0 0 0 0 0.683333 0 0 0 0 0.185069 0 0 0 0 0.480914 0 0 0 1 0"/>
<feBlend mode="normal" in2="BackgroundImageFix" result="effect1_dropShadow_701_24"/>
<feBlend mode="normal" in="SourceGraphic" in2="effect1_dropShadow_701_24" result="shape"/>
</filter>
<filter id="filter2_d_701_24" x="160.775" y="42.8999" width="83.5073" height="36.2803" filterUnits="userSpaceOnUse" color-interpolation-filters="sRGB">
<feFlood flood-opacity="0" result="BackgroundImageFix"/>
<feColorMatrix in="SourceAlpha" type="matrix" values="0 0 0 0 0 0 0 0 0 0 0 0 0 0 0 0 0 0 127 0" result="hardAlpha"/>
<feOffset/>
<feGaussianBlur stdDeviation="2.5"/>
<feColorMatrix type="matrix" values="0 0 0 0 0 0 0 0 0 0.956897 0 0 0 0 1 0 0 0 0.76 0"/>
<feBlend mode="normal" in2="BackgroundImageFix" result="effect1_dropShadow_701_24"/>
<feBlend mode="normal" in="SourceGraphic" in2="effect1_dropShadow_701_24" result="shape"/>
</filter>
</defs>
</svg>
