<svg width="163" height="169" viewBox="0 0 163 169" fill="none" xmlns="http://www.w3.org/2000/svg">
<g clip-path="url(#clip0_323_1725)">
<path d="M71.9464 91.6033C68.7465 89.8378 68.7282 88.8907 69.119 88.6378C70.4294 81.7414 76.498 85.0517 80.9117 88.6378C85.3254 92.2239 82.4979 94.9135 80.9117 95.5342C79.3255 96.1548 75.9463 93.8101 71.9464 91.6033Z" stroke="#FFEE97" stroke-width="1.63819"/>
<path d="M61.1105 68.4434C60.9635 63.3721 62.7643 62.9004 63.683 63.2985C65.5511 64.4929 69.4893 67.5982 70.2978 70.4645C71.3083 74.0475 68.0928 72.3939 66.8066 74.9663C65.5204 77.5387 61.2943 74.7825 61.1105 68.4434Z" stroke="#FFEE97" stroke-width="1.63819"/>
<path d="M95.5232 67.8076C92.9303 66.7313 92.5675 68.9492 92.7102 70.1926C92.6597 71.4402 94.4225 72.4553 96.5017 71.4157C98.5808 70.3761 98.7643 69.153 95.5232 67.8076Z" stroke="#FFEE97" stroke-width="1.63819"/>
<path d="M141.488 110.927C134.162 107.447 118.654 99.9825 115.226 97.9607C110.94 95.4333 79.514 77.962 75.3385 79.1707C71.1629 80.3794 56.8782 89.4997 61.0537 91.2578C65.2293 93.0159 94.568 116.421 104.897 122.684C113.16 127.695 124.822 135.028 129.621 138.068L128.522 139.386C120.464 134.295 103.425 123.629 99.7325 121.695C95.1174 119.278 63.2514 91.5874 56.3288 94.774C49.4062 97.9607 47.0986 104.114 45.0108 106.202C42.923 108.29 55.7794 111.806 61.0537 119.937C66.328 128.069 79.0744 150.814 82.8104 154.001C86.5464 157.187 94.6776 159.385 97.2051 159.605C99.7325 159.825 89.0737 163.011 81.1622 156.199C73.2506 149.386 68.6355 138.947 65.7786 133.782C62.9216 128.618 55.2298 111.366 41.6044 110.597C40.945 110.268 39.8242 111.674 40.6154 119.937C41.6044 130.266 41.1648 142.463 43.802 146.749C46.4392 151.034 51.8235 162.022 55.0101 164C52.0066 162.572 45.5601 158.418 43.802 153.232C41.6044 146.749 37.5387 138.727 38.7474 125.212C39.7144 114.399 37.7585 114.992 36.6597 116.641" stroke="#FFEE97" stroke-width="1.63819"/>
<path d="M160.728 22.0071C157.637 23.3165 150.137 27.0143 144.857 31.3301C138.258 36.7249 121.349 39.1352 98.9642 59.8756C97.531 60.2972 97.7249 61.6967 109.967 63.9225C125.269 66.7048 126.787 71.1311 134.881 72.6487C142.974 74.1663 151.574 75.8103 151.827 76.5691C152.08 77.3279 133.616 75.6839 126.028 72.6487C118.44 69.6135 98.9643 60.255 90.744 66.4519C82.5237 72.6487 76.7063 75.0515 78.9827 76.5691C81.259 78.0867 138.675 108.059 142.342 107.806" stroke="#FFEE97" stroke-width="1.63819"/>
<path d="M39.3948 12.0224C39.1024 16.0323 38.8183 25.0044 40.0213 28.8138C41.5251 33.5755 44.4698 44.6654 45.2217 47.9861C45.9735 51.3068 50.7645 79.8591 49.3046 91.6363C48.8503 93.2585 49.2072 95.4128 54.2685 91.0523C60.5951 85.6017 81.0565 68.5535 81.6411 63.8768C82.2256 59.2002 74.48 35.5248 74.6261 29.679C74.7723 23.8332 75.503 24.4178 74.6261 16.8183C73.7493 9.21875 76.6068 0.590155 79.4851 0.498779C78.8455 1.06226 77.4292 3.35884 76.8809 8.03729C76.1956 13.8854 76.287 15.8042 77.3835 23.7083C78.48 31.6123 77.6119 36.9578 78.3429 39.562C79.0739 42.1662 83.1762 60.5398 85.5434 61.6945C87.9105 62.8492 89.0075 61.9832 91.4323 59.6738C93.8572 57.3644 103.21 53.4384 103.384 50.2052C103.557 46.9721 102.575 41.8914 102.691 35.5982C102.806 29.3051 102.575 22.0305 103.961 16.1415C105.069 11.4303 107.079 9.13631 107.945 8.57821C106.559 10.8106 103.984 17.5733 104.769 26.7648C105.751 38.2541 105 50.7826 109.965 47.4339C114.931 44.0853 122.321 39.351 125.265 33.8662C128.21 28.3814 140.276 15.5642 141.258 16.1415C142.239 16.7189 135.369 23.5893 133.752 26.2452C132.136 28.901 125.785 34.9054 128.671 35.2518C131.558 35.5982 149.341 25.8987 150.9 24.975C152.458 24.0512 161.119 19.952 161.523 20.1252" stroke="#FFEE97" stroke-width="1.63819"/>
<path d="M-1.13095 30.7971C-1.94818 31.8939 -2.82135 35.5972 0.223877 41.636C4.0304 49.1845 17.3209 68.0879 20.2242 71.5073C23.1275 74.9267 35.5792 96.798 37.2567 100.153C38.9341 103.508 39.1922 104.217 41.7728 101.443C44.3535 98.669 45.9019 98.0238 46.4181 91.5721C46.9342 85.1204 45.8374 60.5394 44.0955 53.5716C42.3535 46.6038 37.9018 33.5068 37.9018 24.8616C37.9018 16.2163 38.547 12.8614 37.9018 12.2808" stroke="#FFEE97" stroke-width="1.63819"/>
<path d="M-16.606 73.8789C-15.3235 76.4439 -11.7692 82.3066 -7.81189 85.238C-2.86521 88.9022 6.35638 97.8795 15.3948 100.139C24.4331 102.399 34.8761 108.261 35.1815 106.551C35.4868 104.841 34.6318 102.643 33.3494 100.628C32.0669 98.6123 25.227 83.8944 23.456 80.902C21.685 77.9096 3.11967 50.7944 1.95933 49.4509C0.799001 48.1073 -5.67443 34.733 -2.31558 31.6184" stroke="#FFEE97" stroke-width="1.63819"/>
<path d="M-13.0042 90.631C-14.5056 86.8198 -15.4584 81.6324 -15.7471 79.5151C-15.1825 81.5556 -7.86068 88.3052 -4.27034 91.425C-0.589119 96.0445 15.435 101.963 19.6215 103.551C23.808 105.139 30.4487 108.748 31.9645 109.759C33.4803 110.769 27.5614 111.563 11.5373 111.347C-4.48689 111.13 -11.1275 95.3949 -13.0042 90.631Z" stroke="#FFEE97" stroke-width="1.63819"/>
<path d="M36.3103 117.677C36.7482 115.313 33.8652 114.064 32.3689 113.736C31.0186 113.408 26.6976 112.948 20.2163 113.736C12.1146 114.721 4.12234 112.422 -2.88454 109.576C-9.89142 106.729 -15.256 94.4672 -16.0224 85.1612C-16.6355 77.7164 -22.2629 68.6293 -25 65.0164C-24.1971 64.8704 -21.9345 65.7171 -19.3069 70.2716C-16.0225 75.9647 -1.89922 82.8621 0.509392 83.519C2.918 84.1758 10.8007 90.9638 18.2456 90.8543C25.6904 90.7448 23.0628 90.1974 20.2163 85.1612C17.3698 80.125 -13.3948 77.3879 -15.256 59.1044C-17.1172 40.8208 3.4655 26.1501 8.39222 23.3036C13.3189 20.4571 13.8663 21.2234 12.881 25.3838C11.8956 29.5441 12.7715 30.6389 20.2163 42.0251C27.6611 53.4113 29.3033 65.0164 29.1939 70.2716C29.0844 75.5267 32.5878 81.7672 36.7481 81.4388C40.9085 81.1103 35.5438 64.0311 34.3395 57.6811C33.1352 51.3311 21.5301 34.9087 19.231 24.1795C16.9319 13.4502 39.0473 11.8079 44.6309 11.151C50.2145 10.4941 60.7248 1.4071 58.4257 4.80106C56.1266 8.19501 57.8783 12.6838 56.2361 20.0191C54.5938 27.3545 59.1921 31.9527 60.7248 45.4191C62.2576 58.8854 62.9145 56.3673 63.6809 57.6811C64.4472 58.9949 71.1257 42.0251 65.3231 29.4346C59.5205 16.8441 62.1481 9.18037 62.9145 7.20962C63.6809 5.23886 70.1403 -2.20582 80.2127 0.640728C90.2851 3.48727 102.328 1.07864 98.2773 3.37777C94.2265 5.6769 92.2558 7.75707 92.4748 12.6838C92.6937 17.6105 90.8325 26.5881 90.3946 31.9527C89.9567 37.3173 90.723 45.857 94.0075 48.7035C97.292 51.5501 98.3868 36.6604 96.0877 31.0768C93.7886 25.4932 94.6644 21.8803 94.7739 13.6691C94.8834 5.45783 100.467 3.0493 108.897 4.03464C117.327 5.01999 114.152 8.19496 116.889 7.20962C119.626 6.22427 124.663 9.07079 123.239 8.85183C121.816 8.63286 118.532 10.3846 115.576 13.6691C112.62 16.9535 114.152 19.1432 112.182 25.1647C110.211 31.1863 112.401 36.8793 114.152 38.5216C115.904 40.1638 117.327 36.8793 119.407 32.938C121.488 28.9966 123.13 14.2165 128.713 11.8079C134.297 9.39925 150.719 19.2526 152.033 20.457C153.347 21.6613 165.39 18.5958 162.325 20.457C159.259 22.3182 156.413 32.8285 155.865 36.8793C155.318 40.9302 158.931 48.9224 160.792 52.9733C162.653 57.0241 158.931 58.7758 153.128 58.8853C147.326 58.9948 133.421 53.5207 130.575 52.9733C127.728 52.4258 122.035 50.5646 119.407 58.1189C116.78 65.6732 145.136 66.6586 149.953 65.7827C154.77 64.9069 160.135 64.3594 158.931 67.4249C157.726 70.4904 154.332 84.3947 153.894 87.0223C153.457 89.6499 152.581 87.4602 141.742 87.0223C130.903 86.5844 120.94 79.249 110.758 73.4465C100.576 67.6439 101.781 72.4611 102.109 76.0741C102.438 79.687 108.897 85.0517 117.875 85.818C126.852 86.5844 135.501 90.4163 140.209 91.6206C144.917 92.8249 152.362 91.0732 152.033 92.8249C151.705 94.5766 147.544 100.708 145.136 103.773C142.727 106.839 141.632 113.736 137.91 118.334C134.188 122.933 114.919 110.561 112.948 108.809C110.977 107.058 100.576 101.583 97.4015 99.6128C94.2265 97.6421 89.9567 96.9852 89.9567 100.708C89.9567 104.43 99.1532 107.058 103.97 108.809C108.788 110.561 122.582 119.101 126.962 120.852C131.341 122.604 138.238 122.604 138.676 123.48C139.114 124.356 134.297 129.064 133.312 132.676C132.326 136.289 119.079 150.194 116.451 151.836C113.824 153.478 96.7446 137.275 94.336 134.1C91.9274 130.925 85.2489 119.101 79.2274 115.269C73.2058 111.437 70.6877 115.05 69.9214 119.101C69.155 123.151 77.4757 132.895 83.8256 142.201C90.1756 151.507 102.219 150.303 105.394 150.194C108.569 150.084 105.175 151.179 102.219 158.405C99.2627 165.631 86.3437 168.587 79.9938 168.587C73.6438 168.587 64.7757 167.054 61.4912 155.011C58.2067 142.968 57.8783 138.698 56.455 135.413C55.0317 132.129 53.499 129.064 50.2145 129.282C46.93 129.501 49.6671 139.464 51.9662 141.545C54.2654 143.625 53.6085 151.507 54.3749 158.405C55.1412 165.302 65.5421 166.397 59.9585 167.054C54.3749 167.711 37.1861 158.843 30.8361 146.252C24.4861 133.662 35.7628 120.633 36.3103 117.677Z" stroke="#FFEE97" stroke-width="1.63819"/>
<path d="M62.5548 100.739C58.2981 97.8038 55.8273 101.963 55.1239 104.409C54.25 106.453 56.3165 109.179 60.9034 111.198C65.4904 113.216 67.6004 109.363 67.3252 107.069C67.0499 104.776 67.8756 104.409 62.5548 100.739Z" stroke="#FFEE97" stroke-width="1.63819"/>
</g>
<defs>
<clipPath id="clip0_323_1725">
<rect width="188" height="168.13" fill="white" transform="translate(-25)"/>
</clipPath>
</defs>
</svg>
