<svg width="202" height="179" viewBox="0 0 202 179" fill="none" xmlns="http://www.w3.org/2000/svg">
<g clip-path="url(#clip0_323_2005)">
<path d="M63.4253 68.4949C85.397 94.9708 143.84 154.23 201.837 179.461" stroke="#FFEE97" stroke-width="1.76"/>
<path d="M94.3209 149.218C85.4006 152.265 78.6484 150.487 76.3874 149.218C75.1881 148.84 75.5733 149.817 86.7077 156.747C100.626 165.41 132.51 159.749 142.046 158.356C149.675 157.242 159.082 157.892 162.832 158.356C163.925 157.939 161.467 155.302 142.896 148.085C119.682 139.064 105.471 145.408 94.3209 149.218Z" stroke="#FFEE97" stroke-width="0.921212"/>
<path d="M143.889 131.08C144.684 139.855 150.082 146.961 152.681 149.417C153.232 149.965 156.741 149.417 156.583 142.626C156.425 135.834 163.847 135.361 162.832 111.198C161.817 87.0353 152.43 82.0129 149.834 77.4077C147.239 72.8024 141.545 67.946 141.796 69.1182C142.047 70.2904 146.234 84.776 144.978 94.0703C143.722 103.365 142.896 120.111 143.889 131.08Z" stroke="#FFEE97" stroke-width="0.921212"/>
<path d="M119.917 116.932C128.889 127.198 131.06 132.281 131.024 133.54C132.283 135.049 134.928 137.81 135.446 136.775C136.093 135.481 134.26 128.04 134.044 118.226C133.828 108.412 136.956 93.0989 132.642 86.3049C128.328 79.5108 122.936 66.7855 121.75 60.2071C120.564 53.6288 115.279 46.7269 117.544 52.8739C119.809 59.0209 117.113 75.0893 115.279 80.1579C113.446 85.2265 108.701 104.099 119.917 116.932Z" stroke="#FFEE97" stroke-width="0.921212"/>
<path d="M73.2727 122.512C66.3742 125.219 60.8655 123.64 58.9735 122.512C53.8433 122.512 80.2586 133.209 84.4064 132.554C88.5543 131.899 124.138 132.009 125.776 131.354C127.413 130.699 108.529 124.368 101.871 120.766C95.2126 117.164 81.8958 119.128 73.2727 122.512Z" stroke="#FFEE97" stroke-width="0.921212"/>
<path d="M89.1146 87.9328C94.544 97.5057 97.2111 103.114 97.866 104.721C99.5329 108.293 102.668 108.381 101.871 80.1579C100.875 44.8787 84.4064 34.3531 81.9707 32.5672C79.5349 30.7812 86.0784 42.9259 83.0422 57.0352C80.0061 71.1445 82.3278 75.9667 89.1146 87.9328Z" stroke="#FFEE97" stroke-width="0.921212"/>
<path d="M34.5524 84.6998C22.6512 86.45 16.5645 85.4291 15.0088 84.6998C11.4128 83.9317 41.1156 103.368 59.93 101.618C78.7444 99.8681 92.1625 103.077 94.3502 103.368C96.5379 103.66 89.1146 99.7222 80.4946 92.4298C71.8746 85.1374 49.429 82.5121 34.5524 84.6998Z" stroke="#FFEE97" stroke-width="0.921212"/>
<path d="M37.761 59.1764C25.7431 56.0261 14.6683 59.7112 10.6332 61.9475C8.27696 63.059 18.3632 61.9475 22.8845 64.5728C27.4058 67.1981 36.7401 72.7403 50.7415 74.0529C64.743 75.3656 70.4311 79.0118 70.4311 77.4074C70.4311 75.8031 52.7834 63.1143 37.761 59.1764Z" stroke="#FFEE97" stroke-width="0.921212"/>
<path d="M69.2936 66.1707C71.8398 71.7661 72.2406 75.9933 72.1227 77.4074C72.1227 78.5058 77.6041 84.6998 75.8359 74.0529C74.0677 63.406 76.3663 40.0017 75.1286 32.5672C73.8909 25.1327 66.4645 12.2413 65.9341 16.3081C65.4036 20.3749 65.2268 25.149 62.2209 40.0017C59.215 54.8544 66.1109 59.1764 69.2936 66.1707Z" stroke="#FFEE97" stroke-width="0.921212"/>
<path d="M42.9478 27.2708C52.8496 38.87 61.1011 60.041 63.9891 69.1766C59.5732 65.8432 48.3341 58.2412 38.7042 54.5007C26.6668 49.825 17.3092 27.2708 15.0088 19.3139C12.7083 11.3571 1.92605 0.924914 0.865139 0.0408253C-0.195768 -0.843264 30.5705 12.7717 42.9478 27.2708Z" stroke="#FFEE97" stroke-width="0.921212"/>
</g>
<defs>
<clipPath id="clip0_323_2005">
<rect width="201.236" height="179" fill="white" transform="translate(0.838379)"/>
</clipPath>
</defs>
</svg>
