<svg version="1.1"
     baseProfile="full"
     xmlns="http://www.w3.org/2000/svg"
>
    <symbol id="wpp" viewBox="0 0 24 24">
        <path d="M12.0398 2C6.5798 2 2.1298 6.45 2.1298 11.91C2.1298 13.66 2.5898 15.36 3.4498 16.86L2.0498 22L7.2998 20.62C8.7498 21.41 10.3798 21.83 12.0398 21.83C17.4998 21.83 21.9498 17.38 21.9498 11.92C21.9498 9.27 20.9198 6.78 19.0498 4.91C18.133 3.98392 17.041 3.24967 15.8374 2.75005C14.6339 2.25043 13.3429 1.99546 12.0398 2ZM12.0498 3.67C14.2498 3.67 16.3098 4.53 17.8698 6.09C18.6354 6.85535 19.2424 7.76432 19.656 8.76476C20.0695 9.7652 20.2815 10.8374 20.2798 11.92C20.2798 16.46 16.5798 20.15 12.0398 20.15C10.5598 20.15 9.10981 19.76 7.8498 19L7.5498 18.83L4.4298 19.65L5.2598 16.61L5.0598 16.29C4.23375 14.9787 3.79682 13.4598 3.7998 11.91C3.8098 7.37 7.4998 3.67 12.0498 3.67ZM8.5298 7.33C8.3698 7.33 8.0998 7.39 7.8698 7.64C7.6498 7.89 6.9998 8.5 6.9998 9.71C6.9998 10.93 7.8898 12.1 7.9998 12.27C8.1398 12.44 9.7598 14.94 12.2498 16C12.8398 16.27 13.2998 16.42 13.6598 16.53C14.2498 16.72 14.7898 16.69 15.2198 16.63C15.6998 16.56 16.6798 16.03 16.8898 15.45C17.0998 14.87 17.0998 14.38 17.0398 14.27C16.9698 14.17 16.8098 14.11 16.5598 14C16.3098 13.86 15.0898 13.26 14.8698 13.18C14.6398 13.1 14.4998 13.06 14.3098 13.3C14.1498 13.55 13.6698 14.11 13.5298 14.27C13.3798 14.44 13.2398 14.46 12.9998 14.34C12.7398 14.21 11.9398 13.95 10.9998 13.11C10.2598 12.45 9.7698 11.64 9.6198 11.39C9.4998 11.15 9.6098 11 9.7298 10.89C9.8398 10.78 9.9998 10.6 10.0998 10.45C10.2298 10.31 10.2698 10.2 10.3498 10.04C10.4298 9.87 10.3898 9.73 10.3298 9.61C10.2698 9.5 9.7698 8.26 9.5598 7.77C9.35981 7.29 9.1598 7.35 8.9998 7.34C8.8598 7.34 8.6998 7.33 8.5298 7.33Z" fill="#FEE3E2"/>
    </symbol>

    <symbol id="wpp-5" viewBox="0 0 24 24">
        <path d="M12.0398 2C6.5798 2 2.1298 6.45 2.1298 11.91C2.1298 13.66 2.5898 15.36 3.4498 16.86L2.0498 22L7.2998 20.62C8.7498 21.41 10.3798 21.83 12.0398 21.83C17.4998 21.83 21.9498 17.38 21.9498 11.92C21.9498 9.27 20.9198 6.78 19.0498 4.91C18.133 3.98392 17.041 3.24967 15.8374 2.75005C14.6339 2.25043 13.3429 1.99546 12.0398 2ZM12.0498 3.67C14.2498 3.67 16.3098 4.53 17.8698 6.09C18.6354 6.85535 19.2424 7.76432 19.656 8.76476C20.0695 9.7652 20.2815 10.8374 20.2798 11.92C20.2798 16.46 16.5798 20.15 12.0398 20.15C10.5598 20.15 9.10981 19.76 7.8498 19L7.5498 18.83L4.4298 19.65L5.2598 16.61L5.0598 16.29C4.23375 14.9787 3.79682 13.4598 3.7998 11.91C3.8098 7.37 7.4998 3.67 12.0498 3.67ZM8.5298 7.33C8.3698 7.33 8.0998 7.39 7.8698 7.64C7.6498 7.89 6.9998 8.5 6.9998 9.71C6.9998 10.93 7.8898 12.1 7.9998 12.27C8.1398 12.44 9.7598 14.94 12.2498 16C12.8398 16.27 13.2998 16.42 13.6598 16.53C14.2498 16.72 14.7898 16.69 15.2198 16.63C15.6998 16.56 16.6798 16.03 16.8898 15.45C17.0998 14.87 17.0998 14.38 17.0398 14.27C16.9698 14.17 16.8098 14.11 16.5598 14C16.3098 13.86 15.0898 13.26 14.8698 13.18C14.6398 13.1 14.4998 13.06 14.3098 13.3C14.1498 13.55 13.6698 14.11 13.5298 14.27C13.3798 14.44 13.2398 14.46 12.9998 14.34C12.7398 14.21 11.9398 13.95 10.9998 13.11C10.2598 12.45 9.7698 11.64 9.6198 11.39C9.4998 11.15 9.6098 11 9.7298 10.89C9.8398 10.78 9.9998 10.6 10.0998 10.45C10.2298 10.31 10.2698 10.2 10.3498 10.04C10.4298 9.87 10.3898 9.73 10.3298 9.61C10.2698 9.5 9.7698 8.26 9.5598 7.77C9.35981 7.29 9.1598 7.35 8.9998 7.34C8.8598 7.34 8.6998 7.33 8.5298 7.33Z" fill="#732D72"/>
    </symbol>

    <symbol id="sale-price" viewBox="0 0 120 120">
        <path d="M59.9053 70.6484C53.8301 70.6484 48.9053 65.7236 48.9053 59.6484C48.9053 53.5733 53.8301 48.6484 59.9053 48.6484C65.9804 48.6484 70.9053 53.5733 70.9053 59.6484C70.9053 65.7236 65.9804 70.6484 59.9053 70.6484Z" fill="#B32C7D"/>
        <path d="M41.3868 105.208C40.8802 105.014 40.3535 104.749 39.8068 104.413C39.2463 104.073 38.8086 103.74 38.4935 103.414C38.4134 103.337 38.3702 103.265 38.3638 103.2C38.3522 103.148 38.3648 103.074 38.4016 102.979L39.1108 100.824C39.1266 100.783 39.1713 100.768 39.2451 100.781C39.3188 100.793 39.3588 100.832 39.3652 100.898C39.5439 101.987 39.8257 102.85 40.2105 103.484C40.5763 104.127 41.1084 104.583 41.8067 104.851C42.7789 105.224 43.6749 105.12 44.4948 104.54C45.3095 103.972 45.9638 103.045 46.4578 101.758C46.7836 100.909 46.9747 100.064 47.0309 99.2211C47.0735 98.3734 46.9266 97.6101 46.5902 96.9312C46.2538 96.2522 45.6885 95.7603 44.8944 95.4555C44.196 95.1875 43.5258 95.1738 42.8836 95.4143C42.2278 95.6496 41.4857 96.1503 40.6576 96.9164C40.6228 96.9659 40.5739 96.9707 40.5107 96.9307C40.4475 96.8907 40.4238 96.8502 40.4395 96.8091L41.4394 94.6951C41.4952 94.5908 41.5446 94.5233 41.5878 94.4928C41.6309 94.4622 41.7246 94.4432 41.8689 94.4357C43.0651 94.4707 44.2315 94.7062 45.368 95.1424C46.6825 95.647 47.6575 96.3197 48.2931 97.1606C48.9286 98.0015 49.2883 98.8857 49.3722 99.8134C49.4423 100.736 49.325 101.594 49.0202 102.388C48.6628 103.319 48.0905 104.074 47.3033 104.651C46.5023 105.224 45.5865 105.563 44.5556 105.67C43.5111 105.772 42.4549 105.618 41.3868 105.208Z" fill="#BA95A3"/>
        <path d="M35.4707 89.1894C36.2709 89.8559 36.8316 90.6379 37.1529 91.5354C37.4648 92.4442 37.5326 93.3597 37.3563 94.2818C37.1706 95.2151 36.768 96.0537 36.1485 96.7975C35.4351 97.6539 34.5958 98.2147 33.6306 98.4797C32.6542 98.7353 31.6861 98.7402 30.7265 98.4944C29.7556 98.2392 28.9039 97.8066 28.1714 97.1964C27.3712 96.53 26.8312 95.7461 26.5512 94.8447C26.2505 93.9453 26.194 93.0393 26.3815 92.1266C26.5597 91.2251 26.9351 90.4307 27.5077 89.7433C28.1366 88.9882 28.9205 88.4482 29.8594 88.1231C30.7889 87.8093 31.756 87.7368 32.7607 87.9055C33.756 88.0856 34.6593 88.5135 35.4707 89.1894ZM34.7581 89.2543C34.127 88.7287 33.3617 88.6162 32.4623 88.9168C31.5516 89.2081 30.641 89.9003 29.7305 90.9935C29.1109 91.7372 28.6604 92.5073 28.3789 93.3035C28.0974 94.0998 28.0197 94.8463 28.1456 95.543C28.251 96.2415 28.5741 96.8161 29.115 97.2666C29.7686 97.8111 30.4898 97.9536 31.2784 97.6943C32.0671 97.435 32.9026 96.7757 33.7849 95.7163C34.4514 94.9162 34.9488 94.0898 35.2773 93.2372C35.5851 92.3865 35.6966 91.6109 35.612 90.9104C35.5273 90.21 35.2427 89.658 34.7581 89.2543Z" fill="#BA95A3"/>
        <path d="M23.6068 74.7886C23.5839 74.7511 23.6099 74.7094 23.685 74.6635C23.7601 74.6176 23.8092 74.6135 23.8321 74.651L25.1706 76.927L25.9118 78.0983C26.0314 78.2659 26.1829 78.4999 26.3663 78.8003C26.3893 78.8379 26.3632 78.8796 26.2881 78.9254C26.213 78.9713 26.164 78.9755 26.141 78.9379C25.9958 78.7001 25.8762 78.5325 25.7824 78.4351C25.6761 78.3454 25.5791 78.3273 25.4915 78.3808C25.4038 78.4344 25.2884 78.6252 25.1451 78.9533L23.5757 82.335L26.0671 82.489C26.5552 82.5002 26.9369 82.4217 27.2123 82.2536C27.4251 82.1236 27.552 81.9516 27.5931 81.7374C27.6342 81.5233 27.5744 81.2848 27.4139 81.0219C27.3986 80.9969 27.4285 80.9615 27.5036 80.9156C27.5787 80.8697 27.6239 80.8593 27.6392 80.8843C27.8685 81.2598 28.0381 81.5516 28.1479 81.7595L28.886 83.0101L29.3749 83.7684C29.4715 83.8984 29.6192 84.1262 29.818 84.4516C29.8333 84.4766 29.8033 84.5121 29.7282 84.558C29.6531 84.6038 29.608 84.6143 29.5927 84.5892C29.0958 83.7756 28.0015 83.2925 26.31 83.1398L23.3159 82.8804L21.4314 86.9702C21.1469 87.5736 21.0077 88.1055 21.0138 88.5657C21.0074 89.0336 21.0922 89.4115 21.268 89.6994C21.2833 89.7244 21.2534 89.7599 21.1783 89.8058C21.1032 89.8516 21.058 89.8621 21.0427 89.837L20.706 89.2435C20.5628 88.9529 20.4568 88.7512 20.388 88.6386L19.2496 86.8591L18.5084 85.6877C18.4855 85.6502 18.5116 85.6085 18.5867 85.5626C18.6618 85.5167 18.7108 85.5126 18.7337 85.5501C18.879 85.7879 19.0048 85.9517 19.1111 86.0414C19.205 86.1388 19.2957 86.1607 19.3833 86.1072C19.4835 86.046 19.6052 85.8514 19.7485 85.5233L21.1436 82.5315L19.1131 82.457C18.552 82.4388 18.115 82.5252 17.8021 82.7163C17.4141 82.9533 17.3386 83.2658 17.5756 83.6538C17.5985 83.6914 17.5724 83.7331 17.4973 83.779C17.4222 83.8248 17.3732 83.829 17.3503 83.7914L16.9103 83.029C16.6755 82.5881 16.4586 82.205 16.2599 81.8795C16.1299 81.6667 15.9607 81.4178 15.7522 81.1327L15.3091 80.4495C15.2938 80.4244 15.3237 80.389 15.3988 80.3431C15.4739 80.2973 15.5191 80.2868 15.5344 80.3119C16.0619 81.1755 17.1676 81.6774 18.8515 81.8176L21.3846 81.9976L23.4434 77.5178C23.7203 76.9019 23.8619 76.36 23.8683 75.8921C23.8621 75.4318 23.775 75.064 23.6068 74.7886Z" fill="#BA95A3"/>
        <path d="M20.8245 70.2341C21.2659 70.1252 21.5829 70.0017 21.7754 69.8635C21.9644 69.7112 22.07 69.4963 22.0922 69.2189C22.1109 68.9272 22.0518 68.5038 21.9148 67.9484C21.9043 67.9057 21.9417 67.8738 22.0271 67.8527C22.1126 67.8316 22.1606 67.8425 22.1711 67.8852C22.3046 68.4263 22.4011 68.8481 22.4606 69.1507L22.8555 70.8434L23.2194 72.2265C23.2968 72.4793 23.3918 72.8335 23.5042 73.2892C23.5112 73.3177 23.472 73.3424 23.3865 73.3635C23.3011 73.3846 23.2549 73.3809 23.2478 73.3524C23.1495 72.9537 23.0419 72.6706 22.925 72.503C22.7904 72.3247 22.6146 72.2246 22.3977 72.2026C22.1808 72.1805 21.8587 72.2222 21.4315 72.3276L14.8955 73.9399C14.4825 74.0418 14.1869 74.16 14.0086 74.2946C13.8126 74.4185 13.7035 74.5889 13.6815 74.8058C13.6418 75.012 13.6693 75.3074 13.7641 75.6918C13.7712 75.7203 13.7319 75.7451 13.6465 75.7662C13.5611 75.7873 13.5148 75.7836 13.5078 75.7551L13.271 74.7032C13.1519 74.0981 13.052 73.6318 12.9712 73.3043C12.8799 72.934 12.7637 72.5548 12.6226 72.1666C12.5697 72.0135 12.5011 71.7963 12.4166 71.515C12.3286 71.2195 12.2582 70.9649 12.2055 70.7513C11.9034 69.5267 11.8727 68.5448 12.1134 67.8057C12.354 67.0665 12.873 66.5986 13.6705 66.4019C14.3825 66.2263 15.0316 66.255 15.6178 66.488C16.2005 66.7068 16.6902 67.0694 17.087 67.5758C17.4661 68.0714 17.7329 68.6325 17.8875 69.2591C17.9542 69.5296 17.9804 69.6969 17.966 69.7609C17.948 69.8106 17.9034 69.8443 17.8322 69.8619C17.7468 69.8829 17.6918 69.8436 17.6672 69.744L17.6148 69.4396C17.5094 69.0125 17.2204 68.7288 16.7477 68.5885C16.2573 68.4376 15.592 68.4658 14.7519 68.673C13.869 68.8908 13.274 69.2037 12.9668 69.6119C12.6453 70.0235 12.5601 70.5355 12.7112 71.1478C12.799 71.5038 12.9637 71.7426 13.2052 71.8643C13.4289 71.9753 13.8327 71.9588 14.4166 71.8147L20.8245 70.2341Z" fill="#BA95A3"/>
        <path d="M21.6061 50.5119C21.6114 50.4387 21.658 50.4054 21.7458 50.4118C21.8335 50.4183 21.8747 50.4581 21.8693 50.5312C21.8468 50.8384 21.7983 51.2981 21.724 51.9103C21.6475 52.5517 21.5995 53.0041 21.5802 53.2674C21.5619 53.516 21.5481 53.9047 21.5387 54.4335C21.5314 54.9329 21.5203 55.2851 21.5053 55.4899C21.501 55.5484 21.4549 55.5744 21.3672 55.568C21.2794 55.5615 21.2377 55.529 21.242 55.4705C21.2667 55.1341 21.2473 54.8974 21.1838 54.7604C21.1068 54.6076 20.9878 54.5254 20.8269 54.5136C20.6221 54.4985 20.2473 54.596 19.7025 54.806L16.7755 55.9146L16.5886 58.4598L18.502 59.4385C19.0971 59.7469 19.5701 59.914 19.9211 59.9398C20.2722 59.9656 20.5373 59.86 20.7165 59.6232C20.881 59.3853 20.9826 59.003 21.0213 58.4764C21.0266 58.4033 21.0732 58.3699 21.161 58.3764C21.2487 58.3828 21.2899 58.4226 21.2845 58.4958C21.2695 58.7005 21.2334 58.992 21.1762 59.3702C21.1169 59.7776 21.0743 60.1568 21.0486 60.5079C21.0217 60.8736 21.0047 61.3061 20.9974 61.8056C20.9944 62.2466 20.9828 62.606 20.9623 62.884C20.957 62.9571 20.9104 62.9904 20.8226 62.984C20.7349 62.9775 20.6937 62.9378 20.6991 62.8646C20.7323 62.4112 20.6934 62.0407 20.5821 61.7531C20.4709 61.4655 20.241 61.1913 19.8925 60.9304C19.5451 60.6549 19.0029 60.3283 18.2659 59.9506L10.8063 56.094C10.7499 56.0605 10.7239 56.0144 10.7282 55.9559C10.7325 55.8974 10.765 55.8557 10.8256 55.8307L18.6749 52.8776C19.4917 52.5699 20.0988 52.313 20.4963 52.1069C20.8948 51.8861 21.1764 51.6568 21.3409 51.4189C21.4908 51.1799 21.5792 50.8776 21.6061 50.5119ZM16.0358 58.1766L16.1857 56.136L13.8029 57.042L16.0358 58.1766Z" fill="#BA95A3"/>
        <path d="M27.2256 37.6549C27.2439 37.6149 27.2931 37.6133 27.3731 37.6499C27.4531 37.6866 27.4839 37.725 27.4655 37.765C27.276 38.1782 27.1226 38.4952 27.0054 38.7157L26.3801 40.0263L25.7857 41.3753C25.6951 41.6081 25.555 41.9311 25.3655 42.3444C25.3471 42.3844 25.298 42.3861 25.218 42.3494C25.138 42.3127 25.1072 42.2743 25.1255 42.2344C25.2967 41.8611 25.3887 41.5725 25.4015 41.3686C25.4143 41.1647 25.3427 40.9867 25.1866 40.8344C25.0172 40.676 24.7325 40.5052 24.3326 40.3217L21.4929 39.0195L19.2828 43.8389L22.1225 45.1411C22.5224 45.3246 22.831 45.4257 23.0482 45.4447C23.2654 45.4636 23.4538 45.4047 23.6133 45.2681C23.7655 45.112 23.9272 44.8474 24.0984 44.4741C24.1106 44.4474 24.1567 44.4524 24.2367 44.4891C24.3167 44.5258 24.3506 44.5575 24.3384 44.5841C24.1489 44.9974 23.9955 45.3143 23.8782 45.5348L23.2438 46.8655L22.6677 48.1745C22.571 48.4206 22.4248 48.7569 22.2292 49.1836C22.2169 49.2102 22.1708 49.2052 22.0908 49.1685C22.0108 49.1318 21.977 49.1002 21.9892 49.0735C22.1665 48.6869 22.2615 48.3916 22.2744 48.1878C22.2933 47.9705 22.2247 47.7858 22.0686 47.6336C21.8992 47.4752 21.6146 47.3043 21.2146 47.1209L15.0954 44.3147C14.6954 44.1313 14.3868 44.0301 14.1696 44.0112C13.9524 43.9923 13.7677 44.0608 13.6154 44.2169C13.456 44.3535 13.2937 44.6018 13.1286 44.9618C13.1103 45.0018 13.0611 45.0034 12.9811 44.9668C12.9011 44.9301 12.8703 44.8917 12.8887 44.8517L13.3488 43.901C13.62 43.38 13.8321 42.9528 13.9849 42.6195C14.15 42.2596 14.3415 41.8069 14.5593 41.2614L14.9795 40.2923C14.9918 40.2656 15.0379 40.2707 15.1179 40.3073C15.1979 40.344 15.2317 40.3757 15.2195 40.4024C14.975 40.9356 14.9063 41.3317 15.0134 41.5906C15.1267 41.8362 15.47 42.0904 16.0432 42.3533L18.7629 43.6005L20.973 38.7811L18.2533 37.5339C17.8534 37.3505 17.5448 37.2493 17.3276 37.2304C17.0971 37.2053 16.9021 37.2611 16.7426 37.3978C16.5831 37.5344 16.4178 37.7893 16.2466 38.1626C16.2283 38.2026 16.1791 38.2043 16.0991 38.1676C16.0191 38.1309 15.9883 38.0926 16.0066 38.0526L16.4668 37.1019C16.738 36.5808 16.9562 36.1403 17.1212 35.7804C17.268 35.4604 17.4564 35.0144 17.6865 34.4422L18.1067 33.4732C18.125 33.4332 18.1742 33.4315 18.2542 33.4682C18.3342 33.5049 18.365 33.5432 18.3467 33.5832C18.1755 33.9565 18.0871 34.2548 18.0815 34.4781C18.0687 34.682 18.1403 34.8601 18.2964 35.0123C18.4524 35.1646 18.7305 35.3324 19.1304 35.5158L25.2496 38.322C25.6496 38.5054 25.9648 38.6096 26.1954 38.6347C26.4126 38.6536 26.5943 38.5917 26.7404 38.449C26.8865 38.3062 27.0483 38.0415 27.2256 37.6549Z" fill="#BA95A3"/>
        <path d="M37.3507 27.3762C37.3823 27.3455 37.4287 27.3617 37.49 27.4249C37.5513 27.488 37.5662 27.5349 37.5347 27.5655C37.2085 27.8823 36.9509 28.1223 36.7619 28.2855L35.705 29.2814L34.663 30.3242C34.4944 30.5085 34.247 30.759 33.9209 31.0758C33.8893 31.1065 33.8429 31.0902 33.7816 31.0271C33.7202 30.964 33.7054 30.9171 33.7369 30.8864C34.0315 30.6003 34.2216 30.3645 34.3073 30.179C34.393 29.9936 34.3906 29.8017 34.3001 29.6033C34.1994 29.3944 33.9958 29.1321 33.6892 28.8165L29.8111 24.824L29.6868 32.3056L29.886 32.5107C30.1926 32.8263 30.4437 33.0322 30.6394 33.1284C30.8351 33.2246 31.032 33.2379 31.23 33.1681C31.4284 33.0777 31.6749 32.8894 31.9695 32.6032C31.9905 32.5828 32.0317 32.6041 32.093 32.6673C32.1543 32.7304 32.1745 32.7722 32.1534 32.7926C31.8273 33.1094 31.5697 33.3494 31.3806 33.5126L30.308 34.5238L29.2975 35.536C29.1184 35.7304 28.8605 35.9912 28.5238 36.3182C28.5028 36.3386 28.4616 36.3173 28.4003 36.2542C28.339 36.191 28.3189 36.1493 28.3399 36.1288C28.645 35.8325 28.8404 35.5916 28.926 35.4061C29.0222 35.2104 29.0251 35.0134 28.9346 34.815C28.834 34.6061 28.6303 34.3439 28.3237 34.0283L23.6332 29.1993C23.3266 28.8837 23.0755 28.6778 22.8798 28.5816C22.6842 28.4854 22.4871 28.4826 22.2887 28.573C22.0907 28.6428 21.8496 28.8156 21.5655 29.0915C21.534 29.1222 21.4875 29.1059 21.4262 29.0428C21.3649 28.9797 21.35 28.9328 21.3816 28.9021L22.1544 28.1821C22.5957 27.7944 22.9478 27.4728 23.2108 27.2173C23.4949 26.9414 23.8371 26.5886 24.2375 26.1588L24.9796 25.4072C25.0007 25.3868 25.0418 25.4081 25.1032 25.4712C25.1645 25.5343 25.1846 25.5761 25.1636 25.5966C24.7427 26.0053 24.5355 26.3498 24.5418 26.6299C24.5586 26.8998 24.7867 27.261 25.2261 27.7134L29.089 31.6901L29.1979 24.1928L29.0293 24.0192C28.7227 23.7035 28.4716 23.4976 28.2759 23.4015C28.0701 23.2947 27.8681 23.2762 27.67 23.346C27.4719 23.4157 27.2256 23.5936 26.931 23.8798C26.8994 23.9104 26.853 23.8942 26.7917 23.8311C26.7304 23.7679 26.7155 23.721 26.7471 23.6904L27.5199 22.9704C27.9611 22.5827 28.3238 22.2509 28.6078 21.9749C28.8603 21.7297 29.1973 21.3819 29.6187 20.9317L30.3609 20.1801C30.3924 20.1495 30.4389 20.1657 30.5002 20.2288C30.5615 20.292 30.5764 20.3388 30.5448 20.3695C30.2502 20.6556 30.06 20.9018 29.974 21.108C29.8883 21.2934 29.8907 21.4854 29.9812 21.6837C30.0716 21.8821 30.2702 22.1391 30.5767 22.4547L35.2673 27.2837C35.5739 27.5993 35.8301 27.8104 36.036 27.9171C36.2317 28.0133 36.4234 28.0213 36.6113 27.9411C36.7991 27.8608 37.0456 27.6725 37.3507 27.3762Z" fill="#BA95A3"/>
        <path d="M44.0875 17.7207C46.2224 17.0787 47.8755 16.9149 49.0466 17.2296C50.2317 17.5399 50.9926 18.2417 51.3293 19.335C51.666 20.4284 51.4495 21.5693 50.6798 22.7577C49.9242 23.9419 48.5135 25.3661 46.4478 27.0304L46.4268 27.0369C46.3707 27.0541 46.3108 27.0342 46.2472 26.9771C46.2019 26.9296 46.203 26.8833 46.2504 26.838C47.5937 25.5189 48.4674 24.3444 48.8716 23.3145C49.28 22.2987 49.344 21.3352 49.0634 20.4241C48.744 19.3868 48.1336 18.7 47.232 18.3638C46.3262 18.0135 45.1864 18.0499 43.8127 18.4729C43.7426 18.4945 43.6801 18.4907 43.6251 18.4616C43.5658 18.4185 43.5323 18.3597 43.5248 18.2853L43.0451 14.3356C43.0289 14.2331 43.0257 14.1728 43.0354 14.1544C43.0548 14.1178 43.1254 14.073 43.2473 14.0201C45.1169 13.2142 46.3681 12.6678 47.0011 12.3808C47.648 12.0895 48.0496 11.8738 48.2059 11.7336C48.372 11.575 48.4576 11.3798 48.463 11.148C48.4641 11.1016 48.5018 11.0747 48.5762 11.0671C48.6603 11.0412 48.704 11.0584 48.7072 11.1188L49.0313 13.6663C49.0227 13.8377 48.9828 13.9574 48.9116 14.0254C48.8545 14.089 48.7348 14.1489 48.5526 14.205L44.1275 15.6827C43.9593 15.7345 43.8844 15.865 43.9028 16.0742L44.0875 17.7207Z" fill="#BA95A3"/>
        <path d="M60.2409 21.3358C59.229 21.328 58.3288 21.0937 57.5403 20.6329C56.7519 20.1575 56.1336 19.5074 55.6853 18.6826C55.2518 17.8432 55.0391 16.8882 55.0474 15.8175C55.0554 14.7762 55.2826 13.854 55.7288 13.0507C56.1896 12.2476 56.8178 11.6291 57.6131 11.1952C58.4233 10.7468 59.3344 10.5265 60.3463 10.5343C61.3436 10.542 62.2292 10.7762 63.003 11.2368C63.7915 11.6976 64.3952 12.3403 64.8142 13.1649C65.2479 13.9749 65.4607 14.9079 65.4526 15.9639C65.4444 17.0199 65.2172 17.9568 64.7708 18.7747C64.3245 19.5926 63.7036 20.2258 62.9081 20.6744C62.1273 21.123 61.2382 21.3435 60.2409 21.3358ZM60.5085 20.8759C61.2858 20.8819 61.8684 20.4683 62.2561 19.6353C62.6439 18.8023 62.8434 17.6598 62.8546 16.2078C62.8634 15.0639 62.7389 14.1022 62.4809 13.3229C62.2375 12.5436 61.9047 11.9617 61.4823 11.5771C61.0746 11.1926 60.6141 10.9984 60.1008 10.9944C59.3235 10.9884 58.7115 11.4164 58.2648 12.2783C57.8181 13.1402 57.5894 14.2751 57.5785 15.6831C57.5708 16.6804 57.6812 17.5759 57.9098 18.3697C58.1531 19.149 58.4931 19.7603 58.9296 20.2037C59.3809 20.6471 59.9072 20.8712 60.5085 20.8759Z" fill="#BA95A3"/>
        <path d="M72.0281 17.7673C71.2432 17.4795 70.6825 16.9849 70.3461 16.2835C70.0285 15.5734 70.0085 14.8397 70.2862 14.0824C70.5538 13.3525 71.0358 12.8263 71.7321 12.5036C72.4473 12.1722 73.1973 12.1504 73.9822 12.4383C74.7671 12.7261 75.3114 13.2225 75.6153 13.9275C75.9329 14.6376 75.9554 15.3644 75.6827 16.108C75.4101 16.8516 74.9256 17.3847 74.2293 17.7074C73.5467 18.0351 72.813 18.0551 72.0281 17.7673ZM70.2427 22.5724C70.2051 22.5898 70.1108 22.4849 69.9598 22.2577C69.8175 22.0493 69.7608 21.927 69.7897 21.8907L79.8875 14.6739C79.9439 14.6478 80.0408 14.7458 80.178 14.9679C80.329 15.1951 80.3832 15.3243 80.3405 15.3556L70.2427 22.5724ZM72.3014 17.4692C72.6457 17.5954 72.9385 17.4997 73.18 17.1821C73.4214 16.8644 73.6734 16.3476 73.936 15.6316C74.2339 14.8191 74.3622 14.171 74.3209 13.6872C74.2846 13.1897 74.0875 12.8752 73.7295 12.7439C73.3715 12.6127 73.0529 12.7146 72.7738 13.0496C72.5085 13.3898 72.2471 13.911 71.9896 14.6132C71.3988 16.2243 71.5028 17.1763 72.3014 17.4692ZM76.4434 24.7055C75.6585 24.4176 75.0979 23.9231 74.7614 23.2217C74.4438 22.5116 74.4238 21.7779 74.7015 21.0205C74.9692 20.2907 75.4511 19.7645 76.1474 19.4418C76.8626 19.1104 77.6126 19.0886 78.3975 19.3764C79.1824 19.6642 79.7268 20.1606 80.0306 20.8657C80.3482 21.5758 80.3707 22.3026 80.0981 23.0462C79.8254 23.7898 79.3409 24.3229 78.6446 24.6456C77.962 24.9733 77.2283 24.9933 76.4434 24.7055ZM76.7168 24.4073C77.061 24.5336 77.3539 24.4379 77.5953 24.1202C77.8367 23.8026 78.0887 23.2858 78.3513 22.5697C78.6492 21.7573 78.7775 21.1092 78.7362 20.6254C78.7 20.1278 78.5028 19.8134 78.1448 19.6821C77.7868 19.5508 77.4657 19.6596 77.1816 20.0085C76.9163 20.3486 76.6574 20.8629 76.4049 21.5514C75.8141 23.1625 75.9181 24.1145 76.7168 24.4073Z" fill="#BA95A3"/>
        <path d="M88.5853 34.2086C87.8986 33.4257 87.4665 32.5659 87.2888 31.6293C87.1221 30.683 87.1977 29.7682 87.5154 28.8848C87.8441 27.9917 88.3723 27.2261 89.1001 26.5878C89.9381 25.8528 90.8545 25.4296 91.8491 25.318C92.8534 25.2175 93.8104 25.3634 94.7201 25.7556C95.6395 26.1588 96.4135 26.7187 97.0421 27.4355C97.7287 28.2184 98.1402 29.0768 98.2764 30.0107C98.4334 30.946 98.3482 31.8498 98.0209 32.7221C97.7045 33.5848 97.21 34.3111 96.5374 34.901C95.7986 35.549 94.9402 35.9604 93.9622 36.1354C92.9952 36.3007 92.0286 36.2218 91.0624 35.8987C90.1073 35.5659 89.2815 35.0025 88.5853 34.2086ZM89.2993 34.2554C89.8409 34.8729 90.5793 35.1031 91.5146 34.9461C92.4595 34.8002 93.4668 34.2582 94.5364 33.3201C95.2641 32.6818 95.829 31.9913 96.231 31.2486C96.6331 30.5058 96.8261 29.7806 96.8101 29.0728C96.8148 28.3664 96.5851 27.7485 96.1209 27.2192C95.56 26.5797 94.8698 26.3266 94.0504 26.46C93.231 26.5934 92.303 27.1146 91.2665 28.0237C90.4836 28.7103 89.8636 29.4492 89.4065 30.2403C88.97 31.0327 88.7391 31.7815 88.7137 32.4866C88.6883 33.1916 88.8835 33.7812 89.2993 34.2554Z" fill="#BA95A3"/>
        <path d="M103.908 39.2316C103.695 38.7167 103.273 38.3119 102.643 38.0172C102.019 37.7361 101.278 37.6144 100.42 37.6521C100.374 37.6554 100.337 37.6231 100.309 37.5554C100.28 37.4876 100.287 37.4453 100.327 37.4285C100.784 37.3031 101.371 37.1312 102.09 36.9127C102.823 36.6886 103.365 36.5036 103.718 36.3577C103.785 36.3296 103.833 36.3495 103.861 36.4172C103.895 36.4985 103.878 36.5532 103.81 36.5812C103.634 36.6542 103.561 36.8035 103.591 37.0292C103.635 37.2493 103.721 37.5152 103.85 37.8269C104.306 39.0034 104.716 40.0321 105.081 40.9129L105.833 42.6728C105.942 42.8975 106.078 43.2064 106.241 43.5993C106.46 44.1278 106.65 44.5095 106.81 44.7445C106.99 44.9875 107.196 45.1007 107.427 45.0843C107.474 45.081 107.511 45.1133 107.539 45.181C107.573 45.2623 107.569 45.3114 107.528 45.3282L106.487 45.6882C105.261 46.1008 104.465 46.3828 104.099 46.5343C104.058 46.5512 104.021 46.5189 103.987 46.4376C103.954 46.3563 103.957 46.3073 103.998 46.2904C104.39 46.0487 104.718 45.7301 104.983 45.3347C105.262 44.9336 105.439 44.5188 105.515 44.0903C105.611 43.6696 105.589 43.29 105.449 42.9512C105.314 42.626 105.136 42.4457 104.915 42.4102C104.707 42.3692 104.36 42.4497 103.872 42.6517L97.6523 45.2278C97.2458 45.3961 96.9549 45.5563 96.7797 45.7082C96.6237 45.8681 96.5539 46.0637 96.5703 46.295C96.5868 46.5263 96.6876 46.8656 96.8728 47.3127C96.8896 47.3534 96.8574 47.3905 96.7761 47.4242C96.6948 47.4579 96.6457 47.4544 96.6289 47.4138C96.4437 46.9666 96.3045 46.6115 96.2115 46.3484L95.6004 44.8156L94.9655 43.3402C94.8453 43.0884 94.687 42.7253 94.4906 42.2511C94.4794 42.224 94.5144 42.1936 94.5957 42.1599C94.677 42.1262 94.7233 42.1229 94.7345 42.15C94.9253 42.6107 95.0967 42.9287 95.2486 43.1039C95.4062 43.2926 95.5938 43.3816 95.8116 43.3708C96.0485 43.3679 96.3703 43.2823 96.7768 43.1139L103.037 40.521C103.538 40.3133 103.844 40.1312 103.954 39.9746C104.064 39.818 104.048 39.5704 103.908 39.2316Z" fill="#BA95A3"/>
        <path d="M94.276 69.5393C95.34 69.6587 96.197 69.4524 96.8471 68.9202C97.4826 68.3864 97.8576 67.6094 97.9722 66.5892L98.9636 57.7566C98.9669 57.7275 99.0123 57.7178 99.0997 57.7276C99.1872 57.7375 99.2293 57.7569 99.226 57.7861C99.1786 58.2088 99.1806 58.5189 99.2322 58.7166C99.2822 58.9288 99.4051 59.0828 99.601 59.1786C99.8114 59.276 100.135 59.3493 100.573 59.3984L107.263 60.1493C107.7 60.1984 108.025 60.198 108.237 60.148C108.449 60.098 108.603 59.9751 108.699 59.7793C108.809 59.585 108.887 59.2838 108.933 58.8757C108.936 58.8466 108.982 58.8369 109.069 58.8467C109.157 58.8566 109.199 58.876 109.195 58.9052L109.051 59.9959C108.956 60.5756 108.888 61.0477 108.848 61.412C108.807 61.7764 108.766 62.2663 108.727 62.8817L108.631 63.9336C108.628 63.9628 108.582 63.9724 108.495 63.9626C108.407 63.9528 108.365 63.9333 108.369 63.9042C108.414 63.4961 108.405 63.1851 108.34 62.9712C108.289 62.7735 108.165 62.6268 107.969 62.531C107.773 62.4353 107.457 62.3628 107.02 62.3138L100.373 61.5677C99.8632 61.5104 99.5181 61.5602 99.3382 61.7171C99.1566 61.8886 99.0331 62.2659 98.9676 62.8489L98.7075 65.1663C98.6617 65.5744 98.6573 65.8765 98.6943 66.0725C98.7459 66.2702 98.8551 66.4152 99.0218 66.5078C99.1885 66.6003 99.4468 66.6661 99.7966 66.7054L106.443 67.4515C106.88 67.5006 107.205 67.5001 107.417 67.4502C107.629 67.4002 107.782 67.2845 107.877 67.1033C107.985 66.9236 108.063 66.6297 108.108 66.2216C108.112 66.1925 108.157 66.1828 108.245 66.1926C108.332 66.2024 108.374 66.2219 108.371 66.2511L108.231 67.298C108.137 67.8777 108.067 68.3644 108.023 68.7579C107.984 69.1077 107.944 69.5903 107.905 70.2058L107.809 71.2576C107.804 71.3013 107.758 71.3183 107.67 71.3085C107.583 71.2987 107.542 71.2719 107.546 71.2282C107.592 70.8201 107.583 70.5091 107.518 70.2952C107.467 70.0975 107.343 69.9508 107.147 69.855C106.951 69.7593 106.635 69.6868 106.197 69.6378L99.5074 68.8868C98.9244 68.8213 98.5113 68.8857 98.2682 69.0797C98.0379 69.29 97.895 69.643 97.8394 70.1385C97.8247 70.2697 97.8019 70.3409 97.7711 70.3522C97.7533 70.3797 97.6788 70.3861 97.5476 70.3714C97.3144 70.3452 97.0253 70.2907 96.6804 70.2077C95.9615 70.0384 95.1502 69.9031 94.2465 69.8016C94.1737 69.7934 94.1421 69.7456 94.152 69.6582C94.1618 69.5707 94.2031 69.5311 94.276 69.5393Z" fill="#BA95A3"/>
        <path d="M95.7899 80.9278C95.8172 80.9731 95.8152 81.0289 95.7838 81.0953C95.7525 81.1616 95.717 81.1853 95.6772 81.1665C94.7661 80.6228 94.0055 80.207 93.3955 79.9189C93.2894 79.8688 93.2192 79.8113 93.1849 79.7465C93.1639 79.6879 93.1816 79.599 93.2379 79.4796L96.7698 71.9995C96.7823 71.9729 96.8283 71.9785 96.9079 72.016C96.9875 72.0536 97.021 72.0857 97.0085 72.1122C96.8269 72.4968 96.7285 72.791 96.7134 72.9947C96.6983 73.1984 96.768 73.3773 96.9223 73.5313C97.09 73.6915 97.3727 73.8655 97.7706 74.0534L103.858 76.9277C104.256 77.1156 104.563 77.2202 104.78 77.2415C104.997 77.2629 105.183 77.1964 105.337 77.042C105.498 76.9072 105.666 76.6541 105.841 76.2827C105.854 76.2562 105.9 76.2617 105.98 76.2993C106.059 76.3369 106.093 76.3689 106.08 76.3954L102.717 83.5175C102.655 83.6501 102.57 83.6914 102.464 83.6413L101.221 83.0788C100.963 82.9731 100.642 82.8294 100.257 82.6478C100.217 82.629 100.216 82.5798 100.254 82.5003C100.285 82.434 100.324 82.4036 100.37 82.4091C101.072 82.4326 101.745 82.2797 102.387 81.9503C103.042 81.6272 103.495 81.2004 103.746 80.6699L103.811 80.5306C103.949 80.2389 104.013 80.0012 104.002 79.8178C103.998 79.6538 103.916 79.5015 103.756 79.3608C103.589 79.2333 103.306 79.0757 102.908 78.8878L100.223 77.6197C99.76 78.634 99.4491 79.3955 99.29 79.9042C99.1309 80.413 99.0357 80.7005 99.0044 80.7668C98.9605 80.8597 98.7927 80.8372 98.5009 80.6995C98.3683 80.6368 98.2552 80.5672 98.1616 80.4906C98.0681 80.414 98.0307 80.3558 98.0494 80.316C98.087 80.2364 98.2517 79.9735 98.5434 79.5274C98.8352 79.0812 99.2291 78.3671 99.7253 77.3849L96.9203 76.0605C96.5224 75.8726 96.2212 75.7548 96.0168 75.7069C95.806 75.6723 95.6296 75.7025 95.4874 75.7975C95.3522 75.9121 95.2157 76.1153 95.0779 76.4071L94.9746 76.6259C94.6803 77.2492 94.6079 77.9693 94.7576 78.786C94.9204 79.609 95.2645 80.3229 95.7899 80.9278Z" fill="#BA95A3"/>
        <path d="M83.4451 91.1926C83.4144 91.2241 83.3675 91.2093 83.3044 91.148C83.2413 91.0866 83.2251 91.0402 83.2557 91.0086C83.5725 90.6825 83.823 90.4351 84.0073 90.2665L85.0348 89.2403L86.046 88.1676C86.2092 87.9786 86.4492 87.721 86.766 87.3948C86.7966 87.3633 86.8435 87.3782 86.9067 87.4395C86.9698 87.5008 86.986 87.5472 86.9554 87.5788C86.6692 87.8734 86.486 88.1146 86.4058 88.3024C86.3255 88.4903 86.3335 88.6821 86.4297 88.8777C86.5364 89.0836 86.7476 89.3399 87.0632 89.6464L89.3041 91.8231L92.9983 88.0199L90.7574 85.8433C90.4418 85.5367 90.1848 85.3382 89.9864 85.2477C89.788 85.1572 89.5908 85.1497 89.3949 85.2252C89.1992 85.3214 88.9583 85.5168 88.6722 85.8113C88.6517 85.8324 88.6099 85.8122 88.5468 85.7509C88.4837 85.6896 88.4624 85.6484 88.4828 85.6274C88.7996 85.3013 89.0501 85.0539 89.2343 84.8852L90.2771 83.8433L91.2577 82.8022C91.4311 82.6026 91.6814 82.3345 92.0084 81.9978C92.0288 81.9768 92.0706 81.9969 92.1337 82.0582C92.1968 82.1195 92.2182 82.1607 92.1977 82.1818C91.9014 82.4869 91.7131 82.7333 91.6328 82.9212C91.5424 83.1196 91.5452 83.3166 91.6414 83.5123C91.7481 83.7182 91.9593 83.9744 92.2749 84.281L97.1038 88.9715C97.4195 89.2781 97.6765 89.4766 97.8748 89.5671C98.0732 89.6575 98.2703 89.6547 98.4659 89.5585C98.6619 89.483 98.8978 89.3033 99.1738 89.0192C99.2044 88.9877 99.2513 89.0025 99.3144 89.0639C99.3775 89.1252 99.3938 89.1716 99.3631 89.2032L98.6116 89.9453C98.1818 90.3457 97.8391 90.6774 97.5836 90.9404C97.3077 91.2245 96.9759 91.5871 96.5882 92.0284L95.8682 92.8012C95.8478 92.8222 95.806 92.8021 95.7429 92.7408C95.6797 92.6795 95.6584 92.6383 95.6788 92.6173C96.0876 92.1964 96.2848 91.8461 96.2703 91.5663C96.2457 91.297 96.0071 90.9426 95.5548 90.5032L93.4086 88.4185L89.7144 92.2216L91.8605 94.3063C92.1762 94.6129 92.4332 94.8114 92.6315 94.9019C92.8404 95.0026 93.0429 95.0152 93.2389 94.9397C93.4348 94.8643 93.6759 94.6793 93.962 94.3847C93.9927 94.3531 94.0396 94.368 94.1027 94.4293C94.1658 94.4906 94.182 94.5371 94.1514 94.5686L93.3998 95.3108C92.97 95.7112 92.6172 96.0534 92.3413 96.3374C92.096 96.5899 91.7693 96.9473 91.3611 97.4096L90.6411 98.1824C90.6105 98.214 90.5636 98.1991 90.5005 98.1378C90.4373 98.0765 90.4211 98.0301 90.4518 97.9985C90.7379 97.7039 90.9209 97.4523 91.0009 97.2437C91.0811 97.0559 91.0732 96.8641 90.977 96.6684C90.8808 96.4728 90.6749 96.2216 90.3592 95.9151L85.5303 91.2245C85.2147 90.9179 84.9525 90.7143 84.7436 90.6136C84.5452 90.5232 84.3533 90.5208 84.1678 90.6064C83.9823 90.6921 83.7414 90.8875 83.4451 91.1926Z" fill="#BA95A3"/>
        <path d="M78.452 100.044C77.118 100.579 76.0696 100.762 75.3068 100.594C74.5305 100.432 73.9757 99.935 73.6427 99.1047C73.4079 98.5193 73.3706 97.9338 73.5307 97.3481C73.6909 96.7624 74.0253 96.2174 74.5342 95.713C75.0348 95.2278 75.6731 94.8295 76.449 94.5183C76.8166 94.3709 77.2672 94.2139 77.8008 94.0472C77.9969 93.9844 78.2405 93.9025 78.5319 93.8014C78.8096 93.7058 79.1118 93.5925 79.4385 93.4615L80.7371 92.9169C80.9767 92.805 81.3142 92.6617 81.7498 92.487C81.7771 92.4761 81.8071 92.5114 81.8398 92.5931C81.8726 92.6748 81.8753 92.7211 81.8481 92.732C81.4397 92.8958 81.1607 93.0472 81.0111 93.1863C80.8478 93.3308 80.7771 93.5092 80.7991 93.7216C80.813 93.9531 80.9018 94.2731 81.0656 94.6814L83.5717 100.93C83.7355 101.338 83.8896 101.624 84.0341 101.787C84.1786 101.95 84.3598 102.028 84.5777 102.019C84.7874 102.03 85.0761 101.962 85.4436 101.814C85.4844 101.798 85.5212 101.831 85.554 101.912C85.5868 101.994 85.5827 102.043 85.5419 102.059L84.5536 102.432C83.9982 102.623 83.5503 102.787 83.21 102.924C82.8425 103.071 82.3919 103.267 81.8583 103.513L80.8864 103.927C80.8592 103.938 80.8292 103.902 80.7964 103.821C80.7637 103.739 80.7609 103.693 80.7881 103.682C81.3326 103.463 81.6551 103.223 81.7557 102.962C81.8426 102.706 81.7686 102.285 81.5339 101.7L80.4774 99.0655C79.6172 99.5212 78.942 99.8473 78.452 100.044ZM67.0037 98.6861C66.9765 98.697 66.9465 98.6616 66.9137 98.5799C66.8809 98.4983 66.8782 98.452 66.9054 98.4411C67.3274 98.2718 67.6568 98.1476 67.8937 98.0684L69.2904 97.5319L70.6094 96.9791C70.849 96.8672 71.1865 96.7239 71.6221 96.5492C71.6494 96.5383 71.6794 96.5736 71.7121 96.6553C71.7449 96.737 71.7476 96.7833 71.7204 96.7942C71.3257 96.9525 71.0534 97.1012 70.9038 97.2403C70.7405 97.3848 70.6631 97.566 70.6714 97.7838C70.6853 98.0153 70.7741 98.3353 70.9379 98.7436L73.444 104.992C73.6078 105.4 73.7619 105.686 73.9064 105.849C74.0509 106.013 74.2321 106.09 74.45 106.082C74.6597 106.092 74.962 106.018 75.3567 105.86C75.384 105.849 75.414 105.885 75.4467 105.966C75.4795 106.048 75.4822 106.094 75.455 106.105L74.4259 106.494C73.8705 106.685 73.4226 106.849 73.0823 106.986C72.7148 107.133 72.2506 107.335 71.6898 107.592L70.7383 107.997C70.7111 108.008 70.6811 107.973 70.6483 107.891C70.6155 107.809 70.6128 107.763 70.64 107.752C71.0212 107.599 71.2906 107.444 71.4485 107.286C71.5927 107.133 71.6578 106.941 71.644 106.709C71.6356 106.491 71.5495 106.178 71.3857 105.77L68.896 99.5626C68.7322 99.1543 68.5753 98.8616 68.4254 98.6847C68.2809 98.5215 68.1065 98.4413 67.9022 98.4442C67.698 98.4471 67.3984 98.5277 67.0037 98.6861ZM76.9476 94.6976C75.4639 95.2927 75.0113 96.3118 75.5901 97.7547C76.2671 99.4426 77.4973 99.929 79.2805 99.2137C79.5664 99.0991 79.9135 98.9203 80.3218 98.6776L79.0441 95.4922C78.8366 94.975 78.5871 94.6484 78.2956 94.5125C78.0095 94.3902 77.5602 94.4519 76.9476 94.6976Z" fill="#BA95A3"/>
    </symbol>

    <symbol id="stars" viewBox="0 0 72 72">
        <path d="M13.9747 12.0696C15.4399 14.241 17.3248 15.8664 19.4632 16.6393C17.3522 17.4023 15.4883 18.9961 14.0314 21.1256C12.6902 23.086 11.6786 25.5186 11.1168 28.2323C10.5577 25.5313 9.55298 23.1089 8.22118 21.1533C6.76149 19.0099 4.89068 17.4056 2.7704 16.6393C4.91811 15.8631 6.80981 14.2271 8.27777 12.0417C9.58137 10.1009 10.5656 7.7091 11.1168 5.04638C11.6707 7.72186 12.6617 10.1239 13.9747 12.0696Z" stroke="white"/>
        <path d="M60.7721 52.3991C61.9045 56.2891 64.8613 59.3629 68.6179 60.5227C64.8613 61.6825 61.9045 64.7564 60.7721 68.6462C59.6397 64.7563 56.6829 61.6825 52.9262 60.5227C56.6829 59.3629 59.6397 56.2891 60.7721 52.3991Z" stroke="white"/>
        <path fill-rule="evenodd" clip-rule="evenodd" d="M55.7513 41.7112C55.7884 41.7112 55.8255 41.7111 55.8625 41.7109V41.7115C55.8255 41.7113 55.7884 41.7112 55.7513 41.7112ZM33.4065 19.6353C33.4065 31.8275 43.4106 41.7112 55.7513 41.7112C43.522 41.7112 33.5873 51.4174 33.409 63.4577H33.4041C33.2263 51.4539 23.3512 41.7701 11.1729 41.7115V41.7109C23.4624 41.6518 33.4065 31.7909 33.4065 19.6353ZM33.4065 19.6353C33.4065 19.5987 33.4064 19.562 33.4062 19.5255H33.4068C33.4066 19.562 33.4065 19.5987 33.4065 19.6353Z" fill="#BA95A3"/>
    </symbol>

    <symbol id="quote-border" viewBox="0 0 112 10" fill="none">
        <path d="M1 1H48L56 8L64 1H111" stroke-width="2" stroke-linecap="round"/>
    </symbol>

    <symbol id="inst" viewBox="0 0 16 16">
        <path d="M7.99967 6.49992C7.46924 6.49992 6.96053 6.71063 6.58546 7.0857C6.21039 7.46078 5.99967 7.96949 5.99967 8.49992C5.99967 9.03035 6.21039 9.53906 6.58546 9.91413C6.96053 10.2892 7.46924 10.4999 7.99967 10.4999C8.53011 10.4999 9.03882 10.2892 9.41389 9.91413C9.78896 9.53906 9.99967 9.03035 9.99967 8.49992C9.99967 7.96949 9.78896 7.46078 9.41389 7.0857C9.03882 6.71063 8.53011 6.49992 7.99967 6.49992ZM7.99967 5.16659C8.88373 5.16659 9.73158 5.51777 10.3567 6.1429C10.9818 6.76802 11.333 7.61586 11.333 8.49992C11.333 9.38397 10.9818 10.2318 10.3567 10.8569C9.73158 11.4821 8.88373 11.8333 7.99967 11.8333C7.11562 11.8333 6.26777 11.4821 5.64265 10.8569C5.01753 10.2318 4.66634 9.38397 4.66634 8.49992C4.66634 7.61586 5.01753 6.76802 5.64265 6.1429C6.26777 5.51777 7.11562 5.16659 7.99967 5.16659ZM12.333 4.99992C12.333 5.22093 12.2452 5.43289 12.0889 5.58917C11.9327 5.74545 11.7207 5.83325 11.4997 5.83325C11.2787 5.83325 11.0667 5.74545 10.9104 5.58917C10.7541 5.43289 10.6663 5.22093 10.6663 4.99992C10.6663 4.7789 10.7541 4.56694 10.9104 4.41066C11.0667 4.25438 11.2787 4.16659 11.4997 4.16659C11.7207 4.16659 11.9327 4.25438 12.0889 4.41066C12.2452 4.56694 12.333 4.7789 12.333 4.99992ZM7.99967 3.16659C6.35034 3.16659 6.08101 3.17125 5.31367 3.20525C4.79101 3.22992 4.44034 3.29992 4.11501 3.42659C3.82567 3.53859 3.61701 3.67259 3.39501 3.89525C3.18635 4.09685 3.02591 4.34297 2.92567 4.61525C2.79901 4.94192 2.72901 5.29192 2.70501 5.81392C2.67034 6.54992 2.66634 6.80725 2.66634 8.49992C2.66634 10.1493 2.67101 10.4186 2.70501 11.1859C2.72967 11.7079 2.79967 12.0593 2.92567 12.3839C3.03901 12.6739 3.17234 12.8826 3.39367 13.1039C3.61834 13.3279 3.82701 13.4619 4.11367 13.5726C4.44301 13.6999 4.79367 13.7706 5.31367 13.7946C6.04967 13.8293 6.30701 13.8333 7.99967 13.8333C9.64901 13.8333 9.91834 13.8286 10.6857 13.7946C11.207 13.7699 11.5583 13.6999 11.8837 13.5739C12.1723 13.4613 12.3823 13.3273 12.6037 13.1059C12.8283 12.8813 12.9623 12.6726 13.073 12.3859C13.1997 12.0573 13.2703 11.7059 13.2943 11.1859C13.329 10.4499 13.333 10.1926 13.333 8.49992C13.333 6.85059 13.3283 6.58125 13.2943 5.81392C13.2697 5.29259 13.1997 4.94059 13.073 4.61525C12.9725 4.34325 12.8124 4.09723 12.6043 3.89525C12.4028 3.68648 12.1567 3.52603 11.8843 3.42592C11.5577 3.29925 11.207 3.22925 10.6857 3.20525C9.94967 3.17059 9.69234 3.16659 7.99967 3.16659ZM7.99967 1.83325C9.81101 1.83325 10.037 1.83992 10.7477 1.87325C11.4577 1.90659 11.941 2.01792 12.3663 2.18325C12.8063 2.35259 13.177 2.58192 13.5477 2.95192C13.8867 3.28518 14.149 3.68831 14.3163 4.13325C14.481 4.55792 14.593 5.04192 14.6263 5.75192C14.6577 6.46259 14.6663 6.68859 14.6663 8.49992C14.6663 10.3113 14.6597 10.5373 14.6263 11.2479C14.593 11.9579 14.481 12.4413 14.3163 12.8666C14.1495 13.3118 13.8871 13.715 13.5477 14.0479C13.2143 14.3868 12.8112 14.6491 12.3663 14.8166C11.9417 14.9813 11.4577 15.0933 10.7477 15.1266C10.037 15.1579 9.81101 15.1666 7.99967 15.1666C6.18834 15.1666 5.96234 15.1599 5.25167 15.1266C4.54167 15.0933 4.05834 14.9813 3.63301 14.8166C3.18789 14.6496 2.78469 14.3872 2.45167 14.0479C2.11261 13.7147 1.8503 13.3116 1.68301 12.8666C1.51767 12.4419 1.40634 11.9579 1.37301 11.2479C1.34167 10.5373 1.33301 10.3113 1.33301 8.49992C1.33301 6.68859 1.33967 6.46259 1.37301 5.75192C1.40634 5.04125 1.51767 4.55859 1.68301 4.13325C1.84983 3.68804 2.11221 3.2848 2.45167 2.95192C2.78479 2.61274 3.18796 2.3504 3.63301 2.18325C4.05834 2.01792 4.54101 1.90659 5.25167 1.87325C5.96234 1.84192 6.18834 1.83325 7.99967 1.83325Z" fill="#FFA8E9"/>
    </symbol>

    <symbol id="chevron" viewBox="0 0 40 40 ">
        <path d="M15.0957 9.03211C14.2037 9.90411 14.1337 11.1181 15.0957 12.1841L22.5897 20.0001L15.0957 27.8161C14.1337 28.8821 14.2037 30.0981 15.0957 30.9641C15.9857 31.8361 17.4897 31.7801 18.3257 30.9641C19.1617 30.1521 27.3297 21.5741 27.3297 21.5741C27.5414 21.3698 27.7097 21.125 27.8247 20.8542C27.9398 20.5835 27.999 20.2923 27.999 19.9981C27.999 19.7039 27.9398 19.4128 27.8247 19.142C27.7097 18.8712 27.5414 18.6264 27.3297 18.4221C27.3297 18.4221 19.1617 9.84811 18.3257 9.03211C17.4897 8.2141 15.9857 8.16011 15.0957 9.03211Z"/>
    </symbol>

    <symbol id="date-star" viewBox="0 0 74 74" fill="none">
        <g filter="url(#filter0_d_323_2045)">
            <path d="M36.8408 13.2932C39.7979 25.0769 49.0323 34.3547 60.7651 37.32C49.0323 40.2853 39.7979 49.5631 36.8408 61.3469C33.8837 49.5631 24.6493 40.2853 12.9164 37.32C24.6493 34.3547 33.8837 25.0769 36.8408 13.2932Z" stroke="#732D72" stroke-width="2"/>
        </g>
        <defs>
            <filter id="filter0_d_323_2045" x="0" y="0" width="74" height="74" filterUnits="userSpaceOnUse" color-interpolation-filters="sRGB">
                <feFlood flood-opacity="0" result="BackgroundImageFix"/>
                <feColorMatrix in="SourceAlpha" type="matrix" values="0 0 0 0 0 0 0 0 0 0 0 0 0 0 0 0 0 0 127 0" result="hardAlpha"/>
                <feOffset/>
                <feGaussianBlur stdDeviation="2.5"/>
                <feColorMatrix type="matrix" values="0 0 0 0 0.52549 0 0 0 0 0.321569 0 0 0 0 0.85098 0 0 0 0.4 0"/>
                <feBlend mode="normal" in2="BackgroundImageFix" result="effect1_dropShadow_323_2045"/>
                <feBlend mode="normal" in="SourceGraphic" in2="effect1_dropShadow_323_2045" result="shape"/>
            </filter>
        </defs>
    </symbol>

    <symbol id="long-border" viewBox="0 0 1440 10">
        <path d="M1 1H712L720 8L728 1H1439" stroke="#BA95A3" stroke-width="2" stroke-linecap="square"/>
    </symbol>

    <symbol id="inst-2" viewBox="0 0 28 28" fill="none">
        <path d="M14.0002 18.6668C15.2378 18.6668 16.4248 18.1752 17.3 17.3C18.1752 16.4248 18.6668 15.2378 18.6668 14.0002C18.6668 12.7625 18.1752 11.5755 17.3 10.7003C16.4248 9.82516 15.2378 9.3335 14.0002 9.3335C12.7625 9.3335 11.5755 9.82516 10.7003 10.7003C9.82516 11.5755 9.3335 12.7625 9.3335 14.0002C9.3335 15.2378 9.82516 16.4248 10.7003 17.3C11.5755 18.1752 12.7625 18.6668 14.0002 18.6668V18.6668Z" stroke="#FFEE97" stroke-width="1.5" stroke-linecap="round" stroke-linejoin="round"/>
        <path d="M3.5 18.6667V9.33333C3.5 7.78624 4.11458 6.30251 5.20854 5.20854C6.30251 4.11458 7.78624 3.5 9.33333 3.5H18.6667C20.2138 3.5 21.6975 4.11458 22.7915 5.20854C23.8854 6.30251 24.5 7.78624 24.5 9.33333V18.6667C24.5 20.2138 23.8854 21.6975 22.7915 22.7915C21.6975 23.8854 20.2138 24.5 18.6667 24.5H9.33333C7.78624 24.5 6.30251 23.8854 5.20854 22.7915C4.11458 21.6975 3.5 20.2138 3.5 18.6667Z" stroke="#FFEE97" stroke-width="1.5"/>
        <path d="M20.4165 7.59441L20.4278 7.58203" stroke="#FFEE97" stroke-width="1.5" stroke-linecap="round" stroke-linejoin="round"/>
    </symbol>

    <symbol id="wpp-2" viewBox="0 0 28 28" fill="none">
        <path fill-rule="evenodd" clip-rule="evenodd" d="M21.441 6.56604C20.4721 5.59112 19.3193 4.81813 18.0496 4.29184C16.7798 3.76555 15.4183 3.49642 14.0437 3.50004C8.28187 3.50004 3.5875 8.19004 3.5875 13.9519C3.58313 15.7866 4.06434 17.5897 4.98225 19.1783L3.5 24.5954L9.044 23.1394C10.577 23.9745 12.2946 24.4128 14.0402 24.4143H14.0446C19.8074 24.4143 24.4965 19.7252 24.5 13.9589C24.5 11.1668 23.4132 8.54179 21.441 6.56516V6.56604ZM14.0437 22.6477H14.0402C12.4841 22.6476 10.9565 22.2297 9.61713 21.4375L9.2995 21.2494L6.00775 22.1113L6.88625 18.9044L6.6815 18.5763C5.81052 17.1913 5.34941 15.588 5.3515 13.9519C5.3515 9.16391 9.25138 5.26754 14.0473 5.26754C15.1886 5.26468 16.3192 5.48826 17.3736 5.92533C18.4279 6.3624 19.3851 7.00427 20.1897 7.81379C20.9983 8.61942 21.6393 9.57727 22.0755 10.632C22.5118 11.6868 22.7348 12.8175 22.7316 13.9589C22.7316 18.7513 18.8317 22.6477 14.0429 22.6477H14.0437ZM18.8081 16.1394C18.5483 16.0099 17.2629 15.3782 17.024 15.2924C16.7851 15.2032 16.6101 15.162 16.436 15.4219C16.261 15.6844 15.7623 16.2733 15.6091 16.4474C15.4586 16.618 15.3046 16.6425 15.0448 16.5122C14.7823 16.3827 13.9414 16.1053 12.943 15.2137C12.1669 14.5224 11.641 13.6649 11.4905 13.405C11.3365 13.1425 11.473 13.0025 11.6034 12.8713C11.7224 12.7558 11.8659 12.5677 11.9963 12.4137C12.1257 12.264 12.1713 12.1547 12.2587 11.9797C12.3445 11.8055 12.3007 11.6515 12.2351 11.522C12.1704 11.3925 11.648 10.1037 11.4293 9.58041C11.2166 9.07116 11.0014 9.14291 10.8413 9.13329C10.6908 9.12629 10.5166 9.12629 10.3425 9.12629C10.1675 9.12629 9.884 9.19104 9.64425 9.45441C9.40538 9.71429 8.73163 10.3469 8.73163 11.6314C8.73163 12.9168 9.66788 14.1602 9.79913 14.3352C9.92863 14.5058 11.641 17.1439 14.2616 18.2762C14.7472 18.4862 15.2438 18.6699 15.7491 18.8265C16.3748 19.0243 16.9452 18.9972 17.3967 18.9315C17.899 18.8572 18.9411 18.2998 19.1599 17.6882C19.376 17.08 19.376 16.5568 19.3104 16.4474C19.2456 16.338 19.0715 16.2724 18.8081 16.1394Z" fill="#FFEE97"/>
    </symbol>

    <symbol id="star-1" viewBox="0 0 17 19" fill="none">
        <path fill-rule="evenodd" clip-rule="evenodd" d="M1 9.7599V9.36588C3.47328 9.36588 8.3392 7.23339 8.3392 1H8.7953C8.7953 2.12017 9.21067 4.22856 10.3317 6.05059C11.4507 7.86916 13.2459 9.36588 16 9.36588V9.7599C14.8154 9.7599 13.015 10.1805 11.5123 11.416C10.0158 12.6463 8.7953 14.7008 8.7953 18H8.3392C8.3392 16.8571 8.02709 14.7817 6.9451 12.9998C5.86864 11.2269 4.04367 9.7599 1 9.7599ZM8.53282 15.8239C8.94452 13.6475 9.97035 12.1397 11.1979 11.1305C12.1971 10.3091 13.3225 9.82419 14.3414 9.57664C12.2779 9.09917 10.8598 7.74839 9.929 6.23552C9.27889 5.17892 8.85809 4.03183 8.61379 3.02029C7.87561 6.93342 5.02623 8.88455 2.67445 9.51984C4.95359 9.96119 6.42628 11.2971 7.34899 12.8167C7.94595 13.7999 8.31645 14.8642 8.53282 15.8239Z" fill="white" stroke="white" stroke-width="0.50813" stroke-linecap="round"/>
    </symbol>

    <symbol id="star-2" viewBox="0 0 31 31" fill="none">
        <path d="M15.0127 0L17.1346 6.77058C18.0486 9.68713 20.3338 11.9713 23.2516 12.8849L30.0253 15.0058L23.4858 16.5657C20.0628 17.3821 17.3901 20.0536 16.5732 23.4751L15.0127 30.0116L13.6757 23.5792C12.9195 19.9409 10.0754 17.0981 6.43543 16.3422L0.000134335 15.0058L6.48154 13.5722C10.0259 12.7882 12.7941 10.0213 13.5784 6.47849L15.0127 0Z" fill="white"/>
    </symbol>

    <symbol id="star-3" viewBox="0 0 16 17" fill="none">
        <path d="M7.95508 0.251953L9.07945 3.83969C9.5638 5.38517 10.7747 6.59555 12.3209 7.07968L15.9103 8.20354L12.445 9.03011C10.6311 9.46277 9.21487 10.8784 8.78202 12.6914L7.95508 16.1551L7.24661 12.7466C6.84589 10.8187 5.33878 9.31223 3.40998 8.91169L-9.5182e-05 8.20354L3.43441 7.44387C5.31259 7.02844 6.77944 5.56225 7.19506 3.68491L7.95508 0.251953Z" fill="white"/>
    </symbol>

    <symbol id="star-4" viewBox="0 0 19 20" fill="none">
        <path d="M9.42383 0.847168L10.742 5.05338C11.3099 6.86529 12.7295 8.28431 14.5423 8.85189L18.7504 10.1695L14.6877 11.1386C12.5612 11.6458 10.9008 13.3054 10.3933 15.431L9.42383 19.4918L8.59323 15.4957C8.12343 13.2354 6.35652 11.4693 4.09521 10.9997L0.0972923 10.1695L4.12386 9.27887C6.32581 8.79182 8.04553 7.07288 8.5328 4.87192L9.42383 0.847168Z" fill="#BA95A3"/>
    </symbol>

    <symbol id="star-5" viewBox="0 0 12 16" fill="none">
        <path fill-rule="evenodd" clip-rule="evenodd" d="M1 8.21403V7.88955C2.64886 7.88955 5.8928 6.13338 5.8928 1H6.19686C6.19686 1.9225 6.47378 3.65882 7.22115 5.15931C7.9671 6.65696 9.16393 7.88955 11 7.88955V8.21403C10.2103 8.21403 9.01001 8.56042 8.00819 9.57785C7.01052 10.5911 6.19686 12.283 6.19686 15H5.8928C5.8928 14.0588 5.68472 12.3496 4.9634 10.8822C4.24576 9.42216 3.02912 8.21403 1 8.21403ZM6.02188 13.2079C6.29635 11.4156 6.98023 10.1739 7.79857 9.3428C8.46471 8.66628 9.21498 8.26698 9.89424 8.06312C8.5186 7.6699 7.57322 6.5575 6.95266 5.31161C6.51926 4.44147 6.23873 3.4968 6.07586 2.66377C5.58374 5.88635 3.68415 7.49316 2.1163 8.01634C3.63573 8.37981 4.61752 9.47997 5.23266 10.7314C5.63063 11.5411 5.87763 12.4175 6.02188 13.2079Z" fill="#BA95A3" stroke="#BA95A3" stroke-width="0.50813" stroke-linecap="round"/>
    </symbol>

    <symbol id="chevron-sm" viewBox="0 0 24 24" fill="none">
        <path d="M14.9422 5.4192C15.4774 5.9424 15.5194 6.6708 14.9422 7.3104L10.4458 12L14.9422 16.6896C15.5194 17.3292 15.4774 18.0588 14.9422 18.5784C14.4082 19.1016 13.5058 19.068 13.0042 18.5784C12.5026 18.0912 7.60182 12.9444 7.60182 12.9444C7.47479 12.8218 7.37376 12.6749 7.30476 12.5125C7.23576 12.35 7.2002 12.1753 7.2002 11.9988C7.2002 11.8223 7.23576 11.6476 7.30476 11.4851C7.37376 11.3227 7.47479 11.1758 7.60182 11.0532C7.60182 11.0532 12.5026 5.9088 13.0042 5.4192C13.5058 4.9284 14.4082 4.896 14.9422 5.4192Z" fill="#732D72"/>
    </symbol>

    <symbol id="wpp-3" viewBox="0 0 17 16" fill="none">
        <path d="M8.52621 1.33329C4.88621 1.33329 1.91954 4.29996 1.91954 7.93996C1.91954 9.10662 2.22621 10.24 2.79954 11.24L1.86621 14.6666L5.36621 13.7466C6.33288 14.2733 7.41954 14.5533 8.52621 14.5533C12.1662 14.5533 15.1329 11.5866 15.1329 7.94662C15.1329 6.17996 14.4462 4.51996 13.1995 3.27329C12.5883 2.65591 11.8603 2.1664 11.058 1.83333C10.2556 1.50025 9.39496 1.33027 8.52621 1.33329ZM8.53288 2.44662C9.99954 2.44662 11.3729 3.01996 12.4129 4.05996C12.9233 4.57019 13.3279 5.17617 13.6037 5.84313C13.8794 6.51009 14.0207 7.22492 14.0195 7.94662C14.0195 10.9733 11.5529 13.4333 8.52621 13.4333C7.53954 13.4333 6.57288 13.1733 5.73288 12.6666L5.53288 12.5533L3.45288 13.1L4.00621 11.0733L3.87288 10.86C3.32217 9.98574 3.03089 8.97317 3.03288 7.93996C3.03954 4.91329 5.49954 2.44662 8.53288 2.44662ZM6.18621 4.88662C6.07954 4.88662 5.89954 4.92662 5.74621 5.09329C5.59954 5.25996 5.16621 5.66662 5.16621 6.47329C5.16621 7.28662 5.75954 8.06662 5.83288 8.17996C5.92621 8.29329 7.00621 9.95996 8.66621 10.6666C9.05954 10.8466 9.36621 10.9466 9.60621 11.02C9.99954 11.1466 10.3595 11.1266 10.6462 11.0866C10.9662 11.04 11.6195 10.6866 11.7595 10.3C11.8995 9.91329 11.8995 9.58662 11.8595 9.51329C11.8129 9.44662 11.7062 9.40662 11.5395 9.33329C11.3729 9.23996 10.5595 8.83996 10.4129 8.78662C10.2595 8.73329 10.1662 8.70662 10.0395 8.86662C9.93288 9.03329 9.61288 9.40662 9.51954 9.51329C9.41954 9.62662 9.32621 9.63996 9.16621 9.55996C8.99288 9.47329 8.45954 9.29996 7.83288 8.73996C7.33954 8.29996 7.01288 7.75996 6.91288 7.59329C6.83288 7.43329 6.90621 7.33329 6.98621 7.25996C7.05954 7.18662 7.16621 7.06662 7.23288 6.96662C7.31954 6.87329 7.34621 6.79996 7.39954 6.69329C7.45288 6.57996 7.42621 6.48662 7.38621 6.40662C7.34621 6.33329 7.01288 5.50662 6.87288 5.17996C6.73954 4.85996 6.60621 4.89996 6.49954 4.89329C6.40621 4.89329 6.29954 4.88662 6.18621 4.88662Z" fill="#BA95A3"/>
    </symbol>

    <symbol id="burger" viewBox="0 0 32 32" fill="none">
        <rect x="4" y="10" width="24" height="2" fill="#732D72"/>
        <rect x="4" y="16" width="8" height="2" fill="#732D72"/>
        <rect x="4" y="22" width="17" height="2" fill="#732D72"/>
    </symbol>

    <symbol id="close" viewBox="0 0 24 24" fill="none">
        <path d="M12 10.586L16.95 5.63599L18.364 7.04999L13.414 12L18.364 16.95L16.95 18.364L12 13.414L7.04999 18.364L5.63599 16.95L10.586 12L5.63599 7.04999L7.04999 5.63599L12 10.586Z" fill="#732D72"/>
    </symbol>
</svg>
