<svg version="1.1"
     baseProfile="full"
     xmlns="http://www.w3.org/2000/svg"
>
    <symbol id="apple" viewBox="0 0 24 24">
        <path d="M9.0941 21.006C8.46533 20.9719 7.87364 20.6977 7.4411 20.24C6.9237 19.7422 6.46199 19.1897 6.0641 18.592C5.44259 17.702 4.95131 16.7279 4.6051 15.699C4.21297 14.5922 4.00652 13.4282 3.9941 12.254C3.96397 11.1019 4.24961 9.96346 4.8201 8.96202C5.23768 8.24012 5.83329 7.63728 6.5501 7.21102C7.25899 6.78659 8.06792 6.55813 8.8941 6.54902C9.51692 6.58587 10.129 6.72823 10.7041 6.97002C11.1627 7.17178 11.6453 7.31362 12.1401 7.39202C12.6861 7.27763 13.2197 7.11017 13.7331 6.89202C14.3408 6.65474 14.9842 6.52187 15.6361 6.49902C15.7231 6.49902 15.8091 6.49902 15.8921 6.50902C17.3216 6.55048 18.6512 7.25221 19.4921 8.40902C18.1551 9.12387 17.3341 10.5303 17.3691 12.046C17.3559 13.1956 17.8352 14.2959 18.6861 15.069C19.069 15.4339 19.5149 15.7262 20.0021 15.932C19.9021 16.232 19.7871 16.522 19.6651 16.814C19.3878 17.4593 19.0457 18.0748 18.6441 18.651C18.265 19.2282 17.8237 19.7621 17.3281 20.243C16.8757 20.6919 16.2727 20.9567 15.6361 20.986C15.0965 20.9621 14.5663 20.8355 14.0741 20.613C13.5433 20.3818 12.9729 20.2551 12.3941 20.24C11.799 20.2517 11.2117 20.3777 10.6641 20.611C10.1911 20.8244 9.68585 20.9572 9.1691 21.004L9.0941 21.006ZM12.2441 6.49902C12.1691 6.49902 12.0941 6.49902 12.0191 6.49002C12.0033 6.37099 11.995 6.25109 11.9941 6.13102C12.0268 5.13216 12.4172 4.17826 13.0941 3.44302C13.4724 3.0206 13.931 2.67762 14.4431 2.43402C14.921 2.18802 15.4432 2.04012 15.9791 1.99902C15.9941 2.13002 15.9941 2.25802 15.9941 2.38002C15.98 3.36317 15.6106 4.308 14.9541 5.04002C14.3106 5.9028 13.3186 6.43689 12.2441 6.49902Z"/>
    </symbol>

    <symbol id="android" viewBox="0 0 24 24">
        <path d="M17.6 9.48006L19.44 6.30006C19.6 5.99006 19.48 5.61006 19.18 5.45006C19.0391 5.37663 18.8759 5.35849 18.7224 5.39919C18.5688 5.43989 18.436 5.5365 18.35 5.67006L16.47 8.91006C15.0558 8.3112 13.5357 8.0026 12 8.0026C10.4643 8.0026 8.94417 8.3112 7.53 8.91006L5.65 5.67006C5.55909 5.53057 5.41763 5.43178 5.25536 5.39448C5.0931 5.35718 4.92269 5.38427 4.78 5.47006C4.5 5.65006 4.41 6.01006 4.56 6.30006L6.4 9.48006C4.87336 10.3522 3.5832 11.5845 2.64198 13.0695C1.70076 14.5545 1.13706 16.2472 1 18.0001H23C22.8629 16.2472 22.2992 14.5545 21.358 13.0695C20.4168 11.5845 19.1266 10.3522 17.6 9.48006V9.48006ZM7 15.2501C6.66848 15.2501 6.35054 15.1184 6.11612 14.8839C5.8817 14.6495 5.75 14.3316 5.75 14.0001C5.75 13.6685 5.8817 13.3506 6.11612 13.1162C6.35054 12.8818 6.66848 12.7501 7 12.7501C7.33152 12.7501 7.64946 12.8818 7.88388 13.1162C8.1183 13.3506 8.25 13.6685 8.25 14.0001C8.25 14.3316 8.1183 14.6495 7.88388 14.8839C7.64946 15.1184 7.33152 15.2501 7 15.2501V15.2501ZM17 15.2501C16.6685 15.2501 16.3505 15.1184 16.1161 14.8839C15.8817 14.6495 15.75 14.3316 15.75 14.0001C15.75 13.6685 15.8817 13.3506 16.1161 13.1162C16.3505 12.8818 16.6685 12.7501 17 12.7501C17.3315 12.7501 17.6495 12.8818 17.8839 13.1162C18.1183 13.3506 18.25 13.6685 18.25 14.0001C18.25 14.3316 18.1183 14.6495 17.8839 14.8839C17.6495 15.1184 17.3315 15.2501 17 15.2501V15.2501Z"/>
    </symbol>

    <symbol id="github" viewBox="0 0 24 24">
        <path d="M12.026 2C7.13295 1.99937 2.96183 5.54799 2.17842 10.3779C1.395 15.2079 4.23061 19.893 8.87302 21.439C9.37302 21.529 9.55202 21.222 9.55202 20.958C9.55202 20.721 9.54402 20.093 9.54102 19.258C6.76602 19.858 6.18002 17.92 6.18002 17.92C5.99733 17.317 5.60459 16.7993 5.07302 16.461C4.17302 15.842 5.14202 15.856 5.14202 15.856C5.78269 15.9438 6.34657 16.3235 6.66902 16.884C6.94195 17.3803 7.40177 17.747 7.94632 17.9026C8.49087 18.0583 9.07503 17.99 9.56902 17.713C9.61544 17.207 9.84055 16.7341 10.204 16.379C7.99002 16.128 5.66202 15.272 5.66202 11.449C5.64973 10.4602 6.01691 9.5043 6.68802 8.778C6.38437 7.91731 6.42013 6.97325 6.78802 6.138C6.78802 6.138 7.62502 5.869 9.53002 7.159C11.1639 6.71101 12.8882 6.71101 14.522 7.159C16.428 5.868 17.264 6.138 17.264 6.138C17.6336 6.97286 17.6694 7.91757 17.364 8.778C18.0376 9.50423 18.4045 10.4626 18.388 11.453C18.388 15.286 16.058 16.128 13.836 16.375C14.3153 16.8651 14.5612 17.5373 14.511 18.221C14.511 19.555 14.499 20.631 14.499 20.958C14.499 21.225 14.677 21.535 15.186 21.437C19.8265 19.8884 22.6591 15.203 21.874 10.3743C21.089 5.54565 16.9181 1.99888 12.026 2Z"/>
    </symbol>

    <symbol id="css3" viewBox="0 0 24 24">
        <path d="M11.9829 20.9891L5.61389 19.1761L4.19189 3.14307H19.8069L18.3869 19.1771L11.9869 20.9891H11.9829ZM7.72189 13.3521L7.93789 16.2191L12.0009 17.4831L15.9919 16.3431L16.8969 6.42007H7.09689L7.25489 8.36907H14.7839L14.5979 10.3931H9.65989L9.83789 12.3051H14.4379L14.1659 14.9251L12.0019 15.5251L9.80189 14.9251L9.66189 13.3551H7.72189V13.3521Z"/>
    </symbol>

    <symbol id="dribble" viewBox="0 0 24 24">
        <path d="M12 22C6.47715 22 2 17.5228 2 12C2 6.47715 6.47715 2 12 2C17.5228 2 22 6.47715 22 12C21.9939 17.5203 17.5203 21.9939 12 22ZM7.12 18.545L7.115 18.555C9.39805 20.2653 12.4093 20.6571 15.054 19.588C14.6749 17.5493 14.113 15.5489 13.375 13.611C11.6799 14.202 10.1302 15.1473 8.829 16.384C8.18773 16.9912 7.63257 17.6833 7.179 18.441L7.172 18.452V18.442L7.154 18.477L7.142 18.497L7.135 18.51L7.118 18.546L7.12 18.545ZM16.779 13.045C16.2867 13.0457 15.7949 13.0791 15.307 13.145C15.9442 14.9255 16.4456 16.7517 16.807 18.608C18.5064 17.383 19.6615 15.5438 20.027 13.481C18.969 13.1891 17.8765 13.0414 16.779 13.042V13.045ZM3.817 11.955V12.011C3.81882 13.9376 4.50052 15.8017 5.742 17.275C7.35028 14.7905 9.72927 12.9023 12.514 11.9L12.633 11.866C12.456 11.475 12.29 11.126 12.124 10.8C9.45593 11.5481 6.6999 11.9365 3.929 11.955H3.817ZM16.466 11.349C17.7068 11.3536 18.9449 11.4667 20.166 11.687C20.1024 9.99541 19.5107 8.3662 18.474 7.028C17.2642 8.38093 15.7585 9.43634 14.074 10.112L14.103 10.1L14.072 10.113C14.251 10.486 14.408 10.835 14.539 11.146C14.57 11.22 14.596 11.284 14.62 11.346L14.661 11.446C15.2603 11.3795 15.863 11.3471 16.466 11.349ZM8.377 4.677C6.20231 5.75037 4.61618 7.73358 4.047 10.091C6.37738 10.055 8.69657 9.76053 10.962 9.213H10.975H10.99L11 9.2L11.054 9.187H11.06L11.1 9.179H11.109H11.116L11.137 9.173L11.177 9.163L11.2 9.153L11.222 9.147H11.232H11.242C9.909 6.8 8.529 4.887 8.376 4.677H8.377ZM12 3.83897C11.4526 3.83762 10.9063 3.88953 10.369 3.994C11.4166 5.44558 12.3779 6.95753 13.248 8.522C14.8061 7.96705 16.1958 7.02157 17.284 5.776C15.8067 4.5266 13.9348 3.84041 12 3.83897Z"/>
    </symbol>

    <symbol id="figma" viewBox="0 0 24 24">
        <path d="M8.94504 22.0001C7.28013 22.013 5.78874 20.9726 5.22604 19.4056C4.66335 17.8386 5.15219 16.0871 6.44504 15.038C5.52804 14.2958 4.99527 13.1792 4.99527 11.9995C4.99527 10.8198 5.52804 9.7032 6.44504 8.96102C5.15177 7.91226 4.66264 6.16065 5.22544 4.59358C5.78825 3.02651 7.28003 1.98634 8.94504 1.99989H15.055C16.72 1.98634 18.2118 3.02651 18.7746 4.59358C19.3374 6.16065 18.8483 7.91226 17.555 8.96102C18.8479 10.0101 19.3367 11.7616 18.774 13.3286C18.2113 14.8956 16.72 15.936 15.055 15.923C14.286 15.924 13.5335 15.7001 12.89 15.279V18.079C12.8807 20.25 11.116 22.0039 8.94504 22.0001ZM8.92304 15.924C7.73858 15.9427 6.79173 16.9148 6.80416 18.0993C6.81658 19.2839 7.7836 20.2359 8.96819 20.2298C10.1528 20.2236 11.1099 19.2616 11.11 18.077V15.924H8.92204H8.92304ZM15.056 9.84702C13.8684 9.85309 12.91 10.8197 12.914 12.0073C12.9181 13.1949 13.8831 14.155 15.0707 14.153C16.2583 14.151 17.22 13.1877 17.22 12C17.2156 10.8081 16.247 9.84481 15.055 9.84702H15.056ZM8.94604 9.84699C8.17685 9.84291 7.46389 10.2495 7.07574 10.9136C6.68758 11.5776 6.6832 12.3984 7.06424 13.0666C7.44527 13.7348 8.15385 14.1489 8.92304 14.153H11.11V9.84699H8.94604ZM12.89 3.77002V8.07704H15.054C16.2115 8.08242 17.1666 7.17244 17.217 6.01602V6.45102V5.92302C17.2121 4.7325 16.2456 3.77002 15.055 3.77002H12.89ZM8.94404 3.77002C8.17485 3.77002 7.46408 4.18038 7.07949 4.84652C6.69489 5.51266 6.69489 6.33338 7.07949 6.99952C7.46408 7.66566 8.17485 8.07602 8.94404 8.07602H11.11V3.77002H8.94404Z"/>
    </symbol>

    <symbol id="html5" viewBox="0 0 24 24">
        <path d="M11.983 20.988L5.56899 19.162L4.13599 3.01196H19.865L18.436 19.162L11.983 20.988ZM7.69099 13.297L7.93599 16.42L11.999 17.505L16.027 16.425L16.586 10.312H9.40199L9.22899 8.27896H16.762L16.936 6.31796H7.06599L7.58799 12.318H14.424L14.181 14.884L12.002 15.484L9.78599 14.877L9.64499 13.297H7.69099Z" />
    </symbol>

    <symbol id="javascript" viewBox="0 0 24 24">
        <path d="M21 21H3V3H21V21ZM9.1 17.232L7.732 18.076C7.9452 18.5439 8.29075 18.9392 8.726 19.213C9.19884 19.484 9.7361 19.6222 10.281 19.613C10.5668 19.611 10.8515 19.5775 11.13 19.513C11.7126 19.3697 12.2065 18.9849 12.488 18.455C12.7685 17.795 12.8719 17.0732 12.788 16.361C12.788 16.225 12.788 16.086 12.788 15.946C12.793 14.919 12.788 13.874 12.788 12.862C12.788 12.346 12.788 11.829 12.788 11.311V11.269H11.1C11.1 11.995 11.1 12.7193 11.1 13.442C11.1 14.169 11.1 14.895 11.1 15.623C11.1 15.809 11.1 15.991 11.1 16.166C11.1502 16.6651 11.114 17.1692 10.993 17.656C10.8477 17.9364 10.5488 18.1026 10.234 18.078C10.093 18.0776 9.95281 18.0564 9.818 18.015C9.54717 17.8734 9.32884 17.6488 9.195 17.374L9.162 17.318C9.131 17.265 9.11 17.228 9.1 17.228V17.232ZM15.049 17.032L13.676 17.819C13.7884 18.065 13.9435 18.2891 14.134 18.481C14.181 18.533 14.234 18.589 14.283 18.651C14.9544 19.2514 15.8318 19.5692 16.732 19.538C17.8969 19.6528 18.9975 18.9839 19.432 17.897V17.889C19.5458 17.4895 19.564 17.0688 19.485 16.661L19.519 16.71C19.371 15.781 18.698 15.136 17.267 14.555C17.156 14.503 17.041 14.455 16.929 14.405C16.484 14.213 16.064 14.033 15.918 13.705C15.8529 13.5363 15.8411 13.3517 15.884 13.176C15.9875 12.8241 16.3271 12.5959 16.692 12.633C16.8034 12.633 16.9142 12.6492 17.021 12.681C17.3501 12.7919 17.6163 13.0378 17.753 13.357C18.528 12.85 18.528 12.85 19.069 12.513C18.9452 12.3017 18.798 12.1052 18.63 11.927C18.1167 11.3767 17.3801 11.0909 16.63 11.151H16.51L15.982 11.218C15.4861 11.3293 15.0375 11.5929 14.699 11.972C14.3011 12.4696 14.1219 13.1073 14.2023 13.7394C14.2828 14.3715 14.6161 14.9439 15.126 15.326C15.564 15.6258 16.0364 15.8718 16.533 16.059C17.174 16.329 17.727 16.559 17.839 16.98C17.9068 17.2238 17.8568 17.4853 17.704 17.687C17.4325 17.9551 17.057 18.0903 16.677 18.057C16.5724 18.0567 16.4678 18.05 16.364 18.037C15.7985 17.9103 15.317 17.5418 15.047 17.029L15.049 17.032Z" />
    </symbol>

    <symbol id="coolicon" viewBox="0 0 16 20">
        <path d="M8 20C3.664 20 0 17.965 0 15.556V4.444C0 2.035 3.664 0 8 0C12.336 0 16 2.035 16 4.444V15.556C16 17.965 12.337 20 8 20ZM2 12.9V15.559C2.07 16.112 4.309 17.781 8 17.781C11.691 17.781 13.931 16.107 14 15.553V12.9C12.1794 13.9554 10.1039 14.4905 8 14.447C5.89606 14.4906 3.82058 13.9554 2 12.9ZM2 7.341V10C2.07 10.553 4.309 12.222 8 12.222C11.691 12.222 13.931 10.548 14 9.994V7.341C12.1795 8.39678 10.104 8.93226 8 8.889C5.89596 8.93231 3.82046 8.39683 2 7.341ZM8 2.222C4.308 2.222 2.069 3.896 2 4.451C2.07 5 4.311 6.666 8 6.666C11.689 6.666 13.931 4.992 14 4.438C13.93 3.887 11.689 2.222 8 2.222Z" />
    </symbol>

    <symbol id="arrow-sm" viewBox="0 0 42 16">
        <path d="M1 7C0.447715 7 0 7.44772 0 8C0 8.55228 0.447715 9 1 9V7ZM41.7071 8.70711C42.0976 8.31658 42.0976 7.68342 41.7071 7.29289L35.3431 0.928932C34.9526 0.538408 34.3195 0.538408 33.9289 0.928932C33.5384 1.31946 33.5384 1.95262 33.9289 2.34315L39.5858 8L33.9289 13.6569C33.5384 14.0474 33.5384 14.6805 33.9289 15.0711C34.3195 15.4616 34.9526 15.4616 35.3431 15.0711L41.7071 8.70711ZM1 9H41V7H1V9Z" />
    </symbol>

    <symbol id="facebook" viewBox="0 0 32 32">
        <rect width="32" height="32" rx="1.5" fill="#121111"/>
        <path d="M6.00198 16.0016C6.00315 20.9209 9.58039 25.1096 14.439 25.8806V18.8916H11.902V16.0016H14.442V13.8016C14.3284 12.7591 14.6845 11.7201 15.4136 10.9665C16.1427 10.2128 17.1693 9.82257 18.215 9.90156C18.9655 9.91368 19.7142 9.98052 20.455 10.1016V12.5606H19.191C18.7558 12.5036 18.3183 12.6473 18.0018 12.9512C17.6852 13.2552 17.5238 13.6864 17.563 14.1236V16.0016H20.334L19.891 18.8926H17.563V25.8806C22.8175 25.0502 26.5021 20.2513 25.9475 14.9606C25.3929 9.66993 20.7933 5.73949 15.4808 6.01673C10.1683 6.29398 6.00283 10.6819 6.00198 16.0016Z" fill="white"/>
    </symbol>

    <symbol id="inst" viewBox="0 0 32 32">
        <rect width="32" height="32" rx="1.5" fill="#121111"/>
        <path d="M16.002 25.0409C13.542 25.0409 13.252 25.0279 12.292 24.9859C11.5434 24.9613 10.8044 24.8091 10.107 24.5359C8.90031 24.0663 7.94614 23.1117 7.477 21.9049C7.21431 21.2049 7.07262 20.4654 7.058 19.7179C7.002 18.7599 7.002 18.4459 7.002 16.0049C7.002 13.5379 7.015 13.2499 7.058 12.2949C7.07294 11.5484 7.21462 10.8099 7.477 10.1109C7.94563 8.90241 8.90135 7.94706 10.11 7.47888C10.8086 7.21509 11.5473 7.07303 12.294 7.05888C13.249 7.00488 13.563 7.00488 16.002 7.00488C18.482 7.00488 18.767 7.01788 19.712 7.05888C20.4606 7.07315 21.2012 7.21519 21.902 7.47888C23.1103 7.94759 24.0658 8.90276 24.535 10.1109C24.8021 10.8201 24.9446 11.5701 24.956 12.3279C25.012 13.2859 25.012 13.5989 25.012 16.0389C25.012 18.4789 24.998 18.7989 24.956 19.7459C24.9411 20.4941 24.7991 21.2343 24.536 21.9349C24.0657 23.1426 23.1101 24.0975 21.902 24.5669C21.2022 24.8291 20.4631 24.9707 19.716 24.9859C18.761 25.0409 18.448 25.0409 16.002 25.0409ZM15.968 8.58788C13.522 8.58788 13.268 8.59988 12.313 8.64288C11.743 8.65043 11.1785 8.75562 10.644 8.95388C9.85475 9.25589 9.23023 9.87787 8.925 10.6659C8.72521 11.2062 8.62001 11.7769 8.614 12.3529C8.561 13.3219 8.561 13.5759 8.561 16.0049C8.561 18.4049 8.57 18.6959 8.614 19.6589C8.62295 20.2291 8.72809 20.7937 8.925 21.3289C9.23067 22.1164 9.85509 22.7379 10.644 23.0399C11.1781 23.2395 11.7428 23.3447 12.313 23.3509C13.281 23.4069 13.536 23.4069 15.968 23.4069C18.421 23.4069 18.675 23.3949 19.622 23.3509C20.1924 23.3439 20.7573 23.2387 21.292 23.0399C22.0765 22.7353 22.6969 22.1152 23.002 21.3309C23.2014 20.7901 23.3066 20.2192 23.313 19.6429H23.324C23.367 18.6869 23.367 18.4319 23.367 15.9889C23.367 13.5459 23.356 13.2889 23.313 12.3339C23.304 11.7643 23.1989 11.2004 23.002 10.6659C22.6976 9.88046 22.0771 9.25918 21.292 8.95388C20.7574 8.75462 20.1924 8.6494 19.622 8.64288C18.655 8.58788 18.402 8.58788 15.968 8.58788ZM16.002 20.6239C14.132 20.6251 12.4454 19.4996 11.7289 17.7723C11.0123 16.0451 11.4069 14.0562 12.7286 12.7333C14.0504 11.4105 16.0389 11.0142 17.7668 11.7292C19.4947 12.4443 20.6216 14.1299 20.622 15.9999C20.6192 18.5509 18.5531 20.6189 16.002 20.6239ZM16.002 12.9979C14.3451 12.9979 13.002 14.341 13.002 15.9979C13.002 17.6547 14.3451 18.9979 16.002 18.9979C17.6589 18.9979 19.002 17.6547 19.002 15.9979C18.9981 14.3426 17.6573 13.0017 16.002 12.9979ZM20.802 12.2849C20.2074 12.2827 19.7269 11.7995 19.728 11.2049C19.7291 10.6103 20.2114 10.1289 20.806 10.1289C21.4006 10.1289 21.8829 10.6103 21.884 11.2049C21.8843 11.4917 21.7703 11.7669 21.5673 11.9696C21.3642 12.1722 21.0889 12.2857 20.802 12.2849Z" fill="white"/>
    </symbol>

    <symbol id="search" viewBox="0 0 32 32">
        <path d="M24.9027 26.1427L17.2827 18.5213C13.8929 20.9313 9.22197 20.3418 6.53722 17.1652C3.85247 13.9887 4.0496 9.28477 6.99072 6.34399C9.93107 3.40191 14.6354 3.20393 17.8126 5.88854C20.9897 8.57315 21.5795 13.2446 19.1694 16.6347L26.7894 24.256L24.9041 26.1413L24.9027 26.1427ZM12.6467 6.66663C10.1183 6.66607 7.93698 8.44089 7.42335 10.9166C6.90973 13.3922 8.205 15.8884 10.525 16.8936C12.8449 17.8989 15.5519 17.1371 17.007 15.0694C18.4622 13.0017 18.2655 10.1964 16.5361 8.35199L17.3427 9.15199L16.4334 8.24532L16.4174 8.22932C15.4198 7.22555 14.0619 6.66282 12.6467 6.66663Z" fill="#CBCBCB"/>
    </symbol>

    <symbol id="clock" viewBox="0 0 24 24">
        <path d="M12 22C6.47715 22 2 17.5228 2 12C2 6.47715 6.47715 2 12 2C17.5228 2 22 6.47715 22 12C21.9939 17.5203 17.5203 21.9939 12 22ZM12 4C7.58172 4 4 7.58172 4 12C4 16.4183 7.58172 20 12 20C16.4183 20 20 16.4183 20 12C19.995 7.58378 16.4162 4.00496 12 4ZM17 13H11V7H13V11H17V13Z" />
    </symbol>

    <symbol id="btn-arrow" viewBox="0 0 24 24">
        <path fill-rule="evenodd" clip-rule="evenodd" d="M10.642 18.5816L10.642 1L13.358 1L13.358 18.5816L19.6818 12.5551C20.2121 12.0497 21.0719 12.0497 21.6023 12.5551C22.1326 13.0605 22.1326 13.8799 21.6023 14.3852L12.9602 22.621C12.4299 23.1263 11.5701 23.1263 11.0398 22.621L2.39774 14.3852C1.86742 13.8799 1.86742 13.0605 2.39774 12.5551C2.92806 12.0497 3.78787 12.0497 4.31819 12.5551L10.642 18.5816Z" fill="white"/>
    </symbol>

    <symbol id="close-bold" viewBox="0 0 32 32">
        <path d="M6.09998 6.10001C6.47503 5.72507 6.98365 5.51443 7.51398 5.51443C8.04431 5.51443 8.55292 5.72507 8.92798 6.10001L16 13.172L23.072 6.10001C23.4492 5.73569 23.9544 5.5341 24.4788 5.53866C25.0032 5.54322 25.5048 5.75355 25.8756 6.12437C26.2464 6.49519 26.4568 6.99681 26.4613 7.52121C26.4659 8.0456 26.2643 8.5508 25.9 8.92801L18.828 16L25.9 23.072C26.2643 23.4492 26.4659 23.9544 26.4613 24.4788C26.4568 25.0032 26.2464 25.5048 25.8756 25.8756C25.5048 26.2465 25.0032 26.4568 24.4788 26.4614C23.9544 26.4659 23.4492 26.2643 23.072 25.9L16 18.828L8.92798 25.9C8.55077 26.2643 8.04557 26.4659 7.52117 26.4614C6.99678 26.4568 6.49516 26.2465 6.12434 25.8756C5.75352 25.5048 5.54319 25.0032 5.53863 24.4788C5.53407 23.9544 5.73566 23.4492 6.09998 23.072L13.172 16L6.09998 8.92801C5.72503 8.55295 5.5144 8.04434 5.5144 7.51401C5.5144 6.98368 5.72503 6.47506 6.09998 6.10001Z" fill="#1D1D1D" fill-opacity="0.99"/>
    </symbol>

    <symbol id="filter" viewBox="0 0 40 40">
        <rect width="40" height="40" rx="8" fill="#1D1D1D"/>
        <path d="M16 27C14.1753 27.0009 12.5812 25.7668 12.125 24H10V22H12.126C12.6456 19.9875 14.6201 18.7083 16.6693 19.0566C18.7184 19.4049 20.1594 21.2646 19.9849 23.3358C19.8103 25.4071 18.0786 26.9995 16 27ZM16 21C14.9074 21.0011 14.0179 21.8789 14.0022 22.9713C13.9866 24.0638 14.8506 24.9667 15.9427 24.9991C17.0348 25.0315 17.9508 24.1815 18 23.09V23.49V23C18 21.8954 17.1046 21 16 21ZM30 24H21V22H30V24ZM21 19C19.1756 19.0005 17.5821 17.7664 17.126 16H10V14H17.126C17.6456 11.9875 19.6201 10.7083 21.6693 11.0566C23.7184 11.4049 25.1594 13.2646 24.9849 15.3358C24.8103 17.4071 23.0786 18.9995 21 19ZM21 13C19.9074 13.0011 19.0179 13.8789 19.0022 14.9713C18.9866 16.0638 19.8506 16.9667 20.9427 16.9991C22.0348 17.0315 22.9508 16.1815 23 15.09V15.49V15C23 13.8954 22.1046 13 21 13ZM30 16H26V14H30V16Z" fill="white"/>
    </symbol>
</svg>
