<svg width="68" height="83" viewBox="0 0 68 83" fill="none" xmlns="http://www.w3.org/2000/svg">
<g filter="url(#filter0_f_703_263)">
<path d="M35.3848 67.7477C35.208 67.925 34.9979 68.0657 34.7666 68.1616C34.5353 68.2576 34.2874 68.307 34.037 68.307C33.7866 68.307 33.5386 68.2576 33.3074 68.1616C33.0761 68.0657 32.866 67.925 32.6892 67.7477C31.6954 66.7502 27.3283 62.227 23.1973 56.3141C19.1234 50.485 15 42.9273 15 35.9407C15 29.1635 17.1968 23.8903 20.772 20.3113C24.3319 16.7438 29.1216 15 34.037 15C38.9523 15 43.742 16.7438 47.302 20.3113C50.8771 23.8903 53.074 29.1597 53.074 35.9407C53.074 42.9273 48.9506 50.485 44.8766 56.3103C42.0242 60.3709 38.85 64.1957 35.3848 67.7477V67.7477ZM41.7584 54.1325C45.7752 48.3833 49.2666 41.6632 49.2666 35.9407C49.2666 30.0126 47.3629 25.7635 44.6063 23.0032C41.8421 20.2238 38.0576 18.8074 34.037 18.8074C30.0164 18.8074 26.2356 20.2276 23.4676 23.0032C20.7073 25.7635 18.8074 30.0088 18.8074 35.9407C18.8074 41.6632 22.295 48.3795 26.3156 54.1325C28.6719 57.4757 31.2516 60.6558 34.037 63.651C36.8224 60.6558 39.4021 57.4757 41.7584 54.1325V54.1325Z" fill="#A3FBFF"/>
</g>
<path fill-rule="evenodd" clip-rule="evenodd" d="M34.7666 68.1616C34.9979 68.0657 35.208 67.925 35.3848 67.7477C38.85 64.1957 42.0242 60.3709 44.8766 56.3103C48.9506 50.485 53.074 42.9273 53.074 35.9407C53.074 29.1597 50.8771 23.8903 47.302 20.3113C43.742 16.7438 38.9523 15 34.037 15C29.1216 15 24.3319 16.7438 20.772 20.3113C17.1968 23.8903 15 29.1635 15 35.9407C15 42.9273 19.1234 50.485 23.1973 56.3141C27.3283 62.227 31.6954 66.7502 32.6892 67.7477C32.866 67.925 33.0761 68.0657 33.3074 68.1616C33.5386 68.2576 33.7866 68.307 34.037 68.307C34.2874 68.307 34.5353 68.2576 34.7666 68.1616ZM33.7757 63.3689C33.8626 63.4631 33.9497 63.5571 34.037 63.651C34.1234 63.5581 34.2095 63.465 34.2955 63.3718C34.2086 63.4438 34.1225 63.5139 34.0372 63.5822C33.9511 63.5127 33.8639 63.4416 33.7757 63.3689Z" fill="#52BEC3"/>
<defs>
<filter id="filter0_f_703_263" x="0.37959" y="0.37959" width="67.3148" height="82.5478" filterUnits="userSpaceOnUse" color-interpolation-filters="sRGB">
<feFlood flood-opacity="0" result="BackgroundImageFix"/>
<feBlend mode="normal" in="SourceGraphic" in2="BackgroundImageFix" result="shape"/>
<feGaussianBlur stdDeviation="7.3102" result="effect1_foregroundBlur_703_263"/>
</filter>
</defs>
</svg>
