<svg width="69" height="85" viewBox="0 0 69 85" fill="none" xmlns="http://www.w3.org/2000/svg">
<g filter="url(#filter0_f_723_498)">
<path d="M35.7298 68.6402C35.5499 68.8205 35.3363 68.9636 35.1011 69.0612C34.8659 69.1587 34.6138 69.209 34.3591 69.209C34.1045 69.209 33.8524 69.1587 33.6172 69.0612C33.382 68.9636 33.1684 68.8205 32.9885 68.6402C31.978 67.6258 27.537 63.0261 23.3361 57.0132C19.1932 51.0854 15 43.3998 15 36.295C15 29.4032 17.2341 24.0407 20.8697 20.4012C24.4899 16.7733 29.3606 15 34.3591 15C39.3577 15 44.2284 16.7733 47.8486 20.4012C51.4842 24.0407 53.7183 29.3993 53.7183 36.295C53.7183 43.3998 49.5251 51.0854 45.3822 57.0093C42.4815 61.1386 39.2536 65.0281 35.7298 68.6402V68.6402ZM42.2112 54.7946C46.296 48.9481 49.8464 42.1144 49.8464 36.295C49.8464 30.2666 47.9105 25.9456 45.1073 23.1386C42.2964 20.3121 38.4478 18.8718 34.3591 18.8718C30.2705 18.8718 26.4258 20.316 23.611 23.1386C20.8039 25.9457 18.8719 30.2627 18.8719 36.295C18.8719 42.1144 22.4184 48.9443 26.5071 54.7946C28.9033 58.1944 31.5266 61.4283 34.3591 64.4742C37.1917 61.4283 39.815 58.1944 42.2112 54.7946V54.7946Z" fill="#A3FBFF"/>
</g>
<path fill-rule="evenodd" clip-rule="evenodd" d="M35.1011 69.0612C35.3363 68.9636 35.5499 68.8205 35.7298 68.6402C39.2536 65.0281 42.4815 61.1386 45.3822 57.0093C49.5251 51.0854 53.7183 43.3998 53.7183 36.295C53.7183 29.3993 51.4842 24.0407 47.8486 20.4012C44.2284 16.7733 39.3577 15 34.3591 15C29.3606 15 24.4899 16.7733 20.8697 20.4012C17.2341 24.0407 15 29.4032 15 36.295C15 43.3998 19.1932 51.0854 23.3361 57.0132C27.537 63.0261 31.978 67.6258 32.9885 68.6402C33.1684 68.8205 33.382 68.9636 33.6172 69.0612C33.8524 69.1587 34.1045 69.209 34.3591 69.209C34.6138 69.209 34.8659 69.1587 35.1011 69.0612ZM34.0938 64.1876C34.182 64.2833 34.2705 64.3788 34.3591 64.4742C34.4472 64.3795 34.535 64.2846 34.6226 64.1896C34.534 64.263 34.4462 64.3346 34.3592 64.4042C34.2718 64.3337 34.1833 64.2615 34.0938 64.1876Z" fill="#AE4096"/>
<defs>
<filter id="filter0_f_723_498" x="0.132203" y="0.132203" width="68.4539" height="83.9446" filterUnits="userSpaceOnUse" color-interpolation-filters="sRGB">
<feFlood flood-opacity="0" result="BackgroundImageFix"/>
<feBlend mode="normal" in="SourceGraphic" in2="BackgroundImageFix" result="shape"/>
<feGaussianBlur stdDeviation="7.4339" result="effect1_foregroundBlur_723_498"/>
</filter>
</defs>
</svg>
