<svg width="205" height="200" viewBox="0 0 205 200" fill="none" xmlns="http://www.w3.org/2000/svg">
<g clip-path="url(#clip0_323_2165)">
<path d="M96.3228 108.968C92.5163 106.867 92.4945 105.741 92.9594 105.44C94.5182 97.2364 101.737 101.174 106.988 105.44C112.238 109.706 108.874 112.905 106.988 113.644C105.101 114.382 101.081 111.593 96.3228 108.968Z" stroke="#732D72" stroke-width="1.94872"/>
<path d="M83.4334 81.4178C83.2585 75.3852 85.4006 74.8242 86.4935 75.2978C88.7157 76.7185 93.4004 80.4124 94.3621 83.8221C95.5643 88.0843 91.7393 86.1172 90.2093 89.1772C88.6792 92.2372 83.652 88.9586 83.4334 81.4178Z" stroke="#732D72" stroke-width="1.94872"/>
<path d="M124.369 80.6609C121.285 79.3806 120.853 82.0189 121.023 83.498C120.963 84.9821 123.06 86.1896 125.533 84.9529C128.006 83.7163 128.225 82.2613 124.369 80.6609Z" stroke="#732D72" stroke-width="1.94872"/>
<path d="M179.047 131.953C170.333 127.814 151.885 118.934 147.807 116.529C142.709 113.523 105.325 92.7396 100.358 94.1774C95.3912 95.6152 78.3987 106.464 83.3657 108.556C88.3328 110.647 123.233 138.489 135.52 145.939C145.349 151.9 159.222 160.622 164.93 164.239L163.623 165.807C154.037 159.751 133.768 147.063 129.376 144.763C123.886 141.887 85.98 108.948 77.7451 112.738C69.5103 116.529 66.7653 123.849 64.2818 126.332C61.7983 128.816 77.0916 132.999 83.3657 142.671C89.6398 152.344 104.802 179.401 109.246 183.192C113.691 186.983 123.363 189.597 126.37 189.858C129.376 190.12 116.697 193.91 107.286 185.806C97.8746 177.702 92.3847 165.285 88.9862 159.141C85.5877 152.998 76.4379 132.476 60.2296 131.561C59.4453 131.169 58.112 132.842 59.0532 142.671C60.2296 154.958 59.7068 169.467 62.8439 174.565C65.9809 179.663 72.3858 192.734 76.1765 195.087C72.6037 193.388 64.9353 188.447 62.8439 182.277C60.2296 174.565 55.3933 165.023 56.8311 148.946C57.9814 136.084 55.6548 136.789 54.3477 138.75" stroke="#732D72" stroke-width="1.94872"/>
<path d="M201.933 26.179C198.257 27.7366 189.335 32.1353 183.055 37.2692C175.204 43.6867 155.09 46.5538 128.462 71.2257C126.757 71.7271 126.988 73.392 141.55 76.0397C159.753 79.3493 161.559 84.6147 171.187 86.4199C180.815 88.2252 191.045 90.1809 191.346 91.0835C191.646 91.9861 169.682 90.0304 160.656 86.4199C151.63 82.8094 128.462 71.677 118.684 79.0485C108.905 86.4199 101.985 89.2783 104.693 91.0835C107.401 92.8888 175.7 128.543 180.063 128.242" stroke="#732D72" stroke-width="1.94872"/>
<path d="M57.6014 14.3012C57.2536 19.0712 56.9156 29.7441 58.3467 34.2755C60.1354 39.9399 63.6384 53.1319 64.5328 57.082C65.4271 61.0321 71.1263 94.9967 69.3896 109.006C68.8493 110.936 69.2738 113.499 75.2945 108.312C82.8203 101.828 107.16 81.5481 107.856 75.985C108.551 70.4218 99.3371 42.2586 99.511 35.3047C99.6848 28.3509 100.554 29.0462 99.511 20.0062C98.4679 10.9662 101.867 0.701958 105.291 0.593262C104.53 1.26356 102.845 3.99546 102.193 9.56074C101.378 16.5173 101.487 18.8 102.791 28.2022C104.095 37.6045 103.063 43.9632 103.932 47.0611C104.802 50.159 109.682 72.0154 112.498 73.389C115.313 74.7625 116.618 73.7324 119.503 70.9852C122.387 68.238 133.513 63.5678 133.719 59.7218C133.925 55.8758 132.758 49.832 132.895 42.346C133.033 34.86 132.758 26.2064 134.406 19.2011C135.725 13.5969 138.115 10.8681 139.145 10.2042C137.497 12.8598 134.434 20.9044 135.368 31.8381C136.535 45.5052 135.642 60.4086 141.549 56.4252C147.455 52.4418 156.246 46.8101 159.749 40.2856C163.251 33.7611 177.605 18.5144 178.773 19.2011C179.94 19.8879 171.768 28.0607 169.845 31.22C167.922 34.3792 160.367 41.5219 163.801 41.9339C167.235 42.346 188.388 30.8079 190.242 29.709C192.097 28.6102 202.399 23.734 202.879 23.94" stroke="#732D72" stroke-width="1.94872"/>
<path d="M9.39373 36.6351C8.42159 37.9398 7.38291 42.345 11.0054 49.5285C15.5334 58.5079 31.3433 80.9946 34.7968 85.0621C38.2504 89.1297 53.0625 115.147 55.0579 119.138C57.0533 123.128 57.3603 123.973 60.4302 120.673C63.5 117.372 65.3419 116.605 65.9559 108.93C66.5699 101.256 65.2652 72.0152 63.193 63.7266C61.1209 55.438 55.8254 39.8585 55.8254 29.5745C55.8254 19.2904 56.5928 15.2996 55.8254 14.6089" stroke="#732D72" stroke-width="1.94872"/>
<path d="M-9.01514 87.8828C-7.48958 90.9339 -3.26159 97.908 1.44589 101.395C7.33024 105.754 18.2998 116.433 29.0515 119.121C39.8031 121.809 52.2256 128.783 52.5889 126.749C52.9521 124.714 51.9351 122.099 50.4095 119.702C48.8839 117.305 40.7475 99.7968 38.6408 96.2371C36.534 92.6775 14.4496 60.4225 13.0693 58.8243C11.689 57.2261 3.98851 41.3165 7.98406 37.6116" stroke="#732D72" stroke-width="1.94872"/>
<path d="M-4.7304 107.811C-6.51634 103.277 -7.64972 97.1065 -7.99316 94.5879C-7.32157 97.0152 1.38813 105.044 5.65903 108.755C10.0381 114.251 29.0997 121.291 34.0797 123.18C39.0598 125.069 46.9592 129.362 48.7623 130.565C50.5655 131.767 43.5247 132.711 24.4631 132.454C5.40144 132.196 -2.49796 113.478 -4.7304 107.811Z" stroke="#732D72" stroke-width="1.94872"/>
<path d="M53.9319 139.984C54.4529 137.171 51.0233 135.686 49.2434 135.295C47.6372 134.905 42.4972 134.358 34.7873 135.295C25.1499 136.467 15.6426 133.733 7.30756 130.346C-1.02751 126.96 -7.40902 112.374 -8.32069 101.304C-9.05002 92.4479 -15.7441 81.6384 -19 77.3406C-18.045 77.167 -15.3534 78.1741 -12.2278 83.5919C-8.32073 90.3642 8.47965 98.569 11.3448 99.3504C14.21 100.132 23.587 108.206 32.443 108.076C41.299 107.946 38.1733 107.295 34.7873 101.304C31.4012 95.3131 -5.19502 92.0572 -7.40902 70.3079C-9.62303 48.5586 14.8613 31.107 20.7219 27.7209C26.5825 24.3348 27.2336 25.2464 26.0615 30.1954C24.8894 35.1443 25.9313 36.4467 34.7873 49.9912C43.6433 63.5357 45.5968 77.3406 45.4666 83.5919C45.3363 89.8432 49.5039 97.2666 54.4528 96.8759C59.4018 96.4852 53.0202 76.1685 51.5876 68.6148C50.155 61.0612 36.3501 41.5259 33.6152 28.7628C30.8802 15.9997 57.1878 14.0462 63.8298 13.2648C70.4718 12.4834 82.9744 1.67383 80.2395 5.71112C77.5045 9.74842 79.5883 15.0881 77.6348 23.8139C75.6812 32.5396 81.1511 38.0095 82.9744 54.0285C84.7977 70.0475 85.5791 67.052 86.4908 68.6148C87.4024 70.1777 95.3468 49.9912 88.4443 35.0141C81.5418 20.037 84.6675 10.9206 85.5791 8.57623C86.4908 6.23192 94.1747 -2.62394 106.156 0.762181C118.138 4.1483 132.464 1.2831 127.645 4.01804C122.826 6.75299 120.482 9.22746 120.743 15.0881C121.003 20.9486 118.789 31.628 118.268 38.0095C117.747 44.391 118.659 54.5494 122.566 57.9355C126.473 61.3216 127.775 43.6096 125.04 36.9676C122.306 30.3256 123.347 26.0278 123.478 16.2601C123.608 6.49238 130.25 3.62731 140.278 4.79943C150.306 5.97155 146.529 9.74835 149.785 8.57623C153.041 7.40412 159.032 10.7902 157.339 10.5297C155.646 10.2693 151.739 12.353 148.222 16.2601C144.706 20.1672 146.529 22.7719 144.185 29.9348C141.841 37.0978 144.446 43.87 146.529 45.8235C148.613 47.7771 150.306 43.87 152.781 39.1815C155.255 34.4931 157.209 16.9113 163.851 14.0461C170.493 11.1809 190.028 22.9021 191.591 24.3347C193.154 25.7673 207.48 22.1207 203.833 24.3347C200.186 26.5487 196.8 39.0513 196.149 43.87C195.498 48.6887 199.796 58.1959 202.01 63.0146C204.224 67.8333 199.796 69.9171 192.893 70.0473C185.991 70.1775 169.451 63.6658 166.065 63.0146C162.679 62.3634 155.906 60.1494 152.781 69.1357C149.655 78.1219 183.386 79.294 189.116 78.2522C194.847 77.2103 201.228 76.5591 199.796 80.2057C198.363 83.8523 194.326 100.392 193.805 103.518C193.284 106.643 192.242 104.039 179.349 103.518C166.455 102.997 154.604 94.2711 142.492 87.3686C130.38 80.4662 131.813 86.1965 132.203 90.4943C132.594 94.7921 140.278 101.174 150.957 102.085C161.637 102.997 171.925 107.555 177.525 108.988C183.125 110.42 191.981 108.337 191.591 110.42C191.2 112.504 186.251 119.797 183.386 123.444C180.521 127.09 179.218 135.295 174.79 140.765C170.362 146.235 147.441 131.518 145.097 129.435C142.752 127.351 130.38 120.839 126.603 118.495C122.826 116.151 117.747 115.369 117.747 119.797C117.747 124.225 128.687 127.351 134.417 129.435C140.148 131.518 156.557 141.677 161.767 143.761C166.976 145.844 175.181 145.844 175.702 146.886C176.223 147.928 170.493 153.528 169.321 157.826C168.148 162.124 152.39 178.664 149.264 180.617C146.139 182.571 125.822 163.296 122.957 159.519C120.092 155.742 112.147 141.677 104.984 137.119C97.8213 132.56 94.8258 136.858 93.9142 141.677C93.0025 146.495 102.9 158.086 110.454 169.156C118.008 180.226 132.334 178.794 136.11 178.664C139.887 178.533 135.85 179.836 132.334 188.431C128.817 197.027 113.45 200.543 105.896 200.543C98.3422 200.543 87.7931 198.72 83.8861 184.394C79.979 170.068 79.5883 164.989 77.8952 161.082C76.2022 157.175 74.3789 153.528 70.4718 153.789C66.5648 154.049 69.8206 165.901 72.5556 168.375C75.2905 170.849 74.5091 180.226 75.4208 188.431C76.3324 196.636 88.7048 197.938 82.0628 198.72C75.4208 199.501 54.9738 188.952 47.4202 173.975C39.8665 158.998 53.2807 143.5 53.9319 139.984Z" stroke="#732D72" stroke-width="1.94872"/>
<path d="M85.1509 119.835C80.0874 116.343 77.1482 121.29 76.3115 124.2C75.272 126.631 77.7301 129.875 83.1866 132.275C88.643 134.676 91.1529 130.093 90.8255 127.365C90.4982 124.636 91.4803 124.2 85.1509 119.835Z" stroke="#732D72" stroke-width="1.94872"/>
</g>
<defs>
<clipPath id="clip0_323_2165">
<rect width="223.636" height="200" fill="white" transform="translate(-19)"/>
</clipPath>
</defs>
</svg>
