<svg width="254" height="226" viewBox="0 0 254 226" fill="none" xmlns="http://www.w3.org/2000/svg">
<g clip-path="url(#clip0_213_2472)">
<g filter="url(#filter0_d_213_2472)">
<path d="M79.02 86.4793C106.761 119.907 180.549 194.726 253.775 226.581" stroke="#33C1C8" stroke-width="3.48928"/>
</g>
<g filter="url(#filter1_d_213_2472)">
<path d="M118.028 188.398C106.766 192.246 98.2406 190.001 95.3859 188.398C93.8718 187.921 94.3581 189.155 108.416 197.904C125.988 208.841 166.244 201.694 178.284 199.935C187.916 198.528 199.794 199.349 204.529 199.935C205.908 199.409 202.804 196.079 179.357 186.967C150.049 175.578 132.106 183.588 118.028 188.398Z" stroke="#33C1C8" stroke-width="1.16309"/>
<path d="M180.612 165.497C181.615 176.576 188.43 185.548 191.712 188.649C192.407 189.341 196.837 188.649 196.638 180.075C196.439 171.5 205.81 170.903 204.529 140.395C203.247 109.888 191.395 103.547 188.118 97.7326C184.841 91.9181 177.652 85.7865 177.969 87.2666C178.286 88.7466 183.572 107.036 181.986 118.77C180.4 130.505 179.357 151.648 180.612 165.497Z" stroke="#33C1C8" stroke-width="1.16309"/>
<path d="M150.345 147.635C161.673 160.597 164.414 167.014 164.369 168.603C165.957 170.509 169.298 173.995 169.951 172.688C170.768 171.054 168.454 161.659 168.181 149.269C167.909 136.878 171.858 117.544 166.411 108.966C160.965 100.388 154.157 84.3214 152.659 76.0157C151.162 67.7101 144.49 58.996 147.349 66.757C150.208 74.518 146.805 94.8055 144.49 101.205C142.175 107.604 136.184 131.432 150.345 147.635Z" stroke="#33C1C8" stroke-width="1.16309"/>
<path d="M91.4534 154.68C82.7435 158.098 75.7885 156.104 73.3997 154.68C66.9224 154.68 100.274 168.186 105.51 167.359C110.747 166.532 155.675 166.67 157.742 165.843C159.809 165.016 135.967 157.023 127.561 152.475C119.154 147.927 102.341 150.408 91.4534 154.68Z" stroke="#33C1C8" stroke-width="1.16309"/>
<path d="M111.455 111.021C118.31 123.108 121.677 130.188 122.504 132.218C124.609 136.728 128.566 136.839 127.561 101.205C126.304 56.6625 105.51 43.3732 102.435 41.1183C99.3599 38.8634 107.622 54.1969 103.788 72.0109C99.9547 89.8249 102.886 95.9133 111.455 111.021Z" stroke="#33C1C8" stroke-width="1.16309"/>
<path d="M42.5663 106.939C27.5402 109.149 19.8553 107.86 17.8911 106.939C13.351 105.97 50.8527 130.51 74.6073 128.3C98.3618 126.09 115.303 130.142 118.065 130.51C120.827 130.878 111.455 125.906 100.572 116.699C89.6882 107.492 61.349 104.177 42.5663 106.939Z" stroke="#33C1C8" stroke-width="1.16309"/>
<path d="M46.6174 74.7143C31.4439 70.7368 17.4613 75.3895 12.3667 78.2131C9.39173 79.6164 22.1263 78.2131 27.8348 81.5276C33.5432 84.8422 45.3284 91.8397 63.0062 93.497C80.684 95.1543 87.8656 99.7579 87.8656 97.7323C87.8656 95.7067 65.5842 79.6862 46.6174 74.7143Z" stroke="#33C1C8" stroke-width="1.16309"/>
<path d="M86.4295 83.5451C89.6442 90.6097 90.1503 95.9468 90.0014 97.7323C90.0014 99.119 96.922 106.939 94.6896 93.497C92.4571 80.0545 95.3593 50.5049 93.7966 41.1183C92.2339 31.7317 82.8576 15.4555 82.1879 20.5901C81.5181 25.7247 81.2949 31.7523 77.4997 50.5049C73.7046 69.2574 82.4111 74.7143 86.4295 83.5451Z" stroke="#33C1C8" stroke-width="1.16309"/>
<path d="M53.166 34.4312C65.6677 49.0761 76.0858 75.8059 79.7322 87.3403C74.1569 83.1316 59.9666 73.5336 47.8082 68.8109C32.6102 62.9075 20.7956 34.4312 17.8911 24.3852C14.9866 14.3392 1.37326 1.16777 0.0337862 0.0515448C-1.30568 -1.06468 37.5389 16.1252 53.166 34.4312Z" stroke="#33C1C8" stroke-width="1.16309"/>
</g>
</g>
<defs>
<filter id="filter0_d_213_2472" x="71.8618" y="79.5497" width="188.424" height="154.447" filterUnits="userSpaceOnUse" color-interpolation-filters="sRGB">
<feFlood flood-opacity="0" result="BackgroundImageFix"/>
<feColorMatrix in="SourceAlpha" type="matrix" values="0 0 0 0 0 0 0 0 0 0 0 0 0 0 0 0 0 0 127 0" result="hardAlpha"/>
<feOffset/>
<feGaussianBlur stdDeviation="2.90774"/>
<feColorMatrix type="matrix" values="0 0 0 0 0 0 0 0 0 0.956897 0 0 0 0 1 0 0 0 0.76 0"/>
<feBlend mode="normal" in2="BackgroundImageFix" result="effect1_dropShadow_213_2472"/>
<feBlend mode="normal" in="SourceGraphic" in2="effect1_dropShadow_213_2472" result="shape"/>
</filter>
<filter id="filter1_d_213_2472" x="-6.39702" y="-6.39708" width="217.599" height="216.649" filterUnits="userSpaceOnUse" color-interpolation-filters="sRGB">
<feFlood flood-opacity="0" result="BackgroundImageFix"/>
<feColorMatrix in="SourceAlpha" type="matrix" values="0 0 0 0 0 0 0 0 0 0 0 0 0 0 0 0 0 0 127 0" result="hardAlpha"/>
<feOffset/>
<feGaussianBlur stdDeviation="2.90774"/>
<feColorMatrix type="matrix" values="0 0 0 0 0 0 0 0 0 0.956897 0 0 0 0 1 0 0 0 0.76 0"/>
<feBlend mode="normal" in2="BackgroundImageFix" result="effect1_dropShadow_213_2472"/>
<feBlend mode="normal" in="SourceGraphic" in2="effect1_dropShadow_213_2472" result="shape"/>
</filter>
<clipPath id="clip0_213_2472">
<rect width="254.075" height="226" fill="white"/>
</clipPath>
</defs>
</svg>
