<svg width="86" height="75" viewBox="0 0 86 75" fill="none" xmlns="http://www.w3.org/2000/svg">
<path opacity="0.3" d="M23.7747 44.8819C28.0796 44.8819 31.504 46.2598 34.0478 49.0157C36.5916 51.5748 37.8635 55.1181 37.8635 59.6457C37.8635 64.5669 36.2981 68.4055 33.1672 71.1614C30.2321 73.7205 26.1229 75 20.8396 75C14.3823 75 9.29466 72.5394 5.5768 67.6181C1.85894 62.5 4.83579e-06 55.315 4.02695e-06 46.063C3.26975e-06 37.4016 1.85893 29.4291 5.57679 22.1457C9.49033 14.8622 15.165 7.57873 22.6007 0.295266C22.7964 0.0984184 23.0899 -2.01858e-06 23.4812 -2.05279e-06C24.0683 -2.10411e-06 24.5575 0.295276 24.9488 0.885831C25.3402 1.47637 25.3402 1.9685 24.9488 2.36221C15.3606 12.2047 10.5666 23.8189 10.5666 37.2047C10.5666 42.7165 11.5449 46.752 13.5017 49.311C15.2628 46.3583 18.6871 44.8819 23.7747 44.8819ZM71.9113 44.8819C76.2162 44.8819 79.6405 46.2598 82.1843 49.0157C84.7281 51.5748 86 55.1181 86 59.6457C86 64.5669 84.4346 68.4055 81.3038 71.1614C78.3686 73.7205 74.2594 75 68.9761 75C62.5188 75 57.4312 72.5394 53.7133 67.6181C49.9955 62.5 48.1365 55.315 48.1365 46.063C48.1365 37.4016 49.9955 29.4291 53.7133 22.1457C57.6269 14.8622 63.3015 7.57873 70.7372 0.295262C70.9329 0.0984142 71.2264 -6.22681e-06 71.6178 -6.26102e-06C72.2048 -6.31234e-06 72.694 0.295271 73.0853 0.885827C73.4767 1.47637 73.4767 1.9685 73.0853 2.3622C63.4972 12.2047 58.7031 23.8189 58.7031 37.2047C58.7031 42.7165 59.6815 46.752 61.6382 49.311C63.3993 46.3583 66.8237 44.8819 71.9113 44.8819Z" fill="#E3C790"/>
</svg>
