<svg width="96" height="96" viewBox="0 0 96 96" fill="none" xmlns="http://www.w3.org/2000/svg">
<circle cx="48" cy="48" r="46.4" stroke="white" stroke-width="3.2"/>
<path fill-rule="evenodd" clip-rule="evenodd" d="M67.2971 28.7029C68.2343 29.6402 68.2343 31.1598 67.2971 32.0971L32.0971 67.2971C31.1598 68.2343 29.6402 68.2343 28.7029 67.2971C27.7657 66.3598 27.7657 64.8402 28.7029 63.9029L63.9029 28.7029C64.8402 27.7657 66.3598 27.7657 67.2971 28.7029Z" fill="white"/>
<path fill-rule="evenodd" clip-rule="evenodd" d="M65.6002 28C66.9257 28 68.0002 29.0745 68.0002 30.4V62.4C68.0002 63.7255 66.9257 64.8 65.6002 64.8C64.2747 64.8 63.2002 63.7255 63.2002 62.4V30.4C63.2002 29.0745 64.2747 28 65.6002 28Z" fill="white"/>
<path fill-rule="evenodd" clip-rule="evenodd" d="M31.2002 30.4C31.2002 29.0745 32.2747 28 33.6002 28L65.6002 28C66.9257 28 68.0002 29.0745 68.0002 30.4C68.0002 31.7255 66.9257 32.8 65.6002 32.8L33.6002 32.8C32.2747 32.8 31.2002 31.7255 31.2002 30.4Z" fill="white"/>
</svg>
