<svg width="96" height="96" viewBox="0 0 96 96" fill="none" xmlns="http://www.w3.org/2000/svg">
<circle cx="48" cy="48" r="46.4" stroke="#FFF4D3" stroke-width="3.2"/>
<path fill-rule="evenodd" clip-rule="evenodd" d="M67.2971 28.7029C68.2343 29.6402 68.2343 31.1598 67.2971 32.0971L32.0971 67.2971C31.1598 68.2343 29.6402 68.2343 28.7029 67.2971C27.7657 66.3598 27.7657 64.8402 28.7029 63.9029L63.9029 28.7029C64.8402 27.7657 66.3598 27.7657 67.2971 28.7029Z" fill="#FFF4D3"/>
<path fill-rule="evenodd" clip-rule="evenodd" d="M65.6 28C66.9254 28 68 29.0745 68 30.4V62.4C68 63.7255 66.9254 64.8 65.6 64.8C64.2745 64.8 63.2 63.7255 63.2 62.4V30.4C63.2 29.0745 64.2745 28 65.6 28Z" fill="#FFF4D3"/>
<path fill-rule="evenodd" clip-rule="evenodd" d="M31.2 30.4C31.2 29.0745 32.2745 28 33.6 28L65.6 28C66.9254 28 68 29.0745 68 30.4C68 31.7255 66.9254 32.8 65.6 32.8L33.6 32.8C32.2745 32.8 31.2 31.7255 31.2 30.4Z" fill="#FFF4D3"/>
</svg>
