<svg width="591" height="591" viewBox="0 0 591 591" fill="none" xmlns="http://www.w3.org/2000/svg">
<circle cx="295.5" cy="295.5" r="208.95" transform="rotate(45 295.5 295.5)" fill="#4CBBC0"/>
<g filter="url(#filter0_d_702_25)">
<circle cx="295.5" cy="295.5" r="189.456" transform="rotate(45 295.5 295.5)" fill="#5EF5FC"/>
</g>
<path d="M393.286 138.948C416.818 153.647 436.733 173.462 451.552 196.919C466.37 220.376 475.709 246.872 478.875 274.437L295.498 295.5L393.286 138.948Z" fill="url(#paint0_linear_702_25)"/>
<path d="M393.286 138.948C416.818 153.647 436.733 173.462 451.552 196.919C466.37 220.376 475.709 246.872 478.875 274.437L295.498 295.5L393.286 138.948Z" fill="#B22C7D"/>
<path d="M400.262 168.446L408.517 159.092L408.637 161.018L405.568 158.309L407.245 156.409L411.659 160.305L402.629 170.536L400.262 168.446Z" fill="white"/>
<path d="M411.559 178.96C410.798 178.141 410.317 177.222 410.116 176.203C409.924 175.175 410.041 174.117 410.468 173.03C410.894 171.942 411.655 170.889 412.75 169.872C413.845 168.855 414.951 168.174 416.067 167.829C417.183 167.484 418.242 167.45 419.243 167.726C420.254 167.993 421.14 168.536 421.901 169.355C422.67 170.184 423.146 171.107 423.329 172.125C423.531 173.144 423.418 174.198 422.992 175.286C422.565 176.373 421.805 177.426 420.71 178.443C419.614 179.46 418.509 180.141 417.393 180.486C416.276 180.831 415.213 180.87 414.202 180.602C413.209 180.336 412.328 179.788 411.559 178.96ZM413.516 177.142C413.879 177.533 414.302 177.769 414.786 177.851C415.279 177.943 415.839 177.849 416.466 177.569C417.101 177.298 417.795 176.813 418.547 176.114C419.299 175.416 419.834 174.76 420.151 174.146C420.477 173.542 420.612 172.991 420.557 172.492C420.511 172.003 420.306 171.563 419.944 171.173C419.59 170.792 419.166 170.555 418.673 170.464C418.189 170.381 417.629 170.476 416.994 170.746C416.367 171.027 415.678 171.516 414.926 172.215C414.173 172.914 413.634 173.565 413.309 174.169C412.992 174.783 412.856 175.334 412.903 175.823C412.958 176.322 413.162 176.761 413.516 177.142Z" fill="white"/>
<path d="M419.707 187.686C419.008 186.814 418.595 185.863 418.468 184.832C418.351 183.793 418.545 182.747 419.049 181.693C419.554 180.639 420.389 179.644 421.555 178.709C422.721 177.774 423.873 177.175 425.011 176.912C426.149 176.649 427.208 176.692 428.187 177.04C429.175 177.38 430.019 177.986 430.719 178.857C431.426 179.74 431.834 180.695 431.943 181.724C432.07 182.755 431.881 183.797 431.377 184.851C430.872 185.905 430.037 186.9 428.871 187.835C427.705 188.769 426.553 189.368 425.415 189.632C424.277 189.895 423.213 189.856 422.224 189.516C421.254 189.178 420.415 188.568 419.707 187.686ZM421.791 186.016C422.124 186.431 422.53 186.698 423.007 186.815C423.492 186.942 424.057 186.889 424.702 186.655C425.356 186.431 426.083 185.998 426.884 185.356C427.685 184.713 428.265 184.098 428.626 183.509C428.995 182.93 429.17 182.39 429.151 181.888C429.14 181.397 428.968 180.944 428.635 180.528C428.31 180.123 427.905 179.856 427.419 179.729C426.942 179.612 426.377 179.665 425.724 179.889C425.079 180.123 424.356 180.561 423.555 181.204C422.754 181.846 422.169 182.456 421.8 183.035C421.439 183.624 421.264 184.164 421.275 184.655C421.294 185.157 421.466 185.61 421.791 186.016Z" fill="white"/>
<path d="M427.015 196.721C426.38 195.801 426.036 194.823 425.983 193.785C425.941 192.741 426.209 191.711 426.788 190.696C427.366 189.68 428.27 188.748 429.5 187.899C430.73 187.05 431.922 186.535 433.077 186.355C434.231 186.174 435.284 186.292 436.235 186.709C437.197 187.119 437.995 187.784 438.63 188.704C439.272 189.634 439.611 190.616 439.646 191.65C439.698 192.688 439.436 193.714 438.857 194.729C438.279 195.744 437.375 196.676 436.145 197.525C434.915 198.374 433.723 198.889 432.568 199.07C431.414 199.251 430.356 199.136 429.394 198.727C428.45 198.32 427.657 197.652 427.015 196.721ZM429.213 195.204C429.516 195.642 429.901 195.937 430.368 196.088C430.843 196.25 431.411 196.237 432.071 196.05C432.738 195.873 433.495 195.493 434.34 194.91C435.185 194.327 435.808 193.755 436.21 193.193C436.619 192.642 436.832 192.116 436.849 191.614C436.874 191.124 436.735 190.659 436.432 190.221C436.137 189.793 435.752 189.498 435.277 189.336C434.81 189.185 434.242 189.198 433.574 189.375C432.914 189.562 432.161 189.947 431.316 190.53C430.472 191.114 429.844 191.681 429.435 192.232C429.033 192.793 428.82 193.32 428.796 193.81C428.778 194.312 428.918 194.776 429.213 195.204Z" fill="white"/>
<path d="M436.349 210.568C435.809 209.589 435.566 208.581 435.618 207.544C435.681 206.5 436.051 205.502 436.729 204.551C437.406 203.599 438.4 202.763 439.709 202.042C441.018 201.321 442.256 200.928 443.422 200.864C444.589 200.801 445.625 201.024 446.529 201.535C447.445 202.039 448.172 202.781 448.711 203.76C449.257 204.751 449.495 205.762 449.425 206.794C449.374 207.832 449.009 208.826 448.331 209.778C447.654 210.73 446.66 211.566 445.351 212.287C444.042 213.008 442.804 213.4 441.637 213.464C440.471 213.528 439.43 213.308 438.514 212.803C437.616 212.304 436.894 211.559 436.349 210.568ZM438.688 209.28C438.945 209.747 439.298 210.079 439.748 210.276C440.204 210.485 440.77 210.529 441.446 210.409C442.128 210.301 442.919 209.999 443.818 209.504C444.718 209.009 445.395 208.502 445.852 207.983C446.314 207.476 446.579 206.974 446.647 206.477C446.721 205.992 446.629 205.515 446.372 205.049C446.121 204.593 445.768 204.261 445.312 204.052C444.862 203.855 444.296 203.811 443.614 203.919C442.938 204.039 442.15 204.347 441.251 204.842C440.352 205.337 439.671 205.838 439.208 206.345C438.752 206.864 438.487 207.366 438.413 207.852C438.346 208.349 438.437 208.825 438.688 209.28Z" fill="white"/>
<path d="M442.153 221.04C441.686 220.025 441.517 219.001 441.644 217.97C441.783 216.934 442.225 215.966 442.969 215.066C443.714 214.166 444.766 213.404 446.124 212.78C447.482 212.156 448.745 211.855 449.913 211.876C451.081 211.897 452.098 212.195 452.963 212.77C453.84 213.34 454.511 214.132 454.978 215.148C455.45 216.175 455.614 217.201 455.469 218.226C455.342 219.257 454.906 220.222 454.161 221.122C453.417 222.022 452.365 222.784 451.007 223.408C449.649 224.032 448.386 224.334 447.218 224.313C446.05 224.291 445.027 223.996 444.15 223.426C443.291 222.863 442.625 222.068 442.153 221.04ZM444.58 219.925C444.802 220.409 445.131 220.766 445.565 220.996C446.005 221.237 446.566 221.322 447.249 221.252C447.937 221.193 448.748 220.95 449.68 220.521C450.613 220.092 451.326 219.636 451.819 219.152C452.317 218.68 452.618 218.199 452.721 217.708C452.83 217.229 452.774 216.747 452.551 216.263C452.334 215.791 452.006 215.434 451.566 215.192C451.131 214.963 450.57 214.878 449.882 214.936C449.199 215.007 448.392 215.256 447.459 215.685C446.526 216.114 445.81 216.564 445.312 217.036C444.819 217.52 444.518 218.001 444.409 218.48C444.306 218.971 444.363 219.453 444.58 219.925Z" fill="white"/>
<path d="M447.166 231.869C446.774 230.822 446.679 229.789 446.88 228.77C447.094 227.746 447.605 226.813 448.413 225.969C449.221 225.126 450.325 224.442 451.725 223.918C453.125 223.394 454.407 223.185 455.57 223.291C456.734 223.397 457.726 223.768 458.547 224.404C459.38 225.036 459.992 225.875 460.384 226.922C460.78 227.981 460.869 229.016 460.651 230.027C460.45 231.046 459.945 231.978 459.137 232.821C458.328 233.665 457.224 234.349 455.825 234.873C454.425 235.396 453.143 235.605 451.98 235.5C450.816 235.394 449.818 235.025 448.985 234.393C448.168 233.769 447.562 232.928 447.166 231.869ZM449.667 230.933C449.854 231.432 450.155 231.811 450.572 232.072C450.993 232.344 451.547 232.47 452.233 232.449C452.923 232.441 453.749 232.256 454.711 231.897C455.672 231.537 456.417 231.133 456.943 230.687C457.474 230.252 457.809 229.794 457.948 229.311C458.091 228.842 458.069 228.357 457.883 227.858C457.701 227.371 457.399 226.991 456.978 226.719C456.561 226.459 456.008 226.333 455.317 226.341C454.631 226.362 453.807 226.552 452.846 226.912C451.884 227.272 451.138 227.669 450.607 228.104C450.08 228.551 449.745 229.009 449.602 229.479C449.463 229.961 449.485 230.446 449.667 230.933Z" fill="white"/>
<path d="M452.092 244.354L460.465 242.012L459.973 242.859L458.834 238.785L461.237 238.113L463.962 247.856L461.559 248.528L460.42 244.454L461.279 244.922L452.906 247.264L452.092 244.354Z" fill="white"/>
<path d="M454.454 251.887L464.705 249.671L466.481 257.883L464.042 258.411L462.761 252.485L463.553 253.012L455.093 254.84L454.454 251.887Z" fill="white"/>
<g clip-path="url(#clip0_702_25)">
<path d="M399.209 205.925L391.382 211.325L383.857 216.518L390.016 225.444L398.179 219.811L405.368 214.851C400.06 212.683 399.05 207.997 399.209 205.925Z" fill="#DD98C2"/>
<path d="M405.269 221.884C401.7 219.637 393.658 219.381 389.927 219.526L381.739 225.175C382.538 226.022 384.264 228.274 384.772 230.507C384.928 231.046 384.89 232.364 383.49 233.33C382.09 234.296 377.986 237.265 376.109 238.629C377.287 241.554 381.16 248.78 386.511 253.61C391.862 258.44 397.282 256.083 399.323 254.301C409.853 246.811 411.606 235.266 411.166 230.43C408.064 228.534 405.942 223.943 405.269 221.884Z" fill="#FBDBEE"/>
<path d="M387.612 249.598C388.834 251.538 392.41 254.742 396.941 252.037" stroke="#DBFDFF" stroke-width="0.922959" stroke-linecap="round"/>
<path d="M401.922 224.541C403.293 224.39 406.203 224.381 406.873 225.551" stroke="#DBFDFF" stroke-width="0.922959" stroke-linecap="round"/>
<path d="M406.874 231.717C407.502 230.489 408.543 227.772 407.687 226.73" stroke="#DBFDFF" stroke-width="0.922959" stroke-linecap="round"/>
<path d="M407.279 226.239L404.796 227.953" stroke="#DBFDFF" stroke-width="0.922959" stroke-linecap="round"/>
<path d="M411.051 214.167C407.181 215.546 405.58 219.807 405.263 221.765C406.865 227.045 409.924 229.753 411.253 230.446C416.301 231.319 420.517 228.241 420.75 227.153C420.982 226.065 417.972 226.147 416.973 224.7C415.975 223.254 417.363 222.408 416.178 220.528C414.993 218.648 411.307 220.231 411.824 217.238C412.238 214.843 411.481 214.193 411.051 214.167Z" fill="#FBDBEE"/>
<path d="M386.81 208.55L366.735 222.401L372.894 231.327L381.958 225.073L392.969 217.476C387.66 215.308 386.651 210.622 386.81 208.55Z" fill="#F1C0DD"/>
<path d="M378.117 224.371L368.733 230.846C368.459 231.035 368.305 231.358 368.351 231.689C368.966 236.141 371.992 238.689 373.867 239.68C374.15 239.83 374.489 239.794 374.752 239.612L384.313 233.015C379.004 230.847 377.958 226.443 378.117 224.371Z" fill="#DD98C2"/>
<path d="M365.159 219.298L360.923 222.221C360.649 222.41 360.495 222.733 360.541 223.063C361.163 227.529 364.287 230.216 366.177 231.228C366.459 231.379 366.798 231.343 367.062 231.161L371.318 228.224C366.009 226.056 365 221.37 365.159 219.298Z" fill="#F1C0DD"/>
<ellipse cx="389.704" cy="213.141" rx="5.42238" ry="2.39147" transform="rotate(55.3944 389.704 213.141)" fill="#A7EAED"/>
<ellipse cx="381.293" cy="228.639" rx="5.3167" ry="2.65835" transform="rotate(55.3944 381.293 228.639)" fill="#A7EAED"/>
<ellipse cx="367.981" cy="223.938" rx="5.42238" ry="2.39147" transform="rotate(55.3944 367.981 223.938)" fill="#A7EAED"/>
<ellipse cx="402.096" cy="210.521" rx="5.42238" ry="2.39147" transform="rotate(55.3944 402.096 210.521)" fill="#A7EAED"/>
<path d="M417.999 229.426C418.597 230.589 419.076 233.167 416.217 234.174C413.357 235.182 411.841 232.237 411.44 230.639C412.691 232.626 415.005 237.286 414.246 240.028" stroke="#DBFDFF" stroke-width="0.922959" stroke-linecap="round"/>
<path d="M399.08 232.669L397.189 235.09C396.375 236.132 396.123 237.508 396.515 238.772L397.424 241.707L395.261 239.76C394.128 238.742 392.519 238.446 391.1 238.996L388.387 240.047L390.35 237.989C391.461 236.826 391.774 235.113 391.149 233.631L390.043 231.009L392.147 232.966C393.298 234.036 394.964 234.342 396.419 233.751L399.08 232.669Z" fill="#B22C7D"/>
<path d="M405.13 221.629C406.056 224.219 408.572 229.398 411.732 230.752" stroke="#DBFDFF" stroke-width="1.06334" stroke-linecap="square"/>
<path d="M407.271 226.227C408.654 227.78 410.251 227.518 412.538 226.743" stroke="#DBFDFF" stroke-width="0.922959" stroke-linecap="round"/>
<path d="M407.376 226.379C406.336 224.572 407.226 223.135 408.763 221.273" stroke="#DBFDFF" stroke-width="0.922959" stroke-linecap="round"/>
</g>
<path d="M478.849 274.448C481.994 302.015 478.885 329.936 469.752 356.135C460.618 382.334 445.578 406.258 425.977 425.895L295.456 295.374L478.849 274.448Z" fill="#FF87D0"/>
<path d="M461.42 307.571L471.924 313.654L471.657 316.174L460.11 319.935L460.393 317.258L470.555 314.257L470.448 315.265L461.143 310.186L461.42 307.571ZM463.522 310.279L465.388 311.161L464.787 316.831L462.776 317.319L463.522 310.279Z" fill="#B22C7D"/>
<path d="M459.959 320.494L468.359 321.923L467.629 326.217C467.45 327.268 467.118 328.058 466.631 328.586C466.156 329.115 465.574 329.322 464.887 329.205C464.2 329.088 463.707 328.715 463.407 328.085C463.116 327.468 463.048 326.701 463.204 325.785L463.723 326.131C463.55 327.151 463.233 327.879 462.773 328.315C462.312 328.761 461.722 328.923 461.004 328.801C460.265 328.675 459.729 328.295 459.398 327.66C459.067 327.025 459 326.13 459.196 324.975L459.959 320.494ZM461.234 323.008L460.886 325.054C460.81 325.501 460.826 325.847 460.935 326.09C461.052 326.346 461.267 326.5 461.579 326.553C461.902 326.608 462.154 326.544 462.335 326.36C462.526 326.179 462.66 325.864 462.736 325.417L463.092 323.324L461.234 323.008ZM464.529 323.569L464.215 325.411C464.143 325.838 464.167 326.169 464.287 326.403C464.406 326.649 464.612 326.796 464.903 326.846C465.205 326.897 465.447 326.826 465.63 326.632C465.811 326.449 465.938 326.143 466.011 325.717L466.324 323.874L464.529 323.569Z" fill="#B22C7D"/>
<path d="M457.89 331.672L464.784 333.212L464.107 333.629L464.856 330.275L466.835 330.717L465.043 338.739L463.064 338.297L463.813 334.943L464.249 335.608L457.355 334.068L457.89 331.672Z" fill="#B22C7D"/>
<path d="M455.342 341.405C455.586 340.53 455.986 339.803 456.543 339.224C457.096 338.655 457.743 338.26 458.485 338.04C459.233 337.832 460.014 337.842 460.828 338.069C461.652 338.299 462.325 338.695 462.848 339.257C463.378 339.833 463.727 340.506 463.896 341.276C464.072 342.06 464.038 342.889 463.794 343.764C463.552 344.628 463.153 345.35 462.597 345.929C462.051 346.512 461.409 346.908 460.67 347.118C459.932 347.329 459.146 347.318 458.312 347.085C457.498 346.858 456.825 346.461 456.292 345.896C455.769 345.334 455.42 344.661 455.244 343.877C455.068 343.093 455.101 342.269 455.342 341.405ZM457.295 341.95C457.184 342.347 457.176 342.728 457.271 343.094C457.366 343.461 457.556 343.782 457.841 344.059C458.135 344.339 458.516 344.544 458.984 344.674C459.462 344.808 459.895 344.83 460.281 344.74C460.668 344.651 460.997 344.474 461.268 344.21C461.539 343.946 461.73 343.615 461.841 343.219C461.952 342.822 461.959 342.441 461.864 342.074C461.769 341.708 461.581 341.381 461.299 341.094C461.015 340.818 460.633 340.613 460.155 340.479C459.687 340.349 459.255 340.327 458.858 340.413C458.469 340.513 458.138 340.694 457.867 340.959C457.596 341.223 457.405 341.553 457.295 341.95Z" fill="#B22C7D"/>
<path d="M452.24 351.303C452.473 350.624 452.827 350.082 453.302 349.675C453.776 349.269 454.368 349.026 455.077 348.946C455.792 348.879 456.619 349.007 457.558 349.33C458.506 349.656 459.239 350.058 459.755 350.537C460.272 351.016 460.592 351.562 460.717 352.174C460.841 352.786 460.781 353.447 460.538 354.156C460.277 354.915 459.869 355.534 459.313 356.013C458.764 356.505 458.12 356.82 457.381 356.956C456.638 357.103 455.847 357.032 455.009 356.744C454.16 356.452 453.488 356.02 452.992 355.448C452.493 354.885 452.179 354.241 452.049 353.515C451.915 352.8 451.979 352.062 452.24 351.303ZM451.091 345.582L462.055 349.352L461.288 351.584L459.64 351.017L457.259 350.148L454.826 349.479L450.288 347.919L451.091 345.582ZM454.296 351.558C454.162 351.947 454.133 352.323 454.21 352.684C454.284 353.056 454.454 353.388 454.722 353.681C454.996 353.987 455.363 354.219 455.822 354.377C456.292 354.539 456.724 354.581 457.118 354.505C457.51 354.438 457.848 354.281 458.135 354.033C458.417 353.796 458.626 353.482 458.759 353.093C458.893 352.703 458.924 352.323 458.85 351.951C458.777 351.58 458.606 351.248 458.339 350.955C458.071 350.662 457.703 350.435 457.233 350.273C456.774 350.115 456.344 350.068 455.942 350.131C455.551 350.197 455.212 350.354 454.926 350.602C454.64 350.85 454.43 351.169 454.296 351.558Z" fill="#B22C7D"/>
<path d="M448.734 360.497C449.083 359.648 449.565 358.961 450.179 358.437C450.803 357.917 451.502 357.593 452.273 357.465C453.041 357.346 453.816 357.447 454.597 357.768C455.388 358.093 456.011 358.565 456.464 359.185C456.923 359.818 457.187 360.537 457.256 361.342C457.335 362.151 457.2 362.98 456.851 363.83C456.511 364.66 456.038 365.311 455.434 365.782C454.839 366.257 454.16 366.508 453.395 366.537L453.17 364.373C453.625 364.32 454.005 364.174 454.309 363.933C454.609 363.703 454.834 363.407 454.982 363.045C455.142 362.654 455.199 362.267 455.151 361.882C455.104 361.497 454.957 361.146 454.711 360.828C454.461 360.52 454.106 360.271 453.647 360.083C453.188 359.894 452.761 359.822 452.366 359.865C451.968 359.919 451.616 360.066 451.312 360.306C451.008 360.546 450.776 360.862 450.616 361.253C450.467 361.614 450.414 361.98 450.456 362.351C450.503 362.736 450.675 363.109 450.972 363.471L449.277 364.847C448.763 364.293 448.456 363.636 448.357 362.877C448.267 362.121 448.393 361.328 448.734 360.497Z" fill="#B22C7D"/>
<path d="M444.388 370.423L449.259 369.58L449.469 371.907L443.138 373.056L444.388 370.423ZM446.976 364.972L454.673 368.626L453.614 370.858L445.916 367.204L446.976 364.972ZM449.147 367.931L450.936 368.781L449.659 371.471L447.87 370.621L449.147 367.931ZM448.237 371.585L449.458 369.604L452.051 374.149L450.924 376.524L448.237 371.585Z" fill="#B22C7D"/>
<path d="M443.021 373.209L450.491 377.309L449.309 379.461L444.866 377.022L447.312 383.099L446.223 385.084L438.753 380.984L439.934 378.832L444.377 381.271L441.923 375.208L443.021 373.209Z" fill="#B22C7D"/>
<path d="M435.492 385.98C436.009 385.158 436.624 384.534 437.339 384.11C438.049 383.695 438.787 383.492 439.555 383.5C440.332 383.514 441.078 383.746 441.793 384.195C442.518 384.65 443.053 385.216 443.4 385.895C443.75 386.589 443.899 387.325 443.847 388.102C443.804 388.886 443.552 389.644 443.092 390.378C442.648 391.084 442.098 391.624 441.44 391.996C440.786 392.383 440.073 392.565 439.302 392.542C438.54 392.525 437.769 392.272 436.991 391.784C436.911 391.733 436.82 391.67 436.718 391.594C436.625 391.523 436.537 391.455 436.453 391.39L440.133 385.528L441.354 386.294L438.364 391.056L438.508 390.024C438.883 390.26 439.257 390.389 439.63 390.411C440.003 390.433 440.349 390.357 440.67 390.185C440.999 390.017 441.276 389.755 441.501 389.397C441.725 389.039 441.844 388.671 441.857 388.293C441.874 387.929 441.786 387.582 441.596 387.25C441.414 386.924 441.131 386.64 440.746 386.399L440.424 386.197C440.031 385.95 439.629 385.816 439.218 385.795C438.81 385.788 438.428 385.891 438.071 386.103C437.716 386.33 437.405 386.657 437.135 387.087C436.894 387.471 436.741 387.843 436.678 388.202C436.609 388.57 436.615 388.948 436.696 389.336L434.789 389.691C434.622 389.124 434.592 388.526 434.701 387.896C434.818 387.272 435.082 386.633 435.492 385.98Z" fill="#B22C7D"/>
<path d="M442.195 298.152L450.705 298.588L450.573 301.166L444.587 304.079L444.64 303.051L450.285 306.782L450.167 309.091L441.655 308.687L441.769 306.456L447.749 306.763L447.476 307.129L442.722 303.952L442.776 302.908L448.004 300.226L448.092 300.69L442.081 300.382L442.195 298.152Z" fill="#B22C7D"/>
<path d="M440.721 315.231C440.844 314.267 441.141 313.443 441.612 312.758C442.081 312.083 442.666 311.589 443.366 311.274C444.077 310.96 444.851 310.856 445.689 310.963C446.538 311.072 447.262 311.361 447.862 311.832C448.471 312.314 448.915 312.919 449.195 313.647C449.485 314.376 449.575 315.169 449.465 316.028C449.36 316.856 449.087 317.577 448.646 318.191C448.215 318.817 447.645 319.282 446.935 319.585C446.236 319.89 445.431 319.984 444.52 319.868C444.426 319.856 444.317 319.836 444.192 319.81C444.078 319.785 443.97 319.76 443.866 319.736L444.743 312.87L446.173 313.053L445.461 318.631L445.157 317.634C445.597 317.69 445.99 317.65 446.338 317.513C446.685 317.377 446.968 317.162 447.186 316.871C447.415 316.581 447.556 316.226 447.609 315.807C447.663 315.388 447.616 315.004 447.469 314.656C447.331 314.319 447.106 314.04 446.794 313.819C446.492 313.599 446.115 313.461 445.665 313.403L445.288 313.355C444.827 313.296 444.406 313.344 444.024 313.497C443.652 313.663 443.348 313.917 443.113 314.259C442.887 314.613 442.741 315.042 442.677 315.545C442.62 315.995 442.638 316.397 442.731 316.749C442.823 317.112 442.987 317.452 443.223 317.77L441.643 318.893C441.252 318.45 440.974 317.919 440.808 317.302C440.653 316.686 440.624 315.996 440.721 315.231Z" fill="#B22C7D"/>
<path d="M440.052 326.503L445.334 327.548L445.876 324.814L444.813 324.555C444.371 324.446 443.952 324.336 443.554 324.225C443.156 324.114 442.801 323.979 442.488 323.82C442.183 323.674 441.933 323.495 441.738 323.284C441.553 323.075 441.447 322.823 441.42 322.527L442.235 320.202C442.176 320.502 442.216 320.763 442.355 320.984C442.504 321.208 442.729 321.403 443.03 321.57C443.341 321.739 443.698 321.891 444.103 322.025C444.517 322.161 444.955 322.285 445.417 322.398L448.286 323.079L446.843 330.366L439.572 328.926L440.052 326.503ZM438.499 319.172L442.291 319.922L440.236 330.301L436.445 329.551L436.891 327.298L438.693 327.655L439.856 321.781L438.054 321.425L438.499 319.172Z" fill="#B22C7D"/>
<path d="M437.981 330.832L446.195 333.099L445.542 335.466L440.656 334.117L444.438 339.466L443.835 341.649L435.621 339.382L436.274 337.015L441.16 338.364L437.374 333.03L437.981 330.832Z" fill="#B22C7D"/>
<path d="M434.321 343.166L440.99 345.495L440.269 345.83L441.402 342.586L443.316 343.254L440.606 351.015L438.692 350.346L439.825 347.101L440.181 347.813L433.511 345.484L434.321 343.166Z" fill="#B22C7D"/>
<path d="M430.16 353.971L431.694 354.614L432.091 354.609L434.838 355.759C435.325 355.963 435.768 355.971 436.167 355.783C436.562 355.605 436.888 355.21 437.145 354.596C437.32 354.177 437.426 353.735 437.461 353.269C437.501 352.816 437.469 352.402 437.363 352.026L439.298 351.875C439.421 352.43 439.438 353.044 439.351 353.717C439.263 354.39 439.089 355.038 438.828 355.662C438.326 356.86 437.654 357.671 436.812 358.097C435.97 358.523 434.95 358.485 433.752 357.983L429.267 356.104L430.16 353.971ZM431.047 351.527C431.304 350.913 431.626 350.43 432.014 350.077C432.412 349.729 432.84 349.513 433.299 349.43C433.757 349.348 434.21 349.4 434.658 349.588C435.126 349.783 435.488 350.067 435.744 350.438C435.997 350.818 436.117 351.298 436.104 351.876C436.1 352.458 435.931 353.149 435.596 353.947L434.721 356.037L433.392 355.48L434.163 353.639C434.387 353.103 434.455 352.697 434.365 352.419C434.271 352.15 434.093 351.961 433.83 351.851C433.538 351.729 433.257 351.743 432.988 351.893C432.725 352.058 432.509 352.34 432.342 352.739C432.183 353.119 432.128 353.496 432.177 353.872C432.235 354.251 432.411 354.582 432.705 354.866L431.506 354.776C431.069 354.398 430.811 353.935 430.731 353.386C430.652 352.838 430.757 352.218 431.047 351.527Z" fill="#B22C7D"/>
<path d="M428.506 357.783L436.121 361.608L435.018 363.802L429.216 360.887L427.673 363.958L433.476 366.873L432.366 369.081L424.752 365.256L428.506 357.783ZM423.587 363.483L425.257 364.322L424.972 364.817L425.861 363.048L427.673 363.958L426.009 367.27L422.556 365.535L423.587 363.483Z" fill="#B22C7D"/>
<path d="M423.427 367.672L430.729 372.065L429.464 374.168L425.121 371.556L427.325 377.724L426.157 379.665L418.855 375.273L420.121 373.169L424.464 375.782L422.252 369.627L423.427 367.672Z" fill="#B22C7D"/>
<path d="M417.699 377.018L424.653 381.944L423.234 383.947L419.098 381.018L420.835 387.333L419.526 389.182L412.572 384.257L413.991 382.253L418.127 385.183L416.381 378.88L417.699 377.018Z" fill="#B22C7D"/>
<g clip-path="url(#clip1_702_25)">
<path d="M383.468 307.783C376.566 315.503 377.865 324.681 379.331 328.371C383.047 329.208 392.275 325.667 397.469 317.597C402.662 309.528 400.723 302.546 399.292 299.895C396.893 299.308 390.37 300.062 383.468 307.783Z" fill="#FBDBEE"/>
<path d="M372.584 337.637C372.27 327.286 379.171 321.098 382.668 319.217C386.051 320.968 390.835 329.618 389.617 339.136C388.398 348.655 382.42 352.751 379.619 353.858C377.405 352.764 372.898 347.988 372.584 337.637Z" fill="#FBDBEE"/>
<path d="M395.481 311.401C385.141 311.98 379.57 319.388 377.997 323.034C380.033 326.253 389.063 330.274 398.441 328.241C407.82 326.207 411.386 319.899 412.248 317.013C410.967 314.901 405.821 310.822 395.481 311.401Z" fill="#F1C0DD"/>
<path d="M383.862 343.273C376.32 336.175 376.824 326.92 377.967 323.117C381.597 321.963 391.096 324.697 396.965 332.289C402.834 339.881 401.504 347.005 400.306 349.768C397.967 350.56 391.403 350.37 383.862 343.273Z" fill="#F1C0DD"/>
<path d="M399.099 321.684C389.855 317.016 381.326 320.646 378.142 323.017C378.295 326.823 384.104 334.82 393.243 337.748C402.381 340.676 408.624 336.996 410.813 334.928C410.76 332.458 408.343 326.353 399.099 321.684Z" fill="#B22C7D"/>
<circle cx="398.062" cy="330.105" r="4.54721" transform="rotate(110.03 398.062 330.105)" fill="#A7EAED"/>
<path fill-rule="evenodd" clip-rule="evenodd" d="M392.513 328.133L393.959 327.488L393.964 327.436C394.02 326.859 394.2 324.994 392.041 321.28C390.052 317.861 387.655 317.11 386.313 317.014C386.316 317.013 386.32 317.012 386.323 317.011L386.288 317.012C385.998 316.993 385.76 317.004 385.586 317.025C385.578 317.026 385.57 317.027 385.562 317.027L385.278 317.033C385.264 317.032 385.251 317.031 385.237 317.03C385.171 317.017 384.956 316.973 384.795 316.915C384.728 316.885 384.667 316.851 384.611 316.814C384.535 316.76 384.472 316.705 384.455 316.689C384.339 316.579 384.266 316.459 384.238 316.357C384.642 314.282 382.727 312.359 380.338 313.669C377.947 314.98 376.468 318.841 375.916 320.281L375.916 320.281C375.84 320.482 375.781 320.635 375.74 320.729C375.473 321.338 375.646 321.957 375.766 322.191C375.466 322.35 375.101 322.665 374.972 322.836C373.62 325.854 372.31 330.299 374.155 332.358C376.46 334.93 378.28 332.549 378.554 332.151C378.749 331.868 379.234 331.823 379.628 331.956C379.744 331.996 379.838 332.046 379.906 332.09C379.954 332.123 379.997 332.159 380.036 332.198C380.079 332.242 380.121 332.289 380.164 332.337C380.489 332.696 380.916 333.168 382.691 333.734C384.302 334.248 387.514 333.249 388.889 332.701C390.911 332.028 392.611 330.319 393.208 329.549L392.513 328.133ZM379.906 332.09C379.991 332.146 380.036 332.191 380.036 332.191C379.522 331.614 378.624 329.838 379.145 327.4C379.735 324.635 380.075 324.435 380.227 324.345C380.243 324.336 380.256 324.328 380.268 324.319C380.368 324.238 380.683 324.051 380.828 323.968C380.744 323.759 380.582 323.291 380.604 323.082C380.632 322.82 381.427 320.293 382.796 318.777C384.166 317.262 385.365 317.166 385.57 317.158C385.719 317.152 386.077 317.069 386.274 317.023C386.288 317.02 386.301 317.017 386.313 317.014C386.304 317.013 386.296 317.013 386.288 317.012L385.562 317.027C385.462 317.038 385.368 317.039 385.278 317.033L385.256 317.034C385.256 317.034 385.249 317.033 385.237 317.03C385.071 317.014 384.923 316.973 384.795 316.915C384.791 316.914 384.788 316.913 384.785 316.912C384.729 316.891 384.667 316.853 384.611 316.814C384.553 316.775 384.501 316.733 384.455 316.689C384.452 316.687 384.45 316.685 384.45 316.685C384.284 316.722 383.829 316.918 383.233 317.437C382.489 318.086 381.075 319.512 380.494 321.318C380.011 322.819 379.944 322.997 379.964 323.164C379.968 323.198 379.976 323.231 379.984 323.275C379.998 323.349 380.018 323.405 380.034 323.451C380.075 323.569 380.093 323.62 379.937 323.724C379.72 323.868 379.505 324.032 379.289 324.623C379.285 324.635 379.28 324.649 379.275 324.662C379.046 325.289 378.421 327.001 378.391 328.205C378.359 329.435 378.465 330.502 378.617 330.936C378.725 331.243 378.818 331.569 378.89 331.823C378.899 331.855 378.908 331.887 378.917 331.917C378.917 331.917 379.136 331.839 379.487 331.916C379.537 331.927 379.584 331.941 379.628 331.956C379.729 331.989 379.823 332.035 379.906 332.09ZM383.133 325.832C383.249 325.327 383.048 324.873 382.933 324.71C383.059 324.666 383.475 324.427 383.664 324.256C383.795 324.138 384.007 323.629 384.274 322.991C384.393 322.706 384.523 322.395 384.661 322.082C385.108 321.068 385.851 320.48 386.425 320.569C386.884 320.64 387.5 321.203 387.75 321.475C387.38 321.349 386.607 321.081 386.475 321.01C386.31 320.922 385.978 321.273 385.621 321.671C385.377 321.943 384.914 323.011 384.595 323.747C384.447 324.088 384.33 324.357 384.28 324.443C384.17 324.633 384.021 324.739 383.939 324.796C383.904 324.821 383.881 324.837 383.879 324.848C383.877 324.857 383.879 324.866 383.883 324.885C383.893 324.935 383.919 325.054 383.922 325.425C383.925 325.707 383.734 326.29 383.553 326.841L383.553 326.841C383.406 327.289 383.266 327.717 383.243 327.944C383.201 328.348 383.124 329.174 383.091 329.536L384.939 330.21C384.588 330.416 383.503 330.354 383.034 330.173C382.565 329.991 382.481 329.409 382.434 328.809C382.402 328.386 382.691 327.39 382.915 326.62C383.008 326.299 383.09 326.017 383.133 325.832Z" fill="#A7EAED"/>
<path d="M390.556 327.369L389.498 327.32C389.043 327.299 388.605 327.503 388.328 327.865L387.684 328.707L387.8 327.71C387.861 327.188 387.623 326.677 387.185 326.387L386.348 325.834L387.318 325.976C387.867 326.056 388.411 325.802 388.703 325.33L389.219 324.496L389.089 325.478C389.018 326.016 389.264 326.545 389.721 326.836L390.556 327.369Z" fill="#B22C7D"/>
</g>
<path d="M426.02 426.019C406.401 445.638 382.611 460.582 356.42 469.74C330.229 478.897 302.311 482.032 274.741 478.911L295.5 295.5L426.02 426.019Z" fill="#F5ABD8"/>
<path d="M386.416 432.698L393.232 443.147L391.344 442.75L394.773 440.514L396.157 442.636L391.226 445.852L383.771 434.423L386.416 432.698Z" fill="#B22C7D"/>
<path d="M376.646 438.42C377.617 437.866 378.621 437.608 379.659 437.644C380.704 437.692 381.707 438.047 382.669 438.711C383.63 439.374 384.481 440.355 385.222 441.653C385.962 442.952 386.372 444.184 386.454 445.349C386.535 446.515 386.327 447.553 385.829 448.465C385.338 449.388 384.607 450.127 383.636 450.68C382.654 451.24 381.647 451.493 380.613 451.439C379.575 451.403 378.575 451.053 377.614 450.389C376.652 449.726 375.801 448.745 375.061 447.447C374.32 446.148 373.91 444.916 373.829 443.751C373.748 442.585 373.953 441.541 374.443 440.618C374.929 439.712 375.664 438.98 376.646 438.42ZM377.969 440.74C377.506 441.004 377.179 441.362 376.988 441.815C376.786 442.274 376.75 442.841 376.88 443.514C376.999 444.195 377.313 444.981 377.821 445.873C378.33 446.765 378.846 447.435 379.371 447.884C379.885 448.339 380.391 448.596 380.889 448.656C381.376 448.723 381.851 448.624 382.314 448.36C382.765 448.103 383.092 447.744 383.294 447.285C383.485 446.832 383.521 446.266 383.402 445.586C383.272 444.912 382.953 444.129 382.444 443.237C381.936 442.345 381.425 441.671 380.911 441.216C380.386 440.768 379.88 440.51 379.393 440.444C378.895 440.384 378.42 440.482 377.969 440.74Z" fill="#B22C7D"/>
<path d="M362.185 445.712C363.206 445.257 364.231 445.098 365.26 445.236C366.295 445.386 367.259 445.838 368.151 446.593C369.043 447.347 369.793 448.407 370.402 449.772C371.012 451.136 371.3 452.403 371.266 453.571C371.232 454.738 370.923 455.752 370.339 456.61C369.76 457.481 368.96 458.144 367.939 458.6C366.907 459.061 365.879 459.213 364.856 459.058C363.827 458.92 362.866 458.474 361.974 457.719C361.082 456.964 360.332 455.905 359.722 454.54C359.113 453.175 358.825 451.909 358.859 450.741C358.892 449.574 359.199 448.554 359.778 447.684C360.351 446.83 361.153 446.173 362.185 445.712ZM363.274 448.151C362.788 448.368 362.427 448.693 362.193 449.125C361.947 449.562 361.856 450.122 361.919 450.805C361.97 451.494 362.205 452.307 362.624 453.245C363.042 454.182 363.491 454.9 363.969 455.398C364.436 455.901 364.914 456.207 365.404 456.316C365.882 456.43 366.364 456.378 366.851 456.161C367.325 455.949 367.686 455.625 367.932 455.187C368.166 454.755 368.257 454.195 368.206 453.506C368.143 452.823 367.902 452.013 367.483 451.075C367.065 450.138 366.622 449.417 366.155 448.914C365.677 448.416 365.199 448.11 364.721 447.996C364.231 447.887 363.749 447.939 363.274 448.151Z" fill="#B22C7D"/>
<path d="M351.084 450.164C352.135 449.784 353.169 449.701 354.186 449.913C355.207 450.138 356.135 450.659 356.969 451.477C357.804 452.294 358.476 453.406 358.984 454.811C359.492 456.217 359.687 457.5 359.569 458.663C359.45 459.825 359.068 460.813 358.423 461.627C357.782 462.453 356.936 463.056 355.885 463.436C354.822 463.821 353.786 463.899 352.777 463.669C351.76 463.457 350.834 462.942 350 462.124C349.165 461.307 348.493 460.195 347.985 458.79C347.477 457.384 347.282 456.1 347.4 454.938C347.519 453.776 347.899 452.782 348.54 451.956C349.173 451.146 350.021 450.549 351.084 450.164ZM351.993 452.676C351.492 452.857 351.109 453.155 350.844 453.568C350.566 453.986 350.434 454.539 350.448 455.225C350.449 455.915 350.624 456.743 350.973 457.709C351.322 458.674 351.717 459.423 352.158 459.954C352.587 460.49 353.042 460.83 353.522 460.974C353.991 461.123 354.475 461.106 354.976 460.925C355.465 460.748 355.848 460.451 356.126 460.033C356.39 459.619 356.522 459.067 356.521 458.376C356.508 457.69 356.327 456.864 355.978 455.899C355.628 454.933 355.239 454.182 354.811 453.647C354.37 453.115 353.915 452.775 353.447 452.627C352.966 452.483 352.481 452.499 351.993 452.676Z" fill="#B22C7D"/>
<path d="M339.519 453.844C340.595 453.543 341.632 453.536 342.631 453.823C343.632 454.123 344.519 454.711 345.291 455.588C346.063 456.465 346.651 457.623 347.054 459.062C347.457 460.501 347.556 461.796 347.352 462.947C347.148 464.097 346.694 465.054 345.99 465.818C345.29 466.595 344.402 467.133 343.326 467.435C342.237 467.74 341.198 467.741 340.209 467.437C339.211 467.15 338.325 466.568 337.553 465.691C336.781 464.814 336.194 463.656 335.791 462.217C335.388 460.778 335.288 459.483 335.492 458.333C335.697 457.182 336.149 456.219 336.849 455.443C337.54 454.682 338.43 454.149 339.519 453.844ZM340.239 456.416C339.726 456.56 339.322 456.828 339.027 457.221C338.72 457.618 338.548 458.159 338.51 458.844C338.46 459.533 338.574 460.371 338.851 461.36C339.128 462.349 339.466 463.124 339.867 463.687C340.255 464.253 340.683 464.626 341.152 464.805C341.608 464.987 342.092 465.007 342.605 464.863C343.106 464.723 343.51 464.455 343.817 464.058C344.112 463.665 344.284 463.124 344.334 462.435C344.372 461.75 344.252 460.913 343.975 459.925C343.698 458.936 343.366 458.159 342.978 457.592C342.577 457.03 342.149 456.657 341.693 456.475C341.224 456.295 340.74 456.276 340.239 456.416Z" fill="#B22C7D"/>
<path d="M326.544 457.134L328.111 465.686L327.313 465.119L331.474 464.357L331.924 466.811L321.972 468.634L321.522 466.18L325.683 465.418L325.139 466.231L323.572 457.679L326.544 457.134Z" fill="#B22C7D"/>
<path d="M318.885 458.45L320.155 468.86L311.815 469.878L311.513 467.401L317.531 466.667L316.934 467.407L315.886 458.816L318.885 458.45Z" fill="#B22C7D"/>
<path d="M346.791 382.141L353.522 405.398L316.656 416.068L309.925 392.81L346.791 382.141Z" fill="#FFF5FB"/>
<path d="M344.841 404.013C344.545 401.553 346.786 399.207 347.943 398.342L345.769 390.831C342.982 391.008 340.889 388.981 340.191 387.945L319.063 394.06C318.997 396.717 316.909 399.026 315.874 399.848L317.966 407.079C320.357 406.857 322.624 409.068 323.459 410.202L344.841 404.013Z" stroke="#B22C7D" stroke-width="0.734852" stroke-linecap="square"/>
<path d="M323.153 429L353.515 405.391L316.658 416.058L313.709 405.867L308.09 410.024L323.153 429Z" fill="#A7EAED"/>
<path fill-rule="evenodd" clip-rule="evenodd" d="M327.186 421.561L326.968 421.42C326.443 421.079 325.499 420.616 324.403 420.361C323.307 420.105 322.097 420.064 321.013 420.52L320.754 420.629L317.057 415.94L317.754 415.739L320.991 419.741C322.194 419.315 323.468 419.388 324.57 419.645C325.617 419.889 326.537 420.307 327.145 420.665L343.011 408.432L344.681 407.949L327.186 421.561Z" fill="#B22C7D"/>
<path d="M332.922 401.795L333.045 403.728L331.887 401.981C331.288 401.078 330.285 400.525 329.201 400.501L327.094 400.456L328.814 399.48C329.9 398.864 330.547 397.69 330.488 396.444L330.398 394.549L331.262 396.18C331.878 397.345 333.127 398.033 334.442 397.932L336.266 397.791L334.64 398.678C333.51 399.295 332.84 400.51 332.922 401.795Z" fill="#B22C7D" stroke="#B22C7D" stroke-width="0.1867"/>
<path fill-rule="evenodd" clip-rule="evenodd" d="M358.855 411.068L358.896 411.209C358.129 411.431 356.842 412.633 357.489 414.869L357.348 414.909C357.231 414.508 356.884 413.789 356.347 413.236C355.811 412.684 355.099 412.308 354.246 412.555L354.205 412.414C354.572 412.308 355.086 411.995 355.424 411.417C355.76 410.842 355.925 409.995 355.583 408.812L355.724 408.771C355.843 409.181 356.155 409.897 356.675 410.439C357.193 410.979 357.911 411.341 358.855 411.068ZM355.89 409.569C355.988 410.386 355.827 411.019 355.551 411.491C355.327 411.876 355.028 412.151 354.738 412.331C355.427 412.317 356.007 412.674 356.453 413.133C356.764 413.454 357.013 413.828 357.194 414.169C357.017 412.699 357.697 411.743 358.361 411.304C357.608 411.351 357.013 411.003 356.569 410.541C356.282 410.242 356.057 409.894 355.89 409.569Z" fill="#C5FCFF" stroke="#C5FCFF" stroke-width="0.1867" stroke-linecap="round"/>
<path fill-rule="evenodd" clip-rule="evenodd" d="M308.719 404.021L308.747 404.118C308.225 404.269 307.349 405.086 307.789 406.607L307.693 406.635C307.614 406.362 307.378 405.873 307.012 405.496C306.648 405.121 306.164 404.865 305.583 405.033L305.555 404.937C305.805 404.865 306.155 404.652 306.384 404.259C306.613 403.867 306.725 403.291 306.492 402.486L306.589 402.458C306.669 402.737 306.882 403.225 307.236 403.594C307.588 403.961 308.077 404.207 308.719 404.021ZM306.702 403.001C306.768 403.558 306.659 403.988 306.471 404.309C306.318 404.571 306.115 404.758 305.918 404.881C306.387 404.871 306.781 405.114 307.084 405.427C307.296 405.645 307.466 405.899 307.589 406.131C307.468 405.131 307.931 404.481 308.383 404.182C307.871 404.214 307.466 403.978 307.164 403.663C306.968 403.459 306.815 403.222 306.702 403.001Z" fill="white" stroke="white" stroke-width="0.1867" stroke-linecap="round"/>
<path fill-rule="evenodd" clip-rule="evenodd" d="M355.779 381.719L355.807 381.815C355.285 381.966 354.41 382.783 354.85 384.305L354.754 384.332C354.675 384.059 354.438 383.57 354.073 383.194C353.708 382.818 353.224 382.562 352.643 382.73L352.615 382.634C352.865 382.562 353.215 382.349 353.445 381.956C353.674 381.565 353.786 380.989 353.553 380.183L353.649 380.155C353.73 380.434 353.942 380.922 354.296 381.291C354.649 381.658 355.137 381.904 355.779 381.719ZM353.762 380.698C353.829 381.255 353.719 381.685 353.531 382.007C353.379 382.268 353.175 382.455 352.978 382.578C353.447 382.568 353.842 382.811 354.145 383.124C354.357 383.342 354.526 383.596 354.649 383.828C354.529 382.828 354.992 382.178 355.443 381.879C354.931 381.911 354.526 381.675 354.224 381.36C354.029 381.157 353.875 380.919 353.762 380.698Z" fill="white" stroke="white" stroke-width="0.1867" stroke-linecap="round"/>
<g filter="url(#filter1_f_702_25)">
<circle cx="295.5" cy="296.362" r="8.52857" transform="rotate(45 295.5 296.362)" fill="#E9A6FF"/>
</g>
<path d="M139.081 393.499C124.35 369.987 115.109 343.457 112.045 315.881C108.982 288.304 112.175 260.393 121.386 234.221L295.5 295.5L139.081 393.499Z" fill="#F5ABD8"/>
<path d="M162.858 304.724C162.815 303.288 163.557 300.503 166.87 300.854C170.183 301.206 169.941 304.821 169.584 306.596C169.281 304.033 169.542 298.34 171.59 295.977" stroke="#DBFDFF" stroke-width="0.925329" stroke-linecap="round"/>
<path d="M171.926 318.219C174.405 322.134 182.264 326.187 186.034 327.806C188.093 328.616 193.709 330.111 199.699 329.614C205.689 329.116 208.084 323.457 208.532 320.689C208.771 318.835 208.92 318.781 208.767 315.38C208.614 311.979 208.551 302.923 205.523 295.603C202.495 288.283 196.005 288.061 193.138 288.865C179.152 291.322 171.96 301.949 170.112 306.954C172.295 310.301 172.231 315.859 171.926 318.219Z" fill="#FBDBEE" stroke="#FBDBEE" stroke-width="0.925329"/>
<path d="M202.536 299.064C202.241 296.562 200.206 291.693 194.432 292.237" stroke="#DBFDFF" stroke-width="0.925329" stroke-linecap="round"/>
<path d="M176.502 317.164C175.07 316.666 172.179 315.301 172.068 313.823" stroke="#DBFDFF" stroke-width="0.925329" stroke-linecap="round"/>
<path d="M174.979 307.705C173.776 308.627 171.459 310.831 171.817 312.269" stroke="#DBFDFF" stroke-width="0.925329" stroke-linecap="round"/>
<path d="M171.989 312.949L175.262 312.422" stroke="#DBFDFF" stroke-width="0.925329" stroke-linecap="round"/>
<path d="M162.545 323.145C167.035 323.605 170.637 320.133 171.876 318.34C172.78 312.344 171.025 308.213 170.034 306.898C165.437 303.647 159.801 304.709 159.056 305.679C158.311 306.648 161.337 307.989 161.644 309.896C161.951 311.803 160.175 311.986 160.462 314.411C160.75 316.837 165.155 317.007 163.228 319.732C161.686 321.913 162.13 322.916 162.545 323.145Z" fill="#FBDBEE" stroke="#FBDBEE" stroke-width="0.925329"/>
<path d="M183.162 310.442L186.181 308.934C187.481 308.284 188.381 307.038 188.59 305.599L189.073 302.257L190.3 305.21C190.943 306.756 192.399 307.809 194.068 307.934L197.256 308.173L194.336 309.287C192.685 309.917 191.565 311.468 191.485 313.234L191.344 316.358L190.18 313.422C189.544 311.817 188.036 310.726 186.312 310.626L183.162 310.442Z" fill="#B22C7D"/>
<path d="M171.944 318.539C172.249 315.531 172.199 309.204 169.703 306.368" stroke="#DBFDFF" stroke-width="1.06607" stroke-linecap="square"/>
<path d="M171.959 312.764C172.137 315.048 170.575 316.053 168.171 317.175" stroke="#DBFDFF" stroke-width="0.925329" stroke-linecap="round"/>
<path d="M171.992 312.964C171.353 310.77 169.645 310.276 167.01 309.965" stroke="#DBFDFF" stroke-width="0.925329" stroke-linecap="round"/>
<path d="M141.572 353.094C141.902 353.983 142.114 354.91 142.209 355.873C142.286 356.828 142.221 357.698 142.013 358.482L139.312 358.154C139.485 357.535 139.557 356.871 139.529 356.16C139.496 355.438 139.358 354.748 139.114 354.09C138.838 353.346 138.475 352.816 138.024 352.498C137.573 352.18 137.086 352.118 136.562 352.313C136.233 352.435 135.972 352.629 135.78 352.894C135.587 353.16 135.505 353.537 135.534 354.025C135.558 354.501 135.715 355.129 136.005 355.909L137.219 359.18L129.774 361.195L126.878 353.392L129.253 352.51L131.757 359.253L129.834 358.22L135.139 356.771L134.357 358.808L133.353 356.103C132.882 354.836 132.682 353.753 132.75 352.855C132.802 351.948 133.06 351.208 133.526 350.633C133.992 350.058 134.603 349.63 135.358 349.35C136.113 349.069 136.884 348.998 137.67 349.136C138.444 349.279 139.179 349.671 139.875 350.314C140.554 350.949 141.12 351.876 141.572 353.094Z" fill="#B22C7D"/>
<path d="M137.733 341.549C138.049 342.621 138.069 343.658 137.795 344.66C137.508 345.665 136.932 346.56 136.065 347.343C135.198 348.126 134.048 348.729 132.614 349.151C131.18 349.572 129.887 349.689 128.734 349.499C127.581 349.31 126.618 348.869 125.845 348.175C125.059 347.485 124.509 346.604 124.193 345.532C123.874 344.447 123.86 343.408 124.15 342.415C124.425 341.413 124.995 340.521 125.862 339.737C126.729 338.954 127.879 338.351 129.313 337.93C130.747 337.508 132.04 337.392 133.193 337.581C134.346 337.77 135.315 338.21 136.101 338.9C136.87 339.581 137.414 340.464 137.733 341.549ZM135.171 342.302C135.021 341.791 134.747 341.391 134.351 341.101C133.95 340.799 133.407 340.634 132.721 340.605C132.032 340.564 131.195 340.688 130.21 340.978C129.225 341.268 128.454 341.617 127.896 342.024C127.335 342.42 126.968 342.853 126.795 343.324C126.618 343.782 126.605 344.267 126.756 344.778C126.902 345.277 127.176 345.677 127.576 345.979C127.973 346.269 128.516 346.434 129.206 346.475C129.891 346.504 130.727 346.373 131.712 346.084C132.697 345.794 133.47 345.451 134.031 345.056C134.588 344.648 134.955 344.215 135.132 343.757C135.305 343.286 135.318 342.801 135.171 342.302Z" fill="#B22C7D"/>
<path d="M133.956 325.74C134.165 326.838 134.083 327.872 133.712 328.842C133.328 329.814 132.666 330.648 131.727 331.342C130.787 332.037 129.583 332.523 128.115 332.802C126.647 333.081 125.348 333.07 124.22 332.769C123.091 332.467 122.176 331.934 121.475 331.167C120.761 330.404 120.299 329.473 120.091 328.375C119.88 327.264 119.967 326.229 120.354 325.269C120.725 324.299 121.38 323.466 122.32 322.772C123.259 322.078 124.463 321.591 125.932 321.312C127.4 321.033 128.698 321.044 129.827 321.345C130.956 321.647 131.877 322.179 132.591 322.943C133.29 323.697 133.745 324.629 133.956 325.74ZM131.332 326.238C131.233 325.715 131 325.289 130.633 324.962C130.265 324.622 129.74 324.404 129.061 324.309C128.379 324.2 127.533 324.242 126.525 324.433C125.516 324.625 124.714 324.896 124.12 325.248C123.523 325.586 123.115 325.981 122.896 326.433C122.676 326.871 122.615 327.353 122.714 327.876C122.811 328.387 123.044 328.812 123.413 329.152C123.78 329.479 124.304 329.697 124.986 329.806C125.666 329.901 126.51 329.853 127.518 329.662C128.527 329.47 129.33 329.205 129.927 328.867C130.522 328.516 130.929 328.121 131.15 327.682C131.369 327.23 131.429 326.749 131.332 326.238Z" fill="#B22C7D"/>
<path d="M132.189 313.944C132.317 315.055 132.161 316.08 131.72 317.021C131.266 317.963 130.546 318.746 129.558 319.37C128.57 319.994 127.334 320.392 125.85 320.563C124.365 320.735 123.071 320.629 121.967 320.246C120.863 319.863 119.989 319.264 119.346 318.449C118.689 317.635 118.297 316.673 118.169 315.563C118.039 314.44 118.202 313.414 118.657 312.485C119.098 311.544 119.812 310.762 120.8 310.138C121.787 309.513 123.024 309.116 124.508 308.944C125.993 308.773 127.287 308.878 128.391 309.261C129.495 309.644 130.375 310.242 131.031 311.056C131.674 311.858 132.059 312.821 132.189 313.944ZM129.536 314.251C129.475 313.721 129.274 313.28 128.932 312.927C128.589 312.561 128.082 312.306 127.411 312.161C126.739 312.003 125.892 311.983 124.873 312.101C123.853 312.218 123.033 312.431 122.415 312.738C121.795 313.032 121.359 313.396 121.108 313.83C120.856 314.252 120.761 314.727 120.822 315.257C120.881 315.773 121.083 316.214 121.426 316.58C121.767 316.933 122.274 317.189 122.947 317.347C123.618 317.492 124.463 317.505 125.483 317.387C126.503 317.27 127.323 317.064 127.943 316.77C128.562 316.463 128.997 316.099 129.249 315.677C129.5 315.243 129.596 314.767 129.536 314.251Z" fill="#B22C7D"/>
<path d="M131.274 301.871C131.32 302.988 131.088 303.999 130.579 304.904C130.057 305.81 129.281 306.538 128.25 307.087C127.218 307.637 125.956 307.942 124.463 308.004C122.97 308.065 121.687 307.864 120.614 307.4C119.542 306.937 118.715 306.275 118.133 305.415C117.539 304.554 117.218 303.566 117.173 302.449C117.126 301.32 117.364 300.308 117.887 299.415C118.396 298.51 119.166 297.783 120.197 297.233C121.228 296.684 122.491 296.378 123.984 296.317C125.477 296.256 126.76 296.457 127.833 296.92C128.905 297.383 129.739 298.045 130.333 298.905C130.914 299.753 131.228 300.741 131.274 301.871ZM128.606 301.981C128.584 301.448 128.416 300.993 128.101 300.616C127.786 300.226 127.299 299.934 126.641 299.739C125.982 299.532 125.14 299.45 124.114 299.492C123.088 299.534 122.256 299.685 121.616 299.945C120.976 300.193 120.514 300.524 120.232 300.939C119.95 301.34 119.819 301.808 119.841 302.34C119.862 302.859 120.031 303.314 120.346 303.704C120.66 304.082 121.147 304.374 121.806 304.581C122.464 304.775 123.306 304.851 124.332 304.809C125.358 304.767 126.191 304.622 126.831 304.375C127.471 304.115 127.932 303.784 128.215 303.382C128.497 302.967 128.627 302.5 128.606 301.981Z" fill="#B22C7D"/>
<path d="M131.06 288.489L122.377 288.047L123.113 287.401L122.898 291.626L120.406 291.499L120.921 281.395L123.413 281.522L123.197 285.746L122.531 285.029L131.214 285.472L131.06 288.489Z" fill="#B22C7D"/>
<path d="M131.542 280.75L121.119 279.591L122.047 271.241L124.527 271.516L123.857 277.542L123.274 276.791L131.876 277.747L131.542 280.75Z" fill="#B22C7D"/>
<path d="M121.495 234.449C130.706 208.277 145.7 184.518 165.359 164.94C185.019 145.362 208.84 130.467 235.05 121.364L295.608 295.73L121.495 234.449Z" fill="#FF87D0"/>
<path d="M146.664 223.817C146.297 224.59 145.831 225.251 145.266 225.801C144.696 226.337 144.061 226.737 143.363 227.002C142.665 227.266 141.935 227.387 141.174 227.365C140.418 227.333 139.663 227.138 138.909 226.78C138.156 226.422 137.528 225.96 137.025 225.394C136.527 224.819 136.16 224.177 135.923 223.468C135.691 222.75 135.608 222.003 135.672 221.228C135.727 220.447 135.941 219.666 136.312 218.884C136.724 218.016 137.248 217.306 137.884 216.755C138.515 216.189 139.235 215.806 140.043 215.606L140.71 217.746C140.156 217.904 139.684 218.147 139.294 218.476C138.894 218.801 138.576 219.211 138.341 219.707C138.119 220.174 137.991 220.64 137.958 221.103C137.925 221.567 137.984 222.01 138.134 222.432C138.284 222.854 138.516 223.239 138.83 223.587C139.149 223.925 139.547 224.207 140.024 224.434C140.501 224.66 140.971 224.79 141.434 224.823C141.902 224.847 142.347 224.783 142.769 224.633C143.192 224.483 143.572 224.249 143.91 223.93C144.248 223.611 144.529 223.218 144.75 222.751C144.986 222.255 145.108 221.752 145.117 221.242C145.116 220.727 144.996 220.203 144.759 219.669L146.839 218.833C147.194 219.587 147.357 220.389 147.327 221.239C147.302 222.081 147.08 222.94 146.664 223.817Z" fill="#B22C7D"/>
<path d="M149.624 217.581L143.417 214.208L144.183 213.993L142.542 217.013L140.76 216.045L144.686 208.822L146.467 209.791L144.826 212.81L144.59 212.051L150.796 215.424L149.624 217.581Z" fill="#B22C7D"/>
<path d="M155.15 208.026L153.731 207.16L153.337 207.105L150.796 205.554C150.345 205.279 149.908 205.204 149.485 205.329C149.068 205.446 148.686 205.788 148.34 206.356C148.103 206.743 147.932 207.165 147.827 207.62C147.719 208.061 147.689 208.476 147.736 208.864L145.801 208.721C145.763 208.154 145.839 207.545 146.026 206.892C146.214 206.24 146.484 205.625 146.836 205.049C147.513 203.94 148.3 203.239 149.197 202.945C150.093 202.651 151.096 202.843 152.205 203.519L156.355 206.053L155.15 208.026ZM153.905 210.31C153.559 210.877 153.167 211.306 152.73 211.596C152.284 211.881 151.829 212.03 151.363 212.042C150.898 212.055 150.458 211.935 150.043 211.682C149.61 211.418 149.295 211.083 149.097 210.678C148.905 210.263 148.859 209.771 148.959 209.202C149.05 208.627 149.321 207.969 149.773 207.23L150.953 205.297L152.183 206.048L151.143 207.752C150.841 208.247 150.713 208.639 150.759 208.928C150.812 209.207 150.959 209.421 151.203 209.569C151.473 209.734 151.753 209.763 152.041 209.654C152.327 209.532 152.582 209.285 152.808 208.916C153.022 208.564 153.134 208.199 153.142 207.821C153.141 207.437 153.017 207.083 152.77 206.759L153.941 207.028C154.316 207.468 154.502 207.964 154.497 208.519C154.493 209.073 154.296 209.67 153.905 210.31Z" fill="#B22C7D"/>
<path d="M157.068 204.945L150.062 200.094L151.46 198.075L155.627 200.961L153.822 194.664L155.111 192.802L162.117 197.652L160.72 199.671L156.553 196.786L158.366 203.07L157.068 204.945ZM151.741 196.055C151.212 196.819 150.651 197.278 150.056 197.431C149.453 197.579 148.81 197.422 148.127 196.962L149.047 195.634C149.348 195.83 149.639 195.909 149.921 195.873C150.203 195.837 150.455 195.659 150.678 195.338C150.894 195.025 150.972 194.726 150.913 194.441C150.86 194.147 150.685 193.898 150.39 193.694L151.328 192.339C152.005 192.808 152.378 193.355 152.446 193.98C152.505 194.599 152.27 195.291 151.741 196.055Z" fill="#B22C7D"/>
<path d="M162.362 197.276L160.847 195.923C160.895 195.879 160.942 195.836 160.99 195.793C161.029 195.743 161.065 195.697 161.097 195.656C161.28 195.423 161.357 195.189 161.329 194.951C161.301 194.714 161.201 194.474 161.029 194.232C160.849 193.982 160.623 193.731 160.352 193.478C160.088 193.216 159.804 192.953 159.502 192.688L156.891 190.474L161.396 184.747L168.093 190.015L166.566 191.957L160.989 187.57L161.804 187.507L159.493 190.445L159.319 189.642L160.931 191.051C161.509 191.546 162.017 192.027 162.457 192.493C162.902 192.951 163.246 193.403 163.487 193.848C163.72 194.286 163.831 194.716 163.822 195.139C163.804 195.554 163.631 195.97 163.305 196.385C163.187 196.534 163.051 196.682 162.896 196.828C162.74 196.975 162.562 197.124 162.362 197.276Z" fill="#B22C7D"/>
<path d="M172.009 185.733C171.366 186.461 170.658 186.977 169.883 187.279C169.116 187.574 168.355 187.655 167.598 187.523C166.834 187.383 166.135 187.034 165.502 186.475C164.861 185.909 164.424 185.263 164.192 184.537C163.958 183.796 163.93 183.046 164.107 182.287C164.277 181.521 164.648 180.813 165.221 180.164C165.773 179.538 166.404 179.095 167.113 178.834C167.821 178.558 168.554 178.493 169.311 178.641C170.061 178.781 170.78 179.155 171.469 179.763C171.54 179.826 171.619 179.903 171.707 179.995C171.788 180.08 171.864 180.161 171.936 180.239L167.355 185.428L166.275 184.474L169.996 180.259L169.688 181.254C169.355 180.961 169.007 180.773 168.643 180.691C168.278 180.609 167.924 180.627 167.58 180.746C167.228 180.858 166.912 181.072 166.632 181.389C166.353 181.705 166.176 182.049 166.102 182.42C166.027 182.777 166.057 183.134 166.191 183.492C166.318 183.843 166.551 184.169 166.892 184.47L167.177 184.721C167.525 185.029 167.9 185.226 168.302 185.313C168.703 185.385 169.097 185.346 169.484 185.195C169.87 185.028 170.231 184.755 170.567 184.375C170.867 184.035 171.078 183.693 171.198 183.348C171.326 182.996 171.381 182.623 171.364 182.227L173.303 182.185C173.377 182.771 173.309 183.367 173.1 183.971C172.883 184.568 172.519 185.155 172.009 185.733Z" fill="#B22C7D"/>
<path d="M178.426 178.921C177.921 179.432 177.366 179.767 176.762 179.927C176.158 180.087 175.52 180.05 174.846 179.814C174.173 179.564 173.484 179.09 172.778 178.392C172.065 177.687 171.579 177.006 171.322 176.35C171.065 175.695 171.013 175.064 171.166 174.458C171.32 173.853 171.66 173.283 172.187 172.75C172.752 172.18 173.388 171.799 174.096 171.609C174.804 171.403 175.521 171.4 176.247 171.597C176.979 171.787 177.661 172.194 178.292 172.818C178.93 173.449 179.348 174.13 179.546 174.861C179.751 175.584 179.755 176.301 179.558 177.011C179.367 177.714 178.99 178.351 178.426 178.921ZM176.978 184.574L168.735 176.42L170.395 174.743L171.634 175.968L173.402 177.784L175.304 179.442L178.716 182.817L176.978 184.574ZM176.683 177.8C176.973 177.507 177.162 177.181 177.249 176.822C177.344 176.456 177.335 176.082 177.221 175.702C177.107 175.307 176.877 174.939 176.532 174.597C176.179 174.248 175.808 174.022 175.419 173.92C175.038 173.81 174.664 173.805 174.299 173.904C173.941 173.995 173.617 174.187 173.328 174.48C173.038 174.773 172.846 175.103 172.751 175.469C172.656 175.835 172.665 176.209 172.779 176.589C172.893 176.969 173.127 177.334 173.48 177.683C173.825 178.024 174.192 178.254 174.581 178.371C174.962 178.481 175.336 178.486 175.701 178.387C176.066 178.288 176.394 178.092 176.683 177.8Z" fill="#B22C7D"/>
<path d="M188.248 169.578L181.309 160.931L185.237 157.779C186.176 157.026 187.149 156.543 188.156 156.33C189.157 156.109 190.117 156.158 191.036 156.477C191.955 156.795 192.768 157.395 193.475 158.276C194.175 159.149 194.585 160.073 194.703 161.047C194.815 162.014 194.658 162.965 194.233 163.903C193.8 164.832 193.115 165.673 192.176 166.426L188.248 169.578ZM188.93 166.33L190.759 164.863C191.335 164.4 191.748 163.893 191.996 163.342C192.246 162.776 192.324 162.199 192.231 161.61C192.146 161.015 191.885 160.445 191.449 159.902C191.006 159.35 190.507 158.972 189.951 158.769C189.396 158.55 188.819 158.506 188.219 158.635C187.621 158.75 187.033 159.039 186.457 159.501L184.628 160.968L188.93 166.33Z" fill="#B22C7D"/>
<path d="M200.077 164.399C199.715 164.655 199.317 164.851 198.884 164.989C198.452 165.126 198.053 165.175 197.689 165.134L197.413 163.177C197.666 163.206 197.919 163.189 198.172 163.127C198.434 163.058 198.664 162.954 198.862 162.814C199.147 162.613 199.323 162.386 199.389 162.132C199.471 161.881 199.471 161.552 199.39 161.144L199.15 160.034L199.15 159.704L197.412 151.937L199.353 150.567L201.421 160.176C201.592 160.895 201.644 161.518 201.576 162.044C201.516 162.564 201.355 163.014 201.092 163.393C200.839 163.766 200.5 164.101 200.077 164.399ZM199.616 161.217L191.406 156.172L193.49 154.703L200.006 158.829L199.616 161.217Z" fill="#B22C7D"/>
<path d="M206.904 156.062C206.289 156.452 205.651 156.757 204.989 156.976C204.332 157.181 203.767 157.276 203.296 157.263L203.041 155.323C203.501 155.319 203.996 155.243 204.527 155.094C205.061 154.93 205.546 154.71 205.983 154.433C206.465 154.127 206.767 153.854 206.89 153.614C207.021 153.368 207.022 153.142 206.892 152.937C206.784 152.768 206.625 152.694 206.414 152.716C206.206 152.723 205.958 152.786 205.671 152.905C205.384 153.025 205.071 153.161 204.73 153.314C204.399 153.462 204.054 153.599 203.697 153.726C203.334 153.843 202.975 153.908 202.62 153.921C202.266 153.933 201.926 153.861 201.602 153.704C201.286 153.542 200.998 153.256 200.738 152.845C200.45 152.391 200.324 151.907 200.362 151.396C200.409 150.878 200.62 150.363 200.995 149.85C201.365 149.328 201.897 148.847 202.592 148.406C203.083 148.095 203.616 147.831 204.192 147.616C204.768 147.401 205.291 147.288 205.76 147.278L206.006 149.204C205.528 149.22 205.088 149.305 204.686 149.46C204.288 149.6 203.923 149.775 203.593 149.984C203.13 150.278 202.831 150.555 202.696 150.816C202.561 151.077 202.556 151.305 202.68 151.501C202.793 151.679 202.954 151.765 203.162 151.758C203.379 151.746 203.634 151.684 203.926 151.573C204.219 151.463 204.531 151.334 204.862 151.186C205.197 151.024 205.546 150.884 205.909 150.766C206.272 150.649 206.626 150.586 206.972 150.58C207.321 150.558 207.658 150.626 207.982 150.783C208.301 150.931 208.591 151.21 208.851 151.62C209.134 152.066 209.252 152.547 209.205 153.065C209.152 153.573 208.934 154.087 208.55 154.605C208.175 155.118 207.626 155.604 206.904 156.062Z" fill="#B22C7D"/>
<path d="M214.711 151.399C213.92 151.844 213.122 152.074 212.319 152.089C211.526 152.099 210.789 151.92 210.109 151.551C209.434 151.167 208.889 150.607 208.475 149.871C208.056 149.125 207.861 148.368 207.89 147.601C207.924 146.82 208.154 146.097 208.58 145.433C209.011 144.755 209.622 144.194 210.414 143.749C211.196 143.31 211.989 143.082 212.792 143.067C213.59 143.043 214.324 143.218 214.994 143.592C215.665 143.966 216.212 144.531 216.636 145.286C217.05 146.022 217.245 146.779 217.221 147.555C217.192 148.323 216.962 149.045 216.531 149.723C216.1 150.401 215.494 150.96 214.711 151.399ZM213.718 149.632C214.077 149.43 214.353 149.166 214.545 148.84C214.738 148.514 214.831 148.153 214.826 147.756C214.816 147.35 214.692 146.935 214.454 146.512C214.211 146.079 213.922 145.757 213.585 145.547C213.249 145.336 212.891 145.228 212.513 145.222C212.134 145.217 211.766 145.315 211.407 145.517C211.048 145.719 210.772 145.982 210.58 146.308C210.387 146.634 210.289 146.999 210.285 147.401C210.29 147.797 210.414 148.212 210.657 148.645C210.895 149.068 211.185 149.39 211.526 149.61C211.872 149.816 212.234 149.921 212.612 149.926C212.991 149.932 213.359 149.834 213.718 149.632Z" fill="#B22C7D"/>
<path d="M219.995 138.761C220.603 138.465 221.204 138.325 221.799 138.341C222.398 138.342 222.958 138.527 223.479 138.897C223.994 139.256 224.442 139.825 224.821 140.604L226.956 144.99L224.735 146.071L222.766 142.027C222.465 141.41 222.106 141.021 221.687 140.861C221.278 140.696 220.827 140.734 220.333 140.974C219.982 141.145 219.701 141.376 219.49 141.667C219.284 141.943 219.174 142.273 219.161 142.655C219.157 143.033 219.27 143.459 219.501 143.934L221.346 147.722L219.124 148.803L215.394 141.142L217.516 140.109L218.549 142.231L217.838 141.784C217.864 141.137 218.066 140.552 218.444 140.027C218.823 139.502 219.34 139.08 219.995 138.761Z" fill="#B22C7D"/>
<g clip-path="url(#clip2_702_25)">
<rect x="205.021" y="234.862" width="43.4102" height="22.1414" rx="1.45439" transform="rotate(-43.17 205.021 234.862)" fill="#F1C0DD"/>
<path d="M226.394 245.171L211.245 229.022" stroke="#B22C7D" stroke-width="3.63597"/>
<path d="M208.284 238.355L239.953 208.647" stroke="#B22C7D" stroke-width="3.63597"/>
<path d="M225.56 230.565L203.352 206.891L208.847 201.736L231.055 225.41C231.505 225.89 231.201 226.864 230.992 227.291C230.158 228.099 228.305 229.874 227.563 230.508C226.82 231.141 225.918 230.81 225.56 230.565Z" fill="#FFE9F6"/>
<circle cx="201.795" cy="199.698" r="6.42371" transform="rotate(-43.17 201.795 199.698)" stroke="#A7EAED" stroke-width="4.12076"/>
<circle cx="201.795" cy="199.698" r="5.29251" transform="rotate(-43.17 201.795 199.698)" stroke="#B22C7D" stroke-width="4.12076"/>
<path d="M233.815 235.327L227.971 230.074L230.391 227.804L235.252 233.978L233.815 235.327Z" fill="#A7EAED"/>
<rect x="228.122" y="231.283" width="4.7485" height="0.354374" transform="rotate(-43.17 228.122 231.283)" fill="#B22C7D"/>
<rect x="229.525" y="232.364" width="4.18107" height="0.354374" transform="rotate(-43.17 229.525 232.364)" fill="#B22C7D"/>
<rect x="230.976" y="233.399" width="3.4818" height="0.354374" transform="rotate(-43.17 230.976 233.399)" fill="#B22C7D"/>
<rect x="232.427" y="234.435" width="2.78254" height="0.354374" transform="rotate(-43.17 232.427 234.435)" fill="#B22C7D"/>
<path d="M210.742 228.486C209.325 227.816 206.104 226.823 204.561 228.207C202.632 229.938 206.23 237.139 210.939 228.696" stroke="#B22C7D" stroke-width="2.30278"/>
<path d="M210.742 228.486C210.164 227.029 209.379 223.751 210.858 222.299C212.708 220.485 219.666 224.536 210.939 228.696" stroke="#B22C7D" stroke-width="2.30278"/>
<path d="M189.396 213.841L190.318 214.362C190.715 214.586 191.197 214.601 191.608 214.403L192.562 213.942L192.009 214.779C191.72 215.218 191.702 215.781 191.962 216.237L192.46 217.108L191.658 216.544C191.204 216.226 190.604 216.207 190.131 216.496L189.294 217.008L189.853 216.19C190.159 215.742 190.177 215.159 189.901 214.693L189.396 213.841Z" fill="#A7EAED"/>
<path d="M211.441 184.355L212.953 185.208C213.605 185.576 214.395 185.601 215.069 185.275L216.633 184.52L215.727 185.893C215.253 186.612 215.223 187.536 215.65 188.284L216.466 189.712L215.15 188.788C214.406 188.265 213.423 188.234 212.646 188.708L211.274 189.547L212.191 188.206C212.692 187.472 212.723 186.515 212.27 185.751L211.441 184.355Z" fill="#B22C7D"/>
<path d="M221.792 205.623L221.444 205.036L222.134 205.425C222.841 205.824 223.698 205.852 224.43 205.498L225.169 205.141L224.766 205.752C224.252 206.532 224.219 207.535 224.683 208.346L224.943 208.802L224.543 208.521C223.736 207.954 222.668 207.92 221.826 208.435L221.446 208.667L221.706 208.286C222.25 207.49 222.284 206.451 221.792 205.623Z" stroke="#A7EAED" stroke-width="0.484796"/>
<path d="M204.806 217.441L204.584 217.067L205.03 217.319C205.53 217.601 206.137 217.62 206.654 217.371L207.135 217.138L206.875 217.532C206.511 218.083 206.489 218.793 206.816 219.366L206.973 219.641L206.735 219.474C206.164 219.072 205.409 219.048 204.814 219.413L204.593 219.547L204.745 219.325C205.13 218.762 205.154 218.027 204.806 217.441Z" stroke="#F1C0DD" stroke-width="0.363597"/>
</g>
<path d="M234.999 121.179C261.206 112.069 289.13 108.985 316.694 112.155C344.258 115.325 370.753 124.668 394.208 139.49L295.605 295.529L234.999 121.179Z" fill="#F5ABD8"/>
<path d="M254.356 125.537L259.553 124.323L260.008 126.266L254.81 127.481L254.356 125.537ZM255.579 129.936L261.455 128.563L261.924 130.568L253.564 132.521L251.041 121.725L259.2 119.818L259.669 121.823L253.993 123.15L255.579 129.936Z" fill="#B22C7D"/>
<path d="M261.777 130.602L264.664 125.009L264.854 126.358L260.402 122.192L263.131 121.709L265.963 124.441L264.939 124.655L266.734 121.072L269.323 120.614L266.546 126.011L266.314 124.701L270.932 128.983L268.172 129.471L265.195 126.555L266.233 126.516L264.428 130.133L261.777 130.602Z" fill="#B22C7D"/>
<path d="M274.877 128.638C273.882 128.767 273.074 128.616 272.454 128.186C271.832 127.745 271.456 127.022 271.326 126.016L270.362 118.603L272.812 118.284L273.772 125.667C273.818 126.023 273.948 126.288 274.163 126.462C274.376 126.626 274.644 126.687 274.969 126.645C275.356 126.595 275.673 126.447 275.918 126.202L276.802 127.844C276.574 128.055 276.288 128.231 275.944 128.371C275.609 128.5 275.253 128.589 274.877 128.638ZM269.571 122.715L269.326 120.83L275.185 120.068L275.429 121.953L269.571 122.715Z" fill="#B22C7D"/>
<path d="M278.033 128.132L277.27 119.645L279.62 119.434L279.836 121.832L279.442 121.167C279.641 120.545 280.005 120.056 280.535 119.701C281.064 119.336 281.728 119.117 282.527 119.045L282.732 121.317C282.626 121.316 282.53 121.319 282.446 121.326C282.361 121.323 282.271 121.326 282.177 121.335C281.504 121.395 280.974 121.639 280.589 122.066C280.213 122.482 280.061 123.094 280.134 123.904L280.494 127.911L278.033 128.132Z" fill="#B22C7D"/>
<path d="M289.97 127.32L289.9 125.658L289.727 125.301L289.603 122.326C289.581 121.798 289.4 121.394 289.061 121.112C288.732 120.83 288.235 120.702 287.57 120.73C287.117 120.749 286.672 120.842 286.235 121.008C285.808 121.163 285.446 121.368 285.151 121.624L284.192 119.936C284.643 119.589 285.192 119.313 285.838 119.106C286.485 118.9 287.146 118.782 287.821 118.754C289.119 118.7 290.139 118.964 290.882 119.546C291.625 120.128 292.023 121.067 292.077 122.365L292.28 127.223L289.97 127.32ZM287.38 127.555C286.715 127.582 286.141 127.495 285.657 127.294C285.172 127.081 284.795 126.785 284.526 126.406C284.256 126.026 284.112 125.593 284.091 125.108C284.07 124.602 284.173 124.153 284.4 123.764C284.637 123.373 285.02 123.061 285.55 122.828C286.078 122.584 286.775 122.444 287.64 122.408L289.903 122.313L289.964 123.753L287.97 123.836C287.389 123.861 286.992 123.972 286.779 124.172C286.576 124.37 286.48 124.612 286.492 124.897C286.505 125.213 286.637 125.461 286.888 125.641C287.148 125.81 287.495 125.885 287.928 125.867C288.339 125.85 288.704 125.74 289.023 125.536C289.342 125.322 289.567 125.022 289.699 124.636L290.127 125.76C289.97 126.316 289.66 126.746 289.198 127.051C288.735 127.355 288.129 127.523 287.38 127.555Z" fill="#B22C7D"/>
<path d="M298.116 127.194L298.461 118.68L300.914 118.78L300.709 123.844L305.061 118.948L307.324 119.04L306.978 127.554L304.525 127.455L304.731 122.39L300.395 127.287L298.116 127.194Z" fill="#B22C7D"/>
<path d="M308.487 127.667L309.36 119.191L311.803 119.443L311.462 122.751L315.148 123.131L315.489 119.823L317.947 120.076L317.073 128.552L314.616 128.299L314.942 125.132L311.255 124.752L310.929 127.919L308.487 127.667Z" fill="#B22C7D"/>
<path d="M320.867 129.134L321.975 122.157L322.433 122.807L319.038 122.269L319.356 120.266L327.475 121.555L327.157 123.557L323.763 123.018L324.399 122.542L323.292 129.519L320.867 129.134Z" fill="#B22C7D"/>
<path d="M331.101 131.145C330.151 130.944 329.354 130.581 328.709 130.056C328.075 129.533 327.63 128.909 327.373 128.186C327.118 127.452 327.079 126.672 327.254 125.845C327.431 125.009 327.779 124.31 328.296 123.751C328.827 123.183 329.466 122.79 330.214 122.571C330.964 122.341 331.763 122.316 332.61 122.495C333.426 122.668 334.122 122.999 334.699 123.488C335.288 123.969 335.704 124.576 335.949 125.307C336.195 126.029 336.223 126.839 336.033 127.738C336.013 127.831 335.985 127.938 335.948 128.06C335.914 128.171 335.881 128.277 335.848 128.379L329.077 126.944L329.376 125.534L334.877 126.699L333.858 126.921C333.95 126.487 333.942 126.091 333.834 125.734C333.727 125.376 333.536 125.077 333.264 124.836C332.993 124.584 332.651 124.415 332.238 124.327C331.825 124.24 331.439 124.255 331.079 124.373C330.732 124.483 330.435 124.685 330.19 124.978C329.946 125.261 329.778 125.624 329.684 126.069L329.605 126.441C329.508 126.895 329.521 127.319 329.643 127.712C329.777 128.096 330.006 128.42 330.328 128.682C330.663 128.937 331.078 129.116 331.574 129.221C332.018 129.316 332.419 129.33 332.778 129.266C333.148 129.204 333.5 129.068 333.836 128.859L334.827 130.526C334.353 130.879 333.801 131.113 333.172 131.228C332.546 131.332 331.855 131.305 331.101 131.145Z" fill="#B22C7D"/>
<path d="M335.656 132.007L337.9 123.786L340.269 124.433L339.393 127.641L342.968 128.617L343.844 125.408L346.228 126.059L343.984 134.28L341.6 133.629L342.439 130.558L338.863 129.582L338.025 132.653L335.656 132.007Z" fill="#B22C7D"/>
<path d="M349.641 136.274C348.77 135.983 348.053 135.548 347.489 134.969C346.929 134.381 346.559 133.706 346.38 132.944C346.211 132.186 346.26 131.407 346.528 130.606C346.8 129.794 347.23 129.142 347.818 128.649C348.42 128.149 349.12 127.837 349.918 127.715C350.719 127.582 351.556 127.662 352.427 127.953C353.278 128.238 353.959 128.667 354.469 129.238C354.982 129.8 355.279 130.461 355.358 131.223L353.214 131.591C353.131 131.14 352.959 130.771 352.699 130.483C352.449 130.199 352.139 129.995 351.768 129.871C351.368 129.737 350.977 129.706 350.596 129.779C350.216 129.852 349.875 130.022 349.574 130.289C349.283 130.559 349.059 130.929 348.901 131.4C348.744 131.871 348.7 132.301 348.77 132.692C348.849 133.086 349.019 133.427 349.279 133.714C349.539 134.002 349.87 134.213 350.27 134.347C350.641 134.471 351.009 134.5 351.377 134.433C351.758 134.36 352.118 134.164 352.459 133.844L353.945 135.443C353.427 135.994 352.792 136.343 352.04 136.493C351.292 136.632 350.493 136.559 349.641 136.274Z" fill="#B22C7D"/>
<path d="M354.138 137.679L357.304 129.768L359.583 130.68L357.7 135.386L363.436 132.222L365.539 133.063L362.373 140.974L360.094 140.062L361.977 135.357L356.256 138.527L354.138 137.679Z" fill="#B22C7D"/>
<path d="M363.624 141.538L367.249 133.826L371.191 135.679C372.156 136.133 372.828 136.664 373.206 137.274C373.589 137.874 373.633 138.489 373.336 139.12C373.04 139.751 372.548 140.126 371.862 140.247C371.189 140.362 370.432 140.223 369.591 139.827L370.063 139.419C370.999 139.859 371.616 140.359 371.913 140.919C372.22 141.483 372.218 142.095 371.908 142.754C371.589 143.433 371.08 143.846 370.38 143.996C369.679 144.145 368.799 143.97 367.738 143.472L363.624 141.538ZM366.388 140.982L368.266 141.865C368.677 142.058 369.014 142.135 369.278 142.095C369.555 142.051 369.761 141.885 369.896 141.598C370.035 141.302 370.041 141.042 369.913 140.819C369.789 140.585 369.522 140.372 369.111 140.179L367.19 139.276L366.388 140.982ZM367.81 137.958L369.501 138.753C369.893 138.937 370.218 139.002 370.477 138.949C370.745 138.9 370.942 138.741 371.067 138.474C371.198 138.196 371.194 137.944 371.056 137.716C370.928 137.492 370.668 137.288 370.276 137.104L368.585 136.309L367.81 137.958Z" fill="#B22C7D"/>
<rect x="279.049" y="178.298" width="23.4178" height="27.4938" rx="1.45457" transform="rotate(-28.33 279.049 178.298)" fill="#B22C7D"/>
<rect width="23.4178" height="27.4938" rx="1.45457" transform="matrix(-0.851086 -0.525026 -0.525026 0.851086 339.401 180.058)" fill="#B22C7D"/>
<rect x="292.382" y="162.862" width="33.7533" height="46.164" rx="1.45457" transform="rotate(1.67 292.382 162.862)" fill="#FF87D0"/>
<path d="M314.32 187.487L306.034 191.977C305.331 192.358 304.458 191.847 304.481 191.039L304.756 181.583C304.78 180.776 305.68 180.316 306.361 180.738L314.372 185.703C314.526 185.798 314.653 185.931 314.74 186.091C314.826 186.25 314.869 186.429 314.864 186.61C314.858 186.791 314.805 186.968 314.71 187.122C314.614 187.276 314.48 187.402 314.32 187.487V187.487Z" fill="#A7EAED"/>
<path d="M279.335 191.346L279.622 192.365C279.746 192.804 280.077 193.155 280.508 193.304L281.509 193.65L280.527 193.854C280.013 193.961 279.602 194.348 279.465 194.855L279.204 195.823L279.033 194.858C278.936 194.312 278.524 193.875 277.984 193.747L277.03 193.519L278.003 193.334C278.535 193.232 278.96 192.831 279.093 192.306L279.335 191.346Z" fill="#B22C7D"/>
<path d="M325.973 168.926L326.26 169.945C326.384 170.384 326.715 170.735 327.146 170.884L328.148 171.23L327.165 171.434C326.651 171.541 326.241 171.928 326.104 172.435L325.843 173.404L325.671 172.438C325.574 171.892 325.162 171.455 324.622 171.327L323.668 171.099L324.641 170.914C325.174 170.812 325.599 170.411 325.731 169.886L325.973 168.926Z" fill="#A7EAED"/>
<path d="M335.224 159.596L335.695 161.268C335.897 161.988 336.44 162.563 337.147 162.808L338.789 163.375L337.178 163.71C336.335 163.885 335.662 164.52 335.438 165.351L335.009 166.939L334.728 165.356C334.569 164.46 333.894 163.744 333.008 163.533L331.444 163.161L333.04 162.856C333.912 162.69 334.609 162.032 334.827 161.171L335.224 159.596Z" fill="#B22C7D"/>
<path d="M333.8 207.377L333.967 206.716L334.181 207.478C334.401 208.26 334.99 208.884 335.758 209.149L336.534 209.417L335.818 209.566C334.903 209.757 334.173 210.445 333.929 211.348L333.793 211.854L333.707 211.373C333.535 210.401 332.801 209.624 331.841 209.395L331.408 209.292L331.86 209.206C332.808 209.025 333.564 208.312 333.8 207.377Z" stroke="#A7EAED" stroke-width="0.484857"/>
<path d="M288.649 165.468L288.756 165.046L288.895 165.539C289.05 166.092 289.467 166.533 290.009 166.721L290.515 166.895L290.053 166.991C289.406 167.126 288.89 167.613 288.717 168.251L288.635 168.556L288.584 168.269C288.462 167.582 287.944 167.033 287.265 166.871L287.013 166.811L287.278 166.761C287.948 166.633 288.482 166.129 288.649 165.468Z" stroke="white" stroke-width="0.363643"/>
<path d="M296.268 207.949L296.375 207.527L296.514 208.021C296.669 208.573 297.086 209.015 297.629 209.202L298.134 209.377L297.672 209.473C297.025 209.607 296.509 210.094 296.337 210.732L296.254 211.038L296.203 210.751C296.081 210.064 295.563 209.514 294.884 209.353L294.632 209.293L294.897 209.242C295.567 209.114 296.102 208.61 296.268 207.949Z" stroke="white" stroke-width="0.363643"/>
<path d="M274.74 478.911C247.17 475.79 220.659 466.495 197.177 451.715C173.696 436.935 153.848 417.052 139.111 393.544L295.502 295.5L274.74 478.911Z" fill="#FF87D0"/>
<g clip-path="url(#clip3_702_25)">
<path d="M246.245 416.193L267.653 380.094L264.765 378.381L253.517 371.711L249.357 369.244L243.249 365.622L240.047 363.723L233.938 360.1L230.968 358.339L209.561 394.438L246.245 416.193Z" fill="#FFD9EF" stroke="#FFD9EF" stroke-width="1.02448" stroke-linecap="square"/>
<path d="M231.677 372.94C231.862 372.628 232.559 372.936 232.884 373.129L228.787 370.698C229.723 371.254 229.803 371.653 229.726 371.783L227.99 374.71L229.942 375.867L231.677 372.94Z" fill="#B22C7D"/>
<path d="M235.669 370.657C235.669 370.657 233.761 370.317 233.182 371.292L230.45 369.672C230.913 368.892 230.188 367.595 229.865 367.102L235.254 358.014L241.303 361.602C239.671 364.502 235.669 370.657 235.669 370.657Z" fill="#F1C0DD"/>
<path d="M251.402 398.039L251.745 397.658L250.983 396.973L250.64 397.353L251.402 398.039ZM245.744 400.369L245.741 399.857L245.744 400.369ZM241.077 402.191L240.58 402.318L240.834 403.311L241.33 403.184L241.077 402.191ZM250.64 397.353C250.304 397.727 249.499 398.361 248.535 398.905C247.563 399.454 246.532 399.853 245.741 399.857L245.746 400.881C246.807 400.876 248.028 400.368 249.038 399.797C250.057 399.223 250.965 398.525 251.402 398.039L250.64 397.353ZM245.741 399.857C243.653 399.867 242.462 400.461 241.75 401.134C241.401 401.464 241.187 401.795 241.045 402.034C240.966 402.167 240.933 402.229 240.896 402.286C240.88 402.31 240.88 402.307 240.894 402.293C240.904 402.282 240.965 402.22 241.077 402.191L241.33 403.184C241.481 403.146 241.58 403.057 241.63 403.005C241.683 402.95 241.725 402.89 241.754 402.846C241.806 402.767 241.875 402.642 241.926 402.556C242.045 402.355 242.203 402.116 242.454 401.878C242.942 401.417 243.865 400.891 245.746 400.881L245.741 399.857Z" fill="#B22C7D"/>
<path d="M240.001 391.278L240.17 390.795L241.137 391.134L240.967 391.618L240.001 391.278ZM240.67 397.361L240.233 397.628L240.67 397.361ZM241.504 402.446L241.631 402.942L240.639 403.196L240.512 402.699L241.504 402.446ZM240.967 391.618C240.798 392.098 240.609 393.124 240.583 394.233C240.557 395.356 240.705 396.435 241.107 397.094L240.233 397.628C239.67 396.706 239.532 395.374 239.559 394.209C239.586 393.029 239.786 391.889 240.001 391.278L240.967 391.618ZM241.107 397.094C242.294 399.035 242.414 400.404 242.158 401.376C242.033 401.853 241.826 402.2 241.667 402.436C241.575 402.574 241.539 402.619 241.499 402.683C241.483 402.708 241.488 402.704 241.497 402.682C241.503 402.663 241.536 402.571 241.504 402.446L240.512 402.699C240.47 402.536 240.509 402.397 240.536 402.326C240.564 402.25 240.602 402.185 240.629 402.141C240.676 402.067 240.766 401.94 240.816 401.865C240.943 401.677 241.083 401.438 241.167 401.116C241.331 400.491 241.322 399.41 240.233 397.628L241.107 397.094Z" fill="#B22C7D"/>
<path d="M241.137 405.023L237.55 411.072" stroke="#B22C7D" stroke-width="1.02448" stroke-linecap="square"/>
<path d="M254.213 382.972L244.03 400.144" stroke="#B22C7D" stroke-width="1.02448" stroke-linecap="square"/>
<path d="M232.978 399.656L213.465 388.084" stroke="#B22C7D" stroke-width="1.02448" stroke-linecap="square"/>
<path d="M234.251 397.51L214.738 385.938" stroke="#B22C7D" stroke-width="1.02448" stroke-linecap="square"/>
<path d="M249.919 409.702L247.613 408.335" stroke="#B22C7D" stroke-width="1.02448" stroke-linecap="square"/>
<path d="M251.192 407.556L248.886 406.189" stroke="#B22C7D" stroke-width="1.02448" stroke-linecap="square"/>
<path d="M233.845 401.753C235.914 404.668 239.456 403.41 241.008 402.572C240.799 402.184 241.038 400.743 238.848 398.654C236.132 396.061 231.259 398.109 233.845 401.753Z" fill="#FFD9EF"/>
<path d="M241.008 402.572L241.252 403.023L241.702 402.78L241.459 402.329L241.008 402.572ZM233.845 401.753L234.263 401.457L234.263 401.457L233.845 401.753ZM238.848 398.654L239.202 398.283L239.202 398.283L238.848 398.654ZM240.765 402.121C240.025 402.521 238.83 403.008 237.6 403.058C236.395 403.108 235.176 402.743 234.263 401.457L233.427 402.05C234.584 403.678 236.17 404.142 237.642 404.082C239.088 404.023 240.44 403.461 241.252 403.023L240.765 402.121ZM234.263 401.457C233.672 400.623 233.556 399.955 233.656 399.469C233.754 398.986 234.086 398.584 234.595 398.319C235.633 397.778 237.293 397.878 238.495 399.024L239.202 398.283C237.687 396.837 235.552 396.664 234.121 397.41C233.396 397.788 232.824 398.42 232.652 399.264C232.48 400.107 232.726 401.061 233.427 402.05L234.263 401.457ZM238.495 399.024C239.537 400.019 239.978 400.835 240.189 401.424C240.295 401.721 240.347 401.972 240.387 402.184C240.405 402.283 240.425 402.397 240.445 402.489C240.465 402.577 240.496 402.701 240.558 402.816L241.459 402.329C241.469 402.346 241.461 402.34 241.445 402.268C241.43 402.198 241.417 402.119 241.394 401.997C241.351 401.763 241.287 401.451 241.153 401.078C240.884 400.327 240.349 399.378 239.202 398.283L238.495 399.024Z" fill="#B22C7D"/>
<path d="M245.265 408.525C241.715 408.107 241.12 404.396 241.111 402.632C241.552 402.63 242.701 401.729 245.585 402.648C249.163 403.788 249.703 409.047 245.265 408.525Z" fill="#FFD9EF"/>
<path d="M241.111 402.632L240.599 402.635L240.596 402.123L241.108 402.12L241.111 402.632ZM245.265 408.525L245.325 408.016L245.325 408.016L245.265 408.525ZM245.585 402.648L245.741 402.16L245.741 402.16L245.585 402.648ZM241.623 402.63C241.627 403.47 241.773 404.753 242.319 405.856C242.854 406.937 243.759 407.832 245.325 408.016L245.206 409.034C243.222 408.8 242.054 407.63 241.401 406.311C240.759 405.013 240.603 403.558 240.599 402.635L241.623 402.63ZM245.325 408.016C246.34 408.135 246.982 407.916 247.36 407.596C247.737 407.277 247.931 406.794 247.919 406.22C247.896 405.05 247.012 403.641 245.43 403.136L245.741 402.16C247.736 402.796 248.912 404.586 248.943 406.2C248.96 407.018 248.68 407.822 248.021 408.378C247.365 408.933 246.41 409.175 245.206 409.034L245.325 408.016ZM245.43 403.136C244.057 402.699 243.129 402.704 242.512 402.801C242.199 402.85 241.954 402.925 241.75 402.991C241.654 403.023 241.545 403.06 241.454 403.087C241.367 403.112 241.244 403.144 241.113 403.145L241.108 402.12C241.088 402.12 241.097 402.124 241.168 402.103C241.237 402.083 241.312 402.057 241.431 402.018C241.656 401.944 241.961 401.85 242.352 401.789C243.141 401.665 244.229 401.679 245.741 402.16L245.43 403.136Z" fill="#B22C7D"/>
<path d="M238.991 403.749L235.404 409.798" stroke="#B22C7D" stroke-width="1.02448" stroke-linecap="square"/>
<path d="M252.067 381.7L241.884 398.872" stroke="#B22C7D" stroke-width="1.02448" stroke-linecap="square"/>
<rect x="261.955" y="382.817" width="12.7043" height="7.71335" transform="rotate(-149.331 261.955 382.817)" fill="#F1C0DD"/>
<rect x="248.384" y="370.636" width="6.61007" height="4.72148" transform="rotate(-149.331 248.384 370.636)" fill="#F1C0DD"/>
<rect x="260.884" y="386.401" width="14.5193" height="3.62981" transform="rotate(-149.331 260.884 386.401)" fill="#A7EAED"/>
<path d="M249.605 370.263L241.669 387.513L231.11 381.252L242.629 366.126L249.605 370.263Z" fill="#A7EAED"/>
<path d="M237.906 382.006L238.253 380.534C238.403 379.899 238.232 379.232 237.796 378.747L236.785 377.621L238.154 378.046C238.871 378.269 239.651 378.07 240.173 377.531L241.171 376.502L240.716 377.827C240.459 378.576 240.672 379.407 241.257 379.942L242.292 380.887L240.947 380.445C240.212 380.203 239.403 380.41 238.874 380.974L237.906 382.006Z" fill="#B22C7D"/>
<rect x="241.294" y="390.082" width="14.0655" height="2.72236" transform="rotate(-149.331 241.294 390.082)" fill="#B22C7D"/>
<rect x="233.665" y="373.591" width="6.35217" height="2.72236" transform="rotate(-149.331 233.665 373.591)" fill="#A7EAED"/>
<path fill-rule="evenodd" clip-rule="evenodd" d="M259.873 377.023L259.823 377.107C259.367 376.837 258.202 376.76 257.414 378.088L257.33 378.038C257.471 377.8 257.661 377.305 257.685 376.794C257.709 376.284 257.567 375.769 257.06 375.468L257.11 375.384C257.328 375.514 257.713 375.621 258.146 375.522C258.577 375.423 259.061 375.118 259.478 374.415L259.562 374.465C259.418 374.708 259.213 375.185 259.187 375.683C259.161 376.178 259.312 376.69 259.873 377.023ZM259.252 374.908C258.901 375.326 258.521 375.536 258.168 375.617C257.88 375.683 257.611 375.663 257.392 375.605C257.712 375.932 257.802 376.375 257.783 376.799C257.769 377.095 257.701 377.385 257.618 377.628C258.249 376.874 259.021 376.77 259.534 376.891C259.17 376.548 259.068 376.102 259.09 375.678C259.104 375.403 259.17 375.136 259.252 374.908Z" stroke="#B22C7D" stroke-width="0.260284" stroke-linecap="round"/>
<ellipse cx="235.454" cy="364.46" rx="0.447339" ry="0.447339" transform="rotate(-149.331 235.454 364.46)" fill="#B22C7D"/>
<path d="M234.969 365.277L233.828 367.201" stroke="#B22C7D" stroke-width="0.36551" stroke-linecap="round"/>
<path d="M237.079 361.718L235.938 363.642" stroke="#B22C7D" stroke-width="0.36551" stroke-linecap="round"/>
<path d="M236.223 364.915L237.569 365.714" stroke="#B22C7D" stroke-width="0.36551" stroke-linecap="round"/>
<path d="M233.241 363.147L234.588 363.946" stroke="#B22C7D" stroke-width="0.36551" stroke-linecap="round"/>
<path d="M233.413 364.94L234.484 364.667" stroke="#B22C7D" stroke-width="0.36551" stroke-linecap="round"/>
<path d="M236.058 366.509L235.785 365.438" stroke="#B22C7D" stroke-width="0.36551" stroke-linecap="round"/>
<path d="M234.839 362.536L235.112 363.607" stroke="#B22C7D" stroke-width="0.36551" stroke-linecap="round"/>
<path d="M237.484 364.104L236.413 364.378" stroke="#B22C7D" stroke-width="0.36551" stroke-linecap="round"/>
</g>
<path d="M262.226 456.803L258.966 470.054L252.492 468.462C250.827 468.052 249.655 467.429 248.977 466.593C248.287 465.754 248.069 464.817 248.323 463.783C248.494 463.089 248.814 462.525 249.282 462.091C249.746 461.67 250.31 461.394 250.971 461.262C251.632 461.13 252.348 461.159 253.118 461.348L252.567 462.036C251.734 461.831 251.03 461.511 250.455 461.075C249.877 460.652 249.476 460.131 249.253 459.514C249.017 458.894 248.994 458.2 249.183 457.43C249.463 456.294 250.13 455.514 251.184 455.091C252.235 454.681 253.632 454.689 255.373 455.118L262.226 456.803ZM258.61 458.363L255.032 457.483C254.237 457.288 253.607 457.266 253.141 457.419C252.659 457.582 252.348 457.947 252.209 458.515C252.072 459.07 252.18 459.532 252.531 459.899C252.866 460.276 253.432 460.562 254.227 460.758L258.032 461.694L257.482 463.928L254.207 463.122C253.463 462.939 252.864 462.925 252.411 463.082C251.941 463.247 251.642 463.595 251.511 464.125C251.384 464.643 251.491 465.077 251.833 465.429C252.159 465.79 252.694 466.062 253.439 466.245L256.487 466.995L258.61 458.363Z" fill="#B22C7D"/>
<path d="M243.433 451.465C244.568 451.841 245.494 452.395 246.21 453.125C246.914 453.851 247.374 454.675 247.589 455.595C247.8 456.527 247.742 457.487 247.414 458.474C247.083 459.473 246.562 460.28 245.852 460.893C245.126 461.515 244.29 461.908 243.345 462.074C242.396 462.253 241.416 462.174 240.405 461.839C239.43 461.515 238.624 461.015 237.986 460.338C237.331 459.669 236.905 458.871 236.706 457.942C236.503 457.026 236.58 456.032 236.935 454.958C236.972 454.847 237.021 454.72 237.083 454.576C237.14 454.444 237.195 454.319 237.249 454.2L245.334 456.881L244.776 458.565L238.208 456.386L239.483 456.255C239.312 456.773 239.267 457.258 239.35 457.71C239.433 458.162 239.625 458.554 239.925 458.887C240.222 459.231 240.617 459.485 241.11 459.649C241.603 459.813 242.078 459.847 242.534 459.752C242.974 459.665 243.364 459.459 243.704 459.133C244.041 458.82 244.297 458.399 244.473 457.868L244.62 457.424C244.8 456.882 244.843 456.362 244.747 455.864C244.636 455.376 244.401 454.949 244.042 454.583C243.668 454.226 243.185 453.95 242.592 453.753C242.062 453.578 241.573 453.504 241.125 453.534C240.665 453.559 240.215 453.677 239.776 453.887L238.792 451.713C239.42 451.346 240.127 451.135 240.912 451.081C241.692 451.038 242.533 451.167 243.433 451.465Z" fill="#B22C7D"/>
<path d="M230.873 446.88L230.096 448.773L230.106 449.262L228.714 452.653C228.468 453.254 228.462 453.799 228.696 454.289C228.919 454.773 229.409 455.171 230.166 455.482C230.683 455.694 231.228 455.82 231.802 455.859C232.36 455.905 232.869 455.861 233.331 455.728L233.534 458.108C232.852 458.264 232.097 458.291 231.267 458.189C230.438 458.087 229.639 457.879 228.869 457.563C227.391 456.956 226.386 456.136 225.854 455.103C225.323 454.07 225.361 452.814 225.968 451.335L228.241 445.799L230.873 446.88ZM233.89 447.95C234.648 448.261 235.245 448.653 235.682 449.128C236.115 449.614 236.384 450.139 236.49 450.703C236.596 451.266 236.535 451.824 236.308 452.377C236.071 452.954 235.726 453.402 235.272 453.722C234.805 454.036 234.216 454.188 233.505 454.176C232.788 454.177 231.936 453.975 230.951 453.57L228.372 452.512L229.046 450.871L231.318 451.804C231.979 452.075 232.48 452.154 232.822 452.042C233.151 451.924 233.382 451.703 233.515 451.378C233.663 451.017 233.644 450.672 233.456 450.342C233.251 450.019 232.902 449.757 232.41 449.554C231.941 449.362 231.475 449.297 231.014 449.361C230.547 449.436 230.141 449.656 229.795 450.02L229.895 448.544C230.357 448.002 230.924 447.68 231.598 447.578C232.273 447.475 233.037 447.599 233.89 447.95Z" fill="#B22C7D"/>
<path d="M223.117 443.138C223.898 443.524 224.522 444.021 224.99 444.629C225.446 445.231 225.691 445.924 225.723 446.709C225.75 447.505 225.525 448.386 225.047 449.353L222.422 454.666L219.695 453.319L222.122 448.408C222.508 447.628 222.63 446.97 222.488 446.436C222.328 445.908 221.946 445.494 221.34 445.195C220.92 444.988 220.504 444.891 220.092 444.904C219.673 444.93 219.279 445.083 218.908 445.363C218.532 445.656 218.203 446.087 217.921 446.658L215.623 451.307L212.897 449.96L217.543 440.557L220.13 441.836L218.852 444.422L218.751 443.437C219.388 442.94 220.099 442.675 220.883 442.643C221.65 442.616 222.395 442.781 223.117 443.138Z" fill="#B22C7D"/>
<path d="M212.512 437.459C213.585 438.07 214.266 438.817 214.556 439.7C214.839 440.594 214.672 441.583 214.054 442.667L209.5 450.662L206.858 449.157L211.393 441.196C211.611 440.812 211.68 440.455 211.599 440.125C211.512 439.806 211.293 439.546 210.943 439.347C210.525 439.109 210.105 439.019 209.683 439.078L210.033 436.809C210.413 436.772 210.824 436.811 211.266 436.929C211.69 437.05 212.105 437.227 212.512 437.459ZM213.328 447.212L212.17 449.244L205.852 445.645L207.01 443.613L213.328 447.212Z" fill="#B22C7D"/>
<path d="M210.696 431.973C211.154 432.27 211.561 432.635 211.916 433.067C212.271 433.498 212.508 433.932 212.629 434.366L210.519 435.576C210.436 435.275 210.301 434.993 210.114 434.733C209.916 434.465 209.692 434.249 209.441 434.087C209.081 433.853 208.741 433.756 208.421 433.796C208.097 433.818 207.72 433.969 207.291 434.248L206.133 435.03L205.756 435.181L197.676 440.72L195.223 439.128L205.256 432.37C206 431.845 206.688 431.502 207.32 431.339C207.942 431.169 208.529 431.147 209.082 431.274C209.624 431.393 210.162 431.627 210.696 431.973ZM207.271 433.956L205.263 445.644L202.63 443.935L204.365 434.603L207.271 433.956Z" fill="#B22C7D"/>
<path d="M198.183 433.516L196.744 435.483L192.291 432.227L193.729 430.26L198.183 433.516Z" fill="#B22C7D"/>
<path d="M190.401 421.852C191.062 422.399 191.584 422.991 191.968 423.628C192.342 424.276 192.56 424.971 192.621 425.713C192.664 426.456 192.526 427.245 192.207 428.078C191.879 428.903 191.342 429.766 190.596 430.667C190.066 431.307 189.526 431.848 188.977 432.287C188.428 432.727 187.865 433.071 187.288 433.319C186.704 433.577 186.104 433.731 185.49 433.779C184.858 433.83 184.221 433.774 183.578 433.614C182.917 433.454 182.241 433.191 181.551 432.822L177.073 430.406L178.423 428.133L182.376 430.266C182.609 430.391 182.885 430.527 183.203 430.672C183.504 430.819 183.838 430.935 184.206 431.021C184.564 431.098 184.952 431.107 185.371 431.049C185.772 430.993 186.195 430.828 186.64 430.555C187.077 430.293 187.523 429.886 187.979 429.335C188.12 429.165 188.222 429.031 188.287 428.932C188.341 428.826 188.405 428.718 188.478 428.61C188.541 428.493 188.659 428.33 188.833 428.119L188.975 429.477C188.365 429.765 187.754 429.934 187.14 429.982C186.516 430.023 185.908 429.942 185.317 429.739C184.707 429.538 184.122 429.206 183.561 428.742C182.8 428.112 182.263 427.406 181.949 426.623C181.617 425.842 181.519 425.044 181.654 424.228C181.789 423.412 182.147 422.654 182.727 421.953C183.356 421.192 184.102 420.679 184.963 420.413C185.816 420.157 186.715 420.15 187.661 420.393C188.597 420.628 189.51 421.114 190.401 421.852ZM188.778 423.569C188.387 423.246 187.971 423.046 187.53 422.967C187.08 422.899 186.655 422.944 186.255 423.101C185.836 423.261 185.474 423.526 185.167 423.896C184.869 424.257 184.689 424.648 184.627 425.069C184.555 425.482 184.603 425.893 184.771 426.301C184.939 426.71 185.223 427.08 185.623 427.412C186.014 427.735 186.431 427.945 186.873 428.041C187.308 428.148 187.722 428.137 188.116 428.007C188.51 427.878 188.856 427.633 189.155 427.272C189.461 426.902 189.658 426.491 189.744 426.04C189.813 425.59 189.771 425.151 189.62 424.722C189.459 424.285 189.178 423.901 188.778 423.569Z" fill="#B22C7D"/>
<path d="M181.9 414.374C182.707 415.147 183.263 416.003 183.568 416.943C183.864 417.875 183.916 418.806 183.725 419.739C183.515 420.672 183.051 421.514 182.332 422.264C181.604 423.025 180.782 423.525 179.868 423.765C178.936 424.006 178.003 423.994 177.069 423.729C176.116 423.464 175.237 422.946 174.429 422.172C173.632 421.408 173.08 420.556 172.775 419.616C172.461 418.685 172.404 417.758 172.605 416.835C172.806 415.911 173.275 415.065 174.012 414.295C174.731 413.544 175.552 413.044 176.475 412.794C177.389 412.554 178.322 412.566 179.275 412.831C180.227 413.095 181.102 413.609 181.9 414.374ZM180.174 416.175C179.808 415.825 179.399 415.595 178.946 415.485C178.493 415.375 178.034 415.394 177.568 415.542C177.094 415.699 176.65 415.994 176.236 416.426C175.814 416.867 175.538 417.323 175.411 417.795C175.283 418.266 175.284 418.726 175.413 419.173C175.542 419.621 175.79 420.02 176.156 420.371C176.522 420.721 176.931 420.951 177.384 421.061C177.836 421.171 178.3 421.156 178.775 421.017C179.241 420.869 179.685 420.575 180.107 420.134C180.521 419.702 180.796 419.246 180.933 418.765C181.051 418.284 181.046 417.82 180.917 417.373C180.788 416.925 180.54 416.526 180.174 416.175Z" fill="#B22C7D"/>
<path d="M171.691 403.964L170.353 409.9L167.609 409.042L169.288 401.302L171.691 403.964ZM176.668 409.477L168.884 416.505L166.846 414.248L174.631 407.22L176.668 409.477ZM172.28 410.551L170.471 412.183L168.015 409.463L169.824 407.83L172.28 410.551ZM168.556 407.793L170.232 410.115L163.841 410.92L161.673 408.518L168.556 407.793Z" fill="#B22C7D"/>
<path d="M165.738 396.485C166.436 397.375 166.878 398.308 167.066 399.284C167.243 400.268 167.166 401.212 166.834 402.116C166.494 403.01 165.915 403.778 165.097 404.419C164.269 405.069 163.385 405.448 162.446 405.556C161.489 405.662 160.559 405.508 159.656 405.093C158.743 404.687 157.937 404.038 157.24 403.149C156.558 402.279 156.149 401.378 156.012 400.445C155.864 399.52 156.008 398.64 156.442 397.804L158.895 398.878C158.675 399.398 158.601 399.893 158.673 400.365C158.738 400.826 158.918 401.246 159.215 401.624C159.536 402.033 159.917 402.329 160.357 402.512C160.798 402.695 161.263 402.752 161.753 402.681C162.235 402.601 162.716 402.372 163.197 401.995C163.678 401.618 164.014 401.206 164.208 400.757C164.393 400.298 164.449 399.833 164.377 399.361C164.304 398.889 164.107 398.449 163.787 398.04C163.49 397.662 163.13 397.382 162.708 397.201C162.267 397.018 161.763 396.976 161.196 397.074L160.753 394.424C161.659 394.209 162.548 394.28 163.421 394.636C164.284 394.999 165.057 395.616 165.738 396.485Z" fill="#B22C7D"/>
<g filter="url(#filter2_d_702_25)">
<circle cx="295.5" cy="296.362" r="13.402" transform="rotate(45 295.5 296.362)" fill="#8BC8EB"/>
</g>
<defs>
<filter id="filter0_d_702_25" x="84.1132" y="86.5502" width="422.774" height="422.773" filterUnits="userSpaceOnUse" color-interpolation-filters="sRGB">
<feFlood flood-opacity="0" result="BackgroundImageFix"/>
<feColorMatrix in="SourceAlpha" type="matrix" values="0 0 0 0 0 0 0 0 0 0 0 0 0 0 0 0 0 0 127 0" result="hardAlpha"/>
<feOffset dy="2.43674"/>
<feGaussianBlur stdDeviation="10.9653"/>
<feComposite in2="hardAlpha" operator="out"/>
<feColorMatrix type="matrix" values="0 0 0 0 0.808333 0 0 0 0 0.991756 0 0 0 0 1 0 0 0 1 0"/>
<feBlend mode="normal" in2="BackgroundImageFix" result="effect1_dropShadow_702_25"/>
<feBlend mode="normal" in="SourceGraphic" in2="effect1_dropShadow_702_25" result="shape"/>
</filter>
<filter id="filter1_f_702_25" x="272.351" y="273.213" width="46.2979" height="46.2981" filterUnits="userSpaceOnUse" color-interpolation-filters="sRGB">
<feFlood flood-opacity="0" result="BackgroundImageFix"/>
<feBlend mode="normal" in="SourceGraphic" in2="BackgroundImageFix" result="shape"/>
<feGaussianBlur stdDeviation="7.3102" result="effect1_foregroundBlur_702_25"/>
</filter>
<filter id="filter2_d_702_25" x="277.735" y="278.596" width="35.5307" height="35.5305" filterUnits="userSpaceOnUse" color-interpolation-filters="sRGB">
<feFlood flood-opacity="0" result="BackgroundImageFix"/>
<feColorMatrix in="SourceAlpha" type="matrix" values="0 0 0 0 0 0 0 0 0 0 0 0 0 0 0 0 0 0 127 0" result="hardAlpha"/>
<feOffset/>
<feGaussianBlur stdDeviation="2.18161"/>
<feComposite in2="hardAlpha" operator="out"/>
<feColorMatrix type="matrix" values="0 0 0 0 0.625 0 0 0 0 0.983871 0 0 0 0 1 0 0 0 1 0"/>
<feBlend mode="normal" in2="BackgroundImageFix" result="effect1_dropShadow_702_25"/>
<feBlend mode="normal" in="SourceGraphic" in2="effect1_dropShadow_702_25" result="shape"/>
</filter>
<linearGradient id="paint0_linear_702_25" x1="452.294" y1="191.256" x2="277.837" y2="312.299" gradientUnits="userSpaceOnUse">
<stop stop-color="#740E5D"/>
<stop offset="1" stop-color="#740E5D" stop-opacity="0"/>
</linearGradient>
<clipPath id="clip0_702_25">
<rect width="68.2286" height="68.2286" fill="white" transform="translate(401.554 182.779) rotate(55.3944)"/>
</clipPath>
<clipPath id="clip1_702_25">
<rect width="67.8724" height="67.8724" fill="white" transform="matrix(-0.342512 0.939513 -0.939554 -0.342401 435.563 307.56)"/>
</clipPath>
<clipPath id="clip2_702_25">
<rect width="67.8714" height="67.8714" fill="white" transform="matrix(0.729327 -0.684165 0.684129 0.729361 168.026 213.304)"/>
</clipPath>
<clipPath id="clip3_702_25">
<rect width="68.2286" height="68.2286" fill="white" transform="translate(251.444 433.667) rotate(-149.331)"/>
</clipPath>
</defs>
</svg>
