<svg width="343" height="69" viewBox="0 0 343 69" fill="none" xmlns="http://www.w3.org/2000/svg">
<path d="M0 20C0 8.9543 8.9543 0 20 0H323C334.046 0 343 8.9543 343 20V49C343 60.0457 334.046 69 323 69H20C8.9543 69 0 60.0457 0 49V20Z" fill="#732D72"/>
<path d="M66.818 44V27.2H70.634V34.496H72.578L78.362 27.2H80.858L75.578 34.184L82.082 44H77.546L72.65 36.704H70.634V44H66.818ZM83.8469 48.8V32H87.0389V34.112C87.4389 33.36 87.9829 32.784 88.6709 32.384C89.3589 31.968 90.1509 31.76 91.0469 31.76C92.1189 31.76 93.0869 32.024 93.9509 32.552C94.8309 33.08 95.5189 33.816 96.0149 34.76C96.5109 35.704 96.7589 36.784 96.7589 38C96.7589 39.2 96.5109 40.28 96.0149 41.24C95.5189 42.184 94.8309 42.92 93.9509 43.448C93.0869 43.976 92.1189 44.24 91.0469 44.24C90.1829 44.24 89.4149 44.048 88.7429 43.664C88.0869 43.264 87.5669 42.704 87.1829 41.984V48.8H83.8469ZM90.3029 42.248C90.8949 42.248 91.4149 42.088 91.8629 41.768C92.3269 41.432 92.6869 40.944 92.9429 40.304C93.1989 39.664 93.3269 38.896 93.3269 38C93.3269 37.104 93.1989 36.336 92.9429 35.696C92.6869 35.056 92.3269 34.576 91.8629 34.256C91.4149 33.92 90.8949 33.752 90.3029 33.752C89.6949 33.752 89.1429 33.944 88.6469 34.328C88.1669 34.696 87.7829 35.208 87.4949 35.864C87.2229 36.504 87.0869 37.216 87.0869 38C87.0869 38.784 87.2229 39.504 87.4949 40.16C87.7829 40.8 88.1669 41.312 88.6469 41.696C89.1429 42.064 89.6949 42.248 90.3029 42.248ZM102.172 49.04C101.388 49.04 100.668 48.872 100.012 48.536C99.3722 48.2 98.8602 47.704 98.4762 47.048C98.0922 46.392 97.9002 45.608 97.9002 44.696V44.072H99.7722V44.816C99.7722 45.312 99.8682 45.744 100.06 46.112C100.268 46.48 100.54 46.768 100.876 46.976C101.228 47.2 101.612 47.312 102.028 47.312C102.604 47.312 103.06 47.144 103.396 46.808C103.748 46.472 103.924 46.04 103.924 45.512V45.344C103.924 45.024 103.86 44.672 103.732 44.288C103.62 43.904 103.38 43.352 103.012 42.632L97.5162 32H101.212L104.668 38.888C104.796 39.176 104.932 39.512 105.076 39.896C105.236 40.28 105.324 40.568 105.34 40.76C105.372 40.616 105.404 40.496 105.436 40.4C105.484 40.288 105.532 40.176 105.58 40.064L108.724 32H110.812L106.852 41.72C106.724 42.072 106.628 42.408 106.564 42.728C106.5 43.048 106.468 43.432 106.468 43.88V44.624C106.468 45.536 106.284 46.32 105.916 46.976C105.548 47.648 105.036 48.16 104.38 48.512C103.724 48.864 102.988 49.04 102.172 49.04ZM115.86 44V33.896H111.54V32H123.492V33.896H119.196V44H115.86ZM125.988 44.264V32H129.3V39.56L134.964 32H137.868V44H134.58V35.432L128.004 44.264H125.988ZM144.688 44V33.896H140.368V32H152.32V33.896H148.024V44H144.688ZM154.816 44V32H158.152V36.584H160.216C161.896 36.584 163.208 36.912 164.152 37.568C165.096 38.224 165.568 39.136 165.568 40.304C165.568 41.456 165.096 42.36 164.152 43.016C163.208 43.672 161.896 44 160.216 44H154.816ZM160.048 42.512C160.72 42.512 161.248 42.32 161.632 41.936C162.016 41.536 162.208 40.984 162.208 40.28C162.208 39.576 162.016 39.032 161.632 38.648C161.248 38.248 160.72 38.048 160.048 38.048H158.152V42.512H160.048ZM180.221 44.24C178.925 44.24 177.773 43.976 176.765 43.448C175.757 42.904 174.965 42.144 174.389 41.168C173.813 40.176 173.525 39.016 173.525 37.688V35.888C173.541 34.288 173.821 32.912 174.365 31.76C174.925 30.592 175.733 29.696 176.789 29.072C177.861 28.448 179.149 28.136 180.653 28.136H183.509V26.912H185.333V31.016H180.029C178.957 31.016 178.077 31.16 177.389 31.448C176.701 31.72 176.181 32.16 175.829 32.768C175.493 33.376 175.325 34.168 175.325 35.144V35.792C175.629 35.2 176.037 34.696 176.549 34.28C177.077 33.848 177.677 33.52 178.349 33.296C179.021 33.072 179.749 32.96 180.533 32.96C181.701 32.96 182.749 33.2 183.677 33.68C184.621 34.16 185.357 34.824 185.885 35.672C186.413 36.52 186.677 37.464 186.677 38.504C186.677 39.608 186.397 40.592 185.837 41.456C185.293 42.32 184.525 43 183.533 43.496C182.541 43.992 181.437 44.24 180.221 44.24ZM180.125 42.536C180.749 42.536 181.301 42.376 181.781 42.056C182.261 41.736 182.629 41.28 182.885 40.688C183.157 40.08 183.293 39.368 183.293 38.552C183.293 37.752 183.157 37.056 182.885 36.464C182.629 35.856 182.261 35.392 181.781 35.072C181.301 34.736 180.749 34.568 180.125 34.568C179.485 34.568 178.925 34.736 178.445 35.072C177.981 35.392 177.613 35.856 177.341 36.464C177.085 37.056 176.957 37.752 176.957 38.552C176.957 39.368 177.085 40.08 177.341 40.688C177.613 41.28 177.981 41.736 178.445 42.056C178.925 42.376 179.485 42.536 180.125 42.536ZM192.355 44.264C191.107 44.264 190.131 43.976 189.427 43.4C188.723 42.808 188.371 42.024 188.371 41.048C188.371 40.264 188.603 39.616 189.067 39.104C189.531 38.576 190.163 38.184 190.963 37.928C191.779 37.656 192.763 37.472 193.915 37.376C194.939 37.296 195.691 37.136 196.171 36.896C196.651 36.64 196.891 36.272 196.891 35.792C196.891 35.088 196.651 34.536 196.171 34.136C195.707 33.72 195.099 33.512 194.347 33.512C193.531 33.512 192.827 33.76 192.235 34.256C191.659 34.752 191.307 35.416 191.179 36.248H189.307C189.419 35.336 189.723 34.544 190.219 33.872C190.731 33.184 191.379 32.664 192.163 32.312C192.963 31.944 193.859 31.76 194.851 31.76C195.891 31.76 196.803 31.96 197.587 32.36C198.387 32.76 199.003 33.336 199.435 34.088C199.867 34.84 200.083 35.712 200.083 36.704V42.2H201.475V44H197.059V41.768C196.627 42.552 195.995 43.168 195.163 43.616C194.347 44.048 193.411 44.264 192.355 44.264ZM193.483 42.488C194.091 42.488 194.659 42.328 195.187 42.008C195.715 41.688 196.139 41.24 196.459 40.664C196.779 40.072 196.939 39.424 196.939 38.72L196.963 37.664C196.787 37.824 196.515 37.968 196.147 38.096C195.795 38.224 195.403 38.32 194.971 38.384C194.939 38.384 194.899 38.392 194.851 38.408C194.819 38.408 194.787 38.408 194.755 38.408C193.699 38.552 192.939 38.808 192.475 39.176C192.011 39.544 191.779 40.056 191.779 40.712C191.779 41.288 191.931 41.728 192.235 42.032C192.539 42.336 192.955 42.488 193.483 42.488ZM204.011 48.8V32H207.203V34.112C207.603 33.36 208.147 32.784 208.835 32.384C209.523 31.968 210.315 31.76 211.211 31.76C212.283 31.76 213.251 32.024 214.115 32.552C214.995 33.08 215.683 33.816 216.179 34.76C216.675 35.704 216.923 36.784 216.923 38C216.923 39.2 216.675 40.28 216.179 41.24C215.683 42.184 214.995 42.92 214.115 43.448C213.251 43.976 212.283 44.24 211.211 44.24C210.347 44.24 209.579 44.048 208.907 43.664C208.251 43.264 207.731 42.704 207.347 41.984V48.8H204.011ZM210.467 42.248C211.059 42.248 211.579 42.088 212.027 41.768C212.491 41.432 212.851 40.944 213.107 40.304C213.363 39.664 213.491 38.896 213.491 38C213.491 37.104 213.363 36.336 213.107 35.696C212.851 35.056 212.491 34.576 212.027 34.256C211.579 33.92 211.059 33.752 210.467 33.752C209.859 33.752 209.307 33.944 208.811 34.328C208.331 34.696 207.947 35.208 207.659 35.864C207.387 36.504 207.251 37.216 207.251 38C207.251 38.784 207.387 39.504 207.659 40.16C207.947 40.8 208.331 41.312 208.811 41.696C209.307 42.064 209.859 42.248 210.467 42.248ZM222.543 44.264C221.295 44.264 220.319 43.976 219.615 43.4C218.911 42.808 218.559 42.024 218.559 41.048C218.559 40.264 218.791 39.616 219.255 39.104C219.719 38.576 220.351 38.184 221.151 37.928C221.967 37.656 222.951 37.472 224.103 37.376C225.127 37.296 225.879 37.136 226.359 36.896C226.839 36.64 227.079 36.272 227.079 35.792C227.079 35.088 226.839 34.536 226.359 34.136C225.895 33.72 225.287 33.512 224.535 33.512C223.719 33.512 223.015 33.76 222.423 34.256C221.847 34.752 221.495 35.416 221.367 36.248H219.495C219.607 35.336 219.911 34.544 220.407 33.872C220.919 33.184 221.567 32.664 222.351 32.312C223.151 31.944 224.047 31.76 225.039 31.76C226.079 31.76 226.991 31.96 227.775 32.36C228.575 32.76 229.191 33.336 229.623 34.088C230.055 34.84 230.271 35.712 230.271 36.704V42.2H231.663V44H227.247V41.768C226.815 42.552 226.183 43.168 225.351 43.616C224.535 44.048 223.599 44.264 222.543 44.264ZM223.671 42.488C224.279 42.488 224.847 42.328 225.375 42.008C225.903 41.688 226.327 41.24 226.647 40.664C226.967 40.072 227.127 39.424 227.127 38.72L227.151 37.664C226.975 37.824 226.703 37.968 226.335 38.096C225.983 38.224 225.591 38.32 225.159 38.384C225.127 38.384 225.087 38.392 225.039 38.408C225.007 38.408 224.975 38.408 224.943 38.408C223.887 38.552 223.127 38.808 222.663 39.176C222.199 39.544 221.967 40.056 221.967 40.712C221.967 41.288 222.119 41.728 222.423 42.032C222.727 42.336 223.143 42.488 223.671 42.488ZM240.057 44.24C238.761 44.24 237.609 43.976 236.601 43.448C235.593 42.904 234.801 42.144 234.225 41.168C233.649 40.176 233.361 39.016 233.361 37.688V35.888C233.377 34.288 233.657 32.912 234.201 31.76C234.761 30.592 235.569 29.696 236.625 29.072C237.697 28.448 238.985 28.136 240.489 28.136H243.345V26.912H245.169V31.016H239.865C238.793 31.016 237.913 31.16 237.225 31.448C236.537 31.72 236.017 32.16 235.665 32.768C235.329 33.376 235.161 34.168 235.161 35.144V35.792C235.465 35.2 235.873 34.696 236.385 34.28C236.913 33.848 237.513 33.52 238.185 33.296C238.857 33.072 239.585 32.96 240.369 32.96C241.537 32.96 242.585 33.2 243.513 33.68C244.457 34.16 245.193 34.824 245.721 35.672C246.249 36.52 246.513 37.464 246.513 38.504C246.513 39.608 246.233 40.592 245.673 41.456C245.129 42.32 244.361 43 243.369 43.496C242.377 43.992 241.273 44.24 240.057 44.24ZM239.961 42.536C240.585 42.536 241.137 42.376 241.617 42.056C242.097 41.736 242.465 41.28 242.721 40.688C242.993 40.08 243.129 39.368 243.129 38.552C243.129 37.752 242.993 37.056 242.721 36.464C242.465 35.856 242.097 35.392 241.617 35.072C241.137 34.736 240.585 34.568 239.961 34.568C239.321 34.568 238.761 34.736 238.281 35.072C237.817 35.392 237.449 35.856 237.177 36.464C236.921 37.056 236.793 37.752 236.793 38.552C236.793 39.368 236.921 40.08 237.177 40.688C237.449 41.28 237.817 41.736 238.281 42.056C238.761 42.376 239.321 42.536 239.961 42.536ZM252.191 44.264C250.943 44.264 249.967 43.976 249.263 43.4C248.559 42.808 248.207 42.024 248.207 41.048C248.207 40.264 248.439 39.616 248.903 39.104C249.367 38.576 249.999 38.184 250.799 37.928C251.615 37.656 252.599 37.472 253.751 37.376C254.775 37.296 255.527 37.136 256.007 36.896C256.487 36.64 256.727 36.272 256.727 35.792C256.727 35.088 256.487 34.536 256.007 34.136C255.543 33.72 254.935 33.512 254.183 33.512C253.367 33.512 252.663 33.76 252.071 34.256C251.495 34.752 251.143 35.416 251.015 36.248H249.143C249.255 35.336 249.559 34.544 250.055 33.872C250.567 33.184 251.215 32.664 251.999 32.312C252.799 31.944 253.695 31.76 254.687 31.76C255.727 31.76 256.639 31.96 257.423 32.36C258.223 32.76 258.839 33.336 259.271 34.088C259.703 34.84 259.919 35.712 259.919 36.704V42.2H261.311V44H256.895V41.768C256.463 42.552 255.831 43.168 254.999 43.616C254.183 44.048 253.247 44.264 252.191 44.264ZM253.319 42.488C253.927 42.488 254.495 42.328 255.023 42.008C255.551 41.688 255.975 41.24 256.295 40.664C256.615 40.072 256.775 39.424 256.775 38.72L256.799 37.664C256.623 37.824 256.351 37.968 255.983 38.096C255.631 38.224 255.239 38.32 254.807 38.384C254.775 38.384 254.735 38.392 254.687 38.408C254.655 38.408 254.623 38.408 254.591 38.408C253.535 38.552 252.775 38.808 252.311 39.176C251.847 39.544 251.615 40.056 251.615 40.712C251.615 41.288 251.767 41.728 252.071 42.032C252.375 42.336 252.791 42.488 253.319 42.488ZM263.847 44V32H267.183V37.064H272.271V32H275.607V44H272.271V38.912H267.183V44H263.847Z" fill="white"/>
</svg>
