<svg width="383" height="109" viewBox="0 0 383 109" fill="none" xmlns="http://www.w3.org/2000/svg">
<g filter="url(#filter0_d_216_3247)">
<path d="M20 40C20 28.9543 28.9543 20 40 20H343C354.046 20 363 28.9543 363 40V69C363 80.0457 354.046 89 343 89H40C28.9543 89 20 80.0457 20 69V40Z" fill="#B22C7D"/>
<path d="M86.818 64V47.2H90.634V54.496H92.578L98.362 47.2H100.858L95.578 54.184L102.082 64H97.546L92.65 56.704H90.634V64H86.818ZM103.847 68.8V52H107.039V54.112C107.439 53.36 107.983 52.784 108.671 52.384C109.359 51.968 110.151 51.76 111.047 51.76C112.119 51.76 113.087 52.024 113.951 52.552C114.831 53.08 115.519 53.816 116.015 54.76C116.511 55.704 116.759 56.784 116.759 58C116.759 59.2 116.511 60.28 116.015 61.24C115.519 62.184 114.831 62.92 113.951 63.448C113.087 63.976 112.119 64.24 111.047 64.24C110.183 64.24 109.415 64.048 108.743 63.664C108.087 63.264 107.567 62.704 107.183 61.984V68.8H103.847ZM110.303 62.248C110.895 62.248 111.415 62.088 111.863 61.768C112.327 61.432 112.687 60.944 112.943 60.304C113.199 59.664 113.327 58.896 113.327 58C113.327 57.104 113.199 56.336 112.943 55.696C112.687 55.056 112.327 54.576 111.863 54.256C111.415 53.92 110.895 53.752 110.303 53.752C109.695 53.752 109.143 53.944 108.647 54.328C108.167 54.696 107.783 55.208 107.495 55.864C107.223 56.504 107.087 57.216 107.087 58C107.087 58.784 107.223 59.504 107.495 60.16C107.783 60.8 108.167 61.312 108.647 61.696C109.143 62.064 109.695 62.248 110.303 62.248ZM122.172 69.04C121.388 69.04 120.668 68.872 120.012 68.536C119.372 68.2 118.86 67.704 118.476 67.048C118.092 66.392 117.9 65.608 117.9 64.696V64.072H119.772V64.816C119.772 65.312 119.868 65.744 120.06 66.112C120.268 66.48 120.54 66.768 120.876 66.976C121.228 67.2 121.612 67.312 122.028 67.312C122.604 67.312 123.06 67.144 123.396 66.808C123.748 66.472 123.924 66.04 123.924 65.512V65.344C123.924 65.024 123.86 64.672 123.732 64.288C123.62 63.904 123.38 63.352 123.012 62.632L117.516 52H121.212L124.668 58.888C124.796 59.176 124.932 59.512 125.076 59.896C125.236 60.28 125.324 60.568 125.34 60.76C125.372 60.616 125.404 60.496 125.436 60.4C125.484 60.288 125.532 60.176 125.58 60.064L128.724 52H130.812L126.852 61.72C126.724 62.072 126.628 62.408 126.564 62.728C126.5 63.048 126.468 63.432 126.468 63.88V64.624C126.468 65.536 126.284 66.32 125.916 66.976C125.548 67.648 125.036 68.16 124.38 68.512C123.724 68.864 122.988 69.04 122.172 69.04ZM135.86 64V53.896H131.54V52H143.492V53.896H139.196V64H135.86ZM145.988 64.264V52H149.3V59.56L154.964 52H157.868V64H154.58V55.432L148.004 64.264H145.988ZM164.688 64V53.896H160.368V52H172.32V53.896H168.024V64H164.688ZM174.816 64V52H178.152V56.584H180.216C181.896 56.584 183.208 56.912 184.152 57.568C185.096 58.224 185.568 59.136 185.568 60.304C185.568 61.456 185.096 62.36 184.152 63.016C183.208 63.672 181.896 64 180.216 64H174.816ZM180.048 62.512C180.72 62.512 181.248 62.32 181.632 61.936C182.016 61.536 182.208 60.984 182.208 60.28C182.208 59.576 182.016 59.032 181.632 58.648C181.248 58.248 180.72 58.048 180.048 58.048H178.152V62.512H180.048ZM200.221 64.24C198.925 64.24 197.773 63.976 196.765 63.448C195.757 62.904 194.965 62.144 194.389 61.168C193.813 60.176 193.525 59.016 193.525 57.688V55.888C193.541 54.288 193.821 52.912 194.365 51.76C194.925 50.592 195.733 49.696 196.789 49.072C197.861 48.448 199.149 48.136 200.653 48.136H203.509V46.912H205.333V51.016H200.029C198.957 51.016 198.077 51.16 197.389 51.448C196.701 51.72 196.181 52.16 195.829 52.768C195.493 53.376 195.325 54.168 195.325 55.144V55.792C195.629 55.2 196.037 54.696 196.549 54.28C197.077 53.848 197.677 53.52 198.349 53.296C199.021 53.072 199.749 52.96 200.533 52.96C201.701 52.96 202.749 53.2 203.677 53.68C204.621 54.16 205.357 54.824 205.885 55.672C206.413 56.52 206.677 57.464 206.677 58.504C206.677 59.608 206.397 60.592 205.837 61.456C205.293 62.32 204.525 63 203.533 63.496C202.541 63.992 201.437 64.24 200.221 64.24ZM200.125 62.536C200.749 62.536 201.301 62.376 201.781 62.056C202.261 61.736 202.629 61.28 202.885 60.688C203.157 60.08 203.293 59.368 203.293 58.552C203.293 57.752 203.157 57.056 202.885 56.464C202.629 55.856 202.261 55.392 201.781 55.072C201.301 54.736 200.749 54.568 200.125 54.568C199.485 54.568 198.925 54.736 198.445 55.072C197.981 55.392 197.613 55.856 197.341 56.464C197.085 57.056 196.957 57.752 196.957 58.552C196.957 59.368 197.085 60.08 197.341 60.688C197.613 61.28 197.981 61.736 198.445 62.056C198.925 62.376 199.485 62.536 200.125 62.536ZM212.355 64.264C211.107 64.264 210.131 63.976 209.427 63.4C208.723 62.808 208.371 62.024 208.371 61.048C208.371 60.264 208.603 59.616 209.067 59.104C209.531 58.576 210.163 58.184 210.963 57.928C211.779 57.656 212.763 57.472 213.915 57.376C214.939 57.296 215.691 57.136 216.171 56.896C216.651 56.64 216.891 56.272 216.891 55.792C216.891 55.088 216.651 54.536 216.171 54.136C215.707 53.72 215.099 53.512 214.347 53.512C213.531 53.512 212.827 53.76 212.235 54.256C211.659 54.752 211.307 55.416 211.179 56.248H209.307C209.419 55.336 209.723 54.544 210.219 53.872C210.731 53.184 211.379 52.664 212.163 52.312C212.963 51.944 213.859 51.76 214.851 51.76C215.891 51.76 216.803 51.96 217.587 52.36C218.387 52.76 219.003 53.336 219.435 54.088C219.867 54.84 220.083 55.712 220.083 56.704V62.2H221.475V64H217.059V61.768C216.627 62.552 215.995 63.168 215.163 63.616C214.347 64.048 213.411 64.264 212.355 64.264ZM213.483 62.488C214.091 62.488 214.659 62.328 215.187 62.008C215.715 61.688 216.139 61.24 216.459 60.664C216.779 60.072 216.939 59.424 216.939 58.72L216.963 57.664C216.787 57.824 216.515 57.968 216.147 58.096C215.795 58.224 215.403 58.32 214.971 58.384C214.939 58.384 214.899 58.392 214.851 58.408C214.819 58.408 214.787 58.408 214.755 58.408C213.699 58.552 212.939 58.808 212.475 59.176C212.011 59.544 211.779 60.056 211.779 60.712C211.779 61.288 211.931 61.728 212.235 62.032C212.539 62.336 212.955 62.488 213.483 62.488ZM224.011 68.8V52H227.203V54.112C227.603 53.36 228.147 52.784 228.835 52.384C229.523 51.968 230.315 51.76 231.211 51.76C232.283 51.76 233.251 52.024 234.115 52.552C234.995 53.08 235.683 53.816 236.179 54.76C236.675 55.704 236.923 56.784 236.923 58C236.923 59.2 236.675 60.28 236.179 61.24C235.683 62.184 234.995 62.92 234.115 63.448C233.251 63.976 232.283 64.24 231.211 64.24C230.347 64.24 229.579 64.048 228.907 63.664C228.251 63.264 227.731 62.704 227.347 61.984V68.8H224.011ZM230.467 62.248C231.059 62.248 231.579 62.088 232.027 61.768C232.491 61.432 232.851 60.944 233.107 60.304C233.363 59.664 233.491 58.896 233.491 58C233.491 57.104 233.363 56.336 233.107 55.696C232.851 55.056 232.491 54.576 232.027 54.256C231.579 53.92 231.059 53.752 230.467 53.752C229.859 53.752 229.307 53.944 228.811 54.328C228.331 54.696 227.947 55.208 227.659 55.864C227.387 56.504 227.251 57.216 227.251 58C227.251 58.784 227.387 59.504 227.659 60.16C227.947 60.8 228.331 61.312 228.811 61.696C229.307 62.064 229.859 62.248 230.467 62.248ZM242.543 64.264C241.295 64.264 240.319 63.976 239.615 63.4C238.911 62.808 238.559 62.024 238.559 61.048C238.559 60.264 238.791 59.616 239.255 59.104C239.719 58.576 240.351 58.184 241.151 57.928C241.967 57.656 242.951 57.472 244.103 57.376C245.127 57.296 245.879 57.136 246.359 56.896C246.839 56.64 247.079 56.272 247.079 55.792C247.079 55.088 246.839 54.536 246.359 54.136C245.895 53.72 245.287 53.512 244.535 53.512C243.719 53.512 243.015 53.76 242.423 54.256C241.847 54.752 241.495 55.416 241.367 56.248H239.495C239.607 55.336 239.911 54.544 240.407 53.872C240.919 53.184 241.567 52.664 242.351 52.312C243.151 51.944 244.047 51.76 245.039 51.76C246.079 51.76 246.991 51.96 247.775 52.36C248.575 52.76 249.191 53.336 249.623 54.088C250.055 54.84 250.271 55.712 250.271 56.704V62.2H251.663V64H247.247V61.768C246.815 62.552 246.183 63.168 245.351 63.616C244.535 64.048 243.599 64.264 242.543 64.264ZM243.671 62.488C244.279 62.488 244.847 62.328 245.375 62.008C245.903 61.688 246.327 61.24 246.647 60.664C246.967 60.072 247.127 59.424 247.127 58.72L247.151 57.664C246.975 57.824 246.703 57.968 246.335 58.096C245.983 58.224 245.591 58.32 245.159 58.384C245.127 58.384 245.087 58.392 245.039 58.408C245.007 58.408 244.975 58.408 244.943 58.408C243.887 58.552 243.127 58.808 242.663 59.176C242.199 59.544 241.967 60.056 241.967 60.712C241.967 61.288 242.119 61.728 242.423 62.032C242.727 62.336 243.143 62.488 243.671 62.488ZM260.057 64.24C258.761 64.24 257.609 63.976 256.601 63.448C255.593 62.904 254.801 62.144 254.225 61.168C253.649 60.176 253.361 59.016 253.361 57.688V55.888C253.377 54.288 253.657 52.912 254.201 51.76C254.761 50.592 255.569 49.696 256.625 49.072C257.697 48.448 258.985 48.136 260.489 48.136H263.345V46.912H265.169V51.016H259.865C258.793 51.016 257.913 51.16 257.225 51.448C256.537 51.72 256.017 52.16 255.665 52.768C255.329 53.376 255.161 54.168 255.161 55.144V55.792C255.465 55.2 255.873 54.696 256.385 54.28C256.913 53.848 257.513 53.52 258.185 53.296C258.857 53.072 259.585 52.96 260.369 52.96C261.537 52.96 262.585 53.2 263.513 53.68C264.457 54.16 265.193 54.824 265.721 55.672C266.249 56.52 266.513 57.464 266.513 58.504C266.513 59.608 266.233 60.592 265.673 61.456C265.129 62.32 264.361 63 263.369 63.496C262.377 63.992 261.273 64.24 260.057 64.24ZM259.961 62.536C260.585 62.536 261.137 62.376 261.617 62.056C262.097 61.736 262.465 61.28 262.721 60.688C262.993 60.08 263.129 59.368 263.129 58.552C263.129 57.752 262.993 57.056 262.721 56.464C262.465 55.856 262.097 55.392 261.617 55.072C261.137 54.736 260.585 54.568 259.961 54.568C259.321 54.568 258.761 54.736 258.281 55.072C257.817 55.392 257.449 55.856 257.177 56.464C256.921 57.056 256.793 57.752 256.793 58.552C256.793 59.368 256.921 60.08 257.177 60.688C257.449 61.28 257.817 61.736 258.281 62.056C258.761 62.376 259.321 62.536 259.961 62.536ZM272.191 64.264C270.943 64.264 269.967 63.976 269.263 63.4C268.559 62.808 268.207 62.024 268.207 61.048C268.207 60.264 268.439 59.616 268.903 59.104C269.367 58.576 269.999 58.184 270.799 57.928C271.615 57.656 272.599 57.472 273.751 57.376C274.775 57.296 275.527 57.136 276.007 56.896C276.487 56.64 276.727 56.272 276.727 55.792C276.727 55.088 276.487 54.536 276.007 54.136C275.543 53.72 274.935 53.512 274.183 53.512C273.367 53.512 272.663 53.76 272.071 54.256C271.495 54.752 271.143 55.416 271.015 56.248H269.143C269.255 55.336 269.559 54.544 270.055 53.872C270.567 53.184 271.215 52.664 271.999 52.312C272.799 51.944 273.695 51.76 274.687 51.76C275.727 51.76 276.639 51.96 277.423 52.36C278.223 52.76 278.839 53.336 279.271 54.088C279.703 54.84 279.919 55.712 279.919 56.704V62.2H281.311V64H276.895V61.768C276.463 62.552 275.831 63.168 274.999 63.616C274.183 64.048 273.247 64.264 272.191 64.264ZM273.319 62.488C273.927 62.488 274.495 62.328 275.023 62.008C275.551 61.688 275.975 61.24 276.295 60.664C276.615 60.072 276.775 59.424 276.775 58.72L276.799 57.664C276.623 57.824 276.351 57.968 275.983 58.096C275.631 58.224 275.239 58.32 274.807 58.384C274.775 58.384 274.735 58.392 274.687 58.408C274.655 58.408 274.623 58.408 274.591 58.408C273.535 58.552 272.775 58.808 272.311 59.176C271.847 59.544 271.615 60.056 271.615 60.712C271.615 61.288 271.767 61.728 272.071 62.032C272.375 62.336 272.791 62.488 273.319 62.488ZM283.847 64V52H287.183V57.064H292.271V52H295.607V64H292.271V58.912H287.183V64H283.847Z" fill="white"/>
</g>
<defs>
<filter id="filter0_d_216_3247" x="0" y="0" width="383" height="109" filterUnits="userSpaceOnUse" color-interpolation-filters="sRGB">
<feFlood flood-opacity="0" result="BackgroundImageFix"/>
<feColorMatrix in="SourceAlpha" type="matrix" values="0 0 0 0 0 0 0 0 0 0 0 0 0 0 0 0 0 0 127 0" result="hardAlpha"/>
<feOffset/>
<feGaussianBlur stdDeviation="10"/>
<feColorMatrix type="matrix" values="0 0 0 0 1 0 0 0 0 0.427451 0 0 0 0 0.768627 0 0 0 0.5 0"/>
<feBlend mode="normal" in2="BackgroundImageFix" result="effect1_dropShadow_216_3247"/>
<feBlend mode="normal" in="SourceGraphic" in2="effect1_dropShadow_216_3247" result="shape"/>
</filter>
</defs>
</svg>
