<svg width="240" height="69" viewBox="0 0 240 69" fill="none" xmlns="http://www.w3.org/2000/svg">
<rect width="240" height="69" rx="34.5" fill="#FF6069"/>
<path d="M48.224 41.712C48.272 41.712 48.296 41.76 48.296 41.856C48.296 41.952 48.272 42 48.224 42H44.528C44.32 42 44.128 41.936 43.952 41.808C43.792 41.68 43.504 41.352 43.088 40.824C42.672 40.28 41.992 39.328 41.048 37.968L40.4 37.056C39.84 36.24 39.424 35.672 39.152 35.352C38.88 35.016 38.592 34.784 38.288 34.656C38 34.512 37.616 34.44 37.136 34.44V40.056C37.136 40.536 37.176 40.896 37.256 41.136C37.352 41.36 37.528 41.512 37.784 41.592C38.04 41.672 38.44 41.712 38.984 41.712C39.032 41.712 39.056 41.76 39.056 41.856C39.056 41.952 39.032 42 38.984 42C38.424 42 37.976 41.992 37.64 41.976L35.648 41.952L33.896 41.976C33.576 41.992 33.144 42 32.6 42C32.552 42 32.528 41.952 32.528 41.856C32.528 41.76 32.552 41.712 32.6 41.712C33.144 41.712 33.544 41.672 33.8 41.592C34.056 41.512 34.232 41.36 34.328 41.136C34.424 40.896 34.472 40.536 34.472 40.056V28.944C34.472 28.464 34.424 28.112 34.328 27.888C34.232 27.664 34.056 27.512 33.8 27.432C33.56 27.336 33.168 27.288 32.624 27.288C32.576 27.288 32.552 27.24 32.552 27.144C32.552 27.048 32.576 27 32.624 27L33.896 27.024C34.632 27.056 35.216 27.072 35.648 27.072C36.192 27.072 36.864 27.056 37.664 27.024L38.984 27C39.032 27 39.056 27.048 39.056 27.144C39.056 27.24 39.032 27.288 38.984 27.288C38.456 27.288 38.064 27.336 37.808 27.432C37.552 27.528 37.376 27.696 37.28 27.936C37.184 28.16 37.136 28.512 37.136 28.992V34.032C37.568 34.016 38.112 34.008 38.768 34.008L41.288 30.552C41.944 29.64 42.272 28.88 42.272 28.272C42.272 27.968 42.184 27.728 42.008 27.552C41.832 27.376 41.592 27.288 41.288 27.288C41.256 27.288 41.24 27.24 41.24 27.144C41.24 27.048 41.256 27 41.288 27L42.392 27.024C43.096 27.056 43.72 27.072 44.264 27.072C44.888 27.072 45.536 27.056 46.208 27.024L47.24 27C47.288 27 47.312 27.048 47.312 27.144C47.312 27.24 47.288 27.288 47.24 27.288C46.536 27.288 45.744 27.544 44.864 28.056C43.984 28.568 43.24 29.208 42.632 29.976L39.368 34.032C39.992 34.064 40.504 34.184 40.904 34.392C41.304 34.584 41.696 34.896 42.08 35.328C42.48 35.76 43.04 36.48 43.76 37.488L44.192 38.088C44.864 39.016 45.384 39.712 45.752 40.176C46.136 40.64 46.528 41.008 46.928 41.28C47.328 41.552 47.76 41.696 48.224 41.712ZM53.1918 39.96C53.1918 40.472 53.2478 40.848 53.3598 41.088C53.4718 41.312 53.6798 41.472 53.9838 41.568C54.3038 41.664 54.8078 41.712 55.4958 41.712C55.5438 41.712 55.5678 41.76 55.5678 41.856C55.5678 41.952 55.5438 42 55.4958 42C54.8398 42 54.3278 41.992 53.9598 41.976L51.8718 41.952L50.1198 41.976C49.7998 41.992 49.3678 42 48.8238 42C48.7758 42 48.7518 41.952 48.7518 41.856C48.7518 41.76 48.7758 41.712 48.8238 41.712C49.3358 41.712 49.7038 41.672 49.9278 41.592C50.1678 41.512 50.3278 41.36 50.4078 41.136C50.4878 40.896 50.5278 40.536 50.5278 40.056V28.944C50.5278 28.464 50.4878 28.112 50.4078 27.888C50.3278 27.664 50.1678 27.512 49.9278 27.432C49.6878 27.336 49.3198 27.288 48.8238 27.288C48.7758 27.288 48.7518 27.24 48.7518 27.144C48.7518 27.048 48.7758 27 48.8238 27L50.0958 27.024C50.8318 27.056 51.4158 27.072 51.8478 27.072C52.2318 27.072 52.6878 27.048 53.2158 27C53.4238 26.984 53.6878 26.968 54.0078 26.952C54.3278 26.936 54.6958 26.928 55.1118 26.928C56.7438 26.928 58.0318 27.272 58.9758 27.96C59.9198 28.632 60.3918 29.68 60.3918 31.104C60.3918 32.096 60.1358 32.936 59.6238 33.624C59.1118 34.312 58.4478 34.832 57.6318 35.184C56.8318 35.536 56.0078 35.712 55.1598 35.712C54.7278 35.712 54.3518 35.672 54.0318 35.592C53.9998 35.592 53.9838 35.552 53.9838 35.472C53.9838 35.424 53.9918 35.376 54.0078 35.328C54.0398 35.28 54.0718 35.264 54.1038 35.28C54.3438 35.344 54.6158 35.376 54.9198 35.376C55.6558 35.376 56.2638 35.032 56.7438 34.344C57.2398 33.656 57.4878 32.68 57.4878 31.416C57.4878 30.152 57.2158 29.176 56.6718 28.488C56.1438 27.8 55.3678 27.456 54.3438 27.456C53.8958 27.456 53.5918 27.56 53.4318 27.768C53.2718 27.976 53.1918 28.384 53.1918 28.992V39.96ZM76.3934 27C76.4414 27 76.4654 27.048 76.4654 27.144C76.4654 27.24 76.4414 27.288 76.3934 27.288C75.9294 27.288 75.4414 27.504 74.9294 27.936C74.4334 28.352 74.0414 28.888 73.7534 29.544L69.2414 40.032C68.8894 40.864 68.5134 41.448 68.1134 41.784C67.7134 42.12 67.1774 42.288 66.5054 42.288C65.8494 42.288 65.3214 42.144 64.9214 41.856C64.5214 41.568 64.3214 41.192 64.3214 40.728C64.3214 40.392 64.4334 40.104 64.6574 39.864C64.8814 39.608 65.1934 39.48 65.5934 39.48C65.9774 39.48 66.2574 39.584 66.4334 39.792C66.6094 39.984 66.7614 40.256 66.8894 40.608C66.9854 40.832 67.0734 41.008 67.1534 41.136C67.2494 41.248 67.3694 41.304 67.5134 41.304C67.6734 41.304 67.8334 41.216 67.9934 41.04C68.1534 40.848 68.3374 40.52 68.5454 40.056L68.9054 39.216L63.6494 28.992C63.3134 28.352 63.0094 27.912 62.7374 27.672C62.4814 27.416 62.1214 27.288 61.6574 27.288C61.6254 27.288 61.6094 27.24 61.6094 27.144C61.6094 27.048 61.6254 27 61.6574 27C62.0094 27 62.2574 27.008 62.4014 27.024C62.8814 27.056 63.5054 27.072 64.2734 27.072C65.4094 27.072 66.3454 27.056 67.0814 27.024C67.2894 27.008 67.5374 27 67.8254 27C67.8574 27 67.8734 27.048 67.8734 27.144C67.8734 27.24 67.8574 27.288 67.8254 27.288C66.8334 27.288 66.3374 27.536 66.3374 28.032C66.3374 28.224 66.4094 28.464 66.5534 28.752L70.2014 36.192L73.0334 29.544C73.1774 29.208 73.2494 28.896 73.2494 28.608C73.2494 28.208 73.0974 27.888 72.7934 27.648C72.5054 27.408 72.0974 27.288 71.5694 27.288C71.5374 27.288 71.5214 27.24 71.5214 27.144C71.5214 27.048 71.5374 27 71.5694 27L72.6494 27.024C73.2574 27.056 73.8014 27.072 74.2814 27.072C74.6334 27.072 75.0014 27.056 75.3854 27.024L76.3934 27ZM81.6014 27.552C79.6974 27.552 78.3294 28.792 77.4974 31.272C77.4814 31.32 77.4334 31.344 77.3534 31.344C77.2734 31.328 77.2334 31.296 77.2334 31.248C77.2974 30.608 77.3694 29.784 77.4494 28.776C77.5294 27.752 77.5694 26.984 77.5694 26.472C77.5694 26.392 77.6094 26.352 77.6894 26.352C77.7854 26.352 77.8334 26.392 77.8334 26.472C77.8334 26.824 78.2894 27 79.2014 27C80.5774 27.048 82.1854 27.072 84.0254 27.072C84.9694 27.072 85.9694 27.056 87.0254 27.024L88.6574 27C89.2654 27 89.7054 26.96 89.9774 26.88C90.2654 26.8 90.4494 26.64 90.5294 26.4C90.5454 26.336 90.5934 26.304 90.6734 26.304C90.7694 26.304 90.8174 26.336 90.8174 26.4C90.7694 26.88 90.7134 27.648 90.6494 28.704C90.6014 29.76 90.5774 30.608 90.5774 31.248C90.5774 31.296 90.5374 31.32 90.4574 31.32C90.3774 31.32 90.3294 31.296 90.3134 31.248C90.0734 30.016 89.6254 29.096 88.9694 28.488C88.3134 27.864 87.5054 27.552 86.5454 27.552C86.0814 27.552 85.7694 27.656 85.6094 27.864C85.4654 28.056 85.3934 28.432 85.3934 28.992V40.056C85.3934 40.552 85.4414 40.912 85.5374 41.136C85.6334 41.36 85.8174 41.512 86.0894 41.592C86.3614 41.672 86.7934 41.712 87.3854 41.712C87.4334 41.712 87.4574 41.76 87.4574 41.856C87.4574 41.952 87.4334 42 87.3854 42C86.8094 42 86.3534 41.992 86.0174 41.976L84.0254 41.952L82.0814 41.976C81.7454 41.992 81.2814 42 80.6894 42C80.6414 42 80.6174 41.952 80.6174 41.856C80.6174 41.76 80.6414 41.712 80.6894 41.712C81.2654 41.712 81.6894 41.672 81.9614 41.592C82.2494 41.512 82.4414 41.36 82.5374 41.136C82.6494 40.896 82.7054 40.536 82.7054 40.056V28.944C82.7054 28.4 82.6334 28.032 82.4894 27.84C82.3454 27.648 82.0494 27.552 81.6014 27.552ZM109.287 41.712C109.335 41.712 109.359 41.76 109.359 41.856C109.359 41.952 109.335 42 109.287 42C108.727 42 108.279 41.992 107.943 41.976L106.095 41.952L103.935 41.976C103.647 41.992 103.255 42 102.759 42C102.711 42 102.687 41.952 102.687 41.856C102.687 41.76 102.711 41.712 102.759 41.712C103.351 41.712 103.783 41.672 104.055 41.592C104.327 41.512 104.511 41.36 104.607 41.136C104.703 40.912 104.751 40.552 104.751 40.056V30.24L95.1513 42.264C95.1033 42.312 94.9833 42.336 94.7913 42.336C94.4873 42.336 94.3353 42.28 94.3353 42.168V28.944C94.3353 28.464 94.2873 28.112 94.1913 27.888C94.0953 27.664 93.9193 27.512 93.6633 27.432C93.4073 27.336 93.0073 27.288 92.4633 27.288C92.4153 27.288 92.3913 27.24 92.3913 27.144C92.3913 27.048 92.4153 27 92.4633 27L93.8073 27.024C94.6073 27.056 95.2233 27.072 95.6553 27.072C96.2953 27.072 97.0153 27.056 97.8153 27.024L98.9913 27C99.0393 27 99.0633 27.048 99.0633 27.144C99.0633 27.24 99.0393 27.288 98.9913 27.288C98.3993 27.288 97.9673 27.336 97.6953 27.432C97.4233 27.512 97.2393 27.664 97.1433 27.888C97.0473 28.112 96.9993 28.464 96.9993 28.944V38.856L106.599 26.832C106.647 26.784 106.767 26.76 106.959 26.76C107.071 26.76 107.175 26.776 107.271 26.808C107.367 26.84 107.415 26.88 107.415 26.928V40.056C107.415 40.536 107.463 40.896 107.559 41.136C107.655 41.36 107.831 41.512 108.087 41.592C108.343 41.672 108.743 41.712 109.287 41.712ZM115.375 27.552C113.471 27.552 112.103 28.792 111.271 31.272C111.255 31.32 111.207 31.344 111.127 31.344C111.047 31.328 111.007 31.296 111.007 31.248C111.071 30.608 111.143 29.784 111.223 28.776C111.303 27.752 111.343 26.984 111.343 26.472C111.343 26.392 111.383 26.352 111.463 26.352C111.559 26.352 111.607 26.392 111.607 26.472C111.607 26.824 112.063 27 112.975 27C114.351 27.048 115.959 27.072 117.799 27.072C118.743 27.072 119.743 27.056 120.799 27.024L122.431 27C123.039 27 123.479 26.96 123.751 26.88C124.039 26.8 124.223 26.64 124.303 26.4C124.319 26.336 124.367 26.304 124.447 26.304C124.543 26.304 124.591 26.336 124.591 26.4C124.543 26.88 124.487 27.648 124.423 28.704C124.375 29.76 124.351 30.608 124.351 31.248C124.351 31.296 124.311 31.32 124.231 31.32C124.151 31.32 124.103 31.296 124.087 31.248C123.847 30.016 123.399 29.096 122.743 28.488C122.087 27.864 121.279 27.552 120.319 27.552C119.855 27.552 119.543 27.656 119.383 27.864C119.239 28.056 119.167 28.432 119.167 28.992V40.056C119.167 40.552 119.215 40.912 119.311 41.136C119.407 41.36 119.591 41.512 119.863 41.592C120.135 41.672 120.567 41.712 121.159 41.712C121.207 41.712 121.231 41.76 121.231 41.856C121.231 41.952 121.207 42 121.159 42C120.583 42 120.127 41.992 119.791 41.976L117.799 41.952L115.855 41.976C115.519 41.992 115.055 42 114.463 42C114.415 42 114.391 41.952 114.391 41.856C114.391 41.76 114.415 41.712 114.463 41.712C115.039 41.712 115.463 41.672 115.735 41.592C116.023 41.512 116.215 41.36 116.311 41.136C116.423 40.896 116.479 40.536 116.479 40.056V28.944C116.479 28.4 116.407 28.032 116.263 27.84C116.119 27.648 115.823 27.552 115.375 27.552ZM133.269 33.528C134.965 33.528 136.261 33.864 137.157 34.536C138.053 35.192 138.501 36.168 138.501 37.464C138.501 38.392 138.269 39.208 137.805 39.912C137.341 40.6 136.693 41.136 135.861 41.52C135.045 41.904 134.117 42.096 133.077 42.096C132.661 42.096 132.173 42.072 131.613 42.024C131.405 42.024 131.069 42.016 130.605 42C130.141 41.968 129.733 41.952 129.381 41.952L127.845 41.976C127.509 41.992 127.045 42 126.453 42C126.405 42 126.381 41.952 126.381 41.856C126.381 41.76 126.405 41.712 126.453 41.712C126.997 41.68 127.373 41.64 127.581 41.592C127.805 41.528 127.957 41.392 128.037 41.184C128.133 40.96 128.181 40.584 128.181 40.056V28.944C128.181 28.416 128.141 28.048 128.061 27.84C127.981 27.632 127.829 27.496 127.605 27.432C127.397 27.368 127.021 27.32 126.477 27.288C126.445 27.288 126.429 27.24 126.429 27.144C126.429 27.048 126.445 27 126.477 27L127.677 27.024C128.349 27.056 128.957 27.072 129.501 27.072C130.029 27.072 130.693 27.056 131.493 27.024L132.861 27C132.893 27 132.909 27.048 132.909 27.144C132.909 27.24 132.893 27.288 132.861 27.288C132.237 27.32 131.805 27.368 131.565 27.432C131.325 27.496 131.149 27.64 131.037 27.864C130.925 28.088 130.869 28.464 130.869 28.992V33.72C131.765 33.592 132.565 33.528 133.269 33.528ZM132.645 41.496C133.749 41.496 134.533 41.208 134.997 40.632C135.461 40.04 135.693 39.12 135.693 37.872C135.693 36.592 135.445 35.664 134.949 35.088C134.469 34.496 133.637 34.2 132.453 34.2C132.037 34.2 131.509 34.24 130.869 34.32V40.056C130.869 40.536 130.981 40.896 131.205 41.136C131.445 41.376 131.925 41.496 132.645 41.496ZM162.225 41.712C162.273 41.712 162.297 41.76 162.297 41.856C162.297 41.952 162.273 42 162.225 42C161.681 42 161.249 41.992 160.929 41.976L159.177 41.952L157.185 41.976C156.849 41.992 156.401 42 155.841 42C155.793 42 155.769 41.952 155.769 41.856C155.769 41.76 155.793 41.712 155.841 41.712C156.385 41.712 156.785 41.672 157.041 41.592C157.297 41.512 157.465 41.36 157.545 41.136C157.641 40.896 157.689 40.536 157.689 40.056V29.232C157.689 28.688 157.665 28.328 157.617 28.152C157.585 27.976 157.497 27.864 157.353 27.816C157.209 27.768 156.921 27.744 156.489 27.744H151.569C151.089 27.744 150.769 27.768 150.609 27.816C150.449 27.864 150.345 27.976 150.297 28.152C150.265 28.328 150.249 28.688 150.249 29.232V40.056C150.249 40.552 150.289 40.912 150.369 41.136C150.465 41.36 150.633 41.512 150.873 41.592C151.129 41.672 151.537 41.712 152.097 41.712C152.145 41.712 152.169 41.76 152.169 41.856C152.169 41.952 152.145 42 152.097 42C151.537 42 151.089 41.992 150.753 41.976L148.761 41.952L146.985 41.976C146.665 41.992 146.233 42 145.689 42C145.657 42 145.641 41.952 145.641 41.856C145.641 41.76 145.657 41.712 145.689 41.712C146.249 41.712 146.657 41.672 146.913 41.592C147.169 41.512 147.345 41.36 147.441 41.136C147.537 40.896 147.585 40.536 147.585 40.056V29.232C147.585 28.512 147.465 28.008 147.225 27.72C146.985 27.432 146.489 27.288 145.737 27.288C145.689 27.288 145.665 27.24 145.665 27.144C145.665 27.048 145.689 27 145.737 27C146.281 27 146.809 27.008 147.321 27.024C149.465 27.056 151.713 27.072 154.065 27.072C156.193 27.072 158.649 27.048 161.433 27H162.225C162.273 27 162.297 27.048 162.297 27.144C162.297 27.24 162.273 27.288 162.225 27.288C161.473 27.288 160.969 27.432 160.713 27.72C160.473 28.008 160.353 28.512 160.353 29.232V40.056C160.353 40.536 160.401 40.896 160.497 41.136C160.593 41.36 160.769 41.512 161.025 41.592C161.281 41.672 161.681 41.712 162.225 41.712ZM168.176 39.96C168.176 40.472 168.232 40.848 168.344 41.088C168.456 41.312 168.664 41.472 168.968 41.568C169.288 41.664 169.792 41.712 170.48 41.712C170.528 41.712 170.552 41.76 170.552 41.856C170.552 41.952 170.528 42 170.48 42C169.824 42 169.312 41.992 168.944 41.976L166.856 41.952L165.104 41.976C164.784 41.992 164.352 42 163.808 42C163.76 42 163.736 41.952 163.736 41.856C163.736 41.76 163.76 41.712 163.808 41.712C164.32 41.712 164.688 41.672 164.912 41.592C165.152 41.512 165.312 41.36 165.392 41.136C165.472 40.896 165.512 40.536 165.512 40.056V28.944C165.512 28.464 165.472 28.112 165.392 27.888C165.312 27.664 165.152 27.512 164.912 27.432C164.672 27.336 164.304 27.288 163.808 27.288C163.76 27.288 163.736 27.24 163.736 27.144C163.736 27.048 163.76 27 163.808 27L165.08 27.024C165.816 27.056 166.4 27.072 166.832 27.072C167.216 27.072 167.672 27.048 168.2 27C168.408 26.984 168.672 26.968 168.992 26.952C169.312 26.936 169.68 26.928 170.096 26.928C171.728 26.928 173.016 27.272 173.96 27.96C174.904 28.632 175.376 29.68 175.376 31.104C175.376 32.096 175.12 32.936 174.608 33.624C174.096 34.312 173.432 34.832 172.616 35.184C171.816 35.536 170.992 35.712 170.144 35.712C169.712 35.712 169.336 35.672 169.016 35.592C168.984 35.592 168.968 35.552 168.968 35.472C168.968 35.424 168.976 35.376 168.992 35.328C169.024 35.28 169.056 35.264 169.088 35.28C169.328 35.344 169.6 35.376 169.904 35.376C170.64 35.376 171.248 35.032 171.728 34.344C172.224 33.656 172.472 32.68 172.472 31.416C172.472 30.152 172.2 29.176 171.656 28.488C171.128 27.8 170.352 27.456 169.328 27.456C168.88 27.456 168.576 27.56 168.416 27.768C168.256 27.976 168.176 28.384 168.176 28.992V39.96ZM193.85 41.712C193.898 41.712 193.922 41.76 193.922 41.856C193.922 41.952 193.898 42 193.85 42C193.29 42 192.842 41.992 192.506 41.976L190.658 41.952L188.498 41.976C188.21 41.992 187.818 42 187.322 42C187.274 42 187.25 41.952 187.25 41.856C187.25 41.76 187.274 41.712 187.322 41.712C187.914 41.712 188.346 41.672 188.618 41.592C188.89 41.512 189.074 41.36 189.17 41.136C189.266 40.912 189.314 40.552 189.314 40.056V30.24L179.714 42.264C179.666 42.312 179.546 42.336 179.354 42.336C179.05 42.336 178.898 42.28 178.898 42.168V28.944C178.898 28.464 178.85 28.112 178.754 27.888C178.658 27.664 178.482 27.512 178.226 27.432C177.97 27.336 177.57 27.288 177.026 27.288C176.978 27.288 176.954 27.24 176.954 27.144C176.954 27.048 176.978 27 177.026 27L178.37 27.024C179.17 27.056 179.786 27.072 180.218 27.072C180.858 27.072 181.578 27.056 182.378 27.024L183.554 27C183.602 27 183.626 27.048 183.626 27.144C183.626 27.24 183.602 27.288 183.554 27.288C182.962 27.288 182.53 27.336 182.258 27.432C181.986 27.512 181.802 27.664 181.706 27.888C181.61 28.112 181.562 28.464 181.562 28.944V38.856L191.162 26.832C191.21 26.784 191.33 26.76 191.522 26.76C191.634 26.76 191.738 26.776 191.834 26.808C191.93 26.84 191.978 26.88 191.978 26.928V40.056C191.978 40.536 192.026 40.896 192.122 41.136C192.218 41.36 192.394 41.512 192.65 41.592C192.906 41.672 193.306 41.712 193.85 41.712ZM201.857 33.936C203.201 34.032 204.289 34.424 205.121 35.112C205.953 35.784 206.369 36.656 206.369 37.728C206.369 38.592 206.089 39.376 205.529 40.08C204.969 40.768 204.217 41.312 203.273 41.712C202.329 42.096 201.297 42.288 200.177 42.288C199.457 42.288 198.769 42.208 198.113 42.048C197.457 41.888 196.953 41.664 196.601 41.376C196.457 41.296 196.369 41.232 196.337 41.184C196.305 41.12 196.281 41 196.265 40.824L195.977 37.584C195.977 37.552 196.017 37.528 196.097 37.512C196.193 37.496 196.249 37.512 196.265 37.56C196.393 38.376 196.673 39.12 197.105 39.792C197.553 40.448 198.097 40.968 198.737 41.352C199.377 41.72 200.049 41.904 200.753 41.904C201.601 41.904 202.241 41.544 202.673 40.824C203.121 40.088 203.345 39.192 203.345 38.136C203.345 36.84 203.001 35.864 202.313 35.208C201.641 34.536 200.681 34.2 199.433 34.2C199.369 34.2 199.337 34.152 199.337 34.056C199.337 33.96 199.369 33.912 199.433 33.912C200.585 33.912 201.441 33.608 202.001 33C202.577 32.392 202.865 31.536 202.865 30.432C202.865 29.328 202.673 28.488 202.289 27.912C201.921 27.336 201.369 27.048 200.633 27.048C200.089 27.048 199.545 27.24 199.001 27.624C198.457 27.992 197.977 28.504 197.561 29.16C197.145 29.816 196.833 30.552 196.625 31.368C196.609 31.416 196.561 31.432 196.481 31.416C196.401 31.4 196.361 31.376 196.361 31.344L196.697 27.936C196.729 27.744 196.761 27.616 196.793 27.552C196.825 27.488 196.913 27.432 197.057 27.384C198.289 26.952 199.569 26.736 200.897 26.736C201.953 26.736 202.841 26.888 203.561 27.192C204.281 27.48 204.817 27.872 205.169 28.368C205.537 28.848 205.721 29.376 205.721 29.952C205.721 30.864 205.329 31.688 204.545 32.424C203.761 33.16 202.865 33.664 201.857 33.936Z" fill="white"/>
</svg>
