<svg width="524" height="524" viewBox="0 0 524 524" fill="none" xmlns="http://www.w3.org/2000/svg">
<g clip-path="url(#clip0_1206_1963)">
<path d="M247.332 15.2779C257.003 10.1883 268.561 10.1883 278.233 15.2779C285.604 19.1568 294.164 20.1213 302.214 17.9799C312.775 15.17 324.044 17.7419 332.34 24.8561C338.663 30.2779 346.794 33.1231 355.118 32.8265C366.041 32.4374 376.454 37.4522 382.96 46.2342C387.918 52.9271 395.212 57.5102 403.393 59.0734C414.128 61.1244 423.165 68.3307 427.553 78.3401C430.897 85.9685 436.989 92.0598 444.617 95.4043C454.627 99.7927 461.833 108.829 463.884 119.564C465.447 127.745 470.03 135.039 476.723 139.998C485.505 146.503 490.52 156.917 490.131 167.839C489.834 176.163 492.679 184.294 498.101 190.617C505.215 198.914 507.787 210.182 504.977 220.744C502.836 228.793 503.801 237.353 507.679 244.724C512.769 254.396 512.769 265.954 507.679 275.626C503.801 282.997 502.836 291.557 504.977 299.606C507.787 310.168 505.215 321.436 498.101 329.733C492.679 336.056 489.834 344.187 490.131 352.511C490.52 363.434 485.505 373.847 476.723 380.353C470.03 385.311 465.447 392.605 463.884 400.786C461.833 411.521 454.627 420.557 444.617 424.946C436.989 428.29 430.897 434.382 427.553 442.01C423.165 452.019 414.128 459.226 403.393 461.277C395.212 462.84 387.918 467.423 382.96 474.116C376.454 482.898 366.041 487.913 355.118 487.524C346.794 487.227 338.663 490.072 332.34 495.494C324.044 502.608 312.775 505.18 302.214 502.37C294.164 500.229 285.604 501.193 278.233 505.072C268.561 510.162 257.003 510.162 247.332 505.072C239.96 501.193 231.4 500.229 223.351 502.37C212.789 505.18 201.521 502.608 193.224 495.494C186.901 490.072 178.77 487.227 170.446 487.524C159.524 487.913 149.11 482.898 142.605 474.116C137.647 467.423 130.353 462.84 122.171 461.277C111.436 459.226 102.4 452.019 98.0115 442.01C94.667 434.382 88.5757 428.29 80.9473 424.946C70.9378 420.557 63.7316 411.521 61.6805 400.786C60.1174 392.605 55.5342 385.311 48.8413 380.353C40.0593 373.847 35.0445 363.434 35.4337 352.511C35.7303 344.187 32.8851 336.056 27.4633 329.733C20.3491 321.436 17.7772 310.168 20.5871 299.606C22.7285 291.557 21.7639 282.997 17.8851 275.626C12.7955 265.954 12.7955 254.396 17.8851 244.724C21.7639 237.353 22.7285 228.793 20.5871 220.744C17.7772 210.182 20.3491 198.914 27.4633 190.617C32.8851 184.294 35.7303 176.163 35.4337 167.839C35.0445 156.917 40.0593 146.503 48.8413 139.998C55.5342 135.039 60.1174 127.745 61.6805 119.564C63.7316 108.829 70.9378 99.7927 80.9473 95.4043C88.5757 92.0598 94.667 85.9685 98.0115 78.3401C102.4 68.3307 111.436 61.1244 122.171 59.0734C130.353 57.5102 137.647 52.9271 142.605 46.2342C149.11 37.4522 159.524 32.4374 170.446 32.8265C178.77 33.1231 186.901 30.2779 193.224 24.8561C201.521 17.7419 212.789 15.17 223.351 17.9799C231.4 20.1213 239.96 19.1568 247.332 15.2779Z" fill="#EB683E"/>
<circle cx="262" cy="262" r="231.076" transform="rotate(45 262 262)" fill="#FB7044"/>
<path d="M485.795 236.018C489.59 269.645 485.626 303.983 474.447 335.924C463.267 367.865 444.887 397.021 420.95 420.943L261.954 261.55L485.795 236.018Z" fill="#FFEE97"/>
<path d="M381.414 70.8286C410.116 88.7567 434.407 112.925 452.48 141.535C470.554 170.145 481.945 202.462 485.807 236.082L262.145 261.772L381.414 70.8286Z" fill="#FF89A3"/>
<g filter="url(#filter0_f_1206_1963)">
<circle cx="262" cy="263.051" r="10.4022" transform="rotate(45 262 263.051)" fill="#E9A6FF"/>
</g>
<g clip-path="url(#clip1_1206_1963)">
<path d="M172.424 383.454C171.062 382.35 169.08 379.448 172.042 376.666C175.003 373.884 178.152 376.986 179.508 378.729C176.899 376.969 171.845 372.194 171.292 368.422" stroke="white" stroke-width="1.12861" stroke-linecap="round"/>
<path d="M192.113 385.816C197.705 386.642 207.706 382.606 212.203 380.41C214.59 379.152 220.442 375.153 224.751 369.221C229.06 363.29 225.736 356.572 223.535 353.954C222.012 352.257 222.081 352.077 218.816 349.511C215.551 346.945 207.132 339.795 197.957 336.766C188.783 333.737 183.411 339.558 181.872 342.848C173.01 357.728 177.104 372.833 180.26 378.526C185.09 379.173 190.175 383.656 192.113 385.816Z" fill="#FFEE97" stroke="#FFEE97" stroke-width="1.12861"/>
<path d="M198.777 342.281C196.23 340.563 190.112 338.568 186.018 344.336" stroke="white" stroke-width="1.12861" stroke-linecap="round"/>
<path d="M194.781 380.749C193.181 381.675 189.617 383.26 188.163 382.187" stroke="white" stroke-width="1.12861" stroke-linecap="round"/>
<path d="M184.827 374.626C184.721 376.472 184.914 380.367 186.528 381.181" stroke="white" stroke-width="1.12861" stroke-linecap="round"/>
<path d="M187.293 381.563L189.411 378.119" stroke="white" stroke-width="1.12861" stroke-linecap="round"/>
<path d="M189.197 398.407C193.197 394.623 192.855 388.531 192.185 385.959C187.364 380.35 182.149 378.685 180.144 378.553C173.482 380.214 169.977 386.267 170.279 387.727C170.582 389.188 174.23 387.459 176.237 388.693C178.244 389.927 176.999 391.715 179.469 393.379C181.939 395.044 185.602 391.109 186.587 395.059C187.375 398.22 188.655 398.608 189.197 398.407Z" fill="#FFEE97" stroke="#FFEE97" stroke-width="1.12861"/>
<path d="M193.87 369.243L194.879 365.252C195.314 363.533 194.879 361.71 193.715 360.371L191.012 357.264L194.718 358.481C196.658 359.118 198.791 358.61 200.234 357.168L202.992 354.412L201.698 357.997C200.966 360.025 201.507 362.294 203.076 363.774L205.85 366.391L202.211 365.129C200.221 364.439 198.012 364.965 196.548 366.477L193.87 369.243Z" fill="#732D72"/>
<path d="M192.423 386.054C189.886 383.378 184 378.388 179.392 378.437" stroke="white" stroke-width="1.30027" stroke-linecap="square"/>
<path d="M187.098 381.443C189.35 383.097 189.036 385.341 188.159 388.456" stroke="white" stroke-width="1.12861" stroke-linecap="round"/>
<path d="M187.31 381.573C184.774 380.417 182.957 381.601 180.572 383.789" stroke="white" stroke-width="1.12861" stroke-linecap="round"/>
</g>
<path d="M236.639 485.869C203.012 482.072 170.673 470.744 142.028 452.725C113.383 434.707 89.1681 410.463 71.1848 381.796L261.898 262.158L236.639 485.869Z" fill="#FFEE97"/>
<path d="M50.1258 187.6C61.2918 155.654 79.5159 126.637 103.443 102.706C127.37 78.7744 156.384 60.545 188.328 49.3733L262.65 261.884L50.1258 187.6Z" fill="#FFEE97"/>
<path d="M71.2224 381.858C53.2001 353.215 42.6588 320.849 38.8574 287.222C35.056 253.595 38.8843 219.544 50.0574 187.601L262.565 261.933L71.2224 381.858Z" fill="#F58561"/>
<path d="M188.153 49.386C220.118 38.2748 254.176 34.5126 287.796 38.3791C321.415 42.2457 353.456 53.1424 382.064 71.2202L262.073 262.037L188.153 49.386Z" fill="#F58561"/>
<path d="M236.623 485.87C270.213 489.668 304.432 485.656 336.342 474.466C368.252 463.276 397.235 445.023 421.136 421.065L261.661 259.996L236.623 485.87Z" fill="#F58561"/>
<g opacity="0.8">
<path d="M348.301 154.52C348.471 154.224 348.898 154.224 349.069 154.52L350.626 157.229C350.745 157.434 351.004 157.51 351.214 157.401L353.989 155.965C354.292 155.808 354.652 156.039 354.635 156.38L354.481 159.501C354.47 159.738 354.646 159.942 354.882 159.964L357.993 160.256C358.333 160.288 358.511 160.676 358.312 160.954L356.496 163.496C356.358 163.689 356.396 163.956 356.583 164.103L359.042 166.03C359.311 166.241 359.25 166.664 358.932 166.79L356.03 167.947C355.81 168.034 355.698 168.28 355.776 168.504L356.802 171.455C356.914 171.777 356.635 172.1 356.299 172.035L353.232 171.439C353 171.394 352.773 171.54 352.717 171.77L351.985 174.807C351.905 175.14 351.495 175.26 351.249 175.024L348.991 172.864C348.82 172.7 348.55 172.7 348.378 172.864L346.121 175.024C345.874 175.26 345.464 175.14 345.384 174.807L344.652 171.77C344.597 171.54 344.369 171.394 344.137 171.439L341.07 172.035C340.735 172.1 340.455 171.777 340.567 171.455L341.594 168.504C341.671 168.28 341.559 168.034 341.339 167.947L338.437 166.79C338.119 166.664 338.059 166.241 338.328 166.03L340.786 164.103C340.973 163.956 341.011 163.689 340.874 163.496L339.057 160.954C338.859 160.676 339.036 160.288 339.376 160.256L342.487 159.964C342.723 159.942 342.9 159.738 342.888 159.501L342.734 156.38C342.718 156.039 343.077 155.808 343.38 155.965L346.155 157.401C346.366 157.51 346.625 157.434 346.743 157.229L348.301 154.52Z" fill="#FFEE97"/>
<path d="M411.132 145.273C411.302 144.977 411.73 144.977 411.9 145.273L413.458 147.981C413.576 148.187 413.835 148.263 414.046 148.154L416.82 146.718C417.124 146.561 417.483 146.792 417.466 147.133L417.313 150.253C417.301 150.49 417.478 150.694 417.714 150.716L420.824 151.008C421.165 151.04 421.342 151.429 421.143 151.707L419.327 154.249C419.189 154.442 419.228 154.709 419.414 154.855L421.873 156.782C422.142 156.993 422.081 157.416 421.764 157.543L418.862 158.699C418.641 158.787 418.529 159.032 418.607 159.256L419.634 162.207C419.746 162.53 419.466 162.853 419.131 162.788L416.064 162.191C415.831 162.146 415.604 162.292 415.549 162.523L414.817 165.56C414.737 165.892 414.327 166.012 414.08 165.776L411.822 163.617C411.651 163.453 411.381 163.453 411.21 163.617L408.952 165.776C408.705 166.012 408.295 165.892 408.215 165.56L407.484 162.523C407.428 162.292 407.201 162.146 406.968 162.191L403.902 162.788C403.566 162.853 403.286 162.53 403.399 162.207L404.425 159.256C404.503 159.032 404.391 158.787 404.171 158.699L401.268 157.543C400.951 157.416 400.89 156.993 401.159 156.782L403.618 154.855C403.805 154.709 403.843 154.442 403.705 154.249L401.889 151.707C401.69 151.429 401.868 151.04 402.208 151.008L405.318 150.716C405.554 150.694 405.731 150.49 405.72 150.253L405.566 147.133C405.549 146.792 405.909 146.561 406.212 146.718L408.987 148.154C409.197 148.263 409.456 148.187 409.574 147.981L411.132 145.273Z" fill="#FFEE97"/>
<path d="M337.774 214.958C337.944 214.662 338.371 214.662 338.542 214.958L340.1 217.666C340.218 217.872 340.477 217.948 340.687 217.839L343.462 216.403C343.765 216.246 344.125 216.477 344.108 216.818L343.954 219.939C343.943 220.175 344.119 220.379 344.355 220.401L347.466 220.693C347.806 220.725 347.984 221.114 347.785 221.392L345.969 223.934C345.831 224.127 345.869 224.394 346.056 224.54L348.515 226.468C348.784 226.679 348.723 227.101 348.406 227.228L345.503 228.384C345.283 228.472 345.171 228.718 345.249 228.942L346.275 231.892C346.388 232.215 346.108 232.538 345.772 232.473L342.706 231.877C342.473 231.831 342.246 231.977 342.19 232.208L341.459 235.245C341.379 235.577 340.969 235.698 340.722 235.462L338.464 233.302C338.293 233.138 338.023 233.138 337.852 233.302L335.594 235.462C335.347 235.698 334.937 235.577 334.857 235.245L334.125 232.208C334.07 231.977 333.843 231.831 333.61 231.877L330.543 232.473C330.208 232.538 329.928 232.215 330.04 231.892L331.067 228.942C331.145 228.718 331.032 228.472 330.812 228.384L327.91 227.228C327.593 227.101 327.532 226.679 327.801 226.468L330.26 224.54C330.446 224.394 330.485 224.127 330.347 223.934L328.53 221.392C328.332 221.114 328.509 220.725 328.85 220.693L331.96 220.401C332.196 220.379 332.373 220.175 332.361 219.939L332.207 216.818C332.191 216.477 332.55 216.246 332.854 216.403L335.628 217.839C335.839 217.948 336.098 217.872 336.216 217.666L337.774 214.958Z" fill="#FFEE97"/>
<path d="M278.275 241.257C278.446 240.961 278.873 240.961 279.043 241.257L280.601 243.965C280.719 244.171 280.978 244.247 281.189 244.138L283.963 242.702C284.267 242.545 284.626 242.776 284.609 243.117L284.456 246.238C284.444 246.474 284.621 246.678 284.857 246.701L287.967 246.993C288.308 247.024 288.485 247.413 288.287 247.691L286.47 250.233C286.332 250.426 286.371 250.693 286.557 250.839L289.016 252.767C289.285 252.978 289.224 253.401 288.907 253.527L286.005 254.684C285.785 254.771 285.672 255.017 285.75 255.241L286.777 258.191C286.889 258.514 286.609 258.837 286.274 258.772L283.207 258.176C282.974 258.131 282.747 258.276 282.692 258.507L281.96 261.544C281.88 261.876 281.47 261.997 281.223 261.761L278.965 259.601C278.794 259.437 278.524 259.437 278.353 259.601L276.095 261.761C275.848 261.997 275.438 261.876 275.358 261.544L274.627 258.507C274.571 258.276 274.344 258.131 274.111 258.176L271.045 258.772C270.709 258.837 270.429 258.514 270.542 258.191L271.568 255.241C271.646 255.017 271.534 254.771 271.314 254.684L268.411 253.527C268.094 253.401 268.033 252.978 268.302 252.767L270.761 250.839C270.948 250.693 270.986 250.426 270.848 250.233L269.032 247.691C268.833 247.413 269.011 247.024 269.351 246.993L272.462 246.701C272.698 246.678 272.874 246.474 272.863 246.238L272.709 243.117C272.692 242.776 273.052 242.545 273.355 242.702L276.13 244.138C276.34 244.247 276.599 244.171 276.717 243.965L278.275 241.257Z" fill="#FFEE97"/>
<path d="M385.842 92.0659C386.012 91.7697 386.44 91.7697 386.61 92.0659L388.168 94.774C388.286 94.9795 388.545 95.0555 388.756 94.9466L391.53 93.5105C391.834 93.3535 392.193 93.5845 392.176 93.9258L392.023 97.0462C392.011 97.283 392.188 97.487 392.424 97.5091L395.534 97.8011C395.875 97.8331 396.052 98.2218 395.853 98.4998L394.037 101.042C393.899 101.235 393.938 101.502 394.124 101.648L396.583 103.575C396.852 103.786 396.791 104.209 396.474 104.336L393.572 105.492C393.351 105.58 393.239 105.825 393.317 106.049L394.344 109C394.456 109.323 394.176 109.646 393.841 109.581L390.774 108.984C390.541 108.939 390.314 109.085 390.259 109.315L389.527 112.353C389.447 112.685 389.037 112.805 388.79 112.569L386.532 110.41C386.361 110.246 386.091 110.246 385.92 110.41L383.662 112.569C383.415 112.805 383.005 112.685 382.925 112.353L382.194 109.315C382.138 109.085 381.911 108.939 381.678 108.984L378.611 109.581C378.276 109.646 377.996 109.323 378.109 109L379.135 106.049C379.213 105.825 379.101 105.58 378.881 105.492L375.978 104.336C375.661 104.209 375.6 103.786 375.869 103.575L378.328 101.648C378.514 101.502 378.553 101.235 378.415 101.042L376.599 98.4998C376.4 98.2218 376.578 97.8331 376.918 97.8011L380.028 97.5091C380.264 97.487 380.441 97.283 380.43 97.0462L380.276 93.9258C380.259 93.5845 380.619 93.3535 380.922 93.5105L383.697 94.9466C383.907 95.0555 384.166 94.9795 384.284 94.774L385.842 92.0659Z" fill="#FFEE97"/>
<path d="M411.132 210.286C411.302 209.99 411.73 209.99 411.9 210.286L413.458 212.994C413.576 213.2 413.835 213.276 414.046 213.167L416.82 211.731C417.124 211.574 417.483 211.805 417.466 212.146L417.313 215.266C417.301 215.503 417.478 215.707 417.714 215.729L420.824 216.021C421.165 216.053 421.342 216.442 421.143 216.72L419.327 219.262C419.189 219.455 419.228 219.722 419.414 219.868L421.873 221.796C422.142 222.006 422.081 222.429 421.764 222.556L418.862 223.712C418.641 223.8 418.529 224.046 418.607 224.27L419.634 227.22C419.746 227.543 419.466 227.866 419.131 227.801L416.064 227.205C415.831 227.159 415.604 227.305 415.549 227.536L414.817 230.573C414.737 230.905 414.327 231.026 414.08 230.789L411.822 228.63C411.651 228.466 411.381 228.466 411.21 228.63L408.952 230.789C408.705 231.026 408.295 230.905 408.215 230.573L407.484 227.536C407.428 227.305 407.201 227.159 406.968 227.205L403.902 227.801C403.566 227.866 403.286 227.543 403.399 227.22L404.425 224.27C404.503 224.046 404.391 223.8 404.171 223.712L401.268 222.556C400.951 222.429 400.89 222.006 401.159 221.796L403.618 219.868C403.805 219.722 403.843 219.455 403.705 219.262L401.889 216.72C401.69 216.442 401.868 216.053 402.208 216.021L405.318 215.729C405.554 215.707 405.731 215.503 405.72 215.266L405.566 212.146C405.549 211.805 405.909 211.574 406.212 211.731L408.987 213.167C409.197 213.276 409.456 213.2 409.574 212.994L411.132 210.286Z" fill="#FFEE97"/>
<path d="M457.227 175.369C457.397 175.073 457.825 175.073 457.995 175.369L459.553 178.077C459.671 178.283 459.93 178.359 460.14 178.25L462.915 176.814C463.218 176.657 463.578 176.888 463.561 177.229L463.407 180.35C463.396 180.586 463.573 180.79 463.809 180.813L466.919 181.105C467.259 181.137 467.437 181.525 467.238 181.803L465.422 184.345C465.284 184.538 465.323 184.805 465.509 184.952L467.968 186.879C468.237 187.09 468.176 187.513 467.859 187.639L464.956 188.796C464.736 188.883 464.624 189.129 464.702 189.353L465.728 192.304C465.841 192.626 465.561 192.949 465.226 192.884L462.159 192.288C461.926 192.243 461.699 192.389 461.643 192.619L460.912 195.656C460.832 195.988 460.422 196.109 460.175 195.873L457.917 193.713C457.746 193.549 457.476 193.549 457.305 193.713L455.047 195.873C454.8 196.109 454.39 195.988 454.31 195.656L453.578 192.619C453.523 192.389 453.296 192.243 453.063 192.288L449.996 192.884C449.661 192.949 449.381 192.626 449.493 192.304L450.52 189.353C450.598 189.129 450.486 188.883 450.265 188.796L447.363 187.639C447.046 187.513 446.985 187.09 447.254 186.879L449.713 184.952C449.899 184.805 449.938 184.538 449.8 184.345L447.984 181.803C447.785 181.525 447.962 181.137 448.303 181.105L451.413 180.813C451.649 180.79 451.826 180.586 451.814 180.35L451.661 177.229C451.644 176.888 452.003 176.657 452.307 176.814L455.081 178.25C455.292 178.359 455.551 178.283 455.669 178.077L457.227 175.369Z" fill="#FFEE97"/>
</g>
<circle cx="262" cy="262" r="16.3462" transform="rotate(45 262 262)" fill="#EB683E"/>
<path d="M309.149 217.915L316.019 230.914C316.214 231.283 316.434 231.57 316.68 231.774C316.941 231.97 317.161 232.09 317.341 232.132C317.536 232.167 317.724 232.225 317.905 232.306C318.101 232.38 318.239 232.493 318.321 232.647C318.483 232.954 318.226 233.286 317.55 233.644L314.277 235.373C313.586 235.739 313.155 235.76 312.984 235.438C312.895 235.268 312.89 235.074 312.971 234.855C313.067 234.627 313.179 234.411 313.306 234.206C313.449 233.993 313.532 233.723 313.556 233.396C313.587 233.045 313.509 232.693 313.322 232.34L308.255 222.751C307.987 222.244 307.723 221.912 307.463 221.754C307.218 221.589 306.821 221.563 306.272 221.676C305.707 221.798 305.356 221.728 305.218 221.467C305.145 221.329 305.153 221.177 305.242 221.011C305.324 220.831 305.565 220.507 305.967 220.039C307.125 218.66 307.911 217.842 308.325 217.583C308.486 217.479 308.634 217.46 308.767 217.527C308.908 217.57 309.036 217.7 309.149 217.915ZM331.798 226.409C329.923 227.4 327.988 227.401 325.991 226.411C324.001 225.399 322.348 223.648 321.033 221.159C319.782 218.792 319.308 216.576 319.612 214.509C319.907 212.426 320.938 210.918 322.705 209.984C324.549 209.01 326.454 209.025 328.42 210.03C330.402 211.028 332.047 212.763 333.354 215.237C334.613 217.619 335.102 219.847 334.822 221.921C334.558 223.987 333.55 225.483 331.798 226.409ZM331.533 225.016C332.425 224.545 332.802 223.677 332.664 222.413C332.534 221.125 332.059 219.705 331.239 218.153C330.549 216.847 329.716 215.626 328.742 214.49C327.784 213.345 326.757 212.462 325.662 211.842C324.56 211.206 323.624 211.091 322.856 211.497C321.949 211.976 321.564 212.828 321.701 214.053C321.837 215.279 322.323 216.683 323.16 218.265C323.663 219.218 324.268 220.157 324.973 221.082C325.669 221.991 326.403 222.803 327.173 223.516C327.935 224.214 328.705 224.722 329.481 225.038C330.265 225.332 330.949 225.324 331.533 225.016ZM346.114 218.844C344.239 219.834 342.303 219.835 340.306 218.846C338.316 217.834 336.664 216.083 335.348 213.593C334.098 211.227 333.624 209.01 333.927 206.943C334.223 204.861 335.254 203.353 337.021 202.419C338.865 201.444 340.77 201.46 342.736 202.465C344.718 203.462 346.362 205.198 347.67 207.672C348.928 210.053 349.418 212.281 349.138 214.356C348.873 216.422 347.865 217.918 346.114 218.844ZM345.849 217.45C346.74 216.979 347.117 216.112 346.98 214.847C346.85 213.56 346.375 212.14 345.554 210.588C344.864 209.282 344.032 208.061 343.058 206.924C342.099 205.78 341.073 204.897 339.978 204.276C338.875 203.64 337.94 203.525 337.171 203.931C336.265 204.411 335.88 205.263 336.016 206.488C336.153 207.713 336.639 209.117 337.475 210.7C337.979 211.653 338.583 212.591 339.288 213.516C339.985 214.426 340.719 215.237 341.489 215.951C342.251 216.649 343.02 217.156 343.797 217.473C344.581 217.766 345.265 217.759 345.849 217.45ZM360.429 211.278C358.554 212.269 356.619 212.27 354.622 211.281C352.632 210.268 350.979 208.517 349.664 206.028C348.413 203.662 347.94 201.445 348.243 199.378C348.538 197.295 349.569 195.787 351.336 194.853C353.18 193.879 355.085 193.894 357.052 194.9C359.033 195.897 360.678 197.632 361.985 200.106C363.244 202.488 363.733 204.716 363.453 206.79C363.189 208.857 362.181 210.352 360.429 211.278ZM360.165 209.885C361.056 209.414 361.433 208.546 361.295 207.282C361.165 205.994 360.69 204.575 359.87 203.023C359.18 201.717 358.348 200.495 357.374 199.359C356.415 198.214 355.388 197.332 354.294 196.711C353.191 196.075 352.255 195.96 351.487 196.366C350.58 196.845 350.195 197.697 350.332 198.923C350.468 200.148 350.955 201.552 351.791 203.135C352.295 204.087 352.899 205.026 353.604 205.951C354.301 206.86 355.034 207.672 355.804 208.385C356.566 209.083 357.336 209.591 358.113 209.908C358.897 210.201 359.581 210.193 360.165 209.885ZM379.359 201.274C377.484 202.265 375.549 202.266 373.552 201.277C371.562 200.264 369.909 198.513 368.594 196.024C367.343 193.658 366.87 191.441 367.173 189.374C367.468 187.292 368.499 185.783 370.266 184.85C372.11 183.875 374.015 183.89 375.981 184.896C377.963 185.893 379.608 187.628 380.915 190.102C382.174 192.484 382.663 194.712 382.383 196.786C382.119 198.853 381.111 200.349 379.359 201.274ZM379.094 199.881C379.986 199.41 380.363 198.542 380.225 197.278C380.095 195.991 379.62 194.571 378.8 193.019C378.11 191.713 377.278 190.491 376.303 189.355C375.345 188.21 374.318 187.328 373.223 186.707C372.121 186.071 371.185 185.956 370.417 186.362C369.51 186.841 369.125 187.693 369.262 188.919C369.398 190.144 369.885 191.548 370.721 193.131C371.224 194.083 371.829 195.022 372.534 195.947C373.23 196.856 373.964 197.668 374.734 198.381C375.496 199.079 376.266 199.587 377.042 199.904C377.827 200.197 378.511 200.189 379.094 199.881ZM393.675 193.709C391.8 194.7 389.864 194.7 387.867 193.711C385.877 192.699 384.225 190.948 382.909 188.459C381.659 186.092 381.185 183.876 381.488 181.809C381.784 179.726 382.815 178.218 384.582 177.284C386.426 176.31 388.331 176.325 390.297 177.33C392.279 178.328 393.923 180.063 395.231 182.537C396.489 184.919 396.979 187.147 396.699 189.221C396.434 191.287 395.426 192.783 393.675 193.709ZM393.41 192.315C394.301 191.844 394.678 190.977 394.541 189.713C394.411 188.425 393.936 187.005 393.116 185.453C392.425 184.147 391.593 182.926 390.619 181.79C389.66 180.645 388.634 179.762 387.539 179.142C386.436 178.506 385.501 178.391 384.732 178.797C383.826 179.276 383.441 180.128 383.577 181.353C383.714 182.579 384.2 183.983 385.037 185.565C385.54 186.518 386.144 187.457 386.849 188.382C387.546 189.291 388.28 190.103 389.05 190.816C389.812 191.514 390.581 192.022 391.358 192.338C392.142 192.632 392.826 192.624 393.41 192.315ZM407.99 186.144C406.116 187.134 404.18 187.135 402.183 186.146C400.193 185.134 398.54 183.383 397.225 180.893C395.974 178.527 395.501 176.31 395.804 174.243C396.099 172.161 397.13 170.653 398.897 169.719C400.741 168.744 402.646 168.76 404.613 169.765C406.594 170.762 408.239 172.498 409.546 174.972C410.805 177.353 411.294 179.581 411.014 181.656C410.75 183.722 409.742 185.218 407.99 186.144ZM407.726 184.75C408.617 184.279 408.994 183.412 408.856 182.147C408.726 180.86 408.251 179.44 407.431 177.888C406.741 176.582 405.909 175.361 404.935 174.224C403.976 173.08 402.949 172.197 401.855 171.576C400.752 170.94 399.816 170.825 399.048 171.231C398.141 171.71 397.756 172.563 397.893 173.788C398.029 175.013 398.516 176.417 399.352 178C399.856 178.953 400.46 179.891 401.165 180.816C401.862 181.726 402.595 182.537 403.365 183.251C404.127 183.949 404.897 184.456 405.674 184.773C406.458 185.066 407.142 185.059 407.726 184.75ZM426.614 176.007L423.71 177.541C423.064 177.882 422.648 177.876 422.462 177.523C422.348 177.308 422.38 176.996 422.557 176.588C422.75 176.171 422.771 175.728 422.62 175.257C422.545 175.002 422.438 174.744 422.3 174.483L418.901 168.052C418.739 167.745 418.37 167.753 417.794 168.077C417.318 168.329 417.006 168.631 416.858 168.984C416.726 169.329 416.672 169.879 416.697 170.632C416.707 171.06 416.687 171.375 416.637 171.578C416.579 171.766 416.473 171.901 416.319 171.982C416.012 172.144 415.712 171.949 415.42 171.396C415.054 170.665 414.801 169.964 414.661 169.29C414.559 168.912 414.591 168.6 414.757 168.355C414.937 168.102 415.381 167.789 416.088 167.416L422.542 164.005C423.264 163.623 423.773 163.433 424.068 163.434C424.364 163.435 424.647 163.581 424.918 163.87C425.324 164.304 425.75 164.905 426.195 165.672C426.518 166.209 426.518 166.563 426.195 166.733C425.903 166.888 425.465 166.746 424.879 166.308C424.271 165.863 423.779 165.602 423.404 165.525C423.029 165.448 422.6 165.528 422.115 165.764C421.777 165.943 421.567 166.103 421.484 166.245C421.409 166.363 421.412 166.499 421.494 166.653L424.904 173.106C425.042 173.368 425.195 173.601 425.363 173.807C425.547 174.044 425.75 174.222 425.97 174.342C426.182 174.446 426.362 174.508 426.511 174.528C426.651 174.532 426.792 174.576 426.933 174.658C427.082 174.717 427.202 174.831 427.291 175C427.47 175.338 427.244 175.674 426.614 176.007ZM436.494 159.993C436.871 160.521 436.915 160.901 436.624 161.133C436.472 161.253 436.317 161.296 436.161 161.26C435.996 161.21 435.706 161.068 435.288 160.837C434.518 160.458 433.884 160.262 433.386 160.25C432.895 160.214 432.258 160.404 431.475 160.818C430.967 161.086 430.673 161.31 430.592 161.491C430.502 161.656 430.559 161.931 430.762 162.315L433.868 168.192C434.128 168.684 434.393 169.055 434.663 169.306C434.94 169.533 435.164 169.66 435.336 169.687C435.523 169.706 435.707 169.756 435.888 169.838C436.084 169.911 436.23 170.04 436.328 170.224C436.506 170.562 436.281 170.898 435.651 171.231L432.77 172.753C432.109 173.103 431.685 173.101 431.498 172.747C431.401 172.563 431.373 172.381 431.416 172.201C431.466 171.998 431.536 171.813 431.625 171.648C431.73 171.475 431.759 171.214 431.713 170.865C431.673 170.492 431.523 170.06 431.263 169.569L428.632 164.59C428.494 164.329 428.337 164.088 428.161 163.866C427.921 163.561 427.664 163.372 427.391 163.3C427.124 163.205 426.886 163.145 426.675 163.118C426.472 163.068 426.322 162.951 426.224 162.767C426.029 162.398 426.308 162.015 427.061 161.617L432.777 158.596C433.499 158.214 433.997 158.02 434.269 158.014C434.548 157.985 434.819 158.107 435.081 158.381C435.542 158.806 436.013 159.343 436.494 159.993Z" fill="#6F1B00"/>
<path d="M324.75 283.864C327.414 284.452 329.381 285.5 330.65 287.008C331.936 288.52 332.369 290.226 331.95 292.127C331.542 293.977 330.567 295.248 329.026 295.94C327.489 296.616 325.448 296.673 322.902 296.111L317.505 294.92C317.013 294.811 316.674 294.692 316.489 294.562C316.304 294.433 316.238 294.249 316.29 294.011C316.335 293.808 316.422 293.658 316.55 293.561C316.695 293.469 316.853 293.397 317.025 293.346C317.213 293.298 317.399 293.224 317.581 293.121C317.768 293.002 317.951 292.776 318.132 292.442C318.333 292.095 318.495 291.641 318.619 291.081L320.832 281.051C320.956 280.491 320.997 280.02 320.957 279.637C320.938 279.241 320.867 278.958 320.744 278.789C320.625 278.603 320.49 278.448 320.339 278.326C320.205 278.207 320.091 278.076 319.999 277.931C319.923 277.789 319.908 277.617 319.953 277.413C320.005 277.176 320.143 277.037 320.365 276.997C320.587 276.957 320.945 276.991 321.437 277.1L331.014 279.186C331.71 279.34 332.171 279.513 332.395 279.705C332.64 279.883 332.78 280.137 332.815 280.465C332.969 281.3 333.01 282.243 332.938 283.295C332.901 283.945 332.71 284.286 332.365 284.317C331.952 284.332 331.637 283.987 331.419 283.28C331.128 282.344 330.728 281.615 330.22 281.093C329.729 280.576 329.059 280.223 328.211 280.036L326.938 279.755C325.869 279.519 325.146 279.449 324.769 279.544C324.409 279.642 324.184 279.895 324.094 280.302L323.482 283.077C323.403 283.434 323.544 283.643 323.904 283.704C324.077 283.725 324.359 283.778 324.75 283.864ZM323.098 294.739C324.574 295.065 325.806 295.007 326.793 294.567C327.784 294.109 328.427 293.21 328.723 291.869C329.079 290.257 328.801 288.816 327.888 287.547C326.993 286.281 325.732 285.46 324.107 285.084C323.703 284.977 323.422 284.96 323.264 285.032C323.106 285.103 322.997 285.275 322.937 285.547L321.184 293.489C321.121 293.778 321.212 294.011 321.457 294.19C321.719 294.373 322.266 294.556 323.098 294.739ZM338.19 299.751C336.459 299.369 335.143 298.518 334.242 297.198C333.362 295.865 333.118 294.307 333.511 292.525C333.938 290.59 334.941 289.112 336.519 288.09C338.114 287.071 339.904 286.781 341.89 287.219C343.587 287.594 344.86 288.48 345.709 289.877C346.574 291.278 346.818 292.836 346.439 294.55C346.016 296.468 345.028 297.923 343.474 298.915C341.92 299.907 340.159 300.186 338.19 299.751ZM339.453 298.508C340.403 298.718 341.218 298.533 341.898 297.953C342.577 297.373 343.039 296.532 343.282 295.429C343.63 293.85 343.549 292.364 343.038 290.97C342.531 289.559 341.7 288.726 340.546 288.471C339.579 288.258 338.749 288.466 338.059 289.097C337.385 289.731 336.924 290.608 336.677 291.729C336.321 293.341 336.398 294.808 336.907 296.131C337.433 297.457 338.282 298.25 339.453 298.508ZM361.398 295.395L360.218 300.741C360.098 301.284 360.06 301.738 360.104 302.104C360.169 302.456 360.258 302.698 360.371 302.83C360.502 302.966 360.609 303.123 360.694 303.302C360.796 303.484 360.825 303.678 360.78 303.881C360.698 304.255 360.309 304.365 359.613 304.211L356.431 303.509C355.701 303.348 355.379 303.072 355.465 302.682C355.51 302.478 355.607 302.322 355.756 302.212C355.925 302.089 356.097 301.994 356.273 301.926C356.465 301.861 356.656 301.681 356.846 301.385C357.056 301.075 357.222 300.649 357.342 300.106L357.594 298.96C357.684 298.553 357.662 298.29 357.528 298.171C357.347 298.025 356.518 297.788 355.042 297.463C353.514 297.126 352.644 296.996 352.431 297.073C352.277 297.128 352.156 297.351 352.07 297.741L351.817 298.887C351.697 299.43 351.66 299.884 351.703 300.25C351.768 300.602 351.857 300.845 351.97 300.976C352.101 301.112 352.208 301.269 352.293 301.448C352.395 301.631 352.424 301.824 352.379 302.028C352.297 302.401 351.908 302.511 351.212 302.357L348.03 301.655C347.3 301.494 346.978 301.219 347.064 300.828C347.109 300.625 347.206 300.468 347.355 300.358C347.524 300.236 347.696 300.14 347.872 300.072C348.064 300.008 348.255 299.827 348.445 299.531C348.656 299.222 348.821 298.795 348.941 298.252L350.12 292.906C350.24 292.363 350.268 291.915 350.203 291.563C350.159 291.197 350.072 290.947 349.942 290.811C349.812 290.676 349.695 290.516 349.593 290.334C349.508 290.155 349.488 289.964 349.533 289.76C349.615 289.386 350.013 289.278 350.726 289.436L353.908 290.138C354.638 290.299 354.961 290.566 354.879 290.939C354.834 291.143 354.727 291.306 354.557 291.429C354.405 291.556 354.233 291.651 354.04 291.715C353.865 291.784 353.672 291.972 353.462 292.282C353.272 292.578 353.117 292.998 352.997 293.541L352.744 294.686C352.654 295.094 352.676 295.357 352.81 295.475C352.992 295.622 353.837 295.862 355.348 296.195C356.858 296.529 357.72 296.656 357.933 296.579C358.078 296.486 358.19 296.262 358.268 295.905L358.521 294.76C358.641 294.217 358.669 293.769 358.604 293.417C358.56 293.051 358.473 292.8 358.343 292.665C358.212 292.529 358.096 292.37 357.994 292.187C357.909 292.008 357.889 291.817 357.934 291.614C358.016 291.24 358.414 291.132 359.127 291.289L362.309 291.992C363.039 292.153 363.362 292.42 363.28 292.793C363.235 292.997 363.128 293.16 362.958 293.283C362.806 293.409 362.634 293.505 362.441 293.569C362.266 293.637 362.073 293.826 361.863 294.136C361.673 294.432 361.518 294.851 361.398 295.395ZM375.501 294.902L377.104 295.256C377.817 295.413 378.132 295.679 378.05 296.052C378.001 296.273 377.867 296.439 377.646 296.55C377.447 296.649 377.157 296.834 376.776 297.106C376.4 297.361 376.037 297.753 375.689 298.281L370.535 306.034C369.98 306.855 369.552 307.463 369.251 307.859C368.963 308.276 368.584 308.745 368.114 309.264C367.66 309.787 367.242 310.148 366.86 310.349C366.494 310.553 366.052 310.704 365.531 310.803C365.011 310.902 364.454 310.886 363.86 310.755C363.097 310.586 362.495 310.249 362.055 309.742C361.632 309.239 361.486 308.691 361.617 308.097C361.71 307.673 361.918 307.336 362.24 307.087C362.562 306.837 362.927 306.758 363.334 306.848C363.623 306.911 363.857 307.061 364.036 307.296C364.229 307.552 364.358 307.812 364.425 308.076C364.508 308.343 364.637 308.603 364.813 308.856C365.006 309.112 365.238 309.27 365.509 309.33C365.917 309.42 366.323 309.233 366.727 308.771C367.128 308.325 367.4 307.78 367.542 307.135C367.647 306.66 367.639 306.009 367.519 305.181L366.067 296.158C365.956 295.528 365.784 295.019 365.55 294.629C365.319 294.222 365.134 293.932 364.994 293.759C364.858 293.568 364.814 293.363 364.863 293.142C364.945 292.769 365.335 292.659 366.03 292.813L369.391 293.554C370.121 293.715 370.444 293.982 370.362 294.356C370.321 294.542 370.159 294.711 369.876 294.863C369.594 295.014 369.377 295.189 369.227 295.387C369.076 295.585 369.033 296.065 369.096 296.826L370.235 304.125L374.315 297.978C374.696 297.297 374.867 296.845 374.827 296.622C374.791 296.383 374.685 296.137 374.51 295.885C374.351 295.636 374.292 295.419 374.333 295.232C374.416 294.859 374.805 294.749 375.501 294.902ZM381.598 309.329C379.782 308.928 378.448 308.038 377.596 306.657C376.748 305.26 376.509 303.721 376.879 302.041C377.303 300.123 378.284 298.658 379.825 297.645C381.382 296.636 383.078 296.334 384.91 296.738C386.421 297.072 387.543 297.755 388.276 298.789C389.026 299.826 389.279 300.897 389.035 302C388.923 302.509 388.701 302.87 388.37 303.081C388.038 303.293 387.669 303.354 387.262 303.264C386.837 303.17 386.543 302.972 386.378 302.668C386.214 302.365 386.114 301.969 386.08 301.481C385.973 299.464 385.234 298.296 383.863 297.976C382.93 297.77 382.113 297.963 381.413 298.556C380.716 299.132 380.242 299.989 379.991 301.126C379.636 302.738 379.754 304.135 380.348 305.316C380.963 306.484 381.949 307.217 383.306 307.517C384.545 307.79 385.855 307.501 387.236 306.649C387.526 306.463 387.757 306.461 387.931 306.642C388.109 306.806 388.1 307.044 387.907 307.357C387.401 308.118 386.6 308.724 385.503 309.176C384.41 309.611 383.109 309.662 381.598 309.329ZM402.014 300.485C403.864 300.894 405.194 301.801 406.005 303.208C406.816 304.615 407.034 306.167 406.66 307.864C406.248 309.731 405.314 311.18 403.858 312.212C402.403 313.243 400.657 313.534 398.62 313.085C397.67 312.875 396.806 312.471 396.031 311.873C395.272 311.278 394.794 310.621 394.597 309.901C394.499 309.541 394.566 309.316 394.8 309.225C395.054 309.121 395.276 309.206 395.465 309.479C396.328 310.648 397.43 311.381 398.771 311.677C399.976 311.942 401.004 311.76 401.855 311.129C402.727 310.485 403.329 309.408 403.662 307.897C402.899 308.209 402.246 308.305 401.703 308.186C401.347 308.107 400.919 307.87 400.418 307.475C399.939 307.067 399.555 306.831 399.266 306.767C398.961 306.7 398.609 306.72 398.212 306.828C397.814 306.936 397.565 306.979 397.463 306.956C397.174 306.893 397.062 306.717 397.125 306.428C397.212 306.038 397.595 305.713 398.275 305.454C398.955 305.194 399.558 305.123 400.084 305.239C400.458 305.321 400.897 305.587 401.403 306.037C401.913 306.47 402.346 306.726 402.702 306.804C403.042 306.879 403.419 306.864 403.833 306.76C403.909 305.531 403.714 304.438 403.249 303.481C402.787 302.507 402.03 301.904 400.978 301.672C399.688 301.387 398.574 301.72 397.634 302.669C397.186 303.087 396.852 303.271 396.631 303.222C396.343 303.159 396.274 302.867 396.424 302.349C396.576 301.742 396.811 301.117 397.131 300.476C397.302 300.104 397.453 299.862 397.585 299.748C397.737 299.622 397.907 299.579 398.094 299.62C398.195 299.643 398.335 299.736 398.513 299.9C398.694 300.046 398.878 300.14 399.064 300.182C399.166 300.204 399.508 300.226 400.091 300.248C400.694 300.256 401.335 300.336 402.014 300.485ZM423.698 305.27C425.141 305.588 426.163 306.401 426.764 307.709C427.369 308.999 427.442 310.608 426.981 312.535C426.484 314.543 425.642 316.022 424.454 316.97C423.266 317.918 421.967 318.236 420.559 317.926C419.473 317.686 418.603 317.111 417.949 316.202L417.404 318.671C417.284 319.214 417.246 319.669 417.29 320.034C417.351 320.404 417.447 320.656 417.577 320.792C417.707 320.927 417.817 321.076 417.906 321.238C418.008 321.421 418.035 321.622 417.986 321.843C417.903 322.216 417.506 322.324 416.793 322.167L413.611 321.465C412.881 321.304 412.559 321.028 412.645 320.638C412.69 320.434 412.789 320.269 412.942 320.143C413.107 320.037 413.278 319.95 413.453 319.882C413.645 319.817 413.838 319.629 414.032 319.315C414.242 319.006 414.408 318.58 414.528 318.037L415.072 315.567C414.097 316.117 413.066 316.272 411.98 316.033C410.605 315.729 409.531 314.95 408.758 313.693C408.006 312.424 407.847 310.805 408.282 308.836C408.694 306.969 409.498 305.501 410.695 304.43C411.897 303.342 413.269 302.969 414.814 303.31C415.968 303.564 416.814 304.205 417.353 305.231L417.988 302.355C418.085 301.914 418.098 301.534 418.026 301.215C417.974 300.884 417.873 300.657 417.722 300.534C417.592 300.399 417.472 300.257 417.362 300.108C417.273 299.946 417.248 299.78 417.285 299.61C417.315 299.474 417.392 299.367 417.517 299.288C417.641 299.208 417.871 299.134 418.206 299.066C419.618 298.719 420.641 298.598 421.276 298.702C421.633 298.781 421.762 299.041 421.665 299.482L420.864 302.99L420.207 305.968C421.211 305.211 422.375 304.978 423.698 305.27ZM413.193 314.645C413.804 314.78 414.327 314.709 414.763 314.431C415.198 314.153 415.471 313.76 415.584 313.251L416.662 308.363C416.846 307.531 416.779 306.822 416.464 306.237C416.148 305.651 415.651 305.283 414.972 305.133C414.106 304.942 413.349 305.229 412.7 305.993C412.071 306.745 411.62 307.74 411.347 308.979C410.988 310.608 410.992 311.917 411.361 312.906C411.734 313.878 412.345 314.458 413.193 314.645ZM423.924 312.475C424.316 310.941 424.377 309.656 424.108 308.617C423.855 307.583 423.254 306.961 422.304 306.751C421.659 306.609 421.085 306.749 420.582 307.172C420.083 307.578 419.742 308.197 419.559 309.029L418.48 313.916C418.371 314.409 418.499 314.882 418.861 315.335C419.241 315.793 419.761 316.095 420.423 316.241C422.036 316.596 423.203 315.341 423.924 312.475ZM431.76 320.13L428.578 319.428C427.848 319.267 427.527 318.991 427.613 318.601C427.665 318.364 427.891 318.146 428.29 317.95C428.707 317.757 429.01 317.432 429.199 316.976C429.306 316.732 429.392 316.466 429.455 316.178L430.677 310.521C430.741 310.232 430.777 309.947 430.786 309.664C430.797 309.292 430.723 308.982 430.564 308.734C430.422 308.489 430.288 308.29 430.162 308.138C430.039 307.968 430.004 307.765 430.056 307.527C430.138 307.154 430.528 307.044 431.223 307.197L434.431 307.905C435.144 308.062 435.459 308.328 435.377 308.701C435.328 308.922 435.204 309.081 435.004 309.18C434.821 309.282 434.606 309.412 434.357 309.571C434.129 309.716 433.949 309.97 433.815 310.332C433.705 310.593 433.617 310.867 433.554 311.155L432.588 315.534L438.936 312.29C439.115 312.205 439.223 312.122 439.258 312.04C439.311 311.963 439.339 311.836 439.343 311.659C439.346 311.321 439.302 311.036 439.211 310.802C439.124 310.551 439.029 310.379 438.925 310.285C438.821 310.191 438.731 310.073 438.656 309.932C438.601 309.777 438.594 309.607 438.635 309.42C438.718 309.047 439.107 308.937 439.803 309.09L443.01 309.798C443.723 309.955 444.038 310.221 443.956 310.594C443.907 310.815 443.783 310.974 443.583 311.073C443.401 311.175 443.185 311.305 442.936 311.464C442.708 311.609 442.528 311.863 442.395 312.225C442.284 312.486 442.196 312.76 442.133 313.048L440.886 318.7C440.822 318.988 440.788 319.266 440.782 319.531C440.77 319.831 440.809 320.098 440.9 320.332C440.994 320.548 441.091 320.712 441.192 320.823C441.312 320.921 441.4 321.047 441.455 321.202C441.531 321.343 441.548 321.507 441.507 321.694C441.424 322.067 441.035 322.177 440.339 322.023L437.157 321.321C436.427 321.16 436.106 320.884 436.192 320.494C436.244 320.256 436.47 320.039 436.869 319.843C437.286 319.65 437.589 319.325 437.778 318.869C437.886 318.625 437.971 318.359 438.035 318.071L438.953 313.788L432.635 317.013C432.394 317.138 432.254 317.329 432.215 317.588C432.208 317.942 432.249 318.236 432.34 318.47C432.431 318.703 432.528 318.867 432.632 318.961C432.736 319.055 432.817 319.171 432.876 319.309C432.952 319.45 432.969 319.614 432.928 319.801C432.845 320.174 432.456 320.284 431.76 320.13ZM454.294 312.021C455.822 312.358 456.954 313.195 457.691 314.533C458.432 315.853 458.606 317.404 458.213 319.186C457.767 321.206 456.856 322.713 455.48 323.709C454.107 324.687 452.64 325.004 451.078 324.66C449.687 324.353 448.525 323.687 447.594 322.663L447.053 325.24C446.933 325.783 446.897 326.229 446.944 326.577C447.005 326.947 447.092 327.197 447.206 327.329C447.336 327.465 447.444 327.622 447.529 327.801C447.631 327.984 447.659 328.177 447.614 328.381C447.532 328.754 447.143 328.864 446.447 328.71L443.239 328.003C442.527 327.845 442.211 327.58 442.294 327.207C442.339 327.003 442.437 326.838 442.59 326.711C442.759 326.588 442.932 326.493 443.107 326.425C443.299 326.361 443.492 326.172 443.686 325.858C443.893 325.566 444.056 325.148 444.176 324.605L446.366 314.436C446.542 313.639 446.413 313.014 445.979 312.562C445.722 312.274 445.618 312.02 445.667 311.799C445.704 311.63 445.785 311.505 445.909 311.426C446.037 311.329 446.269 311.247 446.605 311.179C447.786 310.905 448.686 310.819 449.305 310.92C449.668 310.965 449.798 311.225 449.693 311.7L449.269 313.502C450.701 312.091 452.376 311.598 454.294 312.021ZM451.28 323.263C452.264 323.48 453.089 323.252 453.753 322.58C454.438 321.895 454.91 320.967 455.168 319.796C455.524 318.183 455.463 316.808 454.984 315.67C454.522 314.536 453.799 313.861 452.815 313.643C451.881 313.438 451.05 313.655 450.322 314.295C449.597 314.918 449.126 315.722 448.909 316.706L448.527 318.437C448.278 319.646 448.445 320.706 449.027 321.617C449.612 322.512 450.363 323.06 451.28 323.263Z" fill="#EB683E"/>
<path d="M198.82 206.756L197.153 205.257C196.558 204.722 196.395 204.306 196.662 204.009C196.79 203.867 196.959 203.797 197.168 203.798C197.377 203.799 197.594 203.831 197.819 203.893C198.032 203.968 198.347 203.982 198.763 203.935C199.154 203.89 199.571 203.751 200.014 203.518L213.751 196.589C214.003 196.465 214.216 196.411 214.389 196.426C214.55 196.455 214.803 196.577 215.146 196.792C215.581 197.089 215.851 197.321 215.959 197.488C216.066 197.654 216.071 197.87 215.974 198.133L210.535 212.912C210.309 213.527 210.214 214.061 210.25 214.514C210.287 214.968 210.335 215.304 210.396 215.522C210.445 215.753 210.388 215.959 210.226 216.14C210.063 216.321 209.881 216.38 209.681 216.316C209.456 216.255 209.163 216.061 208.801 215.735L206.107 213.312C205.539 212.801 205.388 212.396 205.655 212.099C205.806 211.931 206.055 211.863 206.401 211.893C206.735 211.913 207.023 211.891 207.266 211.829C207.496 211.756 207.765 211.378 208.073 210.697L212.539 198.795L201.255 204.634C200.612 205.037 200.259 205.351 200.197 205.576C200.122 205.789 200.117 206.042 200.182 206.334C200.222 206.627 200.172 206.851 200.033 207.006C199.754 207.316 199.349 207.233 198.82 206.756ZM203.882 192.235L197.117 199.755C196.652 200.272 196.345 200.743 196.195 201.17C196.032 201.584 195.994 201.9 196.079 202.117C196.151 202.323 196.2 202.541 196.225 202.774C196.236 202.995 196.161 203.196 195.998 203.377C195.847 203.545 195.665 203.591 195.452 203.516C195.227 203.454 194.927 203.255 194.552 202.918L191.955 200.582C191.27 199.966 191.067 199.502 191.346 199.192C191.509 199.011 191.707 198.921 191.941 198.921C192.175 198.921 192.404 198.952 192.629 199.014C192.841 199.064 193.151 198.992 193.559 198.798C193.967 198.605 194.404 198.249 194.869 197.732L201.633 190.212C202.098 189.695 202.412 189.23 202.575 188.815C202.725 188.389 202.763 188.073 202.691 187.867C202.606 187.65 202.557 187.431 202.545 187.21C202.521 186.978 202.59 186.771 202.753 186.59C202.904 186.422 203.092 186.369 203.316 186.431C203.53 186.506 203.824 186.712 204.198 187.049L206.795 189.385C207.48 190.001 207.683 190.465 207.404 190.775C207.241 190.956 207.043 191.046 206.809 191.046C206.576 191.046 206.353 191.021 206.141 190.971C205.916 190.909 205.6 190.975 205.191 191.169C204.783 191.362 204.347 191.718 203.882 192.235ZM188.496 197.47L184.678 194.036C182.662 192.222 181.499 190.346 181.187 188.405C180.875 186.465 181.37 184.771 182.672 183.324C183.962 181.89 185.447 181.239 187.128 181.372C188.797 181.517 190.601 182.462 192.539 184.205L194.07 185.583C194.238 185.734 194.365 185.813 194.452 185.821C194.526 185.817 194.644 185.725 194.807 185.544L195.539 184.73C196.004 184.213 196.318 183.747 196.48 183.332C196.63 182.906 196.669 182.59 196.596 182.385C196.511 182.168 196.462 181.949 196.451 181.728C196.426 181.495 196.495 181.289 196.658 181.108C196.809 180.94 196.997 180.887 197.222 180.949C197.435 181.024 197.729 181.23 198.104 181.567L200.701 183.903C201.386 184.519 201.588 184.982 201.31 185.292C201.147 185.473 200.949 185.564 200.715 185.564C200.481 185.564 200.258 185.539 200.046 185.488C199.821 185.426 199.505 185.492 199.097 185.686C198.689 185.88 198.252 186.235 197.787 186.752L190.97 194.331C190.587 194.757 190.318 195.146 190.164 195.499C189.986 195.853 189.909 196.134 189.932 196.342C189.944 196.563 189.985 196.764 190.056 196.945C190.114 197.114 190.148 197.284 190.157 197.456C190.153 197.616 190.082 197.774 189.942 197.929C189.779 198.11 189.591 198.163 189.378 198.088C189.165 198.013 188.871 197.807 188.496 197.47ZM191.729 185.3C189.313 183.127 187.181 183.067 185.333 185.122C184.194 186.388 183.663 187.758 183.741 189.23C183.807 190.716 184.435 191.993 185.624 193.063C186.205 193.586 186.608 193.878 186.833 193.94C187.046 194.015 187.246 193.949 187.432 193.742L193.011 187.54C193.208 187.32 193.232 187.061 193.08 186.761C192.916 186.45 192.466 185.963 191.729 185.3ZM187.682 168.054C188.005 168.345 187.904 168.756 187.378 169.289C186.688 169.978 186.1 170.489 185.613 170.822C185.339 170.996 185.085 171.071 184.85 171.047C184.603 171.035 184.281 170.874 183.883 170.563C183.702 170.4 183.503 170.361 183.286 170.447C182.225 170.872 181.08 171.56 179.851 172.511C178.597 173.464 177.644 174.302 176.993 175.025C176.703 175.348 176.517 175.672 176.435 175.996C176.342 176.333 176.326 176.611 176.387 176.829C176.436 177.061 176.467 177.287 176.478 177.508C176.49 177.729 176.438 177.904 176.322 178.033C176.182 178.188 176.012 178.234 175.812 178.17C175.599 178.096 175.292 177.878 174.891 177.518L168.67 171.921C168.269 171.561 168.027 171.284 167.943 171.092C167.859 170.899 167.887 170.726 168.026 170.571C168.142 170.441 168.311 170.371 168.532 170.359C168.728 170.349 168.932 170.357 169.142 170.382C169.34 170.397 169.596 170.346 169.91 170.231C170.211 170.104 170.495 169.892 170.762 169.595L175.853 163.936C176.051 163.716 176.045 163.501 175.837 163.291C175.499 162.939 175.311 162.654 175.275 162.434C175.214 162.216 175.262 161.955 175.418 161.651C175.699 161.132 176.145 160.493 176.757 159.735C177.231 159.156 177.629 159.012 177.952 159.302C178.211 159.535 178.235 160.001 178.026 160.701C177.879 161.177 177.78 161.52 177.73 161.732C177.691 161.931 177.68 162.19 177.697 162.509C177.726 162.815 177.84 163.105 178.039 163.377C178.225 163.638 178.512 163.943 178.899 164.292L182.621 167.639C183.008 167.988 183.348 168.247 183.64 168.416C183.919 168.573 184.212 168.65 184.52 168.646C184.839 168.629 185.095 168.591 185.289 168.532C185.494 168.459 185.826 168.325 186.283 168.128C186.957 167.847 187.424 167.822 187.682 168.054ZM182.332 169.168L178.34 165.576L172.359 172.224C172.092 172.522 171.995 172.773 172.067 172.978C172.139 173.184 172.466 173.548 173.048 174.071C173.694 174.652 174.142 174.985 174.393 175.07C174.619 175.157 174.866 175.064 175.135 174.791C177.832 172.261 180.231 170.387 182.332 169.168ZM170.396 156.292C171.714 157.477 172.439 158.866 172.573 160.459C172.682 162.053 172.126 163.529 170.906 164.885C169.58 166.358 167.979 167.151 166.102 167.262C164.213 167.362 162.512 166.732 161 165.372C159.708 164.21 159.037 162.812 158.987 161.178C158.925 159.532 159.481 158.056 160.655 156.751C161.968 155.291 163.545 154.513 165.386 154.415C167.227 154.318 168.897 154.943 170.396 156.292ZM168.685 156.751C167.961 156.1 167.161 155.86 166.284 156.029C165.407 156.199 164.59 156.703 163.835 157.543C162.754 158.745 162.092 160.078 161.85 161.543C161.595 163.021 161.908 164.155 162.786 164.946C163.523 165.608 164.347 165.835 165.259 165.627C166.158 165.407 166.991 164.871 167.758 164.018C168.863 162.791 169.519 161.476 169.728 160.074C169.924 158.661 169.576 157.553 168.685 156.751ZM159.284 146.296C160.667 147.54 161.389 148.973 161.45 150.594C161.499 152.228 160.949 153.685 159.798 154.964C158.485 156.424 156.908 157.215 155.069 157.337C153.216 157.447 151.592 156.875 150.197 155.619C149.047 154.585 148.408 153.437 148.279 152.176C148.138 150.904 148.445 149.848 149.201 149.008C149.55 148.62 149.92 148.416 150.313 148.395C150.706 148.375 151.057 148.504 151.367 148.783C151.69 149.073 151.849 149.391 151.842 149.736C151.836 150.081 151.727 150.474 151.517 150.916C150.616 152.724 150.683 154.104 151.718 155.059C152.428 155.698 153.234 155.932 154.136 155.762C155.026 155.604 155.861 155.092 156.639 154.226C157.744 152.999 158.328 151.725 158.394 150.405C158.435 149.086 157.939 147.961 156.905 147.031C155.962 146.183 154.679 145.789 153.058 145.85C152.715 145.869 152.512 145.756 152.45 145.513C152.376 145.283 152.501 145.08 152.823 144.903C153.639 144.491 154.634 144.358 155.811 144.505C156.977 144.665 158.134 145.262 159.284 146.296ZM148.17 136.649L150.612 138.846C151.155 139.334 151.293 139.727 151.025 140.024C150.863 140.205 150.559 140.283 150.115 140.257C149.657 140.22 149.234 140.353 148.844 140.656C148.63 140.815 148.425 141.005 148.227 141.224L143.363 146.632C143.131 146.89 143.266 147.234 143.768 147.663C144.169 148.023 144.56 148.212 144.943 148.228C145.312 148.233 145.846 148.094 146.545 147.811C146.943 147.655 147.246 147.565 147.454 147.542C147.65 147.531 147.813 147.584 147.942 147.7C148.201 147.933 148.121 148.282 147.702 148.747C147.143 149.343 146.572 149.822 145.988 150.185C145.667 150.411 145.364 150.489 145.077 150.418C144.777 150.335 144.33 150.027 143.736 149.492L138.309 144.61C137.702 144.064 137.348 143.652 137.247 143.374C137.146 143.096 137.185 142.781 137.363 142.427C137.63 141.896 138.047 141.289 138.614 140.607C139.007 140.118 139.339 139.996 139.61 140.24C139.856 140.461 139.874 140.922 139.665 141.622C139.457 142.347 139.381 142.898 139.438 143.277C139.495 143.655 139.718 144.031 140.107 144.404C140.391 144.66 140.614 144.802 140.776 144.83C140.913 144.86 141.039 144.81 141.156 144.681L146.037 139.254C146.235 139.035 146.401 138.81 146.537 138.582C146.696 138.327 146.793 138.076 146.829 137.828C146.854 137.593 146.85 137.402 146.818 137.256C146.774 137.123 146.766 136.976 146.794 136.814C146.798 136.654 146.864 136.503 146.992 136.361C147.248 136.077 147.64 136.173 148.17 136.649ZM127.725 135.09L126.504 133.991C125.961 133.503 125.818 133.117 126.074 132.833C126.225 132.665 126.424 132.586 126.67 132.598C126.893 132.611 127.236 132.593 127.701 132.543C128.155 132.507 128.663 132.345 129.226 132.057L137.532 127.852C138.42 127.411 139.092 127.092 139.549 126.896C140.005 126.675 140.566 126.454 141.231 126.235C141.883 126.003 142.425 125.895 142.857 125.909C143.275 125.911 143.735 125.998 144.236 126.168C144.738 126.338 145.214 126.627 145.667 127.034C146.248 127.557 146.605 128.147 146.739 128.805C146.859 129.45 146.716 130 146.309 130.452C146.018 130.775 145.671 130.965 145.268 131.024C144.865 131.082 144.509 130.972 144.199 130.693C143.979 130.495 143.849 130.25 143.809 129.956C143.768 129.639 143.783 129.349 143.855 129.086C143.915 128.812 143.93 128.522 143.902 128.216C143.86 127.898 143.736 127.647 143.529 127.461C143.219 127.182 142.774 127.144 142.194 127.347C141.626 127.537 141.121 127.877 140.679 128.368C140.354 128.73 140.039 129.3 139.736 130.079L136.552 138.647C136.338 139.249 136.237 139.777 136.249 140.232C136.249 140.7 136.267 141.043 136.303 141.263C136.328 141.496 136.265 141.696 136.113 141.864C135.858 142.148 135.465 142.052 134.935 141.575L132.377 139.274C131.821 138.774 131.671 138.382 131.927 138.098C132.055 137.956 132.279 137.888 132.599 137.896C132.92 137.904 133.194 137.859 133.423 137.76C133.651 137.662 133.926 137.266 134.246 136.572L136.852 129.66L130.273 132.998C129.605 133.403 129.234 133.711 129.159 133.925C129.072 134.151 129.043 134.417 129.072 134.723C129.087 135.018 129.031 135.236 128.903 135.378C128.648 135.662 128.255 135.566 127.725 135.09ZM117.498 121.366L121.263 117.179C121.635 116.766 121.892 116.389 122.034 116.05C122.152 115.711 122.194 115.457 122.16 115.286C122.114 115.104 122.097 114.914 122.112 114.716C122.113 114.507 122.183 114.325 122.323 114.17C122.578 113.886 122.971 113.982 123.501 114.458L125.924 116.638C126.479 117.137 126.623 117.536 126.356 117.833C126.216 117.988 126.055 118.077 125.872 118.099C125.664 118.122 125.467 118.12 125.281 118.093C125.082 118.054 124.827 118.117 124.515 118.281C124.179 118.447 123.826 118.736 123.454 119.15L118.973 124.131C118.694 124.441 118.629 124.733 118.779 125.009C118.916 125.272 119.424 125.799 120.303 126.589C121.298 127.484 121.953 128.004 122.268 128.147C122.57 128.279 122.861 128.189 123.14 127.879L127.621 122.898C127.993 122.485 128.25 122.108 128.392 121.768C128.509 121.43 128.551 121.175 128.517 121.005C128.471 120.823 128.455 120.633 128.469 120.435C128.47 120.226 128.54 120.044 128.68 119.889C128.936 119.604 129.328 119.7 129.858 120.177L132.281 122.356C132.836 122.856 132.981 123.255 132.713 123.552C132.574 123.707 132.412 123.795 132.229 123.817C132.021 123.841 131.824 123.839 131.638 123.812C131.439 123.773 131.184 123.836 130.872 124C130.537 124.165 130.183 124.455 129.811 124.868L126.045 129.055C125.847 129.274 125.675 129.505 125.528 129.747C125.324 130.077 125.235 130.384 125.262 130.665C125.265 130.948 125.29 131.193 125.338 131.4C125.362 131.608 125.303 131.789 125.164 131.944C124.885 132.254 124.429 132.124 123.796 131.555L115.248 123.866C114.615 123.297 114.438 122.857 114.717 122.547C114.857 122.392 115.037 122.321 115.26 122.333C115.457 122.348 115.703 122.347 115.998 122.331C116.281 122.329 116.57 122.203 116.864 121.953C117.089 121.781 117.3 121.586 117.498 121.366Z" fill="#EB683E"/>
<path d="M279.873 181.502C279.597 183.253 278.98 184.66 278.021 185.723C277.047 186.766 276.003 187.42 274.888 187.684C274.526 187.75 274.295 187.652 274.195 187.39C274.081 187.108 274.172 186.868 274.468 186.668C276.229 185.538 277.275 183.925 277.604 181.831C277.775 180.749 277.596 179.815 277.069 179.028C276.528 178.222 275.768 177.741 274.789 177.587C273.33 177.357 272.135 177.794 271.205 178.896C270.26 179.979 269.455 181.682 268.79 184.005C268.655 184.53 268.342 184.674 267.851 184.438L261.743 181.497C261.35 181.312 261.195 181.015 261.277 180.605C261.618 179.111 261.87 177.506 262.035 175.79C262.117 175.046 262.064 174.431 261.877 173.944C261.675 173.437 261.585 173.115 261.607 172.978C261.656 172.669 261.943 172.573 262.47 172.691C262.914 172.779 263.434 172.993 264.032 173.333C264.336 173.522 264.54 173.739 264.642 173.983C264.744 174.228 264.769 174.628 264.717 175.183C264.542 177.073 264.231 178.995 263.783 180.947L266.779 182.369C268.556 176.333 271.256 173.6 274.879 174.17C276.51 174.427 277.823 175.25 278.818 176.638C279.816 178.009 280.168 179.631 279.873 181.502ZM282.367 165.668C282.037 167.762 280.878 169.313 278.889 170.319C276.887 171.306 274.495 171.58 271.714 171.142C269.07 170.726 267.011 169.777 265.538 168.296C264.047 166.812 263.457 165.083 263.768 163.108C264.093 161.048 265.246 159.532 267.229 158.56C269.215 157.571 271.59 157.294 274.354 157.729C277.015 158.148 279.092 159.091 280.585 160.558C282.081 162.007 282.675 163.71 282.367 165.668ZM281.092 165.045C281.249 164.049 280.78 163.227 279.686 162.58C278.577 161.913 277.156 161.443 275.422 161.169C273.962 160.94 272.486 160.874 270.992 160.973C269.502 161.055 268.18 161.349 267.027 161.853C265.857 162.355 265.205 163.035 265.07 163.894C264.91 164.907 265.362 165.726 266.425 166.35C267.487 166.975 268.903 167.427 270.671 167.705C271.736 167.873 272.849 167.952 274.012 167.941C275.158 167.928 276.247 167.827 277.28 167.638C278.295 167.446 279.162 167.134 279.881 166.701C280.586 166.249 280.99 165.697 281.092 165.045ZM285.697 144.518C285.368 146.612 284.209 148.163 282.22 149.169C280.218 150.156 277.826 150.43 275.044 149.992C272.4 149.575 270.342 148.627 268.868 147.145C267.378 145.662 266.788 143.932 267.099 141.958C267.423 139.898 268.577 138.382 270.56 137.41C272.546 136.42 274.92 136.143 277.684 136.579C280.345 136.998 282.423 137.941 283.916 139.407C285.412 140.857 286.006 142.56 285.697 144.518ZM284.423 143.895C284.58 142.899 284.111 142.077 283.017 141.43C281.908 140.763 280.486 140.292 278.752 140.019C277.293 139.79 275.817 139.724 274.323 139.823C272.832 139.905 271.511 140.199 270.358 140.703C269.188 141.205 268.536 141.885 268.4 142.744C268.241 143.757 268.693 144.575 269.755 145.2C270.818 145.825 272.234 146.277 274.002 146.555C275.066 146.723 276.18 146.801 277.343 146.791C278.489 146.778 279.578 146.677 280.61 146.488C281.626 146.296 282.493 145.983 283.212 145.551C283.917 145.099 284.32 144.547 284.423 143.895ZM288.216 128.523C287.886 130.618 286.727 132.168 284.739 133.174C282.736 134.161 280.344 134.435 277.563 133.997C274.919 133.581 272.861 132.632 271.387 131.151C269.897 129.667 269.307 127.938 269.618 125.964C269.942 123.903 271.096 122.387 273.079 121.415C275.064 120.426 277.439 120.149 280.203 120.584C282.864 121.003 284.941 121.946 286.435 123.413C287.931 124.862 288.524 126.566 288.216 128.523ZM286.942 127.9C287.099 126.904 286.63 126.083 285.536 125.435C284.427 124.768 283.005 124.298 281.271 124.025C279.812 123.795 278.336 123.73 276.842 123.829C275.351 123.911 274.03 124.204 272.877 124.709C271.707 125.211 271.054 125.891 270.919 126.749C270.76 127.762 271.211 128.581 272.274 129.206C273.337 129.831 274.753 130.282 276.521 130.561C277.585 130.728 278.699 130.807 279.862 130.796C281.007 130.783 282.097 130.682 283.129 130.493C284.145 130.301 285.012 129.989 285.731 129.557C286.436 129.105 286.839 128.552 286.942 127.9ZM290.735 112.528C290.405 114.623 289.246 116.173 287.258 117.18C285.255 118.166 282.863 118.441 280.082 118.003C277.438 117.586 275.379 116.638 273.906 115.156C272.416 113.672 271.826 111.943 272.137 109.969C272.461 107.909 273.615 106.393 275.598 105.421C277.583 104.431 279.958 104.154 282.722 104.59C285.383 105.009 287.46 105.952 288.954 107.418C290.449 108.868 291.043 110.571 290.735 112.528ZM289.461 111.905C289.618 110.91 289.149 110.088 288.054 109.441C286.946 108.774 285.524 108.303 283.79 108.03C282.331 107.8 280.854 107.735 279.361 107.834C277.87 107.916 276.548 108.209 275.396 108.714C274.226 109.216 273.573 109.896 273.438 110.755C273.279 111.767 273.73 112.586 274.793 113.211C275.856 113.836 277.271 114.288 279.04 114.566C280.104 114.734 281.218 114.812 282.381 114.802C283.526 114.789 284.615 114.688 285.648 114.498C286.664 114.306 287.531 113.994 288.25 113.562C288.954 113.11 289.358 112.558 289.461 111.905ZM293.776 91.5438L293.265 94.7886C293.151 95.5097 292.897 95.8391 292.502 95.7769C292.262 95.7391 292.031 95.5268 291.811 95.1402C291.593 94.7364 291.25 94.4538 290.783 94.2922C290.534 94.2002 290.263 94.1311 289.971 94.0852L282.786 92.9537C282.443 92.8996 282.229 93.2001 282.143 93.8552C282.059 94.3874 282.114 94.8184 282.309 95.1481C282.506 95.4607 282.914 95.8327 283.532 96.2644C283.88 96.5127 284.12 96.7177 284.253 96.8794C284.369 97.0384 284.413 97.2037 284.386 97.3754C284.332 97.7187 283.996 97.8418 283.378 97.7444C282.574 97.6002 281.86 97.3823 281.238 97.0907C280.873 96.9454 280.643 96.7331 280.546 96.454C280.452 96.1577 280.467 95.6146 280.592 94.8249L281.727 87.6142C281.854 86.8073 282.007 86.2859 282.185 86.0501C282.362 85.8142 282.648 85.6744 283.042 85.6309C283.633 85.5656 284.369 85.5848 285.25 85.6883C285.874 85.7513 286.157 85.9631 286.1 86.3236C286.049 86.6498 285.673 86.916 284.971 87.1223C284.251 87.3431 283.747 87.5805 283.461 87.8345C283.174 88.0885 282.981 88.4802 282.88 89.0097C282.82 89.3874 282.823 89.6517 282.887 89.8026C282.936 89.9336 283.047 90.0126 283.219 90.0396L290.43 91.1752C290.721 91.2211 291 91.2386 291.266 91.2277C291.566 91.2222 291.83 91.1669 292.057 91.062C292.268 90.9544 292.425 90.8473 292.53 90.7406C292.618 90.6313 292.737 90.5445 292.888 90.4803C293.024 90.3962 293.187 90.369 293.376 90.3988C293.753 90.4582 293.887 90.8399 293.776 91.5438ZM286.873 74.0398C287.522 74.054 287.852 74.2467 287.864 74.6181C287.869 74.8123 287.81 74.9615 287.688 75.0654C287.549 75.1667 287.262 75.315 286.827 75.5103C286.061 75.9 285.525 76.2906 285.217 76.6819C284.895 77.0534 284.664 77.6769 284.526 78.5525C284.437 79.1191 284.441 79.4891 284.536 79.6625C284.615 79.8332 284.869 79.9524 285.298 80.02L291.865 81.0541C292.414 81.1407 292.87 81.1509 293.233 81.0848C293.58 80.9988 293.817 80.8952 293.941 80.7741C294.069 80.6358 294.219 80.5188 294.392 80.4229C294.569 80.3099 294.76 80.2696 294.966 80.3021C295.343 80.3615 295.477 80.7432 295.366 81.4471L294.859 84.6662C294.743 85.4044 294.487 85.7424 294.092 85.6802C293.886 85.6478 293.724 85.5607 293.606 85.4188C293.473 85.2572 293.367 85.091 293.288 84.9202C293.212 84.7323 293.021 84.5526 292.713 84.3811C292.392 84.1896 291.956 84.0507 291.407 83.9641L285.844 83.0882C285.552 83.0422 285.265 83.0233 284.982 83.0316C284.594 83.0408 284.289 83.1335 284.068 83.3098C283.832 83.4662 283.64 83.6208 283.493 83.7735C283.331 83.9064 283.148 83.9566 282.942 83.9242C282.53 83.8593 282.39 83.4062 282.522 82.565L283.528 76.1784C283.655 75.3715 283.798 74.8574 283.956 74.6359C284.099 74.3946 284.359 74.2509 284.736 74.2046C285.352 74.0905 286.065 74.0356 286.873 74.0398Z" fill="#FFEE97"/>
<path d="M219.894 349.039L208.021 340.365C207.685 340.119 207.361 339.958 207.051 339.882C206.73 339.82 206.48 339.809 206.299 339.85C206.109 339.904 205.915 339.935 205.717 339.941C205.508 339.961 205.334 339.919 205.194 339.817C204.913 339.612 204.998 339.2 205.449 338.583L207.633 335.594C208.094 334.962 208.472 334.754 208.767 334.97C208.922 335.082 209.011 335.255 209.034 335.488C209.048 335.734 209.042 335.978 209.017 336.218C208.982 336.472 209.026 336.751 209.148 337.056C209.274 337.384 209.498 337.667 209.821 337.902L218.578 344.3C219.041 344.638 219.424 344.821 219.727 344.849C220.019 344.89 220.387 344.74 220.832 344.397C221.286 344.04 221.632 343.949 221.871 344.123C221.997 344.215 222.056 344.355 222.048 344.543C222.054 344.741 221.979 345.139 221.823 345.735C221.386 347.482 221.038 348.562 220.779 348.976C220.681 349.14 220.557 349.222 220.407 349.22C220.261 349.243 220.09 349.183 219.894 349.039ZM198.892 347.116C200.143 345.404 201.883 344.555 204.111 344.569C206.343 344.607 208.596 345.456 210.87 347.117C213.031 348.696 214.428 350.481 215.061 352.472C215.709 354.473 215.443 356.28 214.264 357.894C213.033 359.578 211.314 360.399 209.106 360.358C206.888 360.33 204.649 359.491 202.39 357.84C200.215 356.251 198.798 354.463 198.141 352.476C197.473 350.503 197.723 348.716 198.892 347.116ZM199.741 348.253C199.146 349.067 199.188 350.012 199.865 351.088C200.546 352.188 201.596 353.256 203.013 354.292C204.206 355.163 205.489 355.896 206.863 356.491C208.226 357.099 209.536 357.443 210.792 357.521C212.061 357.609 212.953 357.302 213.465 356.601C214.07 355.773 214.043 354.838 213.383 353.796C212.724 352.755 211.671 351.706 210.226 350.65C209.356 350.014 208.401 349.435 207.362 348.913C206.337 348.401 205.322 347.993 204.317 347.69C203.326 347.396 202.412 347.277 201.575 347.333C200.742 347.413 200.13 347.719 199.741 348.253ZM186.262 364.405C187.513 362.693 189.252 361.843 191.481 361.857C193.713 361.895 195.966 362.745 198.239 364.406C200.4 365.984 201.797 367.769 202.431 369.76C203.078 371.761 202.812 373.569 201.633 375.183C200.403 376.867 198.684 377.688 196.476 377.646C194.258 377.618 192.019 376.779 189.76 375.128C187.584 373.539 186.168 371.751 185.51 369.764C184.842 367.791 185.093 366.004 186.262 364.405ZM187.11 365.541C186.516 366.355 186.557 367.3 187.235 368.376C187.916 369.477 188.965 370.545 190.382 371.58C191.575 372.452 192.859 373.185 194.232 373.779C195.596 374.388 196.905 374.731 198.161 374.809C199.431 374.898 200.322 374.591 200.835 373.889C201.44 373.061 201.412 372.126 200.753 371.085C200.093 370.043 199.041 368.995 197.595 367.939C196.725 367.303 195.771 366.724 194.732 366.202C193.707 365.69 192.692 365.282 191.687 364.978C190.696 364.684 189.782 364.566 188.945 364.621C188.111 364.701 187.5 365.008 187.11 365.541ZM176.71 377.479C177.961 375.767 179.7 374.918 181.929 374.931C184.161 374.969 186.414 375.819 188.687 377.48C190.849 379.059 192.246 380.844 192.879 382.834C193.526 384.836 193.261 386.643 192.082 388.257C190.851 389.941 189.132 390.762 186.924 390.72C184.706 390.693 182.467 389.853 180.208 388.203C178.033 386.613 176.616 384.825 175.959 382.838C175.291 380.865 175.541 379.079 176.71 377.479ZM177.559 378.615C176.964 379.429 177.005 380.374 177.683 381.45C178.364 382.551 179.413 383.619 180.831 384.654C182.024 385.526 183.307 386.259 184.68 386.853C186.044 387.462 187.353 387.805 188.609 387.883C189.879 387.972 190.771 387.665 191.283 386.963C191.888 386.135 191.861 385.201 191.201 384.159C190.541 383.118 189.489 382.069 188.043 381.013C187.173 380.377 186.219 379.798 185.18 379.276C184.155 378.764 183.14 378.356 182.135 378.052C181.144 377.759 180.23 377.64 179.393 377.696C178.56 377.776 177.948 378.082 177.559 378.615ZM167.158 390.553C168.409 388.841 170.149 387.992 172.377 388.006C174.609 388.044 176.862 388.893 179.136 390.554C181.297 392.133 182.694 393.918 183.327 395.909C183.975 397.91 183.709 399.717 182.53 401.331C181.3 403.015 179.58 403.836 177.372 403.795C175.154 403.767 172.916 402.928 170.656 401.277C168.481 399.688 167.065 397.9 166.407 395.912C165.739 393.939 165.989 392.153 167.158 390.553ZM168.007 391.69C167.412 392.504 167.454 393.449 168.131 394.525C168.812 395.625 169.862 396.693 171.279 397.729C172.472 398.6 173.755 399.333 175.129 399.928C176.492 400.536 177.802 400.88 179.058 400.958C180.328 401.046 181.219 400.739 181.731 400.038C182.336 399.21 182.309 398.275 181.649 397.233C180.99 396.192 179.937 395.143 178.492 394.087C177.622 393.451 176.667 392.872 175.628 392.35C174.603 391.838 173.588 391.43 172.583 391.126C171.592 390.833 170.678 390.714 169.841 390.77C169.008 390.85 168.396 391.156 168.007 391.69ZM154.861 407.827L156.799 405.175C157.23 404.585 157.606 404.408 157.929 404.644C158.126 404.788 158.234 405.082 158.253 405.527C158.262 405.985 158.438 406.393 158.779 406.751C158.959 406.946 159.168 407.132 159.407 407.306L165.28 411.597C165.561 411.802 165.889 411.632 166.264 411.089C166.582 410.654 166.73 410.245 166.708 409.863C166.675 409.495 166.483 408.978 166.13 408.311C165.934 407.931 165.814 407.639 165.77 407.435C165.74 407.24 165.776 407.073 165.878 406.933C166.083 406.652 166.439 406.696 166.944 407.065C167.593 407.561 168.128 408.081 168.549 408.625C168.806 408.921 168.914 409.215 168.872 409.507C168.821 409.814 168.559 410.29 168.087 410.936L163.781 416.83C163.299 417.489 162.925 417.883 162.659 418.012C162.393 418.14 162.075 418.134 161.705 417.992C161.15 417.78 160.504 417.427 159.768 416.932C159.242 416.591 159.087 416.273 159.302 415.979C159.497 415.712 159.953 415.647 160.671 415.784C161.413 415.917 161.969 415.936 162.34 415.841C162.711 415.746 163.062 415.486 163.394 415.062C163.62 414.753 163.738 414.517 163.75 414.353C163.766 414.214 163.704 414.093 163.563 413.991L157.669 409.685C157.431 409.51 157.191 409.367 156.949 409.256C156.68 409.123 156.42 409.052 156.17 409.041C155.933 409.041 155.744 409.064 155.602 409.111C155.474 409.168 155.329 409.191 155.165 409.179C155.005 409.191 154.848 409.141 154.694 409.028C154.385 408.803 154.441 408.402 154.861 407.827ZM152.999 426.55C152.429 426.241 152.223 425.919 152.382 425.583C152.467 425.408 152.587 425.302 152.743 425.266C152.913 425.239 153.236 425.239 153.713 425.264C154.572 425.267 155.227 425.165 155.68 424.958C156.137 424.775 156.626 424.325 157.149 423.61C157.488 423.146 157.654 422.816 157.648 422.618C157.656 422.43 157.484 422.208 157.134 421.952L151.766 418.03C151.317 417.702 150.916 417.484 150.564 417.378C150.215 417.295 149.957 417.279 149.791 417.33C149.615 417.395 149.427 417.43 149.229 417.436C149.021 417.456 148.833 417.405 148.664 417.282C148.356 417.056 148.411 416.656 148.832 416.08L150.754 413.449C151.195 412.845 151.577 412.662 151.9 412.897C152.068 413.02 152.172 413.172 152.213 413.352C152.257 413.557 152.275 413.753 152.267 413.941C152.249 414.143 152.337 414.39 152.532 414.683C152.731 415.001 153.055 415.323 153.504 415.651L158.05 418.973C158.289 419.147 158.536 419.296 158.791 419.418C159.141 419.587 159.455 419.644 159.732 419.588C160.013 419.557 160.254 419.507 160.455 419.438C160.659 419.394 160.846 419.433 161.014 419.556C161.351 419.803 161.268 420.269 160.766 420.957L156.952 426.178C156.47 426.837 156.108 427.229 155.867 427.354C155.629 427.503 155.331 427.512 154.975 427.381C154.375 427.201 153.716 426.924 152.999 426.55Z" fill="#EB683E"/>
<path d="M181.844 262.712C183.605 262.508 185.126 262.726 186.407 263.365C187.673 264.023 188.583 264.854 189.137 265.857C189.298 266.188 189.265 266.437 189.039 266.603C188.798 266.788 188.542 266.765 188.27 266.534C186.709 265.141 184.876 264.566 182.769 264.809C181.682 264.935 180.83 265.358 180.213 266.076C179.581 266.814 179.322 267.675 179.436 268.659C179.606 270.127 180.347 271.161 181.658 271.761C182.955 272.381 184.811 272.7 187.228 272.717C187.769 272.707 187.992 272.97 187.897 273.506L186.701 280.179C186.628 280.608 186.383 280.837 185.967 280.868C184.436 280.94 182.822 281.127 181.124 281.428C180.386 281.549 179.807 281.765 179.388 282.076C178.954 282.406 178.668 282.579 178.53 282.595C178.219 282.631 178.05 282.379 178.023 281.84C177.988 281.389 178.055 280.83 178.222 280.164C178.322 279.82 178.477 279.565 178.685 279.401C178.894 279.237 179.272 279.106 179.821 279.008C181.688 278.669 183.623 278.454 185.624 278.362L186.191 275.094C179.899 275.001 176.542 273.132 176.12 269.489C175.931 267.849 176.371 266.364 177.442 265.033C178.495 263.703 179.962 262.93 181.844 262.712ZM165.921 264.556C168.027 264.312 169.832 265.013 171.335 266.658C172.822 268.323 173.728 270.554 174.052 273.351C174.359 276.009 173.997 278.247 172.965 280.064C171.936 281.897 170.428 282.929 168.442 283.159C166.371 283.399 164.601 282.694 163.133 281.045C161.647 279.397 160.744 277.183 160.422 274.404C160.112 271.728 160.463 269.474 161.476 267.642C162.471 265.812 163.953 264.783 165.921 264.556ZM165.663 265.95C164.661 266.066 163.996 266.738 163.665 267.966C163.32 269.213 163.248 270.709 163.45 272.452C163.62 273.92 163.953 275.36 164.449 276.772C164.927 278.186 165.564 279.381 166.36 280.356C167.157 281.348 167.987 281.795 168.85 281.695C169.869 281.577 170.537 280.922 170.854 279.731C171.171 278.539 171.226 277.054 171.02 275.276C170.896 274.206 170.673 273.112 170.352 271.994C170.032 270.894 169.642 269.872 169.183 268.928C168.726 268.001 168.193 267.249 167.583 266.673C166.959 266.115 166.319 265.874 165.663 265.95ZM149.837 266.418C151.943 266.174 153.748 266.875 155.25 268.52C156.738 270.185 157.643 272.416 157.967 275.213C158.275 277.872 157.913 280.109 156.881 281.926C155.851 283.76 154.344 284.791 152.358 285.021C150.286 285.261 148.517 284.556 147.048 282.907C145.563 281.259 144.659 279.046 144.337 276.266C144.028 273.59 144.379 271.336 145.392 269.504C146.387 267.674 147.869 266.646 149.837 266.418ZM149.579 267.812C148.577 267.928 147.911 268.6 147.581 269.828C147.236 271.075 147.164 272.571 147.366 274.314C147.536 275.782 147.869 277.222 148.365 278.634C148.843 280.048 149.48 281.243 150.275 282.218C151.073 283.211 151.903 283.657 152.766 283.557C153.785 283.439 154.452 282.784 154.769 281.593C155.086 280.401 155.142 278.917 154.936 277.138C154.812 276.068 154.589 274.974 154.267 273.857C153.948 272.756 153.558 271.734 153.099 270.79C152.642 269.863 152.108 269.111 151.499 268.535C150.875 267.977 150.235 267.736 149.579 267.812ZM128.568 268.88C130.675 268.636 132.479 269.337 133.982 270.983C135.469 272.648 136.375 274.878 136.699 277.675C137.006 280.334 136.644 282.572 135.613 284.388C134.583 286.222 133.075 287.254 131.09 287.484C129.018 287.724 127.248 287.019 125.78 285.369C124.294 283.721 123.391 281.508 123.069 278.728C122.759 276.052 123.11 273.798 124.123 271.967C125.118 270.137 126.6 269.108 128.568 268.88ZM128.31 270.275C127.309 270.391 126.643 271.063 126.313 272.29C125.967 273.538 125.895 275.033 126.097 276.777C126.267 278.244 126.6 279.684 127.096 281.096C127.575 282.511 128.211 283.705 129.007 284.681C129.804 285.673 130.634 286.119 131.497 286.019C132.516 285.901 133.184 285.247 133.501 284.055C133.818 282.864 133.873 281.379 133.667 279.601C133.543 278.53 133.321 277.436 132.999 276.319C132.679 275.219 132.289 274.197 131.83 273.253C131.373 272.326 130.84 271.574 130.231 270.997C129.606 270.44 128.966 270.199 128.31 270.275ZM112.484 270.742C114.59 270.498 116.395 271.199 117.898 272.845C119.385 274.51 120.291 276.741 120.614 279.537C120.922 282.196 120.56 284.434 119.528 286.25C118.498 288.084 116.991 289.116 115.005 289.346C112.934 289.586 111.164 288.881 109.695 287.231C108.21 285.584 107.306 283.37 106.985 280.59C106.675 277.915 107.026 275.661 108.039 273.829C109.034 271.999 110.516 270.97 112.484 270.742ZM112.226 272.137C111.224 272.253 110.558 272.925 110.228 274.153C109.883 275.4 109.811 276.895 110.013 278.639C110.183 280.106 110.516 281.546 111.012 282.959C111.49 284.373 112.127 285.568 112.922 286.543C113.72 287.535 114.55 287.981 115.413 287.881C116.432 287.764 117.1 287.109 117.416 285.917C117.733 284.726 117.789 283.241 117.583 281.463C117.459 280.393 117.236 279.299 116.914 278.181C116.595 277.081 116.205 276.059 115.746 275.115C115.289 274.188 114.755 273.436 114.146 272.859C113.522 272.302 112.882 272.061 112.226 272.137ZM96.3998 272.604C98.5061 272.361 100.311 273.061 101.813 274.707C103.301 276.372 104.206 278.603 104.53 281.4C104.838 284.058 104.476 286.296 103.444 288.112C102.414 289.946 100.906 290.978 98.921 291.208C96.8493 291.448 95.0794 290.743 93.6112 289.093C92.1257 287.446 91.2221 285.232 90.9003 282.453C90.5905 279.777 90.9419 277.523 91.9545 275.691C92.9499 273.861 94.4316 272.832 96.3998 272.604ZM96.1413 273.999C95.14 274.115 94.4742 274.787 94.144 276.015C93.7985 277.262 93.7267 278.757 93.9286 280.501C94.0985 281.969 94.4314 283.409 94.9273 284.821C95.406 286.235 96.0429 287.43 96.8382 288.405C97.6354 289.397 98.4656 289.844 99.3289 289.744C100.347 289.626 101.015 288.971 101.332 287.78C101.649 286.588 101.705 285.103 101.499 283.325C101.375 282.255 101.152 281.161 100.83 280.043C100.51 278.943 100.121 277.921 99.6616 276.977C99.2044 276.05 98.6712 275.298 98.0621 274.721C97.4376 274.164 96.7974 273.923 96.1413 273.999ZM75.3683 275.302L78.6313 274.924C79.3564 274.84 79.7419 274.997 79.7879 275.394C79.8159 275.635 79.6732 275.914 79.3599 276.231C79.0293 276.549 78.8489 276.955 78.8185 277.448C78.7967 277.713 78.8028 277.992 78.8368 278.286L79.6733 285.511C79.7132 285.856 80.0602 285.982 80.7143 285.889C81.2495 285.827 81.6499 285.658 81.9154 285.382C82.1636 285.109 82.4128 284.616 82.6628 283.905C82.8088 283.503 82.9418 283.217 83.0619 283.045C83.1841 282.891 83.3314 282.804 83.5041 282.784C83.8494 282.744 84.058 283.035 84.13 283.656C84.2066 284.47 84.188 285.216 84.074 285.894C84.0317 286.283 83.889 286.562 83.6461 286.73C83.3858 286.901 82.8586 287.032 82.0645 287.124L74.8134 287.963C74.002 288.057 73.4588 288.05 73.1838 287.942C72.9088 287.834 72.6976 287.596 72.55 287.228C72.3287 286.676 72.1498 285.962 72.0133 285.085C71.9068 284.468 72.0349 284.138 72.3974 284.096C72.7254 284.058 73.0828 284.349 73.4695 284.969C73.8755 285.605 74.2392 286.026 74.5607 286.234C74.8822 286.442 75.3115 286.523 75.8487 286.478C76.2285 286.434 76.4825 286.361 76.6106 286.259C76.7235 286.176 76.7699 286.048 76.7499 285.875L75.9104 278.624C75.8765 278.331 75.8186 278.058 75.7368 277.805C75.651 277.517 75.5271 277.278 75.365 277.087C75.2049 276.913 75.0594 276.79 74.9286 276.717C74.7997 276.662 74.6841 276.571 74.5818 276.443C74.4643 276.334 74.3945 276.184 74.3725 275.994C74.3285 275.615 74.6604 275.384 75.3683 275.302ZM60.3561 286.645C60.1958 286.016 60.2929 285.646 60.6475 285.535C60.8334 285.479 60.9928 285.495 61.1256 285.585C61.2605 285.692 61.4804 285.929 61.7853 286.296C62.3659 286.928 62.886 287.341 63.3456 287.532C63.79 287.743 64.4524 287.798 65.3329 287.696C65.9026 287.63 66.2581 287.528 66.3995 287.389C66.5429 287.267 66.5896 286.991 66.5397 286.559L65.7751 279.955C65.7112 279.403 65.5988 278.961 65.4379 278.63C65.2618 278.318 65.0987 278.118 64.9486 278.03C64.7813 277.945 64.6281 277.831 64.4893 277.69C64.3332 277.55 64.2432 277.377 64.2192 277.17C64.1752 276.79 64.5071 276.559 65.215 276.477L68.4521 276.102C69.1944 276.017 69.5886 276.172 69.6346 276.569C69.6586 276.776 69.6181 276.956 69.5133 277.108C69.3931 277.279 69.2614 277.426 69.118 277.548C68.9573 277.671 68.8356 277.904 68.7527 278.246C68.6546 278.607 68.6375 279.064 68.7014 279.617L69.349 285.21C69.383 285.504 69.4419 285.786 69.5257 286.056C69.6387 286.428 69.8098 286.696 70.039 286.862C70.2529 287.048 70.4531 287.191 70.6398 287.291C70.8111 287.412 70.9088 287.575 70.9328 287.782C70.9808 288.197 70.5818 288.453 69.7358 288.551L63.3134 289.294C62.502 289.388 61.9684 289.389 61.7128 289.296C61.4418 289.222 61.2335 289.01 61.088 288.66C60.8128 288.097 60.5689 287.425 60.3561 286.645Z" fill="#FFEE97"/>
<path d="M283.613 323.722C284.8 326.179 285.194 328.373 284.795 330.303C284.404 332.249 283.332 333.645 281.579 334.492C279.874 335.316 278.272 335.338 276.775 334.556C275.293 333.766 273.985 332.198 272.85 329.851L270.445 324.875C270.226 324.421 270.11 324.081 270.097 323.856C270.085 323.63 270.188 323.464 270.407 323.358C270.595 323.268 270.766 323.243 270.921 323.284C271.084 323.34 271.238 323.42 271.384 323.523C271.538 323.642 271.712 323.741 271.905 323.822C272.114 323.894 272.405 323.898 272.779 323.833C273.177 323.777 273.633 323.623 274.15 323.374L283.398 318.904C283.914 318.655 284.31 318.396 284.586 318.127C284.885 317.867 285.063 317.636 285.12 317.435C285.193 317.226 285.23 317.024 285.233 316.83C285.243 316.651 285.276 316.481 285.333 316.318C285.397 316.171 285.523 316.053 285.711 315.962C285.93 315.856 286.124 315.878 286.293 316.028C286.462 316.178 286.656 316.48 286.876 316.934L291.164 325.748C291.475 326.389 291.624 326.858 291.612 327.153C291.623 327.456 291.511 327.723 291.275 327.953C290.714 328.591 289.999 329.207 289.128 329.801C288.594 330.175 288.209 330.236 287.971 329.984C287.703 329.669 287.779 329.208 288.2 328.6C288.755 327.791 289.08 327.026 289.175 326.304C289.278 325.598 289.14 324.854 288.762 324.071L288.195 322.898C287.718 321.912 287.326 321.3 287.018 321.063C286.718 320.841 286.38 320.821 286.005 321.003L283.446 322.239C283.118 322.398 283.041 322.638 283.215 322.959C283.306 323.108 283.439 323.363 283.613 323.722ZM274.049 329.156C274.707 330.517 275.514 331.449 276.471 331.952C277.444 332.447 278.549 332.395 279.785 331.798C281.271 331.079 282.231 329.969 282.663 328.467C283.103 326.98 282.967 325.482 282.257 323.972C282.091 323.589 281.931 323.358 281.777 323.278C281.622 323.198 281.42 323.219 281.169 323.34L273.846 326.879C273.58 327.008 273.453 327.224 273.464 327.527C273.483 327.846 273.678 328.389 274.049 329.156ZM286.973 340.739C287.812 342.515 288.095 343.96 287.824 345.076C287.56 346.207 286.896 347.03 285.832 347.544C283.438 348.702 281.363 347.465 279.609 343.835L277.635 339.75C277.264 338.984 277.267 338.51 277.642 338.328C277.83 338.237 278.013 338.236 278.19 338.324C278.391 338.42 278.627 338.508 278.898 338.59C279.177 338.687 279.503 338.683 279.878 338.58C280.135 338.513 280.397 338.416 280.663 338.287L285.733 335.837C286.233 335.595 286.602 335.339 286.839 335.07C287.099 334.81 287.242 334.586 287.268 334.4C287.294 334.214 287.347 334.024 287.427 333.831C287.515 333.653 287.653 333.519 287.84 333.428C288.185 333.262 288.516 333.507 288.833 334.164L290.251 337.098C290.577 337.771 290.567 338.191 290.223 338.357C290.035 338.448 289.84 338.465 289.639 338.408C289.445 338.366 289.264 338.29 289.094 338.179C288.932 338.083 288.665 338.049 288.291 338.075C287.941 338.109 287.515 338.247 287.015 338.489L286.451 338.761C286.295 338.837 286.193 338.925 286.145 339.025C286.104 339.141 286.126 339.266 286.209 339.399C286.544 339.932 286.799 340.379 286.973 340.739ZM280.714 343.127C281.221 344.175 281.74 344.85 282.273 345.153C282.813 345.471 283.482 345.437 284.28 345.052C285.109 344.651 285.615 344.04 285.797 343.218C285.986 342.412 285.847 341.524 285.378 340.554L285.185 340.155C284.996 339.764 284.745 339.644 284.432 339.795L281.24 341.338C280.833 341.535 280.581 341.753 280.485 341.992C280.396 342.248 280.472 342.626 280.714 343.127ZM300.329 357.35C301.085 358.915 301.177 360.463 300.604 361.994C300.04 363.541 298.967 364.696 297.386 365.46C295.618 366.315 293.86 366.431 292.112 365.809C290.371 365.203 289.062 363.992 288.184 362.177C287.413 360.581 287.267 359.02 287.746 357.495C288.248 355.979 289.321 354.823 290.964 354.029L289.977 351.987L287.935 352.974C287.434 353.216 287.054 353.467 286.794 353.728C286.557 353.997 286.422 354.217 286.388 354.387C286.363 354.574 286.306 354.756 286.218 354.933C286.138 355.126 286.004 355.268 285.816 355.359C285.472 355.525 285.144 355.288 284.834 354.646L283.416 351.712C283.091 351.039 283.108 350.616 283.468 350.442C283.656 350.351 283.839 350.331 284.017 350.38C284.218 350.437 284.4 350.513 284.562 350.608C284.732 350.72 284.991 350.758 285.342 350.724C285.715 350.698 286.152 350.564 286.653 350.322L291.582 347.939C292.083 347.697 292.452 347.442 292.688 347.173C292.948 346.912 293.091 346.689 293.117 346.503C293.143 346.316 293.196 346.127 293.276 345.933C293.364 345.756 293.502 345.622 293.69 345.531C294.034 345.364 294.365 345.61 294.683 346.267L296.101 349.201C296.426 349.874 296.416 350.294 296.072 350.46C295.884 350.551 295.69 350.567 295.489 350.51C295.295 350.469 295.113 350.393 294.944 350.282C294.782 350.186 294.514 350.151 294.14 350.177C293.79 350.212 293.365 350.35 292.864 350.592L291.174 351.408L292.218 353.568C293.833 353.115 295.394 353.23 296.9 353.911C298.407 354.592 299.55 355.738 300.329 357.35ZM289.942 362.399C290.366 363.275 291.015 363.801 291.891 363.976C292.767 364.151 293.714 363.992 294.731 363.501C296.186 362.797 297.303 361.814 298.082 360.549C298.876 359.277 299.017 358.109 298.502 357.045C298.071 356.153 297.394 355.631 296.471 355.479C295.556 355.342 294.582 355.524 293.549 356.023C292.062 356.741 290.957 357.71 290.233 358.928C289.517 360.162 289.42 361.319 289.942 362.399ZM295.276 376.251L293.847 373.293C293.529 372.636 293.55 372.22 293.91 372.046C294.129 371.941 294.439 371.984 294.841 372.176C295.25 372.383 295.693 372.42 296.169 372.287C296.426 372.22 296.688 372.123 296.954 371.994L303.503 368.829C303.815 368.678 303.82 368.309 303.517 367.721C303.283 367.236 302.992 366.914 302.644 366.754C302.304 366.609 301.757 366.536 301.003 366.533C300.576 366.528 300.261 366.496 300.06 366.439C299.874 366.374 299.744 366.264 299.668 366.107C299.517 365.794 299.723 365.502 300.286 365.229C301.029 364.89 301.74 364.662 302.417 364.547C302.799 364.459 303.11 364.502 303.348 364.676C303.595 364.866 303.892 365.321 304.24 366.041L307.416 372.613C307.771 373.348 307.943 373.863 307.932 374.159C307.92 374.454 307.765 374.732 307.466 374.992C307.017 375.382 306.402 375.786 305.619 376.203C305.071 376.507 304.717 376.494 304.558 376.165C304.415 375.868 304.572 375.435 305.03 374.866C305.497 374.274 305.776 373.792 305.866 373.42C305.957 373.048 305.892 372.615 305.674 372.123C305.507 371.779 305.355 371.563 305.216 371.475C305.1 371.396 304.964 371.394 304.808 371.47L298.236 374.646C297.97 374.775 297.731 374.919 297.519 375.08C297.275 375.255 297.09 375.451 296.963 375.667C296.851 375.875 296.783 376.053 296.757 376.201C296.748 376.34 296.699 376.48 296.612 376.618C296.548 376.765 296.43 376.88 296.257 376.963C295.913 377.13 295.586 376.892 295.276 376.251ZM299.724 385.453L298.306 382.519C297.981 381.846 297.998 381.423 298.358 381.249C298.577 381.143 298.887 381.186 299.289 381.378C299.698 381.586 300.141 381.623 300.617 381.489C300.874 381.423 301.136 381.325 301.402 381.197L306.601 378.655C306.867 378.526 307.114 378.378 307.342 378.21C307.64 377.989 307.838 377.739 307.935 377.46C308.039 377.197 308.112 376.969 308.154 376.775C308.211 376.574 308.349 376.42 308.568 376.314C308.912 376.148 309.239 376.385 309.55 377.027L310.979 379.984C311.297 380.642 311.283 381.053 310.939 381.22C310.736 381.318 310.533 381.319 310.333 381.223C310.139 381.143 309.904 381.054 309.625 380.957C309.37 380.868 309.059 380.884 308.692 381.003C308.419 381.077 308.149 381.179 307.883 381.307L303.846 383.258L310.324 386.237C310.501 386.325 310.633 386.358 310.719 386.336C310.812 386.329 310.929 386.272 311.071 386.165C311.338 385.959 311.535 385.748 311.662 385.532C311.805 385.309 311.881 385.127 311.891 384.987C311.901 384.847 311.938 384.704 312.002 384.557C312.089 384.418 312.219 384.307 312.391 384.224C312.735 384.058 313.063 384.295 313.373 384.937L314.802 387.895C315.12 388.552 315.106 388.964 314.762 389.13C314.559 389.228 314.357 389.229 314.156 389.133C313.962 389.053 313.727 388.964 313.448 388.867C313.193 388.778 312.882 388.794 312.515 388.913C312.242 388.987 311.972 389.089 311.706 389.217L306.495 391.736C306.229 391.864 305.99 392.009 305.778 392.169C305.535 392.345 305.35 392.54 305.222 392.756C305.111 392.965 305.042 393.142 305.017 393.29C305.015 393.445 304.97 393.592 304.883 393.731C304.819 393.878 304.7 393.993 304.528 394.076C304.184 394.242 303.857 394.005 303.547 393.363L302.129 390.429C301.804 389.756 301.821 389.333 302.181 389.159C302.4 389.053 302.71 389.096 303.112 389.288C303.521 389.496 303.964 389.533 304.44 389.399C304.697 389.333 304.959 389.235 305.225 389.107L309.157 387.177L302.714 384.211C302.466 384.099 302.229 384.107 302.002 384.236C301.719 384.45 301.514 384.665 301.387 384.881C301.26 385.097 301.191 385.275 301.182 385.415C301.172 385.554 301.131 385.69 301.06 385.821C300.996 385.968 300.877 386.083 300.705 386.166C300.361 386.332 300.034 386.095 299.724 385.453ZM321.951 401.906C322.699 403.455 322.768 404.976 322.157 406.468C321.57 407.968 320.494 409.096 318.929 409.853C317.176 410.7 315.425 410.851 313.676 410.307C311.926 409.762 310.662 408.684 309.883 407.073C309.021 405.289 308.917 403.515 309.57 401.752C310.246 399.996 311.813 398.525 314.27 397.337C316.257 396.377 318.114 395.846 319.841 395.745C321.592 395.652 323.094 396.084 324.348 397.041C325.133 397.588 325.978 398.657 326.882 400.247C327.42 401.241 327.897 401.889 328.313 402.19C328.444 402.301 328.597 402.419 328.775 402.546C328.975 402.681 329.125 402.792 329.225 402.879C329.426 402.975 329.525 403.12 329.522 403.314C329.52 403.508 329.385 403.67 329.119 403.798C328.102 404.29 327.028 404.104 325.897 403.242C325.397 402.847 324.847 402.128 324.247 401.086C323.647 400.044 323.082 399.294 322.551 398.836C321.239 397.598 319.148 397.586 316.279 398.799C318.88 398.429 320.771 399.465 321.951 401.906ZM311.484 406.791C311.9 407.652 312.554 408.166 313.446 408.333C314.338 408.501 315.253 408.357 316.192 407.904C317.584 407.231 318.682 406.266 319.484 405.01C320.301 403.746 320.449 402.574 319.927 401.494C319.504 400.618 318.807 400.115 317.837 399.985C316.875 399.871 315.862 400.072 314.798 400.586C313.483 401.221 312.472 402.144 311.764 403.355C311.056 404.566 310.963 405.711 311.484 406.791ZM316.134 420.006C315.363 418.41 315.217 416.85 315.696 415.325C316.198 413.808 317.271 412.653 318.914 411.859C320.698 410.996 322.48 410.869 324.259 411.476C326.046 412.098 327.383 413.325 328.267 415.156C329.024 416.721 329.116 418.269 328.543 419.8C327.978 421.347 326.906 422.503 325.325 423.266C323.557 424.121 321.802 424.245 320.062 423.639C318.321 423.032 317.012 421.822 316.134 420.006ZM317.892 420.228C318.316 421.105 318.965 421.63 319.841 421.805C320.717 421.98 321.664 421.822 322.681 421.33C324.136 420.627 325.253 419.643 326.032 418.379C326.826 417.107 326.967 415.939 326.452 414.875C326.021 413.983 325.344 413.461 324.421 413.308C323.506 413.172 322.532 413.353 321.499 413.852C320.012 414.571 318.907 415.539 318.183 416.758C317.467 417.992 317.37 419.149 317.892 420.228ZM334 433.067L332.398 432.568L327.955 437.755C327.702 438.07 327.523 438.418 327.417 438.797C327.318 439.192 327.232 439.514 327.159 439.761C327.109 440.017 326.99 440.191 326.802 440.281C326.614 440.372 326.451 440.354 326.313 440.228C326.175 440.102 326.015 439.851 325.834 439.475L324.461 436.635C324.136 435.962 324.13 435.55 324.443 435.399C324.63 435.308 324.844 435.311 325.084 435.408C325.347 435.512 325.555 435.585 325.71 435.626C325.889 435.675 326.123 435.562 326.415 435.286L329.471 431.666L325.036 430.277C324.605 430.504 324.276 430.741 324.047 430.986C323.826 431.248 323.699 431.464 323.665 431.634C323.655 431.813 323.606 431.991 323.518 432.169C323.446 432.339 323.316 432.469 323.128 432.56C322.784 432.726 322.457 432.489 322.147 431.847L320.729 428.913C320.403 428.24 320.421 427.817 320.781 427.643C320.968 427.552 321.151 427.531 321.329 427.58C321.531 427.637 321.712 427.714 321.874 427.809C322.044 427.92 322.304 427.959 322.654 427.924C323.028 427.898 323.465 427.764 323.965 427.522L328.894 425.14C329.395 424.898 329.764 424.643 330.001 424.374C330.261 424.113 330.404 423.889 330.43 423.703C330.455 423.517 330.508 423.327 330.589 423.134C330.677 422.956 330.814 422.822 331.002 422.731C331.347 422.565 331.677 422.81 331.995 423.468L333.413 426.402C333.738 427.075 333.729 427.494 333.385 427.661C333.197 427.751 333.002 427.768 332.801 427.711C332.607 427.67 332.426 427.593 332.256 427.482C332.094 427.387 331.826 427.352 331.453 427.378C331.103 427.412 330.677 427.55 330.176 427.792L326.82 429.415L333.403 431.474C333.689 431.586 333.903 431.589 334.044 431.482C334.186 431.375 334.269 431.248 334.294 431.101C334.32 430.953 334.357 430.791 334.406 430.613C334.471 430.427 334.566 430.304 334.691 430.243C335.004 430.092 335.289 430.282 335.546 430.814L336.782 433.373C337.047 433.921 337.023 434.27 336.71 434.421C336.569 434.489 336.422 434.483 336.267 434.404C336.136 434.332 335.998 434.225 335.852 434.083C335.722 433.934 335.483 433.76 335.136 433.561C334.812 433.37 334.433 433.205 334 433.067ZM329.219 447.078C328.409 445.404 328.283 443.805 328.84 442.281C329.412 440.75 330.473 439.61 332.022 438.861C333.791 438.006 335.549 437.87 337.298 438.454C339.055 439.052 340.341 440.197 341.158 441.887C341.831 443.279 341.988 444.584 341.63 445.799C341.279 447.03 340.595 447.892 339.578 448.383C339.109 448.61 338.688 448.659 338.317 448.53C337.946 448.4 337.669 448.148 337.488 447.772C337.299 447.381 337.272 447.027 337.409 446.71C337.545 446.393 337.794 446.07 338.156 445.741C339.674 444.409 340.135 443.105 339.538 441.83C339.122 440.969 338.464 440.448 337.565 440.264C336.682 440.074 335.716 440.232 334.667 440.739C333.181 441.457 332.157 442.415 331.597 443.612C331.06 444.818 331.094 446.046 331.699 447.298C332.251 448.44 333.289 449.29 334.813 449.847C335.138 449.96 335.283 450.141 335.249 450.389C335.23 450.63 335.038 450.771 334.672 450.813C333.761 450.886 332.789 450.632 331.755 450.051C330.737 449.462 329.892 448.471 329.219 447.078Z" fill="#FFEE97"/>
</g>
<defs>
<filter id="filter0_f_1206_1963" x="233.766" y="234.817" width="56.4692" height="56.469" filterUnits="userSpaceOnUse" color-interpolation-filters="sRGB">
<feFlood flood-opacity="0" result="BackgroundImageFix"/>
<feBlend mode="normal" in="SourceGraphic" in2="BackgroundImageFix" result="shape"/>
<feGaussianBlur stdDeviation="8.91613" result="effect1_foregroundBlur_1206_1963"/>
</filter>
<clipPath id="clip0_1206_1963">
<rect width="524" height="524" fill="white"/>
</clipPath>
<clipPath id="clip1_1206_1963">
<rect width="83.2172" height="83.2172" fill="white" transform="translate(209.142 425.952) rotate(-148.405)"/>
</clipPath>
</defs>
</svg>
