<svg width="260" height="77" viewBox="0 0 260 77" fill="none" xmlns="http://www.w3.org/2000/svg">
<g filter="url(#filter0_d_1206_2384)">
<rect width="260" height="74" rx="37" fill="#EB683E" shape-rendering="crispEdges"/>
<path d="M53.08 29.816L51.064 31.688L55.288 41.048C55.48 41.464 55.696 41.808 55.936 42.08C56.192 42.336 56.408 42.512 56.584 42.608C56.776 42.688 56.936 42.792 57.064 42.92C57.192 43.048 57.256 43.216 57.256 43.424C57.256 43.808 56.896 44 56.176 44H53.032C52.568 44 52.24 43.96 52.048 43.88C51.856 43.784 51.76 43.616 51.76 43.376C51.76 43.2 51.856 43.008 52.048 42.8C52.24 42.592 52.376 42.4 52.456 42.224C52.552 42.032 52.504 41.664 52.312 41.12L49.024 33.608L45.16 37.184V40.256C45.16 40.896 45.232 41.408 45.376 41.792C45.536 42.176 45.704 42.416 45.88 42.512C46.072 42.608 46.24 42.728 46.384 42.872C46.544 43.016 46.624 43.2 46.624 43.424C46.624 43.632 46.528 43.784 46.336 43.88C46.144 43.96 45.816 44 45.352 44H42.136C41.288 44 40.864 43.808 40.864 43.424C40.864 43.2 40.944 43.016 41.104 42.872C41.264 42.728 41.432 42.608 41.608 42.512C41.8 42.416 41.976 42.176 42.136 41.792C42.296 41.408 42.376 40.896 42.376 40.256V30.944C42.376 30.304 42.296 29.792 42.136 29.408C41.992 29.024 41.824 28.784 41.632 28.688C41.456 28.592 41.288 28.472 41.128 28.328C40.984 28.184 40.912 28 40.912 27.776C40.912 27.568 41.008 27.424 41.2 27.344C41.392 27.248 41.72 27.2 42.184 27.2H45.4C46.248 27.2 46.672 27.392 46.672 27.776C46.672 28 46.592 28.184 46.432 28.328C46.272 28.472 46.096 28.592 45.904 28.688C45.728 28.784 45.56 29.024 45.4 29.408C45.24 29.792 45.16 30.304 45.16 30.944V35.36L51.112 29.816C51.432 29.512 51.608 29.264 51.64 29.072C51.688 28.864 51.64 28.72 51.496 28.64C51.352 28.544 51.2 28.424 51.04 28.28C50.896 28.136 50.824 27.976 50.824 27.8C50.824 27.4 51.128 27.2 51.736 27.2H54.472C55.32 27.2 55.744 27.392 55.744 27.776C55.744 28.048 55.648 28.24 55.456 28.352C55.28 28.448 54.952 28.608 54.472 28.832C54.008 29.056 53.544 29.384 53.08 29.816ZM65.8906 32.24C67.3306 32.24 68.5146 32.768 69.4426 33.824C70.3706 34.864 70.8346 36.224 70.8346 37.904C70.8346 39.808 70.3146 41.344 69.2746 42.512C68.2346 43.664 66.9786 44.24 65.5066 44.24C64.1946 44.24 63.0186 43.872 61.9786 43.136L62.0026 45.56C62.0026 46.072 62.0586 46.48 62.1706 46.784C62.2986 47.104 62.4266 47.312 62.5546 47.408C62.6986 47.504 62.8266 47.624 62.9386 47.768C63.0666 47.912 63.1306 48.08 63.1306 48.272C63.1306 48.624 62.8026 48.8 62.1466 48.8H59.1226C58.4506 48.8 58.1146 48.624 58.1146 48.272C58.1146 48.08 58.1706 47.912 58.2826 47.768C58.4106 47.624 58.5466 47.504 58.6906 47.408C58.8506 47.312 58.9866 47.104 59.0986 46.784C59.2266 46.48 59.2906 46.072 59.2906 45.56L59.2426 35.984C59.2426 35.232 59.0026 34.696 58.5226 34.376C58.2346 34.168 58.0906 33.96 58.0906 33.752C58.0906 33.592 58.1386 33.464 58.2346 33.368C58.3306 33.256 58.5226 33.136 58.8106 33.008C59.8186 32.528 60.6106 32.272 61.1866 32.24C61.5226 32.208 61.6906 32.416 61.6906 32.864L61.6666 34.568C62.6746 33.016 64.0826 32.24 65.8906 32.24ZM65.4106 42.944C66.3386 42.944 67.0346 42.576 67.4986 41.84C67.9786 41.088 68.2186 40.16 68.2186 39.056C68.2186 37.536 67.8906 36.312 67.2346 35.384C66.5946 34.456 65.8106 33.992 64.8826 33.992C64.0026 33.992 63.2986 34.352 62.7706 35.072C62.2426 35.776 61.9786 36.592 61.9786 37.52V39.152C61.9946 40.288 62.3546 41.208 63.0586 41.912C63.7626 42.6 64.5466 42.944 65.4106 42.944ZM81.1917 32.48H82.7037C83.3757 32.48 83.7117 32.656 83.7117 33.008C83.7117 33.216 83.6237 33.392 83.4477 33.536C83.2877 33.664 83.0637 33.888 82.7757 34.208C82.4877 34.512 82.2397 34.936 82.0317 35.48L78.9357 43.472C78.5997 44.32 78.3357 44.952 78.1437 45.368C77.9677 45.8 77.7197 46.296 77.3997 46.856C77.0957 47.416 76.7917 47.824 76.4877 48.08C76.1997 48.336 75.8317 48.56 75.3837 48.752C74.9357 48.944 74.4317 49.04 73.8717 49.04C73.1517 49.04 72.5437 48.856 72.0477 48.488C71.5677 48.12 71.3277 47.656 71.3277 47.096C71.3277 46.696 71.4477 46.352 71.6877 46.064C71.9277 45.776 72.2397 45.632 72.6237 45.632C72.8957 45.632 73.1357 45.72 73.3437 45.896C73.5677 46.088 73.7357 46.296 73.8477 46.52C73.9757 46.744 74.1437 46.952 74.3517 47.144C74.5757 47.336 74.8157 47.432 75.0717 47.432C75.4557 47.432 75.7837 47.184 76.0557 46.688C76.3277 46.208 76.4637 45.664 76.4637 45.056C76.4637 44.608 76.3277 44.024 76.0557 43.304L72.9597 35.48C72.7357 34.936 72.4797 34.512 72.1917 34.208C71.9037 33.888 71.6797 33.664 71.5197 33.536C71.3597 33.392 71.2797 33.216 71.2797 33.008C71.2797 32.656 71.6077 32.48 72.2637 32.48H75.4317C76.1197 32.48 76.4637 32.656 76.4637 33.008C76.4637 33.184 76.3517 33.368 76.1277 33.56C75.9037 33.752 75.7437 33.952 75.6477 34.16C75.5517 34.368 75.6077 34.808 75.8157 35.48L78.2877 41.816L80.7357 35.48C80.9437 34.792 81.0077 34.352 80.9277 34.16C80.8477 33.952 80.7037 33.752 80.4957 33.56C80.3037 33.368 80.2077 33.184 80.2077 33.008C80.2077 32.656 80.5357 32.48 81.1917 32.48ZM91.4333 44H88.4093C87.7373 44 87.4013 43.816 87.4013 43.448C87.4013 43.224 87.5613 42.984 87.8813 42.728C88.2173 42.472 88.4253 42.12 88.5053 41.672C88.5533 41.432 88.5773 41.176 88.5773 40.904V34.208C88.5773 33.888 88.2733 33.736 87.6653 33.752C87.1693 33.752 86.7853 33.864 86.5133 34.088C86.2573 34.312 85.9773 34.736 85.6733 35.36C85.4973 35.712 85.3453 35.96 85.2173 36.104C85.0893 36.232 84.9453 36.296 84.7853 36.296C84.4653 36.296 84.3053 36.008 84.3053 35.432C84.3213 34.68 84.4173 34 84.5933 33.392C84.6733 33.04 84.8333 32.8 85.0733 32.672C85.3293 32.544 85.8253 32.48 86.5613 32.48H93.2813C94.0333 32.48 94.5293 32.544 94.7693 32.672C95.0093 32.8 95.1773 33.04 95.2733 33.392C95.4173 33.92 95.5053 34.592 95.5373 35.408C95.5693 35.984 95.4173 36.272 95.0813 36.272C94.7773 36.272 94.4813 35.968 94.1933 35.36C93.8893 34.736 93.6013 34.312 93.3293 34.088C93.0573 33.864 92.6733 33.744 92.1773 33.728C91.8253 33.728 91.5853 33.768 91.4573 33.848C91.3453 33.912 91.2893 34.024 91.2893 34.184V40.904C91.2893 41.176 91.3133 41.432 91.3613 41.672C91.4093 41.944 91.4973 42.176 91.6253 42.368C91.7533 42.544 91.8733 42.672 91.9853 42.752C92.0973 42.816 92.1933 42.912 92.2733 43.04C92.3693 43.152 92.4173 43.296 92.4173 43.472C92.4173 43.824 92.0893 44 91.4333 44ZM100.843 44H97.843C97.155 44 96.811 43.816 96.811 43.448C96.811 43.224 96.971 42.984 97.291 42.728C97.627 42.472 97.835 42.12 97.915 41.672C97.963 41.432 97.987 41.176 97.987 40.904L97.963 35.576C97.963 35.304 97.939 35.04 97.891 34.784C97.827 34.448 97.699 34.184 97.507 33.992C97.331 33.8 97.171 33.648 97.027 33.536C96.883 33.408 96.811 33.232 96.811 33.008C96.811 32.656 97.139 32.48 97.795 32.48H100.819C101.491 32.48 101.827 32.656 101.827 33.008C101.827 33.216 101.747 33.384 101.587 33.512C101.443 33.64 101.275 33.8 101.083 33.992C100.907 34.168 100.795 34.432 100.747 34.784C100.699 35.04 100.675 35.304 100.675 35.576V39.704L105.739 35.528C105.883 35.416 105.963 35.32 105.979 35.24C106.011 35.16 106.011 35.04 105.979 34.88C105.915 34.576 105.819 34.328 105.691 34.136C105.563 33.928 105.443 33.792 105.331 33.728C105.219 33.664 105.115 33.576 105.019 33.464C104.939 33.336 104.899 33.184 104.899 33.008C104.899 32.656 105.227 32.48 105.883 32.48H108.907C109.579 32.48 109.915 32.656 109.915 33.008C109.915 33.216 109.835 33.384 109.675 33.512C109.531 33.64 109.363 33.8 109.171 33.992C108.995 34.168 108.883 34.432 108.835 34.784C108.787 35.04 108.763 35.304 108.763 35.576V40.904C108.763 41.176 108.787 41.432 108.835 41.672C108.883 41.944 108.971 42.176 109.099 42.368C109.227 42.544 109.347 42.672 109.459 42.752C109.587 42.816 109.691 42.912 109.771 43.04C109.867 43.152 109.915 43.296 109.915 43.472C109.915 43.824 109.587 44 108.931 44H105.931C105.243 44 104.899 43.816 104.899 43.448C104.899 43.224 105.059 42.984 105.379 42.728C105.715 42.472 105.923 42.12 106.003 41.672C106.051 41.432 106.075 41.176 106.075 40.904L106.051 36.872L101.011 41.024C100.819 41.184 100.731 41.384 100.747 41.624C100.811 41.944 100.907 42.2 101.035 42.392C101.163 42.584 101.283 42.712 101.395 42.776C101.507 42.84 101.603 42.928 101.683 43.04C101.779 43.152 101.827 43.296 101.827 43.472C101.827 43.824 101.499 44 100.843 44ZM118.316 44H115.292C114.62 44 114.284 43.816 114.284 43.448C114.284 43.224 114.444 42.984 114.764 42.728C115.1 42.472 115.308 42.12 115.388 41.672C115.436 41.432 115.46 41.176 115.46 40.904V34.208C115.46 33.888 115.156 33.736 114.548 33.752C114.052 33.752 113.668 33.864 113.396 34.088C113.14 34.312 112.86 34.736 112.556 35.36C112.38 35.712 112.228 35.96 112.1 36.104C111.972 36.232 111.828 36.296 111.668 36.296C111.348 36.296 111.188 36.008 111.188 35.432C111.204 34.68 111.3 34 111.476 33.392C111.556 33.04 111.716 32.8 111.956 32.672C112.212 32.544 112.708 32.48 113.444 32.48H120.164C120.916 32.48 121.412 32.544 121.652 32.672C121.892 32.8 122.06 33.04 122.156 33.392C122.3 33.92 122.388 34.592 122.42 35.408C122.452 35.984 122.3 36.272 121.964 36.272C121.66 36.272 121.364 35.968 121.076 35.36C120.772 34.736 120.484 34.312 120.212 34.088C119.94 33.864 119.556 33.744 119.06 33.728C118.708 33.728 118.468 33.768 118.34 33.848C118.228 33.912 118.172 34.024 118.172 34.184V40.904C118.172 41.176 118.196 41.432 118.244 41.672C118.292 41.944 118.38 42.176 118.508 42.368C118.636 42.544 118.756 42.672 118.868 42.752C118.98 42.816 119.076 42.912 119.156 43.04C119.252 43.152 119.3 43.296 119.3 43.472C119.3 43.824 118.972 44 118.316 44ZM129.43 36.656C131.238 36.672 132.55 37.016 133.366 37.688C134.198 38.36 134.614 39.24 134.614 40.328C134.614 42.776 132.758 44 129.046 44H124.87C124.086 44 123.694 43.808 123.694 43.424C123.694 43.232 123.766 43.08 123.91 42.968C124.07 42.84 124.238 42.68 124.414 42.488C124.606 42.296 124.734 42.024 124.798 41.672C124.846 41.432 124.87 41.176 124.87 40.904V35.72C124.87 35.208 124.806 34.8 124.678 34.496C124.566 34.176 124.438 33.968 124.294 33.872C124.15 33.776 124.014 33.656 123.886 33.512C123.774 33.368 123.718 33.2 123.718 33.008C123.718 32.656 124.054 32.48 124.726 32.48H127.726C128.414 32.48 128.758 32.656 128.758 33.008C128.758 33.2 128.694 33.368 128.566 33.512C128.454 33.656 128.318 33.776 128.158 33.872C128.014 33.968 127.878 34.176 127.75 34.496C127.638 34.8 127.582 35.208 127.582 35.72V36.296C127.582 36.456 127.614 36.576 127.678 36.656C127.758 36.736 127.87 36.768 128.014 36.752C128.59 36.688 129.062 36.656 129.43 36.656ZM128.902 42.8C129.974 42.8 130.742 42.64 131.206 42.32C131.686 42 131.926 41.432 131.926 40.616C131.926 39.768 131.622 39.104 131.014 38.624C130.422 38.144 129.63 37.904 128.638 37.904H128.23C127.83 37.904 127.63 38.064 127.63 38.384V41.648C127.63 42.064 127.71 42.36 127.87 42.536C128.046 42.712 128.39 42.8 128.902 42.8ZM150.666 34.664L149.61 35.792L152.13 41.552C152.29 41.888 152.506 42.176 152.778 42.416C153.066 42.656 153.298 42.856 153.474 43.016C153.666 43.16 153.762 43.328 153.762 43.52C153.762 43.712 153.682 43.84 153.522 43.904C153.362 43.968 153.09 44 152.706 44H149.802C149.114 44 148.77 43.84 148.77 43.52C148.77 43.328 148.858 43.152 149.034 42.992C149.226 42.816 149.37 42.672 149.466 42.56C149.578 42.432 149.578 42.192 149.466 41.84L147.69 37.856L144.762 40.976C144.778 41.424 144.842 41.792 144.954 42.08C145.082 42.368 145.21 42.56 145.338 42.656C145.482 42.736 145.61 42.848 145.722 42.992C145.834 43.12 145.89 43.28 145.89 43.472C145.89 43.824 145.562 44 144.906 44H141.906C141.218 44 140.874 43.816 140.874 43.448C140.874 43.256 140.93 43.096 141.042 42.968C141.17 42.824 141.306 42.704 141.45 42.608C141.61 42.512 141.746 42.312 141.858 42.008C141.986 41.688 142.05 41.272 142.05 40.76V35.72C142.05 35.208 141.986 34.8 141.858 34.496C141.746 34.176 141.618 33.968 141.474 33.872C141.33 33.776 141.194 33.656 141.066 33.512C140.954 33.368 140.898 33.2 140.898 33.008C140.898 32.656 141.234 32.48 141.906 32.48H144.906C145.594 32.48 145.938 32.656 145.938 33.008C145.938 33.2 145.874 33.368 145.746 33.512C145.634 33.656 145.498 33.776 145.338 33.872C145.194 33.968 145.058 34.176 144.93 34.496C144.818 34.8 144.762 35.208 144.762 35.72V39.152L149.106 34.52C149.314 34.328 149.402 34.152 149.37 33.992C149.338 33.832 149.266 33.712 149.154 33.632C149.042 33.552 148.922 33.456 148.794 33.344C148.666 33.216 148.602 33.088 148.602 32.96C148.602 32.64 148.874 32.48 149.418 32.48H152.034C152.594 32.48 152.874 32.64 152.874 32.96C152.874 33.104 152.81 33.224 152.682 33.32C152.57 33.4 152.426 33.472 152.25 33.536C152.074 33.584 151.834 33.712 151.53 33.92C151.242 34.112 150.954 34.36 150.666 34.664ZM159.847 44.24C158.215 44.24 156.863 43.736 155.791 42.728C154.735 41.704 154.207 40.352 154.207 38.672C154.207 36.848 154.815 35.32 156.031 34.088C157.263 32.856 158.815 32.24 160.687 32.24C162.287 32.24 163.607 32.784 164.647 33.872C165.703 34.96 166.231 36.312 166.231 37.928C166.231 39.736 165.631 41.24 164.431 42.44C163.231 43.64 161.703 44.24 159.847 44.24ZM160.735 42.872C161.631 42.872 162.327 42.544 162.823 41.888C163.319 41.232 163.567 40.384 163.567 39.344C163.567 37.856 163.199 36.536 162.463 35.384C161.727 34.216 160.815 33.632 159.727 33.632C158.815 33.632 158.111 33.984 157.615 34.688C157.135 35.392 156.895 36.272 156.895 37.328C156.895 38.848 157.255 40.152 157.975 41.24C158.711 42.328 159.631 42.872 160.735 42.872ZM168.033 44.24C167.601 44.24 167.185 44.12 166.785 43.88C166.401 43.624 166.209 43.224 166.209 42.68C166.209 42.312 166.313 42.008 166.521 41.768C166.745 41.528 167.001 41.408 167.289 41.408C167.641 41.408 167.921 41.584 168.129 41.936C168.353 42.272 168.561 42.44 168.753 42.44C169.297 42.44 169.713 41.616 170.001 39.968C170.305 38.32 170.457 36.704 170.457 35.12C170.457 34.784 170.377 34.504 170.217 34.28C170.073 34.04 169.913 33.872 169.737 33.776C169.561 33.664 169.393 33.544 169.233 33.416C169.089 33.272 169.017 33.12 169.017 32.96C169.017 32.64 169.393 32.48 170.145 32.48H177.825C178.321 32.48 178.657 32.52 178.833 32.6C179.009 32.664 179.097 32.784 179.097 32.96C179.097 33.152 178.993 33.328 178.785 33.488C178.577 33.648 178.361 33.848 178.137 34.088C177.929 34.312 177.825 34.6 177.825 34.952V40.76C177.825 41.272 177.881 41.688 177.993 42.008C178.121 42.312 178.249 42.512 178.377 42.608C178.521 42.704 178.649 42.824 178.761 42.968C178.889 43.112 178.953 43.28 178.953 43.472C178.953 43.824 178.625 44 177.969 44H174.945C174.273 44 173.937 43.816 173.937 43.448C173.937 43.256 173.993 43.096 174.105 42.968C174.233 42.824 174.369 42.704 174.513 42.608C174.673 42.512 174.809 42.312 174.921 42.008C175.049 41.688 175.113 41.272 175.113 40.76V34.592C175.113 34.224 175.025 34 174.849 33.92C174.689 33.824 174.249 33.776 173.529 33.776C172.761 33.776 172.273 33.816 172.065 33.896C171.873 33.976 171.769 34.192 171.753 34.544C171.657 36.064 171.577 37.16 171.513 37.832C171.465 38.488 171.337 39.336 171.129 40.376C170.937 41.4 170.681 42.168 170.361 42.68C169.881 43.72 169.105 44.24 168.033 44.24ZM191.272 40.616C191.496 40.392 191.696 40.344 191.872 40.472C192.064 40.6 192.104 40.824 191.992 41.144C191.704 41.896 191.064 42.6 190.072 43.256C189.096 43.912 187.904 44.24 186.496 44.24C184.816 44.24 183.448 43.712 182.392 42.656C181.352 41.6 180.832 40.256 180.832 38.624C180.832 36.816 181.424 35.304 182.608 34.088C183.792 32.856 185.248 32.24 186.976 32.24C188.304 32.24 189.392 32.584 190.24 33.272C191.088 33.96 191.616 34.84 191.824 35.912C191.904 36.376 191.72 36.696 191.272 36.872C189.512 37.608 187.04 38.536 183.856 39.656C184.128 40.376 184.584 40.992 185.224 41.504C185.88 42.016 186.68 42.272 187.624 42.272C188.984 42.272 190.2 41.72 191.272 40.616ZM186.088 33.584C185.24 33.632 184.576 33.992 184.096 34.664C183.632 35.32 183.4 36.088 183.4 36.968C183.4 37.608 183.456 38.104 183.568 38.456C185.648 37.768 187.256 37.192 188.392 36.728C188.824 36.568 188.992 36.272 188.896 35.84C188.752 35.136 188.408 34.568 187.864 34.136C187.32 33.704 186.728 33.52 186.088 33.584ZM199.246 44.24C197.534 44.24 196.158 43.704 195.118 42.632C194.078 41.544 193.558 40.208 193.558 38.624C193.558 36.816 194.15 35.304 195.334 34.088C196.534 32.872 197.998 32.264 199.726 32.264C201.15 32.264 202.294 32.656 203.158 33.44C204.038 34.224 204.478 35.136 204.478 36.176C204.478 36.656 204.35 37.024 204.094 37.28C203.838 37.536 203.518 37.664 203.134 37.664C202.734 37.664 202.43 37.544 202.222 37.304C202.014 37.064 201.846 36.728 201.718 36.296C201.222 34.504 200.326 33.6 199.03 33.584C198.15 33.584 197.454 33.92 196.942 34.592C196.43 35.248 196.174 36.112 196.174 37.184C196.174 38.704 196.558 39.936 197.326 40.88C198.11 41.808 199.142 42.272 200.422 42.272C201.59 42.272 202.71 41.752 203.782 40.712C204.006 40.488 204.214 40.44 204.406 40.568C204.598 40.68 204.638 40.896 204.526 41.216C204.222 42 203.622 42.704 202.726 43.328C201.83 43.936 200.67 44.24 199.246 44.24ZM211.761 44.24C210.129 44.24 208.777 43.736 207.705 42.728C206.649 41.704 206.121 40.352 206.121 38.672C206.121 36.848 206.729 35.32 207.945 34.088C209.177 32.856 210.729 32.24 212.601 32.24C214.201 32.24 215.521 32.784 216.561 33.872C217.617 34.96 218.145 36.312 218.145 37.928C218.145 39.736 217.545 41.24 216.345 42.44C215.145 43.64 213.617 44.24 211.761 44.24ZM212.649 42.872C213.545 42.872 214.241 42.544 214.737 41.888C215.233 41.232 215.481 40.384 215.481 39.344C215.481 37.856 215.113 36.536 214.377 35.384C213.641 34.216 212.729 33.632 211.641 33.632C210.729 33.632 210.025 33.984 209.529 34.688C209.049 35.392 208.809 36.272 208.809 37.328C208.809 38.848 209.169 40.152 209.889 41.24C210.625 42.328 211.545 42.872 212.649 42.872Z" fill="#FFF6C6"/>
</g>
<defs>
<filter id="filter0_d_1206_2384" x="0" y="0" width="260" height="77" filterUnits="userSpaceOnUse" color-interpolation-filters="sRGB">
<feFlood flood-opacity="0" result="BackgroundImageFix"/>
<feColorMatrix in="SourceAlpha" type="matrix" values="0 0 0 0 0 0 0 0 0 0 0 0 0 0 0 0 0 0 127 0" result="hardAlpha"/>
<feOffset dy="3"/>
<feComposite in2="hardAlpha" operator="out"/>
<feColorMatrix type="matrix" values="0 0 0 0 1 0 0 0 0 0.934667 0 0 0 0 0.591667 0 0 0 1 0"/>
<feBlend mode="normal" in2="BackgroundImageFix" result="effect1_dropShadow_1206_2384"/>
<feBlend mode="normal" in="SourceGraphic" in2="effect1_dropShadow_1206_2384" result="shape"/>
</filter>
</defs>
</svg>
