<svg width="422" height="421" viewBox="0 0 422 421" fill="none" xmlns="http://www.w3.org/2000/svg">
<ellipse cx="211" cy="208.029" rx="208" ry="207.971" fill="url(#paint0_linear_129_59)"/>
<g filter="url(#filter0_d_129_59)">
<ellipse cx="211" cy="208.029" rx="188.595" ry="188.568" fill="url(#paint1_linear_129_59)" shape-rendering="crispEdges"/>
</g>
<path d="M169.636 29.027C196.546 22.8102 224.512 22.7393 251.454 28.8194C278.396 34.8995 303.62 46.9742 325.251 64.1456L211 208.029L169.636 29.027Z" fill="url(#paint2_linear_129_59)"/>
<path d="M195.333 44.97L194.56 32.5748L196 33.8459L191.933 34.0996L191.776 31.5818L197.625 31.217L198.471 44.7743L195.333 44.97Z" fill="white"/>
<path d="M210.691 44.4211C209.579 44.3801 208.594 44.0718 207.735 43.4963C206.876 42.9079 206.214 42.0808 205.749 41.015C205.283 39.9492 205.078 38.673 205.133 37.1863C205.188 35.6995 205.487 34.4419 206.03 33.4134C206.573 32.3848 207.294 31.6153 208.193 31.1048C209.093 30.5814 210.098 30.3402 211.21 30.3813C212.335 30.4229 213.32 30.7376 214.166 31.3255C215.025 31.901 215.687 32.7216 216.152 33.7874C216.618 34.8532 216.823 36.1295 216.768 37.6162C216.713 39.1029 216.414 40.3606 215.871 41.3891C215.329 42.4176 214.607 43.1936 213.708 43.717C212.821 44.228 211.816 44.4627 210.691 44.4211ZM210.789 41.7644C211.319 41.784 211.784 41.6523 212.183 41.3693C212.594 41.0868 212.922 40.6263 213.166 39.9881C213.422 39.3503 213.57 38.5207 213.607 37.4994C213.645 36.4781 213.56 35.6399 213.351 34.9849C213.155 34.3304 212.862 33.8471 212.472 33.5349C212.095 33.2232 211.642 33.0576 211.112 33.038C210.595 33.0189 210.13 33.1506 209.719 33.4332C209.32 33.7162 208.992 34.1766 208.735 34.8144C208.492 35.4527 208.351 36.2825 208.313 37.3038C208.276 38.3251 208.355 39.163 208.551 39.8175C208.759 40.4725 209.052 40.9559 209.429 41.2675C209.819 41.5797 210.272 41.7453 210.789 41.7644Z" fill="white"/>
<path d="M222.562 44.8299C221.456 44.7082 220.496 44.3293 219.681 43.693C218.867 43.0439 218.267 42.1709 217.88 41.0742C217.493 39.9774 217.381 38.6896 217.544 37.2108C217.706 35.732 218.096 34.4994 218.712 33.5129C219.328 32.5265 220.103 31.8113 221.037 31.3674C221.972 30.9106 222.992 30.743 224.098 30.8647C225.217 30.9877 226.177 31.3731 226.978 32.0208C227.793 32.6571 228.394 33.5236 228.781 34.6204C229.168 35.7171 229.28 37.0049 229.117 38.4837C228.954 39.9626 228.565 41.1952 227.949 42.1816C227.333 43.1681 226.557 43.8897 225.622 44.3465C224.701 44.7918 223.681 44.9529 222.562 44.8299ZM222.853 42.1873C223.38 42.2453 223.853 42.1476 224.271 41.8943C224.703 41.6423 225.063 41.2069 225.352 40.588C225.654 39.9705 225.861 39.1538 225.973 38.1379C226.085 37.122 226.06 36.2799 225.899 35.6115C225.752 34.9445 225.495 34.4412 225.128 34.1015C224.775 33.7633 224.335 33.5653 223.808 33.5073C223.293 33.4507 222.821 33.5484 222.389 33.8003C221.971 34.0536 221.611 34.489 221.309 35.1065C221.019 35.7255 220.819 36.5429 220.707 37.5587C220.595 38.5746 220.613 39.4161 220.761 40.0831C220.922 40.7515 221.179 41.2548 221.532 41.593C221.898 41.9326 222.339 42.1307 222.853 42.1873Z" fill="white"/>
<path d="M234.058 46.0466C232.964 45.8461 232.033 45.3993 231.266 44.7063C230.501 44.0006 229.965 43.0869 229.657 41.9653C229.35 40.8437 229.33 39.5512 229.598 38.0878C229.867 36.6244 230.343 35.4229 231.029 34.4831C231.714 33.5433 232.538 32.8854 233.501 32.5095C234.467 32.1209 235.497 32.0268 236.591 32.2273C237.698 32.4302 238.628 32.8833 239.38 33.5867C240.147 34.2796 240.685 35.187 240.992 36.3086C241.3 37.4303 241.319 38.7228 241.051 40.1861C240.783 41.6495 240.306 42.8511 239.621 43.7908C238.936 44.7306 238.11 45.3948 237.145 45.7835C236.194 46.1617 235.165 46.2494 234.058 46.0466ZM234.538 43.4316C235.059 43.5272 235.538 43.4636 235.973 43.2409C236.421 43.0205 236.812 42.612 237.145 42.0154C237.491 41.4211 237.755 40.6213 237.94 39.6161C238.124 38.6108 238.16 37.7691 238.047 37.0909C237.948 36.415 237.727 35.8946 237.387 35.5296C237.058 35.167 236.634 34.9379 236.112 34.8423C235.603 34.749 235.124 34.8126 234.676 35.033C234.241 35.2557 233.85 35.6642 233.505 36.2585C233.172 36.8551 232.913 37.6561 232.729 38.6613C232.545 39.6666 232.502 40.5072 232.602 41.1831C232.714 41.8613 232.935 42.3817 233.263 42.7443C233.604 43.1092 234.029 43.3383 234.538 43.4316Z" fill="white"/>
<path d="M250.365 49.2242C249.296 48.9146 248.415 48.3765 247.721 47.6098C247.031 46.8308 246.589 45.8678 246.397 44.7209C246.204 43.574 246.314 42.2861 246.728 40.8572C247.142 39.4282 247.738 38.2807 248.514 37.4146C249.29 36.5486 250.176 35.977 251.172 35.6999C252.172 35.4104 253.206 35.4204 254.275 35.73C255.356 36.0432 256.236 36.5875 256.913 37.363C257.607 38.1296 258.05 39.0864 258.243 40.2333C258.436 41.3801 258.326 42.668 257.912 44.097C257.497 45.5259 256.902 46.6735 256.126 47.5395C255.35 48.4056 254.462 48.9834 253.462 49.2729C252.478 49.5536 251.446 49.5374 250.365 49.2242ZM251.105 46.6707C251.614 46.8183 252.097 46.8032 252.552 46.6254C253.02 46.4512 253.45 46.0841 253.841 45.524C254.245 44.9675 254.589 44.1985 254.873 43.2168C255.158 42.2352 255.278 41.4014 255.235 40.7153C255.203 40.0328 255.037 39.4929 254.734 39.0955C254.444 38.7017 254.045 38.431 253.535 38.2834C253.038 38.1394 252.556 38.1545 252.088 38.3287C251.632 38.5065 251.202 38.8737 250.799 39.4302C250.407 39.9903 250.069 40.7611 249.785 41.7427C249.501 42.7244 249.374 43.5564 249.405 44.2389C249.449 44.925 249.616 45.4649 249.906 45.8587C250.208 46.2561 250.608 46.5268 251.105 46.6707Z" fill="white"/>
<path d="M261.814 52.5088C260.771 52.1224 259.931 51.5217 259.295 50.7067C258.663 49.8795 258.293 48.887 258.184 47.7292C258.075 46.5713 258.279 45.2948 258.795 43.8998C259.312 42.5047 259.989 41.4034 260.826 40.596C261.664 39.7886 262.589 39.2829 263.603 39.0789C264.621 38.8628 265.652 38.9479 266.695 39.3343C267.75 39.7252 268.588 40.3319 269.207 41.1546C269.844 41.9696 270.216 42.9561 270.325 44.1139C270.435 45.2718 270.231 46.5482 269.714 47.9433C269.197 49.3384 268.52 50.4396 267.683 51.2471C266.846 52.0545 265.918 52.5662 264.9 52.7824C263.898 52.9908 262.87 52.8997 261.814 52.5088ZM262.738 50.0158C263.235 50.2 263.718 50.22 264.185 50.0758C264.664 49.936 265.12 49.6011 265.551 49.0709C265.994 48.5452 266.393 47.8032 266.748 46.8448C267.103 45.8864 267.283 45.0635 267.29 44.3761C267.308 43.6932 267.181 43.1426 266.908 42.7243C266.648 42.3105 266.269 42.0115 265.771 41.8273C265.286 41.6475 264.804 41.6276 264.324 41.7673C263.857 41.9115 263.402 42.2465 262.959 42.7722C262.528 43.3024 262.135 44.0466 261.78 45.005C261.425 45.9634 261.238 46.784 261.22 47.467C261.213 48.1544 261.34 48.705 261.601 49.1188C261.874 49.5371 262.253 49.8361 262.738 50.0158Z" fill="white"/>
<path d="M272.959 56.6013C271.946 56.1403 271.152 55.4802 270.577 54.6212C270.007 53.7505 269.709 52.7337 269.684 51.571C269.66 50.4083 269.956 49.15 270.572 47.796C271.189 46.4421 271.944 45.3929 272.837 44.6483C273.731 43.9037 274.69 43.4665 275.716 43.3365C276.747 43.1948 277.769 43.3544 278.782 43.8154C279.806 44.2818 280.598 44.9477 281.156 45.8131C281.731 46.6721 282.031 47.683 282.056 48.8457C282.081 50.0084 281.785 51.2667 281.169 52.6207C280.552 53.9746 279.797 55.0239 278.903 55.7684C278.01 56.513 277.048 56.9561 276.016 57.0979C275.002 57.2332 273.983 57.0677 272.959 56.6013ZM274.061 54.1819C274.543 54.4016 275.023 54.4566 275.5 54.3466C275.988 54.242 276.466 53.9409 276.934 53.4434C277.415 52.9512 277.866 52.2401 278.29 51.31C278.714 50.3799 278.953 49.5723 279.01 48.8871C279.078 48.2073 278.991 47.6489 278.749 47.212C278.519 46.7803 278.163 46.4546 277.68 46.2349C277.209 46.0204 276.729 45.9655 276.241 46.0701C275.765 46.1801 275.286 46.4812 274.806 46.9733C274.338 47.4709 273.892 48.1847 273.469 49.1148C273.045 50.0449 272.799 50.8498 272.731 51.5296C272.675 52.2148 272.762 52.7732 272.992 53.2048C273.233 53.6417 273.59 53.9674 274.061 54.1819Z" fill="white"/>
<path d="M285.201 61.9168L289.447 54.375L289.696 55.3168L286.026 53.2515L287.245 51.0871L296.021 56.0266L294.803 58.1911L291.133 56.1258L292.068 55.8502L287.822 63.392L285.201 61.9168Z" fill="white"/>
<path d="M291.74 65.2831L297.396 56.508L304.427 61.0384L303.081 63.1262L298.008 59.8571L298.936 59.6705L294.268 66.9123L291.74 65.2831Z" fill="white"/>
<path d="M220.95 71.9976L219.242 81.3085L217.599 90.2604L228.218 92.2079L229.999 82.497L231.568 73.945C226.305 76.1557 222.296 73.5678 220.95 71.9976Z" fill="#DD98C2"/>
<path d="M236.448 78.9655C232.355 79.896 226.513 85.377 223.989 88.1055L222.202 97.8454C223.361 97.8785 226.161 98.2486 228.09 99.4634C228.579 99.7324 229.48 100.687 229.174 102.353C228.869 104.018 228.07 108.997 227.709 111.278C230.596 112.508 238.409 114.867 245.575 114.5C252.742 114.133 254.898 108.659 255.08 105.968C257.221 93.2838 250.329 83.9243 246.615 80.8301C243.096 81.6793 238.371 79.9409 236.448 78.9655Z" fill="#FBDBEE"/>
<path d="M243.526 110.901C245.752 111.407 250.524 111.145 251.81 106.052" stroke="white" stroke-width="0.918762" stroke-linecap="round"/>
<path d="M235.963 83.1918C236.822 82.1203 238.864 80.0654 240.159 80.4182" stroke="#BA95A3" stroke-width="0.918762" stroke-linecap="round"/>
<path d="M244.5 84.7575C244.077 83.4508 242.897 80.8051 241.561 80.6754" stroke="#BA95A3" stroke-width="0.918762" stroke-linecap="round"/>
<path d="M240.929 80.6165L240.387 83.5704" stroke="#BA95A3" stroke-width="0.918762" stroke-linecap="round"/>
<path d="M235.087 69.4642C233.333 73.1584 235.206 77.2848 236.361 78.8862C241.206 81.4748 245.264 81.2274 246.688 80.7802C250.855 77.8406 251.657 72.7075 251.055 71.7777C250.453 70.8478 248.391 73.0249 246.67 72.7092C244.949 72.3935 245.331 70.8215 243.173 70.3322C241.016 69.8428 239.536 73.5521 237.793 71.0811C236.399 69.1043 235.408 69.1795 235.087 69.4642Z" fill="#FBDBEE"/>
<path d="M214.069 82.5735L209.688 106.453L220.307 108.401L222.285 97.6188L224.688 84.521C219.425 86.7316 215.416 84.1438 214.069 82.5735Z" fill="#F1C0DD"/>
<path d="M219.086 99.8297L217.038 110.992C216.978 111.318 217.098 111.654 217.362 111.854C220.929 114.555 224.852 114.218 226.87 113.596C227.174 113.503 227.388 113.238 227.445 112.925L229.532 101.552C224.269 103.763 220.432 101.4 219.086 99.8297Z" fill="#DD98C2"/>
<path d="M206.394 105.379L205.47 110.418C205.41 110.744 205.529 111.08 205.794 111.28C209.375 113.985 213.465 113.677 215.508 113.059C215.813 112.967 216.026 112.703 216.084 112.389L217.012 107.327C211.75 109.537 207.741 106.95 206.394 105.379Z" fill="#F1C0DD"/>
<ellipse rx="5.39773" ry="2.38059" transform="matrix(0.983594 0.180398 -0.180447 0.983585 219.338 83.768)" fill="white"/>
<ellipse rx="5.29253" ry="2.64626" transform="matrix(0.983594 0.180398 -0.180447 0.983585 224.326 100.597)" fill="white"/>
<ellipse rx="5.39773" ry="2.38059" transform="matrix(0.983594 0.180398 -0.180447 0.983585 211.647 106.659)" fill="white"/>
<ellipse rx="5.39773" ry="2.38059" transform="matrix(0.983594 0.180398 -0.180447 0.983585 226.217 73.2014)" fill="white"/>
<path d="M250.718 75.3132C251.957 75.7116 254.109 77.1889 252.805 79.9106C251.502 82.6323 248.361 81.6271 246.954 80.7842C249.234 81.3022 254.142 82.9541 255.539 85.418" stroke="#BA95A3" stroke-width="0.918762" stroke-linecap="round"/>
<path d="M239.683 90.9137L240.056 93.9482C240.217 95.2554 241.008 96.4011 242.173 97.0151L244.879 98.4406L241.986 98.5933C240.472 98.6733 239.131 99.5978 238.519 100.984L237.35 103.633L237.283 100.803C237.245 99.2025 236.261 97.7765 234.777 97.1732L232.154 96.1066L235.012 96.0028C236.575 95.9461 237.964 94.9885 238.571 93.548L239.683 90.9137Z" fill="#B22C7D"/>
<path d="M236.17 78.884C238.646 80.0555 244.062 81.9298 247.24 80.6586" stroke="#BA95A3" stroke-width="1.05851" stroke-linecap="square"/>
<path d="M240.915 80.6134C242.981 80.7332 243.921 79.4249 244.985 77.2694" stroke="#BA95A3" stroke-width="0.918762" stroke-linecap="round"/>
<path d="M241.096 80.6469C239.092 80.1065 238.707 78.4689 238.478 76.0762" stroke="#BA95A3" stroke-width="0.918762" stroke-linecap="round"/>
<path d="M325.358 64.2305C346.977 81.4179 364.441 103.257 376.454 128.124C388.467 152.991 394.718 180.245 394.743 207.861L211 208.029L325.358 64.2305Z" fill="url(#paint3_linear_129_59)"/>
<path d="M347.349 110.871L349.587 104.953L351.815 105.876L349.07 113.207L347.349 110.871ZM343.093 105.096L351.978 98.5497L353.484 100.593L344.599 107.139L343.093 105.096ZM347.739 103.906L349.452 102.643L351.735 105.74L350.021 107.003L347.739 103.906ZM350.889 106.852L349.724 104.793L356.29 104.401L357.89 106.571L350.889 106.852Z" fill="white"/>
<path d="M347.377 116.513C347.136 116.143 346.956 115.74 346.836 115.304C346.715 114.869 346.682 114.47 346.736 114.109L348.693 113.909C348.655 114.16 348.662 114.412 348.715 114.666C348.773 114.929 348.868 115.162 349 115.365C349.189 115.656 349.408 115.839 349.658 115.915C349.905 116.005 350.233 116.018 350.642 115.953L351.755 115.756L352.083 115.768L359.875 114.334L361.164 116.316L351.527 118.009C350.805 118.153 350.184 118.18 349.663 118.093C349.148 118.014 348.707 117.836 348.34 117.561C347.979 117.294 347.658 116.945 347.377 116.513ZM350.56 116.175L355.889 108.2L357.272 110.328L352.921 116.653L350.56 116.175Z" fill="white"/>
<path d="M356.53 125.545C356.177 124.924 356.005 124.302 356.015 123.68C356.024 123.058 356.232 122.457 356.64 121.875C357.061 121.297 357.701 120.765 358.56 120.277C359.429 119.784 360.212 119.502 360.91 119.433C361.607 119.363 362.226 119.483 362.765 119.794C363.304 120.104 363.757 120.584 364.126 121.233C364.52 121.927 364.713 122.64 364.705 123.37C364.711 124.104 364.521 124.792 364.136 125.433C363.756 126.084 363.182 126.627 362.415 127.063C361.638 127.504 360.872 127.721 360.119 127.714C359.37 127.716 358.682 127.526 358.055 127.145C357.433 126.773 356.924 126.24 356.53 125.545ZM351.504 122.633L361.54 116.935L362.7 118.978L361.192 119.834L358.975 121.039L356.873 122.413L352.718 124.772L351.504 122.633ZM358.075 124.179C358.277 124.535 358.538 124.804 358.859 124.985C359.184 125.174 359.544 125.266 359.94 125.259C360.349 125.257 360.764 125.136 361.184 124.897C361.614 124.653 361.93 124.359 362.133 124.014C362.342 123.678 362.447 123.322 362.451 122.945C362.46 122.577 362.363 122.215 362.161 121.859C361.958 121.502 361.694 121.229 361.369 121.039C361.043 120.849 360.683 120.758 360.288 120.765C359.893 120.771 359.481 120.897 359.051 121.14C358.631 121.379 358.312 121.669 358.094 122.01C357.886 122.346 357.78 122.702 357.777 123.079C357.773 123.456 357.872 123.822 358.075 124.179Z" fill="white"/>
<path d="M361.368 134.73C360.964 133.91 360.769 133.097 360.784 132.294C360.808 131.485 361.026 130.751 361.439 130.091C361.857 129.44 362.443 128.929 363.197 128.558C363.961 128.182 364.724 128.029 365.485 128.099C366.26 128.175 366.97 128.452 367.616 128.931C368.271 129.405 368.801 130.052 369.205 130.872C369.6 131.674 369.774 132.455 369.727 133.216C369.689 133.973 369.429 134.646 368.946 135.235L367.183 133.976C367.444 133.602 367.585 133.222 367.606 132.837C367.632 132.461 367.559 132.098 367.387 131.749C367.202 131.372 366.95 131.075 366.631 130.856C366.313 130.638 365.954 130.516 365.555 130.49C365.16 130.474 364.741 130.574 364.298 130.793C363.854 131.011 363.519 131.281 363.291 131.604C363.068 131.937 362.946 132.295 362.925 132.681C362.904 133.066 362.986 133.447 363.172 133.824C363.344 134.173 363.582 134.455 363.886 134.668C364.204 134.886 364.596 135.004 365.061 135.021L364.971 137.192C364.218 137.211 363.526 137.007 362.894 136.58C362.272 136.148 361.763 135.531 361.368 134.73Z" fill="white"/>
<path d="M365.306 142.967L373.203 139.87L376.284 147.722L368.387 150.82L367.489 148.53L374.02 145.968L373.708 146.683L372.015 142.368L372.73 142.68L366.199 145.242L365.306 142.967Z" fill="white"/>
<path d="M370.113 156.389C369.833 155.529 369.765 154.706 369.907 153.919C370.053 153.142 370.372 152.458 370.865 151.867C371.372 151.283 372.025 150.861 372.825 150.601C373.634 150.338 374.411 150.296 375.154 150.475C375.911 150.66 376.571 151.026 377.135 151.572C377.713 152.125 378.141 152.831 378.42 153.691C378.696 154.541 378.763 155.359 378.621 156.145C378.488 156.929 378.174 157.611 377.678 158.192C377.181 158.774 376.523 159.197 375.703 159.463C374.904 159.723 374.127 159.765 373.374 159.59C372.631 159.411 371.97 159.046 371.393 158.493C370.815 157.94 370.389 157.238 370.113 156.389ZM372.032 155.765C372.159 156.155 372.362 156.476 372.643 156.727C372.924 156.979 373.258 157.141 373.646 157.214C374.045 157.283 374.474 157.243 374.934 157.094C375.404 156.942 375.774 156.722 376.046 156.435C376.317 156.148 376.493 155.82 376.572 155.451C376.651 155.083 376.627 154.704 376.501 154.314C376.374 153.924 376.171 153.604 375.89 153.352C375.609 153.101 375.273 152.933 374.882 152.851C374.493 152.778 374.064 152.818 373.594 152.97C373.134 153.12 372.764 153.339 372.482 153.63C372.214 153.927 372.04 154.26 371.961 154.628C371.882 154.996 371.905 155.375 372.032 155.765Z" fill="white"/>
<path d="M310.64 96.2614L316.402 89.7805C317.038 89.0657 317.756 88.6847 318.558 88.6376C319.366 88.5826 320.163 88.9042 320.949 89.6025C321.216 89.8399 321.447 90.0944 321.641 90.3658C321.844 90.6443 321.979 90.9192 322.047 91.1907L320.38 92.0928C320.341 91.9313 320.276 91.775 320.185 91.624C320.094 91.473 319.978 91.3347 319.837 91.209C319.57 90.9716 319.292 90.8651 319.003 90.8895C318.729 90.9131 318.455 91.0781 318.183 91.3844L317.659 91.9736L317.004 92.805L312.479 97.8953L310.64 96.2614ZM313.916 90.608L315.173 89.194L319.568 93.1009L318.311 94.5149L313.916 90.608Z" fill="white"/>
<path d="M319.145 104.253L320.317 103.084L320.463 102.716L322.561 100.623C322.933 100.252 323.108 99.8468 323.086 99.4082C323.072 98.9772 322.831 98.5273 322.363 98.0585C322.044 97.7386 321.676 97.4744 321.26 97.2658C320.859 97.0573 320.465 96.9305 320.079 96.8855L320.672 95.0467C321.229 95.144 321.801 95.3601 322.388 95.6952C322.975 96.0303 323.506 96.4359 323.981 96.9121C324.894 97.8272 325.388 98.753 325.461 99.6895C325.534 100.626 325.113 101.551 324.198 102.464L320.771 105.883L319.145 104.253ZM317.23 102.512C316.762 102.043 316.439 101.564 316.261 101.073C316.091 100.575 316.054 100.099 316.151 99.646C316.248 99.1927 316.468 98.7953 316.81 98.4538C317.167 98.0975 317.565 97.8712 318.004 97.7751C318.45 97.6864 318.937 97.7575 319.464 97.9885C319.999 98.212 320.571 98.6289 321.18 99.2389L322.773 100.835L321.757 101.848L320.354 100.442C319.945 100.033 319.596 99.8169 319.306 99.7943C319.024 99.7791 318.782 99.8718 318.581 100.072C318.358 100.295 318.265 100.559 318.302 100.863C318.353 101.168 318.531 101.473 318.836 101.778C319.125 102.068 319.452 102.262 319.816 102.359C320.188 102.448 320.56 102.412 320.931 102.249L320.395 103.318C319.882 103.578 319.358 103.64 318.823 103.506C318.288 103.372 317.757 103.04 317.23 102.512Z" fill="white"/>
<path d="M325.94 111.82C325.341 111.13 324.946 110.394 324.755 109.613C324.572 108.825 324.597 108.059 324.828 107.316C325.066 106.58 325.503 105.937 326.138 105.386C326.781 104.828 327.48 104.486 328.234 104.36C329.003 104.236 329.76 104.323 330.507 104.622C331.261 104.913 331.938 105.405 332.537 106.095C333.123 106.77 333.49 107.481 333.638 108.229C333.795 108.971 333.714 109.688 333.397 110.38L331.372 109.611C331.529 109.183 331.569 108.78 331.491 108.402C331.421 108.032 331.258 107.7 331.003 107.406C330.727 107.089 330.408 106.865 330.044 106.735C329.681 106.605 329.303 106.578 328.91 106.655C328.524 106.739 328.144 106.943 327.771 107.267C327.398 107.591 327.143 107.938 327.005 108.308C326.874 108.686 326.847 109.064 326.924 109.442C327.002 109.82 327.179 110.168 327.454 110.486C327.709 110.779 328.011 110.991 328.359 111.119C328.723 111.249 329.132 111.264 329.586 111.162L330.051 113.284C329.328 113.494 328.607 113.473 327.887 113.221C327.175 112.962 326.526 112.495 325.94 111.82Z" fill="white"/>
<path d="M331.807 119.095C331.225 118.323 330.863 117.529 330.722 116.714C330.587 115.907 330.66 115.148 330.939 114.437C331.228 113.719 331.707 113.107 332.379 112.601C333.058 112.088 333.776 111.791 334.53 111.709C335.299 111.629 336.037 111.751 336.742 112.075C337.455 112.393 338.072 112.896 338.591 113.584C339.091 114.246 339.398 114.95 339.511 115.694C339.639 116.44 339.556 117.167 339.262 117.876C338.976 118.579 338.468 119.206 337.737 119.757C337.662 119.814 337.571 119.876 337.464 119.943C337.365 120.005 337.271 120.063 337.18 120.118L333.031 114.617L334.176 113.753L337.547 118.222L336.638 117.723C336.99 117.457 337.243 117.155 337.395 116.816C337.548 116.477 337.6 116.128 337.553 115.768C337.514 115.403 337.368 115.052 337.115 114.716C336.862 114.381 336.561 114.14 336.214 113.994C335.882 113.85 335.527 113.807 335.151 113.867C334.783 113.921 334.419 114.084 334.058 114.356L333.756 114.584C333.387 114.862 333.12 115.189 332.955 115.563C332.804 115.94 332.764 116.332 332.835 116.74C332.92 117.149 333.115 117.556 333.418 117.958C333.691 118.319 333.983 118.593 334.294 118.779C334.612 118.974 334.966 119.102 335.355 119.164L335.01 121.063C334.423 121.019 333.856 120.834 333.309 120.51C332.77 120.179 332.269 119.707 331.807 119.095Z" fill="white"/>
<path d="M338.791 122.64L340.434 121.552L342.898 125.271L341.255 126.36L338.791 122.64Z" fill="white"/>
<path d="M339.994 130.676L347.377 126.499L348.642 128.736L345.168 134.378L344.664 133.486L351.399 133.607L352.532 135.611L345.165 139.815L344.07 137.88L349.257 134.945L349.224 135.399L343.534 135.267L343.021 134.361L345.982 129.317L346.303 129.66L341.088 132.61L339.994 130.676Z" fill="white"/>
<path d="M348.601 147.05L350.101 146.349L350.363 146.053L353.049 144.799C353.525 144.577 353.828 144.256 353.957 143.836C354.09 143.426 354.016 142.921 353.736 142.321C353.545 141.911 353.289 141.538 352.969 141.2C352.663 140.867 352.336 140.614 351.988 140.44L353.171 138.913C353.662 139.194 354.127 139.592 354.564 140.107C355.002 140.622 355.363 141.184 355.648 141.794C356.195 142.965 356.343 144.004 356.093 144.909C355.843 145.815 355.133 146.541 353.961 147.088L349.575 149.135L348.601 147.05ZM347.393 144.76C347.113 144.16 346.972 143.599 346.972 143.077C346.982 142.551 347.109 142.091 347.355 141.698C347.601 141.305 347.942 141.006 348.381 140.802C348.838 140.588 349.289 140.511 349.734 140.57C350.184 140.638 350.617 140.871 351.034 141.268C351.461 141.66 351.857 142.247 352.222 143.028L353.176 145.071L351.876 145.678L351.035 143.878C350.79 143.354 350.536 143.032 350.271 142.912C350.011 142.802 349.752 142.806 349.495 142.926C349.209 143.06 349.031 143.276 348.962 143.575C348.907 143.879 348.971 144.227 349.153 144.617C349.326 144.988 349.568 145.282 349.877 145.497C350.196 145.708 350.558 145.8 350.963 145.773L350.095 146.596C349.524 146.665 349.01 146.546 348.552 146.237C348.095 145.929 347.708 145.436 347.393 144.76Z" fill="white"/>
<path d="M351.872 155.215C351.541 154.363 351.418 153.537 351.502 152.738C351.595 151.934 351.877 151.222 352.345 150.6C352.818 149.988 353.446 149.53 354.23 149.225C355.024 148.917 355.797 148.831 356.549 148.967C357.314 149.109 357.998 149.447 358.6 149.98C359.212 150.509 359.683 151.2 360.014 152.052C360.338 152.885 360.443 153.678 360.331 154.433C360.228 155.183 359.91 155.831 359.377 156.376L357.731 154.969C358.023 154.619 358.197 154.252 358.251 153.87C358.31 153.498 358.268 153.131 358.128 152.768C357.975 152.376 357.75 152.058 357.452 151.813C357.154 151.568 356.807 151.415 356.411 151.355C356.019 151.304 355.593 151.368 355.132 151.547C354.672 151.726 354.314 151.966 354.06 152.268C353.809 152.58 353.656 152.927 353.601 153.309C353.547 153.691 353.596 154.078 353.748 154.47C353.889 154.832 354.102 155.133 354.386 155.372C354.684 155.617 355.064 155.768 355.527 155.826L355.248 157.981C354.497 157.934 353.825 157.671 353.232 157.191C352.649 156.707 352.196 156.048 351.872 155.215Z" fill="white"/>
<path d="M355.042 164.376C354.767 163.504 354.699 162.671 354.835 161.879C354.982 161.084 355.31 160.392 355.819 159.802C356.331 159.222 356.988 158.807 357.79 158.555C358.602 158.299 359.379 158.265 360.121 158.45C360.875 158.643 361.535 159.025 362.101 159.597C362.676 160.165 363.101 160.886 363.375 161.758C363.643 162.61 363.695 163.409 363.533 164.154C363.38 164.896 363.021 165.522 362.453 166.03L360.904 164.518C361.218 164.187 361.416 163.833 361.495 163.456C361.578 163.088 361.561 162.719 361.445 162.348C361.319 161.947 361.115 161.614 360.834 161.35C360.552 161.086 360.216 160.91 359.825 160.824C359.438 160.747 359.008 160.783 358.537 160.931C358.066 161.079 357.693 161.296 357.419 161.58C357.148 161.874 356.972 162.211 356.893 162.588C356.813 162.966 356.836 163.355 356.962 163.756C357.079 164.127 357.271 164.441 357.539 164.699C357.821 164.963 358.19 165.139 358.647 165.226L358.227 167.358C357.48 167.262 356.827 166.955 356.268 166.437C355.718 165.915 355.309 165.228 355.042 164.376Z" fill="white"/>
<path d="M357.937 174.595L359.546 174.204L359.861 173.966L362.742 173.266C363.252 173.142 363.612 172.887 363.821 172.501C364.033 172.125 364.06 171.615 363.904 170.972C363.797 170.532 363.62 170.116 363.373 169.721C363.139 169.335 362.868 169.022 362.561 168.783L364.023 167.519C364.448 167.892 364.825 168.374 365.153 168.965C365.48 169.556 365.723 170.178 365.882 170.832C366.187 172.088 366.128 173.136 365.704 173.974C365.281 174.813 364.441 175.384 363.184 175.69L358.481 176.832L357.937 174.595ZM357.204 172.112C357.048 171.469 357.021 170.891 357.124 170.379C357.237 169.865 357.453 169.44 357.771 169.103C358.089 168.766 358.484 168.54 358.953 168.426C359.444 168.307 359.901 168.32 360.326 168.466C360.753 168.622 361.132 168.935 361.463 169.407C361.804 169.875 362.076 170.529 362.28 171.366L362.812 173.557L361.418 173.896L360.949 171.965C360.813 171.403 360.626 171.038 360.39 170.868C360.157 170.708 359.902 170.662 359.626 170.729C359.32 170.803 359.103 170.98 358.977 171.26C358.863 171.547 358.856 171.9 358.958 172.319C359.055 172.717 359.234 173.052 359.494 173.324C359.765 173.594 360.102 173.756 360.505 173.809L359.491 174.445C358.917 174.4 358.437 174.182 358.05 173.789C357.662 173.396 357.38 172.837 357.204 172.112Z" fill="white"/>
<path d="M360.614 189.336L364.24 186.489L365.714 188.27L361.064 192.218L360.614 189.336ZM363.222 185.18L365.169 184.876L365.623 187.789L363.676 188.093L363.222 185.18ZM364.522 188.711L364.414 186.382L369.013 188.139L369.414 190.709L364.522 188.711ZM359.322 181.048L358.875 178.182L364.504 180.512L363.642 182.657L359.322 181.048ZM360.155 186.392L359.781 183.993L368.162 182.686L368.537 185.085L360.155 186.392ZM363.071 184.214L362.619 181.316L364.566 181.013L365.018 183.91L363.071 184.214ZM363.235 180.454L367.286 177.062L367.686 179.633L363.839 182.69L363.235 180.454Z" fill="white"/>
<path d="M357.952 194.828C357.921 194.388 357.957 193.948 358.063 193.508C358.168 193.069 358.331 192.704 358.553 192.414L360.363 193.185C360.209 193.385 360.093 193.61 360.016 193.858C359.94 194.116 359.911 194.366 359.928 194.607C359.953 194.953 360.057 195.22 360.239 195.407C360.411 195.605 360.692 195.775 361.082 195.915L362.151 196.281L362.432 196.45L369.948 198.96L370.118 201.318L360.863 198.144C360.162 197.92 359.604 197.644 359.191 197.316C358.778 196.998 358.477 196.63 358.289 196.211C358.102 195.803 357.989 195.342 357.952 194.828ZM360.903 196.07L369.422 191.663L369.604 194.195L362.738 197.629L360.903 196.07Z" fill="white"/>
<path d="M291.934 144.321L290.514 145.616C289.902 146.174 289.602 146.996 289.712 147.817L289.965 149.723L288.835 148.295C288.243 147.548 287.281 147.197 286.348 147.388L284.564 147.752L285.991 146.688C286.798 146.087 287.171 145.063 286.94 144.083L286.532 142.35L287.625 143.778C288.223 144.559 289.219 144.922 290.179 144.71L291.934 144.321Z" fill="#F1C0DD"/>
<path d="M296.136 186.13L295.213 186.971C294.816 187.334 294.621 187.868 294.692 188.402L294.857 189.641L294.122 188.713C293.737 188.227 293.112 187.999 292.505 188.123L291.346 188.36L292.273 187.668C292.798 187.277 293.04 186.612 292.89 185.975L292.625 184.849L293.336 185.777C293.724 186.284 294.372 186.52 294.996 186.382L296.136 186.13Z" fill="#F1C0DD"/>
<path d="M299.433 151.094C303.316 154.887 309.404 158.303 311.963 159.537C311.694 162.094 311.135 167.65 311.048 169.408C310.465 172.39 313.113 177.989 300.79 181.662C290.648 184.685 282.192 175.854 281.568 174.514C280.321 171.835 281.646 158.041 288.421 154.005C293.84 150.777 298.025 150.556 299.433 151.094Z" fill="#FFF5FB"/>
<path d="M303.917 145.174C299.288 145.663 295.862 149.227 294.728 150.948C295.937 150.758 298.525 150.486 299.207 150.918C300.06 151.459 304.533 156.121 311.869 159.36C312.151 157.287 313.079 153.15 313.36 152.443C313.772 151.412 314.497 150.043 316.438 149.14C315.081 147.484 309.703 144.563 303.917 145.174Z" fill="#F1C0DD" stroke="#F1C0DD" stroke-width="1.06667" stroke-linecap="round"/>
<path d="M292.817 157.467C292.2 158.294 291.493 161.649 294.996 163.485" stroke="#8A2360" stroke-width="1.06667" stroke-linecap="round"/>
<path d="M301.66 176.456C300.63 176.396 297.607 174.777 298.456 170.915" stroke="#8A2360" stroke-width="1.06667" stroke-linecap="round"/>
<path d="M287.175 168.541C286.954 169.842 287.152 172.755 289.714 173.993" stroke="#8A2360" stroke-width="1.06667" stroke-linecap="round"/>
<path d="M294.731 154.968C295.436 155.077 297.044 155.633 297.835 156.994" stroke="#8A2360" stroke-width="1.06667" stroke-linecap="round"/>
<path d="M304.466 175.873C304.837 175.264 305.446 173.675 304.913 172.194" stroke="#8A2360" stroke-width="1.06667" stroke-linecap="round"/>
<path fill-rule="evenodd" clip-rule="evenodd" d="M277.855 155.361L277.952 155.315C278.198 155.844 279.21 156.638 280.751 155.921L280.796 156.018C280.519 156.147 280.039 156.478 279.7 156.927C279.362 157.376 279.171 157.932 279.445 158.52L279.347 158.565C279.229 158.312 278.946 157.976 278.491 157.797C278.038 157.619 277.409 157.595 276.594 157.974L276.548 157.877C276.831 157.745 277.313 157.44 277.646 157.004C277.977 156.57 278.158 156.011 277.855 155.361ZM277.105 157.668C277.684 157.505 278.159 157.551 278.531 157.697C278.833 157.816 279.065 158.001 279.228 158.19C279.14 157.694 279.333 157.236 279.615 156.863C279.811 156.602 280.053 156.38 280.279 156.212C279.238 156.504 278.472 156.12 278.081 155.691C278.199 156.229 278.015 156.697 277.731 157.069C277.547 157.31 277.321 157.511 277.105 157.668Z" fill="white" stroke="white" stroke-width="0.246803" stroke-linecap="round"/>
<path fill-rule="evenodd" clip-rule="evenodd" d="M317.295 174.355L317.472 174.273C317.917 175.23 319.748 176.667 322.537 175.369L322.619 175.545C322.118 175.779 321.249 176.378 320.636 177.192C320.023 178.003 319.677 179.009 320.173 180.074L319.997 180.157C319.783 179.698 319.271 179.09 318.447 178.766C317.627 178.443 316.488 178.399 315.012 179.087L314.93 178.91C315.441 178.672 316.314 178.119 316.916 177.33C317.516 176.544 317.843 175.532 317.295 174.355ZM315.938 178.532C316.986 178.238 317.846 178.32 318.518 178.585C319.066 178.8 319.486 179.134 319.78 179.477C319.622 178.579 319.971 177.75 320.481 177.074C320.836 176.603 321.274 176.201 321.682 175.896C319.798 176.426 318.412 175.73 317.704 174.953C317.917 175.926 317.585 176.774 317.071 177.448C316.738 177.883 316.329 178.248 315.938 178.532Z" fill="white" stroke="white" stroke-width="0.246803" stroke-linecap="round"/>
<path d="M312.893 153.955C312.493 155.173 311.593 162.298 311.193 165.709C311.1 167.451 310.899 171.289 310.83 172.698C310.744 174.459 310.69 176.429 307.401 178.732C316.663 178.528 319.041 174.674 320.73 172.312C322.945 169.213 323.611 161.182 324.037 158.843C324.3 157.394 324.175 149.242 319.363 148.807C314.187 148.339 313.393 152.432 312.893 153.955Z" fill="#F2D2DE" stroke="#F2D2DE" stroke-width="0.971418" stroke-linecap="round"/>
<path d="M394.743 208.029C394.743 235.644 388.517 262.905 376.527 287.783C364.537 312.66 347.092 334.516 325.49 351.723L211 208.029H394.743Z" fill="url(#paint4_linear_129_59)"/>
<path d="M371.475 240.601L383.628 243.159L382.019 244.208L382.858 240.221L385.327 240.74L384.12 246.475L370.827 243.677L371.475 240.601Z" fill="white"/>
<path d="M368.621 251.512C368.915 250.439 369.44 249.55 370.196 248.845C370.965 248.144 371.921 247.688 373.065 247.478C374.209 247.268 375.499 247.359 376.934 247.752C378.369 248.145 379.525 248.723 380.402 249.486C381.28 250.249 381.864 251.127 382.156 252.119C382.46 253.114 382.466 254.148 382.172 255.221C381.875 256.307 381.343 257.194 380.578 257.883C379.822 258.588 378.871 259.046 377.727 259.256C376.584 259.466 375.294 259.375 373.859 258.982C372.424 258.589 371.268 258.011 370.39 257.248C369.513 256.484 368.922 255.605 368.618 254.61C368.323 253.63 368.324 252.598 368.621 251.512ZM371.185 252.214C371.045 252.726 371.067 253.208 371.252 253.661C371.433 254.126 371.806 254.55 372.372 254.933C372.935 255.329 373.709 255.661 374.694 255.931C375.68 256.201 376.516 256.309 377.201 256.255C377.883 256.214 378.42 256.039 378.813 255.731C379.203 255.435 379.468 255.031 379.608 254.52C379.744 254.02 379.722 253.538 379.541 253.073C379.357 252.62 378.983 252.196 378.421 251.8C377.855 251.418 377.079 251.091 376.093 250.821C375.108 250.552 374.274 250.437 373.592 250.479C372.906 250.533 372.369 250.707 371.979 251.003C371.587 251.311 371.322 251.715 371.185 252.214Z" fill="white"/>
<path d="M363.575 266.812C363.973 265.773 364.583 264.94 365.405 264.312C366.239 263.69 367.235 263.33 368.394 263.233C369.553 263.136 370.828 263.354 372.217 263.885C373.607 264.417 374.701 265.106 375.499 265.951C376.297 266.797 376.793 267.728 376.986 268.744C377.191 269.764 377.095 270.794 376.697 271.833C376.295 272.884 375.679 273.715 374.85 274.326C374.028 274.953 373.037 275.315 371.878 275.412C370.719 275.509 369.445 275.291 368.055 274.759C366.666 274.228 365.572 273.539 364.774 272.693C363.975 271.848 363.474 270.915 363.269 269.894C363.071 268.891 363.173 267.863 363.575 266.812ZM366.058 267.762C365.869 268.258 365.844 268.74 365.983 269.208C366.117 269.689 366.447 270.148 366.973 270.585C367.494 271.033 368.232 271.44 369.186 271.805C370.141 272.171 370.962 272.36 371.649 272.374C372.332 272.399 372.884 272.278 373.305 272.01C373.722 271.754 374.025 271.378 374.214 270.883C374.399 270.399 374.424 269.917 374.29 269.436C374.151 268.968 373.821 268.509 373.3 268.06C372.774 267.624 372.034 267.223 371.08 266.858C370.125 266.492 369.307 266.297 368.624 266.271C367.936 266.258 367.384 266.379 366.968 266.635C366.547 266.903 366.243 267.279 366.058 267.762Z" fill="white"/>
<path d="M358.895 277.752C359.367 276.744 360.036 275.958 360.901 275.392C361.779 274.831 362.799 274.545 363.962 274.533C365.125 274.521 366.38 274.83 367.727 275.462C369.074 276.093 370.115 276.859 370.85 277.761C371.584 278.662 372.011 279.627 372.129 280.654C372.26 281.686 372.089 282.706 371.617 283.714C371.139 284.733 370.464 285.517 369.592 286.066C368.727 286.631 367.713 286.92 366.55 286.933C365.387 286.945 364.132 286.635 362.785 286.004C361.438 285.372 360.397 284.606 359.662 283.705C358.927 282.803 358.495 281.836 358.364 280.803C358.24 279.788 358.417 278.771 358.895 277.752ZM361.302 278.88C361.077 279.36 361.017 279.839 361.122 280.317C361.221 280.806 361.517 281.288 362.009 281.761C362.496 282.247 363.202 282.706 364.127 283.14C365.053 283.574 365.858 283.822 366.542 283.886C367.221 283.961 367.781 283.881 368.22 283.644C368.654 283.419 368.984 283.066 369.209 282.586C369.429 282.117 369.489 281.638 369.39 281.149C369.285 280.671 368.989 280.189 368.503 279.704C368.01 279.231 367.301 278.777 366.376 278.343C365.451 277.909 364.648 277.655 363.969 277.58C363.285 277.516 362.725 277.597 362.291 277.822C361.852 278.059 361.522 278.411 361.302 278.88Z" fill="white"/>
<path d="M353.345 288.474C353.891 287.504 354.616 286.769 355.521 286.269C356.437 285.774 357.475 285.564 358.636 285.638C359.797 285.712 361.026 286.114 362.322 286.843C363.619 287.572 364.601 288.413 365.267 289.366C365.933 290.32 366.287 291.313 366.329 292.346C366.383 293.385 366.137 294.39 365.591 295.36C365.04 296.341 364.309 297.073 363.399 297.555C362.494 298.056 361.461 298.269 360.301 298.195C359.14 298.121 357.911 297.72 356.614 296.991C355.318 296.262 354.336 295.42 353.67 294.467C353.004 293.514 352.644 292.517 352.591 291.478C352.542 290.456 352.794 289.455 353.345 288.474ZM355.663 289.777C355.403 290.239 355.307 290.712 355.376 291.196C355.439 291.692 355.698 292.194 356.154 292.703C356.604 293.223 357.274 293.733 358.165 294.234C359.056 294.735 359.84 295.042 360.518 295.156C361.19 295.282 361.754 295.243 362.21 295.039C362.659 294.846 363.014 294.519 363.274 294.057C363.528 293.606 363.623 293.132 363.561 292.637C363.491 292.153 363.232 291.651 362.782 291.131C362.326 290.622 361.653 290.117 360.762 289.616C359.871 289.116 359.09 288.802 358.418 288.677C357.74 288.563 357.177 288.602 356.727 288.795C356.271 288.998 355.916 289.326 355.663 289.777Z" fill="white"/>
<path d="M346.535 299.907L353.657 304.823L352.697 304.985L355.089 301.52L357.133 302.931L351.411 311.219L349.367 309.808L351.759 306.342L351.948 307.298L344.826 302.382L346.535 299.907Z" fill="white"/>
<path d="M342.38 305.823L350.602 312.256L345.448 318.843L343.491 317.312L347.211 312.56L347.312 313.501L340.526 308.192L342.38 305.823Z" fill="white"/>
<g clip-path="url(#clip0_129_59)">
<path d="M308.086 232.91L329.196 244.541L310.755 277.999L289.645 266.368L308.086 232.91Z" fill="#FFF5FB"/>
<path d="M322.11 249.676C320.169 248.153 320.095 244.925 320.301 243.501L313.484 239.745C311.646 241.832 308.746 241.878 307.525 241.64L296.957 260.815C298.781 262.732 298.936 265.827 298.786 267.134L305.349 270.75C306.876 268.911 310.028 268.872 311.413 269.082L322.11 249.676Z" stroke="#A64579" stroke-width="0.731511" stroke-linecap="square"/>
<path d="M324.432 282.529L329.186 244.541L310.75 277.991L301.499 272.894L300.47 279.776L324.432 282.529Z" fill="#F1C0DD"/>
<path fill-rule="evenodd" clip-rule="evenodd" d="M322.033 274.455L321.78 274.508C321.171 274.638 320.18 274.977 319.229 275.568C318.277 276.16 317.397 276.983 316.955 278.067L316.849 278.325L310.947 277.628L311.295 276.996L316.391 277.534C316.938 276.388 317.886 275.542 318.843 274.947C319.752 274.382 320.694 274.028 321.374 273.853L323.932 254.075L324.767 252.56L322.033 274.455Z" fill="white"/>
<path d="M312.158 256.504L313.606 257.778L311.561 257.364C310.504 257.149 309.408 257.467 308.628 258.213L307.113 259.664L307.637 257.766C307.968 256.569 307.598 255.287 306.679 254.452L305.281 253.181L307.038 253.721C308.291 254.107 309.655 253.712 310.509 252.716L311.694 251.332L311.174 253.102C310.813 254.331 311.196 255.658 312.158 256.504Z" fill="#A64579" stroke="#A64579" stroke-width="0.185851"/>
<path fill-rule="evenodd" clip-rule="evenodd" d="M336.941 244.777L337.069 244.848C336.686 245.544 336.626 247.296 338.655 248.414L338.584 248.542C338.219 248.341 337.469 248.08 336.702 248.068C335.936 248.057 335.17 248.294 334.743 249.069L334.615 248.998C334.799 248.665 334.941 248.083 334.772 247.438C334.603 246.796 334.124 246.084 333.05 245.493L333.12 245.364C333.492 245.569 334.216 245.854 334.964 245.869C335.708 245.884 336.469 245.634 336.941 244.777ZM333.799 245.809C334.443 246.315 334.775 246.874 334.913 247.401C335.026 247.829 335.009 248.233 334.932 248.564C335.407 248.069 336.067 247.912 336.704 247.922C337.149 247.929 337.587 248.016 337.955 248.129C336.795 247.219 336.602 246.067 336.76 245.292C336.262 245.854 335.599 246.028 334.961 246.015C334.549 246.007 334.145 245.92 333.799 245.809Z" fill="#BA95A3" stroke="#BA95A3" stroke-width="0.185851" stroke-linecap="round"/>
<path fill-rule="evenodd" clip-rule="evenodd" d="M296.688 275.108L296.775 275.156C296.514 275.629 296.473 276.821 297.854 277.582L297.806 277.67C297.558 277.533 297.047 277.355 296.525 277.347C296.004 277.339 295.483 277.5 295.192 278.028L295.105 277.98C295.23 277.753 295.327 277.357 295.212 276.918C295.097 276.482 294.771 275.997 294.04 275.594L294.088 275.507C294.341 275.647 294.834 275.84 295.343 275.851C295.849 275.861 296.367 275.691 296.688 275.108ZM294.55 275.81C294.988 276.154 295.214 276.535 295.308 276.893C295.385 277.184 295.373 277.459 295.321 277.684C295.644 277.348 296.093 277.241 296.526 277.247C296.829 277.252 297.128 277.311 297.377 277.388C296.589 276.769 296.457 275.986 296.564 275.458C296.226 275.84 295.775 275.959 295.341 275.95C295.06 275.945 294.785 275.886 294.55 275.81Z" fill="white" stroke="white" stroke-width="0.185851" stroke-linecap="round"/>
<path fill-rule="evenodd" clip-rule="evenodd" d="M314.117 226.285L314.204 226.333C313.943 226.807 313.902 227.999 315.283 228.76L315.235 228.847C314.986 228.71 314.476 228.532 313.954 228.525C313.433 228.517 312.912 228.678 312.621 229.205L312.534 229.157C312.659 228.93 312.756 228.534 312.64 228.096C312.526 227.659 312.2 227.175 311.469 226.772L311.517 226.685C311.77 226.824 312.263 227.018 312.772 227.028C313.278 227.038 313.795 226.868 314.117 226.285ZM311.978 226.987C312.417 227.332 312.643 227.712 312.737 228.07C312.813 228.362 312.802 228.636 312.749 228.862C313.073 228.525 313.522 228.418 313.955 228.425C314.258 228.429 314.556 228.489 314.806 228.566C314.017 227.947 313.886 227.163 313.993 226.635C313.655 227.018 313.203 227.136 312.769 227.128C312.489 227.122 312.214 227.063 311.978 226.987Z" fill="white" stroke="white" stroke-width="0.185851" stroke-linecap="round"/>
</g>
<g filter="url(#filter1_f_129_59)">
<ellipse cx="211.606" cy="208.636" rx="8.4898" ry="8.48861" fill="#E9A6FF"/>
</g>
<path d="M169.879 387.087C142.96 380.907 117.781 368.738 96.2138 351.487C74.6469 334.235 57.2472 312.344 45.3086 287.441L211 208.029L169.879 387.087Z" fill="url(#paint5_linear_129_59)"/>
<g clip-path="url(#clip1_129_59)">
<path d="M124.126 307.871C123.084 306.89 121.647 304.408 124.226 302.323C126.805 300.239 129.18 302.954 130.178 304.455C128.161 302.864 124.337 298.672 124.116 295.568" stroke="#BA95A3" stroke-width="0.921122" stroke-linecap="round"/>
<path d="M140.009 310.987C144.511 311.997 152.896 309.318 156.689 307.804C158.709 306.925 163.714 304.024 167.581 299.458C171.448 294.892 169.15 289.223 167.517 286.959C166.38 285.486 166.447 285.343 163.945 283.057C161.443 280.771 155.024 274.442 147.74 271.421C140.456 268.4 135.731 272.812 134.279 275.396C126.163 286.97 128.58 299.511 130.803 304.335C134.695 305.154 138.562 309.111 140.009 310.987Z" fill="#FBDBEE" stroke="#FBDBEE" stroke-width="0.921122"/>
<path d="M148.073 275.959C146.104 274.406 141.245 272.412 137.563 276.858" stroke="#BA95A3" stroke-width="0.921122" stroke-linecap="round"/>
<path d="M142.488 307.023C141.129 307.681 138.133 308.755 137.014 307.793" stroke="#BA95A3" stroke-width="0.921122" stroke-linecap="round"/>
<path d="M134.757 301.437C134.559 302.933 134.48 306.116 135.744 306.875" stroke="#BA95A3" stroke-width="0.921122" stroke-linecap="round"/>
<path d="M136.343 307.232L138.276 304.558" stroke="#BA95A3" stroke-width="0.921122" stroke-linecap="round"/>
<path d="M136.872 321.057C140.357 318.22 140.448 313.241 140.058 311.107C136.475 306.25 132.331 304.579 130.707 304.35C125.183 305.298 121.963 310.012 122.121 311.219C122.279 312.426 125.353 311.24 126.912 312.366C128.471 313.492 127.349 314.871 129.259 316.376C131.168 317.88 134.389 314.899 134.951 318.174C135.4 320.794 136.419 321.187 136.872 321.057Z" fill="#FBDBEE" stroke="#FBDBEE" stroke-width="0.921122"/>
<path d="M142.443 297.605L143.507 294.418C143.965 293.045 143.722 291.535 142.855 290.375L140.844 287.683L143.786 288.898C145.326 289.534 147.093 289.25 148.356 288.163L150.767 286.087L149.496 288.927C148.778 290.533 149.081 292.412 150.268 293.712L152.367 296.009L149.482 294.762C147.904 294.08 146.074 294.374 144.791 295.516L142.443 297.605Z" fill="#9E4372"/>
<path d="M140.247 311.199C138.344 308.867 133.855 304.449 130.102 304.21" stroke="#BA95A3" stroke-width="1.06122" stroke-linecap="square"/>
<path d="M136.192 307.124C137.925 308.606 137.534 310.413 136.631 312.895" stroke="#BA95A3" stroke-width="0.921122" stroke-linecap="round"/>
<path d="M136.356 307.242C134.362 306.147 132.812 307.001 130.738 308.637" stroke="#BA95A3" stroke-width="0.921122" stroke-linecap="round"/>
</g>
<path d="M143.206 356.8C144.065 357.194 144.866 357.697 145.61 358.308C146.337 358.926 146.904 359.584 147.309 360.283L145.177 361.952C144.863 361.395 144.446 360.877 143.927 360.397C143.395 359.911 142.812 359.523 142.177 359.231C141.459 358.903 140.83 358.785 140.289 358.878C139.748 358.972 139.362 359.271 139.13 359.777C138.984 360.095 138.937 360.415 138.988 360.737C139.04 361.059 139.247 361.382 139.611 361.706C139.964 362.024 140.516 362.355 141.269 362.701L144.426 364.148L140.604 370.807L133.072 367.353L134.123 365.06L140.632 368.045L138.552 368.67L141.266 363.916L142.149 365.901L139.539 364.704C138.316 364.143 137.412 363.522 136.828 362.842C136.226 362.167 135.887 361.464 135.81 360.731C135.733 359.999 135.862 359.268 136.196 358.539C136.531 357.81 137.023 357.217 137.674 356.761C138.319 356.317 139.112 356.076 140.055 356.038C140.98 356.007 142.03 356.261 143.206 356.8Z" fill="white"/>
<path d="M132.38 351.376C133.357 351.908 134.101 352.624 134.613 353.522C135.119 354.431 135.343 355.467 135.284 356.628C135.225 357.79 134.839 359.024 134.127 360.33C133.414 361.636 132.586 362.628 131.641 363.306C130.696 363.985 129.708 364.352 128.675 364.408C127.636 364.475 126.629 364.242 125.652 363.709C124.664 363.171 123.922 362.449 123.428 361.546C122.916 360.648 122.689 359.618 122.748 358.457C122.807 357.295 123.192 356.061 123.905 354.755C124.617 353.449 125.446 352.457 126.391 351.779C127.335 351.1 128.327 350.728 129.366 350.66C130.387 350.598 131.392 350.837 132.38 351.376ZM131.107 353.71C130.641 353.456 130.167 353.366 129.683 353.442C129.189 353.511 128.69 353.777 128.187 354.239C127.673 354.696 127.171 355.372 126.682 356.27C126.192 357.167 125.895 357.955 125.79 358.634C125.673 359.308 125.72 359.871 125.929 360.324C126.127 360.771 126.459 361.122 126.925 361.375C127.379 361.623 127.854 361.713 128.348 361.643C128.832 361.568 129.33 361.302 129.844 360.846C130.347 360.383 130.843 359.703 131.333 358.806C131.822 357.909 132.125 357.124 132.242 356.451C132.347 355.771 132.301 355.208 132.103 354.761C131.893 354.308 131.561 353.957 131.107 353.71Z" fill="white"/>
<path d="M118.602 342.91C119.522 343.536 120.193 344.321 120.614 345.265C121.029 346.22 121.149 347.272 120.977 348.422C120.804 349.573 120.299 350.763 119.462 351.992C118.625 353.222 117.703 354.128 116.696 354.711C115.69 355.293 114.67 355.561 113.637 355.516C112.596 355.481 111.616 355.15 110.696 354.524C109.766 353.891 109.099 353.1 108.695 352.153C108.274 351.209 108.149 350.162 108.322 349.012C108.495 347.862 108.999 346.672 109.837 345.442C110.674 344.212 111.596 343.306 112.602 342.724C113.609 342.141 114.633 341.867 115.673 341.903C116.695 341.941 117.672 342.277 118.602 342.91ZM117.106 345.108C116.668 344.809 116.204 344.674 115.716 344.702C115.217 344.722 114.695 344.938 114.149 345.349C113.592 345.752 113.027 346.377 112.452 347.221C111.876 348.066 111.503 348.822 111.332 349.487C111.15 350.146 111.14 350.711 111.305 351.182C111.458 351.647 111.754 352.028 112.192 352.326C112.62 352.618 113.084 352.753 113.583 352.733C114.071 352.705 114.593 352.489 115.15 352.086C115.696 351.675 116.256 351.047 116.831 350.202C117.406 349.357 117.785 348.605 117.967 347.947C118.139 347.281 118.148 346.716 117.994 346.252C117.83 345.78 117.534 345.399 117.106 345.108Z" fill="white"/>
<path d="M109.062 335.855C109.934 336.546 110.546 337.378 110.897 338.35C111.241 339.333 111.285 340.391 111.029 341.526C110.773 342.66 110.183 343.81 109.259 344.976C108.334 346.141 107.349 346.978 106.302 347.485C105.256 347.993 104.219 348.186 103.192 348.065C102.157 347.955 101.204 347.554 100.332 346.863C99.4499 346.163 98.8422 345.326 98.5087 344.352C98.157 343.38 98.1091 342.326 98.3649 341.192C98.6207 340.057 99.2109 338.907 100.135 337.742C101.06 336.576 102.045 335.74 103.092 335.232C104.138 334.725 105.179 334.526 106.214 334.637C107.231 334.75 108.18 335.156 109.062 335.855ZM107.41 337.938C106.995 337.608 106.542 337.44 106.053 337.432C105.554 337.416 105.017 337.593 104.443 337.963C103.859 338.325 103.249 338.906 102.614 339.707C101.979 340.508 101.552 341.234 101.332 341.885C101.102 342.529 101.052 343.092 101.182 343.574C101.301 344.048 101.568 344.45 101.984 344.78C102.389 345.101 102.842 345.27 103.341 345.286C103.83 345.294 104.367 345.117 104.951 344.755C105.525 344.385 106.13 343.799 106.765 342.998C107.4 342.198 107.832 341.476 108.062 340.832C108.282 340.181 108.332 339.618 108.212 339.144C108.083 338.661 107.816 338.259 107.41 337.938Z" fill="white"/>
<path d="M99.9268 328.004C100.745 328.758 101.294 329.633 101.573 330.628C101.843 331.634 101.808 332.692 101.469 333.805C101.13 334.917 100.457 336.021 99.4488 337.115C98.4407 338.209 97.3961 338.97 96.315 339.399C95.2338 339.828 94.1857 339.944 93.1704 339.748C92.1465 339.561 91.2253 339.091 90.407 338.337C89.5791 337.574 89.0349 336.695 88.7743 335.699C88.4955 334.703 88.5255 333.649 88.8644 332.536C89.2034 331.424 89.8769 330.321 90.885 329.227C91.8931 328.132 92.9377 327.371 94.0188 326.942C95.1 326.513 96.1525 326.392 97.1765 326.579C98.1822 326.767 99.099 327.242 99.9268 328.004ZM98.1254 329.96C97.7353 329.6 97.2967 329.399 96.8096 329.354C96.313 329.302 95.7647 329.438 95.1646 329.765C94.555 330.083 93.904 330.618 93.2115 331.369C92.519 332.121 92.0392 332.814 91.7722 333.447C91.4957 334.072 91.4041 334.629 91.4974 335.12C91.5813 335.602 91.8183 336.022 92.2084 336.382C92.589 336.732 93.0276 336.934 93.5242 336.987C94.0113 337.031 94.5596 336.894 95.1692 336.576C95.7692 336.249 96.4155 335.71 97.108 334.959C97.8006 334.207 98.2851 333.519 98.5616 332.894C98.8286 332.261 98.9202 331.703 98.8364 331.221C98.743 330.731 98.506 330.31 98.1254 329.96Z" fill="white"/>
<path d="M90.3697 318.746L83.9459 324.546L84.0092 323.574L86.8316 326.699L84.9879 328.363L78.2377 320.889L80.0813 319.224L82.9037 322.35L81.9299 322.314L88.3537 316.514L90.3697 318.746Z" fill="white"/>
<path d="M85.5785 313.353L77.4256 319.874L72.2006 313.344L74.1403 311.792L77.9106 316.505L76.971 316.386L83.6994 311.005L85.5785 313.353Z" fill="white"/>
<path d="M45.307 287.439C33.3688 262.536 27.1989 235.263 27.2563 207.647C27.3136 180.032 33.5967 152.784 45.6383 127.932L210.999 208.029L45.307 287.439Z" fill="url(#paint6_linear_129_59)"/>
<path d="M85.7449 218.846C92.5296 226.942 101.746 225.357 106.582 223.095L112.942 225.157C113.856 225.453 114.735 224.62 114.488 223.691L112.778 217.273C115.668 212.548 115.177 205.001 114.742 202.034C111.642 191.289 101.987 188.381 96.7113 189.437C81.1475 192.553 78.0108 209.618 85.7449 218.846Z" fill="#FBDBEE"/>
<path d="M93.6533 207.389L91.9828 206.963L93.9103 206.426C95.875 205.878 97.4471 204.403 98.1186 202.477L98.8013 200.518L99.1727 202.329C99.6444 204.629 101.369 206.468 103.634 207.085L104.918 207.436L103.696 207.649C101.253 208.076 99.2968 209.912 98.7152 212.323L98.4499 213.423L98.2335 212.273C97.7861 209.892 95.9996 207.987 93.6533 207.389Z" fill="#B32C7D" stroke="#B32C7D" stroke-width="1.2126"/>
<path d="M47.7104 249.419L45.7533 249.05C45.9269 248.526 46.032 247.985 46.0687 247.428C46.0928 246.862 46.0589 246.326 45.9668 245.819C45.8622 245.304 45.7075 244.854 45.5028 244.469C45.2958 244.073 45.0519 243.778 44.7711 243.582C44.488 243.376 44.1721 243.312 43.8233 243.39C43.4131 243.482 43.1484 243.719 43.0293 244.101C42.9 244.486 42.8985 244.96 43.0248 245.524L43.6141 248.155L41.7371 248.576L41.1891 246.129C41.0766 245.627 40.8867 245.26 40.6195 245.029C40.35 244.788 40.0358 244.707 39.6768 244.788C39.3691 244.856 39.1459 245.014 39.0072 245.261C38.8583 245.509 38.7778 245.824 38.7659 246.203C38.7517 246.573 38.7992 246.977 38.9082 247.416C39.0172 247.854 39.1913 248.295 39.4303 248.737C39.6693 249.179 39.955 249.589 40.2874 249.966L38.5331 251.151C38.0179 250.534 37.6074 249.856 37.3018 249.116C36.9836 248.369 36.78 247.628 36.691 246.894C36.5894 246.152 36.6065 245.459 36.7422 244.814C36.8677 244.172 37.1016 243.63 37.4441 243.187C37.7865 242.744 38.2449 242.458 38.8193 242.33C39.3322 242.215 39.8185 242.246 40.2782 242.423C40.738 242.6 41.1296 242.906 41.453 243.34C41.774 243.763 42.0035 244.283 42.1413 244.898L41.5737 244.961C41.4129 244.243 41.3969 243.594 41.526 243.016C41.6424 242.43 41.8839 241.945 42.2503 241.561C42.6043 241.17 43.0582 240.912 43.6121 240.788C44.1249 240.673 44.6175 240.708 45.0898 240.893C45.5496 241.07 45.9708 241.364 46.3534 241.774C46.736 242.184 47.0618 242.676 47.3307 243.251C47.5996 243.827 47.8007 244.46 47.9341 245.152C48.0652 245.834 48.1206 246.538 48.1001 247.264C48.0694 247.992 47.9395 248.711 47.7104 249.419Z" fill="white"/>
<path d="M45.555 233.671L43.9217 233.941L43.5896 234.156L40.6651 234.639C40.1465 234.725 39.7687 234.952 39.5314 235.322C39.2924 235.681 39.2269 236.187 39.3349 236.84C39.4086 237.286 39.5541 237.715 39.7712 238.127C39.9763 238.53 40.223 238.862 40.5112 239.123L38.9596 240.274C38.5627 239.871 38.2229 239.363 37.9404 238.749C37.6578 238.135 37.4617 237.496 37.352 236.832C37.1412 235.557 37.2783 234.517 37.7632 233.712C38.2482 232.908 39.1284 232.4 40.404 232.189L45.1797 231.4L45.555 233.671ZM46.1011 236.202C46.209 236.855 46.1927 237.433 46.052 237.936C45.901 238.44 45.6542 238.849 45.3116 239.161C44.9691 239.473 44.5592 239.669 44.0822 239.748C43.5844 239.83 43.1291 239.783 42.7164 239.606C42.3019 239.418 41.9473 239.078 41.6524 238.583C41.3472 238.09 41.1244 237.418 40.9838 236.568L40.6162 234.344L42.0318 234.11L42.3557 236.07C42.45 236.64 42.6085 237.019 42.8311 237.206C43.0521 237.382 43.3025 237.447 43.5825 237.401C43.8937 237.35 44.1228 237.189 44.2701 236.92C44.4053 236.642 44.4377 236.29 44.3674 235.865C44.3006 235.461 44.1473 235.113 43.9075 234.823C43.6573 234.534 43.3336 234.347 42.9362 234.264L43.9946 233.705C44.563 233.793 45.0257 234.046 45.3829 234.467C45.74 234.887 45.9794 235.466 46.1011 236.202Z" fill="white"/>
<path d="M44.315 223.768L40.6211 227.019L39.2312 225.155L44.0047 220.883L44.315 223.768ZM44.9576 229.74L36.5237 230.647L36.2606 228.202L44.6945 227.295L44.9576 229.74ZM41.5741 228.36L39.6146 228.571L39.2975 225.623L41.257 225.413L41.5741 228.36ZM40.4444 224.786L40.4398 227.102L35.8727 224.596L35.5928 221.994L40.4444 224.786Z" fill="white"/>
<path d="M43.8766 215.422C43.9089 216.136 43.7796 216.768 43.4887 217.318C43.1979 217.867 42.7391 218.309 42.1123 218.642C41.4745 218.966 40.6621 219.15 39.6751 219.194C38.6775 219.239 37.8521 219.135 37.1988 218.88C36.5454 218.625 36.0492 218.237 35.71 217.716C35.3708 217.195 35.1844 216.561 35.1507 215.816C35.1147 215.018 35.2662 214.295 35.6053 213.649C35.9334 212.992 36.4147 212.465 37.0491 212.068C37.6831 211.661 38.4411 211.437 39.3231 211.398C40.2157 211.357 40.996 211.512 41.6641 211.86C42.3317 212.198 42.8585 212.68 43.2444 213.304C43.6299 213.918 43.8406 214.624 43.8766 215.422ZM47.0324 220.298L35.5028 220.819L35.3969 218.472L37.1295 218.394L39.6517 218.327L42.149 218.057L46.9214 217.841L47.0324 220.298ZM41.8797 215.938C41.8612 215.529 41.7504 215.171 41.5472 214.864C41.3435 214.547 41.0641 214.302 40.709 214.129C40.343 213.945 39.9185 213.864 39.4355 213.886C38.9419 213.909 38.5264 214.027 38.1889 214.242C37.8509 214.447 37.5948 214.716 37.4205 215.05C37.2457 215.374 37.1675 215.741 37.186 216.15C37.2045 216.56 37.3156 216.923 37.5193 217.24C37.723 217.557 38.0024 217.802 38.3574 217.975C38.7125 218.149 39.1368 218.224 39.6303 218.202C40.1133 218.18 40.5291 218.067 40.8775 217.862C41.2155 217.657 41.4717 217.388 41.646 217.054C41.8203 216.72 41.8982 216.348 41.8797 215.938Z" fill="white"/>
<path d="M43.7402 200.33L35.2612 200.085L35.3318 197.642L43.8108 197.887L43.7402 200.33ZM37.8485 204.434C37.8912 203.321 38.1675 202.493 38.6774 201.95C39.1772 201.397 39.8735 201.133 40.7666 201.159C41.7017 201.186 42.4227 201.528 42.9295 202.184C43.4258 202.84 43.6569 203.756 43.6229 204.933L43.4878 209.061L35.0088 208.816L35.0794 206.373L37.7902 206.452L37.8485 204.434ZM41.8672 205.103C41.8913 204.63 41.802 204.265 41.5992 204.007C41.3963 203.748 41.0848 203.613 40.6645 203.601C40.2442 203.589 39.9411 203.706 39.7552 203.953C39.5588 204.2 39.4485 204.56 39.4243 205.032L39.3662 206.497L41.8248 206.568L41.8672 205.103Z" fill="white"/>
<path d="M44.1908 193.8L37.188 193.161L37.8034 192.663L37.4924 196.07L35.4826 195.887L36.2263 187.737L38.2361 187.921L37.9252 191.328L37.4101 190.727L44.413 191.366L44.1908 193.8Z" fill="white"/>
<path d="M46.0061 179.536L37.624 178.235L37.999 175.82L46.3811 177.121L46.0061 179.536ZM39.6481 182.873C39.8295 181.773 40.207 180.986 40.7807 180.512C41.3455 180.025 42.0694 179.85 42.9523 179.987C43.8767 180.131 44.5494 180.56 44.9704 181.274C45.3809 181.986 45.4959 182.924 45.3152 184.088L44.6658 188.167L36.2837 186.866L36.6587 184.451L39.3384 184.867L39.6481 182.873ZM43.552 184.037C43.6349 183.571 43.5919 183.198 43.4229 182.916C43.2539 182.635 42.9616 182.462 42.5461 182.397C42.1307 182.333 41.8153 182.411 41.6 182.633C41.3743 182.854 41.22 183.197 41.137 183.662L40.8965 185.109L43.327 185.486L43.552 184.037Z" fill="white"/>
<path d="M46.8539 174.817L38.5882 172.911L39.1373 170.53L44.0537 171.663L40.0655 166.505L40.5721 164.308L48.8378 166.213L48.2887 168.595L43.3723 167.461L47.3641 172.604L46.8539 174.817ZM38.6536 168.558C38.4458 169.459 38.0953 170.09 37.6022 170.451C37.0988 170.81 36.4464 170.902 35.6452 170.728L36.0065 169.161C36.3571 169.231 36.6561 169.198 36.9035 169.06C37.1509 168.923 37.3182 168.665 37.4056 168.286C37.4906 167.918 37.4532 167.612 37.2932 167.37C37.1356 167.118 36.8826 166.952 36.5344 166.872L36.9028 165.274C37.7018 165.458 38.2478 165.827 38.541 166.38C38.8239 166.93 38.8615 167.656 38.6536 168.558Z" fill="white"/>
<path d="M68.4626 246.268L58.972 253.644L58.2802 250.973L66.7 244.493L67.1071 246.066L56.5844 244.425L55.9479 241.968L67.8301 243.826L68.4626 246.268Z" fill="white"/>
<path d="M66.4651 237.845L55.6369 239.981L55.1426 237.475L65.9708 235.34L66.4651 237.845Z" fill="white"/>
<path d="M65.4027 232.518L54.4679 234.014L53.8201 229.28C53.6861 228.302 53.7321 227.436 53.958 226.684C54.1735 225.933 54.5517 225.324 55.0925 224.857C55.6334 224.391 56.3152 224.101 57.1379 223.989C57.9502 223.878 58.6795 223.974 59.3259 224.278C59.9722 224.582 60.5053 225.066 60.925 225.73C61.3344 226.396 61.6061 227.218 61.74 228.197L62.1954 231.524L60.9011 230.555L65.0564 229.987L65.4027 232.518ZM61.1823 230.517L60.1334 231.806L59.6973 228.62C59.5904 227.838 59.3439 227.278 58.9579 226.938C58.572 226.599 58.0822 226.469 57.4886 226.551C56.8845 226.633 56.4423 226.89 56.1617 227.321C55.8812 227.752 55.7944 228.358 55.9013 229.139L56.3375 232.326L54.9807 231.366L61.1823 230.517Z" fill="white"/>
<path d="M60.5613 221.542L58.5959 221.688L58.2659 217.238L60.2314 217.092L60.5613 221.542Z" fill="white"/>
<path d="M63.4103 208.238L59.4362 211.141L58.2214 209.158L63.3634 205.338L63.4103 208.238ZM63.5074 214.245L55.026 214.382L54.9862 211.922L63.4676 211.785L63.5074 214.245ZM60.2634 212.562L58.2928 212.594L58.2449 209.631L60.2154 209.599L60.2634 212.562ZM59.463 208.901L59.248 211.207L54.9276 208.296L54.8853 205.68L59.463 208.901Z" fill="white"/>
<path d="M63.7054 198.804L62.0521 198.719L61.6819 198.858L58.7216 198.706C58.1968 198.679 57.779 198.82 57.4683 199.131C57.1582 199.43 56.9861 199.911 56.9521 200.572C56.9289 201.024 56.9794 201.474 57.1037 201.922C57.218 202.359 57.388 202.737 57.6138 203.053L55.8521 203.847C55.5505 203.368 55.3272 202.799 55.1822 202.139C55.0372 201.479 54.982 200.813 55.0166 200.141C55.083 198.85 55.439 197.863 56.0846 197.181C56.7302 196.498 57.6986 196.19 58.9897 196.257L63.8237 196.505L63.7054 198.804ZM63.6985 201.393C63.6645 202.054 63.5251 202.615 63.2804 203.076C63.0251 203.537 62.6968 203.883 62.2955 204.115C61.8941 204.347 61.452 204.451 60.9691 204.426C60.4652 204.4 60.0306 204.256 59.6651 203.996C59.3001 203.724 59.0265 203.315 58.8441 202.769C58.6512 202.223 58.5769 201.519 58.6212 200.658L58.737 198.406L60.1699 198.48L60.0678 200.464C60.0381 201.041 60.1121 201.445 60.2897 201.675C60.4678 201.895 60.6986 202.012 60.982 202.027C61.297 202.043 61.5551 201.935 61.7565 201.703C61.9479 201.461 62.0547 201.124 62.0768 200.694C62.0979 200.284 62.0223 199.912 61.8501 199.577C61.6674 199.241 61.3909 198.99 61.0205 198.824L62.1737 198.504C62.7104 198.711 63.1083 199.058 63.3674 199.545C63.6265 200.031 63.7369 200.648 63.6985 201.393Z" fill="white"/>
<path d="M63.9326 194.892L55.5131 193.86L55.8106 191.434L59.097 191.837L59.546 188.175L56.2596 187.772L56.559 185.331L64.9785 186.363L64.6791 188.804L61.5335 188.419L61.0845 192.081L64.2301 192.466L63.9326 194.892Z" fill="white"/>
<path d="M66.431 178.359L64.8057 178.044L64.4197 178.13L61.5097 177.566C60.9937 177.466 60.5602 177.548 60.2093 177.812C59.8604 178.065 59.6229 178.517 59.4969 179.167C59.4109 179.611 59.3982 180.064 59.4587 180.525C59.5108 180.974 59.6266 181.371 59.8059 181.716L57.9507 182.256C57.7188 181.74 57.5772 181.145 57.5257 180.472C57.4743 179.798 57.5125 179.131 57.6405 178.47C57.8865 177.201 58.3767 176.274 59.1112 175.688C59.8458 175.102 60.8476 174.932 62.1169 175.178L66.8689 176.099L66.431 178.359ZM66.0629 180.921C65.9369 181.571 65.7206 182.107 65.4139 182.53C65.0969 182.95 64.7234 183.247 64.2936 183.421C63.8638 183.595 63.4116 183.636 62.9369 183.544C62.4416 183.448 62.0312 183.245 61.7057 182.936C61.3822 182.616 61.1682 182.173 61.0638 181.607C60.9491 181.039 60.9737 180.331 61.1377 179.485L61.5666 177.272L62.9752 177.545L62.5973 179.495C62.4873 180.062 62.5042 180.473 62.6479 180.725C62.7937 180.968 63.0059 181.116 63.2845 181.17C63.5941 181.23 63.8647 181.159 64.0965 180.958C64.3199 180.744 64.4726 180.426 64.5546 180.003C64.6326 179.6 64.6097 179.221 64.4859 178.865C64.3519 178.507 64.1131 178.22 63.7696 178.004L64.9561 177.848C65.4587 178.127 65.8043 178.526 65.9929 179.045C66.1815 179.563 66.2049 180.188 66.0629 180.921Z" fill="white"/>
<path d="M66.9742 175.395L65.0547 174.759C65.0809 174.7 65.1072 174.642 65.1334 174.584C65.1495 174.523 65.1642 174.467 65.1776 174.416C65.2526 174.131 65.2302 173.886 65.1104 173.681C64.9906 173.475 64.8042 173.296 64.5511 173.142C64.2879 172.986 63.9825 172.846 63.6348 172.722C63.2897 172.587 62.9267 172.459 62.5458 172.337L59.2846 171.348L61.1322 164.334L69.335 166.495L68.7085 168.873L61.8779 167.074L62.5978 166.693L61.6499 170.291L61.1726 169.628L63.2028 170.276C63.9266 170.5 64.5814 170.737 65.1672 170.989C65.7557 171.231 66.2481 171.508 66.6444 171.819C67.0306 172.127 67.3029 172.476 67.4611 172.865C67.6092 173.252 67.6164 173.7 67.4825 174.208C67.4343 174.391 67.3682 174.58 67.2841 174.775C67.2001 174.97 67.0968 175.177 66.9742 175.395Z" fill="white"/>
<path d="M45.6172 127.977C57.652 103.121 75.1362 81.2972 96.7697 64.129C118.403 46.9608 143.629 34.8897 170.572 28.8136L211 208.029L45.6172 127.977Z" fill="url(#paint7_linear_129_59)"/>
<g clip-path="url(#clip2_129_59)">
<rect x="0.857296" y="0.024959" width="21.8309" height="44.8746" rx="3.03207" transform="matrix(0.727433 -0.686179 0.68628 0.727337 121.819 107.815)" fill="#9E4372" stroke="#FBDBEE" stroke-width="1.21283"/>
<rect width="23.0437" height="46.0875" rx="3.63848" transform="matrix(0.727433 -0.686179 0.68628 0.727337 112.779 115.542)" fill="#FBDBEE"/>
<path d="M134.609 121.889L136.964 123.208C137.979 123.777 139.207 123.812 140.253 123.303L142.681 122.122L141.279 124.261C140.545 125.38 140.503 126.817 141.17 127.977L142.445 130.193L140.395 128.762C139.236 127.953 137.707 127.909 136.502 128.65L134.373 129.96L135.792 127.871C136.568 126.729 136.612 125.241 135.904 124.056L134.609 121.889Z" fill="#9E4372"/>
<rect width="10.0587" height="10.4999" rx="2.42566" transform="matrix(0.727433 -0.686179 0.68628 0.727337 114.816 116.09)" fill="#DD98C2"/>
<circle r="2.14107" transform="matrix(0.727433 -0.686179 0.68628 0.727337 123.758 114.629)" fill="#990860"/>
<circle r="2.14107" transform="matrix(0.727433 -0.686179 0.68628 0.727337 118.52 116.052)" fill="#990860"/>
<circle r="2.14107" transform="matrix(0.727433 -0.686179 0.68628 0.727337 121.951 119.85)" fill="#990860"/>
<circle r="1.81924" transform="matrix(0.727433 -0.686179 0.68628 0.727337 123.757 114.629)" fill="#9E4372"/>
<circle r="1.81924" transform="matrix(0.727433 -0.686179 0.68628 0.727337 118.52 116.052)" fill="#9E4372"/>
<circle r="1.81924" transform="matrix(0.727433 -0.686179 0.68628 0.727337 121.951 119.85)" fill="#9E4372"/>
</g>
<path d="M68.2271 127.849L56.4565 121.069L58.0259 118.345L69.7965 125.125L68.2271 127.849Z" fill="white"/>
<path d="M74.6981 117.582C74.2141 118.316 73.6285 118.852 72.9414 119.19C72.2543 119.527 71.478 119.636 70.6126 119.515C69.7435 119.376 68.8011 118.972 67.7856 118.303C66.7592 117.627 66.0126 116.926 65.5458 116.201C65.0789 115.475 64.8649 114.73 64.9038 113.965C64.9427 113.201 65.2148 112.435 65.7202 111.668C66.2611 110.847 66.9342 110.237 67.7394 109.838C68.5409 109.421 69.4011 109.244 70.3201 109.307C71.2461 109.359 72.1629 109.684 73.0704 110.282C73.9888 110.887 74.6547 111.605 75.0683 112.435C75.489 113.254 75.6659 114.114 75.5991 115.015C75.5394 115.905 75.239 116.761 74.6981 117.582ZM74.3172 124.72L62.4547 116.906L64.0455 114.492L65.8281 115.666L68.389 117.423L71.0724 118.958L75.9827 122.192L74.3172 124.72ZM72.3355 116.653C72.6131 116.232 72.7614 115.795 72.7805 115.343C72.8067 114.88 72.7056 114.434 72.4771 114.004C72.2451 113.557 71.8805 113.17 71.3836 112.842C70.8758 112.508 70.376 112.326 69.8843 112.296C69.3996 112.256 68.9497 112.339 68.5346 112.546C68.1266 112.742 67.7838 113.051 67.5062 113.472C67.2287 113.893 67.0768 114.335 67.0506 114.798C67.0244 115.261 67.1255 115.708 67.3539 116.137C67.5823 116.566 67.9504 116.948 68.4582 117.282C68.9552 117.61 69.4514 117.797 69.9468 117.845C70.4315 117.885 70.8813 117.802 71.2964 117.595C71.7116 117.388 72.0579 117.074 72.3355 116.653Z" fill="white"/>
<path d="M73.8618 100.4C74.3705 99.7463 74.9562 99.2678 75.619 98.964C76.2796 98.6421 76.9956 98.5437 77.7672 98.6689C78.5285 98.7861 79.3277 99.1705 80.1648 99.8221L84.8812 103.493L83.0214 105.882L78.6725 102.497C78.009 101.98 77.4037 101.747 76.8567 101.796C76.3177 101.836 75.8416 102.121 75.4283 102.652C75.1342 103.03 74.9496 103.435 74.8745 103.868C74.7972 104.284 74.8543 104.705 75.0458 105.133C75.2453 105.551 75.6003 105.958 76.1107 106.355L80.184 109.526L78.3241 111.915L66.962 103.07L68.8218 100.682L74.2273 104.889L73.1209 104.889C72.8001 104.164 72.7063 103.41 72.8395 102.629C72.9726 101.847 73.3134 101.104 73.8618 100.4Z" fill="white"/>
<path d="M89.7272 98.2557C88.9792 99.0793 88.1414 99.6554 87.2138 99.984C86.295 100.303 85.369 100.38 84.436 100.214C83.5021 100.03 82.652 99.5901 81.8858 98.8944C81.11 98.19 80.5904 97.3863 80.3271 96.4832C80.0629 95.5618 80.0502 94.6329 80.2891 93.6965C80.527 92.7418 81.02 91.8526 81.768 91.0291C82.5073 90.215 83.3407 89.6438 84.2683 89.3152C85.1862 88.9779 86.1074 88.8969 87.0317 89.0722C87.9561 89.2475 88.8109 89.6916 89.5963 90.4048C90.3625 91.1005 90.8821 91.9042 91.155 92.816C91.4183 93.7191 91.431 94.648 91.193 95.6027C90.9551 96.5574 90.4665 97.4417 89.7272 98.2557ZM87.8882 96.586C88.2274 96.2126 88.4456 95.7991 88.5429 95.3457C88.6401 94.8923 88.609 94.4359 88.4494 93.9765C88.2804 93.5085 87.9755 93.0744 87.5349 92.6744C87.0848 92.2657 86.6234 92.004 86.1508 91.8894C85.6781 91.7748 85.2208 91.7877 84.7788 91.928C84.3368 92.0684 83.9461 92.3253 83.6069 92.6988C83.2677 93.0722 83.0495 93.4857 82.9523 93.9391C82.855 94.3925 82.8818 94.8537 83.0326 95.3226C83.1922 95.782 83.497 96.216 83.9471 96.6248C84.3877 97.0248 84.8491 97.2865 85.3313 97.4098C85.8126 97.5148 86.2743 97.4971 86.7164 97.3568C87.1584 97.2164 87.549 96.9595 87.8882 96.586Z" fill="white"/>
<path d="M91.6654 80.9512C92.2669 80.3823 92.9182 79.9977 93.6193 79.7975C94.3209 79.5791 95.0436 79.5899 95.7874 79.8302C96.5223 80.061 97.2542 80.5617 97.9833 81.3323L102.091 85.6738L99.8919 87.7541L96.1042 83.7509C95.5263 83.14 94.9632 82.8179 94.415 82.7844C93.8762 82.742 93.3625 82.9519 92.8738 83.4142C92.526 83.7431 92.2823 84.1161 92.1426 84.5332C92.0034 84.9319 91.9962 85.3572 92.121 85.8091C92.2551 86.252 92.5445 86.7084 92.989 87.1783L96.5366 90.9278L94.3374 93.008L87.1621 85.4245L89.2627 83.4376L91.2499 85.5379L90.255 85.2769C90.0474 84.5117 90.0685 83.7528 90.3181 83.0002C90.5678 82.2476 91.0169 81.5646 91.6654 80.9512Z" fill="white"/>
<path d="M108.084 80.8893C107.16 81.6392 106.199 82.1185 105.203 82.3274C104.216 82.5281 103.279 82.4719 102.392 82.1588C101.497 81.8356 100.723 81.2722 100.071 80.4686C99.4104 79.6549 99.0135 78.7859 98.8798 77.8615C98.748 76.9189 98.866 76.0069 99.2337 75.1256C99.5933 74.2342 100.185 73.4543 101.009 72.786C101.803 72.1421 102.654 71.7342 103.564 71.5623C104.476 71.3722 105.375 71.4428 106.26 71.7741C107.138 72.0954 107.931 72.693 108.64 73.567C108.713 73.6574 108.794 73.7669 108.882 73.8956C108.961 74.0143 109.037 74.1279 109.108 74.2365L102.523 79.579L101.41 78.2078L106.76 73.8678L106.186 75.0081C105.843 74.5862 105.46 74.2888 105.037 74.116C104.613 73.9431 104.182 73.8936 103.742 73.9673C103.294 74.031 102.869 74.2258 102.467 74.5518C102.065 74.8778 101.782 75.2576 101.617 75.6911C101.454 76.1063 101.418 76.544 101.508 77.004C101.59 77.454 101.806 77.8949 102.156 78.3269L102.45 78.6885C102.808 79.1305 103.222 79.4449 103.69 79.6316C104.16 79.8001 104.644 79.8321 105.142 79.7277C105.643 79.605 106.134 79.3481 106.616 78.9569C107.048 78.6064 107.372 78.2355 107.587 77.8441C107.813 77.4446 107.955 77.0042 108.015 76.5229L110.366 76.8644C110.337 77.5878 110.134 78.2933 109.759 78.9808C109.376 79.6582 108.818 80.2944 108.084 80.8893Z" fill="white"/>
<path d="M118.173 73.1546L111.213 62.8686L113.1 63.2326L109.724 65.5158L108.311 63.4265L113.165 60.1429L120.777 71.3932L118.173 73.1546Z" fill="white"/>
<path d="M126.621 67.9931C125.81 68.4771 124.942 68.8523 124.016 69.1186C123.083 69.3738 122.22 69.4672 121.426 69.3988L121.242 66.7062C121.879 66.7631 122.548 66.7103 123.249 66.5478C123.951 66.3852 124.602 66.1249 125.201 65.7669C125.879 65.3624 126.333 64.9109 126.562 64.4123C126.792 63.9136 126.768 63.431 126.489 62.9645C126.224 62.5202 125.843 62.273 125.346 62.2231C124.849 62.1732 124.217 62.3769 123.451 62.8344L122.218 63.5703L121.153 61.7875L122.204 56.1659L123.081 56.9533L116.966 60.6032L115.673 58.4372L123.838 53.564L124.882 55.3135L123.848 60.9251L122.014 60.9575L122.797 60.4901C124.23 59.6348 125.505 59.3105 126.623 59.5172C127.741 59.7239 128.602 60.3326 129.205 61.3434C129.596 61.9988 129.792 62.7181 129.793 63.5012C129.787 64.2732 129.534 65.0491 129.035 65.8289C128.537 66.6087 127.732 67.3301 126.621 67.9931Z" fill="white"/>
<path d="M141.719 59.8587C140.923 60.2333 140.144 60.3855 139.381 60.3154C138.619 60.2452 137.9 59.933 137.224 59.3788C136.555 58.8074 135.961 57.9716 135.443 56.8713C134.92 55.7594 134.648 54.7721 134.628 53.9094C134.608 53.0466 134.814 52.2992 135.245 51.6671C135.677 51.035 136.308 50.5234 137.139 50.1322C138.029 49.7135 138.921 49.5437 139.817 49.6228C140.718 49.6847 141.544 49.9821 142.296 50.5149C143.059 51.0423 143.672 51.7975 144.134 52.7807C144.603 53.7756 144.797 54.735 144.717 55.6591C144.649 56.5776 144.352 57.4038 143.825 58.1378C143.31 58.8664 142.608 59.44 141.719 59.8587ZM137.673 65.7521L131.622 52.9006L134.238 51.6693L135.147 53.6005L136.417 56.4344L137.907 59.1433L140.412 64.463L137.673 65.7521ZM140.187 57.8345C140.643 57.6197 140.997 57.3242 141.249 56.9483C141.513 56.5668 141.659 56.1334 141.688 55.648C141.723 55.1453 141.614 54.6248 141.36 54.0864C141.101 53.5363 140.77 53.1205 140.365 52.8389C139.973 52.5518 139.546 52.3883 139.084 52.3484C138.633 52.303 138.18 52.3877 137.723 52.6026C137.267 52.8175 136.907 53.1156 136.643 53.4971C136.379 53.8786 136.233 54.312 136.204 54.7974C136.175 55.2828 136.291 55.8006 136.55 56.3507C136.803 56.8891 137.129 57.3077 137.527 57.6065C137.919 57.8936 138.347 58.0571 138.809 58.097C139.271 58.1369 139.73 58.0494 140.187 57.8345Z" fill="white"/>
<path d="M148.26 56.7827L144.416 47.0761L147.105 46.0118L148.191 48.7542L147.498 48.1103C147.515 47.3104 147.773 46.6099 148.272 46.0087C148.767 45.3955 149.471 44.9079 150.386 44.546L151.414 47.1441C151.289 47.1796 151.179 47.2165 151.083 47.2546C150.982 47.2807 150.877 47.3151 150.769 47.358C149.999 47.6627 149.461 48.1329 149.157 48.7684C148.859 49.3871 148.893 50.1596 149.26 51.0857L151.075 55.6684L148.26 56.7827Z" fill="white"/>
<path d="M159.777 52.6916C158.72 53.0386 157.707 53.126 156.738 52.9538C155.782 52.7775 154.939 52.3871 154.209 51.7823C153.488 51.1613 152.966 50.3591 152.643 49.3758C152.316 48.3802 152.261 47.4247 152.478 46.5093C152.703 45.5776 153.151 44.7636 153.821 44.0671C154.499 43.3543 155.367 42.8244 156.424 42.4775C157.468 42.1346 158.475 42.0492 159.444 42.2214C160.409 42.3813 161.25 42.7656 161.967 43.3744C162.684 43.9832 163.209 44.7915 163.539 45.7994C163.862 46.7827 163.917 47.7382 163.704 48.6658C163.487 49.5812 163.04 50.3953 162.362 51.1081C161.683 51.8209 160.822 52.3487 159.777 52.6916ZM159.002 50.3317C159.482 50.1743 159.876 49.9225 160.184 49.5762C160.492 49.2299 160.691 48.8176 160.779 48.3394C160.863 47.8489 160.812 47.3209 160.626 46.7555C160.437 46.1778 160.165 45.7225 159.81 45.3895C159.456 45.0565 159.052 44.8419 158.598 44.7457C158.144 44.6495 157.678 44.6801 157.198 44.8374C156.719 44.9948 156.325 45.2466 156.017 45.5929C155.708 45.9392 155.504 46.3535 155.404 46.8358C155.316 47.314 155.366 47.842 155.556 48.4197C155.742 48.9851 156.014 49.4404 156.372 49.7857C156.739 50.1147 157.149 50.3272 157.603 50.4234C158.056 50.5196 158.523 50.489 159.002 50.3317Z" fill="white"/>
<ellipse cx="211.607" cy="208.635" rx="13.3411" ry="13.3392" fill="url(#paint8_linear_129_59)"/>
<path d="M325.488 351.724C303.886 368.931 278.681 381.047 251.749 387.172C224.818 393.296 196.851 393.271 169.931 387.099L211 208.029L325.488 351.724Z" fill="url(#paint9_linear_129_59)"/>
<path d="M261.286 327.636L250.943 287.158L247.704 287.985L235.091 291.207L230.427 292.399L223.578 294.148L219.988 295.065L213.138 296.815L209.807 297.666L220.15 338.144L261.286 327.636Z" fill="#FFD9EF" stroke="#FFD9EF" stroke-width="1.01982" stroke-linecap="square"/>
<path d="M220.584 307.445C220.495 307.094 221.202 306.821 221.566 306.728L216.971 307.901C218.022 307.633 218.359 307.858 218.396 308.003L219.235 311.286L221.423 310.727L220.584 307.445Z" fill="white"/>
<path d="M221.787 303.028C221.787 303.028 220.204 304.131 220.483 305.225L217.42 306.008C217.196 305.133 215.773 304.731 215.198 304.611L212.595 294.421L219.378 292.688C220.271 295.879 221.787 303.028 221.787 303.028Z" fill="#F1C0DD"/>
<path d="M252.135 311.228L252.108 310.719L251.09 310.773L251.117 311.282L252.135 311.228ZM249.792 316.851L249.43 316.493L249.792 316.851ZM247.79 321.419L247.53 321.858L248.408 322.378L248.668 321.939L247.79 321.419ZM251.117 311.282C251.143 311.782 251.022 312.795 250.727 313.856C250.429 314.926 249.984 315.933 249.43 316.493L250.155 317.21C250.898 316.459 251.4 315.243 251.709 314.13C252.022 313.008 252.169 311.878 252.135 311.228L251.117 311.282ZM249.43 316.493C247.968 317.97 247.547 319.226 247.52 320.201C247.507 320.679 247.589 321.063 247.657 321.33C247.695 321.48 247.716 321.547 247.73 321.613C247.736 321.641 247.733 321.638 247.733 321.619C247.733 321.604 247.732 321.518 247.79 321.419L248.668 321.939C248.747 321.806 248.754 321.674 248.753 321.602C248.751 321.526 248.739 321.455 248.728 321.403C248.709 321.311 248.67 321.174 248.645 321.078C248.588 320.853 248.53 320.573 248.539 320.229C248.558 319.561 248.838 318.541 250.155 317.21L249.43 316.493Z" fill="#B22C7D"/>
<path d="M239.351 314.494L239.131 314.034L240.05 313.593L240.271 314.053L239.351 314.494ZM244.104 318.305L243.985 318.8L244.104 318.305ZM248.271 321.297L248.709 321.557L248.189 322.434L247.751 322.174L248.271 321.297ZM240.271 314.053C240.49 314.51 241.079 315.366 241.841 316.164C242.614 316.973 243.477 317.629 244.224 317.809L243.985 318.8C242.939 318.548 241.905 317.707 241.104 316.868C240.292 316.018 239.63 315.075 239.351 314.494L240.271 314.053ZM244.224 317.809C246.425 318.34 247.474 319.22 247.978 320.084C248.226 320.508 248.324 320.898 248.379 321.175C248.411 321.337 248.417 321.395 248.434 321.468C248.441 321.496 248.441 321.49 248.431 321.468C248.423 321.451 248.381 321.362 248.271 321.297L247.751 322.174C247.606 322.088 247.536 321.963 247.505 321.894C247.471 321.821 247.452 321.749 247.441 321.698C247.421 321.613 247.395 321.46 247.378 321.372C247.334 321.151 247.265 320.884 247.098 320.598C246.773 320.043 246.006 319.288 243.985 318.8L244.224 317.809Z" fill="#B22C7D"/>
<path d="M249.826 323.369L251.56 330.152" stroke="#B22C7D" stroke-width="1.01982" stroke-linecap="square"/>
<path d="M243.509 298.644L248.428 317.899" stroke="#B22C7D" stroke-width="1.01982" stroke-linecap="square"/>
<path d="M240.306 325.334L218.425 330.924" stroke="#B22C7D" stroke-width="1.01982" stroke-linecap="square"/>
<path d="M239.691 322.928L217.81 328.517" stroke="#B22C7D" stroke-width="1.01982" stroke-linecap="square"/>
<path d="M259.301 320.482L256.716 321.143" stroke="#B22C7D" stroke-width="1.01982" stroke-linecap="square"/>
<path d="M258.687 318.076L256.101 318.736" stroke="#B22C7D" stroke-width="1.01982" stroke-linecap="square"/>
<path d="M242.392 326.2C245.9 326.796 247.508 323.418 248.01 321.735C247.59 321.61 246.744 320.427 243.732 320.497C239.994 320.585 238.006 325.456 242.392 326.2Z" fill="#FFD9EF"/>
<path d="M248.01 321.735L248.499 321.881L248.645 321.393L248.156 321.247L248.01 321.735ZM242.392 326.2L242.307 326.703L242.392 326.2ZM243.732 320.497L243.72 319.988L243.732 320.497ZM247.522 321.589C247.282 322.391 246.784 323.575 245.953 324.477C245.14 325.359 244.025 325.961 242.477 325.698L242.307 326.703C244.267 327.036 245.71 326.246 246.703 325.168C247.679 324.108 248.236 322.762 248.499 321.881L247.522 321.589ZM242.477 325.698C241.474 325.528 240.923 325.138 240.651 324.726C240.38 324.317 240.33 323.801 240.502 323.256C240.852 322.144 242.091 321.046 243.744 321.007L243.72 319.988C241.636 320.036 240.012 321.417 239.529 322.949C239.285 323.726 239.327 324.573 239.8 325.289C240.272 326.003 241.116 326.501 242.307 326.703L242.477 325.698ZM243.744 321.007C245.177 320.974 246.062 321.238 246.625 321.504C246.91 321.638 247.123 321.778 247.299 321.899C247.382 321.956 247.476 322.023 247.555 322.073C247.631 322.122 247.74 322.187 247.865 322.224L248.156 321.247C248.175 321.252 248.166 321.253 248.104 321.213C248.044 321.175 247.979 321.129 247.877 321.059C247.682 320.925 247.417 320.75 247.061 320.582C246.342 320.243 245.298 319.951 243.72 319.988L243.744 321.007Z" fill="#B22C7D"/>
<path d="M255.197 322.929C252.404 325.134 249.373 322.94 248.125 321.705C248.434 321.393 248.609 319.95 251.286 318.567C254.607 316.851 258.689 320.172 255.197 322.929Z" fill="#FFD9EF"/>
<path d="M248.125 321.705L247.766 322.068L247.404 321.709L247.763 321.346L248.125 321.705ZM255.197 322.929L255.513 323.329L255.197 322.929ZM251.286 318.567L251.052 318.114L251.286 318.567ZM248.484 321.343C249.079 321.931 250.084 322.731 251.245 323.124C252.382 323.509 253.649 323.501 254.881 322.528L255.513 323.329C253.953 324.561 252.307 324.56 250.918 324.09C249.554 323.629 248.42 322.714 247.766 322.068L248.484 321.343ZM254.881 322.528C255.68 321.898 255.977 321.292 256.018 320.8C256.059 320.311 255.855 319.834 255.443 319.438C254.603 318.631 252.989 318.261 251.52 319.02L251.052 318.114C252.904 317.157 254.991 317.59 256.15 318.703C256.737 319.267 257.106 320.031 257.034 320.886C256.963 321.739 256.461 322.581 255.513 323.329L254.881 322.528ZM251.52 319.02C250.246 319.678 249.596 320.335 249.23 320.838C249.045 321.092 248.924 321.317 248.828 321.508C248.782 321.598 248.732 321.701 248.687 321.783C248.643 321.862 248.579 321.972 248.488 322.064L247.763 321.346C247.749 321.361 247.757 321.357 247.793 321.292C247.827 321.23 247.862 321.158 247.918 321.047C248.025 320.837 248.173 320.556 248.405 320.238C248.873 319.595 249.649 318.839 251.052 318.114L251.52 319.02Z" fill="#B22C7D"/>
<path d="M247.419 323.983L249.152 330.766" stroke="#B22C7D" stroke-width="1.01982" stroke-linecap="square"/>
<path d="M241.102 299.26L246.022 318.514" stroke="#B22C7D" stroke-width="1.01982" stroke-linecap="square"/>
<rect width="12.6466" height="7.67828" transform="matrix(-0.96889 0.247491 -0.247555 -0.968874 248.848 293.085)" fill="#F1C0DD"/>
<rect width="6.58002" height="4.70001" transform="matrix(-0.96889 0.247491 -0.247555 -0.968874 230.722 294.064)" fill="#F1C0DD"/>
<rect width="14.4532" height="3.61331" transform="matrix(-0.96889 0.247491 -0.247555 -0.968874 250.618 296.363)" fill="white"/>
<path d="M231.319 292.941L237.875 310.67L226.036 313.694L223.496 294.939L231.319 292.941Z" fill="#DD98C2"/>
<path d="M231.351 309.442L230.558 308.161C230.217 307.609 229.627 307.26 228.979 307.225L227.474 307.145L228.737 306.48C229.398 306.133 229.808 305.443 229.796 304.696L229.773 303.27L230.386 304.522C230.733 305.231 231.468 305.666 232.256 305.631L233.65 305.567L232.392 306.203C231.704 306.55 231.28 307.265 231.305 308.034L231.351 309.442Z" fill="#B22C7D"/>
<rect width="14.0016" height="2.70998" transform="matrix(-0.96889 0.247491 -0.247555 -0.968874 239.419 312.742)" fill="white"/>
<rect width="6.32329" height="2.70998" transform="matrix(-0.96889 0.247491 -0.247555 -0.968874 222.441 306.503)" fill="#B22C7D"/>
<path fill-rule="evenodd" clip-rule="evenodd" d="M243.304 290.473L243.328 290.567C242.817 290.697 241.942 291.464 242.323 292.954L242.229 292.978C242.16 292.71 241.946 292.228 241.603 291.852C241.261 291.476 240.799 291.213 240.23 291.358L240.206 291.264C240.45 291.202 240.796 291.006 241.031 290.632C241.265 290.259 241.392 289.703 241.191 288.915L241.285 288.891C241.355 289.164 241.546 289.643 241.878 290.012C242.209 290.379 242.675 290.633 243.304 290.473ZM241.378 289.421C241.426 289.963 241.306 290.377 241.114 290.683C240.958 290.932 240.755 291.108 240.559 291.22C241.015 291.226 241.39 291.474 241.675 291.786C241.874 292.004 242.031 292.256 242.143 292.485C242.056 291.511 242.526 290.894 242.973 290.618C242.475 290.633 242.089 290.392 241.806 290.077C241.623 289.874 241.481 289.639 241.378 289.421Z" stroke="#B22C7D" stroke-width="0.259101" stroke-linecap="round"/>
<circle r="0.445305" transform="matrix(-0.96889 0.247491 -0.247555 -0.968874 217.272 298.817)" fill="#B22C7D"/>
<path d="M217.506 299.734L218.057 301.891" stroke="#B22C7D" stroke-width="0.363848" stroke-linecap="round"/>
<path d="M216.486 295.743L217.037 297.9" stroke="#B22C7D" stroke-width="0.363848" stroke-linecap="round"/>
<path d="M218.134 298.597L219.645 298.211" stroke="#B22C7D" stroke-width="0.363848" stroke-linecap="round"/>
<path d="M214.791 299.451L216.301 299.065" stroke="#B22C7D" stroke-width="0.363848" stroke-linecap="round"/>
<path d="M216.174 300.592L216.735 299.645" stroke="#B22C7D" stroke-width="0.363848" stroke-linecap="round"/>
<path d="M219.14 299.834L218.194 299.273" stroke="#B22C7D" stroke-width="0.363848" stroke-linecap="round"/>
<path d="M215.486 297.896L216.432 298.457" stroke="#B22C7D" stroke-width="0.363848" stroke-linecap="round"/>
<path d="M218.451 297.138L217.89 298.084" stroke="#B22C7D" stroke-width="0.363848" stroke-linecap="round"/>
<path d="M301.042 344.91L308.075 356.531L302.397 359.967C300.936 360.851 299.673 361.237 298.608 361.126C297.531 361.021 296.718 360.515 296.169 359.607C295.8 358.999 295.628 358.377 295.653 357.742C295.683 357.119 295.885 356.528 296.258 355.97C296.631 355.412 297.155 354.928 297.83 354.52L297.927 355.391C297.196 355.833 296.475 356.103 295.763 356.201C295.058 356.31 294.41 356.226 293.819 355.949C293.216 355.678 292.711 355.206 292.302 354.53C291.699 353.534 291.62 352.516 292.064 351.476C292.515 350.447 293.504 349.471 295.032 348.547L301.042 344.91ZM299.595 348.553L296.457 350.452C295.759 350.873 295.301 351.302 295.08 351.738C294.856 352.191 294.894 352.667 295.196 353.165C295.49 353.652 295.891 353.901 296.397 353.913C296.898 353.942 297.498 353.745 298.195 353.324L301.532 351.304L302.718 353.263L299.846 355.001C299.193 355.396 298.761 355.808 298.552 356.237C298.339 356.684 298.373 357.14 298.654 357.605C298.929 358.058 299.31 358.289 299.798 358.296C300.282 358.321 300.85 358.136 301.504 357.74L304.177 356.123L299.595 348.553Z" fill="white"/>
<path d="M284.065 354.371C285.129 353.837 286.17 353.576 287.188 353.586C288.195 353.601 289.098 353.857 289.897 354.354C290.702 354.862 291.337 355.578 291.801 356.503C292.271 357.439 292.472 358.373 292.405 359.305C292.331 360.254 292.02 361.119 291.471 361.901C290.929 362.694 290.183 363.329 289.235 363.805C288.322 364.263 287.402 364.479 286.477 364.451C285.545 364.441 284.683 364.179 283.889 363.666C283.101 363.164 282.455 362.41 281.95 361.404C281.898 361.3 281.843 361.175 281.785 361.031C281.732 360.898 281.683 360.771 281.636 360.649L289.215 356.845L290.008 358.423L283.851 361.514L284.656 360.523C284.9 361.009 285.21 361.381 285.587 361.641C285.963 361.901 286.374 362.042 286.82 362.064C287.271 362.098 287.728 361.999 288.191 361.767C288.653 361.535 289.011 361.225 289.265 360.837C289.514 360.466 289.643 360.047 289.654 359.578C289.67 359.121 289.554 358.644 289.304 358.147L289.095 357.731C288.84 357.222 288.504 356.826 288.087 356.543C287.664 356.278 287.198 356.143 286.689 356.138C286.174 356.15 285.639 356.295 285.084 356.574C284.587 356.824 284.191 357.116 283.896 357.452C283.59 357.794 283.357 358.194 283.195 358.651L280.972 357.813C281.156 357.112 281.505 356.467 282.019 355.876C282.539 355.296 283.221 354.795 284.065 354.371Z" fill="white"/>
<path d="M272.462 359.786L273.248 361.666L273.599 362.003L275.006 365.369C275.256 365.966 275.635 366.354 276.145 366.534C276.643 366.718 277.268 366.654 278.02 366.339C278.533 366.125 279.005 365.829 279.437 365.453C279.861 365.093 280.189 364.704 280.421 364.284L282.239 365.817C281.869 366.406 281.356 366.957 280.7 367.469C280.045 367.982 279.336 368.397 278.572 368.717C277.103 369.33 275.819 369.46 274.718 369.107C273.617 368.754 272.759 367.844 272.146 366.375L269.848 360.879L272.462 359.786ZM275.339 358.416C276.091 358.102 276.788 357.958 277.43 357.984C278.077 358.022 278.636 358.202 279.107 358.524C279.578 358.846 279.928 359.282 280.157 359.831C280.397 360.404 280.469 360.962 280.374 361.507C280.267 362.056 279.96 362.577 279.451 363.07C278.947 363.575 278.205 364.033 277.226 364.442L274.666 365.511L273.985 363.882L276.241 362.939C276.897 362.665 277.306 362.368 277.467 362.049C277.616 361.734 277.623 361.416 277.488 361.093C277.339 360.735 277.082 360.506 276.717 360.406C276.346 360.323 275.916 360.383 275.426 360.588C274.961 360.782 274.588 361.064 274.308 361.434C274.032 361.815 273.901 362.256 273.914 362.755L272.945 361.646C272.888 360.94 273.061 360.314 273.464 359.767C273.866 359.221 274.491 358.77 275.339 358.416Z" fill="white"/>
<path d="M263.911 362.8C264.732 362.523 265.522 362.433 266.279 362.532C267.024 362.635 267.684 362.951 268.259 363.48C268.839 364.021 269.301 364.8 269.645 365.817L271.537 371.405L268.67 372.376L266.921 367.211C266.643 366.39 266.266 365.841 265.79 365.565C265.306 365.306 264.745 365.284 264.108 365.5C263.667 365.649 263.306 365.874 263.025 366.173C262.749 366.486 262.579 366.871 262.515 367.329C262.456 367.8 262.528 368.336 262.731 368.936L264.387 373.825L261.52 374.796L258.171 364.907L260.892 363.987L261.813 366.707L261.049 366.084C261.147 365.286 261.461 364.6 261.99 364.024C262.511 363.466 263.152 363.058 263.911 362.8Z" fill="white"/>
<path d="M252.464 366.261C253.649 365.936 254.655 365.982 255.48 366.4C256.309 366.83 256.888 367.644 257.216 368.842L259.638 377.675L256.719 378.475L254.307 369.679C254.191 369.255 253.988 368.955 253.698 368.78C253.412 368.617 253.075 368.588 252.689 368.694C252.227 368.821 251.868 369.053 251.612 369.392L250.262 367.549C250.503 367.255 250.82 366.993 251.214 366.765C251.598 366.552 252.015 366.384 252.464 366.261ZM259.904 372.552L260.519 374.797L253.539 376.711L252.923 374.465L259.904 372.552Z" fill="white"/>
<path d="M247.323 363.677C247.854 363.564 248.397 363.534 248.951 363.588C249.504 363.642 249.977 363.78 250.368 364.001L249.734 366.338C249.463 366.184 249.17 366.081 248.855 366.029C248.527 365.98 248.218 365.986 247.927 366.048C247.509 366.137 247.202 366.308 247.004 366.562C246.792 366.805 246.633 367.176 246.527 367.675L246.262 369.041L246.103 369.412L244.314 378.998L241.467 379.604L243.773 367.785C243.927 366.892 244.169 366.166 244.5 365.607C244.818 365.05 245.216 364.621 245.694 364.321C246.16 364.023 246.703 363.809 247.323 363.677ZM246.308 367.484L253.121 377.124L250.065 377.774L244.717 369.985L246.308 367.484Z" fill="white"/>
<path d="M239.615 373.567L239.987 375.964L234.56 376.806L234.188 374.409L239.615 373.567Z" fill="white"/>
<path d="M225.919 370.832C226.769 370.752 227.554 370.802 228.272 370.981C228.992 371.173 229.635 371.508 230.2 371.988C230.753 372.481 231.211 373.133 231.573 373.944C231.923 374.755 232.152 375.741 232.262 376.9C232.339 377.724 232.34 378.484 232.262 379.18C232.185 379.876 232.031 380.515 231.8 381.095C231.57 381.689 231.256 382.219 230.859 382.685C230.449 383.165 229.961 383.575 229.396 383.915C228.818 384.268 228.157 384.558 227.412 384.784L222.559 386.236L221.909 383.685L226.193 382.404C226.446 382.328 226.735 382.229 227.062 382.108C227.376 382 227.693 381.847 228.012 381.648C228.318 381.45 228.599 381.183 228.853 380.847C229.095 380.525 229.277 380.112 229.398 379.607C229.521 379.114 229.549 378.514 229.482 377.806C229.461 377.587 229.439 377.42 229.415 377.305C229.378 377.192 229.348 377.071 229.323 376.943C229.285 376.817 229.253 376.619 229.227 376.348L230.283 377.204C230.056 377.836 229.744 378.385 229.347 378.851C228.936 379.319 228.451 379.69 227.892 379.963C227.322 380.251 226.676 380.429 225.955 380.497C224.976 380.589 224.1 380.47 223.329 380.14C222.545 379.825 221.914 379.332 221.435 378.662C220.956 377.993 220.674 377.207 220.589 376.306C220.496 375.327 220.659 374.441 221.078 373.648C221.499 372.867 222.127 372.23 222.964 371.735C223.788 371.241 224.773 370.941 225.919 370.832ZM225.986 373.185C225.483 373.232 225.049 373.383 224.683 373.639C224.319 373.907 224.051 374.238 223.88 374.631C223.698 375.038 223.629 375.48 223.674 375.956C223.718 376.42 223.866 376.822 224.119 377.162C224.359 377.503 224.682 377.758 225.088 377.928C225.494 378.097 225.955 378.158 226.47 378.109C226.972 378.062 227.413 377.916 227.793 377.673C228.174 377.442 228.458 377.142 228.644 376.774C228.83 376.405 228.901 375.989 228.857 375.526C228.812 375.049 228.662 374.621 228.405 374.243C228.137 373.878 227.798 373.598 227.39 373.403C226.969 373.209 226.501 373.136 225.986 373.185Z" fill="white"/>
<path d="M214.68 371.55C215.792 371.526 216.787 371.738 217.664 372.185C218.527 372.632 219.22 373.251 219.742 374.042C220.251 374.846 220.516 375.766 220.538 376.801C220.561 377.848 220.335 378.778 219.861 379.591C219.374 380.416 218.709 381.065 217.865 381.536C217.008 382.02 216.024 382.274 214.911 382.298C213.812 382.322 212.824 382.11 211.948 381.663C211.071 381.229 210.379 380.616 209.87 379.825C209.361 379.034 209.095 378.108 209.073 377.047C209.05 376.012 209.276 375.082 209.75 374.257C210.224 373.445 210.89 372.796 211.746 372.312C212.603 371.828 213.581 371.574 214.68 371.55ZM214.734 374.033C214.229 374.044 213.779 374.17 213.383 374.412C212.987 374.653 212.677 374.99 212.454 375.422C212.23 375.866 212.125 376.386 212.138 376.981C212.151 377.589 212.279 378.104 212.521 378.526C212.763 378.948 213.086 379.271 213.492 379.495C213.898 379.719 214.354 379.826 214.858 379.815C215.362 379.804 215.813 379.678 216.209 379.436C216.604 379.195 216.921 378.858 217.157 378.426C217.381 377.994 217.486 377.474 217.473 376.866C217.46 376.272 217.333 375.757 217.091 375.322C216.836 374.9 216.505 374.578 216.099 374.353C215.693 374.129 215.238 374.023 214.734 374.033Z" fill="white"/>
<path d="M200.174 371.407L203.409 376.527L200.874 377.855L196.608 371.225L200.174 371.407ZM207.557 371.784L207.025 382.211L204.001 382.056L204.534 371.63L207.557 371.784ZM205.224 375.629L205.1 378.051L201.456 377.865L201.58 375.443L205.224 375.629ZM200.661 376.309L203.475 376.764L199.544 381.829L196.327 381.664L200.661 376.309Z" fill="white"/>
<path d="M190.728 370.332C191.846 370.467 192.814 370.812 193.633 371.367C194.45 371.935 195.06 372.654 195.463 373.524C195.853 374.392 195.986 375.34 195.862 376.368C195.736 377.408 195.38 378.297 194.796 379.034C194.197 379.782 193.434 380.328 192.506 380.672C191.577 381.029 190.553 381.14 189.436 381.004C188.344 380.872 187.422 380.526 186.669 379.966C185.914 379.418 185.395 378.697 185.113 377.803L187.595 376.833C187.806 377.354 188.103 377.755 188.486 378.035C188.856 378.315 189.279 378.483 189.754 378.541C190.268 378.603 190.744 378.543 191.183 378.362C191.622 378.18 191.989 377.893 192.284 377.498C192.567 377.103 192.745 376.603 192.818 375.999C192.891 375.396 192.837 374.868 192.658 374.416C192.465 373.963 192.177 373.596 191.794 373.315C191.411 373.034 190.963 372.862 190.449 372.8C189.974 372.742 189.524 372.799 189.099 372.969C188.66 373.15 188.276 373.475 187.945 373.943L185.768 372.39C186.255 371.602 186.93 371.025 187.795 370.661C188.659 370.309 189.636 370.2 190.728 370.332Z" fill="white"/>
<defs>
<filter id="filter0_d_129_59" x="0.574371" y="0.0555692" width="420.851" height="420.799" filterUnits="userSpaceOnUse" color-interpolation-filters="sRGB">
<feFlood flood-opacity="0" result="BackgroundImageFix"/>
<feColorMatrix in="SourceAlpha" type="matrix" values="0 0 0 0 0 0 0 0 0 0 0 0 0 0 0 0 0 0 127 0" result="hardAlpha"/>
<feOffset dy="2.42566"/>
<feGaussianBlur stdDeviation="10.9155"/>
<feComposite in2="hardAlpha" operator="out"/>
<feColorMatrix type="matrix" values="0 0 0 0 0.129167 0 0 0 0 0 0 0 0 0 0.121786 0 0 0 1 0"/>
<feBlend mode="normal" in2="BackgroundImageFix" result="effect1_dropShadow_129_59"/>
<feBlend mode="normal" in="SourceGraphic" in2="effect1_dropShadow_129_59" result="shape"/>
</filter>
<filter id="filter1_f_129_59" x="188.562" y="185.593" width="46.0874" height="46.085" filterUnits="userSpaceOnUse" color-interpolation-filters="sRGB">
<feFlood flood-opacity="0" result="BackgroundImageFix"/>
<feBlend mode="normal" in="SourceGraphic" in2="BackgroundImageFix" result="shape"/>
<feGaussianBlur stdDeviation="7.27697" result="effect1_foregroundBlur_129_59"/>
</filter>
<linearGradient id="paint0_linear_129_59" x1="354.114" y1="9.15316" x2="50.3555" y2="422.71" gradientUnits="userSpaceOnUse">
<stop stop-color="#460843"/>
<stop offset="1" stop-color="#290828" stop-opacity="0.92"/>
</linearGradient>
<linearGradient id="paint1_linear_129_59" x1="340.762" y1="27.7072" x2="65.3428" y2="402.682" gradientUnits="userSpaceOnUse">
<stop stop-color="#540450"/>
<stop offset="1" stop-color="#5B0D57" stop-opacity="0"/>
</linearGradient>
<linearGradient id="paint2_linear_129_59" x1="247.991" y1="24.3114" x2="210.403" y2="232.284" gradientUnits="userSpaceOnUse">
<stop stop-color="#740E5D"/>
<stop offset="1" stop-color="#740E5D" stop-opacity="0"/>
</linearGradient>
<linearGradient id="paint3_linear_129_59" x1="435.373" y1="84.9441" x2="154.015" y2="235.953" gradientUnits="userSpaceOnUse">
<stop stop-color="#AF336F"/>
<stop offset="1" stop-color="#AF336F" stop-opacity="0.29"/>
</linearGradient>
<linearGradient id="paint4_linear_129_59" x1="435.98" y1="312.924" x2="179.48" y2="190.417" gradientUnits="userSpaceOnUse">
<stop stop-color="#BB5385"/>
<stop offset="1" stop-color="#BB5385" stop-opacity="0.6"/>
</linearGradient>
<linearGradient id="paint5_linear_129_59" x1="78.8019" y1="391.14" x2="238.866" y2="172.234" gradientUnits="userSpaceOnUse">
<stop stop-color="#BB5385"/>
<stop offset="1" stop-color="#BB5385" stop-opacity="0.44"/>
</linearGradient>
<linearGradient id="paint6_linear_129_59" x1="26.6496" y1="207.423" x2="288.62" y2="207.423" gradientUnits="userSpaceOnUse">
<stop stop-color="#AF336F"/>
<stop offset="1" stop-color="#AF336F" stop-opacity="0.29"/>
</linearGradient>
<linearGradient id="paint7_linear_129_59" x1="230.406" y1="234.708" x2="60.6405" y2="4.27988" gradientUnits="userSpaceOnUse">
<stop stop-color="#BB5385" stop-opacity="0.53"/>
<stop offset="1" stop-color="#BB5385"/>
</linearGradient>
<linearGradient id="paint8_linear_129_59" x1="187.35" y1="184.989" x2="227.39" y2="187.267" gradientUnits="userSpaceOnUse">
<stop stop-color="#7C159D"/>
<stop offset="0.505437" stop-color="#AB0090"/>
<stop offset="1" stop-color="#B8275D"/>
</linearGradient>
<linearGradient id="paint9_linear_129_59" x1="266.791" y1="394.778" x2="197.071" y2="159.517" gradientUnits="userSpaceOnUse">
<stop stop-color="#740E5D"/>
<stop offset="1" stop-color="#740E5D" stop-opacity="0"/>
</linearGradient>
<clipPath id="clip0_129_59">
<rect width="67.9111" height="67.9162" fill="white" transform="matrix(-0.482702 0.875785 -0.875842 -0.482598 362.042 245.005)"/>
</clipPath>
<clipPath id="clip1_129_59">
<rect width="67.9151" height="67.9121" fill="white" transform="matrix(-0.810558 -0.585658 0.585765 -0.810481 151.437 344.682)"/>
</clipPath>
<clipPath id="clip2_129_59">
<rect width="67.9139" height="67.9133" fill="white" transform="matrix(0.727433 -0.686179 0.68628 0.727337 93.8193 118.421)"/>
</clipPath>
</defs>
</svg>
