<svg width="192" height="192" viewBox="0 0 192 192" fill="none" xmlns="http://www.w3.org/2000/svg">
<g clip-path="url(#clip0_1105_3864)">
<g filter="url(#filter0_di_1105_3864)">
<path d="M105.11 157.494L105.105 157.498C99.9441 162.197 92.0559 162.197 86.895 157.498L86.8897 157.494C66.2168 138.748 49.3558 123.432 37.6197 109.074C25.9243 94.7656 19.7064 81.8613 19.7064 67.9999C19.7064 45.3315 37.4025 27.7066 60 27.7066C72.7996 27.7066 85.1456 33.6842 93.1875 43.054L96 46.3309L98.8125 43.054C106.854 33.6842 119.2 27.7066 132 27.7066C154.597 27.7066 172.294 45.3315 172.294 67.9999C172.294 81.8613 166.076 94.7656 154.38 109.074C142.644 123.432 125.783 138.748 105.11 157.494Z" stroke="white" stroke-width="7.41272" shape-rendering="crispEdges"/>
</g>
<g filter="url(#filter1_d_1105_3864)">
<path d="M63.3084 73.7791L63.3084 96.714L60.027 96.714L60.027 77.484L56.3927 79.3188L55.5106 76.8841L60.9444 73.7438L63.3084 73.7791ZM89.6106 85.2466C89.6106 87.0108 89.3283 88.6221 88.7638 90.0806C88.1992 91.539 87.4112 92.7975 86.3997 93.856C85.4117 94.9145 84.2238 95.7378 82.836 96.3259C81.4716 96.8905 79.9661 97.1727 78.3195 97.1727C76.6729 97.1727 75.1557 96.8905 73.7678 96.3259C72.4035 95.7378 71.2156 94.9145 70.2041 93.856C69.2161 92.7975 68.4399 91.539 67.8753 90.0806C67.3108 88.6221 67.0285 87.0108 67.0285 85.2466C67.0285 83.4823 67.3108 81.871 67.8753 80.4126C68.4399 78.9542 69.2161 77.6957 70.2041 76.6371C71.2156 75.5786 72.4035 74.7671 73.7678 74.2025C75.1557 73.6144 76.6729 73.3204 78.3195 73.3204C79.9661 73.3204 81.4716 73.6144 82.836 74.2025C84.2238 74.7671 85.4117 75.5786 86.3997 76.6371C87.4112 77.6957 88.1992 78.9542 88.7638 80.4126C89.3283 81.871 89.6106 83.4823 89.6106 85.2466ZM70.4158 85.2466C70.4158 86.705 70.6157 87.9988 71.0156 89.1279C71.4155 90.257 71.9683 91.2097 72.674 91.9859C73.3797 92.7622 74.2148 93.3503 75.1792 93.7501C76.1437 94.15 77.1904 94.35 78.3195 94.35C79.4486 94.35 80.4954 94.15 81.4599 93.7501C82.4243 93.3503 83.2594 92.7622 83.9651 91.9859C84.6707 91.2097 85.2235 90.257 85.6234 89.1279C86.0233 87.9988 86.2233 86.705 86.2233 85.2466C86.2233 83.7881 86.0233 82.4944 85.6234 81.3653C85.2235 80.2362 84.6707 79.2835 83.9651 78.5072C83.2594 77.731 82.4243 77.1429 81.4599 76.743C80.4954 76.3196 79.4486 76.1079 78.3195 76.1079C77.1904 76.1079 76.1437 76.3196 75.1792 76.743C74.2148 77.1429 73.3797 77.731 72.674 78.5072C71.9683 79.2835 71.4155 80.2362 71.0156 81.3653C70.6157 82.4944 70.4158 83.7881 70.4158 85.2466ZM115.006 85.2466C115.006 87.0108 114.724 88.6221 114.159 90.0806C113.594 91.539 112.806 92.7975 111.795 93.856C110.807 94.9145 109.619 95.7378 108.231 96.3259C106.867 96.8905 105.361 97.1727 103.715 97.1727C102.068 97.1727 100.551 96.8905 99.163 96.3259C97.7987 95.7378 96.6108 94.9145 95.5993 93.856C94.6113 92.7975 93.8351 91.539 93.2705 90.0806C92.706 88.6221 92.4237 87.0108 92.4237 85.2466C92.4237 83.4823 92.706 81.871 93.2705 80.4126C93.8351 78.9542 94.6113 77.6957 95.5993 76.6371C96.6108 75.5786 97.7987 74.7671 99.163 74.2025C100.551 73.6144 102.068 73.3204 103.715 73.3204C105.361 73.3204 106.867 73.6144 108.231 74.2025C109.619 74.7671 110.807 75.5786 111.795 76.6371C112.806 77.6957 113.594 78.9542 114.159 80.4126C114.724 81.871 115.006 83.4823 115.006 85.2466ZM95.811 85.2466C95.811 86.705 96.011 87.9988 96.4109 89.1279C96.8107 90.257 97.3635 91.2097 98.0692 91.9859C98.7749 92.7622 99.61 93.3503 100.574 93.7501C101.539 94.15 102.586 94.35 103.715 94.35C104.844 94.35 105.891 94.15 106.855 93.7501C107.82 93.3503 108.655 92.7622 109.36 91.9859C110.066 91.2097 110.619 90.257 111.019 89.1279C111.419 87.9988 111.618 86.705 111.618 85.2466C111.618 83.7881 111.419 82.4944 111.019 81.3653C110.619 80.2362 110.066 79.2835 109.36 78.5072C108.655 77.731 107.82 77.1429 106.855 76.743C105.891 76.3196 104.844 76.1079 103.715 76.1079C102.586 76.1079 101.539 76.3196 100.574 76.743C99.61 77.1429 98.7749 77.731 98.0692 78.5072C97.3635 79.2835 96.8107 80.2362 96.4109 81.3653C96.011 82.4944 95.811 83.7881 95.811 85.2466ZM121.947 70.9563L121.947 86.411L124.77 84.5409L130.909 79.0718L134.755 79.0718L134.826 79.4246L127.169 86.0934L135.179 96.4318L135.073 96.714L131.368 96.714L124.664 87.7165L121.947 89.2337L121.947 96.714L118.701 96.714L118.701 70.9563L121.947 70.9563Z" fill="white"/>
</g>
</g>
<defs>
<filter id="filter0_di_1105_3864" x="-1.79053" y="6.20967" width="195.581" height="176.309" filterUnits="userSpaceOnUse" color-interpolation-filters="sRGB">
<feFlood flood-opacity="0" result="BackgroundImageFix"/>
<feColorMatrix in="SourceAlpha" type="matrix" values="0 0 0 0 0 0 0 0 0 0 0 0 0 0 0 0 0 0 127 0" result="hardAlpha"/>
<feOffset/>
<feGaussianBlur stdDeviation="8.89526"/>
<feComposite in2="hardAlpha" operator="out"/>
<feColorMatrix type="matrix" values="0 0 0 0 1 0 0 0 0 0.934667 0 0 0 0 0.591667 0 0 0 1 0"/>
<feBlend mode="normal" in2="BackgroundImageFix" result="effect1_dropShadow_1105_3864"/>
<feBlend mode="normal" in="SourceGraphic" in2="effect1_dropShadow_1105_3864" result="shape"/>
<feColorMatrix in="SourceAlpha" type="matrix" values="0 0 0 0 0 0 0 0 0 0 0 0 0 0 0 0 0 0 127 0" result="hardAlpha"/>
<feOffset/>
<feGaussianBlur stdDeviation="10.3778"/>
<feComposite in2="hardAlpha" operator="arithmetic" k2="-1" k3="1"/>
<feColorMatrix type="matrix" values="0 0 0 0 1 0 0 0 0 1 0 0 0 0 1 0 0 0 1 0"/>
<feBlend mode="normal" in2="shape" result="effect2_innerShadow_1105_3864"/>
</filter>
<filter id="filter1_d_1105_3864" x="51.7336" y="67.1792" width="87.2222" height="33.7706" filterUnits="userSpaceOnUse" color-interpolation-filters="sRGB">
<feFlood flood-opacity="0" result="BackgroundImageFix"/>
<feColorMatrix in="SourceAlpha" type="matrix" values="0 0 0 0 0 0 0 0 0 0 0 0 0 0 0 0 0 0 127 0" result="hardAlpha"/>
<feOffset/>
<feGaussianBlur stdDeviation="1.88855"/>
<feComposite in2="hardAlpha" operator="out"/>
<feColorMatrix type="matrix" values="0 0 0 0 1 0 0 0 0 0.934667 0 0 0 0 0.591667 0 0 0 1 0"/>
<feBlend mode="normal" in2="BackgroundImageFix" result="effect1_dropShadow_1105_3864"/>
<feBlend mode="normal" in="SourceGraphic" in2="effect1_dropShadow_1105_3864" result="shape"/>
</filter>
<clipPath id="clip0_1105_3864">
<rect width="192" height="191.999" fill="white"/>
</clipPath>
</defs>
</svg>
