<svg width="192" height="192" viewBox="0 0 192 192" fill="none" xmlns="http://www.w3.org/2000/svg">
<g clip-path="url(#clip0_1105_3854)">
<g filter="url(#filter0_di_1105_3854)">
<path d="M105.11 157.493L105.105 157.498C99.9441 162.196 92.0559 162.196 86.895 157.498L86.8897 157.493C66.2168 138.747 49.3558 123.432 37.6197 109.074C25.9243 94.7654 19.7064 81.8611 19.7064 67.9997C19.7064 45.3313 37.4025 27.7064 60 27.7064C72.7996 27.7064 85.1456 33.684 93.1875 43.0539L96 46.3308L98.8125 43.0539C106.854 33.684 119.2 27.7064 132 27.7064C154.597 27.7064 172.294 45.3313 172.294 67.9997C172.294 81.8611 166.076 94.7654 154.38 109.074C142.644 123.432 125.783 138.747 105.11 157.493Z" stroke="white" stroke-width="7.41272" shape-rendering="crispEdges"/>
</g>
<g filter="url(#filter1_d_1105_3854)">
<path d="M70.6585 75.7384L70.6585 103.491L66.6877 103.491L66.6877 80.2215L62.29 82.4417L61.2226 79.4957L67.7978 75.6957L70.6585 75.7384ZM102.486 89.6147C102.486 91.7496 102.144 93.6994 101.461 95.4641C100.778 97.2289 99.8243 98.7518 98.6003 100.033C97.4048 101.314 95.9674 102.31 94.288 103.021C92.637 103.705 90.8153 104.046 88.8228 104.046C86.8303 104.046 84.9944 103.705 83.315 103.021C81.6641 102.31 80.2266 101.314 79.0026 100.033C77.8071 98.7518 76.8678 97.2289 76.1847 95.4641C75.5015 93.6994 75.16 91.7496 75.16 89.6147C75.16 87.4799 75.5015 85.5301 76.1847 83.7653C76.8678 82.0005 77.8071 80.4777 79.0026 79.1968C80.2266 77.9159 81.6641 76.9339 83.315 76.2507C84.9944 75.5391 86.8303 75.1833 88.8228 75.1833C90.8153 75.1833 92.637 75.5391 94.288 76.2507C95.9674 76.9339 97.4048 77.9159 98.6003 79.1968C99.8243 80.4777 100.778 82.0005 101.461 83.7653C102.144 85.5301 102.486 87.4799 102.486 89.6147ZM79.2588 89.6147C79.2588 91.3795 79.5008 92.9451 79.9847 94.3113C80.4686 95.6776 81.1375 96.8304 81.9914 97.7697C82.8453 98.7091 83.8558 99.4207 85.0228 99.9046C86.1899 100.388 87.4565 100.63 88.8228 100.63C90.1891 100.63 91.4558 100.388 92.6228 99.9046C93.7898 99.4207 94.8003 98.7091 95.6543 97.7698C96.5082 96.8304 97.1771 95.6776 97.661 94.3113C98.1449 92.9451 98.3868 91.3795 98.3868 89.6147C98.3868 87.8499 98.1449 86.2844 97.661 84.9181C97.1771 83.5518 96.5082 82.399 95.6543 81.4597C94.8003 80.5204 93.7898 79.8088 92.6228 79.3249C91.4558 78.8125 90.1891 78.5563 88.8228 78.5563C87.4565 78.5563 86.1899 78.8125 85.0228 79.3249C83.8558 79.8088 82.8453 80.5204 81.9914 81.4597C81.1375 82.399 80.4686 83.5518 79.9847 84.9181C79.5008 86.2844 79.2588 87.8499 79.2588 89.6147ZM110.885 72.3227L110.885 91.0237L114.301 88.7608L121.73 82.1429L126.384 82.1429L126.469 82.5698L117.204 90.6394L126.896 103.15L126.768 103.491L122.285 103.491L114.173 92.6035L110.885 94.4394L110.885 103.491L106.957 103.491L106.957 72.3227L110.885 72.3227Z" fill="white"/>
</g>
</g>
<defs>
<filter id="filter0_di_1105_3854" x="-1.79052" y="6.20956" width="195.581" height="176.309" filterUnits="userSpaceOnUse" color-interpolation-filters="sRGB">
<feFlood flood-opacity="0" result="BackgroundImageFix"/>
<feColorMatrix in="SourceAlpha" type="matrix" values="0 0 0 0 0 0 0 0 0 0 0 0 0 0 0 0 0 0 127 0" result="hardAlpha"/>
<feOffset/>
<feGaussianBlur stdDeviation="8.89526"/>
<feComposite in2="hardAlpha" operator="out"/>
<feColorMatrix type="matrix" values="0 0 0 0 1 0 0 0 0 0.934667 0 0 0 0 0.591667 0 0 0 1 0"/>
<feBlend mode="normal" in2="BackgroundImageFix" result="effect1_dropShadow_1105_3854"/>
<feBlend mode="normal" in="SourceGraphic" in2="effect1_dropShadow_1105_3854" result="shape"/>
<feColorMatrix in="SourceAlpha" type="matrix" values="0 0 0 0 0 0 0 0 0 0 0 0 0 0 0 0 0 0 127 0" result="hardAlpha"/>
<feOffset/>
<feGaussianBlur stdDeviation="10.3778"/>
<feComposite in2="hardAlpha" operator="arithmetic" k2="-1" k3="1"/>
<feColorMatrix type="matrix" values="0 0 0 0 1 0 0 0 0 1 0 0 0 0 1 0 0 0 1 0"/>
<feBlend mode="normal" in2="shape" result="effect2_innerShadow_1105_3854"/>
</filter>
<filter id="filter1_d_1105_3854" x="57.4456" y="68.5456" width="73.228" height="39.2777" filterUnits="userSpaceOnUse" color-interpolation-filters="sRGB">
<feFlood flood-opacity="0" result="BackgroundImageFix"/>
<feColorMatrix in="SourceAlpha" type="matrix" values="0 0 0 0 0 0 0 0 0 0 0 0 0 0 0 0 0 0 127 0" result="hardAlpha"/>
<feOffset/>
<feGaussianBlur stdDeviation="1.88855"/>
<feComposite in2="hardAlpha" operator="out"/>
<feColorMatrix type="matrix" values="0 0 0 0 1 0 0 0 0 0.934667 0 0 0 0 0.591667 0 0 0 1 0"/>
<feBlend mode="normal" in2="BackgroundImageFix" result="effect1_dropShadow_1105_3854"/>
<feBlend mode="normal" in="SourceGraphic" in2="effect1_dropShadow_1105_3854" result="shape"/>
</filter>
<clipPath id="clip0_1105_3854">
<rect width="192" height="191.999" fill="white"/>
</clipPath>
</defs>
</svg>
