<svg width="192" height="192" viewBox="0 0 192 192" fill="none" xmlns="http://www.w3.org/2000/svg">
<g clip-path="url(#clip0_1105_3867)">
<g filter="url(#filter0_di_1105_3867)">
<path d="M109.525 157.208L109.52 157.213C104.553 162.116 96.6713 162.434 91.3251 157.947L91.3196 157.943C69.9076 140.046 52.4427 125.423 40.1372 111.549C27.8743 97.7242 21.1411 85.0811 20.5821 71.231C19.668 48.581 36.6391 30.2569 59.2182 29.3457C72.0073 28.8295 84.5844 34.3044 92.9975 43.3423L95.9399 46.5032L98.618 43.1155C106.275 33.429 118.37 26.9584 131.16 26.4423C153.739 25.5311 172.131 42.4281 173.045 65.0781C173.604 78.9282 167.912 92.0727 156.803 106.841C145.655 121.661 129.426 137.644 109.525 157.208Z" stroke="white" stroke-width="7.41272" shape-rendering="crispEdges"/>
</g>
<g filter="url(#filter1_d_1105_3867)">
<path d="M81.6611 77.0226L81.8005 80.4782L69.13 80.9895L69.4175 88.114C70.2354 87.9101 70.9419 87.7676 71.5368 87.6867C72.1591 87.5761 72.9253 87.5024 73.8354 87.4657C75.2575 87.4083 76.5744 87.5688 77.7861 87.9472C78.9967 88.2972 80.0441 88.8389 80.9283 89.5724C81.8126 90.3059 82.5188 91.2175 83.0471 92.3071C83.5742 93.3684 83.8659 94.5958 83.9221 95.9894C83.9738 97.2693 83.7808 98.4878 83.3432 99.645C82.9329 100.773 82.2757 101.782 81.3716 102.673C80.4948 103.535 79.3835 104.235 78.0378 104.773C76.6922 105.312 75.1377 105.617 73.3743 105.688C72.4073 105.727 71.5091 105.706 70.6797 105.626C69.88 105.572 69.1199 105.446 68.3997 105.248C67.6784 105.02 66.9689 104.736 66.2714 104.393C65.6024 104.05 64.9008 103.608 64.1669 103.068L65.8278 99.7536C66.4742 100.24 67.075 100.658 67.6303 101.006C68.1845 101.325 68.7363 101.588 69.2859 101.793C69.8627 101.969 70.4515 102.088 71.0522 102.149C71.6814 102.209 72.3657 102.225 73.1052 102.195C75.5795 102.095 77.3507 101.511 78.4186 100.442C79.5137 99.3437 80.0257 97.9129 79.9546 96.1496C79.8754 94.1871 79.2213 92.8034 77.9923 91.9984C76.7918 91.1922 75.0823 90.8339 72.8639 90.9234C71.6125 90.9739 70.4931 91.1188 69.5057 91.358C68.5172 91.5689 67.4621 91.8963 66.3405 92.3404L65.7773 92.1495L65.1936 77.6872L81.6611 77.0226ZM115.053 89.5626C115.139 91.6957 114.876 93.6577 114.265 95.4486C113.653 97.2395 112.762 98.7996 111.591 100.129C110.448 101.457 109.052 102.51 107.402 103.289C105.78 104.038 103.974 104.453 101.983 104.533C99.9921 104.614 98.1439 104.346 96.4383 103.731C94.76 103.087 93.2836 102.15 92.009 100.919C90.7628 99.6874 89.7628 98.2037 89.0091 96.4679C88.2553 94.732 87.8354 92.7976 87.7493 90.6645C87.6632 88.5314 87.9259 86.5694 88.5373 84.7785C89.1487 82.9876 90.0259 81.4282 91.1688 80.1001C92.3401 78.7709 93.7368 77.7317 95.3588 76.9826C97.0081 76.2038 98.8282 75.7743 100.819 75.6939C102.81 75.6136 104.645 75.8956 106.323 76.5401C108.028 77.1549 109.504 78.0782 110.75 79.3098C112.025 80.5403 113.039 82.0235 113.793 83.7593C114.547 85.4951 114.967 87.4295 115.053 89.5626ZM91.8448 90.4992C91.916 92.2626 92.2209 93.8171 92.7595 95.1628C93.2981 96.5084 94.0129 97.6333 94.904 98.5374C95.7951 99.4416 96.8335 100.112 98.0191 100.548C99.2047 100.985 100.48 101.175 101.845 101.12C103.21 101.065 104.466 100.772 105.613 100.242C106.759 99.7113 107.74 98.9595 108.556 97.9865C109.371 97.0135 109.993 95.8347 110.421 94.45C110.85 93.0653 111.028 91.4913 110.957 89.7279C110.886 87.9646 110.581 86.4101 110.043 85.0644C109.504 83.7187 108.789 82.5938 107.898 81.6897C107.007 80.7856 105.969 80.1153 104.783 79.6789C103.596 79.214 102.32 79.0091 100.955 79.0642C99.59 79.1193 98.3347 79.4263 97.1892 79.9853C96.0427 80.5159 95.0617 81.2677 94.2463 82.2407C93.431 83.2136 92.8091 84.3925 92.3807 85.7772C91.9523 87.1619 91.7737 88.7359 91.8448 90.4992ZM122.748 71.9459L123.502 90.6318L126.824 88.233L133.98 81.3208L138.63 81.1332L138.733 81.5563L129.801 89.993L139.989 102.102L139.875 102.449L135.396 102.629L126.851 92.0777L123.64 94.0447L124.005 103.089L120.08 103.247L118.823 72.1043L122.748 71.9459Z" fill="white"/>
</g>
</g>
<defs>
<filter id="filter0_di_1105_3867" x="-0.949701" y="4.91021" width="195.529" height="177.699" filterUnits="userSpaceOnUse" color-interpolation-filters="sRGB">
<feFlood flood-opacity="0" result="BackgroundImageFix"/>
<feColorMatrix in="SourceAlpha" type="matrix" values="0 0 0 0 0 0 0 0 0 0 0 0 0 0 0 0 0 0 127 0" result="hardAlpha"/>
<feOffset/>
<feGaussianBlur stdDeviation="8.89526"/>
<feComposite in2="hardAlpha" operator="out"/>
<feColorMatrix type="matrix" values="0 0 0 0 1 0 0 0 0 0.934667 0 0 0 0 0.591667 0 0 0 1 0"/>
<feBlend mode="normal" in2="BackgroundImageFix" result="effect1_dropShadow_1105_3867"/>
<feBlend mode="normal" in="SourceGraphic" in2="effect1_dropShadow_1105_3867" result="shape"/>
<feColorMatrix in="SourceAlpha" type="matrix" values="0 0 0 0 0 0 0 0 0 0 0 0 0 0 0 0 0 0 127 0" result="hardAlpha"/>
<feOffset/>
<feGaussianBlur stdDeviation="10.3778"/>
<feComposite in2="hardAlpha" operator="arithmetic" k2="-1" k3="1"/>
<feColorMatrix type="matrix" values="0 0 0 0 1 0 0 0 0 1 0 0 0 0 1 0 0 0 1 0"/>
<feBlend mode="normal" in2="shape" result="effect2_innerShadow_1105_3867"/>
</filter>
<filter id="filter1_d_1105_3867" x="59.2307" y="67.5232" width="84.5718" height="42.3084" filterUnits="userSpaceOnUse" color-interpolation-filters="sRGB">
<feFlood flood-opacity="0" result="BackgroundImageFix"/>
<feColorMatrix in="SourceAlpha" type="matrix" values="0 0 0 0 0 0 0 0 0 0 0 0 0 0 0 0 0 0 127 0" result="hardAlpha"/>
<feOffset/>
<feGaussianBlur stdDeviation="1.88855"/>
<feComposite in2="hardAlpha" operator="out"/>
<feColorMatrix type="matrix" values="0 0 0 0 1 0 0 0 0 0.934667 0 0 0 0 0.591667 0 0 0 1 0"/>
<feBlend mode="normal" in2="BackgroundImageFix" result="effect1_dropShadow_1105_3867"/>
<feBlend mode="normal" in="SourceGraphic" in2="effect1_dropShadow_1105_3867" result="shape"/>
</filter>
<clipPath id="clip0_1105_3867">
<rect width="192" height="191.999" fill="white"/>
</clipPath>
</defs>
</svg>
