<svg width="49" height="53" viewBox="0 0 49 53" fill="none" xmlns="http://www.w3.org/2000/svg">
<path d="M16.3933 51.976L5.1209 51.976C4.51563 51.976 4.00499 51.5255 3.92952 50.925L0.694336 25.1791C0.840979 19.2749 4.85985 16.1108 6.85095 15.2668C8.4249 14.222 12.9568 12.7594 18.4927 15.2668C24.0287 17.7743 25.0656 22.9198 24.8921 25.1791L21.0712 51.976L16.3933 51.976Z" fill="#FFADFE"/>
<rect x="9.38135" y="4.98657" width="6.8651" height="4.59357" fill="#FFADFE"/>
<path d="M18.8714 15.3852L6.70605 15.3852L7.87273 9.45877C7.92814 9.17731 8.17493 8.97437 8.4618 8.97437L17.3487 8.97437C17.6442 8.97437 17.8958 9.18942 17.9418 9.48135L18.8714 15.3852Z" fill="#8E1C8D"/>
<path d="M22.5933 5.49152L8.48989 5.49152C8.02035 5.49152 7.67628 5.04955 7.79145 4.59435L8.49875 1.79893C8.57405 1.50132 8.82966 1.28412 9.13552 1.25784L22.5317 0.106986C22.9523 0.0708459 23.3138 0.402567 23.3138 0.824791L23.3138 4.77107C23.3138 5.16896 22.9912 5.49152 22.5933 5.49152Z" fill="#8E1C8D"/>
<path d="M48.975 19.3489L30.0127 19.3489L33.2966 46.2444L45.5252 46.2444L48.975 20.0969L48.975 19.3489Z" fill="#FFADFE"/>
<path d="M30.0127 16.5519C30.0127 16.0877 30.389 15.7114 30.8532 15.7114L48.1344 15.7114C48.5986 15.7114 48.975 16.0877 48.975 16.5519L48.975 19.3486L30.0127 19.3486L30.0127 16.5519Z" fill="#8E1C8D"/>
<path d="M33.2964 51.0723C33.2964 51.5365 33.6727 51.9128 34.1369 51.9128L44.6768 51.9128C45.141 51.9128 45.5173 51.5365 45.5173 51.0723L45.5173 46.2441L33.2964 46.2441L33.2964 51.0723Z" fill="#8E1C8D"/>
<rect x="12.8892" y="38.4331" width="25.8113" height="13.6841" rx="1.32082" fill="#FFEE97"/>
<path d="M17.2369 35.0237C16.7239 35.1035 16.309 35.075 16.0581 35.013L17.2369 35.0237C18.0242 34.9012 19.0425 34.5238 20.0536 33.6213C22.1411 31.7583 25.3959 29.1769 28.8302 29.9401C29.0547 29.97 29.4363 30.2454 29.1669 31.1073C28.8302 32.1848 32.1074 32.297 33.5889 32.5215C35.0703 32.7459 35.9233 34.5192 35.9458 35.1926L17.2369 35.0237Z" fill="#FFEE97"/>
<rect x="15.3433" y="34.9883" width="20.9039" height="3.4447" fill="#8E1C8D"/>
<path d="M12.8223 20.6067L13.28 22.0675C13.4772 22.6968 13.9702 23.1897 14.5998 23.3868L16.0613 23.8444L14.6503 24.181C13.9117 24.3571 13.335 24.9335 13.1587 25.6718L12.8219 27.0821L12.5335 25.6942C12.3704 24.9092 11.7568 24.2958 10.9714 24.1327L9.58294 23.8444L10.9814 23.5351C11.7462 23.3659 12.3435 22.7689 12.5127 22.0045L12.8223 20.6067Z" fill="#FFEE97"/>
<path d="M39.4761 23.8486L39.9338 25.3095C40.131 25.9388 40.624 26.4316 41.2536 26.6287L42.7151 27.0863L41.3041 27.4229C40.5655 27.5991 39.9888 28.1755 39.8125 28.9137L39.4758 30.324L39.1874 28.9362C39.0242 28.1512 38.4106 27.5378 37.6252 27.3747L36.2367 27.0863L37.6352 26.777C38.4 26.6079 38.9973 26.0109 39.1665 25.2465L39.4761 23.8486Z" fill="#FFEE97"/>
<path d="M25.6613 44.2209L25.8249 43.4822L26.0808 44.2989C26.2956 44.9844 26.8327 45.5214 27.5186 45.7361L28.3563 45.9984L27.5811 46.1833C26.7765 46.3752 26.1482 47.0032 25.9561 47.8075L25.8068 48.4329L25.6826 47.8351C25.5049 46.9799 24.8363 46.3116 23.9807 46.1339L23.4145 46.0163L23.993 45.8884C24.8261 45.7041 25.4769 45.0537 25.6613 44.2209Z" stroke="#8E1C8D" stroke-width="0.360224"/>
</svg>
