<svg width="258" height="258" viewBox="0 0 258 258" fill="none" xmlns="http://www.w3.org/2000/svg">
<g filter="url(#filter0_d_213_1384)">
<circle cx="129" cy="129" r="120" fill="#FF87D0"/>
<circle cx="129" cy="129" r="122" stroke="#33C1C8" stroke-width="4"/>
</g>
<path d="M68.3037 65.3453L68.3119 188.585H78.1736H116.573H130.773H151.624H162.556H183.411H193.55L193.542 65.3453L68.3037 65.3453Z" fill="#FFD9EF" stroke="#FFD9EF" stroke-width="3.00827" stroke-linecap="square"/>
<path d="M169.889 152.769C169.889 153.834 167.669 154.101 166.558 154.101H180.548C177.35 154.101 176.551 153.213 176.551 152.769L176.55 142.776H169.888L169.889 152.769Z" fill="white"/>
<path d="M163.227 164.514C163.227 164.514 168.556 162.515 168.555 159.184H177.882C177.882 161.849 181.657 164.038 183.211 164.799L183.213 195.823H162.562C162.34 186.053 163.227 164.514 163.227 164.514Z" fill="#F1C0DD"/>
<path d="M82.4756 118.92L82.1807 120.395L85.1306 120.985L85.4255 119.51L82.4756 118.92ZM93.2758 104.559L94.0498 105.849L93.2758 104.559ZM102.333 92.9658L103.396 91.9022L101.269 89.7751L100.205 90.8386L102.333 92.9658ZM85.4255 119.51C85.7151 118.061 86.799 115.255 88.4185 112.437C90.0506 109.596 92.0579 107.044 94.0498 105.849L92.5018 103.269C89.8308 104.872 87.5084 107.982 85.8101 110.938C84.0992 113.915 82.852 117.037 82.4756 118.92L85.4255 119.51ZM94.0498 105.849C99.3062 102.695 101.425 99.4125 102.216 96.6455C102.603 95.2884 102.648 94.1319 102.648 93.3178C102.648 92.8626 102.638 92.6559 102.647 92.4568C102.65 92.3716 102.656 92.381 102.642 92.4367C102.632 92.4788 102.572 92.7259 102.333 92.9658L100.205 90.8386C99.8821 91.1618 99.7649 91.5338 99.7158 91.7399C99.6636 91.9595 99.648 92.1718 99.6413 92.3261C99.6291 92.6058 99.6399 93.0236 99.6399 93.3178C99.64 94.0026 99.6016 94.8446 99.3232 95.819C98.7816 97.7151 97.2374 100.428 92.5018 103.269L94.0498 105.849Z" fill="#B22C7D"/>
<path d="M121.396 118.92L121.691 120.395L118.741 120.985L118.446 119.51L121.396 118.92ZM110.594 104.559L111.298 103.23L110.594 104.559ZM100.87 92.9658L99.806 91.9022L101.933 89.7751L102.997 90.8386L100.87 92.9658ZM118.446 119.51C118.153 118.044 117.095 115.167 115.499 112.329C113.882 109.453 111.893 106.949 109.89 105.889L111.298 103.23C114.101 104.714 116.443 107.872 118.121 110.855C119.821 113.876 121.023 117.055 121.396 118.92L118.446 119.51ZM109.89 105.889C103.986 102.763 101.632 99.4843 100.82 96.6455C100.423 95.2539 100.427 94.0678 100.473 93.2344C100.5 92.7477 100.524 92.5791 100.528 92.3587C100.53 92.2722 100.524 92.2903 100.536 92.3584C100.546 92.4141 100.602 92.6982 100.87 92.9658L102.997 90.8386C103.348 91.1896 103.455 91.5985 103.495 91.8182C103.538 92.0501 103.539 92.2713 103.536 92.4241C103.53 92.6825 103.491 93.1385 103.477 93.4012C103.44 94.0667 103.444 94.8791 103.713 95.819C104.234 97.6433 105.877 100.36 111.298 103.23L109.89 105.889Z" fill="#B22C7D"/>
<path d="M97.9355 85.907L97.9341 65.2561" stroke="#B22C7D" stroke-width="3.00827" stroke-linecap="square"/>
<path d="M97.9438 161.183L97.9399 102.561" stroke="#B22C7D" stroke-width="3.00827" stroke-linecap="square"/>
<path d="M126.583 87.2399L193.198 87.2399" stroke="#B22C7D" stroke-width="3.00827" stroke-linecap="square"/>
<path d="M126.583 94.5667L193.198 94.5667" stroke="#B22C7D" stroke-width="3.00827" stroke-linecap="square"/>
<path d="M68.7505 87.2399H76.6219" stroke="#B22C7D" stroke-width="3.00827" stroke-linecap="square"/>
<path d="M68.7505 94.5667H76.6216" stroke="#B22C7D" stroke-width="3.00827" stroke-linecap="square"/>
<path d="M121.254 83.2428C111.661 78.9793 104.601 87.4615 101.936 91.9026C103.047 92.5687 104.601 96.5655 113.261 98.564C124.006 101.043 133.245 88.572 121.254 83.2428Z" fill="#FFD9EF"/>
<path d="M101.936 91.9026L100.646 91.1287L99.8725 92.4186L101.162 93.1924L101.936 91.9026ZM121.254 83.2428L121.865 81.8683L121.865 81.8683L121.254 83.2428ZM113.261 98.564L113.599 97.0984L113.261 98.564ZM103.226 92.6765C104.496 90.5595 106.785 87.54 109.817 85.5697C112.786 83.6402 116.411 82.736 120.643 84.6172L121.865 81.8683C116.505 79.4861 111.803 80.6913 108.177 83.0472C104.615 85.3624 102.041 88.8046 100.646 91.1287L103.226 92.6765ZM120.643 84.6172C123.385 85.8357 124.677 87.3522 125.154 88.7266C125.629 90.0958 125.394 91.6062 124.505 93.039C122.695 95.9595 118.352 98.195 113.599 97.0984L112.923 100.03C118.916 101.412 124.565 98.6519 127.062 94.6243C128.328 92.583 128.825 90.1312 127.996 87.7407C127.169 85.3553 125.119 83.3145 121.865 81.8683L120.643 84.6172ZM113.599 97.0984C109.478 96.1472 107.141 94.7456 105.726 93.5748C105.012 92.9835 104.504 92.4278 104.088 91.9529C103.893 91.7294 103.673 91.4716 103.484 91.27C103.302 91.0751 103.038 90.8095 102.71 90.6128L101.162 93.1924C101.112 93.1622 101.14 93.1672 101.289 93.3261C101.431 93.4784 101.583 93.6578 101.824 93.9339C102.283 94.4582 102.913 95.1515 103.809 95.8924C105.614 97.3862 108.385 98.9823 112.923 100.03L113.599 97.0984Z" fill="#B22C7D"/>
<path d="M82.2655 83.2441C91.8579 78.9807 98.9197 87.4629 101.585 91.9039C100.474 92.57 98.9203 96.5668 90.2604 98.5653C79.516 101.045 70.275 88.5734 82.2655 83.2441Z" fill="#FFD9EF"/>
<path d="M101.585 91.9039L102.874 91.1301L103.648 92.4199L102.359 93.1937L101.585 91.9039ZM82.2655 83.2441L81.6545 81.8696L81.6545 81.8696L82.2655 83.2441ZM90.2604 98.5653L89.9221 97.0997L90.2604 98.5653ZM100.295 92.6778C99.0246 90.5608 96.7356 87.5414 93.7034 85.5711C90.7339 83.6415 87.1091 82.7373 82.8764 84.6186L81.6545 81.8696C87.0142 79.4874 91.7166 80.6926 95.3423 83.0486C98.9053 85.3638 101.48 88.806 102.874 91.1301L100.295 92.6778ZM82.8764 84.6186C80.135 85.837 78.843 87.3536 78.3664 88.7279C77.8915 90.0972 78.1271 91.6076 79.0156 93.0403C80.8268 95.9609 85.1699 98.1964 89.9221 97.0997L90.5987 100.031C84.6065 101.414 78.9569 98.6533 76.4591 94.6257C75.1931 92.5843 74.6951 90.1326 75.5241 87.7421C76.3514 85.3567 78.4006 83.3158 81.6545 81.8696L82.8764 84.6186ZM89.9221 97.0997C94.0437 96.1485 96.38 94.747 97.7946 93.5762C98.5092 92.9848 99.0171 92.4291 99.4326 91.9542C99.6282 91.7307 99.8477 91.473 100.036 91.2714C100.219 91.0764 100.483 90.8108 100.811 90.6141L102.359 93.1937C102.409 93.1636 102.381 93.1686 102.233 93.3275C102.09 93.4798 101.938 93.6592 101.697 93.9352C101.238 94.4596 100.608 95.1528 99.7127 95.8938C97.9078 97.3875 95.137 98.9836 90.5987 100.031L89.9221 97.0997Z" fill="#B22C7D"/>
<path d="M105.267 85.9084L105.266 65.2574" stroke="#B22C7D" stroke-width="3.00827" stroke-linecap="square"/>
<path d="M105.27 161.181L105.266 102.559" stroke="#B22C7D" stroke-width="3.00827" stroke-linecap="square"/>
<rect width="37.3049" height="22.6494" transform="matrix(1 0 6.65862e-05 1 78.6255 173.173)" fill="#F1C0DD"/>
<rect width="19.4097" height="13.8641" transform="matrix(1 0 6.65862e-05 1 131.146 183.61)" fill="#F1C0DD"/>
<rect width="42.6342" height="10.6585" transform="matrix(1 0 6.65862e-05 1 75.9604 162.514)" fill="#A7EAED"/>
<path d="M128.62 186.383L122.823 130.927H158.869L152.436 186.383H128.62Z" fill="#A7EAED"/>
<path d="M140.574 139.198L141.903 143.438C142.475 145.264 143.906 146.695 145.733 147.267L149.975 148.595L145.88 149.571C143.737 150.083 142.063 151.756 141.552 153.898L140.575 157.991L139.738 153.963C139.264 151.685 137.483 149.905 135.204 149.432L131.174 148.595L135.232 147.697C137.452 147.206 139.185 145.473 139.676 143.255L140.574 139.198Z" fill="#B22C7D"/>
<rect width="41.3018" height="7.99391" transform="matrix(1 0 6.65862e-05 1 119.922 123.878)" fill="white"/>
<rect width="18.6524" height="7.99391" transform="matrix(1 0 6.65862e-05 1 163.893 154.103)" fill="#A7EAED"/>
<path fill-rule="evenodd" clip-rule="evenodd" d="M92.5624 184.687L92.5624 184.401C94.1178 184.401 97.1777 182.849 97.1774 178.313H97.4642C97.4642 179.129 97.7256 180.663 98.4306 181.988C99.1344 183.312 100.263 184.401 101.995 184.401L101.995 184.687C101.25 184.687 100.118 184.993 99.1733 185.892C98.2323 186.787 97.4649 188.282 97.465 190.683H97.1782C97.1781 189.851 96.9818 188.341 96.3013 187.045C95.6242 185.755 94.4765 184.687 92.5624 184.687ZM97.2999 189.1C97.5587 187.516 98.2037 186.419 98.9756 185.685C99.6039 185.087 100.312 184.734 100.952 184.554C99.6547 184.207 98.7628 183.224 98.1774 182.123C97.7685 181.354 97.5038 180.519 97.3502 179.783C96.8861 182.631 95.0943 184.05 93.6154 184.513C95.0487 184.834 95.9749 185.806 96.5552 186.911C96.9307 187.627 97.1637 188.401 97.2999 189.1Z" stroke="#B22C7D" stroke-width="0.764295" stroke-linecap="round"/>
<circle r="1.31356" transform="matrix(1 0 6.65862e-05 1 173.056 179.842)" fill="#B22C7D"/>
<path d="M173.057 177.052L173.057 170.484" stroke="#B22C7D" stroke-width="1.07328" stroke-linecap="round"/>
<path d="M173.06 189.202L173.06 182.635" stroke="#B22C7D" stroke-width="1.07328" stroke-linecap="round"/>
<path d="M170.429 179.843L165.832 179.843" stroke="#B22C7D" stroke-width="1.07328" stroke-linecap="round"/>
<path d="M180.609 179.843H176.012" stroke="#B22C7D" stroke-width="1.07328" stroke-linecap="round"/>
<path d="M177.489 175.573L175.194 177.869" stroke="#B22C7D" stroke-width="1.07328" stroke-linecap="round"/>
<path d="M168.459 175.572L170.755 177.867" stroke="#B22C7D" stroke-width="1.07328" stroke-linecap="round"/>
<path d="M177.489 183.781L175.194 181.485" stroke="#B22C7D" stroke-width="1.07328" stroke-linecap="round"/>
<path d="M168.46 183.782L170.755 181.487" stroke="#B22C7D" stroke-width="1.07328" stroke-linecap="round"/>
<defs>
<filter id="filter0_d_213_1384" x="0" y="0" width="258" height="258" filterUnits="userSpaceOnUse" color-interpolation-filters="sRGB">
<feFlood flood-opacity="0" result="BackgroundImageFix"/>
<feColorMatrix in="SourceAlpha" type="matrix" values="0 0 0 0 0 0 0 0 0 0 0 0 0 0 0 0 0 0 127 0" result="hardAlpha"/>
<feOffset/>
<feGaussianBlur stdDeviation="2.5"/>
<feColorMatrix type="matrix" values="0 0 0 0 0 0 0 0 0 0.956897 0 0 0 0 1 0 0 0 0.76 0"/>
<feBlend mode="normal" in2="BackgroundImageFix" result="effect1_dropShadow_213_1384"/>
<feBlend mode="normal" in="SourceGraphic" in2="effect1_dropShadow_213_1384" result="shape"/>
</filter>
</defs>
</svg>
