<svg width="192" height="192" viewBox="0 0 192 192" fill="none" xmlns="http://www.w3.org/2000/svg">
<g clip-path="url(#clip0_1124_5000)">
<g filter="url(#filter0_di_1124_5000)">
<path d="M93.1875 43.0542L96 46.3311L98.8125 43.0542C106.854 33.6843 119.2 27.7067 132 27.7067C154.597 27.7067 172.294 45.3316 172.294 68C172.294 81.8614 166.076 94.7657 154.38 109.074C142.644 123.432 125.783 138.748 105.11 157.494L105.105 157.499C99.9441 162.197 92.0559 162.197 86.895 157.499L86.8897 157.494C66.2168 138.748 49.3558 123.432 37.6197 109.074C25.9243 94.7657 19.7064 81.8614 19.7064 68C19.7064 45.3316 37.4025 27.7067 60 27.7067C72.7996 27.7067 85.1456 33.6843 93.1875 43.0542Z" stroke="white" stroke-width="7.41272" shape-rendering="crispEdges"/>
</g>
<g filter="url(#filter1_di_1124_5000)">
<mask id="path-2-inside-1_1124_5000" fill="white">
<path d="M120.538 80.9629H110.757C110.865 80.8688 110.977 80.7776 111.083 80.6779C111.93 79.9089 112.612 78.9697 113.088 77.9189C113.563 76.868 113.821 75.7282 113.846 74.5708C113.883 73.3045 113.666 72.044 113.209 70.8666C112.751 69.6891 112.063 68.6196 111.187 67.7237C110.311 66.8278 109.264 66.1245 108.112 65.6568C106.96 65.1891 105.727 64.9669 104.488 65.004C103.355 65.0289 102.239 65.2926 101.211 65.7786C100.182 66.2645 99.2623 66.9623 98.5096 67.8281C97.4681 69.0618 96.6213 70.4541 96 71.9546C95.3787 70.4541 94.5319 69.0618 93.4904 67.8281C92.7377 66.9623 91.8182 66.2645 90.7895 65.7786C89.7608 65.2926 88.645 65.0289 87.5119 65.004C86.2729 64.9669 85.0396 65.1891 83.8876 65.6568C82.7357 66.1245 81.6894 66.8278 80.8131 67.7237C79.9367 68.6196 79.2488 69.6891 78.7915 70.8666C78.3342 72.044 78.1172 73.3045 78.1538 74.5708C78.1786 75.7282 78.4368 76.868 78.9123 77.9189C79.3878 78.9697 80.0703 79.9089 80.9172 80.6779C81.0232 80.7719 81.1347 80.8631 81.2435 80.9629H71.4615C70.2783 80.9629 69.1435 81.4433 68.3068 82.2984C67.4701 83.1535 67 84.3132 67 85.5225V94.6419C67 95.8512 67.4701 97.011 68.3068 97.8661C69.1435 98.7212 70.2783 99.2016 71.4615 99.2016V117.44C71.4615 118.65 71.9316 119.809 72.7683 120.665C73.605 121.52 74.7398 122 75.9231 122H116.077C117.26 122 118.395 121.52 119.232 120.665C120.068 119.809 120.538 118.65 120.538 117.44V99.2016C121.722 99.2016 122.857 98.7212 123.693 97.8661C124.53 97.011 125 95.8512 125 94.6419V85.5225C125 84.3132 124.53 83.1535 123.693 82.2984C122.857 81.4433 121.722 80.9629 120.538 80.9629ZM101.856 70.8489C102.209 70.4503 102.639 70.1306 103.119 69.9099C103.599 69.6892 104.118 69.5723 104.644 69.5665H104.781C105.398 69.5705 106.007 69.7002 106.574 69.948C107.141 70.1959 107.654 70.5569 108.083 71.01C108.512 71.463 108.848 71.999 109.071 72.5865C109.295 73.1739 109.401 73.8011 109.385 74.4311C109.379 74.9689 109.265 75.4996 109.049 75.99C108.833 76.4804 108.52 76.9199 108.13 77.2809C105.484 79.6748 101.092 80.5183 98.3702 80.8147C98.7048 77.7967 99.625 73.4109 101.856 70.8489ZM83.9845 70.9515C84.8488 70.0683 86.0193 69.5696 87.2414 69.5637H87.3781C87.9043 69.5695 88.4236 69.6864 88.9034 69.9071C89.3833 70.1277 89.8133 70.4474 90.1665 70.8461C92.5061 73.5477 93.3314 78.0276 93.6214 80.7976C90.9111 80.5126 86.5276 79.6577 83.8841 77.2667C83.4941 76.9057 83.1813 76.4662 82.9653 75.9758C82.7494 75.4854 82.635 74.9546 82.6293 74.4169C82.612 73.7763 82.7222 73.1389 82.9533 72.5432C83.1843 71.9475 83.5314 71.406 83.9734 70.9515H83.9845ZM71.4615 85.5225H93.7692V94.6419H71.4615V85.5225ZM75.9231 99.2016H93.7692V117.44H75.9231V99.2016ZM116.077 117.44H98.2308V99.2016H116.077V117.44ZM120.538 94.6419H98.2308V85.5225H120.538V94.6419Z"/>
</mask>
<path d="M110.757 80.9629L105.908 75.3559L90.8521 88.3756H110.757V80.9629ZM111.083 80.6779L106.1 75.1899L106.05 75.2346L106.002 75.2803L111.083 80.6779ZM113.846 74.5708L106.437 74.3564L106.436 74.3842L106.435 74.4121L113.846 74.5708ZM104.488 65.004L104.651 72.4149L104.68 72.4143L104.71 72.4134L104.488 65.004ZM98.5096 67.8281L92.9153 62.9648L92.8801 63.0053L92.8456 63.0462L98.5096 67.8281ZM96 71.9546L89.1512 74.7905L96 91.331L102.849 74.7905L96 71.9546ZM93.4904 67.8281L99.1544 63.0462L99.1199 63.0053L99.0847 62.9648L93.4904 67.8281ZM87.5119 65.004L87.2903 72.4134L87.3195 72.4143L87.3488 72.4149L87.5119 65.004ZM78.1538 74.5708L85.5649 74.4121L85.5643 74.3842L85.5635 74.3564L78.1538 74.5708ZM80.9172 80.6779L75.9343 86.1659L75.9653 86.1941L75.9967 86.222L80.9172 80.6779ZM81.2435 80.9629V88.3756H100.292L86.2539 75.4999L81.2435 80.9629ZM67 85.5225H59.5873H67ZM67 94.6419H59.5873H67ZM71.4615 99.2016H78.8743V91.7889H71.4615V99.2016ZM71.4615 117.44H64.0488H71.4615ZM120.538 99.2016V91.7889H113.126V99.2016H120.538ZM101.856 70.8489L96.3076 65.933L96.2864 65.957L96.2653 65.9812L101.856 70.8489ZM104.644 69.5665V62.1538H104.603L104.563 62.1542L104.644 69.5665ZM104.781 69.5665L104.828 62.1539L104.805 62.1538H104.781V69.5665ZM109.385 74.4311L101.975 74.2346L101.973 74.2937L101.972 74.3529L109.385 74.4311ZM108.13 77.2809L113.103 82.7781L113.134 82.7499L113.165 82.7213L108.13 77.2809ZM98.3702 80.8147L91.0026 79.9978L89.984 89.1845L99.1727 88.1838L98.3702 80.8147ZM83.9845 70.9515V78.3642H87.1021L89.2825 76.136L83.9845 70.9515ZM87.2414 69.5637V62.1509H87.2235L87.2057 62.151L87.2414 69.5637ZM87.3781 69.5637L87.4598 62.1514L87.4189 62.1509H87.3781V69.5637ZM90.1665 70.8461L95.7702 65.9935L95.7426 65.9616L95.7147 65.9301L90.1665 70.8461ZM93.6214 80.7976L92.8463 88.1697L101.947 89.1265L100.994 80.0257L93.6214 80.7976ZM83.8841 77.2667L78.8492 82.7071L78.8803 82.7358L78.9117 82.7642L83.8841 77.2667ZM82.6293 74.4169L90.0416 74.3386L90.041 74.2777L90.0393 74.2168L82.6293 74.4169ZM83.9734 70.9515V63.5388H80.8423L78.6593 65.7834L83.9734 70.9515ZM71.4615 85.5225V78.1098H64.0488V85.5225H71.4615ZM93.7692 85.5225H101.182V78.1098H93.7692V85.5225ZM93.7692 94.6419V102.055H101.182V94.6419H93.7692ZM71.4615 94.6419H64.0488V102.055H71.4615V94.6419ZM75.9231 99.2016V91.7889H68.5104V99.2016H75.9231ZM93.7692 99.2016H101.182V91.7889H93.7692V99.2016ZM93.7692 117.44V124.853H101.182V117.44H93.7692ZM75.9231 117.44H68.5104V124.853H75.9231V117.44ZM116.077 117.44V124.853H123.49V117.44H116.077ZM98.2308 117.44H90.8181V124.853H98.2308V117.44ZM98.2308 99.2016V91.7889H90.8181V99.2016H98.2308ZM116.077 99.2016H123.49V91.7889H116.077V99.2016ZM120.538 94.6419V102.055H127.951V94.6419H120.538ZM98.2308 94.6419H90.8181V102.055H98.2308V94.6419ZM98.2308 85.5225V78.1098H90.8181V85.5225H98.2308ZM120.538 85.5225H127.951V78.1098H120.538V85.5225ZM120.538 73.5501H110.757V88.3756H120.538V73.5501ZM115.605 86.5698C115.697 86.4908 115.568 86.6026 115.752 86.4448C115.841 86.3683 115.992 86.2373 116.164 86.0755L106.002 75.2803C106.037 75.2472 106.064 75.2232 106.078 75.2104C106.092 75.198 106.098 75.193 106.09 75.2002C106.086 75.2037 106.08 75.2088 106.07 75.2171C106.059 75.2264 106.05 75.2344 106.033 75.2485C106.005 75.2724 105.959 75.312 105.908 75.3559L115.605 86.5698ZM116.066 86.1659C117.669 84.71 118.952 82.9409 119.841 80.9747L106.334 74.863C106.273 74.9985 106.19 75.1079 106.1 75.1899L116.066 86.1659ZM119.841 80.9747C120.731 79.0089 121.211 76.8832 121.257 74.7295L106.435 74.4121C106.432 74.5732 106.396 74.7272 106.334 74.863L119.841 80.9747ZM121.256 74.7851C121.321 72.5321 120.935 70.286 120.118 68.1829L106.299 73.5502C106.396 73.8019 106.445 74.0769 106.437 74.3564L121.256 74.7851ZM120.118 68.1829C119.301 66.0795 118.068 64.1579 116.486 62.5403L105.888 72.9072C106.058 73.0814 106.201 73.2987 106.299 73.5502L120.118 68.1829ZM116.486 62.5403C114.903 60.9223 113.004 59.6425 110.901 58.7885L105.324 72.525C105.524 72.6064 105.718 72.7334 105.888 72.9072L116.486 62.5403ZM110.901 58.7885C108.797 57.9344 106.539 57.5266 104.266 57.5946L104.71 72.4134C104.915 72.4072 105.124 72.4438 105.324 72.525L110.901 58.7885ZM104.325 57.5931C102.148 57.641 100.01 58.1477 98.0443 59.0761L104.377 72.4811C104.469 72.4375 104.562 72.4169 104.651 72.4149L104.325 57.5931ZM98.0443 59.0761C96.0796 60.0042 94.3355 61.3311 92.9153 62.9648L104.104 72.6914C104.189 72.5934 104.284 72.5249 104.377 72.4811L98.0443 59.0761ZM92.8456 63.0462C91.3082 64.8671 90.063 66.9166 89.1512 69.1188L102.849 74.7905C103.18 73.9915 103.628 73.2565 104.174 72.6101L92.8456 63.0462ZM102.849 69.1188C101.937 66.9166 100.692 64.8671 99.1544 63.0462L87.8264 72.6101C88.3721 73.2565 88.8204 73.9915 89.1512 74.7905L102.849 69.1188ZM99.0847 62.9648C97.6645 61.3311 95.9204 60.0042 93.9557 59.0761L87.6233 72.4811C87.716 72.5249 87.8108 72.5934 87.896 72.6914L99.0847 62.9648ZM93.9557 59.0761C91.9905 58.1477 89.8519 57.641 87.6751 57.5931L87.3488 72.4149C87.438 72.4169 87.531 72.4375 87.6233 72.4811L93.9557 59.0761ZM87.7335 57.5946C85.4613 57.5266 83.203 57.9344 81.0991 58.7885L86.6761 72.525C86.8762 72.4438 87.0846 72.4072 87.2903 72.4134L87.7335 57.5946ZM81.0991 58.7885C78.9957 59.6425 77.0967 60.9223 75.514 62.5403L86.1121 72.9072C86.2821 72.7334 86.4757 72.6064 86.6761 72.525L81.0991 58.7885ZM75.514 62.5403C73.9317 64.1579 72.6985 66.0795 71.8816 68.1829L85.7014 73.5502C85.799 73.2987 85.9417 73.0814 86.1121 72.9072L75.514 62.5403ZM71.8816 68.1829C71.0648 70.286 70.6791 72.5321 70.7442 74.7851L85.5635 74.3564C85.5554 74.0769 85.6036 73.8019 85.7014 73.5502L71.8816 68.1829ZM70.7428 74.7295C70.7889 76.8832 71.2693 79.0089 72.1588 80.9747L85.6658 74.863C85.6044 74.7272 85.5683 74.5732 85.5649 74.4121L70.7428 74.7295ZM72.1588 80.9747C73.0484 82.9409 74.3308 84.71 75.9343 86.1659L85.9002 75.1899C85.8099 75.1079 85.7272 74.9985 85.6658 74.863L72.1588 80.9747ZM75.9967 86.222C76.0599 86.2781 76.116 86.3267 76.1566 86.3617C76.1771 86.3794 76.1962 86.3958 76.211 86.4085C76.2279 86.423 76.237 86.4308 76.2483 86.4405C76.2941 86.4799 76.2725 86.462 76.233 86.4258L86.2539 75.4999C86.1057 75.364 85.9739 75.2506 85.9103 75.196C85.8648 75.1569 85.8608 75.1535 85.8386 75.1344C85.8251 75.1228 85.8275 75.1247 85.8377 75.1338L75.9967 86.222ZM81.2435 73.5501H71.4615V88.3756H81.2435V73.5501ZM71.4615 73.5501C68.2596 73.5501 65.2223 74.8516 63.0085 77.1141L73.605 87.4826C73.0646 88.0349 72.2969 88.3756 71.4615 88.3756V73.5501ZM63.0085 77.1141C60.8 79.3712 59.5873 82.3987 59.5873 85.5225H74.4127C74.4127 86.2278 74.1401 86.9358 73.605 87.4826L63.0085 77.1141ZM59.5873 85.5225V94.6419H74.4127V85.5225H59.5873ZM59.5873 94.6419C59.5873 97.7658 60.8 100.793 63.0085 103.05L73.605 92.6818C74.1401 93.2287 74.4127 93.9367 74.4127 94.6419H59.5873ZM63.0085 103.05C65.2223 105.313 68.2596 106.614 71.4615 106.614V91.7889C72.2969 91.7889 73.0646 92.1295 73.605 92.6818L63.0085 103.05ZM64.0488 99.2016V117.44H78.8743V99.2016H64.0488ZM64.0488 117.44C64.0488 120.564 65.2615 123.592 67.47 125.849L78.0666 115.48C78.6016 116.027 78.8743 116.735 78.8743 117.44H64.0488ZM67.47 125.849C69.6838 128.111 72.7211 129.413 75.9231 129.413V114.587C76.7585 114.587 77.5262 114.928 78.0666 115.48L67.47 125.849ZM75.9231 129.413H116.077V114.587H75.9231V129.413ZM116.077 129.413C119.279 129.413 122.316 128.111 124.53 125.849L113.933 115.48C114.474 114.928 115.242 114.587 116.077 114.587V129.413ZM124.53 125.849C126.738 123.592 127.951 120.564 127.951 117.44H113.126C113.126 116.735 113.398 116.027 113.933 115.48L124.53 125.849ZM127.951 117.44V99.2016H113.126V117.44H127.951ZM120.538 106.614C123.74 106.614 126.778 105.313 128.992 103.05L118.395 92.6818C118.935 92.1295 119.703 91.7889 120.538 91.7889V106.614ZM128.992 103.05C131.2 100.793 132.413 97.7658 132.413 94.6419H117.587C117.587 93.9366 117.86 93.2287 118.395 92.6818L128.992 103.05ZM132.413 94.6419V85.5225H117.587V94.6419H132.413ZM132.413 85.5225C132.413 82.3987 131.2 79.3711 128.992 77.1141L118.395 87.4826C117.86 86.9358 117.587 86.2278 117.587 85.5225H132.413ZM128.992 77.1141C126.778 74.8516 123.74 73.5501 120.538 73.5501V88.3756C119.703 88.3756 118.935 88.0349 118.395 87.4826L128.992 77.1141ZM107.404 75.7649C107.081 76.1293 106.679 76.4319 106.216 76.6446L100.022 63.1753C98.5995 63.8293 97.3369 64.7713 96.3076 65.933L107.404 75.7649ZM106.216 76.6446C105.753 76.8574 105.245 76.9731 104.726 76.9788L104.563 62.1542C102.991 62.1716 101.444 62.521 100.022 63.1753L106.216 76.6446ZM104.644 76.9792H104.781V62.1538H104.644V76.9792ZM104.734 76.9791C104.341 76.9766 103.957 76.8938 103.605 76.7402L109.543 63.1558C108.058 62.5065 106.454 62.1643 104.828 62.1539L104.734 76.9791ZM103.605 76.7402C103.254 76.5868 102.948 76.3681 102.699 76.1052L113.467 65.9147C112.361 64.7458 111.028 63.805 109.543 63.1558L103.605 76.7402ZM102.699 76.1052C102.451 75.8428 102.264 75.5412 102.143 75.2222L116 69.9507C115.431 68.4568 114.573 67.0833 113.467 65.9147L102.699 76.1052ZM102.143 75.2222C102.022 74.9034 101.966 74.5682 101.975 74.2346L116.795 74.6277C116.837 73.0339 116.568 71.4444 116 69.9507L102.143 75.2222ZM101.972 74.3529C101.977 73.8922 102.075 73.4331 102.264 73.0029L115.833 78.9772C116.454 77.5662 116.781 76.0455 116.797 74.5093L101.972 74.3529ZM102.264 73.0029C102.454 72.5723 102.734 72.1748 103.095 71.8405L113.165 82.7213C114.306 81.6651 115.211 80.3886 115.833 78.9772L102.264 73.0029ZM103.157 71.7837C102.951 71.9703 102.329 72.3687 101.088 72.7527C99.9198 73.1139 98.6427 73.3285 97.5677 73.4455L99.1727 88.1838C100.819 88.0045 103.099 87.6491 105.469 86.916C107.765 86.2056 110.663 84.9854 113.103 82.7781L103.157 71.7837ZM105.738 81.6316C105.871 80.4305 106.112 79.0611 106.488 77.8362C106.891 76.5246 107.292 75.8935 107.446 75.7167L96.2653 65.9812C94.1885 68.3663 93.0144 71.2091 92.3156 73.4854C91.5902 75.8484 91.2041 78.1809 91.0026 79.9978L105.738 81.6316ZM89.2825 76.136C88.7783 76.6514 88.0609 76.9725 87.2772 76.9763L87.2057 62.151C83.9776 62.1666 80.9193 63.4853 78.6865 65.767L89.2825 76.136ZM87.2414 76.9764H87.3781V62.1509H87.2414V76.9764ZM87.2964 76.9759C86.7769 76.9702 86.2691 76.8546 85.8062 76.6417L92.0007 63.1724C90.5781 62.5182 89.0316 62.1687 87.4598 62.1514L87.2964 76.9759ZM85.8062 76.6417C85.3438 76.429 84.9413 76.1264 84.6184 75.762L95.7147 65.9301C94.6854 64.7685 93.4228 63.8265 92.0007 63.1724L85.8062 76.6417ZM84.5629 75.6987C84.762 75.9286 85.1691 76.6 85.5558 77.904C85.9188 79.1277 86.1327 80.458 86.249 81.5694L100.994 80.0257C100.82 78.3672 100.476 76.0725 99.7693 73.6884C99.086 71.3845 97.9106 68.4652 95.7702 65.9935L84.5629 75.6987ZM94.3966 73.4255C93.3527 73.3157 92.0877 73.1034 90.9264 72.7428C89.6927 72.3596 89.0673 71.9597 88.8566 71.7691L78.9117 82.7642C81.3445 84.9647 84.2325 86.1877 86.529 86.901C88.8978 87.6368 91.1798 87.9944 92.8463 88.1697L94.3966 73.4255ZM88.9191 71.8263C89.2802 72.1605 89.5599 72.5581 89.7495 72.9886L76.1811 78.963C76.8026 80.3743 77.708 81.6509 78.8492 82.7071L88.9191 71.8263ZM89.7495 72.9886C89.9389 73.4188 90.0368 73.878 90.0416 74.3386L75.217 74.4951C75.2332 76.0313 75.5598 77.5519 76.1811 78.963L89.7495 72.9886ZM90.0393 74.2168C90.0485 74.5571 89.9903 74.8991 89.8644 75.2237L76.0422 69.8627C75.4542 71.3787 75.1755 72.9955 75.2193 74.6169L90.0393 74.2168ZM89.8644 75.2237C89.7384 75.5485 89.545 75.8548 89.2874 76.1196L78.6593 65.7834C77.5178 66.9572 76.6303 68.3465 76.0422 69.8627L89.8644 75.2237ZM83.9734 78.3642H83.9845V63.5388H83.9734V78.3642ZM71.4615 92.9353H93.7692V78.1098H71.4615V92.9353ZM86.3565 85.5225V94.6419H101.182V85.5225H86.3565ZM93.7692 87.2292H71.4615V102.055H93.7692V87.2292ZM78.8743 94.6419V85.5225H64.0488V94.6419H78.8743ZM75.9231 106.614H93.7692V91.7889H75.9231V106.614ZM86.3565 99.2016V117.44H101.182V99.2016H86.3565ZM93.7692 110.028H75.9231V124.853H93.7692V110.028ZM83.3358 117.44V99.2016H68.5104V117.44H83.3358ZM116.077 110.028H98.2308V124.853H116.077V110.028ZM105.643 117.44V99.2016H90.8181V117.44H105.643ZM98.2308 106.614H116.077V91.7889H98.2308V106.614ZM108.664 99.2016V117.44H123.49V99.2016H108.664ZM120.538 87.2292H98.2308V102.055H120.538V87.2292ZM105.643 94.6419V85.5225H90.8181V94.6419H105.643ZM98.2308 92.9353H120.538V78.1098H98.2308V92.9353ZM113.126 85.5225V94.6419H127.951V85.5225H113.126Z" fill="white" mask="url(#path-2-inside-1_1124_5000)"/>
</g>
</g>
<defs>
<filter id="filter0_di_1124_5000" x="-1.79052" y="6.20986" width="195.581" height="176.309" filterUnits="userSpaceOnUse" color-interpolation-filters="sRGB">
<feFlood flood-opacity="0" result="BackgroundImageFix"/>
<feColorMatrix in="SourceAlpha" type="matrix" values="0 0 0 0 0 0 0 0 0 0 0 0 0 0 0 0 0 0 127 0" result="hardAlpha"/>
<feOffset/>
<feGaussianBlur stdDeviation="8.89526"/>
<feComposite in2="hardAlpha" operator="out"/>
<feColorMatrix type="matrix" values="0 0 0 0 1 0 0 0 0 0.934667 0 0 0 0 0.591667 0 0 0 1 0"/>
<feBlend mode="normal" in2="BackgroundImageFix" result="effect1_dropShadow_1124_5000"/>
<feBlend mode="normal" in="SourceGraphic" in2="effect1_dropShadow_1124_5000" result="shape"/>
<feColorMatrix in="SourceAlpha" type="matrix" values="0 0 0 0 0 0 0 0 0 0 0 0 0 0 0 0 0 0 127 0" result="hardAlpha"/>
<feOffset/>
<feGaussianBlur stdDeviation="10.3778"/>
<feComposite in2="hardAlpha" operator="arithmetic" k2="-1" k3="1"/>
<feColorMatrix type="matrix" values="0 0 0 0 1 0 0 0 0 1 0 0 0 0 1 0 0 0 1 0"/>
<feBlend mode="normal" in2="shape" result="effect2_innerShadow_1124_5000"/>
</filter>
<filter id="filter1_di_1124_5000" x="49.2095" y="47.2095" width="93.581" height="92.581" filterUnits="userSpaceOnUse" color-interpolation-filters="sRGB">
<feFlood flood-opacity="0" result="BackgroundImageFix"/>
<feColorMatrix in="SourceAlpha" type="matrix" values="0 0 0 0 0 0 0 0 0 0 0 0 0 0 0 0 0 0 127 0" result="hardAlpha"/>
<feOffset/>
<feGaussianBlur stdDeviation="8.89526"/>
<feComposite in2="hardAlpha" operator="out"/>
<feColorMatrix type="matrix" values="0 0 0 0 1 0 0 0 0 0.934667 0 0 0 0 0.591667 0 0 0 1 0"/>
<feBlend mode="normal" in2="BackgroundImageFix" result="effect1_dropShadow_1124_5000"/>
<feBlend mode="normal" in="SourceGraphic" in2="effect1_dropShadow_1124_5000" result="shape"/>
<feColorMatrix in="SourceAlpha" type="matrix" values="0 0 0 0 0 0 0 0 0 0 0 0 0 0 0 0 0 0 127 0" result="hardAlpha"/>
<feOffset/>
<feGaussianBlur stdDeviation="10.3778"/>
<feComposite in2="hardAlpha" operator="arithmetic" k2="-1" k3="1"/>
<feColorMatrix type="matrix" values="0 0 0 0 1 0 0 0 0 1 0 0 0 0 1 0 0 0 1 0"/>
<feBlend mode="normal" in2="shape" result="effect2_innerShadow_1124_5000"/>
</filter>
<clipPath id="clip0_1124_5000">
<rect width="192" height="191.999" fill="white"/>
</clipPath>
</defs>
</svg>
