<svg width="192" height="192" viewBox="0 0 192 192" fill="none" xmlns="http://www.w3.org/2000/svg">
<g clip-path="url(#clip0_1124_5000)">
<g filter="url(#filter0_di_1124_5000)">
<path d="M105.11 157.494L105.105 157.499C99.9441 162.197 92.0559 162.197 86.895 157.499L86.8897 157.494C66.2168 138.748 49.3558 123.432 37.6197 109.074C25.9243 94.7657 19.7064 81.8614 19.7064 68C19.7064 45.3316 37.4025 27.7067 60 27.7067C72.7996 27.7067 85.1456 33.6843 93.1875 43.0542L96 46.3311L98.8125 43.0542C106.854 33.6843 119.2 27.7067 132 27.7067C154.597 27.7067 172.294 45.3316 172.294 68C172.294 81.8614 166.076 94.7657 154.38 109.074C142.644 123.432 125.783 138.748 105.11 157.494Z" stroke="white" stroke-width="7.41272" shape-rendering="crispEdges"/>
</g>
<g filter="url(#filter1_di_1124_5000)">
<path d="M82.2459 76.2926L80.0567 77.2565M82.2459 76.2926C82.2599 76.3255 82.2743 76.3583 82.2891 76.3909C82.5428 76.9515 82.8985 77.4507 83.3323 77.8629C83.3346 77.8651 83.3368 77.8672 83.3391 77.8693C83.3566 77.8859 83.3742 77.9023 83.3919 77.9186C83.4063 77.9311 83.4233 77.9457 83.453 77.9713C83.4648 77.9813 83.4785 77.9931 83.4948 78.0071C83.554 78.0579 83.6474 78.1385 83.7487 78.2314L87.6572 81.8162H93.5143H93.7692H94.5244L80.0567 77.2565M82.2459 76.2926L80.0567 77.2565M82.2459 76.2926C82.0048 75.7264 81.8727 75.1145 81.8594 74.4914L81.8591 74.4775L81.8587 74.4636C81.8584 74.455 81.8582 74.4463 81.858 74.4377L82.6293 74.4169M80.0567 77.2565H80.0567M80.0567 77.2565H80.0567M80.0567 77.2565L94.8799 78.9377L92.5756 73.3726C92.1191 72.2701 91.505 71.2469 90.7557 70.3359C90.7538 70.3336 90.7519 70.3313 90.7501 70.329C90.7258 70.2997 90.7015 70.2704 90.677 70.2412C90.2724 69.7808 89.7869 69.4117 89.251 69.1512C89.2362 69.144 89.2213 69.1369 89.2064 69.1298C88.6459 68.8651 88.0415 68.7229 87.4304 68.7094L87.4157 68.7091L87.4011 68.7087C87.3966 68.7085 87.392 68.7084 87.3875 68.7083C87.3844 68.7082 87.3812 68.7081 87.3781 68.708C87.3325 68.7069 87.287 68.7063 87.2414 68.7064C87.2401 68.7064 87.2387 68.7064 87.2373 68.7064C86.57 68.7075 85.9068 68.8372 85.2819 69.0909C84.8187 69.2789 84.3819 69.533 83.9845 69.8463V70.9515M82.6293 74.4169C82.635 74.9546 82.7494 75.4854 82.9653 75.9758C83.1813 76.4662 83.4941 76.9057 83.8841 77.2667C85.4753 78.7059 87.697 79.5886 89.8047 80.1254C89.8575 80.4962 89.9004 80.8513 89.9352 81.1835L93.6214 80.7976L94.009 77.1115C93.6865 77.0776 93.3408 77.0349 92.9794 76.9816C92.4569 74.8025 91.5933 72.4936 90.1665 70.8461C89.8133 70.4474 89.3833 70.1277 88.9034 69.9071C88.4236 69.6864 87.9043 69.5695 87.3781 69.5637H87.2414C86.0193 69.5696 84.8488 70.0683 83.9845 70.9515M82.6293 74.4169C82.612 73.7763 82.7222 73.1389 82.9533 72.5432C83.1843 71.9475 83.5314 71.406 83.9734 70.9515H83.9845M82.6293 74.4169L81.8577 74.425C81.8412 73.6842 81.967 72.9488 82.2262 72.2612C82.2329 72.2436 82.2396 72.2259 82.2464 72.2084L79.5189 71.149M83.9845 70.9515L83.9734 70.9406L83.4005 70.38C83.3981 70.3825 83.3958 70.385 83.3934 70.3875C82.9026 70.9079 82.5116 71.5257 82.2464 72.2084L79.5189 71.149M92.8994 68.3419C92.9132 68.3573 92.9269 68.3726 92.9406 68.3881L92.9546 68.4039L92.9684 68.4198C93.1004 68.5722 93.2281 68.7275 93.3517 68.8852C93.482 68.6386 93.6176 68.3949 93.7582 68.1543L92.8994 68.3419ZM92.8994 68.3419L93.4904 67.8281M92.8994 68.3419L93.4904 67.8281M93.4904 67.8281L92.8918 68.3335C92.2097 67.5785 91.3808 66.9669 90.4521 66.5397C90.446 66.537 90.4399 66.5342 90.4338 66.5314C89.5101 66.1096 88.5099 65.8801 87.4931 65.8587C87.4909 65.8587 87.4886 65.8586 87.4864 65.8586C87.4639 65.8581 87.4414 65.8578 87.4189 65.8575L87.3985 65.8573H87.3781H87.2414H87.2325L87.2235 65.8573C86.1779 65.8624 85.1568 66.0657 84.2073 66.4441C83.6729 66.657 83.1612 66.9255 82.6806 67.2452H82.4078L81.3918 68.2899L81.3163 68.3675C80.5381 69.1677 79.9284 70.1141 79.5189 71.149M93.4904 67.8281C92.7377 66.9623 91.8182 66.2645 90.7895 65.7786C89.7607 65.2926 88.645 65.0289 87.5119 65.004C86.2729 64.9669 85.0396 65.1891 83.8876 65.6568C82.7357 66.1245 81.6894 66.8278 80.8131 67.7237C79.9367 68.6196 79.2488 69.6891 78.7915 70.8666C78.3342 72.044 78.1172 73.3045 78.1538 74.5708C78.1735 75.489 78.3401 76.3961 78.6455 77.2565H79.4833C79.1353 76.3967 78.9465 75.4808 78.9248 74.5543C78.9248 74.5523 78.9248 74.5504 78.9247 74.5485C78.9242 74.528 78.9239 74.5076 78.9236 74.4871C78.8972 73.3662 79.0918 72.2495 79.4977 71.203C79.5047 71.185 79.5118 71.167 79.5189 71.149M113.846 74.5708C113.883 73.3045 113.666 72.044 113.209 70.8666C112.751 69.6891 112.063 68.6196 111.187 67.7237C110.311 66.8278 109.264 66.1245 108.112 65.6568C106.96 65.1891 105.727 64.9669 104.488 65.004L113.846 74.5708ZM76.3553 80.9629H71.4615C70.5234 80.9629 69.6156 81.2649 68.8628 81.8162H71.4615H76.951C76.7404 81.5405 76.5416 81.2558 76.3553 80.9629ZM81.2435 81.8162H80.4608L81.2435 80.9629V80.3186L81.4644 80.0752C81.5736 80.1725 81.6842 80.2675 81.7962 80.3602C82.4743 80.9224 83.2007 81.4035 83.9438 81.8162H81.2435ZM81.4576 80.0691L81.2435 80.3103V79.8702C81.2841 79.9096 81.3251 79.9484 81.3667 79.9869L81.3822 80.0012L81.3979 80.0154C81.4177 80.0334 81.4376 80.0513 81.4576 80.0691ZM90.7678 84.6692L90.015 83.9787L94.1771 84.9996L94.5244 84.9618V85.5225V94.6419V95.4952H93.7692H75.9231H75.1679H72.2167H71.4615C71.2876 95.4952 71.104 95.4254 70.9559 95.274C70.8051 95.1198 70.7064 94.8939 70.7064 94.6419V85.5225C70.7064 85.2705 70.8051 85.0446 70.9559 84.8905C71.104 84.7391 71.2876 84.6692 71.4615 84.6692H81.2435H90.7678ZM93.7692 98.3483H94.5244V99.2016V117.44V118.294H93.7692H75.9231C75.7491 118.294 75.5656 118.224 75.4174 118.072C75.2666 117.918 75.1679 117.692 75.1679 117.44V99.2016V98.3483H75.9231H93.7692ZM97.4756 118.294V117.44V99.2016V98.3483H98.2308H116.077H116.832V99.2016V117.44C116.832 117.692 116.733 117.918 116.583 118.072C116.434 118.224 116.251 118.294 116.077 118.294H98.2308H97.4756ZM94.5244 121.147H97.4756H98.2308H116.077H118.676C117.923 121.698 117.015 122 116.077 122H75.9231C74.9849 122 74.0772 121.698 73.3243 121.147H75.9231H93.7692H94.5244ZM119.783 119.979C120.272 119.233 120.538 118.351 120.538 117.44V102.908V99.2016C121.477 99.2016 122.384 98.8996 123.137 98.3483L119.783 119.979ZM72.2167 117.44V119.979C71.728 119.233 71.4615 118.351 71.4615 117.44V102.908V99.2016C70.5234 99.2016 69.6156 98.8996 68.8628 98.3483H71.4615H72.2167V99.2016V117.44ZM67.7552 94.6419V97.1802C67.2664 96.4347 67 95.5524 67 94.6419V85.5225C67 84.6121 67.2664 83.7297 67.7552 82.9843V85.5225V94.6419ZM116.832 95.4952H116.077H98.2308H97.4756V94.6419V85.5225V84.9296L97.784 84.962L116.832 95.4952Z" stroke="white" stroke-width="7.41272" shape-rendering="crispEdges"/>
</g>
</g>
<defs>
<filter id="filter0_di_1124_5000" x="-1.79052" y="6.20986" width="195.581" height="176.309" filterUnits="userSpaceOnUse" color-interpolation-filters="sRGB">
<feFlood flood-opacity="0" result="BackgroundImageFix"/>
<feColorMatrix in="SourceAlpha" type="matrix" values="0 0 0 0 0 0 0 0 0 0 0 0 0 0 0 0 0 0 127 0" result="hardAlpha"/>
<feOffset/>
<feGaussianBlur stdDeviation="8.89526"/>
<feComposite in2="hardAlpha" operator="out"/>
<feColorMatrix type="matrix" values="0 0 0 0 1 0 0 0 0 0.934667 0 0 0 0 0.591667 0 0 0 1 0"/>
<feBlend mode="normal" in2="BackgroundImageFix" result="effect1_dropShadow_1124_5000"/>
<feBlend mode="normal" in="SourceGraphic" in2="effect1_dropShadow_1124_5000" result="shape"/>
<feColorMatrix in="SourceAlpha" type="matrix" values="0 0 0 0 0 0 0 0 0 0 0 0 0 0 0 0 0 0 127 0" result="hardAlpha"/>
<feOffset/>
<feGaussianBlur stdDeviation="10.3778"/>
<feComposite in2="hardAlpha" operator="arithmetic" k2="-1" k3="1"/>
<feColorMatrix type="matrix" values="0 0 0 0 1 0 0 0 0 1 0 0 0 0 1 0 0 0 1 0"/>
<feBlend mode="normal" in2="shape" result="effect2_innerShadow_1124_5000"/>
</filter>
<filter id="filter1_di_1124_5000" x="49.2095" y="47.2095" width="93.581" height="92.581" filterUnits="userSpaceOnUse" color-interpolation-filters="sRGB">
<feFlood flood-opacity="0" result="BackgroundImageFix"/>
<feColorMatrix in="SourceAlpha" type="matrix" values="0 0 0 0 0 0 0 0 0 0 0 0 0 0 0 0 0 0 127 0" result="hardAlpha"/>
<feOffset/>
<feGaussianBlur stdDeviation="8.89526"/>
<feComposite in2="hardAlpha" operator="out"/>
<feColorMatrix type="matrix" values="0 0 0 0 1 0 0 0 0 0.934667 0 0 0 0 0.591667 0 0 0 1 0"/>
<feBlend mode="normal" in2="BackgroundImageFix" result="effect1_dropShadow_1124_5000"/>
<feBlend mode="normal" in="SourceGraphic" in2="effect1_dropShadow_1124_5000" result="shape"/>
<feColorMatrix in="SourceAlpha" type="matrix" values="0 0 0 0 0 0 0 0 0 0 0 0 0 0 0 0 0 0 127 0" result="hardAlpha"/>
<feOffset/>
<feGaussianBlur stdDeviation="10.3778"/>
<feComposite in2="hardAlpha" operator="arithmetic" k2="-1" k3="1"/>
<feColorMatrix type="matrix" values="0 0 0 0 1 0 0 0 0 1 0 0 0 0 1 0 0 0 1 0"/>
<feBlend mode="normal" in2="shape" result="effect2_innerShadow_1124_5000"/>
</filter>
<clipPath id="clip0_1124_5000">
<rect width="192" height="191.999" fill="white"/>
</clipPath>
</defs>
</svg>
