<svg width="57" height="57" viewBox="0 0 57 57" fill="none" xmlns="http://www.w3.org/2000/svg">
<path d="M11.0444 10.2188L11.0444 44.6663H13.8009H24.5341H28.5034L34.3316 44.6663H37.3872H43.2166H46.0505L46.0505 10.2187L11.0444 10.2188Z" fill="#FFD9EF" stroke="#FFD9EF" stroke-width="0.840861" stroke-linecap="square"/>
<path d="M39.4374 34.6549C39.4374 34.9528 38.8167 35.0273 38.5063 35.0273H42.4166C41.5228 35.0273 41.2994 34.779 41.2994 34.6549L41.2994 31.8618H39.4374L39.4374 34.6549Z" fill="white"/>
<path d="M37.5756 37.9379C37.5756 37.9379 39.0652 37.3793 39.0652 36.4482H41.672C41.672 37.1931 42.7272 37.8049 43.1616 38.0177L43.1616 46.6894H37.3893C37.3273 43.9584 37.5756 37.9379 37.5756 37.9379Z" fill="#F1C0DD"/>
<path d="M15.0052 25.1939L14.9228 25.6062L15.7473 25.7711L15.8297 25.3589L15.0052 25.1939ZM18.0243 21.1799L18.2406 21.5405L18.2406 21.5405L18.0243 21.1799ZM20.556 17.9394L20.8533 17.6421L20.2588 17.0475L19.9615 17.3448L20.556 17.9394ZM15.8297 25.3589C15.9107 24.954 16.2137 24.1695 16.6665 23.3818C17.1227 22.5879 17.6838 21.8745 18.2406 21.5405L17.808 20.8194C17.0614 21.2674 16.4122 22.1367 15.9374 22.9628C15.4591 23.795 15.1104 24.6678 15.0052 25.1939L15.8297 25.3589ZM18.2406 21.5405C19.71 20.6589 20.3024 19.7413 20.5234 18.9679C20.6317 18.5886 20.6443 18.2653 20.6443 18.0378C20.6443 17.9105 20.6415 17.8528 20.6439 17.7971C20.6449 17.7733 20.6464 17.7759 20.6427 17.7915C20.6399 17.8032 20.6231 17.8723 20.556 17.9394L19.9615 17.3448C19.8711 17.4351 19.8384 17.5391 19.8247 17.5967C19.81 17.6581 19.8057 17.7174 19.8038 17.7606C19.8004 17.8387 19.8034 17.9555 19.8034 18.0378C19.8034 18.2292 19.7927 18.4645 19.7148 18.7369C19.5634 19.2669 19.1317 20.0252 17.808 20.8194L18.2406 21.5405Z" fill="#B22C7D"/>
<path d="M25.8844 25.1935L25.9669 25.6057L25.1424 25.7706L25.0599 25.3584L25.8844 25.1935ZM22.8653 21.1795L23.062 20.8079L23.062 20.8079L22.8653 21.1795ZM20.1474 17.9389L19.8501 17.6416L20.4447 17.047L20.742 17.3443L20.1474 17.9389ZM25.0599 25.3584C24.9779 24.9486 24.6823 24.1444 24.2362 23.3513C23.7841 22.5475 23.2284 21.8474 22.6686 21.551L23.062 20.8079C23.8457 21.2227 24.5002 22.1054 24.9691 22.9392C25.4441 23.7837 25.7802 24.6722 25.8844 25.1935L25.0599 25.3584ZM22.6686 21.551C21.0182 20.6773 20.3603 19.7609 20.1335 18.9674C20.0224 18.5785 20.0236 18.2469 20.0365 18.014C20.0441 17.8779 20.0507 17.8308 20.052 17.7692C20.0525 17.745 20.0507 17.7501 20.0542 17.7691C20.057 17.7847 20.0726 17.8641 20.1474 17.9389L20.742 17.3443C20.8401 17.4424 20.8702 17.5567 20.8814 17.6181C20.8932 17.6829 20.8936 17.7448 20.8927 17.7875C20.8911 17.8597 20.8802 17.9872 20.8761 18.0606C20.8658 18.2466 20.867 18.4737 20.9421 18.7364C21.0877 19.2463 21.547 20.0058 23.062 20.8079L22.6686 21.551Z" fill="#B22C7D"/>
<path d="M19.3276 15.9661L19.3276 10.1938" stroke="#B22C7D" stroke-width="0.840861" stroke-linecap="square"/>
<path d="M19.3276 37.0069L19.3276 20.6211" stroke="#B22C7D" stroke-width="0.840861" stroke-linecap="square"/>
<path d="M27.3345 16.3389L45.9547 16.3389" stroke="#B22C7D" stroke-width="0.840861" stroke-linecap="square"/>
<path d="M27.334 18.3867L45.9543 18.3867" stroke="#B22C7D" stroke-width="0.840861" stroke-linecap="square"/>
<path d="M11.1689 16.3389H13.3691" stroke="#B22C7D" stroke-width="0.840861" stroke-linecap="square"/>
<path d="M11.1689 18.3867H13.369" stroke="#B22C7D" stroke-width="0.840861" stroke-linecap="square"/>
<path d="M25.8447 15.2211C23.1634 14.0294 21.1896 16.4004 20.4448 17.6417C20.7552 17.8279 21.1896 18.9451 23.6103 19.5037C26.6135 20.1967 29.1964 16.7108 25.8447 15.2211Z" fill="#FFD9EF"/>
<path d="M20.4448 17.6417L20.0843 17.4254L19.868 17.7859L20.2285 18.0022L20.4448 17.6417ZM25.8447 15.2211L26.0155 14.8369L26.0155 14.8369L25.8447 15.2211ZM23.6103 19.5037L23.7048 19.094L23.7048 19.094L23.6103 19.5037ZM20.8053 17.858C21.1604 17.2663 21.8001 16.4223 22.6477 15.8716C23.4776 15.3322 24.4908 15.0795 25.6739 15.6053L26.0155 14.8369C24.5173 14.1711 23.2029 14.508 22.1895 15.1665C21.1936 15.8136 20.4741 16.7758 20.0843 17.4254L20.8053 17.858ZM25.6739 15.6053C26.4402 15.9459 26.8014 16.3698 26.9347 16.754C27.0674 17.1367 27.0016 17.5589 26.7533 17.9594C26.2471 18.7757 25.0331 19.4006 23.7048 19.094L23.5157 19.9133C25.1907 20.2999 26.7698 19.5283 27.4679 18.4025C27.8217 17.8319 27.9609 17.1466 27.7291 16.4784C27.4978 15.8116 26.925 15.2412 26.0155 14.8369L25.6739 15.6053ZM23.7048 19.094C22.5527 18.8282 21.8997 18.4364 21.5042 18.1091C21.3045 17.9438 21.1625 17.7885 21.0463 17.6558C20.9917 17.5933 20.9303 17.5213 20.8776 17.4649C20.8265 17.4104 20.7528 17.3362 20.6611 17.2812L20.2285 18.0022C20.2145 17.9938 20.2222 17.9952 20.2638 18.0396C20.3036 18.0822 20.346 18.1323 20.4135 18.2095C20.5418 18.3561 20.7179 18.5498 20.9681 18.7569C21.4727 19.1745 22.2472 19.6206 23.5157 19.9133L23.7048 19.094Z" fill="#B22C7D"/>
<path d="M14.9473 15.2221C17.6286 14.0304 19.6024 16.4013 20.3472 17.6427C20.0368 17.8289 19.6024 18.9461 17.1817 19.5047C14.1784 20.1977 11.5956 16.7117 14.9473 15.2221Z" fill="#FFD9EF"/>
<path d="M20.3472 17.6427L20.7077 17.4264L20.924 17.7869L20.5635 18.0032L20.3472 17.6427ZM14.9473 15.2221L14.7765 14.8379L14.7765 14.8379L14.9473 15.2221ZM17.1817 19.5047L17.0872 19.095L17.0872 19.095L17.1817 19.5047ZM19.9867 17.859C19.6316 17.2673 18.9919 16.4233 18.1443 15.8725C17.3143 15.3332 16.3012 15.0805 15.118 15.6063L14.7765 14.8379C16.2747 14.1721 17.5891 14.5089 18.6025 15.1675C19.5984 15.8146 20.3179 16.7768 20.7077 17.4264L19.9867 17.859ZM15.118 15.6063C14.3518 15.9469 13.9906 16.3708 13.8573 16.7549C13.7246 17.1377 13.7904 17.5598 14.0387 17.9603C14.5449 18.7767 15.7588 19.4015 17.0872 19.095L17.2763 19.9143C15.6013 20.3008 14.0222 19.5293 13.3241 18.4035C12.9703 17.8329 12.8311 17.1476 13.0629 16.4794C13.2942 15.8126 13.867 15.2422 14.7765 14.8379L15.118 15.6063ZM17.0872 19.095C18.2393 18.8291 18.8923 18.4374 19.2878 18.1101C19.4875 17.9448 19.6295 17.7895 19.7456 17.6568C19.8003 17.5943 19.8617 17.5222 19.9144 17.4659C19.9655 17.4114 20.0392 17.3371 20.1309 17.2822L20.5635 18.0032C20.5775 17.9948 20.5698 17.9962 20.5282 18.0406C20.4884 18.0832 20.446 18.1333 20.3784 18.2105C20.2502 18.357 20.0741 18.5508 19.8239 18.7579C19.3193 19.1755 18.5448 19.6216 17.2763 19.9143L17.0872 19.095Z" fill="#B22C7D"/>
<path d="M21.376 15.9666L21.376 10.1943" stroke="#B22C7D" stroke-width="0.840861" stroke-linecap="square"/>
<path d="M21.376 37.0064L21.376 20.6206" stroke="#B22C7D" stroke-width="0.840861" stroke-linecap="square"/>
<rect x="13.9277" y="40.3584" width="10.4274" height="6.33089" fill="#F1C0DD"/>
<rect x="28.6079" y="43.2754" width="5.42535" height="3.87525" fill="#F1C0DD"/>
<rect x="13.1831" y="37.3794" width="11.917" height="2.97924" fill="white"/>
<path d="M27.902 44.0508L26.2827 28.5498H36.3584L34.5591 44.0508H27.902Z" fill="#DD98C2"/>
<path d="M31.2446 30.8618L31.616 32.0469C31.776 32.5573 32.176 32.9571 32.6867 33.117L33.8722 33.4883L32.7277 33.7613C32.1285 33.9042 31.6607 34.3718 31.5178 34.9706L31.2446 36.1147L31.0106 34.9888C30.8783 34.352 30.3805 33.8545 29.7434 33.7222L28.617 33.4883L29.7514 33.2373C30.3718 33.1001 30.8563 32.6158 30.9936 31.9957L31.2446 30.8618Z" fill="#B22C7D"/>
<rect x="25.4722" y="26.5796" width="11.5446" height="2.23443" fill="white"/>
<rect x="37.7622" y="35.0278" width="5.21368" height="2.23443" fill="#B22C7D"/>
<path fill-rule="evenodd" clip-rule="evenodd" d="M17.8232 43.577L17.8232 43.4969C18.258 43.4969 19.1133 43.0632 19.1133 41.7954H19.1935C19.1935 42.0232 19.2665 42.452 19.4636 42.8226C19.6602 43.1925 19.9758 43.4969 20.4599 43.4969L20.4599 43.577C20.2517 43.577 19.9352 43.6625 19.6711 43.9138C19.408 44.164 19.1935 44.5819 19.1935 45.2529H19.1133C19.1133 45.0204 19.0584 44.5983 18.8683 44.2359C18.679 43.8754 18.3583 43.577 17.8232 43.577ZM19.1473 44.8103C19.2197 44.3677 19.4 44.061 19.6158 43.8558C19.7914 43.6887 19.9893 43.5901 20.1684 43.5397C19.8057 43.4426 19.5564 43.1679 19.3928 42.8602C19.2785 42.6453 19.2045 42.412 19.1616 42.2063C19.0318 43.0022 18.531 43.399 18.1176 43.5282C18.5182 43.6179 18.7771 43.8896 18.9393 44.1987C19.0442 44.3987 19.1093 44.6151 19.1473 44.8103Z" stroke="#B22C7D" stroke-width="0.213633" stroke-linecap="round"/>
<circle cx="40.3222" cy="42.2226" r="0.367162" fill="#B22C7D"/>
<path d="M40.3228 41.4427L40.3228 39.6069" stroke="#B22C7D" stroke-width="0.3" stroke-linecap="round"/>
<path d="M40.3228 44.8387L40.3228 43.0029" stroke="#B22C7D" stroke-width="0.3" stroke-linecap="round"/>
<path d="M39.5883 42.2231L38.3032 42.2231" stroke="#B22C7D" stroke-width="0.3" stroke-linecap="round"/>
<path d="M42.4335 42.2231H41.1484" stroke="#B22C7D" stroke-width="0.3" stroke-linecap="round"/>
<path d="M41.5615 41.0293L40.9199 41.6709" stroke="#B22C7D" stroke-width="0.3" stroke-linecap="round"/>
<path d="M39.0371 41.0293L39.6787 41.6709" stroke="#B22C7D" stroke-width="0.3" stroke-linecap="round"/>
<path d="M41.5615 43.3237L40.9199 42.6821" stroke="#B22C7D" stroke-width="0.3" stroke-linecap="round"/>
<path d="M39.0376 43.3237L39.6792 42.6821" stroke="#B22C7D" stroke-width="0.3" stroke-linecap="round"/>
</svg>
