<svg width="57" height="57" viewBox="0 0 57 57" fill="none" xmlns="http://www.w3.org/2000/svg">
<path d="M18.9999 18.5355C12.5066 24.3397 14.0553 31.8935 16.046 35.8191L14.5143 41.1145C14.2942 41.8754 15.0042 42.5779 15.7628 42.3497L21.0076 40.7717C24.9768 43.0291 31.184 42.4265 33.6176 41.9898C42.391 39.1529 44.5334 31.1195 43.5242 26.7994C40.5471 14.0552 26.4018 11.9191 18.9999 18.5355Z" fill="#FBDBEE"/>
<path d="M28.6539 24.751L28.9611 23.3632L29.4545 24.9374C29.9574 26.542 31.2146 27.7987 32.8199 28.3013L34.4523 28.8125L32.9696 29.1661C31.0864 29.6153 29.6159 31.0851 29.1665 32.9675L28.9117 34.0349L28.7036 33.0335C28.2875 31.0319 26.7228 29.4678 24.7202 29.0519L23.8066 28.8622L24.7494 28.6537C26.6994 28.2224 28.2224 26.7001 28.6539 24.751Z" fill="#B32C7D" stroke="#B32C7D" stroke-width="0.999809"/>
</svg>
