<svg width="258" height="258" viewBox="0 0 258 258" fill="none" xmlns="http://www.w3.org/2000/svg">
<g filter="url(#filter0_d_213_1578)">
<circle cx="129" cy="129" r="120" fill="#FF87D0"/>
<circle cx="129" cy="129" r="122" stroke="#33C1C8" stroke-width="4"/>
</g>
<rect x="65.0757" y="149.916" width="127.919" height="65.2451" rx="4.28571" fill="#F1C0DD"/>
<path d="M90.2251 215.162V149.914" stroke="#B22C7D" stroke-width="10.7143"/>
<path d="M65.0454 164.002H193" stroke="#B22C7D" stroke-width="10.7143"/>
<path d="M117.879 182.088V86.4363H140.082V182.088C140.082 184.028 137.464 185.507 136.155 186.004C132.733 186.06 125.171 186.138 122.299 186.004C119.426 185.869 118.156 183.337 117.879 182.088Z" fill="#FFE9F6"/>
<circle cx="129.035" cy="67.8387" r="18.929" stroke="#A7EAED" stroke-width="12.1429"/>
<circle cx="129.035" cy="67.8387" r="15.5957" stroke="#B22C7D" stroke-width="12.1429"/>
<path d="M126.02 208.964L124.052 185.895H133.829L131.828 208.964H126.02Z" fill="#A7EAED"/>
<rect x="121.939" y="188.797" width="13.9926" height="1.04425" fill="#B22C7D"/>
<rect x="122.775" y="193.949" width="12.3206" height="1.04425" fill="#B22C7D"/>
<rect x="123.805" y="199.1" width="10.26" height="1.04425" fill="#B22C7D"/>
<rect x="124.835" y="204.252" width="8.19943" height="1.04425" fill="#B22C7D"/>
<path d="M90.2251 147.748C88.5287 143.45 83.6093 134.821 77.5023 134.686C69.8687 134.516 63.0832 157.247 90.2251 148.596" stroke="#B22C7D" stroke-width="6.78571"/>
<path d="M90.2246 147.748C91.921 143.45 96.8404 134.821 102.947 134.686C110.581 134.516 117.367 157.247 90.2246 148.596" stroke="#B22C7D" stroke-width="6.78571"/>
<path d="M73.8735 73.2382L74.8065 76.2157C75.2084 77.4983 76.2133 78.5028 77.4965 78.9045L80.4753 79.8373L77.5994 80.5232C76.094 80.8823 74.9186 82.0571 74.5593 83.5618L73.8729 86.4364L73.2851 83.6076C72.9526 82.0076 71.7019 80.7574 70.1012 80.425L67.2711 79.8373L70.1215 79.2068C71.6802 78.862 72.8976 77.6452 73.2426 76.0872L73.8735 73.2382Z" fill="#A7EAED"/>
<path d="M180.698 54.312L182.228 59.1947C182.887 61.298 184.535 62.9453 186.639 63.6041L191.524 65.1336L186.808 66.2585C184.339 66.8474 182.412 68.7739 181.822 71.2414L180.697 75.9553L179.733 71.3165C179.188 68.6927 177.137 66.6425 174.512 66.0974L169.871 65.1336L174.545 64.0998C177.101 63.5344 179.097 61.539 179.663 58.9841L180.698 54.312Z" fill="#B22C7D"/>
<path d="M160.066 120.886L160.5 118.925L161.198 121.152C161.913 123.435 163.702 125.222 165.985 125.937L168.295 126.661L166.198 127.161C163.519 127.8 161.427 129.891 160.788 132.569L160.429 134.072L160.136 132.663C159.544 129.815 157.318 127.59 154.469 126.998L153.186 126.732L154.511 126.439C157.285 125.825 159.452 123.659 160.066 120.886Z" stroke="#A7EAED" stroke-width="1.42857"/>
<path d="M99.734 112.044L100.011 110.791L100.463 112.233C100.969 113.847 102.233 115.111 103.848 115.616L105.352 116.087L104 116.41C102.106 116.862 100.627 118.34 100.175 120.233L99.9579 121.141L99.7833 120.3C99.365 118.287 97.7912 116.714 95.777 116.296L95.031 116.141L95.8066 115.969C97.768 115.535 99.2999 114.004 99.734 112.044Z" stroke="#F1C0DD" stroke-width="1.07143"/>
<defs>
<filter id="filter0_d_213_1578" x="0" y="0" width="258" height="258" filterUnits="userSpaceOnUse" color-interpolation-filters="sRGB">
<feFlood flood-opacity="0" result="BackgroundImageFix"/>
<feColorMatrix in="SourceAlpha" type="matrix" values="0 0 0 0 0 0 0 0 0 0 0 0 0 0 0 0 0 0 127 0" result="hardAlpha"/>
<feOffset/>
<feGaussianBlur stdDeviation="2.5"/>
<feColorMatrix type="matrix" values="0 0 0 0 0 0 0 0 0 0.956897 0 0 0 0 1 0 0 0 0.76 0"/>
<feBlend mode="normal" in2="BackgroundImageFix" result="effect1_dropShadow_213_1578"/>
<feBlend mode="normal" in="SourceGraphic" in2="effect1_dropShadow_213_1578" result="shape"/>
</filter>
</defs>
</svg>
