<svg width="192" height="192" viewBox="0 0 192 192" fill="none" xmlns="http://www.w3.org/2000/svg">
<g clip-path="url(#clip0_1105_3857)">
<g filter="url(#filter0_di_1105_3857)">
<path d="M105.11 157.493L105.105 157.498C99.9441 162.196 92.0559 162.196 86.895 157.498L86.8897 157.493C66.2168 138.747 49.3558 123.431 37.6197 109.073C25.9243 94.7647 19.7064 81.8604 19.7064 67.999C19.7064 45.3306 37.4025 27.7057 60 27.7057C72.7996 27.7057 85.1456 33.6833 93.1875 43.0531L96 46.3301L98.8125 43.0531C106.854 33.6833 119.2 27.7057 132 27.7057C154.597 27.7057 172.294 45.3306 172.294 67.999C172.294 81.8604 166.076 94.7647 154.38 109.073C142.644 123.431 125.783 138.747 105.11 157.493Z" stroke="white" stroke-width="7.41272" shape-rendering="crispEdges"/>
</g>
<g filter="url(#filter1_d_1105_3857)">
<path fill-rule="evenodd" clip-rule="evenodd" d="M74.8713 78.5748C74.8713 74.8303 75.8805 71.5043 77.4382 69.1559C79.0028 66.797 81.0077 65.5617 83.0285 65.5617C85.0493 65.5617 87.0542 66.797 88.6188 69.1559C90.1764 71.5043 91.1856 74.8303 91.1856 78.5748C91.1856 82.3192 90.1764 85.6452 88.6188 87.9936C87.0542 90.3525 85.0493 91.5878 83.0285 91.5878C81.0077 91.5878 79.0028 90.3525 77.4382 87.9936C75.8805 85.6452 74.8713 82.3192 74.8713 78.5748ZM83.0285 62.7471C79.767 62.7471 76.9896 64.74 75.0925 67.6002C73.1885 70.4709 72.0566 74.355 72.0566 78.5748C72.0566 82.7945 73.1885 86.6786 75.0925 89.5493C76.9896 92.4095 79.767 94.4024 83.0285 94.4024C83.2577 94.4024 83.4846 94.3926 83.7089 94.3733C83.7344 94.3747 83.7602 94.3754 83.7861 94.3754L85.3631 94.3754L85.3631 124.718C85.3631 127.827 87.8835 130.347 90.9925 130.347L96.2915 130.347C99.4005 130.347 101.921 127.827 101.921 124.718L101.921 94.8768L109.016 94.5051C110.93 94.4049 112.774 93.7483 114.32 92.616L114.507 92.4793C116.442 91.0627 117.889 88.9402 118.194 86.4346C118.862 80.9558 118.555 74.9878 118.111 70.895C117.838 68.3832 116.469 66.19 114.519 64.7109C112.84 63.4368 110.789 62.7471 108.681 62.7471L83.7861 62.7471C83.7097 62.7471 83.6346 62.7532 83.5614 62.7649C83.3853 62.7531 83.2076 62.7471 83.0285 62.7471ZM89.31 65.5617C89.9165 66.1691 90.4703 66.8552 90.9644 67.6002C92.8685 70.4709 94.0003 74.355 94.0003 78.5748C94.0003 82.7945 92.8685 86.6786 90.9644 89.5493C90.7331 89.8981 90.4887 90.2339 90.232 90.5548C91.369 90.3707 92.6726 90.2459 94.0923 90.2459C97.4691 90.2459 99.8634 91.2349 101.089 92.1018L108.869 91.6943C110.236 91.6227 111.553 91.1538 112.658 90.345L112.844 90.2083C114.257 89.174 115.204 87.7067 115.4 86.0938C116.032 80.912 115.745 75.1804 115.312 71.1988C115.131 69.5334 114.216 68.0135 112.818 66.9534C111.628 66.0505 110.175 65.5617 108.681 65.5617L89.31 65.5617ZM94.0923 93.0605C96.6105 93.0605 98.28 93.7105 99.1062 94.1756L99.1062 124.718C99.1062 126.272 97.846 127.532 96.2915 127.532L90.9925 127.532C89.438 127.532 88.1778 126.272 88.1778 124.718L88.1778 93.9165C89.3778 93.5345 91.4872 93.0605 94.0923 93.0605Z" fill="white"/>
</g>
<g filter="url(#filter2_d_1105_3857)">
<path fill-rule="evenodd" clip-rule="evenodd" d="M80.823 74.4158C80.1892 75.4326 79.7512 76.9251 79.7512 78.6476C79.7512 80.3701 80.1892 81.8626 80.823 82.8794C81.4695 83.9165 82.1814 84.2778 82.7306 84.2778C83.2798 84.2778 83.9917 83.9165 84.6382 82.8794C85.272 81.8626 85.7101 80.3701 85.7101 78.6476C85.7101 76.9251 85.272 75.4326 84.6382 74.4158C83.9917 73.3786 83.2798 73.0174 82.7306 73.0174C82.1814 73.0174 81.4695 73.3786 80.823 74.4158ZM78.4344 72.9269C79.3756 71.4169 80.8571 70.2027 82.7306 70.2027C84.6042 70.2027 86.0856 71.4169 87.0268 72.9269C87.9807 74.4571 88.5247 76.4834 88.5247 78.6476C88.5247 80.8118 87.9807 82.838 87.0268 84.3683C86.0856 85.8783 84.6042 87.0924 82.7306 87.0924C80.8571 87.0924 79.3756 85.8783 78.4344 84.3683C77.4805 82.838 76.9365 80.8118 76.9365 78.6476C76.9365 76.4834 77.4805 74.4571 78.4344 72.9269Z" fill="white"/>
</g>
</g>
<defs>
<filter id="filter0_di_1105_3857" x="-1.79052" y="6.20884" width="195.581" height="176.309" filterUnits="userSpaceOnUse" color-interpolation-filters="sRGB">
<feFlood flood-opacity="0" result="BackgroundImageFix"/>
<feColorMatrix in="SourceAlpha" type="matrix" values="0 0 0 0 0 0 0 0 0 0 0 0 0 0 0 0 0 0 127 0" result="hardAlpha"/>
<feOffset/>
<feGaussianBlur stdDeviation="8.89526"/>
<feComposite in2="hardAlpha" operator="out"/>
<feColorMatrix type="matrix" values="0 0 0 0 1 0 0 0 0 0.934667 0 0 0 0 0.591667 0 0 0 1 0"/>
<feBlend mode="normal" in2="BackgroundImageFix" result="effect1_dropShadow_1105_3857"/>
<feBlend mode="normal" in="SourceGraphic" in2="effect1_dropShadow_1105_3857" result="shape"/>
<feColorMatrix in="SourceAlpha" type="matrix" values="0 0 0 0 0 0 0 0 0 0 0 0 0 0 0 0 0 0 127 0" result="hardAlpha"/>
<feOffset/>
<feGaussianBlur stdDeviation="10.3778"/>
<feComposite in2="hardAlpha" operator="arithmetic" k2="-1" k3="1"/>
<feColorMatrix type="matrix" values="0 0 0 0 1 0 0 0 0 1 0 0 0 0 1 0 0 0 1 0"/>
<feBlend mode="normal" in2="shape" result="effect2_innerShadow_1105_3857"/>
</filter>
<filter id="filter1_d_1105_3857" x="68.2795" y="58.97" width="54.0796" height="75.1542" filterUnits="userSpaceOnUse" color-interpolation-filters="sRGB">
<feFlood flood-opacity="0" result="BackgroundImageFix"/>
<feColorMatrix in="SourceAlpha" type="matrix" values="0 0 0 0 0 0 0 0 0 0 0 0 0 0 0 0 0 0 127 0" result="hardAlpha"/>
<feOffset/>
<feGaussianBlur stdDeviation="1.88855"/>
<feComposite in2="hardAlpha" operator="out"/>
<feColorMatrix type="matrix" values="0 0 0 0 1 0 0 0 0 0.934667 0 0 0 0 0.591667 0 0 0 1 0"/>
<feBlend mode="normal" in2="BackgroundImageFix" result="effect1_dropShadow_1105_3857"/>
<feBlend mode="normal" in="SourceGraphic" in2="effect1_dropShadow_1105_3857" result="shape"/>
</filter>
<filter id="filter2_d_1105_3857" x="73.1594" y="66.4257" width="19.1421" height="24.4439" filterUnits="userSpaceOnUse" color-interpolation-filters="sRGB">
<feFlood flood-opacity="0" result="BackgroundImageFix"/>
<feColorMatrix in="SourceAlpha" type="matrix" values="0 0 0 0 0 0 0 0 0 0 0 0 0 0 0 0 0 0 127 0" result="hardAlpha"/>
<feOffset/>
<feGaussianBlur stdDeviation="1.88855"/>
<feComposite in2="hardAlpha" operator="out"/>
<feColorMatrix type="matrix" values="0 0 0 0 1 0 0 0 0 0.934667 0 0 0 0 0.591667 0 0 0 1 0"/>
<feBlend mode="normal" in2="BackgroundImageFix" result="effect1_dropShadow_1105_3857"/>
<feBlend mode="normal" in="SourceGraphic" in2="effect1_dropShadow_1105_3857" result="shape"/>
</filter>
<clipPath id="clip0_1105_3857">
<rect width="192" height="191.999" fill="white"/>
</clipPath>
</defs>
</svg>
