<svg width="258" height="258" viewBox="0 0 258 258" fill="none" xmlns="http://www.w3.org/2000/svg">
<g filter="url(#filter0_d_213_1632)">
<circle cx="129" cy="129" r="120" fill="#F5ABD0"/>
<circle cx="129" cy="129" r="122" stroke="#33C1C8" stroke-width="4"/>
</g>
<rect x="40.0571" y="117.225" width="68.998" height="81.0075" rx="4.28571" transform="rotate(-30 40.0571 117.225)" fill="#B22C7D"/>
<rect width="68.998" height="81.0075" rx="4.28571" transform="matrix(-0.866025 -0.5 -0.5 0.866025 217.955 117.225)" fill="#B22C7D"/>
<rect x="78" y="70.6196" width="99.4505" height="136.017" rx="4.28571" fill="#EF78C0"/>
<path d="M144.724 141.259L120.707 155.195C118.668 156.376 116.053 154.946 116.052 152.564L116.05 124.692C116.05 122.314 118.662 120.88 120.704 122.065L144.723 136.001C145.187 136.266 145.572 136.648 145.84 137.11C146.109 137.572 146.25 138.096 146.25 138.63C146.25 139.164 146.109 139.688 145.841 140.15C145.573 140.612 145.187 140.994 144.724 141.259Z" fill="#A7EAED"/>
<path d="M42.019 155.627L42.952 158.604C43.3539 159.887 44.3588 160.891 45.642 161.293L48.6208 162.226L45.7449 162.912C44.2395 163.271 43.0641 164.446 42.7048 165.95L42.0184 168.825L41.4306 165.996C41.0981 164.396 39.8474 163.146 38.2467 162.814L35.4166 162.226L38.267 161.595C39.8257 161.251 41.0432 160.034 41.3882 158.476L42.019 155.627Z" fill="#B22C7D"/>
<path d="M177.451 85.5933L178.384 88.5708C178.786 89.8534 179.791 90.8579 181.074 91.2597L184.053 92.1924L181.177 92.8783C179.672 93.2374 178.496 94.4122 178.137 95.9169L177.451 98.7915L176.863 95.9627C176.53 94.3627 175.28 93.1125 173.679 92.7801L170.849 92.1924L173.699 91.5619C175.258 91.2171 176.475 90.0003 176.82 88.4423L177.451 85.5933Z" fill="#A7EAED"/>
<path d="M203.894 57.322L205.424 62.2047C206.083 64.308 207.73 65.9553 209.835 66.6141L214.72 68.1437L210.003 69.2686C207.535 69.8574 205.607 71.7839 205.018 74.2514L203.892 78.9653L202.929 74.3265C202.383 71.7027 200.332 69.6525 197.707 69.1074L193.067 68.1437L197.741 67.1098C200.297 66.5444 202.293 64.549 202.859 61.9941L203.894 57.322Z" fill="#B22C7D"/>
<path d="M203.803 198.165L204.237 196.204L204.935 198.43C205.65 200.713 207.439 202.501 209.723 203.216L212.032 203.939L209.936 204.439C207.256 205.078 205.164 207.169 204.525 209.847L204.166 211.35L203.873 209.941C203.281 207.093 201.055 204.868 198.206 204.277L196.923 204.01L198.248 203.717C201.022 203.103 203.189 200.938 203.803 198.165Z" stroke="#A7EAED" stroke-width="1.42857"/>
<path d="M67.2287 78.613L67.506 77.3604L67.9579 78.8022C68.4636 80.4162 69.7281 81.6802 71.3427 82.1857L72.8467 82.6567L71.4946 82.9792C69.6004 83.431 68.1213 84.9093 67.6692 86.8027L67.4526 87.7099L67.278 86.8697C66.8596 84.8563 65.2858 83.2832 63.2716 82.8649L62.5256 82.71L63.3013 82.5384C65.2626 82.1046 66.7945 80.5735 67.2287 78.613Z" stroke="white" stroke-width="1.07143"/>
<path d="M93.3166 203.072L93.5939 201.82L94.0457 203.262C94.5515 204.876 95.8159 206.14 97.4306 206.645L98.9346 207.116L97.5825 207.439C95.6882 207.89 94.2092 209.369 93.7571 211.262L93.5404 212.169L93.3658 211.329C92.9475 209.316 91.3737 207.743 89.3595 207.324L88.6135 207.169L89.3891 206.998C91.3505 206.564 92.8824 205.033 93.3166 203.072Z" stroke="white" stroke-width="1.07143"/>
<defs>
<filter id="filter0_d_213_1632" x="0" y="0" width="258" height="258" filterUnits="userSpaceOnUse" color-interpolation-filters="sRGB">
<feFlood flood-opacity="0" result="BackgroundImageFix"/>
<feColorMatrix in="SourceAlpha" type="matrix" values="0 0 0 0 0 0 0 0 0 0 0 0 0 0 0 0 0 0 127 0" result="hardAlpha"/>
<feOffset/>
<feGaussianBlur stdDeviation="2.5"/>
<feColorMatrix type="matrix" values="0 0 0 0 0 0 0 0 0 0.956897 0 0 0 0 1 0 0 0 0.76 0"/>
<feBlend mode="normal" in2="BackgroundImageFix" result="effect1_dropShadow_213_1632"/>
<feBlend mode="normal" in="SourceGraphic" in2="effect1_dropShadow_213_1632" result="shape"/>
</filter>
</defs>
</svg>
