<svg width="57" height="57" viewBox="0 0 57 57" fill="none" xmlns="http://www.w3.org/2000/svg">
<path d="M10.5547 29.166L11.0286 30.6781C11.2327 31.3294 11.743 31.8395 12.3946 32.0435L13.9074 32.5172L12.4469 32.8655C11.6825 33.0479 11.0856 33.6445 10.9032 34.4086L10.5547 35.8684L10.2561 34.4319C10.0872 33.6193 9.45206 32.9844 8.63917 32.8156L7.202 32.5172L8.64946 32.197C9.44102 32.0219 10.0592 31.404 10.2344 30.6128L10.5547 29.166Z" fill="#F1C0DD"/>
<path d="M43.2686 40.5762L43.5766 41.559C43.7093 41.9824 44.041 42.314 44.4646 42.4466L45.4479 42.7545L44.4986 42.9809C44.0017 43.0995 43.6137 43.4873 43.4951 43.984L43.2686 44.9328L43.0745 43.9991C42.9647 43.4709 42.5518 43.0582 42.0234 42.9485L41.0892 42.7545L42.0301 42.5464C42.5446 42.4326 42.9465 42.0309 43.0603 41.5166L43.2686 40.5762Z" fill="#F1C0DD"/>
<path d="M18.227 25.9182C22.4128 24.3361 27.0848 20.9743 28.8976 19.4912C30.7161 20.5824 34.6741 22.9341 35.9578 23.6107C37.9842 25.0845 43.0909 25.0541 41.5482 35.5432C40.2785 44.1762 30.7348 47.4227 29.5164 47.4227C27.0796 47.4227 17.23 41.6307 16.5708 35.1624C16.0435 29.9878 17.3343 26.7834 18.227 25.9182Z" fill="#FFF5FB"/>
<path d="M15.3622 20.5064C14.1171 24.1364 15.5888 27.9375 16.4802 29.3843C16.7589 28.4146 17.4564 26.3853 18.0171 26.0259C18.7179 25.5767 23.7595 23.8559 28.7337 19.5C27.2818 18.5679 24.5121 16.4343 24.0821 15.9777C23.4542 15.3109 22.6837 14.2932 22.6837 12.5273C20.9739 12.9658 16.9186 15.9689 15.3622 20.5064Z" fill="#F1C0DD" stroke="#F1C0DD" stroke-width="0.87949" stroke-linecap="round"/>
<path d="M20.6885 33.0806C21.092 33.8298 23.3537 35.5261 25.9453 33.547" stroke="#8A2360" stroke-width="0.87949" stroke-linecap="round"/>
<path d="M37.96 33.0806C37.5565 33.8298 35.2947 35.5261 32.7031 33.547" stroke="#8A2360" stroke-width="0.87949" stroke-linecap="round"/>
<path d="M27.0029 41.1523C27.8988 41.7706 30.1448 42.6361 31.9617 41.1523" stroke="#8A2360" stroke-width="0.87949" stroke-linecap="round"/>
<path d="M19.4868 30.7814C19.8132 30.2919 20.789 29.2835 22.0814 29.166" stroke="#8A2360" stroke-width="0.87949" stroke-linecap="round"/>
<path d="M38.501 30.7814C38.1746 30.2919 37.1988 29.2835 35.9064 29.166" stroke="#8A2360" stroke-width="0.87949" stroke-linecap="round"/>
<path fill-rule="evenodd" clip-rule="evenodd" d="M13.9077 43.531V43.4425C14.3883 43.4425 15.3339 42.963 15.3339 41.5615H15.4225C15.4225 41.8134 15.5032 42.2874 15.7211 42.6971C15.9385 43.1059 16.2873 43.4425 16.8225 43.4425V43.531C16.5923 43.531 16.2425 43.6256 15.9505 43.9034C15.6597 44.18 15.4225 44.6419 15.4225 45.3837H15.3339C15.3339 45.1267 15.2732 44.6601 15.063 44.2595C14.8538 43.8609 14.4992 43.531 13.9077 43.531ZM15.3715 44.8944C15.4515 44.4051 15.6508 44.0661 15.8894 43.8392C16.0835 43.6545 16.3022 43.5455 16.5002 43.4898C16.0992 43.3825 15.8237 43.0788 15.6428 42.7386C15.5165 42.5011 15.4347 42.2432 15.3872 42.0158C15.2438 42.8956 14.6901 43.3342 14.2331 43.4771C14.676 43.5763 14.9621 43.8767 15.1414 44.2183C15.2574 44.4394 15.3294 44.6786 15.3715 44.8944Z" fill="white" stroke="white" stroke-width="0.203494" stroke-linecap="round"/>
<path fill-rule="evenodd" clip-rule="evenodd" d="M41.8301 20.6634V20.503C42.7001 20.503 44.4117 19.6351 44.4117 17.0981H44.5722C44.5722 17.5541 44.7183 18.4122 45.1126 19.1537C45.5062 19.8939 46.1377 20.503 47.1065 20.503V20.6634C46.6898 20.6634 46.0565 20.8346 45.5279 21.3374C45.0015 21.8381 44.5722 22.6743 44.5722 24.0171H44.4117C44.4117 23.5519 44.3019 22.7073 43.9213 21.982C43.5427 21.2605 42.9007 20.6634 41.8301 20.6634ZM44.4798 23.1314C44.6247 22.2456 44.9855 21.632 45.4173 21.2212C45.7688 20.8869 46.1646 20.6896 46.523 20.5888C45.7972 20.3945 45.2984 19.8447 44.971 19.229C44.7423 18.799 44.5942 18.3321 44.5083 17.9204C44.2487 19.513 43.2463 20.3071 42.4191 20.5657C43.2208 20.7453 43.7388 21.289 44.0634 21.9075C44.2734 22.3077 44.4037 22.7408 44.4798 23.1314Z" fill="white" stroke="white" stroke-width="0.203494" stroke-linecap="round"/>
<path d="M25.0492 16.8534C25.8204 17.5765 30.8334 20.7295 33.2435 22.2156C34.5139 22.891 37.3121 24.3773 38.3414 24.9191C39.6281 25.5963 41.0812 26.3226 41.6583 29.5825C44.7289 22.5884 42.6761 19.4699 41.4979 17.3854C39.9524 14.651 34.1808 11.3581 32.5807 10.2256C31.5894 9.52407 25.4524 6.78062 23.4526 10.2256C21.3012 13.9316 24.0852 15.9495 25.0492 16.8534Z" fill="#F2D2DE" stroke="#F2D2DE" stroke-width="0.800952" stroke-linecap="round"/>
</svg>
