<svg width="57" height="57" viewBox="0 0 57 57" fill="none" xmlns="http://www.w3.org/2000/svg">
<path d="M36.1245 11.5088C37.2938 11.6613 39.4532 12.6261 38.7364 15.2647C38.0195 17.9033 35.1213 17.2357 33.7295 16.7146C35.8457 16.8036 40.4256 17.7584 42.0728 19.7259" stroke="#BA95A3" stroke-width="0.759483" stroke-linecap="round"/>
<path d="M24.0056 17.0962C20.5094 18.5946 16.1999 24.4338 14.3963 27.278C13.4715 28.8408 11.5273 33.1961 11.1486 38.1151C10.7699 43.0341 15.0437 45.7128 17.228 46.4372C18.6992 46.8732 18.7237 47.0006 21.4997 47.3203C24.2756 47.64 31.6224 48.7703 37.9489 47.2719C44.2754 45.7735 45.302 40.5431 45.0246 38.1151C44.8581 26.4611 37.1858 19.2466 33.3705 17.0962C30.3737 18.4281 25.8786 17.6511 24.0056 17.0962Z" fill="#FBDBEE" stroke="#FBDBEE" stroke-width="0.759483"/>
<path d="M35.5342 44.3997C37.6002 44.4866 41.8104 43.4732 42.1236 38.7236" stroke="#BA95A3" stroke-width="0.759483" stroke-linecap="round"/>
<path d="M24.2632 20.9419C24.8536 19.8466 26.3374 17.6816 27.5491 17.7843" stroke="#BA95A3" stroke-width="0.759483" stroke-linecap="round"/>
<path d="M32.1274 20.9419C31.537 19.8466 30.0532 17.6816 28.8415 17.7843" stroke="#BA95A3" stroke-width="0.759483" stroke-linecap="round"/>
<path d="M28.2681 17.835V20.556" stroke="#BA95A3" stroke-width="0.759483" stroke-linecap="round"/>
<path d="M21.2386 8.85129C20.28 12.4301 22.6233 15.8014 23.9147 17.0397C28.6552 18.5547 32.2315 17.6709 33.427 17.0397C36.6606 13.7388 36.5355 9.03337 35.847 8.3031C35.1586 7.57282 33.6774 9.8499 32.0919 9.8499C30.5064 9.8499 30.5898 8.38655 28.5871 8.3031C26.5843 8.21965 25.8719 11.7671 23.9147 9.8499C22.349 8.3161 21.4782 8.54507 21.2386 8.85129Z" fill="#FBDBEE" stroke="#FBDBEE" stroke-width="0.759483"/>
<path d="M28.8418 27.2153L29.6702 29.8587C30.027 30.9973 30.9192 31.8891 32.0584 32.2458L34.7029 33.0738L32.1498 33.6828C30.8134 34.0015 29.77 35.0445 29.4511 36.3803L28.8418 38.9323L28.3198 36.421C28.0246 35.0005 26.9142 33.8906 25.4931 33.5955L22.9807 33.0738L25.5111 32.5141C26.8949 32.208 27.9756 31.1278 28.2818 29.7446L28.8418 27.2153Z" fill="#9E4372"/>
<path d="M23.7441 17.0691C26.1418 17.7085 31.2751 18.4936 33.8989 16.8413" stroke="#BA95A3" stroke-width="0.875" stroke-linecap="square"/>
<path d="M28.4219 17.8348C26.5479 17.6807 25.9369 16.2843 25.3413 14.1895" stroke="#BA95A3" stroke-width="0.759483" stroke-linecap="round"/>
<path d="M28.2549 17.8348C30.1163 17.6037 30.7399 16.2843 31.3354 14.1895" stroke="#BA95A3" stroke-width="0.759483" stroke-linecap="round"/>
</svg>
