<svg width="44" height="51" viewBox="0 0 44 51" fill="none" xmlns="http://www.w3.org/2000/svg">
<path d="M31.6538 5.15552C33.1026 5.34453 35.7781 6.53985 34.89 9.80902C34.0018 13.0782 30.4109 12.2511 28.6865 11.6054C31.3085 11.7157 36.9829 12.8987 39.0238 15.3364" stroke="#E8B3E7" stroke-width="0.940987" stroke-linecap="round"/>
<path d="M16.6386 12.0784C12.3068 13.9348 6.96742 21.1696 4.73278 24.6934C3.58698 26.6297 1.17808 32.0259 0.708916 38.1205C0.239755 44.2151 5.53492 47.5339 8.24115 48.4314C10.064 48.9715 10.0943 49.1295 13.5337 49.5256C16.9731 49.9217 26.0756 51.322 33.914 49.4655C41.7524 47.6091 43.0245 41.1286 42.6807 38.1205C42.4744 23.6813 32.9686 14.7427 28.2415 12.0784C24.5285 13.7286 18.9591 12.7659 16.6386 12.0784Z" fill="#FFEE97" stroke="#FFEE97" stroke-width="0.940987"/>
<path d="M30.9224 45.907C33.4821 46.0148 38.6985 44.7592 39.0865 38.8745" stroke="#E8B3E7" stroke-width="0.940987" stroke-linecap="round"/>
<path d="M16.9575 16.8424C17.6891 15.4853 19.5275 12.8029 21.0287 12.9302" stroke="#E8B3E7" stroke-width="0.940987" stroke-linecap="round"/>
<path d="M26.7021 16.8426C25.9706 15.4855 24.1322 12.8031 22.6309 12.9304" stroke="#E8B3E7" stroke-width="0.940987" stroke-linecap="round"/>
<path d="M21.9199 12.9934V16.3648" stroke="#E8B3E7" stroke-width="0.940987" stroke-linecap="round"/>
<path d="M13.2097 1.863C12.022 6.29711 14.9253 10.474 16.5254 12.0082C22.3988 13.8854 26.8297 12.7904 28.311 12.0082C32.3174 7.91856 32.1623 2.0886 31.3093 1.1838C30.4563 0.279002 28.6212 3.10026 26.6567 3.10026C24.6923 3.10026 24.7957 1.28719 22.3143 1.1838C19.8329 1.08041 18.9503 5.4757 16.5254 3.10026C14.5855 1.1999 13.5066 1.4836 13.2097 1.863Z" fill="#FFEE97" stroke="#FFEE97" stroke-width="0.940987"/>
<path d="M22.6304 24.615L23.6567 27.89C24.0989 29.3008 25.2043 30.4057 26.6157 30.8476L29.8922 31.8735L26.7289 32.628C25.0732 33.023 23.7804 34.3152 23.3852 35.9702L22.6304 39.1321L21.9837 36.0206C21.6179 34.2607 20.2421 32.8856 18.4814 32.5199L15.3686 31.8735L18.5037 31.1801C20.2182 30.8008 21.5572 29.4624 21.9366 27.7487L22.6304 24.615Z" fill="#AE4096"/>
<path d="M16.3154 12.0442C19.286 12.8364 25.6462 13.8091 28.8971 11.762" stroke="#E8B3E7" stroke-width="1.08411" stroke-linecap="square"/>
<path d="M22.1102 12.9931C19.7884 12.8022 19.0313 11.072 18.2935 8.47656" stroke="#E8B3E7" stroke-width="0.940987" stroke-linecap="round"/>
<path d="M21.9039 12.9931C24.2102 12.7068 24.9828 11.072 25.7207 8.47656" stroke="#E8B3E7" stroke-width="0.940987" stroke-linecap="round"/>
</svg>
