<svg width="258" height="258" viewBox="0 0 258 258" fill="none" xmlns="http://www.w3.org/2000/svg">
<g filter="url(#filter0_d_213_1475)">
<circle cx="129" cy="129" r="120" fill="#F5ABD8"/>
<circle cx="129" cy="129" r="122" stroke="#33C1C8" stroke-width="4"/>
</g>
<path d="M157.757 69.7686C161.933 70.3134 169.646 73.7593 167.084 83.1837C164.523 92.6082 154.171 90.2238 149.2 88.3625C156.759 88.6802 173.116 92.0906 178.999 99.1182" stroke="#DBFDFF" stroke-width="2.71268" stroke-linecap="round"/>
<path d="M114.47 89.7249C101.981 95.0767 86.5862 115.933 80.1429 126.092C76.839 131.674 69.8925 147.23 68.5377 164.799C67.1828 182.369 82.4465 191.936 90.2477 194.524C95.5025 196.081 95.5898 196.536 105.505 197.678C115.42 198.82 141.66 202.857 164.257 197.505C186.855 192.153 190.524 173.471 189.534 164.799C188.945 123.174 161.545 97.4057 147.919 89.7249C137.215 94.4821 121.159 91.707 114.47 89.7249Z" fill="#FBDBEE" stroke="#FBDBEE" stroke-width="2.71268"/>
<path d="M155.634 187.247C163.013 187.557 178.051 183.937 179.172 166.973" stroke="#DBFDFF" stroke-width="2.71268" stroke-linecap="round"/>
<path d="M115.389 103.46C117.499 99.5479 122.799 91.8151 127.127 92.182" stroke="#DBFDFF" stroke-width="2.71268" stroke-linecap="round"/>
<path d="M143.475 103.462C141.367 99.5494 136.068 91.8166 131.74 92.1835" stroke="#DBFDFF" stroke-width="2.71268" stroke-linecap="round"/>
<path d="M129.695 92.365L129.694 102.084" stroke="#DBFDFF" stroke-width="2.71268" stroke-linecap="round"/>
<path d="M104.59 60.277C101.165 73.0597 109.533 85.1011 114.145 89.5239C131.076 94.9352 143.85 91.7786 148.121 89.5239C159.672 77.7341 159.227 60.9274 156.768 58.319C154.31 55.7106 149.018 63.8438 143.355 63.8438C137.692 63.8438 137.991 58.6171 130.838 58.319C123.684 58.0209 121.138 70.6917 114.148 63.8438C108.557 58.3654 105.446 59.1833 104.59 60.277Z" fill="#FBDBEE" stroke="#FBDBEE" stroke-width="2.71268"/>
<path d="M131.737 125.867L134.695 135.308C135.969 139.375 139.155 142.56 143.224 143.834L152.669 146.792L143.55 148.967C138.776 150.105 135.049 153.831 133.909 158.602L131.732 167.717L129.869 158.747C128.815 153.674 124.849 149.709 119.774 148.655L110.8 146.792L119.838 144.793C124.781 143.699 128.642 139.841 129.736 134.901L131.737 125.867Z" fill="#B22C7D"/>
<path d="M113.535 89.6293C122.098 91.9129 140.433 94.7171 149.806 88.8157" stroke="#DBFDFF" stroke-width="3.12528" stroke-linecap="square"/>
<path d="M130.243 92.3645C123.549 91.8143 121.367 86.8264 119.241 79.3442" stroke="#DBFDFF" stroke-width="2.71268" stroke-linecap="round"/>
<path d="M129.645 92.3645C136.293 91.5392 138.521 86.8264 140.649 79.3442" stroke="#DBFDFF" stroke-width="2.71268" stroke-linecap="round"/>
<defs>
<filter id="filter0_d_213_1475" x="0" y="0" width="258" height="258" filterUnits="userSpaceOnUse" color-interpolation-filters="sRGB">
<feFlood flood-opacity="0" result="BackgroundImageFix"/>
<feColorMatrix in="SourceAlpha" type="matrix" values="0 0 0 0 0 0 0 0 0 0 0 0 0 0 0 0 0 0 127 0" result="hardAlpha"/>
<feOffset/>
<feGaussianBlur stdDeviation="2.5"/>
<feColorMatrix type="matrix" values="0 0 0 0 0 0 0 0 0 0.956897 0 0 0 0 1 0 0 0 0.76 0"/>
<feBlend mode="normal" in2="BackgroundImageFix" result="effect1_dropShadow_213_1475"/>
<feBlend mode="normal" in="SourceGraphic" in2="effect1_dropShadow_213_1475" result="shape"/>
</filter>
</defs>
</svg>
