<svg width="50" height="51" viewBox="0 0 50 51" fill="none" xmlns="http://www.w3.org/2000/svg">
<path d="M14.647 19.1124L14.647 6.98116C14.647 4.20371 16.8985 1.95215 19.676 1.95215H32.1769C34.9544 1.95215 37.2059 4.20371 37.2059 6.98115L37.2059 19.1124" stroke="#732D72" stroke-width="3.77175"/>
<rect x="2.98291" y="18.1287" width="45.8885" height="32.2897" rx="5.02901" fill="#FFEE97"/>
<path d="M33.0457 27.7626C31.4675 27.7626 29.9844 28.3767 28.8699 29.4922L25.9272 32.4342L22.9892 29.4918C21.8739 28.3763 20.3914 27.7622 18.814 27.7622C15.5546 27.7626 12.9044 30.4116 12.904 33.6673L12.9038 34.8781C12.9034 38.135 15.5528 40.7832 18.8082 40.7832C20.3864 40.7832 21.8695 40.1691 22.9839 39.0536L25.9267 36.1173L28.8658 39.0576C29.9812 40.1731 31.4637 40.7873 33.0411 40.7873C36.2997 40.7852 38.9494 38.1358 38.9499 34.8801L38.95 33.6694C38.9505 30.4116 36.3014 27.7626 33.0457 27.7626ZM21.1447 37.2161C20.5215 37.8392 19.6921 38.1826 18.8093 38.1826C16.9894 38.1806 15.5082 36.6992 15.5084 34.8801L15.5086 33.6694C15.5088 31.8494 16.9908 30.3676 18.8112 30.3676C19.6939 30.3676 20.5229 30.711 21.1462 31.3342L24.0854 34.2745L21.1447 37.2161ZM36.3453 34.8801C36.345 36.7001 34.863 38.1818 33.0427 38.1818C32.16 38.1818 31.331 37.8384 30.7076 37.2153L27.7685 34.2749L30.7084 31.3346C31.3315 30.7115 32.161 30.368 33.0437 30.368C34.8645 30.3668 36.3457 31.8482 36.3454 33.6673L36.3453 34.8801Z" fill="#732D72"/>
<path d="M3.82031 3.97705L4.22465 5.26724C4.39882 5.82301 4.83428 6.25827 5.3903 6.43237L6.68107 6.83652L5.43493 7.13376C4.78264 7.28935 4.27335 7.79842 4.11769 8.45041L3.82031 9.69599L3.56554 8.47025C3.42144 7.77695 2.87947 7.23522 2.18585 7.09118L0.959553 6.83652L2.19464 6.56334C2.87005 6.41394 3.39754 5.88668 3.547 5.21158L3.82031 3.97705Z" fill="#FFEE97"/>
<path d="M47.1774 14.5113C47.1771 14.5102 47.1769 14.5091 47.1766 14.5081L47.178 14.508C47.1778 14.5091 47.1776 14.5102 47.1774 14.5113ZM47.1996 11.0396C47.1996 11.0397 47.1996 11.0399 47.1997 11.0401L47.1995 11.0401C47.1995 11.0399 47.1995 11.0397 47.1996 11.0396Z" fill="white" stroke="#FFEE97" stroke-width="0.256796" stroke-linecap="round"/>
</svg>
