<svg width="57" height="57" viewBox="0 0 57 57" fill="none" xmlns="http://www.w3.org/2000/svg">
<rect x="24.0811" y="10.0811" width="18" height="37" rx="2.5" fill="#9E4372" stroke="#FBDBEE"/>
<rect x="13.5811" y="9.58105" width="19" height="38" rx="3" fill="#FBDBEE"/>
<path d="M23.0811 25.7388L23.7466 27.8625C24.0333 28.7773 24.7501 29.4937 25.6653 29.7803L27.79 30.4456L25.7388 30.9348C24.6651 31.1909 23.8268 32.0289 23.5705 33.1021L23.0811 35.1523L22.6617 33.1347C22.4245 31.9935 21.5324 31.1018 20.3907 30.8647L18.3722 30.4456L20.4051 29.9959C21.5169 29.75 22.3852 28.8821 22.6312 27.7708L23.0811 25.7388Z" fill="#9E4372"/>
<rect x="14.4917" y="11.0625" width="8.29359" height="8.65734" rx="2" fill="#DD98C2"/>
<circle cx="20.6814" cy="15.2444" r="1.76536" fill="#990860"/>
<circle cx="16.7346" cy="13.1345" r="1.76536" fill="#990860"/>
<circle cx="16.6438" cy="17.3542" r="1.76536" fill="#990860"/>
<circle cx="20.6812" cy="15.2441" r="1.5" fill="#9E4372"/>
<circle cx="16.7344" cy="13.1348" r="1.5" fill="#9E4372"/>
<circle cx="16.6436" cy="17.354" r="1.5" fill="#9E4372"/>
</svg>
