<svg width="192" height="192" viewBox="0 0 192 192" fill="none" xmlns="http://www.w3.org/2000/svg">
<g clip-path="url(#clip0_1105_3848)">
<g filter="url(#filter0_di_1105_3848)">
<path d="M105.11 157.493L105.105 157.498C99.9441 162.196 92.0559 162.196 86.895 157.498L86.8897 157.493C66.2168 138.747 49.3558 123.431 37.6197 109.073C25.9243 94.7648 19.7064 81.8605 19.7064 67.9991C19.7064 45.3307 37.4025 27.7057 60 27.7057C72.7996 27.7057 85.1456 33.6833 93.1875 43.0532L96 46.3301L98.8125 43.0532C106.854 33.6833 119.2 27.7057 132 27.7057C154.597 27.7057 172.294 45.3307 172.294 67.9991C172.294 81.8605 166.076 94.7648 154.38 109.073C142.644 123.431 125.783 138.747 105.11 157.493Z" stroke="white" stroke-width="7.41272" shape-rendering="crispEdges"/>
</g>
<g filter="url(#filter1_d_1105_3848)">
<path fill-rule="evenodd" clip-rule="evenodd" d="M106.887 67.6169L89.3205 67.0154C85.699 66.8914 82.6626 69.7267 82.5386 73.3482L81.0871 115.741C80.9631 119.362 83.7984 122.399 87.42 122.523L104.987 123.124C108.608 123.248 111.645 120.413 111.769 116.791L113.22 74.3987C113.344 70.7772 110.509 67.7409 106.887 67.6169ZM89.4328 63.7367C84.0005 63.5507 79.4459 67.8037 79.2599 73.236L77.8084 115.629C77.6224 121.061 81.8754 125.615 87.3077 125.801L104.875 126.403C110.307 126.589 114.862 122.336 115.048 116.904L116.499 74.511C116.685 69.0787 112.432 64.5242 107 64.3382L89.4328 63.7367Z" fill="white"/>
</g>
<g filter="url(#filter2_d_1105_3848)">
<path fill-rule="evenodd" clip-rule="evenodd" d="M88.9517 115.653C88.9827 114.747 89.7418 114.038 90.6472 114.069L102.345 114.47C103.251 114.501 103.959 115.26 103.928 116.165C103.897 117.071 103.138 117.78 102.233 117.749L90.5349 117.348C89.6295 117.317 88.9207 116.558 88.9517 115.653Z" fill="white"/>
</g>
<g filter="url(#filter3_d_1105_3848)">
<path fill-rule="evenodd" clip-rule="evenodd" d="M93.5191 73.7229C93.5501 72.8175 94.3092 72.1087 95.2145 72.1397L100.659 72.3261C101.564 72.3571 102.273 73.1162 102.242 74.0215C102.211 74.9269 101.452 75.6357 100.546 75.6047L95.1023 75.4183C94.1969 75.3873 93.4881 74.6283 93.5191 73.7229Z" fill="white"/>
</g>
</g>
<defs>
<filter id="filter0_di_1105_3848" x="-1.79053" y="6.20886" width="195.581" height="176.309" filterUnits="userSpaceOnUse" color-interpolation-filters="sRGB">
<feFlood flood-opacity="0" result="BackgroundImageFix"/>
<feColorMatrix in="SourceAlpha" type="matrix" values="0 0 0 0 0 0 0 0 0 0 0 0 0 0 0 0 0 0 127 0" result="hardAlpha"/>
<feOffset/>
<feGaussianBlur stdDeviation="8.89526"/>
<feComposite in2="hardAlpha" operator="out"/>
<feColorMatrix type="matrix" values="0 0 0 0 1 0 0 0 0 0.934667 0 0 0 0 0.591667 0 0 0 1 0"/>
<feBlend mode="normal" in2="BackgroundImageFix" result="effect1_dropShadow_1105_3848"/>
<feBlend mode="normal" in="SourceGraphic" in2="effect1_dropShadow_1105_3848" result="shape"/>
<feColorMatrix in="SourceAlpha" type="matrix" values="0 0 0 0 0 0 0 0 0 0 0 0 0 0 0 0 0 0 127 0" result="hardAlpha"/>
<feOffset/>
<feGaussianBlur stdDeviation="10.3778"/>
<feComposite in2="hardAlpha" operator="arithmetic" k2="-1" k3="1"/>
<feColorMatrix type="matrix" values="0 0 0 0 1 0 0 0 0 1 0 0 0 0 1 0 0 0 1 0"/>
<feBlend mode="normal" in2="shape" result="effect2_innerShadow_1105_3848"/>
</filter>
<filter id="filter1_d_1105_3848" x="74.0256" y="59.9537" width="46.2563" height="70.2322" filterUnits="userSpaceOnUse" color-interpolation-filters="sRGB">
<feFlood flood-opacity="0" result="BackgroundImageFix"/>
<feColorMatrix in="SourceAlpha" type="matrix" values="0 0 0 0 0 0 0 0 0 0 0 0 0 0 0 0 0 0 127 0" result="hardAlpha"/>
<feOffset/>
<feGaussianBlur stdDeviation="1.88855"/>
<feComposite in2="hardAlpha" operator="out"/>
<feColorMatrix type="matrix" values="0 0 0 0 1 0 0 0 0 0.934667 0 0 0 0 0.591667 0 0 0 1 0"/>
<feBlend mode="normal" in2="BackgroundImageFix" result="effect1_dropShadow_1105_3848"/>
<feBlend mode="normal" in="SourceGraphic" in2="effect1_dropShadow_1105_3848" result="shape"/>
</filter>
<filter id="filter2_d_1105_3848" x="85.1741" y="110.291" width="22.5327" height="11.2354" filterUnits="userSpaceOnUse" color-interpolation-filters="sRGB">
<feFlood flood-opacity="0" result="BackgroundImageFix"/>
<feColorMatrix in="SourceAlpha" type="matrix" values="0 0 0 0 0 0 0 0 0 0 0 0 0 0 0 0 0 0 127 0" result="hardAlpha"/>
<feOffset/>
<feGaussianBlur stdDeviation="1.88855"/>
<feComposite in2="hardAlpha" operator="out"/>
<feColorMatrix type="matrix" values="0 0 0 0 1 0 0 0 0 0.934667 0 0 0 0 0.591667 0 0 0 1 0"/>
<feBlend mode="normal" in2="BackgroundImageFix" result="effect1_dropShadow_1105_3848"/>
<feBlend mode="normal" in="SourceGraphic" in2="effect1_dropShadow_1105_3848" result="shape"/>
</filter>
<filter id="filter3_d_1105_3848" x="89.7415" y="68.3616" width="16.2788" height="11.0212" filterUnits="userSpaceOnUse" color-interpolation-filters="sRGB">
<feFlood flood-opacity="0" result="BackgroundImageFix"/>
<feColorMatrix in="SourceAlpha" type="matrix" values="0 0 0 0 0 0 0 0 0 0 0 0 0 0 0 0 0 0 127 0" result="hardAlpha"/>
<feOffset/>
<feGaussianBlur stdDeviation="1.88855"/>
<feComposite in2="hardAlpha" operator="out"/>
<feColorMatrix type="matrix" values="0 0 0 0 1 0 0 0 0 0.934667 0 0 0 0 0.591667 0 0 0 1 0"/>
<feBlend mode="normal" in2="BackgroundImageFix" result="effect1_dropShadow_1105_3848"/>
<feBlend mode="normal" in="SourceGraphic" in2="effect1_dropShadow_1105_3848" result="shape"/>
</filter>
<clipPath id="clip0_1105_3848">
<rect width="192" height="191.999" fill="white"/>
</clipPath>
</defs>
</svg>
