<svg width="192" height="192" viewBox="0 0 192 192" fill="none" xmlns="http://www.w3.org/2000/svg">
<g clip-path="url(#clip0_1105_3870)">
<g filter="url(#filter0_di_1105_3870)">
<path d="M105.11 157.494L105.105 157.499C99.9441 162.197 92.0559 162.197 86.895 157.499L86.8897 157.494C66.2168 138.748 49.3558 123.432 37.6197 109.074C25.9243 94.7657 19.7064 81.8614 19.7064 68.0001C19.7064 45.3316 37.4025 27.7067 60 27.7067C72.7996 27.7067 85.1456 33.6843 93.1875 43.0542L96 46.3311L98.8125 43.0542C106.854 33.6843 119.2 27.7067 132 27.7067C154.597 27.7067 172.294 45.3316 172.294 68.0001C172.294 81.8614 166.076 94.7657 154.38 109.074C142.644 123.432 125.783 138.748 105.11 157.494Z" stroke="white" stroke-width="7.41272" shape-rendering="crispEdges"/>
</g>
<g filter="url(#filter1_d_1105_3870)">
<path d="M79.7769 122.853C78.2897 122.853 77.0162 122.294 75.9563 121.175C74.8964 120.056 74.3673 118.713 74.3691 117.145L74.3691 71.4803C74.3691 69.9106 74.8991 68.5664 75.959 67.4476C77.0189 66.3288 78.2915 65.7703 79.7769 65.7723L112.223 65.7723C113.71 65.7723 114.984 66.3316 116.044 67.4504C117.104 68.5692 117.633 69.9125 117.631 71.4803L117.631 117.145C117.631 118.715 117.101 120.059 116.041 121.178C114.981 122.297 113.708 122.855 112.223 122.853L79.7769 122.853ZM79.7769 117.145L112.223 117.145L112.223 71.4803L106.815 71.4803L106.815 91.4587L100.056 87.1776L93.2961 91.4587L93.2961 71.4803L79.7769 71.4803L79.7769 117.145Z" fill="white"/>
</g>
</g>
<defs>
<filter id="filter0_di_1105_3870" x="-1.79052" y="6.20986" width="195.581" height="176.309" filterUnits="userSpaceOnUse" color-interpolation-filters="sRGB">
<feFlood flood-opacity="0" result="BackgroundImageFix"/>
<feColorMatrix in="SourceAlpha" type="matrix" values="0 0 0 0 0 0 0 0 0 0 0 0 0 0 0 0 0 0 127 0" result="hardAlpha"/>
<feOffset/>
<feGaussianBlur stdDeviation="8.89526"/>
<feComposite in2="hardAlpha" operator="out"/>
<feColorMatrix type="matrix" values="0 0 0 0 1 0 0 0 0 0.934667 0 0 0 0 0.591667 0 0 0 1 0"/>
<feBlend mode="normal" in2="BackgroundImageFix" result="effect1_dropShadow_1105_3870"/>
<feBlend mode="normal" in="SourceGraphic" in2="effect1_dropShadow_1105_3870" result="shape"/>
<feColorMatrix in="SourceAlpha" type="matrix" values="0 0 0 0 0 0 0 0 0 0 0 0 0 0 0 0 0 0 127 0" result="hardAlpha"/>
<feOffset/>
<feGaussianBlur stdDeviation="10.3778"/>
<feComposite in2="hardAlpha" operator="arithmetic" k2="-1" k3="1"/>
<feColorMatrix type="matrix" values="0 0 0 0 1 0 0 0 0 1 0 0 0 0 1 0 0 0 1 0"/>
<feBlend mode="normal" in2="shape" result="effect2_innerShadow_1105_3870"/>
</filter>
<filter id="filter1_d_1105_3870" x="70.592" y="61.9952" width="50.8159" height="64.6351" filterUnits="userSpaceOnUse" color-interpolation-filters="sRGB">
<feFlood flood-opacity="0" result="BackgroundImageFix"/>
<feColorMatrix in="SourceAlpha" type="matrix" values="0 0 0 0 0 0 0 0 0 0 0 0 0 0 0 0 0 0 127 0" result="hardAlpha"/>
<feOffset/>
<feGaussianBlur stdDeviation="1.88855"/>
<feComposite in2="hardAlpha" operator="out"/>
<feColorMatrix type="matrix" values="0 0 0 0 1 0 0 0 0 0.934667 0 0 0 0 0.591667 0 0 0 1 0"/>
<feBlend mode="normal" in2="BackgroundImageFix" result="effect1_dropShadow_1105_3870"/>
<feBlend mode="normal" in="SourceGraphic" in2="effect1_dropShadow_1105_3870" result="shape"/>
</filter>
<clipPath id="clip0_1105_3870">
<rect width="192" height="191.999" fill="white"/>
</clipPath>
</defs>
</svg>
