<svg width="258" height="258" viewBox="0 0 258 258" fill="none" xmlns="http://www.w3.org/2000/svg">
<g filter="url(#filter0_d_213_1537)">
<circle cx="129" cy="129" r="120" fill="#FF87D0"/>
<circle cx="129" cy="129" r="122" stroke="#33C1C8" stroke-width="4"/>
</g>
<path d="M82.1938 172.998C110.534 184.314 134.632 171.455 143.367 163.672C141.935 152.54 122.816 130.565 95.2339 124.331C67.6523 118.098 50.2791 130.513 44.3865 137.15C45.1806 144.385 53.8538 161.682 82.1938 172.998Z" fill="#FBDBEE"/>
<path d="M175.829 172.998C147.489 184.314 123.391 171.455 114.656 163.672C116.088 152.54 135.207 130.565 162.789 124.331C190.371 118.098 207.744 130.513 213.636 137.15C212.842 144.385 204.169 161.682 175.829 172.998Z" fill="#FBDBEE"/>
<path d="M80.0858 136.088C92.1237 164.129 118.256 172.076 129.936 172.751C136.795 163.865 138.814 134.808 123.719 110.897C108.624 86.9858 87.56 83.4801 78.7 84.0067C74.1461 89.6836 68.0479 108.048 80.0858 136.088Z" fill="#F1C0DD"/>
<path d="M180.049 136.088C168.011 164.129 141.879 172.076 130.199 172.751C123.34 163.865 121.32 134.808 136.416 110.897C151.511 86.9858 172.575 83.4801 181.435 84.0067C185.989 89.6836 192.087 108.048 180.049 136.088Z" fill="#F1C0DD"/>
<path d="M104.903 115.692C101.308 145.996 119.965 165.944 129.744 172.368C140.126 168.103 156.404 143.948 155.286 115.692C154.169 87.4372 137.68 73.8693 129.744 69.8954C122.961 72.5348 108.498 85.3893 104.903 115.692Z" fill="#B22C7D"/>
<circle cx="129.246" cy="110.051" r="13.397" fill="#A7EAED"/>
<path fill-rule="evenodd" clip-rule="evenodd" d="M129.388 127.402L126.143 124.049C126.097 124.062 126.047 124.074 125.994 124.088C124.34 124.516 118.997 125.899 110.896 135.625C103.438 144.58 103.779 151.972 104.866 155.785C104.86 155.776 104.855 155.767 104.849 155.758L104.887 155.856C105.125 156.676 105.397 157.326 105.63 157.785C105.641 157.807 105.652 157.829 105.662 157.851L105.964 158.629C105.976 158.668 105.987 158.708 105.997 158.747C106.027 158.941 106.122 159.583 106.125 160.086C106.11 160.3 106.077 160.503 106.031 160.694C105.958 160.963 105.865 161.199 105.842 161.258C105.653 161.688 105.396 162.012 105.142 162.189C98.9917 163.167 95.6003 170.409 101.636 175.698C107.68 180.993 119.86 181.191 124.401 181.265H124.402C125.035 181.276 125.519 181.283 125.818 181.302C127.773 181.426 129.313 180.323 129.839 179.756C130.581 180.424 131.824 181.117 132.426 181.302C142.145 181.999 155.771 181.137 159.607 173.956C164.402 164.978 155.973 162.345 154.596 161.988C153.614 161.733 153.001 160.431 152.971 159.205C152.965 158.847 153.01 158.541 153.063 158.31C153.105 158.143 153.16 157.984 153.231 157.837C153.31 157.674 153.396 157.511 153.486 157.341L153.486 157.341C154.151 156.082 155.028 154.422 154.803 148.939C154.599 143.96 148.594 136.078 145.688 132.824C141.785 127.906 135.341 124.925 132.606 124.049L129.388 127.402ZM153.063 158.31C153.131 158.015 153.21 157.842 153.21 157.842C152.133 159.85 148.124 164.126 140.85 165.146C132.6 166.302 131.702 165.561 131.301 165.231C131.26 165.198 131.225 165.168 131.187 165.146C130.861 164.95 130.026 164.268 129.65 163.951C129.158 164.392 128.024 165.313 127.422 165.463C126.671 165.651 118.873 166.001 113.296 163.739C107.719 161.477 106.243 158.255 106.015 157.697C105.847 157.288 105.255 156.381 104.93 155.883C104.908 155.848 104.886 155.816 104.866 155.785C104.873 155.809 104.88 155.832 104.887 155.856L105.662 157.851C105.791 158.115 105.891 158.375 105.964 158.629L105.988 158.689C105.988 158.689 105.991 158.709 105.997 158.747C106.121 159.223 106.155 159.674 106.125 160.086C106.126 160.097 106.126 160.108 106.126 160.118C106.126 160.292 106.083 160.501 106.031 160.694C105.982 160.897 105.917 161.086 105.842 161.258C105.838 161.267 105.836 161.272 105.836 161.272C106.107 161.696 107.108 162.758 109.145 163.882C111.692 165.287 117.066 167.763 122.651 167.548C127.295 167.37 127.855 167.377 128.297 167.152C128.387 167.107 128.472 167.052 128.585 166.984C128.774 166.871 128.909 166.76 129.02 166.669C129.305 166.436 129.43 166.334 129.874 166.662C130.491 167.119 131.163 167.548 133.016 167.548C133.055 167.548 133.096 167.548 133.139 167.548C135.104 167.549 140.473 167.55 143.837 166.42C147.274 165.266 150.12 163.896 151.167 163.037C151.909 162.428 152.718 161.843 153.347 161.387C153.429 161.328 153.507 161.272 153.581 161.217C153.581 161.217 153.144 160.689 153.004 159.641C152.983 159.489 152.973 159.343 152.971 159.205C152.963 158.896 152.993 158.591 153.063 158.31ZM132.483 155.688C130.969 155.876 129.916 156.891 129.579 157.375C129.329 157.069 128.248 156.16 127.585 155.808C127.127 155.566 125.504 155.491 123.47 155.397C122.561 155.355 121.569 155.309 120.563 155.243C117.305 155.028 114.925 153.565 114.593 151.888C114.328 150.546 115.263 148.272 115.764 147.303C115.79 148.454 115.826 150.865 115.764 151.302C115.686 151.849 116.993 152.414 118.456 152.999C119.455 153.399 122.878 153.604 125.236 153.745C126.329 153.811 127.193 153.862 127.481 153.913C128.118 154.026 128.561 154.334 128.804 154.503C128.908 154.575 128.976 154.622 129.007 154.617C129.035 154.613 129.058 154.599 129.106 154.569C129.234 154.488 129.536 154.298 130.562 153.913C131.338 153.622 133.144 153.563 134.852 153.507C136.242 153.461 137.566 153.418 138.218 153.253C139.38 152.96 141.743 152.339 142.779 152.065L142.779 146.272C143.703 147.034 144.628 150.1 144.598 151.581C144.569 153.063 143.043 153.884 141.43 154.617C140.291 155.135 137.243 155.339 134.884 155.496C133.902 155.562 133.039 155.619 132.483 155.688Z" fill="#A7EAED"/>
<path d="M129.246 133.59L130.179 136.567C130.58 137.85 131.585 138.854 132.869 139.256L135.847 140.189L132.971 140.875C131.466 141.234 130.291 142.409 129.931 143.913L129.245 146.788L128.657 143.959C128.325 142.359 127.074 141.109 125.473 140.777L122.643 140.189L125.494 139.558C127.052 139.214 128.27 137.997 128.615 136.439L129.246 133.59Z" fill="#B22C7D"/>
<defs>
<filter id="filter0_d_213_1537" x="0" y="0" width="258" height="258" filterUnits="userSpaceOnUse" color-interpolation-filters="sRGB">
<feFlood flood-opacity="0" result="BackgroundImageFix"/>
<feColorMatrix in="SourceAlpha" type="matrix" values="0 0 0 0 0 0 0 0 0 0 0 0 0 0 0 0 0 0 127 0" result="hardAlpha"/>
<feOffset/>
<feGaussianBlur stdDeviation="2.5"/>
<feColorMatrix type="matrix" values="0 0 0 0 0 0 0 0 0 0.956897 0 0 0 0 1 0 0 0 0.76 0"/>
<feBlend mode="normal" in2="BackgroundImageFix" result="effect1_dropShadow_213_1537"/>
<feBlend mode="normal" in="SourceGraphic" in2="effect1_dropShadow_213_1537" result="shape"/>
</filter>
</defs>
</svg>
