<svg width="192" height="192" viewBox="0 0 192 192" fill="none" xmlns="http://www.w3.org/2000/svg">
<g clip-path="url(#clip0_1105_3835)">
<g filter="url(#filter0_di_1105_3835)">
<path d="M105.107 157.493L105.102 157.498C99.9411 162.196 92.053 162.196 86.8921 157.498L86.8868 157.493C66.2139 138.747 49.3529 123.432 37.6168 109.073C25.9214 94.7649 19.7034 81.8606 19.7034 67.9993C19.7034 45.3309 37.3996 27.706 59.9971 27.706C72.7966 27.706 85.1427 33.6836 93.1846 43.0534L95.9971 46.3303L98.8096 43.0534C106.851 33.6836 119.197 27.706 131.997 27.706C154.595 27.706 172.291 45.3309 172.291 67.9993C172.291 81.8606 166.073 94.7649 154.377 109.073C142.641 123.432 125.78 138.747 105.107 157.493Z" stroke="white" stroke-width="7.41272" shape-rendering="crispEdges"/>
</g>
<g filter="url(#filter1_d_1105_3835)">
<path fill-rule="evenodd" clip-rule="evenodd" d="M96.4091 68.2294C82.0121 68.0007 70.1557 79.4862 69.927 93.883C69.7306 106.242 78.1677 116.731 89.6692 119.595L89.2141 121.423C76.8817 118.351 67.8337 107.107 68.0442 93.8531C68.2895 78.4165 81.0022 66.1014 96.439 66.3467C111.876 66.5919 124.191 79.3046 123.946 94.7412C123.738 107.835 114.56 118.681 102.36 121.524L101.933 119.69C113.311 117.038 121.869 106.921 122.063 94.7113C122.292 80.3145 110.806 68.4581 96.4091 68.2294Z" fill="white"/>
</g>
<g filter="url(#filter2_d_1105_3835)">
<path fill-rule="evenodd" clip-rule="evenodd" d="M88.2907 109.522C88.3767 108.367 89.4544 107.6 90.5408 107.79C93.0276 108.225 97.3072 108.639 101.043 108.006C102.139 107.821 103.242 108.602 103.302 109.791C103.465 113.064 103.715 118.075 103.739 118.504C103.754 118.78 103.703 119.365 103.535 120.06C103.361 120.775 103.049 121.675 102.496 122.558C101.361 124.374 99.2628 126.027 95.6191 125.969C91.9811 125.911 89.9371 124.229 88.8622 122.306C87.8294 120.458 87.7344 118.477 87.7459 117.754C87.761 116.805 88.0797 112.358 88.2907 109.522ZM90.1686 109.661C90.1686 109.661 90.1686 109.661 90.1685 109.662C89.9542 112.541 89.6426 116.906 89.6287 117.784C89.6195 118.36 89.706 119.956 90.5058 121.387C91.2635 122.742 92.7033 124.04 95.649 124.086C98.5891 124.133 100.09 122.854 100.9 121.56C101.32 120.888 101.566 120.188 101.704 119.617C101.773 119.333 101.814 119.087 101.836 118.901C101.857 118.722 101.859 118.626 101.859 118.61C101.859 118.608 101.859 118.608 101.859 118.608C101.835 118.173 101.584 113.152 101.421 109.885C101.421 109.884 101.421 109.884 101.421 109.884L101.42 109.882C101.418 109.88 101.416 109.878 101.413 109.876C101.399 109.865 101.379 109.859 101.358 109.863C97.3216 110.547 92.8028 110.098 90.216 109.645C90.2007 109.642 90.1867 109.646 90.1754 109.654C90.1713 109.657 90.1693 109.66 90.1686 109.661Z" fill="white"/>
</g>
<g filter="url(#filter3_d_1105_3835)">
<path fill-rule="evenodd" clip-rule="evenodd" d="M82.6951 80.5483C81.0272 81.3641 80.0172 82.644 79.6091 83.5128C79.3881 83.9834 78.8274 84.1857 78.3567 83.9647C77.8861 83.7436 77.6837 83.1829 77.9048 82.7122C78.4838 81.4796 79.7911 79.8726 81.8677 78.8568C83.9732 77.8269 86.8105 77.4337 90.3711 78.5614C90.8668 78.7184 91.1414 79.2475 90.9844 79.7432C90.8274 80.2389 90.2983 80.5135 89.8026 80.3565C86.6682 79.3638 84.3339 79.7467 82.6951 80.5483Z" fill="white"/>
</g>
<g filter="url(#filter4_d_1105_3835)">
<path fill-rule="evenodd" clip-rule="evenodd" d="M109.797 80.9795C111.439 81.8478 112.407 83.1592 112.788 84.0405C112.994 84.5179 113.548 84.7379 114.025 84.5319C114.502 84.3259 114.723 83.7719 114.517 83.2945C113.977 82.0441 112.721 80.3963 110.678 79.3151C108.606 78.2189 105.783 77.7357 102.188 78.7497C101.688 78.8909 101.397 79.411 101.538 79.9115C101.679 80.4119 102.199 80.7032 102.7 80.562C105.864 79.6694 108.185 80.1262 109.797 80.9795Z" fill="white"/>
</g>
<g filter="url(#filter5_d_1105_3835)">
<path fill-rule="evenodd" clip-rule="evenodd" d="M84.959 87.5221C85.5931 87.1566 86.3768 86.9702 87.314 87.0202C88.8591 87.1028 89.8989 87.8086 90.5239 88.7048C91.1193 89.5586 91.3066 90.5344 91.3008 91.2008C91.2962 91.7207 90.871 92.1385 90.351 92.134C89.8311 92.1294 89.4133 91.7042 89.4178 91.1843C89.421 90.8289 89.3095 90.2553 88.9793 89.7818C88.6788 89.3508 88.1663 88.9514 87.2135 88.9005C86.5895 88.8672 86.1767 88.9936 85.8992 89.1535C85.6183 89.3155 85.4172 89.5459 85.2733 89.8072C85.1265 90.0738 85.0472 90.3595 85.0136 90.5905C84.9986 90.6941 84.9944 90.7752 84.9947 90.8267C85.0144 90.886 85.0258 90.9347 85.0321 90.9624C85.0466 91.0264 85.0575 91.0911 85.0653 91.1392C85.0701 91.1695 85.0746 91.1977 85.0788 91.225C85.0903 91.2983 85.1007 91.3646 85.1162 91.4442C85.1565 91.6506 85.2161 91.854 85.322 92.0367C85.4876 92.3223 85.886 92.7782 87.1869 92.7988C89.02 92.828 90.1437 93.5306 90.7242 94.5547C91.2346 95.4551 91.2179 96.4436 91.2109 96.8581C91.2107 96.8693 91.2105 96.88 91.2104 96.8903C91.2002 97.5325 90.9286 98.3573 90.2532 99.0175C89.5566 99.6983 88.5062 100.133 87.0707 100.11C85.5682 100.086 84.5225 99.484 83.8378 98.7313C83.1786 98.0066 82.8905 97.1862 82.7763 96.7225C82.652 96.2176 82.9605 95.7076 83.4654 95.5832C83.9703 95.4589 84.4803 95.7674 84.6047 96.2723C84.674 96.5538 84.8533 97.0493 85.2307 97.4642C85.5826 97.8511 86.1427 98.212 87.1006 98.2272C88.1255 98.2435 88.6603 97.9414 88.937 97.6709C89.235 97.3797 89.3248 97.0384 89.3276 96.8604C89.3344 96.4339 89.3272 95.9087 89.0861 95.4833C88.9013 95.1573 88.47 94.7024 87.157 94.6816C85.3118 94.6523 84.2444 93.9325 83.6929 92.981C83.4402 92.545 83.3285 92.1145 83.2681 91.8046C83.2451 91.6867 83.2271 91.5715 83.2149 91.4933C83.2116 91.4727 83.2088 91.4548 83.2064 91.44C83.2046 91.4283 83.2029 91.4184 83.2015 91.41C83.1609 91.3021 83.1438 91.2073 83.1354 91.1548C83.1213 91.0654 83.1147 90.9752 83.1126 90.8906C83.1082 90.7203 83.1203 90.5255 83.1502 90.3197C83.2099 89.9096 83.3483 89.3994 83.6239 88.8989C83.9023 88.3933 84.3282 87.8857 84.959 87.5221Z" fill="white"/>
</g>
<g filter="url(#filter6_d_1105_3835)">
<path fill-rule="evenodd" clip-rule="evenodd" d="M102.492 87.8012C103.126 87.4357 103.91 87.2493 104.847 87.2993C106.392 87.3819 107.432 88.0877 108.057 88.9839C108.652 89.8377 108.84 90.8135 108.834 91.4799C108.829 91.9998 108.404 92.4176 107.884 92.4131C107.364 92.4085 106.946 91.9833 106.951 91.4634C106.954 91.108 106.843 90.5344 106.513 90.0609C106.212 89.6299 105.7 89.2305 104.747 89.1796C104.123 89.1463 103.71 89.2727 103.432 89.4326C103.151 89.5946 102.95 89.825 102.807 90.0863C102.66 90.3529 102.58 90.6386 102.547 90.8696C102.532 90.9732 102.528 91.0543 102.528 91.1058C102.548 91.1651 102.559 91.2138 102.565 91.2415C102.58 91.3055 102.591 91.3702 102.598 91.4183C102.603 91.4486 102.608 91.4768 102.612 91.5041C102.624 91.5774 102.634 91.6437 102.649 91.7233C102.69 91.9297 102.749 92.1331 102.855 92.3158C103.021 92.6014 103.419 93.0573 104.72 93.0779C106.553 93.1071 107.677 93.8097 108.257 94.8338C108.768 95.7342 108.751 96.7227 108.744 97.1372C108.744 97.1484 108.744 97.1591 108.744 97.1694C108.733 97.8116 108.462 98.6364 107.786 99.2966C107.09 99.9774 106.039 100.412 104.604 100.389C103.101 100.365 102.056 99.7631 101.371 99.0104C100.712 98.2857 100.424 97.4653 100.31 97.0016C100.185 96.4967 100.494 95.9867 100.999 95.8623C101.503 95.738 102.014 96.0465 102.138 96.5514C102.207 96.8329 102.386 97.3284 102.764 97.7433C103.116 98.1302 103.676 98.4911 104.634 98.5063C105.659 98.5226 106.193 98.2205 106.47 97.95C106.768 97.6588 106.858 97.3175 106.861 97.1395C106.868 96.713 106.86 96.1878 106.619 95.7624C106.435 95.4364 106.003 94.9815 104.69 94.9607C102.845 94.9314 101.778 94.2116 101.226 93.2601C100.973 92.8241 100.862 92.3936 100.801 92.0837C100.778 91.9658 100.76 91.8506 100.748 91.7724C100.745 91.7518 100.742 91.7339 100.74 91.7191C100.738 91.7074 100.736 91.6975 100.735 91.6891C100.694 91.5812 100.677 91.4864 100.669 91.4339C100.654 91.3445 100.648 91.2543 100.646 91.1697C100.641 90.9994 100.654 90.8046 100.683 90.5988C100.743 90.1887 100.882 89.6785 101.157 89.178C101.435 88.6724 101.861 88.1648 102.492 87.8012Z" fill="white"/>
</g>
<g filter="url(#filter7_d_1105_3835)">
<path fill-rule="evenodd" clip-rule="evenodd" d="M87.2246 85.417C87.7445 85.4253 88.1593 85.8535 88.151 86.3734L87.9233 100.706C87.915 101.226 87.4869 101.64 86.967 101.632C86.4471 101.624 86.0323 101.196 86.0405 100.676L86.2682 86.3434C86.2765 85.8235 86.7047 85.4088 87.2246 85.417Z" fill="white"/>
</g>
<g filter="url(#filter8_d_1105_3835)">
<path fill-rule="evenodd" clip-rule="evenodd" d="M104.76 85.6958C105.28 85.704 105.694 86.1322 105.686 86.6521L105.458 100.985C105.45 101.504 105.022 101.919 104.502 101.911C103.982 101.903 103.567 101.475 103.576 100.955L103.803 86.6222C103.812 86.1023 104.24 85.6875 104.76 85.6958Z" fill="white"/>
</g>
<g filter="url(#filter9_d_1105_3835)">
<path d="M79.1455 104.303C78.9268 103.705 79.4413 103.096 80.0674 103.212L87.9328 104.665C92.8347 105.571 97.8536 105.651 102.782 104.901L110.661 103.703C111.304 103.605 111.803 104.255 111.542 104.851L111.348 105.295C109.465 109.601 106.295 112.557 102.634 114.187L102.651 113.14C105.941 111.564 108.775 108.83 110.485 104.918L110.596 104.665L102.923 105.832C97.8914 106.597 92.7669 106.516 87.7617 105.591L80.1027 104.176C81.8276 108.729 85.1062 111.828 88.9324 113.444C88.931 113.931 88.9211 114.322 88.9164 114.456C84.6597 112.77 80.9998 109.373 79.1455 104.303Z" fill="white"/>
</g>
<g filter="url(#filter10_d_1105_3835)">
<path fill-rule="evenodd" clip-rule="evenodd" d="M78.7024 104.465C78.3586 103.525 79.1675 102.567 80.152 102.749L88.0174 104.202C92.8677 105.099 97.8338 105.177 102.71 104.436L110.589 103.238C111.599 103.084 112.382 104.104 111.973 105.04L111.778 105.484C109.847 109.9 106.59 112.94 102.825 114.618L102.151 114.918L102.184 112.841L102.447 112.716C105.486 111.259 108.128 108.783 109.81 105.261L102.993 106.297C97.9094 107.071 92.732 106.988 87.6753 106.054L80.8618 104.795C82.6053 108.794 85.6258 111.537 89.1146 113.01L89.4032 113.132L89.4022 113.445C89.4008 113.937 89.3908 114.333 89.3859 114.473L89.3622 115.139L88.742 114.894C84.3662 113.16 80.6049 109.667 78.7024 104.465ZM79.6565 104.329C81.3888 108.913 84.6437 112.061 88.4586 113.754C88.4586 113.753 88.4587 113.753 88.4587 113.752C84.6436 112.056 81.3904 108.906 79.6615 104.343L79.6565 104.329ZM103.116 113.436L103.116 113.439C106.275 111.857 109.007 109.221 110.737 105.502C109.013 109.208 106.281 111.85 103.116 113.436Z" fill="white"/>
</g>
</g>
<defs>
<filter id="filter0_di_1105_3835" x="-1.79345" y="6.20909" width="195.581" height="176.309" filterUnits="userSpaceOnUse" color-interpolation-filters="sRGB">
<feFlood flood-opacity="0" result="BackgroundImageFix"/>
<feColorMatrix in="SourceAlpha" type="matrix" values="0 0 0 0 0 0 0 0 0 0 0 0 0 0 0 0 0 0 127 0" result="hardAlpha"/>
<feOffset/>
<feGaussianBlur stdDeviation="8.89526"/>
<feComposite in2="hardAlpha" operator="out"/>
<feColorMatrix type="matrix" values="0 0 0 0 1 0 0 0 0 0.934667 0 0 0 0 0.591667 0 0 0 1 0"/>
<feBlend mode="normal" in2="BackgroundImageFix" result="effect1_dropShadow_1105_3835"/>
<feBlend mode="normal" in="SourceGraphic" in2="effect1_dropShadow_1105_3835" result="shape"/>
<feColorMatrix in="SourceAlpha" type="matrix" values="0 0 0 0 0 0 0 0 0 0 0 0 0 0 0 0 0 0 127 0" result="hardAlpha"/>
<feOffset/>
<feGaussianBlur stdDeviation="10.3778"/>
<feComposite in2="hardAlpha" operator="arithmetic" k2="-1" k3="1"/>
<feColorMatrix type="matrix" values="0 0 0 0 1 0 0 0 0 1 0 0 0 0 1 0 0 0 1 0"/>
<feBlend mode="normal" in2="shape" result="effect2_innerShadow_1105_3835"/>
</filter>
<filter id="filter1_d_1105_3835" x="63.5934" y="61.8954" width="64.8035" height="64.0757" filterUnits="userSpaceOnUse" color-interpolation-filters="sRGB">
<feFlood flood-opacity="0" result="BackgroundImageFix"/>
<feColorMatrix in="SourceAlpha" type="matrix" values="0 0 0 0 0 0 0 0 0 0 0 0 0 0 0 0 0 0 127 0" result="hardAlpha"/>
<feOffset/>
<feGaussianBlur stdDeviation="2.22381"/>
<feComposite in2="hardAlpha" operator="out"/>
<feColorMatrix type="matrix" values="0 0 0 0 1 0 0 0 0 0.934667 0 0 0 0 0.591667 0 0 0 1 0"/>
<feBlend mode="normal" in2="BackgroundImageFix" result="effect1_dropShadow_1105_3835"/>
<feBlend mode="normal" in="SourceGraphic" in2="effect1_dropShadow_1105_3835" result="shape"/>
</filter>
<filter id="filter2_d_1105_3835" x="83.2975" y="103.313" width="24.8914" height="27.1048" filterUnits="userSpaceOnUse" color-interpolation-filters="sRGB">
<feFlood flood-opacity="0" result="BackgroundImageFix"/>
<feColorMatrix in="SourceAlpha" type="matrix" values="0 0 0 0 0 0 0 0 0 0 0 0 0 0 0 0 0 0 127 0" result="hardAlpha"/>
<feOffset/>
<feGaussianBlur stdDeviation="2.22381"/>
<feComposite in2="hardAlpha" operator="out"/>
<feColorMatrix type="matrix" values="0 0 0 0 1 0 0 0 0 0.934667 0 0 0 0 0.591667 0 0 0 1 0"/>
<feBlend mode="normal" in2="BackgroundImageFix" result="effect1_dropShadow_1105_3835"/>
<feBlend mode="normal" in="SourceGraphic" in2="effect1_dropShadow_1105_3835" result="shape"/>
</filter>
<filter id="filter3_d_1105_3835" x="73.3678" y="73.4322" width="22.1081" height="15.0696" filterUnits="userSpaceOnUse" color-interpolation-filters="sRGB">
<feFlood flood-opacity="0" result="BackgroundImageFix"/>
<feColorMatrix in="SourceAlpha" type="matrix" values="0 0 0 0 0 0 0 0 0 0 0 0 0 0 0 0 0 0 127 0" result="hardAlpha"/>
<feOffset/>
<feGaussianBlur stdDeviation="2.22381"/>
<feComposite in2="hardAlpha" operator="out"/>
<feColorMatrix type="matrix" values="0 0 0 0 1 0 0 0 0 0.934667 0 0 0 0 0.591667 0 0 0 1 0"/>
<feBlend mode="normal" in2="BackgroundImageFix" result="effect1_dropShadow_1105_3835"/>
<feBlend mode="normal" in="SourceGraphic" in2="effect1_dropShadow_1105_3835" result="shape"/>
</filter>
<filter id="filter4_d_1105_3835" x="97.0543" y="73.7462" width="21.9871" height="15.3106" filterUnits="userSpaceOnUse" color-interpolation-filters="sRGB">
<feFlood flood-opacity="0" result="BackgroundImageFix"/>
<feColorMatrix in="SourceAlpha" type="matrix" values="0 0 0 0 0 0 0 0 0 0 0 0 0 0 0 0 0 0 127 0" result="hardAlpha"/>
<feOffset/>
<feGaussianBlur stdDeviation="2.22381"/>
<feComposite in2="hardAlpha" operator="out"/>
<feColorMatrix type="matrix" values="0 0 0 0 1 0 0 0 0 0.934667 0 0 0 0 0.591667 0 0 0 1 0"/>
<feBlend mode="normal" in2="BackgroundImageFix" result="effect1_dropShadow_1105_3835"/>
<feBlend mode="normal" in="SourceGraphic" in2="effect1_dropShadow_1105_3835" result="shape"/>
</filter>
<filter id="filter5_d_1105_3835" x="78.3014" y="82.5646" width="17.447" height="21.9938" filterUnits="userSpaceOnUse" color-interpolation-filters="sRGB">
<feFlood flood-opacity="0" result="BackgroundImageFix"/>
<feColorMatrix in="SourceAlpha" type="matrix" values="0 0 0 0 0 0 0 0 0 0 0 0 0 0 0 0 0 0 127 0" result="hardAlpha"/>
<feOffset/>
<feGaussianBlur stdDeviation="2.22381"/>
<feComposite in2="hardAlpha" operator="out"/>
<feColorMatrix type="matrix" values="0 0 0 0 1 0 0 0 0 0.934667 0 0 0 0 0.591667 0 0 0 1 0"/>
<feBlend mode="normal" in2="BackgroundImageFix" result="effect1_dropShadow_1105_3835"/>
<feBlend mode="normal" in="SourceGraphic" in2="effect1_dropShadow_1105_3835" result="shape"/>
</filter>
<filter id="filter6_d_1105_3835" x="95.8346" y="82.8437" width="17.447" height="21.9938" filterUnits="userSpaceOnUse" color-interpolation-filters="sRGB">
<feFlood flood-opacity="0" result="BackgroundImageFix"/>
<feColorMatrix in="SourceAlpha" type="matrix" values="0 0 0 0 0 0 0 0 0 0 0 0 0 0 0 0 0 0 127 0" result="hardAlpha"/>
<feOffset/>
<feGaussianBlur stdDeviation="2.22381"/>
<feComposite in2="hardAlpha" operator="out"/>
<feColorMatrix type="matrix" values="0 0 0 0 1 0 0 0 0 0.934667 0 0 0 0 0.591667 0 0 0 1 0"/>
<feBlend mode="normal" in2="BackgroundImageFix" result="effect1_dropShadow_1105_3835"/>
<feBlend mode="normal" in="SourceGraphic" in2="effect1_dropShadow_1105_3835" result="shape"/>
</filter>
<filter id="filter7_d_1105_3835" x="81.5924" y="80.9693" width="11.0066" height="25.1107" filterUnits="userSpaceOnUse" color-interpolation-filters="sRGB">
<feFlood flood-opacity="0" result="BackgroundImageFix"/>
<feColorMatrix in="SourceAlpha" type="matrix" values="0 0 0 0 0 0 0 0 0 0 0 0 0 0 0 0 0 0 127 0" result="hardAlpha"/>
<feOffset/>
<feGaussianBlur stdDeviation="2.22381"/>
<feComposite in2="hardAlpha" operator="out"/>
<feColorMatrix type="matrix" values="0 0 0 0 1 0 0 0 0 0.934667 0 0 0 0 0.591667 0 0 0 1 0"/>
<feBlend mode="normal" in2="BackgroundImageFix" result="effect1_dropShadow_1105_3835"/>
<feBlend mode="normal" in="SourceGraphic" in2="effect1_dropShadow_1105_3835" result="shape"/>
</filter>
<filter id="filter8_d_1105_3835" x="99.1276" y="81.248" width="11.0066" height="25.1107" filterUnits="userSpaceOnUse" color-interpolation-filters="sRGB">
<feFlood flood-opacity="0" result="BackgroundImageFix"/>
<feColorMatrix in="SourceAlpha" type="matrix" values="0 0 0 0 0 0 0 0 0 0 0 0 0 0 0 0 0 0 127 0" result="hardAlpha"/>
<feOffset/>
<feGaussianBlur stdDeviation="2.22381"/>
<feComposite in2="hardAlpha" operator="out"/>
<feColorMatrix type="matrix" values="0 0 0 0 1 0 0 0 0 0.934667 0 0 0 0 0.591667 0 0 0 1 0"/>
<feBlend mode="normal" in2="BackgroundImageFix" result="effect1_dropShadow_1105_3835"/>
<feBlend mode="normal" in="SourceGraphic" in2="effect1_dropShadow_1105_3835" result="shape"/>
</filter>
<filter id="filter9_d_1105_3835" x="74.6471" y="98.7501" width="41.4128" height="20.1535" filterUnits="userSpaceOnUse" color-interpolation-filters="sRGB">
<feFlood flood-opacity="0" result="BackgroundImageFix"/>
<feColorMatrix in="SourceAlpha" type="matrix" values="0 0 0 0 0 0 0 0 0 0 0 0 0 0 0 0 0 0 127 0" result="hardAlpha"/>
<feOffset/>
<feGaussianBlur stdDeviation="2.22381"/>
<feComposite in2="hardAlpha" operator="out"/>
<feColorMatrix type="matrix" values="0 0 0 0 1 0 0 0 0 0.934667 0 0 0 0 0.591667 0 0 0 1 0"/>
<feBlend mode="normal" in2="BackgroundImageFix" result="effect1_dropShadow_1105_3835"/>
<feBlend mode="normal" in="SourceGraphic" in2="effect1_dropShadow_1105_3835" result="shape"/>
</filter>
<filter id="filter10_d_1105_3835" x="74.1744" y="98.2791" width="42.3562" height="21.3079" filterUnits="userSpaceOnUse" color-interpolation-filters="sRGB">
<feFlood flood-opacity="0" result="BackgroundImageFix"/>
<feColorMatrix in="SourceAlpha" type="matrix" values="0 0 0 0 0 0 0 0 0 0 0 0 0 0 0 0 0 0 127 0" result="hardAlpha"/>
<feOffset/>
<feGaussianBlur stdDeviation="2.22381"/>
<feComposite in2="hardAlpha" operator="out"/>
<feColorMatrix type="matrix" values="0 0 0 0 1 0 0 0 0 0.934667 0 0 0 0 0.591667 0 0 0 1 0"/>
<feBlend mode="normal" in2="BackgroundImageFix" result="effect1_dropShadow_1105_3835"/>
<feBlend mode="normal" in="SourceGraphic" in2="effect1_dropShadow_1105_3835" result="shape"/>
</filter>
<clipPath id="clip0_1105_3835">
<rect width="192" height="191.998" fill="white"/>
</clipPath>
</defs>
</svg>
