<svg width="57" height="57" viewBox="0 0 57 57" fill="none" xmlns="http://www.w3.org/2000/svg">
<path d="M15.1353 12.9648V20.77V28.2742H24.0363V20.1338V12.9648C20.0971 15.5405 16.4609 14.038 15.1353 12.9648Z" fill="#DD98C2"/>
<path d="M28.7418 16.3105C25.5602 17.6741 21.6384 22.988 19.9971 25.5762V33.741C20.9418 33.5955 23.2676 33.4792 25.0131 34.1774C25.4495 34.3228 26.3222 34.9629 26.3222 36.3593C26.3222 37.7557 26.4149 41.9118 26.4613 43.8153C28.9864 44.3835 35.6733 45.1348 41.4306 43.7713C47.1878 42.4077 48.1221 37.6478 47.8696 35.4384C47.7181 24.8328 40.7361 18.2675 37.2641 16.3105C34.537 17.5226 30.4463 16.8156 28.7418 16.3105Z" fill="#FBDBEE"/>
<path d="M39.2329 41.1575C41.113 41.2367 44.9445 40.3144 45.2294 35.9922" stroke="white" stroke-width="0.757537" stroke-linecap="round"/>
<path d="M28.9761 19.8103C29.5134 18.8135 30.8637 16.8433 31.9664 16.9368" stroke="#BA95A3" stroke-width="0.757537" stroke-linecap="round"/>
<path d="M36.1328 19.8103C35.5955 18.8135 34.2452 16.8433 33.1425 16.9368" stroke="#BA95A3" stroke-width="0.757537" stroke-linecap="round"/>
<path d="M32.6206 16.9829V19.4591" stroke="#BA95A3" stroke-width="0.757537" stroke-linecap="round"/>
<path d="M26.2233 8.80753C25.3509 12.0644 27.4834 15.1323 28.6586 16.2592C32.9726 17.6379 36.2271 16.8336 37.3151 16.2592C40.2578 13.2553 40.1439 8.97323 39.5174 8.30866C38.8909 7.64409 37.5429 9.71629 36.1001 9.71629C34.6572 9.71629 34.7331 8.3846 32.9106 8.30866C31.088 8.23272 30.4397 11.461 28.6586 9.71629C27.2338 8.32049 26.4414 8.52886 26.2233 8.80753Z" fill="#FBDBEE"/>
<path d="M11.1289 22.5649L11.1289 42.5829H20.03V33.5446V22.5649C16.0908 25.1406 12.4546 23.6381 11.1289 22.5649Z" fill="#F1C0DD"/>
<path d="M17.7651 35.8133V45.17C17.7651 45.4435 17.9119 45.6982 18.1562 45.8213C21.451 47.4811 24.5825 46.6247 26.1263 45.8201C26.3592 45.6988 26.4927 45.4529 26.4927 45.1903V35.6562C22.5535 38.2319 19.0908 36.8865 17.7651 35.8133Z" fill="#DD98C2"/>
<path d="M8.29785 42.2021V46.4259C8.29785 46.6994 8.44457 46.9541 8.68895 47.0768C11.9961 48.7379 15.267 47.8797 16.8319 47.0748C17.0654 46.9546 17.1989 46.7087 17.1989 46.4461V42.2021C13.2597 44.7778 9.62354 43.2753 8.29785 42.2021Z" fill="#F1C0DD"/>
<ellipse cx="15.5794" cy="22.7504" rx="4.45053" ry="1.96284" fill="white"/>
<ellipse cx="22.1289" cy="35.6565" rx="4.36379" ry="2.1819" fill="white"/>
<ellipse cx="12.7484" cy="42.4585" rx="4.45053" ry="1.96284" fill="white"/>
<ellipse cx="19.5858" cy="13.1577" rx="4.45053" ry="1.96284" fill="white"/>
<path d="M39.7704 11.2261C40.8345 11.3649 42.7997 12.2429 42.1473 14.6441C41.495 17.0453 38.7988 16.6971 37.5322 16.2229C39.4581 16.3038 43.6845 16.9134 45.1836 18.7039" stroke="#BA95A3" stroke-width="0.757537" stroke-linecap="round"/>
<path d="M33.1426 25.519L33.8964 27.9245C34.2212 28.9608 35.0331 29.7723 36.0698 30.0969L38.4763 30.8504L36.153 31.4046C34.9368 31.6947 33.9872 32.6438 33.697 33.8594L33.1426 36.1818L32.6676 33.8964C32.3989 32.6038 31.3884 31.5938 30.0952 31.3252L27.8088 30.8504L30.1116 30.3411C31.3708 30.0625 32.3543 29.0795 32.633 27.8208L33.1426 25.519Z" fill="#B22C7D"/>
<path d="M28.5039 16.2854C30.6858 16.8673 35.3573 17.5817 37.7451 16.0781" stroke="#BA95A3" stroke-width="0.872758" stroke-linecap="square"/>
<path d="M32.6087 16.9824C34.3026 16.7721 34.8701 15.5714 35.4121 13.665" stroke="#BA95A3" stroke-width="0.757537" stroke-linecap="round"/>
<path d="M32.7609 16.9829C31.0555 16.8427 30.4995 15.5719 29.9575 13.6655" stroke="#BA95A3" stroke-width="0.757537" stroke-linecap="round"/>
</svg>
