<svg width="258" height="258" viewBox="0 0 258 258" fill="none" xmlns="http://www.w3.org/2000/svg">
<g filter="url(#filter0_d_213_1329)">
<circle cx="129" cy="129" r="120" fill="#B22C7D"/>
<circle cx="129" cy="129" r="122" stroke="#33C1C8" stroke-width="4"/>
</g>
<path d="M80.9453 73.1952L80.9439 101.075L80.9426 127.879H112.736L112.738 98.802L112.739 73.1952C98.6682 82.3951 85.6804 77.0285 80.9453 73.1952Z" fill="#DD98C2"/>
<path d="M129.544 85.1451C118.179 90.0157 104.17 108.996 98.3069 118.241L98.3055 147.405C101.68 146.886 109.987 146.47 116.222 148.964C117.781 149.483 120.898 151.77 120.898 156.757C120.898 161.745 121.228 176.591 121.393 183.39C130.413 185.419 154.298 188.103 174.862 183.232C195.427 178.362 198.765 161.36 197.864 153.468C197.324 115.586 172.386 92.1353 159.985 85.1451C150.244 89.4745 135.632 86.949 129.544 85.1451Z" fill="#FBDBEE"/>
<path d="M167.013 173.897C173.728 174.18 187.414 170.886 188.433 155.447" stroke="white" stroke-width="2.70586" stroke-linecap="round"/>
<path d="M130.382 97.646C132.302 94.0859 137.125 87.0492 141.063 87.3831" stroke="#DBFDFF" stroke-width="2.70586" stroke-linecap="round"/>
<path d="M155.944 97.6444C154.025 94.0843 149.203 87.0476 145.265 87.3815" stroke="#DBFDFF" stroke-width="2.70586" stroke-linecap="round"/>
<path d="M143.399 87.5468L143.399 96.3909" stroke="#DBFDFF" stroke-width="2.70586" stroke-linecap="round"/>
<path d="M120.55 58.3453C117.434 69.9784 125.05 80.9369 129.248 84.9619C144.657 89.8866 156.282 87.0139 160.168 84.9619C170.679 74.2324 170.273 58.9372 168.036 56.5634C165.798 54.1896 160.983 61.5913 155.829 61.5913C150.675 61.5913 150.947 56.8346 144.437 56.5634C137.927 56.2921 135.611 67.8234 129.249 61.5913C124.16 56.6056 121.329 57.3499 120.55 58.3453Z" fill="#FBDBEE"/>
<path d="M66.6338 107.487L66.6302 178.989H98.4241L98.4257 146.705L98.4276 107.487C84.3567 116.687 71.3688 111.32 66.6338 107.487Z" fill="#F1C0DD"/>
<path d="M90.3335 154.809L90.3318 188.23C90.3318 189.207 90.856 190.117 91.7284 190.557C103.497 196.485 114.683 193.426 120.197 190.552C121.029 190.119 121.506 189.241 121.506 188.303L121.508 154.248C107.437 163.448 95.0685 158.642 90.3335 154.809Z" fill="#DD98C2"/>
<path d="M56.5151 177.628L56.5144 192.714C56.5143 193.691 57.0383 194.601 57.9113 195.04C69.7237 200.973 81.4075 197.907 86.9973 195.032C87.8314 194.603 88.3082 193.725 88.3082 192.787L88.309 177.628C74.238 186.827 61.2502 181.461 56.5151 177.628Z" fill="#F1C0DD"/>
<ellipse rx="15.8969" ry="7.0111" transform="matrix(1 0 -4.96722e-05 1 82.5304 108.148)" fill="#A7EAED"/>
<ellipse rx="15.5871" ry="7.79354" transform="matrix(1 0 -4.96722e-05 1 105.92 154.247)" fill="#A7EAED"/>
<ellipse rx="15.8969" ry="7.0111" transform="matrix(1 0 -4.96722e-05 1 72.4117 178.544)" fill="#A7EAED"/>
<ellipse rx="15.8969" ry="7.0111" transform="matrix(1 0 -4.96722e-05 1 96.8419 73.8834)" fill="#A7EAED"/>
<path d="M168.938 66.9844C172.739 67.4803 179.758 70.6162 177.427 79.1931C175.097 87.77 165.466 86.5263 160.942 84.8324C167.821 85.1216 182.918 87.2989 188.272 93.6945" stroke="#DBFDFF" stroke-width="2.70586" stroke-linecap="round"/>
<path d="M145.263 118.038L147.955 126.63C149.115 130.331 152.015 133.23 155.718 134.389L164.313 137.081L156.014 139.061C151.67 140.097 148.278 143.487 147.242 147.829L145.261 156.124L143.565 147.961C142.605 143.344 138.996 139.736 134.377 138.777L126.21 137.081L134.435 135.262C138.933 134.267 142.447 130.755 143.442 126.259L145.263 118.038Z" fill="#B22C7D"/>
<path d="M128.697 85.0573C136.49 87.1356 153.176 89.6876 161.705 84.3169" stroke="#DBFDFF" stroke-width="3.11742" stroke-linecap="square"/>
<path d="M143.356 87.5469C149.407 86.7958 151.434 82.5068 153.371 75.6975" stroke="#DBFDFF" stroke-width="2.70586" stroke-linecap="round"/>
<path d="M143.901 87.5469C137.81 87.0461 135.824 82.5068 133.888 75.6975" stroke="#DBFDFF" stroke-width="2.70586" stroke-linecap="round"/>
<defs>
<filter id="filter0_d_213_1329" x="0" y="0" width="258" height="258" filterUnits="userSpaceOnUse" color-interpolation-filters="sRGB">
<feFlood flood-opacity="0" result="BackgroundImageFix"/>
<feColorMatrix in="SourceAlpha" type="matrix" values="0 0 0 0 0 0 0 0 0 0 0 0 0 0 0 0 0 0 127 0" result="hardAlpha"/>
<feOffset/>
<feGaussianBlur stdDeviation="2.5"/>
<feColorMatrix type="matrix" values="0 0 0 0 0 0 0 0 0 0.956897 0 0 0 0 1 0 0 0 0.76 0"/>
<feBlend mode="normal" in2="BackgroundImageFix" result="effect1_dropShadow_213_1329"/>
<feBlend mode="normal" in="SourceGraphic" in2="effect1_dropShadow_213_1329" result="shape"/>
</filter>
</defs>
</svg>
