<svg width="57" height="57" viewBox="0 0 57 57" fill="none" xmlns="http://www.w3.org/2000/svg">
<path d="M12.7715 43.8128L12.7715 23.9404L44.2714 23.9404V43.8128H12.7715Z" fill="#FFF5FB"/>
<path d="M19.2992 27.0132C18.9711 29.0206 16.6694 30.3588 15.5596 30.7769L15.5596 37.1941C17.7976 37.6907 18.9852 39.7668 19.2992 40.7427H37.3516C38.0106 38.6627 40.1833 37.3189 41.1873 36.907V30.7287C39.2514 30.358 37.9688 28.0972 37.5695 27.0132L19.2992 27.0132Z" stroke="#A64579" stroke-width="0.603145" stroke-linecap="square"/>
<path d="M42.0998 12.2617L12.7754 23.9474L44.2673 23.9474V32.6556L49.6461 30.6598L42.0998 12.2617Z" fill="#F1C0DD"/>
<path fill-rule="evenodd" clip-rule="evenodd" d="M37.2233 17.2065L37.3631 17.3681C37.699 17.7563 38.3383 18.3368 39.1434 18.7883C39.9493 19.2403 40.894 19.5481 41.8531 19.4362L42.0813 19.4096L43.9263 23.9494H43.3312L41.6921 20.0555C40.6471 20.1167 39.6588 19.7689 38.8484 19.3144C38.079 18.8829 37.4486 18.3435 37.0515 17.9224L21.7511 23.9467H20.3242L37.2233 17.2065Z" fill="white"/>
<path d="M28.1906 31.482L28.5342 29.9298L29.0486 31.5709C29.3146 32.4199 29.9798 33.0848 30.8292 33.3507L32.4799 33.8676L30.9005 34.2443C29.9041 34.482 29.1262 35.2596 28.8884 36.2556L28.5267 37.7707L28.2183 36.2872C27.9982 35.2282 27.1703 34.4007 26.1108 34.1806L24.6402 33.8752L26.1248 33.5469C27.1565 33.3186 27.9623 32.5132 28.1906 31.482Z" fill="#A64579" stroke="#A64579" stroke-width="0.153238"/>
<path fill-rule="evenodd" clip-rule="evenodd" d="M9.86035 18.2531V18.1324C10.5155 18.1324 11.8044 17.4788 11.8044 15.5684H11.9252C11.9252 15.9117 12.0353 16.5579 12.3322 17.1163C12.6286 17.6736 13.1041 18.1324 13.8337 18.1324V18.2531C13.5199 18.2531 13.043 18.382 12.6449 18.7607C12.2485 19.1377 11.9252 19.7674 11.9252 20.7786H11.8044C11.8044 20.4283 11.7217 19.7922 11.4351 19.2461C11.15 18.7027 10.6666 18.2531 9.86035 18.2531ZM11.8557 20.1116C11.9648 19.4446 12.2365 18.9825 12.5616 18.6732C12.8263 18.4214 13.1244 18.2728 13.3943 18.197C12.8477 18.0506 12.4721 17.6366 12.2255 17.173C12.0533 16.8491 11.9419 16.4976 11.8772 16.1875C11.6816 17.3869 10.9269 17.9848 10.3039 18.1795C10.9076 18.3148 11.2977 18.7242 11.5421 19.19C11.7003 19.4913 11.7984 19.8175 11.8557 20.1116Z" fill="#BA95A3" stroke="#BA95A3" stroke-width="0.153238" stroke-linecap="round"/>
<path fill-rule="evenodd" clip-rule="evenodd" d="M47.7808 35.2492V35.167C48.2265 35.167 49.1036 34.7223 49.1036 33.4224H49.1858C49.1858 33.656 49.2607 34.0957 49.4627 34.4756C49.6644 34.8549 49.988 35.167 50.4844 35.167V35.2492C50.2709 35.2492 49.9464 35.3369 49.6755 35.5945C49.4058 35.8511 49.1858 36.2796 49.1858 36.9676H49.1036C49.1036 36.7293 49.0473 36.2965 48.8523 35.9248C48.6583 35.5551 48.3294 35.2492 47.7808 35.2492ZM49.1385 36.5138C49.2127 36.0599 49.3976 35.7455 49.6188 35.535C49.7989 35.3637 50.0018 35.2626 50.1854 35.211C49.8135 35.1114 49.5579 34.8297 49.3901 34.5142C49.273 34.2939 49.1971 34.0546 49.1531 33.8437C49.02 34.6597 48.5065 35.0666 48.0826 35.1991C48.4934 35.2912 48.7588 35.5698 48.9251 35.8867C49.0327 36.0917 49.0995 36.3136 49.1385 36.5138Z" fill="white" stroke="white" stroke-width="0.153238" stroke-linecap="round"/>
<path fill-rule="evenodd" clip-rule="evenodd" d="M5.58838 42.0944V42.0122C6.03417 42.0122 6.9112 41.5675 6.9112 40.2676H6.99341C6.99341 40.5012 7.06828 40.9409 7.27034 41.3208C7.47201 41.7001 7.79559 42.0122 8.29199 42.0122V42.0944C8.07848 42.0944 7.75398 42.1821 7.48312 42.4398C7.21339 42.6963 6.99341 43.1248 6.99341 43.8128H6.9112C6.9112 43.5745 6.85495 43.1417 6.65993 42.7701C6.46591 42.4003 6.13697 42.0944 5.58838 42.0944ZM6.9461 43.359C7.02031 42.9051 7.2052 42.5907 7.42645 42.3802C7.60655 42.2089 7.80939 42.1078 7.99304 42.0562C7.62112 41.9566 7.36552 41.6749 7.19775 41.3594C7.08057 41.1391 7.00473 40.8998 6.9607 40.6889C6.82765 41.505 6.31407 41.9119 5.89018 42.0443C6.30098 42.1364 6.56642 42.415 6.73273 42.7319C6.84032 42.9369 6.9071 43.1589 6.9461 43.359Z" fill="white" stroke="white" stroke-width="0.153238" stroke-linecap="round"/>
</svg>
