<svg width="258" height="258" viewBox="0 0 258 258" fill="none" xmlns="http://www.w3.org/2000/svg">
<g filter="url(#filter0_d_213_1328)">
<circle cx="129" cy="129" r="120" fill="#F5ABD8"/>
<circle cx="129" cy="129" r="122" stroke="#33C1C8" stroke-width="4"/>
</g>
<path d="M74.4814 178.342L74.4814 107.369L186.981 107.369V178.342H74.4814Z" fill="#FFF5FB"/>
<path d="M97.7954 118.343C96.6235 125.512 88.4032 130.291 84.4395 131.785V154.703C92.4325 156.477 96.6738 163.892 97.7954 167.377H162.268C164.622 159.948 172.381 155.149 175.967 153.678V131.613C169.053 130.289 164.473 122.215 163.047 118.343L97.7954 118.343Z" stroke="#B22C7D" stroke-width="2.15409" stroke-linecap="square"/>
<path d="M179.226 65.6594L74.4966 107.394L186.968 107.394V138.495L206.178 131.367L179.226 65.6594Z" fill="#A7EAED"/>
<path fill-rule="evenodd" clip-rule="evenodd" d="M161.809 83.3192L162.309 83.8961C163.508 85.2825 165.791 87.3557 168.667 88.9684C171.545 90.5826 174.919 91.6819 178.344 91.2823L179.16 91.1872L185.749 107.401H183.623L177.77 93.4939C174.037 93.7125 170.508 92.4705 167.613 90.8472C164.866 89.3061 162.614 87.3797 161.196 85.8758L106.552 107.391H101.456L161.809 83.3192Z" fill="#B22C7D"/>
<path d="M129.549 134.303L130.776 128.76L132.613 134.621C133.564 137.653 135.939 140.028 138.973 140.977L144.868 142.823L139.228 144.169C135.669 145.018 132.891 147.795 132.041 151.352L130.749 156.763L129.648 151.465C128.862 147.683 125.905 144.727 122.121 143.941L116.869 142.851L122.171 141.678C125.856 140.863 128.734 137.986 129.549 134.303Z" fill="#B22C7D" stroke="#B22C7D" stroke-width="0.547279"/>
<path fill-rule="evenodd" clip-rule="evenodd" d="M64.0845 87.0577V86.6264C66.4243 86.6264 71.0276 84.2922 71.0276 77.4692H71.4591C71.4591 78.6954 71.852 81.0032 72.9126 82.9975C73.9711 84.9881 75.6694 86.6264 78.2749 86.6264V87.0577C77.1542 87.0577 75.451 87.5181 74.0294 88.8704C72.6137 90.217 71.4591 92.4659 71.4591 96.0771H71.0276C71.0276 94.8261 70.7323 92.5544 69.7087 90.604C68.6903 88.6634 66.9639 87.0577 64.0845 87.0577ZM71.2107 93.6952C71.6002 91.3129 72.5707 89.6626 73.7319 88.5579C74.6772 87.6588 75.7419 87.128 76.7058 86.8571C74.7537 86.3344 73.4122 84.8559 72.5316 83.1999C71.9165 82.0434 71.5185 80.7878 71.2873 79.6806C70.589 83.9639 67.8934 86.0995 65.6685 86.7949C67.8247 87.278 69.2179 88.7403 70.0908 90.4036C70.6555 91.4797 71.006 92.6447 71.2107 93.6952Z" fill="#C5FCFF" stroke="#C5FCFF" stroke-width="0.547279" stroke-linecap="round"/>
<path fill-rule="evenodd" clip-rule="evenodd" d="M199.515 147.757V147.463C201.107 147.463 204.239 145.875 204.239 141.232H204.533C204.533 142.067 204.8 143.637 205.522 144.994C206.242 146.349 207.398 147.463 209.17 147.463V147.757C208.408 147.757 207.249 148.07 206.282 148.99C205.318 149.907 204.533 151.437 204.533 153.894H204.239C204.239 153.043 204.038 151.497 203.342 150.17C202.649 148.849 201.474 147.757 199.515 147.757ZM204.364 152.273C204.629 150.652 205.289 149.529 206.079 148.778C206.722 148.166 207.447 147.805 208.103 147.62C206.774 147.265 205.862 146.259 205.262 145.132C204.844 144.345 204.573 143.49 204.416 142.737C203.941 145.652 202.106 147.105 200.593 147.578C202.06 147.907 203.008 148.902 203.602 150.033C203.986 150.766 204.224 151.558 204.364 152.273Z" fill="white" stroke="white" stroke-width="0.547279" stroke-linecap="round"/>
<path fill-rule="evenodd" clip-rule="evenodd" d="M48.8271 172.206V171.912C50.4192 171.912 53.5515 170.324 53.5515 165.681H53.8451C53.8451 166.515 54.1125 168.086 54.8341 169.443C55.5544 170.797 56.71 171.912 58.4829 171.912V172.206C57.7204 172.206 56.5614 172.519 55.5941 173.439C54.6308 174.355 53.8451 175.885 53.8451 178.343H53.5515C53.5515 177.492 53.3506 175.946 52.6541 174.619C51.9612 173.298 50.7864 172.206 48.8271 172.206ZM53.6762 176.722C53.9412 175.101 54.6015 173.978 55.3917 173.226C56.0349 172.615 56.7593 172.253 57.4152 172.069C56.0869 171.713 55.1741 170.707 54.5749 169.581C54.1564 168.794 53.8855 167.939 53.7283 167.186C53.2531 170.1 51.4189 171.554 49.905 172.027C51.3721 172.355 52.3201 173.35 52.9141 174.482C53.2984 175.214 53.5369 176.007 53.6762 176.722Z" fill="white" stroke="white" stroke-width="0.547279" stroke-linecap="round"/>
<defs>
<filter id="filter0_d_213_1328" x="0" y="0" width="258" height="258" filterUnits="userSpaceOnUse" color-interpolation-filters="sRGB">
<feFlood flood-opacity="0" result="BackgroundImageFix"/>
<feColorMatrix in="SourceAlpha" type="matrix" values="0 0 0 0 0 0 0 0 0 0 0 0 0 0 0 0 0 0 127 0" result="hardAlpha"/>
<feOffset/>
<feGaussianBlur stdDeviation="2.5"/>
<feColorMatrix type="matrix" values="0 0 0 0 0 0 0 0 0 0.956897 0 0 0 0 1 0 0 0 0.76 0"/>
<feBlend mode="normal" in2="BackgroundImageFix" result="effect1_dropShadow_213_1328"/>
<feBlend mode="normal" in="SourceGraphic" in2="effect1_dropShadow_213_1328" result="shape"/>
</filter>
</defs>
</svg>
