<svg width="57" height="40" viewBox="0 0 57 40" fill="none" xmlns="http://www.w3.org/2000/svg">
<path d="M9.92187 39.783L9.92188 15.1614L48.9497 15.1614L48.9497 39.783L9.92187 39.783Z" fill="#FFEE97"/>
<path d="M18.0098 18.9685C17.6033 21.4556 14.7515 23.1136 13.3765 23.6317L13.3765 31.5825C16.1494 32.1978 17.6208 34.77 18.0098 35.9792H40.3764C41.1929 33.4021 43.8849 31.7372 45.1288 31.2268V23.572C42.7303 23.1127 41.1412 20.3116 40.6465 18.9685L18.0098 18.9685Z" stroke="#732D72" stroke-width="0.747286" stroke-linecap="square"/>
<path d="M46.2597 0.69165L9.92725 15.1701L48.9452 15.1701L48.9452 25.9593L55.6094 23.4866L46.2597 0.69165Z" fill="#732D72"/>
<path fill-rule="evenodd" clip-rule="evenodd" d="M40.2179 6.81812L40.3911 7.01824C40.8073 7.4992 41.5994 8.21843 42.5969 8.7779C43.5954 9.33788 44.7659 9.71925 45.9542 9.58062L46.237 9.54763L48.5229 15.1725H47.7855L45.7547 10.3479C44.46 10.4237 43.2355 9.99283 42.2314 9.42967C41.2782 8.89507 40.4971 8.22675 40.0051 7.70505L21.0482 15.1691H19.2803L40.2179 6.81812Z" fill="#FFEE97"/>
<path d="M29.0256 24.5052L29.4513 22.582L30.0886 24.6154C30.4183 25.6673 31.2424 26.4911 32.2947 26.8206L34.34 27.461L32.3832 27.9277C31.1486 28.2222 30.1847 29.1856 29.8901 30.4196L29.442 32.2968L29.0599 30.4588C28.7872 29.1467 27.7615 28.1214 26.4487 27.8488L24.6267 27.4704L26.4661 27.0635C27.7444 26.7808 28.7427 25.7829 29.0256 24.5052Z" fill="#732D72" stroke="#FFEE97" stroke-width="0.189859"/>
<path fill-rule="evenodd" clip-rule="evenodd" d="M6.31445 8.11543V7.96581C7.12617 7.96581 8.72312 7.15605 8.72312 4.78906H8.87281C8.87281 5.21442 9.00913 6.01504 9.37705 6.70691C9.74428 7.39747 10.3335 7.96581 11.2373 7.96581V8.11543C10.8486 8.11543 10.2577 8.27515 9.7645 8.74429C9.27336 9.21147 8.87281 9.99163 8.87281 11.2444H8.72312C8.72312 10.8104 8.62069 10.0224 8.26559 9.3457C7.9123 8.6725 7.31336 8.11543 6.31445 8.11543ZM8.78667 10.4181C8.92178 9.59164 9.25845 9.01912 9.66131 8.6359C9.98924 8.32396 10.3586 8.13985 10.693 8.04585C10.0158 7.86454 9.55037 7.35161 9.24488 6.77713C9.03152 6.37591 8.89342 5.94033 8.81324 5.55622C8.57098 7.04214 7.63583 7.78304 6.86399 8.02428C7.61199 8.19187 8.09532 8.69915 8.39814 9.2762C8.59406 9.64952 8.71565 10.0537 8.78667 10.4181Z" fill="#FFEE97" stroke="#FFEE97" stroke-width="0.189859" stroke-linecap="round"/>
<path fill-rule="evenodd" clip-rule="evenodd" d="M53.2979 29.1726V29.0708C53.8502 29.0708 54.9368 28.5198 54.9368 26.9092H55.0387C55.0387 27.1986 55.1314 27.7434 55.3818 28.2142C55.6316 28.684 56.0325 29.0708 56.6476 29.0708V29.1726C56.383 29.1726 55.981 29.2813 55.6454 29.6005C55.3112 29.9184 55.0387 30.4492 55.0387 31.3017H54.9368C54.9368 31.0064 54.8671 30.4701 54.6255 30.0097C54.3851 29.5516 53.9776 29.1726 53.2979 29.1726ZM54.98 30.7394C55.072 30.1771 55.3011 29.7875 55.5752 29.5267C55.7983 29.3145 56.0497 29.1892 56.2772 29.1252C55.8164 29.0019 55.4997 28.6528 55.2918 28.2619C55.1467 27.9889 55.0527 27.6925 54.9981 27.4312C54.8333 28.4423 54.197 28.9464 53.6718 29.1106C54.1807 29.2246 54.5096 29.5698 54.7157 29.9624C54.849 30.2164 54.9317 30.4914 54.98 30.7394Z" fill="white" stroke="white" stroke-width="0.189859" stroke-linecap="round"/>
<path fill-rule="evenodd" clip-rule="evenodd" d="M1.02197 37.6543V37.5525C1.5743 37.5525 2.66093 37.0015 2.66093 35.3909H2.76278C2.76278 35.6803 2.85554 36.2251 3.10589 36.6959C3.35577 37.1657 3.75667 37.5525 4.37171 37.5525V37.6543C4.10716 37.6543 3.70511 37.763 3.36953 38.0822C3.03534 38.4001 2.76278 38.9309 2.76278 39.7834H2.66093C2.66093 39.4881 2.59123 38.9518 2.34961 38.4914C2.10921 38.0333 1.70167 37.6543 1.02197 37.6543ZM2.70417 39.2211C2.79611 38.6587 3.02519 38.2692 3.29931 38.0084C3.52245 37.7962 3.77377 37.6709 4.0013 37.6069C3.5405 37.4836 3.22383 37.1345 3.01596 36.7436C2.87078 36.4706 2.77681 36.1742 2.72225 35.9129C2.5574 36.924 1.92109 37.4281 1.3959 37.5922C1.90487 37.7063 2.23375 38.0515 2.4398 38.4441C2.57311 38.6981 2.65585 38.9731 2.70417 39.2211Z" fill="white" stroke="white" stroke-width="0.189859" stroke-linecap="round"/>
</svg>
