<svg width="56" height="55" viewBox="0 0 56 55" fill="none" xmlns="http://www.w3.org/2000/svg">
<rect x="30.3486" y="0.836426" width="26.052" height="45.6581" rx="2.74452" transform="rotate(15.6869 30.3486 0.836426)" fill="#FA9FE0"/>
<path d="M35.0034 2.1438L52.7884 7.13855C54.2477 7.54838 55.0985 9.06361 54.6887 10.5229L50.2022 26.4979L29.7749 20.7611L35.0034 2.1438Z" fill="#E06EC0"/>
<path d="M29.6066 3.47872C30.0164 2.01942 31.5316 1.16866 32.9909 1.57849L35.003 2.14355L22.6579 46.1011L18.0036 44.7939L29.6066 3.47872Z" fill="#FFADFE"/>
<path d="M37.8176 11.7588C36.8882 11.502 35.9527 11.7333 35.6011 11.881C35.9097 12.8635 36.7003 13.4142 37.057 13.5668L39.2836 14.0616L41.2078 20.3839L42.5822 20.7963L42.4173 14.9687L44.8363 15.6009L45.8534 17.4152L46.8429 17.6626L46.6505 15.1061L47.9425 12.9346L47.1453 12.7146L45.3036 13.7317L42.9671 13.127L45.8534 8.09657L44.6164 7.79419L39.7589 12.2632C39.499 12.2021 38.747 12.0156 37.8176 11.7588Z" fill="#FFEE97"/>
<path d="M19.5356 8.94604L19.9516 10.2734C20.1307 10.8451 20.5787 11.2929 21.1507 11.472L22.4786 11.8878L21.1966 12.1936C20.5255 12.3537 20.0015 12.8774 19.8414 13.5482L19.5354 14.8296L19.2733 13.5686C19.1251 12.8553 18.5675 12.298 17.854 12.1498L16.5924 11.8878L17.863 11.6068C18.5579 11.4531 19.1006 10.9107 19.2544 10.2161L19.5356 8.94604Z" fill="#FFADFE"/>
<path d="M46.8536 50.3606L47.0056 49.6742L47.2401 50.4224C47.4135 50.976 47.8472 51.4095 48.401 51.5829L49.1639 51.8218L48.4506 51.9919C47.8009 52.1469 47.2937 52.6539 47.1386 53.3032L46.9931 53.9127L46.871 53.3252C46.7275 52.6347 46.1877 52.0951 45.4969 51.9517L44.9311 51.8342L45.5066 51.7069C46.1793 51.5581 46.7047 51.033 46.8536 50.3606Z" stroke="#FFEE97" stroke-width="0.249502"/>
<path d="M3.51181 18.9986L3.63511 18.4418L3.83199 19.0701C4.02546 19.6875 4.50923 20.1711 5.12695 20.3645L5.77703 20.5681L5.18432 20.7095C4.45963 20.8823 3.89378 21.4479 3.72081 22.1722L3.6164 22.6095L3.5308 22.1976C3.37074 21.4273 2.76865 20.8255 1.99806 20.6654L1.619 20.5867L2.00927 20.5004C2.75965 20.3344 3.34572 19.7486 3.51181 18.9986Z" stroke="#FFEE97" stroke-width="0.374253"/>
<path d="M9.46582 27.0342L9.46553 32.8471L9.46525 38.4359H16.0943L16.0946 32.3733L16.0949 27.0342C13.1611 28.9524 10.4531 27.8334 9.46582 27.0342Z" fill="#FFADFE"/>
<path d="M19.5991 29.5254C17.2295 30.5409 14.3086 34.4984 13.0861 36.426L13.0858 42.5067C13.7894 42.3984 15.5215 42.3118 16.8215 42.8317C17.1464 42.9401 17.7964 43.4167 17.7964 44.4567C17.7963 45.4967 17.8652 48.592 17.8997 50.0096C19.7802 50.4328 24.7602 50.9923 29.048 49.9768C33.3358 48.9613 34.0318 45.4164 33.8439 43.7709C33.7314 35.8724 28.5318 30.9828 25.9461 29.5254C23.915 30.4281 20.8685 29.9015 19.5991 29.5254Z" fill="#FFEE97"/>
<path d="M27.4114 48.0307C28.8116 48.0897 31.6652 47.4028 31.8776 44.1838" stroke="#E8B3E7" stroke-width="0.945163" stroke-linecap="round"/>
<path d="M19.7738 32.1322C20.174 31.3898 21.1797 29.9225 22.001 29.9921" stroke="#E8B3E7" stroke-width="0.945163" stroke-linecap="round"/>
<path d="M25.1034 32.1322C24.7033 31.3898 23.6977 29.9225 22.8765 29.9921" stroke="#E8B3E7" stroke-width="0.945163" stroke-linecap="round"/>
<path d="M22.4878 30.0264L22.4877 31.8705" stroke="#E8B3E7" stroke-width="0.945163" stroke-linecap="round"/>
<path d="M17.7234 23.9379C17.0736 26.3634 18.6616 28.6483 19.5368 29.4875C22.7496 30.5143 25.1734 29.9154 25.9838 29.4875C28.1754 27.2504 28.0908 24.0613 27.6242 23.5664C27.1576 23.0714 26.1537 24.6147 25.0791 24.6147C24.0045 24.6147 24.0611 23.6229 22.7038 23.5664C21.3464 23.5098 20.8635 25.9141 19.5371 24.6147C18.476 23.5752 17.8858 23.7304 17.7234 23.9379Z" fill="#FFEE97"/>
<path d="M6.48193 34.1836L6.48119 49.092C6.48119 49.092 7.93991 50.1695 9.79574 50.1695C12.5605 50.1695 13.1103 49.092 13.1103 49.092L13.1106 42.3607L13.111 34.1836C10.1772 36.1018 7.4692 34.9828 6.48193 34.1836Z" fill="#FA9FE0"/>
<path d="M11.4233 44.0508L11.423 50.7966C11.423 51.1378 11.605 51.4576 11.9145 51.6012C14.1655 52.6459 16.289 52.1483 17.4588 51.5981C17.7552 51.4586 17.9229 51.1495 17.9229 50.8218L17.9232 43.9338C14.9894 45.852 12.4106 44.85 11.4233 44.0508Z" fill="#FFADFE"/>
<ellipse rx="3.31454" ry="1.46183" transform="matrix(1 0 -4.97048e-05 1 9.7964 34.3219)" fill="#E06EC0"/>
<ellipse rx="3.24994" ry="1.62497" transform="matrix(1 0 -4.97048e-05 1 14.6732 43.9333)" fill="#E06EC0"/>
<ellipse rx="3.31454" ry="1.46183" transform="matrix(1 0 -4.97048e-05 1 12.7803 27.1774)" fill="#E06EC0"/>
<path d="M27.8124 25.739C28.6049 25.8424 30.0684 26.4963 29.5825 28.2846C29.0965 30.0729 27.0886 29.8136 26.1453 29.4604C27.5796 29.5207 30.7272 29.9746 31.8436 31.3081" stroke="#E8B3E7" stroke-width="0.945163" stroke-linecap="round"/>
<path d="M22.876 36.3838L23.4373 38.1753C23.6791 38.947 24.2838 39.5514 25.0558 39.7931L26.8481 40.3543L25.1177 40.7671C24.212 40.9831 23.5048 41.69 23.2886 42.5953L22.8756 44.3249L22.5219 42.6229C22.3219 41.6602 21.5693 40.9079 20.6062 40.7079L18.9034 40.3543L20.6185 39.975C21.5563 39.7676 22.2888 39.0354 22.4964 38.098L22.876 36.3838Z" fill="#732D72"/>
<path d="M19.4224 29.5072C21.0473 29.9405 24.5264 30.4726 26.3047 29.3528" stroke="#E8B3E7" stroke-width="1.08892" stroke-linecap="square"/>
<path d="M22.4789 30.0263C23.7405 29.8697 24.1632 28.9754 24.5669 27.5557" stroke="#E8B3E7" stroke-width="0.945163" stroke-linecap="round"/>
<path d="M22.5921 30.0268C21.322 29.9224 20.908 28.9759 20.5044 27.5562" stroke="#E8B3E7" stroke-width="0.945163" stroke-linecap="round"/>
</svg>
