<svg width="59" height="51" viewBox="0 0 59 51" fill="none" xmlns="http://www.w3.org/2000/svg">
<path d="M10.2661 5.42791C10.2661 4.02297 11.405 2.88403 12.81 2.88403L48.3745 2.88403C49.7795 2.88403 50.9184 4.02297 50.9184 5.42791L50.9184 29.5499L10.2661 29.5499L10.2661 5.42791Z" fill="#FFADFE"/>
<rect x="12.2368" y="4.81201" width="36.7109" height="22.8097" rx="2.1623" fill="#FFEE97"/>
<path d="M6.41211 37.2352L10.247 29.5405L50.9123 29.5405L54.9124 37.1633L54.9124 38.0461L6.41211 38.0461L6.41211 37.2352Z" fill="#AE4096"/>
<path d="M6.41113 38.0459L54.9125 38.0459C54.9125 39.2845 53.9084 40.2886 52.6697 40.2886L8.65384 40.2886C7.41523 40.2886 6.41113 39.2845 6.41113 38.0459Z" fill="#FFADFE"/>
<path d="M27.1979 35.0438C26.7669 36.2176 26.0972 37.7956 26.0259 38.0452L35.2985 38.0452L34.5171 35.0933C34.399 34.647 33.9951 34.3362 33.5334 34.3362L28.1907 34.3362C27.7453 34.3362 27.3514 34.6257 27.1979 35.0438Z" fill="#732D72"/>
<ellipse cx="30.592" cy="12.6343" rx="4.1467" ry="4.1467" fill="#732D72"/>
<path d="M21.438 25.2773C21.438 20.9955 24.9091 17.5244 29.1908 17.5244L31.9932 17.5244C36.275 17.5244 39.7461 20.9955 39.7461 25.2773C39.7461 25.7054 39.399 26.0525 38.9708 26.0525L22.2133 26.0525C21.7851 26.0525 21.438 25.7054 21.438 25.2773Z" fill="#732D72"/>
<path d="M25.8165 23.44L25.1322 23.44C24.9791 23.44 24.8605 23.306 24.8911 23.156C25.063 22.3138 25.5876 21.0415 26.6888 21.0415C27.7921 21.0415 28.2898 22.3187 28.443 23.1609C28.47 23.3095 28.352 23.44 28.201 23.44L27.5945 23.44" stroke="#E06EC0" stroke-width="0.508776" stroke-linecap="round"/>
<path d="M26.3564 18.0584L26.3565 20.7937L26.9854 20.7937L26.9854 17.842L26.656 17.9456L26.3564 18.0584Z" fill="#E06EC0"/>
<path d="M34.8228 18.0592L34.8227 20.7944L34.1938 20.7944L34.1938 17.8428L34.5232 17.9463L34.8228 18.0592Z" fill="#E06EC0"/>
<path d="M35.4615 21.7884C35.4615 22.3149 35.0346 22.7418 34.5081 22.7418C33.9815 22.7418 33.5547 22.3149 33.5547 21.7884C33.5547 21.2618 33.9815 20.835 34.5081 20.835C35.0346 20.835 35.4615 21.2618 35.4615 21.7884Z" stroke="#E06EC0" stroke-width="0.508776"/>
<path d="M26.6385 7.70895C26.62 7.39345 26.8906 7.13758 27.2046 7.1737L30.5918 7.56343L33.9792 7.17367C34.2931 7.13756 34.5637 7.39326 34.5453 7.70867L34.3598 10.8953L26.8257 10.8993L26.6385 7.70895Z" fill="#E06EC0"/>
<path d="M30.5923 8.11768L30.7401 8.58942C30.8038 8.79264 30.963 8.95179 31.1663 9.01544L31.6382 9.16322L31.1826 9.27191C30.9441 9.3288 30.7579 9.51493 30.7009 9.75333L30.5922 10.2088L30.499 9.76058C30.4464 9.50708 30.2482 9.309 29.9946 9.25633L29.5462 9.16322L29.9978 9.06333C30.2448 9.00871 30.4377 8.81592 30.4923 8.56907L30.5923 8.11768Z" fill="#FFEE97"/>
<path d="M56.1377 19.3181L56.5056 20.4923C56.6641 20.9981 57.0604 21.3943 57.5664 21.5527L58.7411 21.9205L57.607 22.191C57.0134 22.3326 56.5498 22.7959 56.4081 23.3893L56.1374 24.5229L55.9056 23.4074C55.7745 22.7764 55.2813 22.2834 54.65 22.1523L53.534 21.9205L54.658 21.6719C55.2727 21.5359 55.7528 21.0561 55.8889 20.4417L56.1377 19.3181Z" fill="#FFEE97"/>
<path d="M3.38035 1.42185L3.50632 0.852945L3.70744 1.49479C3.90487 2.12485 4.39852 2.6183 5.02886 2.81567L5.69289 3.02359L5.08739 3.16802C4.3479 3.34441 3.77049 3.92153 3.59399 4.66068L3.48725 5.10767L3.39973 4.68652C3.2364 3.90053 2.62201 3.28638 1.83567 3.12309L1.44803 3.04259L1.84711 2.95432C2.61283 2.78495 3.21087 2.18721 3.38035 1.42185Z" stroke="white" stroke-width="0.381582"/>
<path d="M16.1943 45.4507L16.3203 44.8818L16.5214 45.5236C16.7188 46.1537 17.2125 46.6471 17.8428 46.8445L18.5069 47.0524L17.9014 47.1968C17.1619 47.3732 16.5845 47.9503 16.408 48.6895L16.3012 49.1365L16.2137 48.7153C16.0504 47.9293 15.436 47.3152 14.6496 47.1519L14.262 47.0714L14.6611 46.9831C15.4268 46.8138 16.0248 46.216 16.1943 45.4507Z" stroke="#E06EC0" stroke-width="0.381582"/>
</svg>
