<svg width="70" height="70" viewBox="0 0 70 70" fill="none" xmlns="http://www.w3.org/2000/svg">
<path fill-rule="evenodd" clip-rule="evenodd" d="M6.31201 12.5927C6.31201 11.2368 7.41115 10.1377 8.767 10.1377L20.3094 10.1377C20.8179 10.1377 21.23 10.5499 21.23 11.0583C21.23 11.5668 20.8179 11.9789 20.3094 11.9789L9.38075 11.9789C8.70282 11.9789 8.15326 12.5285 8.15326 13.2064L8.15326 20.0406C8.15326 20.5491 7.74108 20.9612 7.23263 20.9612C6.72419 20.9612 6.31201 20.5491 6.31201 20.0406L6.31201 12.5927ZM49.2249 11.0583C49.2249 10.5499 49.637 10.1377 50.1455 10.1377L61.6879 10.1377C63.0437 10.1377 64.1429 11.2368 64.1429 12.5927L64.1429 20.0406C64.1429 20.5491 63.7307 20.9612 63.2223 20.9612C62.7138 20.9612 62.3016 20.5491 62.3016 20.0406L62.3016 13.2064C62.3016 12.5285 61.7521 11.9789 61.0741 11.9789L50.1455 11.9789C49.637 11.9789 49.2249 11.5668 49.2249 11.0583ZM6.31201 50.5257C6.31201 50.0172 6.72419 49.6051 7.23263 49.6051C7.74108 49.6051 8.15326 50.0172 8.15326 50.5257L8.15326 57.3599C8.15326 58.0378 8.70283 58.5874 9.38075 58.5874L20.3094 58.5874C20.8179 58.5874 21.23 58.9995 21.23 59.508C21.23 60.0164 20.8179 60.4286 20.3094 60.4286L8.767 60.4286C7.41115 60.4286 6.31201 59.3295 6.31201 57.9736L6.31201 50.5257ZM63.2223 49.6051C63.7307 49.6051 64.1429 50.0172 64.1429 50.5257L64.1429 57.9736C64.1429 59.3295 63.0437 60.4286 61.6879 60.4286L50.1455 60.4286C49.637 60.4286 49.2249 60.0164 49.2249 59.508C49.2249 58.9995 49.637 58.5874 50.1455 58.5874L61.0741 58.5874C61.7521 58.5874 62.3016 58.0378 62.3016 57.3599L62.3016 50.5257C62.3016 50.0172 62.7138 49.6051 63.2223 49.6051Z" fill="#FFEE97"/>
<path d="M17.0098 28.5398L17.4045 29.7994C17.5746 30.3421 17.9997 30.767 18.5426 30.937L19.8028 31.3316L18.5862 31.6218C17.9493 31.7737 17.4521 32.2707 17.3001 32.9073L17.0098 34.1234L16.761 32.9267C16.6203 32.2498 16.0912 31.7209 15.414 31.5802L14.2167 31.3316L15.4226 31.0649C16.082 30.919 16.597 30.4042 16.7429 29.7451L17.0098 28.5398Z" fill="#F1C0DD"/>
<path d="M51.0327 44.1438L51.2893 44.9626C51.3999 45.3153 51.6762 45.5915 52.0291 45.702L52.8483 45.9585L52.0574 46.1472C51.6434 46.2459 51.3202 46.569 51.2214 46.9828L51.0327 47.7732L50.871 46.9953C50.7796 46.5553 50.4356 46.2115 49.9954 46.1201L49.2172 45.9585L50.001 45.7851C50.4296 45.6903 50.7644 45.3557 50.8593 44.9273L51.0327 44.1438Z" fill="#FFADFE"/>
<mask id="path-4-inside-1_723_255" fill="white">
<path fill-rule="evenodd" clip-rule="evenodd" d="M23.0264 47.599L23.0264 47.5252C23.4268 47.5252 24.2145 47.1258 24.2145 45.9583L24.2883 45.9583C24.2883 46.1681 24.3555 46.563 24.537 46.9042C24.7182 47.2449 25.0088 47.5252 25.4546 47.5252L25.4546 47.599C25.2629 47.599 24.9714 47.6778 24.7281 47.9092C24.4859 48.1396 24.2883 48.5245 24.2883 49.1424L24.2145 49.1424C24.2145 48.9284 24.1639 48.5396 23.9888 48.2059C23.8145 47.8738 23.5191 47.599 23.0264 47.599ZM24.2458 48.7348C24.3125 48.3272 24.4785 48.0448 24.6772 47.8557C24.839 47.7019 25.0212 47.6111 25.1861 47.5647C24.8521 47.4753 24.6225 47.2223 24.4718 46.9389C24.3666 46.741 24.2985 46.5261 24.2589 46.3367C24.1394 47.0696 23.6781 47.4351 23.2974 47.5541C23.6664 47.6367 23.9048 47.8869 24.0542 48.1716C24.1508 48.3557 24.2108 48.5551 24.2458 48.7348Z"/>
</mask>
<path fill-rule="evenodd" clip-rule="evenodd" d="M23.0264 47.599L23.0264 47.5252C23.4268 47.5252 24.2145 47.1258 24.2145 45.9583L24.2883 45.9583C24.2883 46.1681 24.3555 46.563 24.537 46.9042C24.7182 47.2449 25.0088 47.5252 25.4546 47.5252L25.4546 47.599C25.2629 47.599 24.9714 47.6778 24.7281 47.9092C24.4859 48.1396 24.2883 48.5245 24.2883 49.1424L24.2145 49.1424C24.2145 48.9284 24.1639 48.5396 23.9888 48.2059C23.8145 47.8738 23.5191 47.599 23.0264 47.599ZM24.2458 48.7348C24.3125 48.3272 24.4785 48.0448 24.6772 47.8557C24.839 47.7019 25.0212 47.6111 25.1861 47.5647C24.8521 47.4753 24.6225 47.2223 24.4718 46.9389C24.3666 46.741 24.2985 46.5261 24.2589 46.3367C24.1394 47.0696 23.6781 47.4351 23.2974 47.5541C23.6664 47.6367 23.9048 47.8869 24.0542 48.1716C24.1508 48.3557 24.2108 48.5551 24.2458 48.7348Z" fill="white"/>
<path d="M23.0264 47.5252L23.0264 45.8059L21.3071 45.8059L21.3071 47.5252L23.0264 47.5252ZM23.0264 47.599L21.3071 47.599L21.3071 49.3183L23.0264 49.3183L23.0264 47.599ZM24.2145 45.9583L24.2145 44.2389L22.4952 44.2389L22.4952 45.9583L24.2145 45.9583ZM24.2883 45.9583L26.0076 45.9583L26.0076 44.2389L24.2883 44.2389L24.2883 45.9583ZM24.537 46.9042L26.055 46.097L26.055 46.097L24.537 46.9042ZM25.4546 47.5252L27.1739 47.5252L27.1739 45.8059L25.4546 45.8059L25.4546 47.5252ZM25.4546 47.599L25.4546 49.3183L27.1739 49.3183L27.1739 47.599L25.4546 47.599ZM24.7281 47.9092L25.9131 49.1549L24.7281 47.9092ZM24.2883 49.1424L24.2883 50.8617L26.0076 50.8617L26.0076 49.1424L24.2883 49.1424ZM24.2145 49.1424L22.4952 49.1424L22.4952 50.8617L24.2145 50.8617L24.2145 49.1424ZM23.9888 48.2059L25.5112 47.4069L25.5112 47.4069L23.9888 48.2059ZM24.6772 47.8557L23.4923 46.61L23.4923 46.61L24.6772 47.8557ZM24.2458 48.7348L22.5582 49.0637L25.9426 49.0122L24.2458 48.7348ZM25.1861 47.5647L25.6514 49.2198L31.683 47.5242L25.6308 45.9039L25.1861 47.5647ZM24.4718 46.9389L25.9898 46.1316L25.9898 46.1316L24.4718 46.9389ZM24.2589 46.3367L25.9419 45.9853L22.562 46.06L24.2589 46.3367ZM23.2974 47.5541L22.7845 45.913L16.6571 47.8282L22.9215 49.2318L23.2974 47.5541ZM24.0542 48.1716L25.5766 47.3726L25.5766 47.3726L24.0542 48.1716ZM21.3071 47.5252L21.3071 47.599L24.7457 47.599L24.7457 47.5252L21.3071 47.5252ZM22.4952 45.9583C22.4952 46.0544 22.4795 46.0805 22.4873 46.0609C22.4954 46.0404 22.5167 46.0018 22.5577 45.9609C22.5957 45.9232 22.644 45.8898 22.7046 45.8639C22.7549 45.8424 22.8603 45.8059 23.0264 45.8059L23.0264 49.2445C24.3685 49.2445 25.9338 48.0831 25.9338 45.9583L22.4952 45.9583ZM24.2883 44.2389L24.2145 44.2389L24.2145 47.6776L24.2883 47.6776L24.2883 44.2389ZM26.055 46.097C26.053 46.0931 26.0469 46.0807 26.039 46.059C26.0313 46.0376 26.0241 46.013 26.0181 45.9876C26.012 45.962 26.0087 45.9415 26.0072 45.9297C26.0053 45.915 26.0076 45.9247 26.0076 45.9583L22.569 45.9583C22.569 46.4182 22.6914 47.0953 23.019 47.7115L26.055 46.097ZM25.4546 45.8059C25.5267 45.8059 25.6126 45.8178 25.703 45.8486C25.7926 45.8791 25.8671 45.9215 25.9246 45.9644C26.0326 46.045 26.064 46.1138 26.055 46.097L23.019 47.7115C23.363 48.3583 24.1285 49.2445 25.4546 49.2445L25.4546 45.8059ZM27.1739 47.599L27.1739 47.5252L23.7353 47.5252L23.7353 47.599L27.1739 47.599ZM25.9131 49.1549C25.8557 49.2095 25.7903 49.2482 25.7244 49.2734C25.666 49.2957 25.5792 49.3183 25.4546 49.3183L25.4546 45.8797C24.86 45.8797 24.1327 46.1027 23.5432 46.6635L25.9131 49.1549ZM26.0076 49.1424C26.0076 49.0173 26.0273 48.9846 26.017 49.0107C26.0122 49.023 26.002 49.0449 25.9835 49.0722C25.9652 49.0995 25.9417 49.1278 25.9131 49.1549L23.5432 46.6635C22.9075 47.2681 22.569 48.1308 22.569 49.1424L26.0076 49.1424ZM24.2145 50.8617L24.2883 50.8617L24.2883 47.4231L24.2145 47.4231L24.2145 50.8617ZM22.4664 49.0048C22.4627 48.9978 22.4647 49.0003 22.4695 49.0144C22.4741 49.0281 22.4794 49.047 22.4842 49.0698C22.4889 49.0926 22.492 49.1139 22.4938 49.1308C22.4957 49.1488 22.4952 49.1536 22.4952 49.1424L25.9338 49.1424C25.9338 48.7417 25.8524 48.0572 25.5112 47.4069L22.4664 49.0048ZM23.0264 49.3183C22.931 49.3183 22.7813 49.2847 22.6402 49.1858C22.5176 49.0999 22.4711 49.0137 22.4664 49.0048L25.5112 47.4069C25.1287 46.6781 24.3289 45.8797 23.0264 45.8797L23.0264 49.3183ZM23.4923 46.61C23.0028 47.0756 22.6718 47.7068 22.549 48.4574L25.9426 49.0122C25.9492 48.972 25.9546 48.9731 25.9409 48.9998C25.9268 49.0271 25.9014 49.0642 25.8622 49.1015L23.4923 46.61ZM24.7208 45.9095C24.3151 46.0236 23.8777 46.2434 23.4923 46.61L25.8622 49.1015C25.8003 49.1604 25.7272 49.1985 25.6514 49.2198L24.7208 45.9095ZM22.9538 47.7461C23.2289 48.2634 23.7757 48.9669 24.7415 49.2255L25.6308 45.9039C25.7707 45.9413 25.8726 46.0111 25.9318 46.0662C25.9844 46.1152 25.9978 46.1466 25.9898 46.1316L22.9538 47.7461ZM22.5759 46.688C22.6406 46.9982 22.7559 47.3739 22.9538 47.7461L25.9898 46.1316C25.9854 46.1232 25.9766 46.1046 25.9666 46.0754C25.9566 46.0466 25.9482 46.0153 25.9419 45.9853L22.5759 46.688ZM23.8103 49.1951C24.7666 48.8962 25.7242 48.0342 25.9558 46.6133L22.562 46.06C22.557 46.0908 22.5522 46.0955 22.5583 46.0828C22.5643 46.0701 22.5766 46.0494 22.5975 46.0262C22.6362 45.9832 22.6949 45.9411 22.7845 45.913L23.8103 49.1951ZM25.5766 47.3726C25.2717 46.7918 24.6799 46.1019 23.6733 45.8763L22.9215 49.2318C22.809 49.2066 22.7053 49.1502 22.6282 49.0829C22.5594 49.0229 22.5336 48.9739 22.5318 48.9705L25.5766 47.3726ZM25.9334 48.406C25.8755 48.1088 25.7701 47.7414 25.5766 47.3726L22.5318 48.9705C22.5301 48.9673 22.534 48.9743 22.5404 48.9936C22.5466 49.0125 22.5529 49.0364 22.5582 49.0637L25.9334 48.406Z" fill="#FFEE97" mask="url(#path-4-inside-1_723_255)"/>
<mask id="path-6-inside-2_723_255" fill="white">
<path fill-rule="evenodd" clip-rule="evenodd" d="M50.0488 24.0353L50.0488 23.9017C50.7736 23.9017 52.1995 23.1787 52.1995 21.0652L52.3332 21.0652C52.3332 21.445 52.4549 22.1599 52.7834 22.7776C53.1113 23.3943 53.6374 23.9017 54.4445 23.9017L54.4445 24.0353C54.0974 24.0353 53.5698 24.1779 53.1294 24.5968C52.6909 25.014 52.3332 25.7106 52.3332 26.8292L52.1995 26.8292C52.1995 26.4417 52.1081 25.738 51.791 25.1338C51.4756 24.5327 50.9408 24.0353 50.0488 24.0353ZM52.2563 26.0914C52.3769 25.3534 52.6775 24.8422 53.0373 24.5001C53.3301 24.2215 53.6599 24.0571 53.9584 23.9732C53.3538 23.8113 52.9382 23.3533 52.6654 22.8403C52.4749 22.4821 52.3516 22.0932 52.28 21.7502C52.0637 23.077 51.2287 23.7385 50.5395 23.9539C51.2074 24.1036 51.639 24.5565 51.9094 25.0718C52.0843 25.4051 52.1929 25.766 52.2563 26.0914Z"/>
</mask>
<path fill-rule="evenodd" clip-rule="evenodd" d="M50.0488 24.0353L50.0488 23.9017C50.7736 23.9017 52.1995 23.1787 52.1995 21.0652L52.3332 21.0652C52.3332 21.445 52.4549 22.1599 52.7834 22.7776C53.1113 23.3943 53.6374 23.9017 54.4445 23.9017L54.4445 24.0353C54.0974 24.0353 53.5698 24.1779 53.1294 24.5968C52.6909 25.014 52.3332 25.7106 52.3332 26.8292L52.1995 26.8292C52.1995 26.4417 52.1081 25.738 51.791 25.1338C51.4756 24.5327 50.9408 24.0353 50.0488 24.0353ZM52.2563 26.0914C52.3769 25.3534 52.6775 24.8422 53.0373 24.5001C53.3301 24.2215 53.6599 24.0571 53.9584 23.9732C53.3538 23.8113 52.9382 23.3533 52.6654 22.8403C52.4749 22.4821 52.3516 22.0932 52.28 21.7502C52.0637 23.077 51.2287 23.7385 50.5395 23.9539C51.2074 24.1036 51.639 24.5565 51.9094 25.0718C52.0843 25.4051 52.1929 25.766 52.2563 26.0914Z" fill="white"/>
<path d="M50.0488 23.9017L50.0488 22.1824L48.3295 22.1824L48.3295 23.9017L50.0488 23.9017ZM50.0488 24.0353L48.3295 24.0353L48.3295 25.7546L50.0488 25.7546L50.0488 24.0353ZM52.1995 21.0652L52.1995 19.3459L50.4802 19.3459L50.4802 21.0652L52.1995 21.0652ZM52.3332 21.0652L54.0525 21.0652L54.0525 19.3459L52.3332 19.3459L52.3332 21.0652ZM52.7834 22.7776L54.3015 21.9704L54.3015 21.9704L52.7834 22.7776ZM54.4445 23.9017L56.1638 23.9017L56.1638 22.1824L54.4445 22.1824L54.4445 23.9017ZM54.4445 24.0353L54.4445 25.7546L56.1638 25.7546L56.1638 24.0353L54.4445 24.0353ZM53.1294 24.5968L54.3144 25.8426L54.3144 25.8426L53.1294 24.5968ZM52.3332 26.8292L52.3332 28.5485L54.0525 28.5485L54.0525 26.8292L52.3332 26.8292ZM52.1995 26.8292L50.4802 26.8292L50.4802 28.5485L52.1995 28.5485L52.1995 26.8292ZM51.791 25.1338L53.3134 24.3349L53.3134 24.3349L51.791 25.1338ZM53.0373 24.5001L51.8523 23.2543L51.8523 23.2543L53.0373 24.5001ZM52.2563 26.0914L50.5687 26.4202L53.9531 26.3688L52.2563 26.0914ZM53.9584 23.9732L54.4237 25.6283L60.4553 23.9327L54.4031 22.3124L53.9584 23.9732ZM52.6654 22.8403L54.1834 22.0331L54.1834 22.0331L52.6654 22.8403ZM52.28 21.7502L53.963 21.3989L50.5831 21.4735L52.28 21.7502ZM50.5395 23.9539L50.0266 22.3129L43.8992 24.2281L50.1636 25.6316L50.5395 23.9539ZM51.9094 25.0718L53.4318 24.2728L53.4318 24.2728L51.9094 25.0718ZM48.3295 23.9017L48.3295 24.0353L51.7681 24.0353L51.7681 23.9017L48.3295 23.9017ZM50.4802 21.0652C50.4802 21.7043 50.2789 21.9621 50.1832 22.0574C50.121 22.1192 50.0592 22.1558 50.0143 22.175C49.9592 22.1986 49.9639 22.1824 50.0488 22.1824L50.0488 25.621C51.7154 25.621 53.9189 24.136 53.9189 21.0652L50.4802 21.0652ZM52.3332 19.3459L52.1995 19.3459L52.1995 22.7845L52.3332 22.7845L52.3332 19.3459ZM54.3015 21.9704C54.221 21.8192 54.1541 21.631 54.1086 21.4378C54.0616 21.2383 54.0525 21.0986 54.0525 21.0652L50.6139 21.0652C50.6139 21.6951 50.7907 22.6922 51.2654 23.5849L54.3015 21.9704ZM54.4445 22.1824C54.4263 22.1824 54.4297 22.1801 54.445 22.1853C54.4594 22.1903 54.466 22.1956 54.4623 22.1928C54.448 22.1821 54.3838 22.1252 54.3015 21.9704L51.2654 23.5849C51.7562 24.5077 52.7572 25.621 54.4445 25.621L54.4445 22.1824ZM56.1638 24.0353L56.1638 23.9017L52.7252 23.9017L52.7252 24.0353L56.1638 24.0353ZM54.3144 25.8426C54.3556 25.8034 54.3984 25.7792 54.4356 25.765C54.4543 25.7579 54.4682 25.7546 54.4744 25.7534C54.4819 25.752 54.4727 25.7546 54.4445 25.7546L54.4445 22.316C53.6945 22.316 52.7311 22.6028 51.9444 23.3511L54.3144 25.8426ZM54.0525 26.8292C54.0525 26.4538 54.1122 26.218 54.1665 26.0801C54.2193 25.946 54.2772 25.8779 54.3144 25.8426L51.9444 23.3511C51.1125 24.1424 50.6139 25.3169 50.6139 26.8292L54.0525 26.8292ZM52.1995 28.5485L52.3332 28.5485L52.3332 25.1099L52.1995 25.1099L52.1995 28.5485ZM50.2686 25.9328C50.3351 26.0594 50.3921 26.2268 50.431 26.4136C50.47 26.6004 50.4802 26.7557 50.4802 26.8292L53.9189 26.8292C53.9189 26.255 53.7966 25.2556 53.3134 24.3349L50.2686 25.9328ZM50.0488 25.7546C50.11 25.7546 50.138 25.7628 50.1433 25.7645C50.1481 25.766 50.1482 25.7663 50.1493 25.7671C50.1541 25.7704 50.2027 25.8072 50.2686 25.9328L53.3134 24.3349C52.7897 23.337 51.7506 22.316 50.0488 22.316L50.0488 25.7546ZM51.8523 23.2543C51.2018 23.8731 50.7362 24.733 50.5595 25.814L53.9531 26.3688C54.0176 25.9738 54.1533 25.8114 54.2222 25.7458L51.8523 23.2543ZM53.4932 22.318C52.9538 22.4697 52.3688 22.763 51.8523 23.2543L54.2222 25.7458C54.2914 25.68 54.3659 25.6446 54.4237 25.6283L53.4932 22.318ZM51.1474 23.6476C51.5446 24.3945 52.2773 25.303 53.5138 25.634L54.4031 22.3124C54.4017 22.312 54.4004 22.3117 54.3964 22.3094C54.3917 22.3067 54.379 22.2986 54.3591 22.2801C54.3161 22.2401 54.2524 22.1628 54.1834 22.0331L51.1474 23.6476ZM50.597 22.1015C50.6938 22.5652 50.8642 23.1151 51.1474 23.6476L54.1834 22.0331C54.0856 21.8491 54.0094 21.6211 53.963 21.3989L50.597 22.1015ZM51.0524 25.595C52.3172 25.1997 53.6484 24.0416 53.9769 22.0268L50.5831 21.4735C50.5263 21.8218 50.4037 22.0135 50.3084 22.1195C50.203 22.2367 50.0912 22.2927 50.0266 22.3129L51.0524 25.595ZM53.4318 24.2728C53.0059 23.4613 52.2209 22.5687 50.9154 22.2762L50.1636 25.6316C50.2006 25.6399 50.2199 25.651 50.2436 25.6716C50.2755 25.6995 50.3282 25.7588 50.387 25.8707L53.4318 24.2728ZM53.9439 25.7626C53.8576 25.3197 53.7036 24.7908 53.4318 24.2728L50.387 25.8707C50.465 26.0195 50.5282 26.2123 50.5687 26.4202L53.9439 25.7626Z" fill="#FFEE97" mask="url(#path-6-inside-2_723_255)"/>
<path d="M26.6837 21.3981L29.499 29.3335L40.9362 29.3335L43.7702 21.4476C43.9672 20.8994 43.6465 20.3012 43.0809 20.162L38.8875 19.1295L37.9741 16.7201C37.8295 16.3385 37.4639 16.0862 37.0559 16.0862L33.4548 16.0862C33.0487 16.0862 32.6846 16.336 32.5385 16.7149L31.6074 19.1295L27.3863 20.1134C26.8158 20.2463 26.4879 20.846 26.6837 21.3981Z" fill="#D37DD2"/>
<ellipse cx="35.2048" cy="52.7003" rx="3.84493" ry="1.78111" fill="#8E1C8D"/>
<path d="M34.1235 51.6196L34.1235 41.0574L36.284 41.0574L36.284 51.6196C36.284 52.2162 35.8004 52.6998 35.2038 52.6998C34.6072 52.6998 34.1235 52.2162 34.1235 51.6196Z" fill="#FFEE97"/>
<path d="M26.6695 39.8864L29.4973 29.3311L40.9396 29.334L43.7425 39.8885C43.908 40.5117 43.4382 41.1225 42.7934 41.1225L27.6181 41.1225C26.9724 41.1225 26.5024 40.5101 26.6695 39.8864Z" fill="#FFADFE"/>
</svg>
