<svg width="192" height="192" viewBox="0 0 192 192" fill="none" xmlns="http://www.w3.org/2000/svg">
<g clip-path="url(#clip0_1105_3828)">
<g filter="url(#filter0_di_1105_3828)">
<path d="M106.946 156.318L106.941 156.323C101.78 161.021 93.892 161.021 88.7313 156.323L88.726 156.318C68.0531 137.572 51.1921 122.256 39.456 107.898C27.7606 93.5899 21.5428 80.6858 21.5428 66.8245C21.5428 44.1564 39.2387 26.5317 61.8359 26.5317C74.6354 26.5317 86.9813 32.5092 95.0231 41.8789L97.8359 45.1563L100.649 41.8789C108.691 32.5092 121.037 26.5317 133.836 26.5317C156.433 26.5317 174.129 44.1564 174.129 66.8245C174.129 80.6858 167.911 93.5899 156.216 107.898C144.48 122.256 127.619 137.572 106.946 156.318Z" stroke="white" stroke-width="7.41366" shape-rendering="crispEdges"/>
</g>
<g filter="url(#filter1_d_1105_3828)">
<path fill-rule="evenodd" clip-rule="evenodd" d="M95.0557 75.485L95.0248 75.5334L94.8679 75.8148C92.8218 79.488 89.9961 84.5605 86.0618 86.3182C82.7471 87.7972 78.1917 86.6689 74.8083 85.8283C74.8015 85.0467 74.5759 84.2826 74.1569 83.6228C73.7379 82.9629 73.1424 82.4337 72.4379 82.0952C71.7333 81.7567 70.948 81.6224 70.1711 81.7076C69.3941 81.7928 68.6566 82.0941 68.0421 82.5772C67.4277 83.0604 66.961 83.7061 66.695 84.441C66.4289 85.176 66.3742 85.9708 66.537 86.7352C66.6998 87.4997 67.0737 88.2033 67.6161 88.766C68.1585 89.3288 68.8478 89.7283 69.6058 89.9192L76.4975 111.601C77.0086 113.208 77.9938 114.623 79.3238 115.661C80.6537 116.698 82.2663 117.309 83.9498 117.413L106.376 118.802C108.059 118.906 109.735 118.498 111.183 117.633C112.63 116.767 113.783 115.484 114.488 113.952L123.998 93.2863C124.769 93.1916 125.498 92.8842 126.104 92.3984C126.71 91.9127 127.169 91.2678 127.429 90.5361C127.689 89.8044 127.74 89.0147 127.577 88.2555C127.413 87.4963 127.041 86.7977 126.503 86.2379C125.965 85.6781 125.282 85.2792 124.529 85.0859C123.777 84.8927 122.986 84.9127 122.245 85.1437C121.503 85.3748 120.841 85.8077 120.332 86.394C119.822 86.9804 119.487 87.6969 119.362 88.4634C115.831 88.7 111.279 88.9992 108.15 87.1102C104.454 84.8761 102.202 79.6681 100.551 75.8512L100.537 75.8188L100.537 75.8188C101.644 75.2785 102.541 74.3871 103.087 73.2837C103.634 72.1802 103.8 70.9268 103.559 69.7191C103.319 68.5114 102.685 67.4173 101.757 66.6077C100.829 65.798 99.6594 65.3183 98.4302 65.2435C97.201 65.1687 95.9816 65.5029 94.9624 66.194C93.9432 66.8851 93.1814 67.8942 92.796 69.0638C92.4106 70.2334 92.4233 71.4977 92.8321 72.6593C93.2409 73.8209 94.0228 74.8145 95.0557 75.485ZM80.7361 110.253L80.736 110.253L84.2246 112.974C83.4365 112.925 82.6817 112.639 82.0592 112.154C81.4367 111.668 80.9755 111.006 80.7361 110.253ZM80.736 110.253L84.225 112.974L106.65 114.362L106.65 114.363C107.439 114.411 108.223 114.22 108.901 113.815C109.578 113.41 110.118 112.809 110.448 112.092L119.268 92.9272C117.594 93.0384 115.452 93.1649 113.308 93.0216C111.014 92.8682 108.284 92.3863 105.851 90.9176L105.85 90.9167C103.085 89.2459 101.139 86.6557 99.7544 84.3371C98.9108 82.9244 98.1826 81.4487 97.5606 80.0907C96.7856 81.4265 95.8824 82.8905 94.867 84.27C93.2224 86.5046 90.9384 89.0108 87.876 90.379L87.8741 90.3798C85.1868 91.5789 82.3132 91.6036 80.0079 91.3676C77.9668 91.1587 75.967 90.695 74.3964 90.3083L80.736 110.253Z" fill="white"/>
</g>
</g>
<defs>
<filter id="filter0_di_1105_3828" x="0.0431614" y="5.03208" width="195.586" height="176.314" filterUnits="userSpaceOnUse" color-interpolation-filters="sRGB">
<feFlood flood-opacity="0" result="BackgroundImageFix"/>
<feColorMatrix in="SourceAlpha" type="matrix" values="0 0 0 0 0 0 0 0 0 0 0 0 0 0 0 0 0 0 127 0" result="hardAlpha"/>
<feOffset/>
<feGaussianBlur stdDeviation="8.89639"/>
<feComposite in2="hardAlpha" operator="out"/>
<feColorMatrix type="matrix" values="0 0 0 0 1 0 0 0 0 0.934667 0 0 0 0 0.591667 0 0 0 1 0"/>
<feBlend mode="normal" in2="BackgroundImageFix" result="effect1_dropShadow_1105_3828"/>
<feBlend mode="normal" in="SourceGraphic" in2="effect1_dropShadow_1105_3828" result="shape"/>
<feColorMatrix in="SourceAlpha" type="matrix" values="0 0 0 0 0 0 0 0 0 0 0 0 0 0 0 0 0 0 127 0" result="hardAlpha"/>
<feOffset/>
<feGaussianBlur stdDeviation="10.3791"/>
<feComposite in2="hardAlpha" operator="arithmetic" k2="-1" k3="1"/>
<feColorMatrix type="matrix" values="0 0 0 0 1 0 0 0 0 1 0 0 0 0 1 0 0 0 1 0"/>
<feBlend mode="normal" in2="shape" result="effect2_innerShadow_1105_3828"/>
</filter>
<filter id="filter1_d_1105_3828" x="61.9971" y="60.785" width="70.121" height="62.4807" filterUnits="userSpaceOnUse" color-interpolation-filters="sRGB">
<feFlood flood-opacity="0" result="BackgroundImageFix"/>
<feColorMatrix in="SourceAlpha" type="matrix" values="0 0 0 0 0 0 0 0 0 0 0 0 0 0 0 0 0 0 127 0" result="hardAlpha"/>
<feOffset/>
<feGaussianBlur stdDeviation="2.2241"/>
<feComposite in2="hardAlpha" operator="out"/>
<feColorMatrix type="matrix" values="0 0 0 0 1 0 0 0 0 0.934667 0 0 0 0 0.591667 0 0 0 1 0"/>
<feBlend mode="normal" in2="BackgroundImageFix" result="effect1_dropShadow_1105_3828"/>
<feBlend mode="normal" in="SourceGraphic" in2="effect1_dropShadow_1105_3828" result="shape"/>
</filter>
<clipPath id="clip0_1105_3828">
<rect width="192" height="191.999" fill="white"/>
</clipPath>
</defs>
</svg>
